<?xml version="1.0" encoding="utf-8"?>
<!-- Generator: Adobe Illustrator 24.2.1, SVG Export Plug-In . SVG Version: 6.00 Build 0)  -->
<svg version="1.1" id="Warstwa_1" xmlns="http://www.w3.org/2000/svg" xmlns:xlink="http://www.w3.org/1999/xlink" x="0px" y="0px"
	 viewBox="0 0 1400 230" style="enable-background:new 0 0 1400 230;" xml:space="preserve">
<style type="text/css">
	.st0{fill:#AA7E63;}
	.st1{fill:#020203;}
	.st2{opacity:0.5;}
	.st3{fill:#FFFFFF;}
	.st4{opacity:0.5;fill:#FFFFFF;}
	.st5{clip-path:url(#SVGID_2_);}
	.st6{clip-path:url(#SVGID_4_);}
	.st7{clip-path:url(#SVGID_6_);}
	.st8{clip-path:url(#SVGID_8_);}
	.st9{clip-path:url(#SVGID_10_);}
	.st10{clip-path:url(#SVGID_12_);}
	.st11{clip-path:url(#SVGID_14_);}
	.st12{clip-path:url(#SVGID_16_);}
	.st13{clip-path:url(#SVGID_18_);}
	.st14{clip-path:url(#SVGID_20_);}
	.st15{clip-path:url(#SVGID_22_);}
	.st16{clip-path:url(#SVGID_24_);}
	.st17{clip-path:url(#SVGID_26_);}
	.st18{clip-path:url(#SVGID_28_);}
	.st19{clip-path:url(#SVGID_30_);}
	.st20{clip-path:url(#SVGID_32_);}
	.st21{clip-path:url(#SVGID_34_);}
	.st22{clip-path:url(#SVGID_36_);}
	.st23{clip-path:url(#SVGID_38_);}
	.st24{clip-path:url(#SVGID_40_);}
	.st25{clip-path:url(#SVGID_42_);}
	.st26{clip-path:url(#SVGID_44_);}
	.st27{clip-path:url(#SVGID_46_);}
	.st28{clip-path:url(#SVGID_48_);}
	.st29{clip-path:url(#SVGID_50_);}
	.st30{clip-path:url(#SVGID_52_);}
	.st31{clip-path:url(#SVGID_54_);}
	.st32{clip-path:url(#SVGID_56_);}
	.st33{clip-path:url(#SVGID_58_);}
	.st34{clip-path:url(#SVGID_60_);}
	.st35{clip-path:url(#SVGID_62_);}
	.st36{clip-path:url(#SVGID_64_);}
	.st37{clip-path:url(#SVGID_66_);}
	.st38{clip-path:url(#SVGID_68_);}
	.st39{clip-path:url(#SVGID_70_);}
	.st40{fill:#123274;}
	.st41{fill:#2DB8C5;}
	.st42{opacity:0.8;}
	.st43{fill:#008BC0;}
	.st44{opacity:0.5;fill:none;stroke:#FFFFFF;stroke-width:8;stroke-linecap:round;stroke-linejoin:round;stroke-miterlimit:10;}
	.st45{opacity:0.5;fill:none;stroke:#FFFFFF;stroke-width:7;stroke-linecap:round;stroke-linejoin:round;stroke-miterlimit:10;}
	.st46{fill:#0B5BA6;}
	.st47{opacity:0.8;fill:url(#SVGID_71_);}
	.st48{fill:none;stroke:#FFFFFF;stroke-width:10;stroke-miterlimit:10;}
	.st49{opacity:0.8;fill:url(#SVGID_72_);}
	.st50{fill:none;stroke:#FFFFFF;stroke-width:5;stroke-miterlimit:10;}
	.st51{fill:none;stroke:#FFFFFF;stroke-width:6;stroke-miterlimit:10;}
	.st52{opacity:0.8;fill:url(#SVGID_91_);}
	.st53{fill:#878787;}
	.st54{opacity:0.8;fill:url(#SVGID_110_);}
	.st55{opacity:0.8;fill:url(#SVGID_111_);}
	.st56{stroke:#FFFFFF;stroke-width:8;stroke-linecap:round;stroke-linejoin:round;stroke-miterlimit:10;}
	.st57{opacity:0.8;fill:url(#SVGID_112_);}
	.st58{opacity:0.8;fill:url(#SVGID_113_);}
	.st59{clip-path:url(#SVGID_115_);fill:#12100B;}
	.st60{fill:#12100B;}
	.st61{fill:url(#SVGID_116_);}
	.st62{fill:url(#SVGID_117_);}
	.st63{fill:#E87443;}
	.st64{fill:#82368C;}
	.st65{opacity:0.8;fill:url(#SVGID_118_);}
	.st66{opacity:0.8;fill:url(#SVGID_119_);}
	.st67{fill:#74B959;}
	.st68{opacity:0.8;fill:url(#SVGID_120_);}
	.st69{opacity:0.8;fill:#5EA62B;}
	.st70{fill:#10466D;}
	.st71{opacity:0.4;}
	.st72{clip-path:url(#SVGID_122_);}
	.st73{fill:url(#SVGID_123_);}
	.st74{fill:url(#SVGID_124_);}
	.st75{fill:url(#SVGID_125_);}
	.st76{fill:url(#SVGID_126_);}
	.st77{fill:url(#SVGID_127_);}
	.st78{fill:url(#SVGID_128_);}
	.st79{fill:url(#SVGID_129_);}
	.st80{fill:url(#SVGID_130_);}
	.st81{fill:url(#SVGID_131_);}
	.st82{fill:url(#SVGID_132_);}
	.st83{fill:url(#SVGID_133_);}
	.st84{fill:url(#SVGID_134_);}
	.st85{fill:url(#SVGID_135_);}
	.st86{fill:url(#SVGID_136_);}
	.st87{fill:url(#SVGID_137_);}
	.st88{fill:url(#SVGID_138_);}
	.st89{fill:url(#SVGID_139_);}
	.st90{fill:url(#SVGID_140_);}
	.st91{fill:url(#SVGID_141_);}
	.st92{fill:url(#SVGID_142_);}
	.st93{fill:url(#SVGID_143_);}
	.st94{fill:url(#SVGID_144_);}
	.st95{fill:url(#SVGID_145_);}
	.st96{fill:url(#SVGID_146_);}
	.st97{fill:url(#SVGID_147_);}
	.st98{fill:url(#SVGID_148_);}
	.st99{fill:url(#SVGID_149_);}
	.st100{fill:url(#SVGID_150_);}
	.st101{fill:url(#SVGID_151_);}
	.st102{fill:url(#SVGID_152_);}
	.st103{fill:url(#SVGID_153_);}
	.st104{fill:url(#SVGID_154_);}
	.st105{fill:url(#SVGID_155_);}
	.st106{fill:url(#SVGID_156_);}
	.st107{fill:url(#SVGID_157_);}
	.st108{fill:url(#SVGID_158_);}
	.st109{fill:url(#SVGID_159_);}
	.st110{fill:url(#SVGID_160_);}
	.st111{fill:url(#SVGID_161_);}
	.st112{fill:url(#SVGID_162_);}
	.st113{fill:url(#SVGID_163_);}
	.st114{fill:url(#SVGID_164_);}
	.st115{fill:url(#SVGID_165_);}
	.st116{fill:url(#SVGID_166_);}
	.st117{fill:url(#SVGID_167_);}
	.st118{fill:url(#SVGID_168_);}
	.st119{fill:url(#SVGID_169_);}
	.st120{fill:url(#SVGID_170_);}
	.st121{fill:url(#SVGID_171_);}
	.st122{fill:url(#SVGID_172_);}
	.st123{fill:url(#SVGID_173_);}
	.st124{fill:url(#SVGID_174_);}
	.st125{fill:url(#SVGID_175_);}
	.st126{fill:url(#SVGID_176_);}
	.st127{fill:url(#SVGID_177_);}
	.st128{fill:url(#SVGID_178_);}
	.st129{fill:#F59A1C;}
	.st130{fill:#FFFFFF;stroke:#FFFFFF;stroke-width:14.1732;stroke-miterlimit:10;}
	.st131{opacity:0.8;fill:url(#SVGID_179_);}
	.st132{fill:#255C30;}
	.st133{fill:#C10C1A;}
	.st134{fill:#65C3CE;}
	.st135{fill:#31B7BC;}
	.st136{fill:#9D9D9C;}
	.st137{opacity:0.65;fill:#FFFFFF;}
	.st138{opacity:0.65;}
	.st139{opacity:0.8;fill:url(#SVGID_180_);}
	.st140{fill:#ED694B;}
	.st141{opacity:0.8;fill:url(#SVGID_181_);}
	.st142{clip-path:url(#SVGID_183_);}
	.st143{clip-path:url(#SVGID_185_);}
	.st144{clip-path:url(#SVGID_187_);}
	.st145{opacity:0.6;}
	.st146{opacity:0.6;fill:#FFFFFF;}
	.st147{opacity:0.8;fill:url(#SVGID_188_);}
	.st148{opacity:0.8;fill:url(#SVGID_189_);}
	.st149{opacity:0.8;fill:url(#SVGID_190_);}
	.st150{fill:none;stroke:#FFFFFF;stroke-width:35;stroke-linecap:round;stroke-linejoin:round;stroke-miterlimit:10;}
	.st151{opacity:0.8;fill:url(#SVGID_191_);}
	.st152{opacity:0.8;fill:url(#SVGID_192_);}
	.st153{fill:none;stroke:#FFFFFF;stroke-width:20;stroke-linecap:round;stroke-linejoin:round;stroke-miterlimit:10;}
	.st154{opacity:0.8;fill:url(#SVGID_193_);}
	.st155{fill:none;stroke:#FFFFFF;stroke-width:2;stroke-miterlimit:10;}
	.st156{opacity:0.75;fill:url(#SVGID_194_);}
	.st157{opacity:0.8;fill:url(#SVGID_195_);}
	.st158{fill:url(#SVGID_196_);}
	.st159{opacity:0.8;fill:url(#SVGID_197_);}
	.st160{opacity:0.8;fill:url(#SVGID_198_);}
	.st161{fill:url(#SVGID_199_);}
	.st162{fill:url(#SVGID_200_);}
	.st163{fill:url(#SVGID_201_);}
	.st164{fill:url(#SVGID_202_);}
	.st165{fill:url(#SVGID_203_);}
	.st166{opacity:0.8;fill:url(#SVGID_204_);}
	.st167{fill:url(#SVGID_205_);}
	.st168{opacity:0.1;}
	.st169{opacity:0.1;fill:#FFFFFF;}
	.st170{opacity:0.15;fill:#FFFFFF;}
	.st171{opacity:0.15;}
	.st172{opacity:0.8;fill:url(#SVGID_206_);}
	.st173{fill:url(#SVGID_207_);}
	.st174{fill:url(#SVGID_208_);}
	.st175{fill:url(#SVGID_209_);}
	.st176{opacity:0.8;fill:url(#SVGID_210_);}
	.st177{opacity:0.8;fill:url(#SVGID_211_);}
	.st178{opacity:0.8;fill:url(#SVGID_212_);}
</style>
<g>
	<rect x="0" class="st140" width="1400" height="230"/>
	<path class="st4" d="M1081.28,133.64c-1.05,0-2.04,0.2-2.99,0.61c-2.99,1.27-4.98,3.97-4.98,6.92c0,3.97,3.41,7.07,7.76,7.07
		c4.61,0,7.5-3.61,7.5-6.92C1088.57,138.83,1086.79,133.64,1081.28,133.64z"/>
	<path class="st4" d="M1081.21,157.65c-0.81,0-1.58,0.16-2.31,0.47c-2.31,0.98-3.85,3.07-3.85,5.35c0,3.07,2.63,5.46,5.99,5.46
		c3.56,0,5.79-2.79,5.79-5.35C1086.84,161.66,1085.46,157.65,1081.21,157.65z"/>
	<path class="st4" d="M1081.14,179.73c-0.61,0-1.19,0.12-1.74,0.36c-1.74,0.74-2.9,2.31-2.9,4.03c0,2.31,1.99,4.12,4.52,4.12
		c2.69,0,4.37-2.1,4.37-4.03C1085.39,182.76,1084.35,179.73,1081.14,179.73z"/>
	<path class="st4" d="M697.92,198.18h31.2c1.47,0,2.67-1.16,2.67-2.59c0-1.43-1.2-2.59-2.67-2.59h-31.2c-1.47,0-2.67,1.16-2.67,2.59
		C695.26,197.02,696.45,198.18,697.92,198.18z"/>
	<g class="st138">
		<path class="st3" d="M408.17,113.37c-0.76,0-1.48,0.15-2.16,0.44c-2.16,0.92-3.6,2.87-3.6,5.01c0,2.87,2.47,5.12,5.61,5.12
			c3.34,0,5.42-2.61,5.42-5.01C413.44,117.13,412.15,113.37,408.17,113.37z"/>
	</g>
	<g class="st138">
		<path class="st3" d="M258.86,73.3c-0.76,0-1.48,0.15-2.16,0.44c-2.16,0.92-3.6,2.87-3.6,5.01c0,2.87,2.47,5.12,5.61,5.12
			c3.34,0,5.42-2.61,5.42-5.01C264.13,77.05,262.84,73.3,258.86,73.3z"/>
	</g>
	<g class="st138">
		<path class="st3" d="M883.29,128.47c-0.76,0-1.48,0.15-2.16,0.44c-2.16,0.92-3.6,2.87-3.6,5.01c0,2.87,2.47,5.12,5.61,5.12
			c3.34,0,5.42-2.61,5.42-5.01C888.56,132.22,887.27,128.47,883.29,128.47z"/>
	</g>
	<g class="st138">
		<path class="st3" d="M603.64,29.39c-0.76,0-1.48,0.15-2.16,0.44c-2.16,0.92-3.6,2.87-3.6,5.01c0,2.87,2.47,5.12,5.61,5.12
			c3.34,0,5.42-2.61,5.42-5.01C608.91,33.15,607.62,29.39,603.64,29.39z"/>
	</g>
	<g class="st138">
		<path class="st3" d="M853,72.34c-0.76,0-1.48,0.15-2.16,0.44c-2.16,0.92-3.6,2.87-3.6,5.01c0,2.87,2.47,5.12,5.61,5.12
			c3.34,0,5.42-2.61,5.42-5.01C858.27,76.09,856.99,72.34,853,72.34z"/>
	</g>
	<g class="st138">
		<path class="st3" d="M738.87,41.49c-0.97,0-1.9,0.19-2.78,0.57c-2.78,1.18-4.63,3.69-4.63,6.43c0,3.69,3.17,6.57,7.21,6.57
			c4.29,0,6.97-3.36,6.97-6.43C745.64,46.32,743.98,41.49,738.87,41.49z"/>
	</g>
	<g class="st138">
		<path class="st3" d="M528.46,138.46c-0.97,0-1.9,0.19-2.78,0.57c-2.78,1.18-4.63,3.69-4.63,6.43c0,3.69,3.17,6.57,7.21,6.57
			c4.29,0,6.97-3.36,6.97-6.43C535.23,143.29,533.58,138.46,528.46,138.46z"/>
	</g>
	<g class="st138">
		<path class="st3" d="M430.81,44.47c-0.97,0-1.9,0.19-2.78,0.57c-2.78,1.18-4.63,3.69-4.63,6.43c0,3.69,3.17,6.57,7.21,6.57
			c4.29,0,6.97-3.36,6.97-6.43C437.58,49.29,435.92,44.47,430.81,44.47z"/>
	</g>
	<g class="st138">
		<path class="st3" d="M1363.16,148.85c-0.62,0-1.21,0.12-1.77,0.36c-1.77,0.75-2.94,2.35-2.94,4.09c0,2.35,2.01,4.18,4.59,4.18
			c2.73,0,4.43-2.14,4.43-4.09C1367.46,151.92,1366.41,148.85,1363.16,148.85z"/>
	</g>
	<g class="st138">
		<path class="st3" d="M1344.58,164.95c-0.88,0-1.71,0.17-2.5,0.51c-2.5,1.07-4.17,3.32-4.17,5.79c0,3.32,2.85,5.92,6.5,5.92
			c3.86,0,6.28-3.03,6.28-5.79C1350.68,169.3,1349.19,164.95,1344.58,164.95z"/>
	</g>
	<g class="st138">
		<path class="st3" d="M1360.51,182.29c-0.62,0-1.21,0.12-1.77,0.36c-1.77,0.75-2.94,2.35-2.94,4.09c0,2.35,2.01,4.18,4.59,4.18
			c2.73,0,4.43-2.14,4.43-4.09C1364.81,185.36,1363.76,182.29,1360.51,182.29z"/>
	</g>
	<g class="st138">
		<path class="st3" d="M906.42,144.18c-0.62,0-1.21,0.12-1.77,0.36c-1.77,0.75-2.94,2.35-2.94,4.09c0,2.35,2.01,4.18,4.59,4.18
			c2.73,0,4.43-2.14,4.43-4.09C910.73,147.25,909.67,144.18,906.42,144.18z"/>
	</g>
	<g class="st138">
		<path class="st3" d="M386.68,129.57c-0.91,0-1.77,0.18-2.59,0.53c-2.59,1.1-4.32,3.44-4.32,6c0,3.44,2.96,6.13,6.73,6.13
			c4,0,6.5-3.13,6.5-6C393,134.07,391.45,129.57,386.68,129.57z"/>
	</g>
	<g class="st138">
		<path class="st3" d="M279.4,55.96c-0.91,0-1.77,0.18-2.59,0.53c-2.59,1.1-4.32,3.44-4.32,6c0,3.44,2.96,6.13,6.73,6.13
			c4,0,6.5-3.13,6.5-6C285.72,60.46,284.18,55.96,279.4,55.96z"/>
	</g>
	<g class="st138">
		<path class="st3" d="M714.78,23.54c-1.05,0-2.04,0.2-2.99,0.61c-2.99,1.27-4.98,3.97-4.98,6.92c0,3.97,3.41,7.07,7.76,7.07
			c4.61,0,7.5-3.61,7.5-6.92C722.07,28.73,720.28,23.54,714.78,23.54z"/>
	</g>
	<g class="st138">
		<path class="st3" d="M717.62,60.57c-0.81,0-1.58,0.16-2.31,0.47c-2.31,0.98-3.85,3.07-3.85,5.35c0,3.07,2.63,5.46,5.99,5.46
			c3.56,0,5.79-2.79,5.79-5.35C723.25,64.58,721.87,60.57,717.62,60.57z"/>
	</g>
	<g class="st138">
		<path class="st3" d="M537.25,172.56c-0.81,0-1.58,0.16-2.31,0.47c-2.31,0.98-3.85,3.07-3.85,5.35c0,3.07,2.63,5.46,5.99,5.46
			c3.56,0,5.79-2.79,5.79-5.35C542.88,176.57,541.51,172.56,537.25,172.56z"/>
	</g>
	<g class="st138">
		<path class="st3" d="M515.46,196.1c-0.81,0-1.58,0.16-2.31,0.47c-2.31,0.98-3.85,3.07-3.85,5.35c0,3.07,2.63,5.46,5.99,5.46
			c3.56,0,5.79-2.79,5.79-5.35C521.09,200.11,519.71,196.1,515.46,196.1z"/>
	</g>
	<g class="st138">
		<path class="st3" d="M419.6,25.29c-0.81,0-1.58,0.16-2.31,0.47c-2.31,0.98-3.85,3.07-3.85,5.35c0,3.07,2.63,5.46,5.99,5.46
			c3.56,0,5.79-2.79,5.79-5.35C425.23,29.3,423.85,25.29,419.6,25.29z"/>
	</g>
	<g class="st138">
		<path class="st3" d="M1052.89,147.77c-0.61,0-1.19,0.12-1.74,0.36c-1.74,0.74-2.9,2.31-2.9,4.03c0,2.31,1.99,4.12,4.52,4.12
			c2.69,0,4.37-2.1,4.37-4.03C1057.14,150.79,1056.1,147.77,1052.89,147.77z"/>
	</g>
	<g class="st138">
		<path class="st3" d="M1231.64,66.83c-1.05,0-2.04,0.2-2.99,0.61c-2.99,1.27-4.98,3.97-4.98,6.92c0,3.97,3.41,7.07,7.76,7.07
			c4.61,0,7.5-3.61,7.5-6.92C1238.93,72.02,1237.15,66.83,1231.64,66.83z"/>
	</g>
	<g class="st138">
		<path class="st3" d="M1006.49,169.25c-1.05,0-2.04,0.2-2.99,0.61c-2.99,1.27-4.98,3.97-4.98,6.92c0,3.97,3.41,7.07,7.76,7.07
			c4.61,0,7.5-3.61,7.5-6.92C1013.77,174.44,1011.99,169.25,1006.49,169.25z"/>
	</g>
	<g class="st138">
		<g>
			<g>
				<path class="st3" d="M687.64,164.24c-0.83,0-1.65-0.31-2.28-0.92l-17.09-16.59c-1.26-1.22-1.26-3.21,0-4.43
					c1.26-1.22,3.3-1.22,4.56,0l17.09,16.59c1.26,1.22,1.26,3.21,0,4.43C689.29,163.94,688.47,164.24,687.64,164.24z"/>
			</g>
		</g>
		<g>
			<g>
				<path class="st3" d="M670.55,164.24c-0.83,0-1.65-0.31-2.28-0.92c-1.26-1.22-1.26-3.21,0-4.43l17.09-16.59
					c1.26-1.22,3.3-1.22,4.56,0c1.26,1.22,1.26,3.21,0,4.43l-17.09,16.59C672.2,163.94,671.37,164.24,670.55,164.24z"/>
			</g>
		</g>
	</g>
	<g class="st138">
		<g>
			<path class="st3" d="M651.56,201.12c-0.86,0-1.68-0.33-2.28-0.92l-8.05-7.81c-1.26-1.22-1.26-3.21,0-4.43
				c1.26-1.22,3.3-1.22,4.56,0l5.77,5.6l9.8-9.51c1.26-1.22,3.3-1.22,4.56,0c1.26,1.22,1.26,3.21,0,4.43l-12.08,11.73
				C653.23,200.79,652.41,201.12,651.56,201.12z"/>
		</g>
	</g>
	<g class="st138">
		<g>
			<path class="st3" d="M984.72,54.47c-0.86,0-1.68-0.33-2.28-0.92l-8.05-7.81c-1.26-1.22-1.26-3.21,0-4.43
				c1.26-1.22,3.3-1.22,4.56,0l5.77,5.6l9.8-9.51c1.26-1.22,3.3-1.22,4.56,0c1.26,1.22,1.26,3.21,0,4.43L987,53.55
				C986.4,54.14,985.58,54.47,984.72,54.47z"/>
		</g>
	</g>
	<g class="st138">
		<g>
			<path class="st3" d="M262.11,47.13c-0.86,0-1.68-0.33-2.28-0.92l-8.05-7.81c-1.26-1.22-1.26-3.21,0-4.43
				c1.26-1.22,3.3-1.22,4.56,0l5.77,5.6l9.8-9.51c1.26-1.22,3.3-1.22,4.56,0c1.26,1.22,1.26,3.21,0,4.43l-12.08,11.73
				C263.79,46.8,262.97,47.13,262.11,47.13z"/>
		</g>
	</g>
	<g class="st138">
		<g>
			<g>
				<path class="st3" d="M1243.99,197.64c1.78,0,3.23,1.4,3.23,3.13c0,1.73-1.44,3.13-3.23,3.13l-17.09,0
					c-1.78,0-3.23-1.4-3.23-3.13c0-1.73,1.44-3.13,3.23-3.13L1243.99,197.64z"/>
			</g>
		</g>
		<g>
			<g>
				<path class="st3" d="M1234.96,189.83c0.83,0,1.65,0.31,2.28,0.92c1.26,1.22,1.26,3.21,0,4.43l-5.78,5.61l5.77,5.6
					c1.26,1.22,1.26,3.21,0,4.43s-3.3,1.22-4.56,0l-8.05-7.81c-0.61-0.59-0.95-1.38-0.95-2.22c0-0.83,0.34-1.63,0.95-2.21l8.06-7.82
					C1233.31,190.13,1234.13,189.83,1234.96,189.83z"/>
			</g>
		</g>
	</g>
	<g class="st138">
		<path class="st3" d="M1038.82,109.72c-0.38,0-0.75-0.09-1.08-0.26l-7.7-3.93l-7.72,3.93c-0.33,0.17-0.7,0.25-1.07,0.25
			c-0.48,0-0.94-0.14-1.33-0.41c-0.71-0.51-1.07-1.37-0.92-2.19l1.47-8.34l-6.24-5.9c-0.63-0.6-0.85-1.47-0.58-2.28
			c0.27-0.8,0.97-1.38,1.84-1.51l8.64-1.22l3.86-7.59c0.38-0.76,1.17-1.24,2.05-1.24c0.87,0,1.66,0.47,2.05,1.23l3.85,7.59
			l8.63,1.22c0.88,0.13,1.58,0.71,1.85,1.52c0.27,0.81,0.05,1.68-0.58,2.28l-6.24,5.91l1.47,8.34c0.15,0.82-0.2,1.68-0.91,2.18
			C1039.77,109.58,1039.3,109.72,1038.82,109.72z M1030.03,100.79c0.37,0,0.73,0.09,1.06,0.25l4.68,2.39l-0.89-5.05
			c-0.12-0.73,0.12-1.47,0.65-1.97l3.78-3.58l-5.22-0.74c-0.74-0.1-1.39-0.55-1.73-1.22l-2.34-4.59l-2.34,4.59
			c-0.33,0.66-0.98,1.12-1.73,1.22l-5.21,0.73l3.78,3.57c0.54,0.51,0.78,1.25,0.66,1.97l-0.9,5.05l4.67-2.38
			C1029.3,100.88,1029.66,100.79,1030.03,100.79z"/>
	</g>
	<g class="st138">
		<path class="st3" d="M1135.33,112.7c-0.36,0-0.71-0.09-1.02-0.25l-7.3-3.72l-7.31,3.73c-0.31,0.16-0.66,0.24-1.01,0.24
			c-0.45,0-0.89-0.13-1.26-0.39c-0.68-0.49-1.01-1.3-0.88-2.07l1.39-7.9l-5.91-5.59c-0.6-0.57-0.81-1.39-0.55-2.16
			c0.25-0.76,0.92-1.31,1.74-1.44l8.19-1.15l3.66-7.19c0.36-0.72,1.11-1.17,1.94-1.17c0.83,0,1.57,0.45,1.95,1.17l3.65,7.19
			l8.18,1.15c0.83,0.13,1.5,0.68,1.75,1.44c0.26,0.76,0.05,1.59-0.55,2.16l-5.92,5.6l1.39,7.9c0.15,0.78-0.19,1.59-0.86,2.06
			C1136.23,112.57,1135.79,112.7,1135.33,112.7z M1127.01,104.24c0.35,0,0.7,0.08,1.01,0.24l4.44,2.26l-0.84-4.78
			c-0.12-0.69,0.11-1.39,0.62-1.87l3.58-3.39l-4.95-0.7c-0.7-0.09-1.32-0.53-1.64-1.15L1127,90.5l-2.21,4.35
			c-0.32,0.63-0.93,1.06-1.64,1.15l-4.94,0.7l3.58,3.39c0.51,0.49,0.74,1.18,0.63,1.86l-0.85,4.79l4.43-2.26
			C1126.31,104.32,1126.66,104.24,1127.01,104.24z"/>
	</g>
	<g class="st138">
		<path class="st3" d="M462.32,141.91c-0.36,0-0.71-0.09-1.02-0.25l-7.3-3.72l-7.31,3.73c-0.31,0.16-0.66,0.24-1.01,0.24
			c-0.45,0-0.89-0.13-1.26-0.39c-0.68-0.49-1.01-1.3-0.88-2.07l1.39-7.9l-5.91-5.59c-0.6-0.57-0.81-1.39-0.55-2.16
			c0.25-0.76,0.92-1.31,1.74-1.44l8.19-1.15l3.66-7.19c0.36-0.72,1.11-1.17,1.94-1.17c0.83,0,1.57,0.45,1.95,1.17l3.65,7.19
			l8.18,1.15c0.83,0.13,1.5,0.68,1.75,1.44c0.26,0.76,0.05,1.59-0.55,2.16l-5.92,5.6l1.39,7.9c0.15,0.78-0.19,1.59-0.86,2.06
			C463.21,141.77,462.77,141.91,462.32,141.91z M453.99,133.45c0.35,0,0.7,0.08,1,0.24l4.44,2.26l-0.84-4.78
			c-0.12-0.69,0.11-1.39,0.62-1.87l3.58-3.39l-4.95-0.7c-0.7-0.09-1.32-0.53-1.64-1.15l-2.21-4.35l-2.21,4.35
			c-0.32,0.63-0.93,1.06-1.64,1.15l-4.94,0.7l3.58,3.39c0.51,0.49,0.74,1.18,0.63,1.86l-0.85,4.79l4.43-2.26
			C453.29,133.53,453.64,133.45,453.99,133.45z"/>
	</g>
	<g class="st138">
		<path class="st3" d="M493.59,179.69c-0.36,0-0.71-0.09-1.02-0.25l-7.3-3.72l-7.31,3.73c-0.31,0.16-0.66,0.24-1.01,0.24
			c-0.45,0-0.89-0.13-1.26-0.39c-0.68-0.49-1.01-1.3-0.88-2.07l1.39-7.9l-5.91-5.59c-0.6-0.57-0.81-1.39-0.55-2.16
			c0.25-0.76,0.92-1.31,1.74-1.44l8.19-1.15l3.66-7.19c0.36-0.72,1.11-1.17,1.94-1.17c0.83,0,1.57,0.45,1.95,1.17l3.65,7.19
			l8.18,1.15c0.83,0.13,1.5,0.68,1.75,1.44c0.26,0.76,0.05,1.59-0.55,2.16l-5.92,5.6l1.39,7.9c0.15,0.78-0.19,1.59-0.86,2.06
			C494.49,179.55,494.05,179.69,493.59,179.69z M485.26,171.23c0.35,0,0.7,0.08,1,0.24l4.44,2.26l-0.84-4.78
			c-0.12-0.69,0.11-1.39,0.62-1.87l3.58-3.39l-4.95-0.7c-0.7-0.09-1.32-0.53-1.64-1.15l-2.21-4.35l-2.21,4.35
			c-0.32,0.63-0.93,1.06-1.64,1.15l-4.94,0.7l3.58,3.39c0.51,0.49,0.74,1.18,0.63,1.86l-0.85,4.79l4.43-2.26
			C484.57,171.31,484.92,171.23,485.26,171.23z"/>
	</g>
	<g class="st138">
		<path class="st3" d="M814.55,56.92c-0.36,0-0.71-0.09-1.02-0.25l-7.3-3.72l-7.31,3.73c-0.31,0.16-0.66,0.24-1.01,0.24
			c-0.45,0-0.89-0.13-1.26-0.39c-0.68-0.49-1.01-1.3-0.88-2.07l1.39-7.9l-5.91-5.59c-0.6-0.57-0.81-1.39-0.55-2.16
			c0.25-0.76,0.92-1.31,1.74-1.44l8.19-1.15l3.66-7.19c0.36-0.72,1.11-1.17,1.94-1.17c0.83,0,1.57,0.45,1.95,1.17l3.65,7.19
			l8.18,1.15c0.83,0.13,1.5,0.68,1.75,1.44c0.26,0.76,0.05,1.59-0.55,2.16l-5.92,5.6l1.39,7.9c0.15,0.78-0.19,1.59-0.86,2.06
			C815.44,56.78,815,56.92,814.55,56.92z M806.22,48.45c0.35,0,0.7,0.08,1,0.24l4.44,2.26l-0.84-4.78
			c-0.12-0.69,0.11-1.39,0.62-1.87l3.58-3.39l-4.95-0.7c-0.7-0.09-1.32-0.53-1.64-1.15l-2.21-4.35L804,39.06
			c-0.32,0.63-0.93,1.06-1.64,1.15l-4.94,0.7L801,44.3c0.51,0.49,0.74,1.18,0.63,1.86l-0.85,4.79l4.43-2.26
			C805.52,48.54,805.87,48.45,806.22,48.45z"/>
	</g>
	<g class="st138">
		<path class="st3" d="M1217.52,56.07c0.81,0,1.58-0.16,2.31-0.47c2.31-0.98,3.85-3.07,3.85-5.35c0-3.07-2.63-5.46-5.99-5.46
			c-3.56,0-5.79,2.79-5.79,5.35C1211.88,52.06,1213.26,56.07,1217.52,56.07z"/>
	</g>
	<g class="st138">
		<path class="st3" d="M1215.02,177.44c0.81,0,1.58-0.16,2.31-0.47c2.31-0.98,3.85-3.07,3.85-5.35c0-3.07-2.63-5.46-5.99-5.46
			c-3.56,0-5.79,2.79-5.79,5.35C1209.39,173.43,1210.76,177.44,1215.02,177.44z"/>
	</g>
	<g class="st138">
		<g>
			<path class="st3" d="M998.6,209.77H866.5c-1.76,0-3.19-1.39-3.19-3.1c0-1.71,1.43-3.1,3.19-3.1h132.1c1.76,0,3.19,1.39,3.19,3.1
				C1001.79,208.38,1000.36,209.77,998.6,209.77z"/>
		</g>
	</g>
	<g class="st138">
		<g>
			<path class="st3" d="M625.89,165.48c0.05-2.17-0.85-4.29-2.46-5.8l-14.28-13.44c-0.56-0.53-1.31-0.82-2.09-0.82
				c-0.14,0-0.28,0.01-0.41,0.03l-17.33-21.08c-0.39-0.47-0.97-0.74-1.59-0.74c-0.46,0-0.91,0.15-1.26,0.43
				c-0.42,0.33-0.69,0.8-0.75,1.32c-0.06,0.52,0.09,1.04,0.43,1.45l17.69,21.52l-0.82,2.07l-10.86,8.11
				c-0.28,0.21-0.63,0.32-0.99,0.32c-0.21,0-0.42-0.04-0.61-0.12l-1.18-0.47c-1.56-0.62-3.19-1.09-4.85-1.41l-0.26-4.64
				c-0.07-1.31-0.62-2.55-1.55-3.5l-23.84-24.46c-0.38-0.39-0.92-0.62-1.47-0.62c-0.52,0-1.02,0.19-1.39,0.54
				c-0.81,0.75-0.85,1.99-0.08,2.78l23.84,24.46c0.27,0.27,0.43,0.63,0.45,1.01l0.25,4.52c-1.24,0.56-2.14,1.65-2.41,2.98
				l-5.26,25.73c-0.06,0.29-0.29,0.51-0.58,0.57l-6.99,1.51c-3.42,0.74-5.8,3.62-5.8,7.02v3.5c0,2.59,2.17,4.7,4.85,4.7h19.53
				c1.72,0,3.38-0.61,4.67-1.73l34.7-30.05C624.85,169.73,625.84,167.65,625.89,165.48z M583.81,199.02h-19.53
				c-0.44,0-0.79-0.34-0.79-0.77v-0.13h7.04c1.12,0,2.03-0.88,2.03-1.97c0-1.09-0.91-1.97-2.03-1.97h-6.99
				c0.23-1.28,1.22-2.32,2.58-2.61l6.98-1.51c1.86-0.4,3.31-1.83,3.68-3.65l0.7-3.44h2.15c1.12,0,2.03-0.88,2.03-1.97
				c0-1.09-0.91-1.97-2.03-1.97h-1.34l0.17-0.83h2.69c1.12,0,2.03-0.88,2.03-1.97c0-1.09-0.91-1.97-2.03-1.97h-1.88l0.17-0.83h0.77
				c1.12,0,2.03-0.88,2.03-1.97c0-1.07-0.89-1.95-1.99-1.97l0.17-0.83h3.62c1.12,0,2.03-0.88,2.03-1.97c0-1.09-0.91-1.97-2.03-1.97
				h-2.82l0.83-4.05c0.02-0.12,0.13-0.2,0.29-0.2c0,0,0.01,0,0.01,0c1.89,0.24,3.75,0.71,5.52,1.42l1.18,0.47
				c0.68,0.27,1.4,0.41,2.14,0.41c1.06,0,2.11-0.29,3.01-0.83l-0.44,1.05c-3.58,8.54-5.85,17.53-6.74,26.72l-4.08,4.4
				c-0.05,0.05-0.12,0.08-0.19,0.08h-7.16c-1.12,0-2.03,0.88-2.03,1.97c0,1.09,0.91,1.97,2.03,1.97h7.16c1.22,0,2.39-0.51,3.21-1.39
				l33.11-35.7l1.56,1.47c0.81,0.77,1.25,1.79,1.23,2.89c-0.02,1.1-0.5,2.11-1.35,2.84l-34.7,30.05
				C585.24,198.76,584.54,199.02,583.81,199.02z M595.3,180.75l-3.55,3.83c0.92-5.7,2.4-11.31,4.42-16.74
				C595.15,172.08,594.86,176.42,595.3,180.75z M601.31,174.27l-2.15,2.32c0.02-3.01,0.44-6.01,1.24-8.94l0.56-2.05
				C600.83,168.49,600.95,171.4,601.31,174.27z M606.25,152.91c0.15-0.17,0.27-0.37,0.36-0.58l0.87-2.19l8.66,8.15l-11.11,11.98
				c-0.12-2.33-0.06-4.67,0.17-6.97L606.25,152.91z"/>
		</g>
	</g>
	<g class="st138">
		<path class="st3" d="M726.73,206.92h9.15c1.47,0,2.67-1.16,2.67-2.59c0-1.43-1.2-2.59-2.67-2.59h-9.15
			c-1.47,0-2.67,1.16-2.67,2.59C724.06,205.76,725.26,206.92,726.73,206.92z"/>
	</g>
	<g class="st138">
		<path class="st3" d="M722.88,185.63h2.36c1.47,0,2.67-1.16,2.67-2.59c0-1.43-1.2-2.59-2.67-2.59h-2.36
			c-1.47,0-2.67,1.16-2.67,2.59C720.22,184.47,721.41,185.63,722.88,185.63z"/>
	</g>
	<g class="st138">
		<path class="st3" d="M699.2,197.33h31.2c1.47,0,2.67-1.16,2.67-2.59c0-1.43-1.2-2.59-2.67-2.59h-31.2c-1.47,0-2.67,1.16-2.67,2.59
			C696.53,196.16,697.73,197.33,699.2,197.33z"/>
	</g>
	<g class="st138">
		<path class="st3" d="M842.32,163.6h9.15c1.47,0,2.67-1.16,2.67-2.59c0-1.43-1.2-2.59-2.67-2.59h-9.15c-1.47,0-2.67,1.16-2.67,2.59
			C839.65,162.44,840.85,163.6,842.32,163.6z"/>
	</g>
	<g class="st138">
		<path class="st3" d="M838.47,174.39h2.36c1.47,0,2.67-1.16,2.67-2.59c0-1.43-1.2-2.59-2.67-2.59h-2.36
			c-1.47,0-2.67,1.16-2.67,2.59C835.81,173.23,837,174.39,838.47,174.39z"/>
	</g>
	<g class="st138">
		<path class="st3" d="M837.15,186.09h31.2c1.47,0,2.67-1.16,2.67-2.59c0-1.43-1.2-2.59-2.67-2.59h-31.2
			c-1.47,0-2.67,1.16-2.67,2.59C834.49,184.92,835.68,186.09,837.15,186.09z"/>
	</g>
	<g class="st138">
		<path class="st3" d="M1145.12,40.17h9.15c1.47,0,2.67-1.16,2.67-2.59c0-1.43-1.2-2.59-2.67-2.59h-9.15
			c-1.47,0-2.67,1.16-2.67,2.59C1142.45,39,1143.65,40.17,1145.12,40.17z"/>
	</g>
	<g class="st138">
		<path class="st3" d="M1141.27,50.95h2.36c1.47,0,2.67-1.16,2.67-2.59c0-1.43-1.2-2.59-2.67-2.59h-2.36
			c-1.47,0-2.67,1.16-2.67,2.59C1138.6,49.79,1139.8,50.95,1141.27,50.95z"/>
	</g>
	<g class="st138">
		<path class="st3" d="M1139.95,62.65h31.2c1.47,0,2.67-1.16,2.67-2.59c0-1.43-1.2-2.59-2.67-2.59h-31.2
			c-1.47,0-2.67,1.16-2.67,2.59C1137.28,61.48,1138.48,62.65,1139.95,62.65z"/>
	</g>
	<g class="st138">
		<g>
			<path class="st3" d="M70.37,116.49c-1.06,0-1.93-0.02-2.73-0.07l-0.05,0c-5.43-0.28-10.71-1.38-15.73-3.26
				c-0.84-0.31-1.61-0.62-2.37-0.94l-0.37-0.17c-0.61-0.26-1.25-0.55-1.92-0.89c-0.13-0.06-0.29-0.14-0.45-0.22l-0.32-0.16
				c-0.47-0.24-0.94-0.49-1.4-0.74c-0.33-0.18-0.65-0.36-0.97-0.54c-0.37-0.21-0.73-0.43-1.09-0.65c-0.42-0.26-0.85-0.52-1.26-0.79
				c-0.22-0.14-0.46-0.3-0.69-0.45c-0.49-0.32-0.99-0.67-1.49-1.02l-0.31-0.23c-2.63-1.91-5.08-4.08-7.28-6.42l-0.91-0.97l0.02-0.07
				c-6.3-7.13-10.38-15.72-11.85-24.93l-0.28,0.25l-0.29-5.37c-0.05-0.97-0.07-1.83-0.07-2.63c0-27.72,23.24-50.27,51.8-50.27
				c0.88,0,1.85,0.03,2.96,0.08l4.94,0.28l-0.17,0.2c9.59,1.4,18.51,5.37,25.92,11.53l0.01,0l0.4,0.29l0.67,0.59
				c2.4,2.11,4.64,4.5,6.64,7.1c0.01,0.01,0.07,0.07,0.12,0.14l0.05,0.07c0.38,0.5,0.75,1.01,1.11,1.51c0,0,0.37,0.53,0.45,0.65
				c0.29,0.41,0.56,0.83,0.82,1.24c0.23,0.35,0.45,0.71,0.67,1.06l0.56,0.94c0.28,0.49,0.55,0.98,0.81,1.48l0.1,0.18
				c0.08,0.15,0.17,0.31,0.24,0.46c0.3,0.58,0.61,1.21,0.91,1.86l0.16,0.32c0.3,0.68,0.64,1.46,0.96,2.26l0.02,0.06
				c1.93,4.88,3.05,9.98,3.35,15.17c0.01,0.08,0.01,0.15,0.01,0.19c0.05,0.73,0.07,1.57,0.07,2.6c0,7.43-1.64,14.59-4.87,21.28v0.6
				l-0.28,0c-0.12,0.24-0.25,0.47-0.38,0.7c-0.11,0.19-0.21,0.38-0.31,0.57c-0.08,0.15-0.15,0.28-0.22,0.41
				c-0.09,0.16-0.17,0.33-0.26,0.49c-0.24,0.43-0.5,0.85-0.75,1.27l-0.18,0.3c-0.18,0.28-0.34,0.54-0.5,0.8l-0.1,0.15
				c-0.32,0.49-0.64,0.98-0.98,1.46c-0.05,0.07-0.11,0.16-0.18,0.24l-0.08,0.11c-0.81,1.14-1.66,2.24-2.51,3.25l-0.33,0.4
				c-0.45,0.52-0.9,1.03-1.36,1.53c-0.1,0.11-0.48,0.51-0.48,0.51c-1.51,1.58-3.09,3.04-4.7,4.35l-0.63,0.51
				c-0.51,0.4-1.02,0.79-1.53,1.17c-0.13,0.1-0.27,0.2-0.42,0.3c-0.12,0.08-0.24,0.17-0.36,0.26l-0.41,0.3
				c-0.27,0.2-0.55,0.4-0.83,0.58l-0.37,0.22C90.65,113.54,80.69,116.49,70.37,116.49z M40.75,101.23c0.51,0.41,1.04,0.8,1.57,1.19
				c0.11,0.08,0.21,0.16,0.31,0.22c0.49,0.36,0.97,0.69,1.44,1.01l0.66,0.42c0.39,0.25,0.78,0.49,1.17,0.73
				c0.27,0.16,0.56,0.32,0.85,0.49l0.24,0.13c0.25,0.15,0.48,0.28,0.72,0.41l0.09,0.05c0.5,0.27,1.02,0.53,1.54,0.79l0.42,0.21
				c6.4,3.06,13.53,4.67,20.61,4.67c2.84,0,5.67-0.25,8.45-0.76c-3.2-0.63-6.3-1.77-9.13-3.35c-8.81-4.92-14.11-13.56-14.54-23.7
				l0-0.12l0.01-0.16c0.45-6.47-1.36-11.61-5.25-14.91c-6.28,8.84-10.75,18.58-13.28,28.97c1.32,1.35,2.64,2.54,4.01,3.64
				C40.69,101.17,40.73,101.2,40.75,101.23z M60.27,83.65c0.4,8.35,4.76,15.44,11.98,19.48c3.85,2.15,8.23,3.29,12.65,3.29
				c4.05,0,8.12-0.96,11.78-2.79c0.4-0.27,0.79-0.54,1.17-0.81c0.22-0.15,0.43-0.3,0.64-0.45c0.49-0.35,0.95-0.71,1.41-1.07
				l0.48-0.39c0.4-0.32,0.81-0.67,1.26-1.07l-6.53-7.71C84.5,79.6,72.83,67.56,60.43,56.32c-2.66,2.57-5.16,5.31-7.46,8.17
				C56.82,67.59,60.95,73.36,60.27,83.65z M64.16,52.92c12.45,11.29,24.19,23.42,34.9,36.05l6.2,7.32c0.36-0.39,0.72-0.79,1.07-1.2
				c0.08-0.09,0.13-0.16,0.18-0.22l0.06-0.08c0.86-1.02,1.67-2.07,2.43-3.15l0.05-0.07c0.33-0.47,0.6-0.89,0.88-1.31l0.26-0.4
				c0.1-0.16,0.2-0.32,0.3-0.49c0.31-0.49,0.59-0.97,0.87-1.46c0.08-0.13,0.15-0.27,0.22-0.41l0.35-0.65
				c0.18-0.33,0.36-0.66,0.52-0.99c2.24-7.25,0.94-15.2-3.49-21.29c-4.33-5.96-11.03-9.44-18.86-9.79
				c-0.74,0.05-1.49,0.07-2.21,0.07c-7.36,0-13.34-2.39-17.35-6.93C68.35,49.47,66.21,51.15,64.16,52.92z M23.83,69.76
				c0.67,8.35,3.69,16.28,8.77,23.05c2.76-9.6,7.12-18.64,12.95-26.9c-2.14-0.82-4.56-1.25-7.08-1.25
				C33.17,64.66,27.73,66.56,23.83,69.76z M90.14,49.81c9.54,0.39,17.7,4.61,23,11.9c1.64,2.25,2.92,4.72,3.84,7.37
				c0.06-0.95,0.09-1.91,0.09-2.87c0-6.87-1.66-13.79-4.81-20.01l-0.16-0.29c-0.29-0.56-0.58-1.1-0.87-1.62
				c-0.1-0.17-0.2-0.34-0.3-0.51l-0.81-1.33l-0.15-0.23c-0.19-0.28-0.37-0.56-0.57-0.84c-0.15-0.24-0.3-0.46-0.45-0.66
				c-0.34-0.48-0.67-0.93-1.01-1.38l-0.25-0.32c-0.41-0.53-0.82-1.04-1.24-1.54l-0.1-0.11c-1.11-1.31-2.37-2.61-3.75-3.89
				c-9.88,2.26-19.23,6.15-27.8,11.56c3.05,3.17,7.57,4.84,13.13,4.84c0.64,0,1.3-0.02,1.96-0.07l0.03,0H90.14z M35.82,35.76
				c-0.18,0.19-0.35,0.39-0.53,0.59c-0.29,0.32-0.56,0.62-0.83,0.93c-0.21,0.24-0.41,0.48-0.6,0.73l-0.14,0.17
				c-0.21,0.26-0.43,0.52-0.63,0.78c-0.16,0.2-0.31,0.4-0.45,0.6l-0.13,0.18c-0.26,0.33-0.5,0.66-0.72,0.98l-0.17,0.25
				c-0.13,0.19-0.26,0.39-0.39,0.58c0,0-0.52,0.78-0.66,1c-0.11,0.17-0.21,0.34-0.31,0.51l-0.19,0.32c-0.23,0.38-0.43,0.7-0.61,1.03
				c-0.16,0.29-0.32,0.57-0.47,0.86c-0.2,0.36-0.38,0.7-0.56,1.04c-0.16,0.32-0.3,0.63-0.45,0.93c-0.18,0.37-0.35,0.72-0.51,1.08
				c-0.08,0.18-0.4,0.94-0.4,0.94c-0.15,0.36-0.3,0.72-0.44,1.09c-0.12,0.31-0.23,0.63-0.34,0.94c-0.14,0.39-0.28,0.76-0.4,1.14
				c-0.09,0.25-0.16,0.5-0.23,0.75l-0.07,0.23c-0.12,0.38-0.23,0.76-0.34,1.14l-0.25,1c-0.1,0.39-0.2,0.77-0.28,1.15
				c-0.06,0.28-0.12,0.57-0.18,0.85l-0.04,0.19c-0.07,0.38-0.15,0.77-0.21,1.15c-0.06,0.36-0.12,0.71-0.17,1.07l-0.16,1.19
				c-0.04,0.35-0.07,0.71-0.11,1.07c-0.03,0.39-0.07,0.79-0.09,1.19l-0.01,0.28c4.35-2.6,9.48-4.01,14.63-4.01
				c3.64,0,7.17,0.73,10.23,2.12l0.03,0.02c2.44-3.08,5.14-6.05,8.02-8.85c-5.6-4.95-11.21-9.64-16.68-13.93L35.82,35.76z
				 M43.2,35.18c5.61,4.41,11.39,9.24,17.18,14.36c2.33-2.03,4.79-3.97,7.34-5.78c-3.41-6.78-3.07-15.52,0.85-22.81
				c-0.26,0-0.51,0.01-0.76,0.03c-0.36,0.01-0.69,0.04-1.02,0.07l-0.67,0.05c-0.22,0.02-0.45,0.03-0.67,0.06
				c-0.38,0.04-0.72,0.08-1.07,0.13l-0.18,0.02c-0.37,0.04-0.72,0.08-1.07,0.14c-0.31,0.04-0.6,0.1-0.89,0.15l-0.34,0.06
				c-0.35,0.06-0.7,0.12-1.04,0.19c-0.3,0.06-0.58,0.12-0.87,0.19l-0.46,0.1c-0.31,0.07-0.61,0.13-0.92,0.21
				c-0.26,0.07-0.52,0.14-0.78,0.21l-0.89,0.25c-0.17,0.05-0.35,0.09-0.51,0.14c-0.29,0.09-0.58,0.18-0.87,0.28l-0.68,0.23
				c-0.2,0.06-0.4,0.13-0.59,0.2c-0.36,0.13-0.71,0.26-1.05,0.4c0,0-0.94,0.37-1.05,0.41c-0.65,0.26-1.31,0.55-2.05,0.9
				c-0.1,0.05-0.17,0.08-0.25,0.11c-0.56,0.27-1.17,0.57-1.75,0.88c-0.11,0.06-0.74,0.4-0.74,0.4c-0.4,0.22-0.81,0.44-1.21,0.68
				l-0.68,0.43c-0.41,0.24-0.81,0.49-1.19,0.74c-0.15,0.1-0.29,0.19-0.43,0.29l-0.69,0.48c-0.23,0.16-0.46,0.32-0.69,0.48
				c-0.15,0.11-0.29,0.21-0.42,0.32c-0.11,0.09-0.22,0.17-0.33,0.25c-0.34,0.25-0.68,0.51-1.02,0.77l-0.15,0.13
				c-0.19,0.16-0.38,0.32-0.57,0.47c0,0-0.42,0.35-0.55,0.46L43.2,35.18z M74.45,21.09c-4.12,5.89-5.09,13.84-2.45,19.81
				c7.98-5.04,16.64-8.85,25.77-11.33C90.93,24.72,82.91,21.8,74.45,21.09z"/>
		</g>
		<g>
			<path class="st3" d="M121.37,66.21c0-0.87-0.02-1.74-0.07-2.6c0-0.03,0-0.07-0.01-0.1c-0.29-5.25-1.44-10.29-3.3-14.99
				c-0.01-0.02-0.02-0.04-0.02-0.07c-0.29-0.74-0.61-1.48-0.94-2.21c-0.05-0.11-0.11-0.23-0.16-0.33c-0.28-0.62-0.58-1.23-0.9-1.84
				c-0.1-0.21-0.22-0.42-0.33-0.63c-0.26-0.49-0.52-0.98-0.8-1.45c-0.18-0.31-0.37-0.62-0.55-0.93c-0.22-0.35-0.44-0.7-0.66-1.05
				c-0.26-0.4-0.52-0.81-0.8-1.2c-0.16-0.22-0.3-0.43-0.46-0.65c-0.36-0.5-0.72-1-1.1-1.49c-0.05-0.07-0.1-0.14-0.16-0.21
				c-1.94-2.51-4.11-4.85-6.54-6.99l-0.67-0.59l-0.05,0.02c-7.5-6.34-16.91-10.59-27.28-11.83l0.09-0.1l-3.34-0.19h-0.03
				c-0.96-0.05-1.94-0.08-2.92-0.08c-28.13,0-51.01,22.2-51.01,49.5c0,0.87,0.03,1.73,0.07,2.58v0.01l0.2,3.72l0.15-0.13
				c1.29,10,5.66,19.08,12.16,26.31l-0.02,0.06l0.61,0.65c2.2,2.35,4.61,4.47,7.19,6.34c0.08,0.06,0.15,0.11,0.22,0.17
				c0.51,0.36,1.01,0.72,1.54,1.06c0.21,0.15,0.44,0.3,0.67,0.44c0.4,0.27,0.82,0.52,1.24,0.77c0.36,0.22,0.72,0.43,1.08,0.64
				c0.32,0.18,0.64,0.36,0.95,0.53c0.49,0.27,0.99,0.52,1.48,0.78c0.22,0.11,0.44,0.22,0.65,0.32c0.63,0.31,1.26,0.6,1.9,0.88
				l0.34,0.16c0.76,0.32,1.51,0.63,2.28,0.91c0.03,0.01,0.04,0.01,0.07,0.02c4.83,1.81,10.02,2.93,15.44,3.21c0.03,0,0.07,0,0.09,0
				c0.89,0.05,1.79,0.07,2.69,0.07c10.56,0,20.38-3.12,28.53-8.48c0.01,0,0.02-0.01,0.03-0.01l0.18-0.11
				c0.41-0.27,0.8-0.57,1.2-0.85c0.26-0.19,0.53-0.37,0.78-0.56c0.51-0.37,1-0.75,1.5-1.14c0.2-0.17,0.41-0.33,0.63-0.51
				c1.63-1.33,3.17-2.77,4.62-4.28c0.16-0.17,0.32-0.33,0.47-0.5c0.46-0.49,0.9-0.99,1.34-1.5c0.11-0.13,0.22-0.27,0.33-0.4
				c0.87-1.03,1.69-2.11,2.47-3.21c0.09-0.12,0.17-0.23,0.25-0.34c0.36-0.52,0.71-1.05,1.05-1.58c0.16-0.27,0.33-0.53,0.5-0.8
				c0.31-0.52,0.62-1.02,0.92-1.55c0.16-0.29,0.31-0.59,0.47-0.88c0.26-0.48,0.53-0.96,0.78-1.45l0.09-0.23
				c0.01,0,0.01-0.01,0.01-0.01C119.62,80.92,121.37,73.75,121.37,66.21L121.37,66.21z M117.29,73.36c-0.77-4-2.36-7.84-4.8-11.2
				c-5.15-7.08-13.09-11.19-22.35-11.57h-0.2c-7.15,0.48-12.82-1.55-16.34-5.7c8.79-5.67,18.65-9.88,29.24-12.25
				c1.46,1.33,2.84,2.74,4.12,4.24c0.03,0.03,0.06,0.07,0.09,0.09c0.43,0.52,0.85,1.03,1.26,1.57c0.09,0.11,0.17,0.22,0.27,0.34
				c0.34,0.46,0.68,0.92,1,1.38c0.16,0.22,0.32,0.45,0.46,0.68c0.26,0.36,0.5,0.74,0.75,1.12c0.22,0.37,0.45,0.73,0.67,1.1
				c0.15,0.26,0.31,0.51,0.46,0.77c0.3,0.53,0.59,1.08,0.88,1.63c0.06,0.11,0.11,0.21,0.17,0.32c3.18,6.28,4.9,13.24,4.9,20.35
				C117.86,68.65,117.66,71.03,117.29,73.36L117.29,73.36z M112.45,87.54c-0.14,0.25-0.27,0.5-0.4,0.74
				c-0.28,0.5-0.57,0.99-0.88,1.47c-0.14,0.23-0.28,0.46-0.43,0.69c-0.33,0.5-0.65,1.01-1,1.5c-0.02,0.04-0.06,0.08-0.09,0.12
				c-0.77,1.1-1.59,2.16-2.46,3.18c-0.09,0.11-0.17,0.23-0.27,0.33c-0.41,0.48-0.84,0.96-1.27,1.43c-0.13,0.14-0.27,0.28-0.4,0.42
				c-0.02,0.01-0.03,0.03-0.04,0.04l-6.79-8.01C87.49,76.55,75.62,64.32,62.98,52.91c2.45-2.15,5.02-4.18,7.69-6.05
				c4.21,5.15,10.97,7.68,19.42,7.14c8.11,0.35,15.04,3.94,19.52,10.12c4.59,6.31,5.92,14.53,3.58,22.02
				C112.96,86.61,112.7,87.08,112.45,87.54L112.45,87.54z M100.4,101.89c-0.47,0.38-0.94,0.74-1.43,1.09
				c-0.22,0.16-0.43,0.31-0.64,0.46c-0.4,0.29-0.82,0.57-1.24,0.86c-8.06,4.03-17.47,3.84-25.24-0.5
				c-7.47-4.18-11.98-11.52-12.38-20.15c0.7-10.36-3.53-16-7.61-19.03c2.62-3.32,5.48-6.44,8.55-9.37
				C73,66.6,84.82,78.76,95.72,91.62l7.01,8.28c-0.6,0.54-1.21,1.08-1.84,1.58C100.73,101.62,100.57,101.75,100.4,101.89
				L100.4,101.89z M48.28,62.49c-7.81-3.55-17.95-2.37-25.37,2.66c0-0.22,0.01-0.45,0.02-0.67c0.02-0.38,0.04-0.74,0.05-1.12
				c0.02-0.4,0.06-0.81,0.09-1.21c0.03-0.37,0.07-0.73,0.11-1.1c0.05-0.4,0.1-0.8,0.16-1.19c0.05-0.37,0.11-0.73,0.17-1.08
				c0.06-0.4,0.14-0.8,0.21-1.19c0.07-0.35,0.14-0.7,0.22-1.05c0.09-0.39,0.18-0.78,0.28-1.18c0.09-0.34,0.17-0.68,0.26-1.02
				c0.11-0.38,0.22-0.77,0.34-1.15c0.1-0.34,0.2-0.68,0.31-1c0.13-0.38,0.27-0.77,0.4-1.14c0.11-0.33,0.23-0.65,0.35-0.98
				c0.15-0.38,0.3-0.75,0.46-1.12c0.14-0.32,0.27-0.63,0.4-0.94c0.16-0.38,0.34-0.73,0.52-1.1c0.15-0.31,0.29-0.62,0.44-0.92
				c0.19-0.36,0.38-0.72,0.58-1.08c0.15-0.3,0.32-0.59,0.48-0.88c0.2-0.36,0.41-0.71,0.63-1.06c0.17-0.28,0.33-0.57,0.51-0.85
				c0.22-0.35,0.46-0.69,0.68-1.03c0.19-0.27,0.37-0.54,0.56-0.82c0.23-0.33,0.48-0.67,0.73-0.99c0.2-0.27,0.38-0.53,0.59-0.79
				c0.25-0.32,0.51-0.64,0.77-0.96c0.2-0.26,0.41-0.51,0.63-0.76c0.27-0.32,0.55-0.63,0.83-0.93c0.21-0.24,0.43-0.48,0.65-0.73
				c0.14-0.14,0.27-0.28,0.41-0.41l4.73,3.72c5.93,4.65,11.7,9.5,17.33,14.5c-3.21,3.07-6.21,6.36-8.94,9.85
				C48.67,62.69,48.47,62.59,48.28,62.49L48.28,62.49z M46.77,65.58c-6.26,8.67-10.99,18.45-13.82,28.97
				c-5.66-7.03-9.27-15.68-9.94-25.11C29.42,63.95,39.47,62.28,46.77,65.58L46.77,65.58z M39.53,31.21c0.25-0.2,0.49-0.41,0.73-0.61
				c0.34-0.27,0.69-0.52,1.03-0.78c0.25-0.18,0.5-0.38,0.75-0.57c0.36-0.27,0.73-0.51,1.1-0.77c0.25-0.17,0.49-0.34,0.75-0.51
				c0.4-0.26,0.81-0.51,1.21-0.75c0.23-0.14,0.46-0.29,0.69-0.43c0.45-0.27,0.91-0.52,1.37-0.77c0.2-0.11,0.4-0.22,0.61-0.33
				c0.59-0.32,1.2-0.62,1.81-0.91c0.08-0.03,0.15-0.07,0.22-0.1c0.69-0.32,1.38-0.63,2.09-0.92c0.22-0.09,0.46-0.17,0.68-0.27
				c0.48-0.18,0.96-0.38,1.45-0.55c0.29-0.11,0.59-0.2,0.89-0.3c0.43-0.14,0.86-0.29,1.3-0.42c0.31-0.09,0.64-0.17,0.95-0.27
				c0.43-0.12,0.84-0.24,1.27-0.35c0.34-0.08,0.69-0.16,1.03-0.23c0.41-0.09,0.82-0.19,1.25-0.28c0.35-0.07,0.71-0.13,1.06-0.19
				c0.41-0.07,0.82-0.16,1.24-0.22c0.36-0.06,0.73-0.1,1.09-0.14c0.42-0.06,0.83-0.12,1.26-0.16c0.36-0.04,0.74-0.06,1.11-0.09
				c0.42-0.03,0.85-0.07,1.28-0.09c0.37-0.03,0.74-0.03,1.12-0.03c0.36-0.02,0.72-0.03,1.08-0.03c-4.5,7.4-5.07,16.8-1.21,23.86
				c-2.92,2.04-5.71,4.24-8.36,6.58c-5.75-5.1-11.64-10.05-17.68-14.8l-4.44-3.48c0.09-0.08,0.19-0.17,0.28-0.26
				C38.86,31.76,39.2,31.48,39.53,31.21L39.53,31.21z M71.67,42.03c-3.3-6.43-2.3-15.35,2.39-21.75c9.57,0.72,18.35,4.19,25.5,9.62
				C89.5,32.45,80.11,36.59,71.67,42.03L71.67,42.03z M49.4,107.55c-0.12-0.06-0.24-0.12-0.36-0.17c-0.55-0.28-1.1-0.55-1.64-0.84
				c-0.27-0.15-0.55-0.3-0.82-0.46c-0.37-0.21-0.75-0.42-1.11-0.63c-0.4-0.24-0.79-0.48-1.18-0.73c-0.22-0.14-0.46-0.29-0.68-0.43
				c-0.48-0.32-0.96-0.66-1.43-1c-0.11-0.07-0.23-0.16-0.34-0.24c-0.55-0.4-1.09-0.81-1.62-1.23c-0.02-0.03-0.05-0.04-0.08-0.07
				c-1.55-1.24-3.01-2.58-4.38-4.01c2.64-11.06,7.46-21.32,13.99-30.33c4.49,3.38,6.7,8.96,6.2,16.11l-0.01,0.09v0.09
				c0.42,9.87,5.57,18.28,14.14,23.06c4.1,2.3,8.61,3.56,13.18,3.8c-4.1,1.14-8.43,1.75-12.91,1.75
				C63.03,112.3,55.86,110.64,49.4,107.55L49.4,107.55z M49.4,107.55"/>
		</g>
	</g>
	<g class="st138">
		<g>
			<path class="st3" d="M1061.57,191.73c-0.12,0-0.24-0.01-0.37-0.02c-1.39-0.22-2.33-1.47-2.11-2.8
				c0.92-5.55,4.83-10.26,10.2-12.29c0.29-0.11,0.6-0.17,0.91-0.17c1.03,0,1.97,0.63,2.33,1.56c0.5,1.25-0.14,2.66-1.42,3.15
				c-3.67,1.38-6.44,4.73-7.07,8.52C1063.85,190.87,1062.81,191.73,1061.57,191.73z"/>
		</g>
		<g>
			<path class="st3" d="M1069.44,176.99c-5.24,1.98-9.06,6.57-9.95,11.99c-0.18,1.12,0.6,2.17,1.75,2.35
				c0.11,0.01,0.23,0.02,0.33,0.02c1.02,0,1.92-0.71,2.08-1.72c0.65-3.93,3.52-7.39,7.31-8.82c1.08-0.41,1.62-1.59,1.19-2.65
				C1071.75,177.1,1070.52,176.58,1069.44,176.99L1069.44,176.99z M1069.44,176.99"/>
		</g>
		<g>
			<path class="st3" d="M1166.28,191.73c-1.23,0-2.27-0.86-2.47-2.04c-0.63-3.8-3.4-7.14-7.06-8.52c-0.62-0.24-1.11-0.69-1.38-1.29
				c-0.27-0.6-0.28-1.26-0.04-1.86c0.36-0.93,1.3-1.56,2.33-1.56c0.31,0,0.62,0.06,0.91,0.17c5.37,2.02,9.27,6.73,10.19,12.29
				c0.11,0.65-0.05,1.29-0.45,1.82c-0.39,0.52-0.97,0.86-1.64,0.96C1166.56,191.72,1166.42,191.73,1166.28,191.73z"/>
		</g>
		<g>
			<path class="st3" d="M1158.43,176.99c-1.09-0.41-2.32,0.11-2.73,1.17c-0.42,1.05,0.11,2.24,1.19,2.65
				c3.79,1.43,6.66,4.89,7.31,8.82c0.17,1,1.07,1.72,2.08,1.72c0.11,0,0.23-0.01,0.34-0.03c1.15-0.17,1.94-1.22,1.75-2.34
				C1167.48,183.56,1163.66,178.96,1158.43,176.99L1158.43,176.99z M1158.43,176.99"/>
		</g>
		<g>
			<path class="st3" d="M1150.54,216.23c-12.37,0-23.15-8.9-25.21-20.76h-12.68c-1.39,0-2.51-1.09-2.51-2.43
				c0-0.13,0.03-0.25,0.05-0.35l-0.05-0.06l-20.87-31.49l-6.14,3.06l-0.72,3.28c10.77,3.14,18.26,12.9,18.26,23.84
				c0,13.74-11.48,24.91-25.6,24.91c-14.12,0-25.6-11.18-25.6-24.91c0-13.73,11.48-24.9,25.6-24.9c0.75,0,1.52,0.04,2.41,0.12
				l0.94-4.27c0.12-11.63,6.85-20.73,15.33-20.73c1.23,0,2.24,0.84,2.45,1.98h1.67c1.39,0,2.51,1.09,2.51,2.44s-1.13,2.44-2.51,2.44
				h-4.21c-1.03,0-1.92-0.61-2.29-1.52c-3.6,1.41-6.56,5.93-7.56,11.53l12.48-6.2c0.36-0.17,0.75-0.27,1.15-0.27
				c0.95,0,1.81,0.51,2.24,1.33c0.09,0.17,0.15,0.34,0.19,0.51h32.9l0.41-0.66c0.05-0.09,0.12-0.15,0.17-0.19l0.01-0.02v-0.41h-3.83
				c-1.38,0-2.51-1.09-2.51-2.44c0-1.34,1.13-2.43,2.51-2.43h12.66c1.38,0,2.51,1.09,2.51,2.43c0,1.34-1.13,2.44-2.51,2.44h-3.83
				v1.28h1.71c1.39,0,2.51,1.09,2.51,2.43c0,1.34-1.13,2.44-2.51,2.44h-0.37l1.01,2.54c3.53-1.44,7.14-2.16,10.75-2.16
				c5.79,0,11.54,1.93,16.62,5.58c0.54,0.39,0.89,0.95,0.99,1.59c0.1,0.64-0.07,1.28-0.46,1.81c-0.47,0.62-1.23,0.99-2.02,0.99
				c-0.54,0-1.05-0.16-1.49-0.48c-4.3-3.09-8.89-4.66-13.63-4.66c-2.95,0-5.95,0.63-8.94,1.86l0.7,1.76
				c2.38-0.69,4.83-1.04,7.3-1.04c14.12,0,25.6,11.18,25.6,24.91C1176.14,205.06,1164.65,216.23,1150.54,216.23z M1130.41,195.47
				c2.01,9.23,10.39,15.89,20.12,15.89c11.35,0,20.59-8.99,20.59-20.03c0-11.05-9.24-20.04-20.59-20.04c-1.86,0-3.7,0.24-5.48,0.73
				l7.26,18.19c0.18,0.44,0.17,0.86,0.12,1.19c0.45,0.46,0.69,1.04,0.69,1.65c0,1.34-1.13,2.44-2.51,2.44H1130.41z M1075.06,171.28
				c-11.35,0-20.58,8.99-20.58,20.03c0,11.05,9.23,20.04,20.58,20.04c11.35,0,20.58-8.99,20.58-20.04c0-8.63-5.86-16.42-14.3-19.07
				l-4.31,19.58c-0.24,1.12-1.27,1.93-2.45,1.93c-0.17,0-0.33-0.01-0.52-0.05c-1.37-0.29-2.23-1.59-1.93-2.9l4.28-19.47
				C1075.97,171.3,1075.51,171.28,1075.06,171.28z M1147.11,190.61l-6.69-16.73c-6.22,3.43-10.18,9.77-10.43,16.73H1147.11z
				 M1124.96,190.61c0.26-8.97,5.45-17.08,13.64-21.29l-3.78-9.47l-19.19,30.77H1124.96z M1112.19,186.73l17.53-28.11h-31.85
				c-0.7,0-1.36-0.3-1.83-0.83l-2.28,1.13L1112.19,186.73z"/>
		</g>
		<g>
			<path class="st3" d="M1150.54,166.8c-2.63,0-5.16,0.4-7.54,1.13l-0.98-2.46c0.03-0.01,0.06-0.01,0.09-0.02
				c10.09-4.29,18.19-0.88,23.22,2.73c0.38,0.27,0.83,0.4,1.26,0.4c0.65,0,1.29-0.29,1.7-0.83c0.69-0.91,0.5-2.19-0.44-2.86
				c-8.36-6-18.06-7.14-27.36-3.22l-1.37-3.44h0.95c1.17,0,2.11-0.91,2.11-2.05c0-1.13-0.95-2.04-2.11-2.04h-2.11v-2.05h4.23
				c1.16,0,2.11-0.92,2.11-2.05c0-1.13-0.95-2.05-2.11-2.05h-12.66c-1.16,0-2.11,0.92-2.11,2.05c0,1.13,0.95,2.05,2.11,2.05h4.23
				v0.93c-0.02,0.03-0.04,0.06-0.06,0.09c-0.05,0.07-0.13,0.11-0.17,0.18l-0.52,0.85h-33.47c-0.03-0.25-0.08-0.49-0.21-0.72
				c-0.52-1.01-1.8-1.4-2.84-0.89l-13.18,6.55c0.92-6.31,4.23-11.4,8.34-12.73c0.2,0.93,1.01,1.64,2.03,1.64h4.21
				c1.17,0,2.11-0.92,2.11-2.05c0-1.13-0.95-2.05-2.11-2.05h-2.03c-0.03-1.1-0.96-1.98-2.09-1.98c-8.32,0-14.83,8.94-14.93,20.39
				l-1.02,4.65c-0.9-0.09-1.8-0.15-2.73-0.15c-13.9,0-25.2,11-25.2,24.52c0,13.53,11.3,24.53,25.2,24.53c13.9,0,25.2-11,25.2-24.53
				c0-11.2-7.77-20.65-18.33-23.57l0.84-3.81l6.63-3.3l21.06,31.79c0.02,0.02,0.04,0.04,0.05,0.06c0.02,0.03,0.06,0.06,0.09,0.1
				c0,0.01,0,0.01,0.01,0.01c-0.03,0.15-0.09,0.29-0.09,0.45c0,1.13,0.95,2.04,2.11,2.04h13.02c1.88,11.74,12.29,20.76,24.87,20.76
				c13.9,0,25.2-11,25.2-24.52C1175.74,177.8,1164.44,166.8,1150.54,166.8L1150.54,166.8z M1096.04,191.31
				c0,11.27-9.41,20.43-20.98,20.43c-11.57,0-20.98-9.16-20.98-20.43c0-11.26,9.41-20.42,20.98-20.42c0.62,0,1.23,0.03,1.84,0.09
				l-4.38,19.9c-0.25,1.11,0.48,2.2,1.62,2.44c0.16,0.03,0.3,0.04,0.44,0.04c0.98,0,1.85-0.66,2.06-1.62l4.4-20
				C1089.71,174.28,1096.04,182.09,1096.04,191.31L1096.04,191.31z M1125.35,190.99h-10.44l19.98-32.03l4.2,10.53
				C1131.03,173.52,1125.48,181.62,1125.35,190.99L1125.35,190.99z M1140.62,173.33l7.07,17.67h-18.11
				C1129.7,183.36,1134.13,176.73,1140.62,173.33L1140.62,173.33z M1096.14,157.3c0.37,0.55,0.99,0.93,1.72,0.93h32.56l-18.23,29.23
				l-19.02-28.69L1096.14,157.3z M1150.54,211.74c-10.24,0-18.78-7.19-20.61-16.66h20.69c1.17,0,2.11-0.92,2.11-2.05
				c0-0.61-0.29-1.14-0.72-1.52c0.08-0.38,0.1-0.78-0.06-1.18l-7.42-18.58c1.9-0.56,3.93-0.86,6.01-0.86
				c11.57,0,20.99,9.16,20.99,20.43C1171.52,202.59,1162.11,211.74,1150.54,211.74L1150.54,211.74z M1150.54,211.74"/>
		</g>
	</g>
	<g class="st138">
		<path class="st3" d="M534.07,122.65c-0.28,0-0.56-0.05-0.83-0.15c-0.26-0.09-0.51-0.25-0.74-0.45l-0.54-0.49l-7.05-6.52
			l-7.63,6.63c-0.1,0.09-0.21,0.14-0.3,0.19l-0.09,0.05l-0.07,0.05c-0.05,0.03-0.1,0.08-0.18,0.1l-0.05,0.02h0
			c-0.2,0.08-0.4,0.1-0.59,0.12c-0.11,0.02-0.17,0.03-0.23,0.03c-0.09,0-0.17-0.02-0.23-0.03c-0.03-0.01-0.06-0.01-0.09-0.02
			c-0.19-0.02-0.32-0.04-0.46-0.09h-0.06l-0.05-0.04c-0.03-0.01-0.05-0.03-0.08-0.05c-0.09-0.05-0.12-0.08-0.15-0.09
			c-0.06-0.03-0.09-0.05-0.13-0.07c-0.09-0.04-0.18-0.09-0.27-0.17l-8.72-7.52l-8.49,7.85l-0.04,0.05l-0.06,0.04
			c-0.18,0.14-0.37,0.26-0.59,0.36c-0.07,0.03-0.14,0.06-0.23,0.08c-0.16,0.06-0.36,0.09-0.58,0.11c-0.03,0.01-0.07,0.02-0.12,0.02
			h-0.05l-0.06-0.02c-0.02,0-0.05,0-0.07,0c-0.15,0-0.35-0.03-0.54-0.09l-0.04-0.01l-0.09-0.05l-0.13-0.06
			c-0.23-0.1-0.42-0.23-0.59-0.4c0,0,0,0,0,0c-0.01,0-0.04-0.02-0.08-0.05l-0.04-0.06c-0.18-0.19-0.33-0.41-0.42-0.65
			c-0.03-0.06-0.04-0.13-0.05-0.2c-0.04-0.09-0.08-0.2-0.09-0.32l-4.09-27.7h-0.72c-3.63,0-7.23-0.47-10.71-1.39l-17.41-4.61
			c-0.99-0.27-1.68-1.15-1.68-2.13V37.95c0-2.17,1.06-4.26,2.83-5.58l12.85-9.59c11.24-8.39,25.25-13.01,39.47-13.01
			s28.23,4.62,39.48,13.01l12.85,9.59c1.77,1.33,2.82,3.41,2.82,5.58v46.96c0,0.96-0.67,1.83-1.62,2.11l-14.95,4.36
			c-3.81,1.1-7.74,1.66-11.69,1.66h-0.23l-4.08,27.71c-0.02,0.1-0.05,0.19-0.07,0.27l-0.02,0.07c-0.03,0.1-0.04,0.14-0.06,0.17
			c-0.1,0.24-0.25,0.47-0.42,0.65l-0.02,0.05l-0.03,0.01c-0.02,0.02-0.06,0.04-0.09,0.06c-0.16,0.15-0.35,0.28-0.57,0.38
			c0,0-0.08,0.06-0.16,0.08c0,0-0.03,0.02-0.07,0.04C534.58,122.61,534.35,122.65,534.07,122.65z M515.74,116.96l5.56-5.27
			l-6.55-6.06l-5.66,5.23L515.74,116.96z M532.44,115.89l1.47-10.03l-6.07,5.76L532.44,115.89z M497.04,115.79l4.92-4.73l-6.44-5.56
			L497.04,115.79z M524.55,108.59l9.32-8.85l-6.53-5.76l-9.29,8.6L524.55,108.59z M505.43,108.15l6.02-5.56l-9.3-8.6l-6.49,5.73
			L505.43,108.15z M514.75,99.54l9.21-8.52l-9.21-8.13l-9.22,8.13L514.75,99.54z M535.49,95.22l1.5-10.16l-6.35,5.87L535.49,95.22z
			 M494.01,95.22l4.85-4.29l-6.35-5.87L494.01,95.22z M478.86,87.4c3.12,0.82,6.32,1.23,9.51,1.23h0.07l-1.09-7.36h-3.11
			c-4.06,0-7.36-3.23-7.36-7.21c0-3.9,3.3-7.08,7.36-7.08h2.81V42.35c0-2.74,2.29-4.96,5.11-4.96h43.13c2.82,0,5.12,2.23,5.12,4.96
			v24.64h2.81c4.06,0,7.36,3.17,7.36,7.08c0,3.98-3.3,7.21-7.36,7.21h-1.08l-1.08,7.36c3.39-0.04,6.74-0.54,9.96-1.48l13.32-3.87
			V37.95c0-0.81-0.39-1.59-1.05-2.08l-12.85-9.59c-10.45-7.8-23.49-12.1-36.7-12.1c-13.21,0-26.25,4.3-36.7,12.1l-12.85,9.59
			c-0.66,0.5-1.05,1.27-1.05,2.08v45.28L478.86,87.4z M527.27,87.95l7.22-6.68h-14.8L527.27,87.95z M502.23,87.95l7.57-6.68h-14.79
			L502.23,87.95z M484.24,71.41c-1.55,0-2.81,1.19-2.81,2.66c0,1.51,1.29,2.79,2.81,2.79h58.98c1.52,0,2.81-1.28,2.81-2.79
			c0-1.47-1.26-2.66-2.81-2.66H484.24z M535.86,66.99V42.35c0-0.31-0.25-0.55-0.56-0.55h-43.13c-0.32,0-0.56,0.24-0.56,0.55v24.64
			H535.86z"/>
	</g>
	<g class="st138">
		<path class="st3" d="M858.17,132.98l-24.48-38.02c-0.25-0.4-0.62-0.71-1.07-0.91l-18.7-8.24v-0.01l-8.24-3.63
			c-0.68-0.3-1.47-0.28-2.14,0.06c-0.66,0.34-1.14,0.95-1.28,1.67c-3.04,15.54-14.14,18.01-17.39,18.4c-0.04,0-0.06-0.01-0.09-0.01
			c-0.5,0.07-0.84,0.08-0.84,0.09c-0.02,0-0.08-0.01-0.14-0.01c-0.02,0-0.05,0-0.08-0.01c-0.07,0-0.18-0.01-0.28-0.02
			c-0.07-0.01-0.12-0.01-0.21-0.02c-0.11-0.01-0.25-0.04-0.38-0.07c-0.09-0.01-0.19-0.02-0.31-0.05c-0.13-0.03-0.3-0.07-0.46-0.1
			c-0.13-0.04-0.26-0.06-0.4-0.1c-0.17-0.05-0.36-0.1-0.53-0.16c-0.17-0.04-0.32-0.09-0.5-0.15c-0.18-0.06-0.37-0.15-0.56-0.22
			c-0.19-0.08-0.37-0.14-0.57-0.23c-0.19-0.08-0.39-0.2-0.6-0.3c-0.21-0.11-0.42-0.2-0.63-0.31c-0.2-0.12-0.42-0.26-0.63-0.38
			c-0.21-0.14-0.43-0.26-0.66-0.42c-0.21-0.14-0.43-0.31-0.65-0.48c-0.23-0.17-0.45-0.34-0.68-0.52c-0.22-0.19-0.43-0.4-0.63-0.59
			c-0.24-0.22-0.47-0.42-0.69-0.65c-0.21-0.22-0.42-0.48-0.63-0.72c-0.23-0.26-0.45-0.49-0.67-0.78c-0.21-0.27-0.4-0.57-0.61-0.86
			c-0.21-0.3-0.44-0.59-0.65-0.92c-0.2-0.31-0.38-0.68-0.57-1.02c-0.21-0.35-0.41-0.67-0.6-1.05c-0.19-0.4-0.37-0.85-0.56-1.28
			c-0.16-0.38-0.34-0.73-0.49-1.14c-0.19-0.51-0.37-1.09-0.54-1.63c-0.13-0.38-0.26-0.73-0.38-1.14c-0.28-0.97-0.53-2.02-0.74-3.13
			c-0.14-0.72-0.61-1.33-1.28-1.67c-0.67-0.34-1.46-0.36-2.14-0.05l-8.24,3.63l-18.7,8.24c-0.44,0.2-0.81,0.51-1.07,0.91
			l-24.48,38.02c-0.67,1.04-0.41,2.42,0.61,3.15l19.58,14.26c1.04,0.75,2.5,0.6,3.32-0.35l10.39-11.76v71.99
			c0,1.31,1.1,2.38,2.45,2.38h73.45c1.35,0,2.45-1.07,2.45-2.38v-70.99l7.81,10.59c0.77,1.05,2.25,1.31,3.35,0.6l22.04-14.26
			C858.56,135.51,858.88,134.07,858.17,132.98L858.17,132.98z M806.41,87.72l2.68,1.17l1.86,0.82l4.96,13.63h-19.38
			C800.33,100.61,804.25,95.88,806.41,87.72L806.41,87.72z M759.24,89.72l4.54-2c0.29,1.11,0.62,2.15,0.98,3.13
			c0.12,0.34,0.25,0.64,0.38,0.95c0.25,0.64,0.5,1.25,0.77,1.84c0.17,0.35,0.34,0.67,0.51,1c0.25,0.5,0.51,0.99,0.79,1.45
			c0.18,0.31,0.37,0.63,0.56,0.91c0.28,0.43,0.56,0.85,0.85,1.24c0.19,0.27,0.39,0.53,0.59,0.79c0.31,0.38,0.62,0.74,0.92,1.09
			c0.21,0.21,0.38,0.44,0.59,0.64c0.37,0.4,0.74,0.73,1.11,1.08c0.18,0.15,0.34,0.31,0.51,0.46c0.44,0.37,0.88,0.73,1.33,1.05
			h-19.38L759.24,89.72z M819.37,207.9h-68.55v-7.12h68.55V207.9z M819.37,196.02h-68.55v-2.37h68.55V196.02z M834.67,145.25
			l-10.86-14.76c-0.62-0.85-1.73-1.2-2.75-0.88c-1,0.31-1.7,1.23-1.7,2.26v57.02h-68.55v-57.02c0-1-0.65-1.89-1.6-2.23
			c-0.97-0.35-2.04-0.08-2.7,0.68l-13.21,14.94l-15.95-11.61l22.91-35.56l12.78-5.65l-4.54,12.5c-0.25,0.73-0.14,1.53,0.31,2.16
			c0.47,0.64,1.21,1.01,2.01,1.01h68.55c0.8,0,1.54-0.37,2-1.01c0.47-0.63,0.57-1.43,0.31-2.16l-4.54-12.5l12.79,5.65l22.83,35.45
			L834.67,145.25z M834.67,145.25"/>
	</g>
	<g class="st138">
		<path class="st3" d="M802.24,137.81c0-7.21-6.05-13.08-13.48-13.08h-7.34c-7.42,0-13.48,5.87-13.48,13.08
			c0,4.42,2.29,8.32,5.75,10.68c-3.46,2.37-5.75,6.28-5.75,10.7c0,7.21,6.05,13.06,13.48,13.06h7.34c7.42,0,13.48-5.86,13.48-13.06
			c0-4.42-2.29-8.33-5.75-10.7C799.95,146.13,802.24,142.23,802.24,137.81L802.24,137.81z M797.34,159.19
			c0,4.58-3.85,8.32-8.57,8.32h-7.34c-4.72,0-8.57-3.74-8.57-8.32c0-4.58,3.85-8.32,8.57-8.32h7.34
			C793.49,150.87,797.34,154.61,797.34,159.19L797.34,159.19z M788.76,146.13h-7.34c-4.72,0-8.57-3.73-8.57-8.32
			c0-4.58,3.85-8.32,8.57-8.32h7.34c4.72,0,8.57,3.74,8.57,8.32C797.34,142.39,793.49,146.13,788.76,146.13L788.76,146.13z
			 M788.76,146.13"/>
	</g>
	<g class="st138">
		<g>
			<path class="st3" d="M645.32,125.81c-3.86,0-7.7-0.55-11.42-1.64c-20.98-6.12-32.92-27.67-26.61-48.04
				c2.28-7.34,6.69-13.78,12.78-18.63l-2.01-3.63c-0.83-1.49-1.01-3.2-0.5-4.82c0.5-1.62,1.62-2.96,3.16-3.75
				c0.94-0.49,2-0.75,3.07-0.75c2.41,0,4.62,1.27,5.76,3.33l1.83,3.3c4.48-1.65,9.18-2.48,13.97-2.48c1.37,0,2.76,0.07,4.13,0.21
				l0.36-1.17c-6.68-4.18-9.86-10.5-8.12-16.13c1.71-5.52,7.89-9.09,15.76-9.09c2.52,0,5.07,0.37,7.58,1.11
				c5.09,1.49,9.45,4.29,12.28,7.9c2.84,3.63,3.78,7.62,2.66,11.25c-1.71,5.53-7.86,9.11-15.67,9.11c-0.09,0-0.18,0-0.27,0
				l-0.36,1.17c5.13,2.58,9.52,6.15,13.06,10.62l2.48-1.29c0.94-0.49,2.01-0.75,3.07-0.75c2.41,0,4.62,1.28,5.76,3.33
				c1.7,3.07,0.51,6.92-2.66,8.57l-2.48,1.29c2.7,7.66,2.86,15.79,0.46,23.52C678.38,114.52,662.72,125.81,645.32,125.81z
				 M645.36,52.63c-15.62,0-29.67,10.13-34.17,24.65c-5.66,18.28,5.05,37.62,23.88,43.11c3.34,0.97,6.79,1.47,10.25,1.47
				c15.62,0,29.67-10.13,34.17-24.65c2.35-7.59,1.92-15.82-1.22-23.18l-3.42-6.18c-4.59-6.58-11.42-11.47-19.24-13.75
				C652.28,53.12,648.83,52.63,645.36,52.63z M679.09,66.94c0.86,1.34,1.64,2.75,2.32,4.19l2.07-1.08c0.58-0.3,1-0.81,1.19-1.42
				c0.19-0.61,0.12-1.25-0.19-1.8c-0.43-0.78-1.26-1.26-2.16-1.26c-0.4,0-0.8,0.1-1.16,0.29L679.09,66.94z M623.8,48.5
				c-0.4,0-0.8,0.1-1.16,0.28c-0.58,0.3-1,0.8-1.19,1.4c-0.19,0.61-0.12,1.26,0.19,1.82l1.17,2.1l4.32-2.25l-1.16-2.1
				c-0.31-0.56-0.83-0.97-1.45-1.15C624.28,48.53,624.04,48.5,623.8,48.5z M659.99,51.25l1.93-6.23l-6.42-1.87l-1.93,6.23
				L659.99,51.25z M665.28,47.9c5.48-0.26,9.71-2.7,10.82-6.26c0.8-2.59-0.01-5.5-2.3-8.18c-2.31-2.71-5.83-4.86-9.91-6.05
				c-2.19-0.64-4.4-0.96-6.56-0.96c-5.94,0-10.54,2.47-11.73,6.29c-1.1,3.56,1.04,7.86,5.46,11.02l0.54-1.74
				c-2.83-0.95-4.4-3.92-3.53-6.73c0.71-2.29,2.92-3.88,5.39-3.88c0.55,0,1.09,0.08,1.62,0.23l13.76,4.02
				c1.44,0.42,2.62,1.36,3.33,2.64c0.71,1.28,0.86,2.76,0.43,4.15c-0.71,2.29-2.93,3.89-5.39,3.89c-0.47,0-0.93-0.06-1.38-0.17
				L665.28,47.9z M653.46,35.34c-0.68,0-1.29,0.44-1.49,1.08c-0.25,0.8,0.22,1.64,1.03,1.88l13.76,4.02
				c0.15,0.04,0.3,0.06,0.45,0.06c0.68,0,1.3-0.44,1.49-1.08c0.25-0.8-0.22-1.64-1.04-1.88L653.9,35.4
				C653.76,35.36,653.61,35.34,653.46,35.34z"/>
		</g>
		<g>
			<path class="st3" d="M645.32,117.1c-2.98,0-5.95-0.43-8.83-1.27c-7.82-2.28-14.28-7.39-18.18-14.38c0,0,0,0,0,0
				c-0.01,0-0.05-0.04-0.07-0.1l-0.03-0.08c-3.85-6.99-4.67-15.04-2.32-22.63c2.35-7.58,7.61-13.85,14.82-17.64l0,0
				c-0.01,0,0.02-0.03,0.06-0.05l0.04-0.02l0.09-0.02c4.43-2.3,9.44-3.52,14.46-3.52c2.99,0,5.96,0.43,8.85,1.27
				c7.85,2.29,14.32,7.42,18.22,14.45c3.89,7.03,4.74,15.1,2.38,22.72c-2.35,7.59-7.62,13.86-14.82,17.65
				c0.01,0-0.02,0.03-0.06,0.05l-0.02,0.01l-0.1,0.03C655.35,115.87,650.34,117.1,645.32,117.1z M639.63,112.51
				c1.88,0.4,3.81,0.61,5.72,0.61c3.73,0,7.36-0.75,10.78-2.22l-2.38-4.3c-0.26-0.46-0.32-1-0.16-1.51
				c0.16-0.51,0.51-0.92,0.99-1.17c0.3-0.15,0.63-0.24,0.96-0.24c0.75,0,1.43,0.4,1.79,1.04l2.38,4.3
				c4.82-2.99,8.44-7.29,10.49-12.46l-4.83-1.41c-0.52-0.15-0.95-0.49-1.21-0.95c-0.26-0.46-0.31-1-0.16-1.51
				c0.26-0.84,1.04-1.4,1.94-1.4c0.2,0,0.4,0.03,0.59,0.08l4.83,1.41c2.82-12.42-4.21-25.1-16.44-29.68l-1.45,4.68
				c-0.26,0.83-1.06,1.41-1.94,1.41c-0.2,0-0.39-0.03-0.58-0.08c-1.08-0.31-1.69-1.42-1.36-2.46l1.45-4.68
				c-1.88-0.4-3.81-0.6-5.72-0.6c-3.73,0-7.36,0.75-10.78,2.22l2.39,4.31c0.53,0.96,0.16,2.15-0.83,2.67
				c-0.29,0.15-0.63,0.23-0.96,0.24c-0.2,0-0.4-0.03-0.59-0.08c-0.52-0.15-0.95-0.49-1.21-0.96l-2.39-4.3
				c-4.82,2.99-8.44,7.29-10.49,12.46l4.82,1.41c1.08,0.31,1.69,1.41,1.37,2.45c-0.26,0.84-1.04,1.41-1.95,1.41
				c-0.2,0-0.4-0.03-0.59-0.08l-4.82-1.41c-1.23,5.42-0.65,10.94,1.67,16.01l4.44-2.31c0.3-0.15,0.63-0.23,0.96-0.23
				c0.75,0,1.44,0.4,1.8,1.04c0.53,0.96,0.16,2.16-0.83,2.68l-4.44,2.31c3.08,4.68,7.51,8.19,12.84,10.18l1.45-4.68
				c0.26-0.84,1.04-1.41,1.95-1.41c0.2,0,0.4,0.03,0.59,0.08c1.07,0.31,1.68,1.41,1.35,2.46L639.63,112.51z"/>
		</g>
		<g>
			<path class="st3" d="M654.13,58.88L654.13,58.88c16.11,4.7,25.28,21.25,20.43,36.88c-2.42,7.8-7.86,13.91-14.71,17.51
				c-0.02,0.02-0.04,0.04-0.07,0.05c-0.02,0.02-0.05,0.02-0.08,0.03c-6.87,3.56-15.13,4.59-23.15,2.25
				c-8.03-2.35-14.33-7.63-18.04-14.27c-0.02-0.03-0.04-0.04-0.05-0.07c-0.02-0.02-0.02-0.06-0.03-0.08
				c-3.66-6.67-4.73-14.68-2.32-22.48c2.41-7.79,7.86-13.9,14.7-17.5c0.03-0.02,0.04-0.04,0.07-0.06c0.02-0.01,0.06-0.01,0.08-0.02
				C637.84,57.57,646.1,56.54,654.13,58.88z M659.63,109.35L659.63,109.35c4.86-2.95,8.76-7.41,10.9-12.94l-5.07-1.48
				c-0.95-0.28-1.49-1.24-1.2-2.17c0.29-0.92,1.29-1.43,2.24-1.16l5.07,1.48c3.02-12.72-4.17-25.7-16.77-30.28l-1.53,4.92
				c-0.29,0.92-1.28,1.45-2.23,1.17c-0.96-0.28-1.49-1.25-1.2-2.17l1.53-4.92c-5.93-1.32-11.92-0.63-17.13,1.68l2.51,4.52
				c0.47,0.85,0.14,1.9-0.73,2.35c-0.44,0.23-0.93,0.26-1.37,0.13c-0.44-0.13-0.83-0.42-1.07-0.84l-2.51-4.52
				c-4.86,2.95-8.76,7.41-10.89,12.94l5.07,1.48c0.95,0.28,1.49,1.24,1.21,2.16c-0.29,0.93-1.29,1.44-2.24,1.17l-5.07-1.48
				c-1.36,5.76-0.65,11.56,1.73,16.63l4.66-2.43c0.87-0.45,1.96-0.14,2.43,0.71c0.47,0.85,0.14,1.91-0.73,2.36l-4.66,2.43
				c3.04,4.72,7.64,8.5,13.34,10.57l1.52-4.92c0.28-0.92,1.28-1.45,2.24-1.17c0.95,0.28,1.48,1.25,1.19,2.17l-1.52,4.92
				c5.93,1.32,11.92,0.63,17.13-1.68l-2.5-4.52c-0.48-0.85-0.15-1.91,0.73-2.36c0.87-0.45,1.96-0.14,2.43,0.71L659.63,109.35z
				 M659.63,109.35"/>
		</g>
		<g>
			<path class="st3" d="M645.93,94.66c-0.63,0-1.26-0.09-1.87-0.27c-3.45-1.01-5.41-4.54-4.37-7.89c0.82-2.66,3.39-4.51,6.25-4.51
				c0.63,0,1.26,0.09,1.87,0.27c0.97,0.28,1.84,0.79,2.6,1.51c0.04-0.03,0.08-0.07,0.14-0.1l14.54-7.59
				c0.3-0.15,0.63-0.24,0.96-0.24c0.75,0,1.44,0.4,1.8,1.04c0.53,0.96,0.16,2.16-0.83,2.67l-14.54,7.59
				c-0.06,0.03-0.11,0.04-0.16,0.06c0.19,1.02,0.14,2.01-0.14,2.94C651.37,92.81,648.8,94.66,645.93,94.66z M645.94,85.95
				c-1.09,0-2.03,0.68-2.35,1.69c-0.19,0.61-0.12,1.25,0.19,1.81c0.31,0.56,0.83,0.97,1.45,1.15c0.23,0.07,0.47,0.1,0.7,0.1
				c1.08,0,2.04-0.7,2.35-1.69c0.39-1.26-0.35-2.59-1.64-2.96C646.42,85.99,646.18,85.95,645.94,85.95z"/>
		</g>
		<g>
			<path class="st3" d="M665.21,76.3L665.21,76.3c0.87-0.45,1.96-0.14,2.43,0.71c0.47,0.85,0.14,1.9-0.73,2.35l-14.54,7.59
				c-0.11,0.05-0.22,0.06-0.33,0.09c0.22,0.98,0.22,2.02-0.09,3.05c-1,3.22-4.51,5.05-7.83,4.08c-3.32-0.97-5.21-4.38-4.21-7.6
				c1-3.22,4.51-5.05,7.83-4.08c1.06,0.31,1.94,0.88,2.66,1.6c0.09-0.07,0.17-0.16,0.27-0.22L665.21,76.3z M645.17,90.83
				L645.17,90.83c1.42,0.41,2.92-0.37,3.35-1.75c0.43-1.38-0.38-2.84-1.8-3.25s-2.92,0.36-3.35,1.75
				C642.94,88.96,643.75,90.42,645.17,90.83z M645.17,90.83"/>
		</g>
	</g>
	<g class="st138">
		<path class="st3" d="M1270.4,61.57l-0.01,3.57c0,1.43,1.19,2.59,2.66,2.59c0,0,0,0,0,0c1.47,0,2.66-1.16,2.67-2.58l0.01-4.64
			c0-0.69-0.28-1.35-0.78-1.83l-31.48-30.55c-1.04-1.01-2.73-1.01-3.77,0c-1.04,1.01-1.04,2.65,0,3.66L1270.4,61.57z"/>
	</g>
	<g class="st138">
		<path class="st3" d="M1289.88,44.19c0.5,0.49,1.18,0.76,1.89,0.76c0,0,0,0,0,0l7.4-0.01c1.47,0,2.67-1.16,2.66-2.59
			c0-1.43-1.2-2.58-2.67-2.58c0,0,0,0,0,0l-6.29,0.01l-30.69-29.79c-1.04-1.01-2.73-1.01-3.77,0c-1.04,1.01-1.04,2.65,0,3.66
			L1289.88,44.19z"/>
	</g>
	<g class="st138">
		<path class="st3" d="M1296.74,49.6c-1.04,1.01-1.04,2.65,0,3.66c0.52,0.51,1.2,0.76,1.89,0.76c0.68,0,1.37-0.25,1.89-0.76
			l2.4-2.33c3.98-3.87,9.27-5.99,14.91-5.99c0.01,0,0.02,0,0.03,0l4.78,0.01c0,0,0,0,0,0c0.71,0,1.39-0.27,1.89-0.76l23.67-22.97
			c1.04-1.01,1.04-2.65,0-3.66c-1.04-1.01-2.73-1.01-3.77,0l-22.88,22.21l-3.68-0.01c-0.01,0-0.03,0-0.04,0
			c-7.06,0-13.69,2.67-18.68,7.51L1296.74,49.6z"/>
	</g>
	<g class="st138">
		<path class="st3" d="M1338.66,60.5l0.01,7.18c0,1.43,1.2,2.58,2.67,2.58c0,0,0,0,0,0c1.47,0,2.67-1.16,2.66-2.59l-0.01-6.11
			l30.69-29.79c1.04-1.01,1.04-2.65,0-3.66c-1.04-1.01-2.73-1.01-3.77,0l-31.48,30.55C1338.94,59.16,1338.66,59.82,1338.66,60.5z"/>
	</g>
	<g class="st138">
		<path class="st3" d="M1374.69,119.17l-30.69-29.79l0.01-3.57c0.01-3.4-0.67-6.72-2.02-9.86c-0.56-1.32-2.12-1.95-3.48-1.4
			c-1.36,0.55-2.01,2.06-1.44,3.38c1.07,2.51,1.61,5.15,1.61,7.87l-0.01,4.64c0,0.69,0.28,1.35,0.78,1.83l31.48,30.55
			c0.52,0.51,1.2,0.76,1.89,0.76c0.68,0,1.37-0.25,1.89-0.76C1375.73,121.82,1375.73,120.18,1374.69,119.17z"/>
	</g>
	<g class="st138">
		<path class="st3" d="M1324.52,106.77c-0.5-0.49-1.18-0.76-1.89-0.76c0,0,0,0,0,0l-7.4,0.01c-1.47,0-2.67,1.16-2.66,2.59
			c0,1.43,1.2,2.58,2.67,2.58c0,0,0,0,0,0l6.29-0.01l30.69,29.79c0.52,0.51,1.2,0.76,1.89,0.76c0.68,0,1.37-0.25,1.89-0.76
			c1.04-1.01,1.04-2.65,0-3.66L1324.52,106.77z"/>
	</g>
	<g class="st138">
		<path class="st3" d="M1334.3,85.2c2.93-2.84,2.93-7.47,0-10.31c-0.6-0.59-1.29-1.05-2.02-1.4c0.62-1.08,0.96-2.29,0.96-3.56
			c0-1.95-0.78-3.78-2.2-5.16c-0.64-0.62-1.37-1.11-2.15-1.46c1.34-2.71,0.86-6.07-1.45-8.32c-2.32-2.25-5.78-2.72-8.57-1.41
			c-0.37-0.77-0.87-1.47-1.51-2.09c-2.93-2.84-7.7-2.84-10.63,0l-10.65,10.33c-0.2-2.09-1.32-4.09-3.21-5.37
			c-1.69-1.15-3.74-1.58-5.77-1.21c-2.03,0.37-3.78,1.49-4.93,3.15l-7.31,10.57c-2.94,4.25-4.48,9.2-4.48,14.31l0.01,6.11
			l-30.69,29.79c-1.04,1.01-1.04,2.65,0,3.66c0.52,0.51,1.2,0.76,1.89,0.76c0.68,0,1.37-0.25,1.89-0.76l31.48-30.55
			c0.5-0.49,0.78-1.15,0.78-1.83l-0.01-7.18c-0.01-4.08,1.23-8.03,3.57-11.42l7.3-10.57c0.35-0.5,0.87-0.83,1.48-0.95
			c0.61-0.11,1.22,0.02,1.73,0.36c0.98,0.67,1.27,1.97,0.64,2.97l-2.85,4.57c-0.9,1.44-0.56,3.24,0.8,4.28s3.25,0.93,4.48-0.26
			l17.62-17.1c0.85-0.83,2.23-0.82,3.08,0c0.41,0.4,0.64,0.93,0.64,1.5c0,0.48-0.16,0.93-0.47,1.3l-10.43,10.14
			c-1.04,1.01-1.04,2.65,0,3.66c1.04,1.01,2.73,1.01,3.77,0l13.48-13.1c0.85-0.82,2.23-0.82,3.08,0c0.85,0.83,0.85,2.17,0,2.99
			l-13.49,13.09c-1.04,1.01-1.04,2.65,0,3.66c0.52,0.51,1.2,0.76,1.89,0.76c0.68,0,1.37-0.25,1.89-0.76l10.44-10.13
			c0.85-0.65,2.1-0.6,2.89,0.17c0.41,0.4,0.64,0.93,0.64,1.5c0,0.56-0.23,1.1-0.64,1.5l-10.25,9.95c-1.04,1.01-1.04,2.65,0,3.66
			c0.52,0.51,1.2,0.76,1.89,0.76c0.68,0,1.37-0.25,1.89-0.76l6.86-6.65c0.85-0.65,2.1-0.6,2.89,0.17c0.41,0.4,0.64,0.93,0.64,1.5
			c0,0.56-0.23,1.1-0.64,1.5l-19.04,18.48c-3.98,3.87-9.27,5.99-14.91,5.99c-0.01,0-0.02,0-0.03,0l-4.78-0.01c0,0,0,0,0,0
			c-0.71,0-1.39,0.27-1.89,0.76l-24.78,24.05c-1.04,1.01-1.04,2.65,0,3.66c0.52,0.51,1.2,0.76,1.89,0.76c0.68,0,1.37-0.25,1.89-0.76
			l24-23.29l3.68,0.01c0.01,0,0.03,0,0.04,0c7.06,0,13.69-2.67,18.68-7.51L1334.3,85.2z"/>
	</g>
	<g class="st138">
		<g>
			<path class="st3" d="M1292.65,206.67c-6.95,0-13.48-2.63-18.39-7.39c-4.91-4.77-7.62-11.11-7.62-17.85
				c0-6.74,2.71-13.08,7.62-17.85c4.91-4.77,11.44-7.39,18.39-7.39c6.95,0,13.48,2.63,18.39,7.39c4.91,4.77,7.62,11.11,7.62,17.85
				c0,6.74-2.71,13.08-7.62,17.85C1306.13,204.05,1299.6,206.67,1292.65,206.67z M1291.63,202.81c0.34,0.02,0.68,0.02,1.02,0.02
				c0.67,0,1.35-0.03,2.02-0.09c-0.36-6.06-3-11.76-7.44-16.06c-4.44-4.31-10.31-6.86-16.55-7.22c-0.06,0.66-0.09,1.32-0.09,1.96
				c0,0.33,0.01,0.66,0.03,0.99c2.35,0.14,4.65,0.64,6.84,1.48c2.87,1.1,5.44,2.74,7.64,4.87c2.2,2.13,3.88,4.62,5.02,7.41
				C1290.97,198.31,1291.48,200.54,1291.63,202.81z M1271.17,186.31c1.9,7.9,8.31,14.12,16.45,15.97c-0.44-4.12-2.28-7.85-5.32-10.8
				C1279.25,188.52,1275.41,186.74,1271.17,186.31z M1271.4,175.67c7.02,0.51,13.63,3.45,18.62,8.3c5,4.85,8.03,11.26,8.56,18.07
				c7.42-2.01,13.25-7.67,15.32-14.87c-7.02-0.51-13.63-3.45-18.62-8.3c-5-4.85-8.03-11.26-8.56-18.07
				C1279.3,162.82,1273.47,168.48,1271.4,175.67z M1290.63,160.11c0.36,6.06,3,11.76,7.44,16.06c4.44,4.31,10.31,6.86,16.55,7.22
				c0.06-0.66,0.09-1.32,0.09-1.96c0-0.33-0.01-0.66-0.02-0.99c-2.34-0.14-4.64-0.64-6.84-1.48c-2.87-1.1-5.44-2.74-7.64-4.87
				c-2.2-2.13-3.88-4.62-5.02-7.41c-0.86-2.13-1.37-4.36-1.52-6.63c-0.34-0.02-0.68-0.02-1.02-0.02
				C1291.98,160.02,1291.3,160.05,1290.63,160.11z M1297.68,160.58c0.44,4.12,2.28,7.85,5.32,10.8c3.04,2.95,6.89,4.73,11.13,5.17
				C1312.23,168.65,1305.82,162.43,1297.68,160.58z"/>
		</g>
	</g>
	<g class="st138">
		<g>
			<path class="st3" d="M920.2,110.58c24.84,0,44.92-19.48,44.92-43.59c0-24.11-20.07-43.59-44.92-43.59
				c-24.84,0-44.92,19.48-44.92,43.59C875.28,91.1,895.35,110.58,920.2,110.58L920.2,110.58z M880.58,68.41l3.25,2.29
				c0.93,0.65,2.19,0.65,3.11-0.01l11.37-8.17l7.49,2.53l3.91,11.68l-4.85,6.17l-13.86,0.13c-1.13,0.01-2.13,0.72-2.48,1.76
				l-1.22,3.66C883.29,82.68,880.85,75.81,880.58,68.41L880.58,68.41z M885.56,48.28h5.59l3.61,10.44l-9.4,6.76l-4.51-3.18
				C881.48,57.25,883.12,52.52,885.56,48.28L885.56,48.28z M920.52,57.45l9.11,6.55l-3.57,10.65h-11.52L911,64.04L920.52,57.45z
				 M942.43,62.91l11.29,7.8c0.92,0.64,2.16,0.63,3.07-0.01l3.02-2.13c-0.3,7.27-2.69,14.02-6.6,19.71l-1.16-3.47
				c-0.36-1.06-1.39-1.78-2.53-1.77l-14.14,0.13l-4.51-6.37l3.91-11.69L942.43,62.91z M959.57,62.43l-4.34,3.06L946,59.1l3.51-10.83
				h5.33C957.3,52.56,958.95,57.34,959.57,62.43L959.57,62.43z M891.22,93.23l1.72-5.12l11.34-0.1L908,98.77l-4.45,3.14
				C898.87,99.8,894.7,96.84,891.22,93.23L891.22,93.23z M909.47,104.04l3.18-2.24c0.7-0.49,1.09-1.27,1.09-2.07
				c0-0.76,0.07-0.06-4.63-13.83l4.84-6.15h12.66l4.52,6.39c-4.27,13.31-4.28,12.89-4.28,13.6c0,0.8,0.39,1.58,1.08,2.07l3.11,2.19
				c-3.44,0.95-7.08,1.46-10.83,1.46C916.48,105.47,912.89,104.97,909.47,104.04L909.47,104.04z M936.94,101.87l-4.39-3.1l3.4-10.5
				l11.7-0.1l1.65,4.94C945.82,96.75,941.63,99.74,936.94,101.87L936.94,101.87z M951.32,43.16h-3.74c-1.15,0-2.16,0.72-2.51,1.79
				l-4.25,13.09l-7.59,2.19l-10.05-7.23v-7.72l11.11-7.99c0.68-0.49,1.06-1.26,1.06-2.05c0-0.69-0.2-0.87-1.31-4.32
				C940.9,33.41,946.86,37.69,951.32,43.16L951.32,43.16z M927.94,29.25l1.69,5.05l-9.11,6.55L911,34.26l1.69-5.06
				c2.43-0.45,4.94-0.7,7.51-0.7C922.85,28.51,925.44,28.76,927.94,29.25L927.94,29.25z M906.61,30.84
				c-1.16,3.6-1.34,3.72-1.34,4.41c0,0.81,0.4,1.59,1.1,2.08l11.55,7.99v7.66l-10.44,7.22l-7.53-2.54l-4.41-12.75
				c-0.36-1.04-1.36-1.74-2.5-1.74h-3.97C893.59,37.62,899.65,33.31,906.61,30.84L906.61,30.84z M906.61,30.84"/>
		</g>
	</g>
	<g class="st138">
		<path class="st3" d="M870.52,46.98c-0.29,0-0.59-0.05-0.88-0.14c-1.46-0.47-2.25-2-1.77-3.42c0.15-0.45,3.89-11.16,13.85-16.36
			c1.36-0.71,3.05-0.21,3.78,1.1c0.73,1.32,0.22,2.96-1.14,3.67c-7.96,4.15-11.16,13.2-11.19,13.29
			C872.78,46.27,871.69,46.98,870.52,46.98z"/>
	</g>
	<g class="st138">
		<path class="st3" d="M859.99,39.57c-0.29,0-0.59-0.05-0.88-0.14c-1.46-0.47-2.25-2-1.77-3.42c0.15-0.45,3.89-11.16,13.85-16.36
			c1.36-0.71,3.05-0.21,3.78,1.1c0.73,1.32,0.22,2.96-1.14,3.67c-7.96,4.15-11.16,13.2-11.19,13.29
			C862.25,38.86,861.16,39.57,859.99,39.57z"/>
	</g>
	<g class="st138">
		<path class="st3" d="M953.6,108.28c-0.99,0-1.96-0.52-2.46-1.43c-0.73-1.32-0.22-2.96,1.14-3.67c7.96-4.15,11.16-13.2,11.19-13.29
			c0.49-1.42,2.07-2.18,3.53-1.71c1.46,0.47,2.25,2,1.77,3.42c-0.15,0.45-3.89,11.16-13.85,16.36
			C954.49,108.18,954.04,108.28,953.6,108.28z"/>
	</g>
	<g class="st138">
		<path class="st3" d="M964.13,115.69c-0.99,0-1.96-0.52-2.46-1.43c-0.73-1.32-0.22-2.96,1.14-3.67
			c7.96-4.15,11.16-13.2,11.19-13.29c0.49-1.42,2.07-2.18,3.53-1.71c1.46,0.47,2.25,2,1.77,3.42c-0.15,0.45-3.89,11.16-13.85,16.36
			C965.03,115.59,964.57,115.69,964.13,115.69z"/>
	</g>
	<g class="st138">
		<g>
			<path class="st3" d="M1056.7,122.06v-2.45c0-6.87,5.76-12.46,12.84-12.46h2.65v-5.27c-2.19-2.16-3.44-5.12-3.44-8.15
				c0-3.08,1.22-5.97,3.44-8.16v-4.92c-4.55-1.44-8.65-4.06-11.9-7.59L1037,52.66c-7.52-6.74-8.4-17.87-1.96-24.83
				c0.01-0.01,3.98-4.14,10.85-4.14c2.41,0,4.89,0.52,7.37,1.55v-0.62c0-2.39,2-4.33,4.46-4.33h46.03c2.46,0,4.46,1.94,4.46,4.33
				v0.73c2.5-1.04,4.98-1.56,7.4-1.56c6.77,0,10.79,4.12,10.83,4.16c6.43,6.96,5.56,18.09-1.94,24.8l-23.92,20.95
				c-3.11,3.17-7.01,5.57-11.29,6.93v4.92c2.19,2.17,3.44,5.12,3.44,8.16c0,3.04-1.25,5.99-3.44,8.15v5.27h2.65
				c7.08,0,12.84,5.59,12.84,12.46v2.45H1056.7z M1099.31,117.17c-1.06-3.02-4.03-5.13-7.39-5.13h-22.38
				c-3.36,0-6.32,2.11-7.39,5.13H1099.31z M1084.24,107.15v-7.5l0.91-0.73c1.6-1.29,2.53-3.18,2.53-5.2c0-2.02-0.92-3.91-2.53-5.2
				l-0.91-0.74v-6.06c-0.36,0.05-0.72,0.09-1.09,0.13c-0.74,0.07-1.48,0.1-2.24,0.11l-0.17,0.01c-0.05,0-0.1,0-0.15-0.01
				c-0.84-0.01-1.58-0.05-2.28-0.12c-0.36-0.03-0.72-0.07-1.08-0.12v6.06l-0.92,0.74c-1.61,1.28-2.53,3.18-2.53,5.2
				c0,2.02,0.92,3.91,2.53,5.2l0.92,0.72v7.5H1084.24z M1077.92,76.89c0.1,0.01,0.18,0.02,0.23,0.03c0.81,0.09,1.71,0.15,2.58,0.15
				c0.88,0,1.77-0.05,2.65-0.16c-0.01,0,0.06-0.02,0.16-0.02c0.88-0.11,1.75-0.27,2.59-0.48c10.03-2.42,17.03-11.1,17.03-21.12
				V25.18h-44.87V55.3c0,0.6,0.03,1.23,0.1,2.06l0.08,0.61c0.06,0.47,0.13,0.93,0.22,1.4c0.05,0.23,0.09,0.45,0.15,0.67
				c0.1,0.45,0.21,0.88,0.34,1.3c0,0,0.17,0.57,0.21,0.69c0.11,0.33,0.25,0.67,0.38,1l0.08,0.19c0.04,0.1,0.09,0.21,0.13,0.33
				c0.05,0.12,0.09,0.24,0.14,0.35c0.14,0.32,0.3,0.63,0.46,0.93l0.05,0.1c0.32,0.64,0.67,1.24,1.06,1.84l0.08,0.14
				c0.05,0.08,0.09,0.15,0.14,0.23c0.27,0.41,0.56,0.79,0.85,1.18c3.11,4.02,7.57,6.9,12.56,8.1
				C1076.2,76.63,1077.05,76.78,1077.92,76.89z M1108.21,55.42c0,0.94-0.07,1.86-0.14,2.55c-0.01,0.11-0.02,0.16-0.03,0.2
				c-0.1,0.94-0.24,1.87-0.44,2.79l13.49-11.81c5.47-4.91,6.18-12.96,1.58-17.94c-0.08-0.08-2.59-2.53-7.02-2.53
				c-2.38,0-4.88,0.71-7.44,2.11V55.42z M1045.82,28.57c-4.29,0-6.82,2.33-7.09,2.59c-4.56,4.93-3.82,12.97,1.67,17.9l13.47,11.79
				c-0.02-0.09-0.04-0.18-0.05-0.27c-0.02-0.1-0.04-0.2-0.06-0.3c-0.12-0.65-0.22-1.25-0.28-1.81c-0.03-0.21-0.06-0.44-0.08-0.67
				c-0.09-0.94-0.13-1.75-0.13-2.51V30.69C1050.69,29.28,1048.19,28.57,1045.82,28.57z"/>
		</g>
		<g>
			<path class="st3" d="M1100.04,73.13l23.92-20.95c7.19-6.43,8.02-17.08,1.89-23.72c-0.08-0.08-7.16-7.29-18.43-1.91v-1.94
				c0-1.96-1.65-3.56-3.66-3.56h-46.03c-2.02,0-3.66,1.6-3.66,3.56v1.83c-11.23-5.35-18.36,1.83-18.42,1.91
				c-6.15,6.64-5.3,17.28,1.9,23.73l23.32,20.42c3.22,3.51,7.39,6.17,12.13,7.57v5.81c-2.19,2.05-3.44,4.85-3.44,7.84
				c0,2.98,1.25,5.79,3.44,7.83v6.37h-3.44c-6.64,0-12.04,5.24-12.04,11.69v1.67h46.47v-1.67c0-6.44-5.4-11.69-12.04-11.69h-3.44
				v-6.37c2.19-2.04,3.44-4.85,3.44-7.83c0-2.98-1.25-5.79-3.44-7.84v-5.81C1092.94,78.76,1096.9,76.33,1100.04,73.13L1100.04,73.13
				z M1107.26,58.04c0.01-0.05,0.01-0.09,0.02-0.14c0.08-0.82,0.13-1.65,0.13-2.48V30.35c9.74-5.59,15.64,0.13,15.86,0.35
				c4.9,5.29,4.15,13.83-1.64,19.03l-15.47,13.54C1106.72,61.57,1107.08,59.82,1107.26,58.04L1107.26,58.04z M1039.85,49.63
				c-5.81-5.21-6.56-13.75-1.69-19.01c0.18-0.17,2.91-2.82,7.66-2.82c2.29,0,5.06,0.63,8.24,2.45V55.3c0,0.81,0.05,1.61,0.12,2.4
				c0.03,0.23,0.05,0.46,0.08,0.68c0.07,0.58,0.16,1.16,0.27,1.73c0.05,0.23,0.08,0.46,0.14,0.68c0.15,0.65,0.32,1.3,0.51,1.93
				c0.04,0.11,0.07,0.22,0.1,0.33c0.01,0.03,0.02,0.07,0.03,0.1L1039.85,49.63z M1091.92,111.26c4.15,0,7.63,2.88,8.43,6.68h-39.24
				c0.8-3.8,4.28-6.68,8.43-6.68H1091.92z M1085.66,99.52l-0.62,0.5v7.9h-8.61v-7.9l-0.63-0.5c-1.79-1.43-2.82-3.56-2.82-5.8
				c0-2.25,1.03-4.37,2.82-5.8l0.63-0.51v-6.58c0.15,0.03,0.29,0.03,0.45,0.06c0.5,0.07,1,0.14,1.51,0.18
				c0.72,0.07,1.45,0.11,2.18,0.11c0.06,0,0.11,0.01,0.17,0.01c0.05,0,0.1-0.01,0.16-0.01c0.72-0.01,1.45-0.04,2.18-0.11
				c0.51-0.05,1.01-0.11,1.51-0.19c0.15-0.02,0.29-0.03,0.45-0.06v6.58l0.62,0.51c1.79,1.44,2.82,3.55,2.82,5.8
				C1088.48,95.98,1087.45,98.09,1085.66,99.52L1085.66,99.52z M1086.33,77.17c-0.92,0.22-1.82,0.38-2.71,0.5
				c-0.04,0-0.08,0.01-0.13,0.02c-1.84,0.22-3.66,0.22-5.5,0c-0.04-0.01-0.08-0.02-0.13-0.02c-0.9-0.11-1.8-0.28-2.72-0.5
				c-5.28-1.27-9.83-4.29-13-8.39c-0.31-0.4-0.6-0.8-0.88-1.22c-0.08-0.12-0.16-0.25-0.23-0.38c-0.4-0.62-0.77-1.25-1.09-1.9
				c-0.19-0.35-0.38-0.71-0.54-1.08c-0.1-0.23-0.18-0.47-0.29-0.71c-0.16-0.41-0.33-0.82-0.47-1.24c-0.08-0.24-0.14-0.48-0.22-0.72
				c-0.13-0.43-0.24-0.87-0.34-1.32c-0.06-0.24-0.11-0.47-0.16-0.71c-0.09-0.48-0.17-0.96-0.23-1.45c-0.03-0.21-0.06-0.42-0.08-0.64
				c-0.06-0.7-0.1-1.4-0.1-2.12V24.62c0-0.12,0.09-0.21,0.22-0.21h46.03c0.12,0,0.22,0.09,0.22,0.21V55.3
				C1103.97,65.87,1096.44,74.73,1086.33,77.17L1086.33,77.17z M1086.33,77.17"/>
		</g>
		<g>
			<path class="st3" d="M1093.28,69.69c-0.41,0-0.82-0.1-1.18-0.29l-11.17-5.7l-11.18,5.7c-0.36,0.18-0.77,0.28-1.17,0.28
				c-0.53,0-1.04-0.16-1.47-0.45c-0.78-0.56-1.17-1.5-1.01-2.4l2.13-12.08l-9.04-8.55c-0.69-0.66-0.94-1.62-0.64-2.51
				c0.3-0.88,1.07-1.52,2.02-1.67l12.5-1.76l5.6-10.99c0.42-0.84,1.28-1.36,2.25-1.36c0.96,0,1.83,0.52,2.26,1.36l5.58,10.99
				l12.5,1.76c0.96,0.15,1.74,0.78,2.03,1.67c0.3,0.89,0.05,1.85-0.64,2.5l-9.04,8.55l2.13,12.08c0.17,0.9-0.22,1.85-1,2.4
				C1094.32,69.53,1093.81,69.69,1093.28,69.69z M1080.92,58.5c0.4,0,0.81,0.1,1.17,0.28l7.84,4l-1.49-8.46
				c-0.14-0.8,0.13-1.61,0.72-2.17l6.34-5.99l-8.75-1.23c-0.82-0.11-1.53-0.61-1.9-1.34l-3.92-7.7l-3.91,7.7
				c-0.37,0.73-1.08,1.23-1.9,1.34l-8.75,1.23l6.34,5.99c0.59,0.56,0.86,1.37,0.73,2.16l-1.5,8.47l7.83-4
				C1080.11,58.6,1080.52,58.5,1080.92,58.5z"/>
		</g>
		<g>
			<path class="st3" d="M1092.77,54.48l9.34-8.83c0.47-0.45,0.64-1.11,0.44-1.71c-0.2-0.6-0.74-1.04-1.39-1.14l-12.92-1.82
				l-5.76-11.35c-0.29-0.57-0.89-0.93-1.55-0.93c-0.66,0-1.25,0.36-1.54,0.93l-5.78,11.35l-12.91,1.82
				c-0.65,0.1-1.19,0.54-1.39,1.14c-0.2,0.6-0.03,1.27,0.44,1.71l9.34,8.83l-2.2,12.48c-0.11,0.63,0.16,1.27,0.68,1.64
				c0.54,0.37,1.23,0.42,1.82,0.12l11.55-5.89l11.55,5.89c0.25,0.13,0.53,0.2,0.81,0.2c0.35,0,0.71-0.11,1.01-0.32
				c0.53-0.38,0.8-1.01,0.68-1.64L1092.77,54.48z M1089.22,54.19l1.77,10.01l-9.26-4.73c-0.5-0.25-1.1-0.25-1.61,0l-9.26,4.73
				l1.77-10.01c0.09-0.54-0.09-1.1-0.49-1.48l-7.5-7.09l10.35-1.46c0.56-0.08,1.04-0.42,1.3-0.91l4.63-9.1l4.63,9.1
				c0.25,0.5,0.74,0.84,1.3,0.91l10.35,1.46l-7.5,7.09C1089.3,53.09,1089.13,53.64,1089.22,54.19L1089.22,54.19z M1089.22,54.19"/>
		</g>
	</g>
	<g class="st138">
		<path class="st3" d="M375.22,113.97c-0.21,0-0.42-0.03-0.63-0.08l-31.33-8.15c-0.62-0.16-1.15-0.55-1.47-1.1
			c-0.32-0.54-0.41-1.18-0.24-1.79l2.18-7.9c-0.24-0.3-0.48-0.61-0.71-0.93l-16.5,4.29c-0.21,0.05-0.42,0.08-0.63,0.08
			c-0.42,0-0.84-0.11-1.21-0.32c-0.55-0.31-0.96-0.83-1.13-1.43l-2.16-7.82c-7.64-2.29-13.42-8.11-15.49-15.62l-7.32-26.52
			c-1.12-4.05,1.37-8.22,5.54-9.31c0.67-0.17,1.35-0.26,2.04-0.26c0.33,0,0.66,0.02,0.98,0.06l-1.27-4.61
			c-0.54-1.96-0.26-4,0.78-5.76c1.05-1.76,2.73-3.02,4.75-3.54c0.66-0.17,1.34-0.26,2.02-0.26c0.34,0,0.67,0.02,1.01,0.06
			l-0.26-0.95c-0.54-1.96-0.26-4,0.79-5.76c1.05-1.76,2.73-3.02,4.75-3.54c0.66-0.17,1.34-0.26,2.03-0.26
			c3.54,0,6.65,2.32,7.56,5.63l0.26,0.94c0.81-0.6,1.72-1.04,2.73-1.3c0.67-0.17,1.35-0.26,2.04-0.26c1.36,0,2.71,0.35,3.9,1.02
			c1.81,1.02,3.11,2.65,3.65,4.61l4.75,17.19c1.3-2.07,3.57-3.45,6.12-3.66c0.23-0.02,0.46-0.03,0.69-0.03
			c2.17,0,4.22,0.86,5.73,2.37l0.08-0.3c0.92-3.32,4.03-5.63,7.56-5.63c0.68,0,1.36,0.09,2.02,0.26c1,0.26,1.92,0.7,2.73,1.3
			l0.26-0.95c0.54-1.96,1.84-3.6,3.65-4.61c1.19-0.67,2.54-1.02,3.9-1.02c0.68,0,1.37,0.09,2.04,0.26c2.02,0.52,3.7,1.78,4.75,3.54
			c1.05,1.76,1.33,3.81,0.79,5.76l-0.26,0.95c0.34-0.04,0.68-0.06,1.02-0.06c0.68,0,1.36,0.09,2.02,0.26
			c2.02,0.53,3.71,1.78,4.75,3.54c1.04,1.76,1.32,3.81,0.78,5.77l-1.28,4.62c0.33-0.04,0.67-0.06,1.01-0.06
			c0.68,0,1.36,0.09,2.02,0.26c2.02,0.52,3.7,1.78,4.75,3.54c1.05,1.76,1.33,3.81,0.79,5.76l-8.16,28.88
			c-0.02,0.09-0.05,0.2-0.09,0.31c-0.06,0.23-0.15,0.44-0.28,0.63c-2.68,5.9-7.89,10.39-14.29,12.31l-2.16,7.82
			c-0.16,0.6-0.58,1.12-1.13,1.43C376.06,113.86,375.64,113.97,375.22,113.97z M373.5,108.73l1.89-6.85
			c0.23-0.83,0.91-1.48,1.77-1.68c5.6-1.31,10.28-5.15,12.53-10.29l8.15-28.86c0.42-1.54-0.52-3.13-2.11-3.54
			c-0.25-0.07-0.51-0.1-0.77-0.1c-1.29,0-2.42,0.8-2.83,1.99l-3.02,10.94c-0.3,1.07-1.26,1.79-2.35,1.79
			c-0.21,0-0.42-0.03-0.63-0.08c-1.28-0.33-2.05-1.62-1.72-2.87l6.14-22.25c0.21-0.75,0.1-1.53-0.3-2.19
			c-0.4-0.67-1.04-1.15-1.81-1.35c-0.25-0.07-0.51-0.1-0.77-0.1c-1.35,0-2.53,0.88-2.88,2.14l-6.14,22.24
			c-0.28,1.03-1.25,1.74-2.34,1.74c-0.21,0-0.42-0.03-0.63-0.08c-0.63-0.16-1.15-0.55-1.47-1.1c-0.32-0.54-0.41-1.18-0.24-1.79
			l8.28-29.97c0.43-1.54-0.52-3.13-2.11-3.54c-0.26-0.07-0.52-0.1-0.78-0.1c-0.52,0-1.03,0.13-1.48,0.39
			c-0.69,0.39-1.18,1.01-1.39,1.76l-8.28,29.97c-0.28,1.03-1.25,1.74-2.34,1.74c-0.21,0-0.42-0.03-0.63-0.08
			c-1.29-0.34-2.06-1.63-1.71-2.88l6.14-22.24c0.42-1.54-0.52-3.13-2.11-3.54c-0.26-0.07-0.52-0.1-0.78-0.1
			c-0.52,0-1.03,0.13-1.49,0.39c-0.69,0.39-1.18,1.01-1.39,1.76l-8.25,29.9c-0.32,1.15-1.4,1.96-2.63,1.96
			c-0.14,0-0.29-0.01-0.43-0.03c-1.38-0.21-2.37-1.4-2.29-2.76l0.49-8.9c0.09-1.64-1.16-3.04-2.85-3.18
			c-0.09-0.01-0.18-0.01-0.27-0.01c-1.58,0-2.95,1.2-3.11,2.73l-1.73,16.5c-0.63,6.01,1.33,12.08,5.39,16.66
			c0.52,0.59,0.71,1.39,0.5,2.14l-1.88,6.8L373.5,108.73z M306.15,41.84c-0.26,0-0.52,0.03-0.78,0.1c-1.59,0.41-2.53,2-2.11,3.54
			L310.58,72c1.73,6.28,6.85,11.12,13.36,12.64c0.86,0.2,1.54,0.85,1.77,1.68l1.89,6.85l12.88-3.35c-2.12-4.41-2.97-9.27-2.47-14.09
			l0.15-1.4l-13.35,3.47c-0.42,0.11-0.87,0.17-1.31,0.17c-2.29,0-4.3-1.5-4.9-3.65l-1.26-4.57c-0.35-1.27-0.17-2.59,0.51-3.73
			c0.68-1.14,1.77-1.95,3.08-2.29c0,0,18.83-4.89,18.87-4.9c0.45-2.79,2.44-5.13,5.2-6.1l-7.81-28.3c-0.21-0.75-0.7-1.37-1.39-1.76
			c-0.45-0.25-0.97-0.39-1.48-0.39c-0.26,0-0.52,0.03-0.78,0.1c-0.77,0.2-1.41,0.68-1.81,1.35c-0.4,0.67-0.51,1.45-0.3,2.19
			l6.14,22.24c0.17,0.61,0.08,1.24-0.24,1.78c-0.32,0.54-0.85,0.93-1.47,1.1c-0.21,0.05-0.42,0.08-0.63,0.08
			c-1.1,0-2.06-0.72-2.34-1.74l-8.27-29.97c-0.21-0.75-0.7-1.37-1.39-1.76c-0.45-0.25-0.97-0.39-1.49-0.39
			c-0.26,0-0.52,0.03-0.78,0.1c-1.59,0.41-2.53,2-2.11,3.54l8.28,29.97c0.35,1.25-0.42,2.55-1.71,2.88
			c-0.21,0.05-0.42,0.08-0.63,0.08c-1.09,0-2.06-0.72-2.34-1.74l-6.14-22.25c-0.35-1.25-1.54-2.13-2.88-2.13
			c-0.26,0-0.52,0.03-0.77,0.1c-0.77,0.2-1.41,0.68-1.81,1.35c-0.4,0.67-0.51,1.45-0.3,2.2l6.14,22.24
			c0.34,1.25-0.43,2.54-1.72,2.88c-0.21,0.05-0.42,0.08-0.63,0.08c-1.09,0-2.06-0.72-2.34-1.74l-3.06-11.07
			c-0.23-0.62-0.69-1.17-1.31-1.51C307.18,41.97,306.66,41.84,306.15,41.84z M322.19,68.28c-0.04,0.01-0.09,0.03-0.13,0.1
			c-0.04,0.07-0.03,0.12-0.02,0.16l1.26,4.57c0.03,0.09,0.11,0.16,0.21,0.16l15.19-3.94l0.57-5.49L322.19,68.28z M350.77,52.87
			c1.54,0.62,2.86,1.72,3.73,3.1l2.38-8.62l-0.34-3.22c-0.16-1.53-1.53-2.72-3.11-2.72c-0.09,0-0.18,0-0.27,0.01
			c-1.69,0.14-2.94,1.54-2.85,3.18L350.77,52.87z"/>
	</g>
	<g class="st138">
		<path class="st3" d="M377.6,93.54c-0.44,0-0.88-0.06-1.31-0.17l-18.73-4.87c-1.31-0.34-2.4-1.15-3.08-2.29
			c-0.68-1.14-0.86-2.46-0.51-3.73l1.26-4.57c0.35-1.27,1.19-2.33,2.36-2.99c0.77-0.43,1.65-0.66,2.53-0.66
			c0.44,0,0.88,0.06,1.32,0.17l18.73,4.87c2.7,0.7,4.31,3.4,3.58,6.02l-1.26,4.57C381.91,92.04,379.9,93.54,377.6,93.54z
			 M360.14,78.97c-0.04,0-0.07,0.01-0.11,0.03c-0.07,0.04-0.09,0.09-0.1,0.13l-1.26,4.57c-0.02,0.06-0.01,0.11,0.02,0.16
			c0.03,0.05,0.08,0.09,0.13,0.1l18.73,4.87c0.02,0,0.04,0,0.06,0c0.05,0,0.08-0.01,0.11-0.02c0.08-0.04,0.1-0.11,0.1-0.13
			l1.26-4.57c0.02-0.06,0.01-0.11-0.02-0.16c-0.03-0.05-0.08-0.08-0.13-0.1l-18.73-4.87L360.14,78.97z"/>
	</g>
	<g class="st138">
		<g>
			<path class="st3" d="M154.15,139.58c-1.4,0-2.54-1.1-2.54-2.46v-32.36c-0.01-5.89,2.35-11.43,6.64-15.6
				c4.29-4.17,9.99-6.47,16.06-6.47h32.53c3.76,0,7.5,0.92,10.8,2.66c0.6,0.33,1.03,0.87,1.21,1.51c0.18,0.64,0.1,1.31-0.24,1.89
				c-0.46,0.78-1.31,1.26-2.23,1.26c-0.44,0-0.88-0.11-1.27-0.32c-2.52-1.32-5.38-2.03-8.25-2.03h-5.53
				c-1.17,4.84-5.66,8.32-10.81,8.32c-5.15,0-9.64-3.48-10.81-8.32h-5.41c-9.7,0.01-17.61,7.68-17.62,17.1v29.89h9.9V112.2
				c0-1.36,1.14-2.46,2.54-2.46c1.4,0,2.54,1.1,2.54,2.46v22.46h27.87c1.4,0,2.54,1.1,2.54,2.46c0,1.36-1.14,2.46-2.54,2.46H154.15z
				 M185.09,87.66c0.98,2.04,3.1,3.37,5.44,3.38c2.34-0.01,4.46-1.34,5.44-3.38H185.09z"/>
		</g>
		<g>
			<path class="st3" d="M190.53,79.44c-12.38,0-22.81-9.32-23.85-21.26c-2.63-0.94-4.38-3.36-4.37-6.1v-4.44
				c0.01-2.69,1.71-5.08,4.28-6.04V27.01c-0.02-1.18,0.83-2.22,2.03-2.46l10.7-2.08l0.73,0c-0.75-0.78-0.9-1.95-0.38-2.88
				c0.44-0.79,1.3-1.29,2.23-1.29c0.18,0,0.36,0.02,0.54,0.06l29.96,6.23c1.19,0.25,2.03,1.28,2.01,2.46v14.57
				c2.57,0.96,4.27,3.36,4.28,6.04v4.42c0.01,2.71-1.71,5.12-4.3,6.08C213.33,70.12,202.91,79.44,190.53,79.44z M168.98,53.66
				c1.41,0,2.59,1.07,2.68,2.44c0,10.12,8.46,18.33,18.86,18.33s18.86-8.21,18.86-18.3c0-1.36,1.14-2.46,2.54-2.46
				c0.92,0,1.68-0.69,1.74-1.57l0-4.42c0-0.85-0.71-1.54-1.59-1.54h-0.15c-1.4,0-2.54-1.1-2.54-2.46c-0.28-4.44-4.11-7.93-8.71-7.93
				c-0.16,0-0.33,0-0.5,0.01c-1.43,0.11-2.84,0.45-4.17,1.01c-1.7,0.73-3.51,1.1-5.38,1.1c-1.86,0-3.68-0.37-5.38-1.1
				c-1.44-0.58-2.96-0.92-4.53-1.01c-0.12-0.01-0.25-0.01-0.38-0.01c-4.6,0-8.41,3.49-8.67,7.95c0,1.34-1.14,2.44-2.54,2.44
				c-0.92,0-1.68,0.69-1.74,1.57l0,4.42C167.39,52.97,168.1,53.66,168.98,53.66L168.98,53.66z M200.12,30.82
				c3.36,0,6.62,1.09,9.27,3.08v-4.85l-20.64-4.29c0.04,0.39-0.01,0.78-0.16,1.15c-0.39,0.93-1.31,1.53-2.34,1.53h-6.21l-8.38,1.63
				v4.8c2.6-1.97,5.82-3.05,9.14-3.05h0.09c2.22,0.11,4.37,0.59,6.4,1.42c1.03,0.43,2.12,0.64,3.24,0.64c1.21,0,2.38-0.25,3.48-0.74
				c1.92-0.76,3.93-1.21,5.99-1.32L200.12,30.82z"/>
		</g>
		<g>
			<path class="st3" d="M216.14,124.4c-0.9-0.01-1.74-0.48-2.19-1.23c-1.44-2.76-2.43-5.69-2.96-8.73
				c-0.17-0.72,0.02-1.49,0.51-2.07c2.26-2.38,4.92-4.26,7.93-5.61c0.33-0.15,0.68-0.22,1.04-0.22s0.71,0.07,1.04,0.22
				c3.01,1.35,5.68,3.23,7.92,5.59c0.51,0.61,0.7,1.37,0.52,2.11c-0.52,3.01-1.52,5.94-2.94,8.69c-0.46,0.77-1.3,1.25-2.19,1.25h0
				H216.14z M223.23,119.47c0.63-1.55,1.13-3.17,1.48-4.79c-1.28-1.14-2.7-2.13-4.23-2.94c-1.53,0.81-2.95,1.8-4.23,2.94
				c0.35,1.63,0.85,3.24,1.48,4.79H223.23z"/>
		</g>
		<g>
			<path class="st3" d="M220.57,139.62c-8.07,0-15.53-3.9-19.98-10.43c-5.6-8.5-5.04-19.53,1.39-27.45
				c4.62-5.29,11.36-8.43,18.49-8.62c7.34,0.07,14.19,3.29,18.79,8.82c6.2,7.89,6.71,18.84,1.29,27.24
				C236.11,135.72,228.64,139.62,220.57,139.62z M217.23,134.42c1.07,0.18,2.15,0.28,3.24,0.28c1.08,0,2.17-0.09,3.24-0.28
				c0.59-2.79,1.6-5.46,3.01-7.95c0.38-0.61,1-1.04,1.69-1.19c1.81-0.34,3.64-0.5,5.47-0.5c1.08,0,2.17,0.06,3.25,0.18
				c1-1.88,1.65-3.88,1.94-5.98c-2.55-1.4-4.86-3.16-6.86-5.24c-0.48-0.52-0.71-1.21-0.64-1.9c0.36-2.84,1.15-5.59,2.36-8.19
				c-1.48-1.53-3.19-2.79-5.11-3.76c-2.16,1.91-4.59,3.49-7.24,4.7c-0.33,0.15-0.68,0.22-1.05,0.22c-0.36,0-0.71-0.07-1.04-0.22
				c-2.66-1.21-5.09-2.79-7.25-4.71c-1.96,0.96-3.72,2.22-5.23,3.76c1.21,2.6,2.01,5.35,2.36,8.18c0.07,0.69-0.16,1.39-0.63,1.9
				c-2.01,2.09-4.31,3.85-6.86,5.25c0.29,2.09,0.94,4.1,1.94,5.98c1.08-0.12,2.17-0.18,3.25-0.18c1.83,0,3.66,0.17,5.46,0.5
				c0.71,0.16,1.32,0.58,1.7,1.18C215.63,128.96,216.64,131.63,217.23,134.42z M207.56,129.66c1.2,1.08,2.53,1.99,3.97,2.73
				c-0.31-0.86-0.67-1.71-1.09-2.52C209.49,129.75,208.52,129.68,207.56,129.66z M230.7,129.87c-0.4,0.8-0.76,1.62-1.06,2.45
				c1.37-0.73,2.63-1.62,3.78-2.66C232.51,129.69,231.6,129.76,230.7,129.87z M203.47,108.62c-0.69,1.38-1.19,2.83-1.49,4.34
				c0.74-0.55,1.46-1.14,2.14-1.77C203.94,110.32,203.73,109.46,203.47,108.62z M236.96,111.18c0.68,0.6,1.39,1.17,2.12,1.69
				c-0.31-1.53-0.82-3.01-1.52-4.41C237.31,109.36,237.11,110.27,236.96,111.18z M218.09,98.2c0.78,0.51,1.58,0.98,2.4,1.41
				c0.82-0.42,1.62-0.89,2.4-1.41c-0.79-0.1-1.6-0.15-2.4-0.15S218.88,98.1,218.09,98.2z"/>
		</g>
	</g>
	<g class="st138">
		<g>
			<path class="st3" d="M286.93,142.23c-1.85,0-3.73-0.68-5.47-2c-5.76-4.37-8.96-14.83-7.28-23.8c0.89-4.76,2.97-7.87,6.17-9.26
				c6.79-3.1,13.58-5.33,18.12-5.95c2.5-0.34,4.72-0.04,6.6,0.91c6.44,3.25,26.09,20.01,26.93,20.72c0.78,0.67,0.86,1.82,0.17,2.58
				c-0.69,0.76-1.88,0.83-2.66,0.16c-0.2-0.17-20.14-17.18-26.17-20.22c-1.18-0.6-2.59-0.77-4.33-0.53
				c-4.19,0.58-10.58,2.69-17.08,5.66c-2.06,0.89-3.36,3.04-4.03,6.59c-1.41,7.5,1.29,16.78,5.89,20.27c1.55,1.18,3.04,1.51,4.42,1
				c2.22-0.82,3.99-3.69,4.74-7.68c0.17-0.92,0.32-2.88,0.37-3.56c0.04-0.6,0.38-1.14,0.91-1.45c0.53-0.31,1.19-0.35,1.75-0.1
				l16.63,7.37l0.2-2.63c-3.05-2.18-14.08-9.93-24.35-15.34c-0.91-0.48-1.25-1.59-0.76-2.48s1.64-1.22,2.56-0.74
				c12.25,6.45,25.51,16.13,25.64,16.22c0.51,0.37,0.79,0.97,0.74,1.59l-0.47,6.25c-0.05,0.6-0.39,1.14-0.92,1.44
				s-1.18,0.34-1.74,0.09l-16.67-7.38c-0.06,0.5-0.12,0.98-0.19,1.36c-1,5.34-3.59,9.14-7.11,10.44
				C288.7,142.08,287.82,142.23,286.93,142.23z"/>
		</g>
		<g>
			<path class="st3" d="M314.77,131.26c-0.79,0-1.52-0.48-1.79-1.25c-0.33-0.96,0.2-1.99,1.18-2.32l15.98-5.21
				c0.99-0.32,2.06,0.19,2.39,1.15c0.33,0.96-0.2,2-1.18,2.32l-15.98,5.21C315.17,131.23,314.97,131.26,314.77,131.26z"/>
		</g>
		<g>
			<path class="st3" d="M314.29,137.51c-0.79,0-1.52-0.48-1.79-1.25c-0.33-0.96,0.2-2,1.19-2.32l15.98-5.21
				c0.99-0.32,2.05,0.19,2.39,1.15c0.33,0.96-0.2,1.99-1.19,2.32l-15.98,5.21C314.7,137.48,314.49,137.51,314.29,137.51z"/>
		</g>
		<g>
			<path class="st3" d="M289.09,141.79c-0.78,0-1.51-0.47-1.78-1.23c-0.34-0.95,0.18-2,1.16-2.33l12.96-4.38
				c0.99-0.33,2.06,0.17,2.4,1.12c0.34,0.95-0.18,2-1.16,2.33l-12.96,4.38C289.51,141.76,289.3,141.79,289.09,141.79z"/>
		</g>
		<g>
			<path class="st3" d="M304.58,117.77c-0.77,0-1.49-0.46-1.77-1.2c-0.36-0.95,0.14-2,1.12-2.35l5.6-1.99
				c0.97-0.34,2.06,0.14,2.42,1.09c0.36,0.95-0.15,2-1.12,2.35l-5.6,1.99C305.02,117.74,304.8,117.77,304.58,117.77z"/>
		</g>
		<g>
			<path class="st3" d="M283.5,108.65c-3.55,0-6.43-2.8-6.43-6.24c0-3.44,2.89-6.24,6.43-6.24c3.55,0,6.44,2.8,6.44,6.24
				C289.94,105.85,287.05,108.65,283.5,108.65z M283.5,99.82c-1.47,0-2.66,1.16-2.66,2.59c0,1.43,1.2,2.59,2.66,2.59
				c1.47,0,2.67-1.16,2.67-2.59C286.17,100.98,284.97,99.82,283.5,99.82z"/>
		</g>
	</g>
	<g class="st138">
		<path class="st3" d="M98.59,130.68c-1.32,0-2.56-0.81-3.02-2.09c-0.57-1.62,0.32-3.38,1.98-3.93
			c10.75-3.58,16.61-14.16,16.66-14.27c0.82-1.51,2.75-2.09,4.31-1.3c1.56,0.79,2.16,2.66,1.35,4.17
			c-0.28,0.52-7.04,12.86-20.25,17.26C99.28,130.62,98.94,130.68,98.59,130.68z"/>
	</g>
	<g class="st138">
		<path class="st3" d="M109.99,141.84c-1.32,0-2.56-0.81-3.02-2.09c-0.57-1.62,0.32-3.38,1.98-3.93
			c10.75-3.58,16.61-14.16,16.66-14.27c0.82-1.51,2.75-2.09,4.31-1.3c1.56,0.79,2.16,2.66,1.35,4.17
			c-0.28,0.52-7.04,12.86-20.25,17.26C110.69,141.79,110.34,141.84,109.99,141.84z"/>
	</g>
	<g class="st138">
		<g>
			<path class="st3" d="M946,183.8c-6.49,0-11.77-5.13-11.77-11.43c0-6.3,5.28-11.43,11.77-11.43c6.49,0,11.77,5.13,11.77,11.43
				C957.77,178.68,952.49,183.8,946,183.8z M946,167.22c-2.93,0-5.32,2.32-5.32,5.16c0,2.85,2.39,5.16,5.32,5.16
				c2.93,0,5.32-2.32,5.32-5.16C951.31,169.53,948.93,167.22,946,167.22z"/>
		</g>
	</g>
	<g class="st138">
		<g>
			<path class="st3" d="M979.49,166.45c-8.85,0-16.05-6.99-16.05-15.58c0-8.59,7.2-15.58,16.05-15.58s16.05,6.99,16.05,15.58
				C995.54,159.46,988.34,166.45,979.49,166.45z M979.49,143.84c-4,0-7.25,3.16-7.25,7.04c0,3.88,3.25,7.04,7.25,7.04
				c4,0,7.25-3.16,7.25-7.04C986.74,146.99,983.49,143.84,979.49,143.84z"/>
		</g>
	</g>
	<g class="st138">
		<g>
			<path class="st3" d="M1194.67,106.3c-4.2,0-7.75-0.96-10.17-2.84c-1.89-1.47-2.88-3.42-2.73-5.36c0.35-4.45,4.36-5.23,9.43-6.21
				c2-0.39,4.26-0.82,6.96-1.52c7.57-1.95,15.44,5.08,16.31,5.89c1.04,0.96,1.08,2.56,0.09,3.57c-0.99,1.01-2.64,1.04-3.68,0.08
				c-1.8-1.65-7.34-5.71-11.38-4.66c-2.86,0.74-5.31,1.21-7.28,1.59c-2.15,0.42-4.83,0.94-5.22,1.42l0,0c0,0-0.03,0.06-0.04,0.21
				c-0.01,0.13,0.17,0.55,0.8,1.04c2.13,1.66,7.54,2.74,15.77,0.33c1.37-0.41,2.83,0.35,3.24,1.68c0.42,1.33-0.36,2.74-1.73,3.15
				C1201.34,105.76,1197.82,106.3,1194.67,106.3z"/>
		</g>
		<g>
			<path class="st3" d="M1206.9,124.89c-0.79,0-1.58-0.35-2.09-1.02c-8.73-11.42-6.55-20.94-6.45-21.34
				c0.33-1.36,1.73-2.19,3.13-1.88c1.39,0.32,2.26,1.67,1.94,3.02c-0.08,0.35-1.63,7.78,5.56,17.18c0.86,1.12,0.62,2.7-0.54,3.53
				C1207.98,124.73,1207.44,124.89,1206.9,124.89z"/>
		</g>
		<g>
			<path class="st3" d="M1197.56,120.42c-2.05,0-3.82-0.81-4.84-2.28c-0.23-0.33-0.93-1.33-3.59-6.36c-0.66-1.24-0.15-2.76,1.12-3.4
				c1.28-0.64,2.85-0.15,3.5,1.09c2.19,4.14,2.99,5.43,3.27,5.83c0.07,0.04,0.65,0.17,1.5-0.09c0.86-0.27,1.43-0.77,1.56-1.13
				c0.45-1.32,1.92-2.04,3.29-1.6c1.36,0.44,2.1,1.87,1.65,3.19c-0.94,2.76-3.87,4.33-6.35,4.67
				C1198.29,120.4,1197.92,120.42,1197.56,120.42z"/>
		</g>
		<g>
			<path class="st3" d="M1189.21,126.04c-2.25,0-4.49-0.98-6.26-2.83c-3.84-4.04-12.34-19.45-13.29-21.2
				c-0.68-1.23-0.19-2.76,1.08-3.41c1.27-0.66,2.84-0.19,3.52,1.04c2.51,4.58,9.66,17.13,12.53,20.15c1.14,1.2,2.47,1.52,3.66,0.89
				c1.03-0.54,2.02-1.92,1.46-4.01c-0.36-1.35,0.47-2.73,1.86-3.08c1.39-0.36,2.81,0.46,3.17,1.8c1.07,3.98-0.54,7.88-4,9.72
				C1191.75,125.74,1190.48,126.04,1189.21,126.04z"/>
		</g>
		<g>
			<path class="st3" d="M1216.75,137.61h-34.72c-1.44,0-2.6-1.13-2.6-2.52c0-1.39,1.16-2.52,2.6-2.52h32.4
				c1.13-10.02,1.49-18.03,0.95-21.69c-0.35-2.42-3.26-8.4-5-11.6c-0.06-0.11-0.11-0.21-0.15-0.33
				c-3.18-8.55-11.69-31.28-12.91-33.78c-0.8-1.65-2.75-1.51-3.67-1.2c-0.7,0.23-2.27,0.98-1.82,2.96
				c0.72,3.15,5.68,20.12,5.73,20.29c0.32,1.1-0.15,2.26-1.16,2.85c-1.01,0.59-2.29,0.45-3.14-0.33c-1.82-1.68-4.09-2.27-6.09-1.58
				c-1.8,0.62-2.99,2.21-3.26,4.34c-0.1,0.79-0.58,1.49-1.3,1.89c-0.72,0.4-1.59,0.43-2.34,0.11c-1.38-0.59-3.31-1.06-4.66,0.08
				c-1.32,1.11-1.8,3.41-1.17,5.59c0.25,0.86,0.01,1.79-0.63,2.43c-0.64,0.64-1.59,0.91-2.48,0.7c-1.68-0.39-3.32,0.07-4.4,1.24
				c-1.03,1.12-1.29,2.65-0.7,4.21c1.46,3.9,6.82,10.19,10.03,13.95c0.79,0.93,1.5,1.76,2.06,2.44c1.24,1.51,2.88,1.01,3.57,0.53
				c1.09-0.76,1.17-1.97,0.22-3.4c-0.78-1.17-0.43-2.74,0.78-3.49c1.21-0.75,2.82-0.41,3.59,0.76c2.85,4.3,1.18,8.32-1.57,10.23
				c-2.92,2.02-7.65,2.19-10.67-1.49c-0.54-0.66-1.23-1.46-1.99-2.36c-3.86-4.53-9.14-10.72-10.91-15.44
				c-1.24-3.31-0.6-6.78,1.71-9.3c1.54-1.67,3.64-2.71,5.9-2.98c0-2.95,1.15-5.67,3.25-7.44c1.96-1.65,4.52-2.24,7.29-1.75
				c1.09-2.64,3.18-4.65,5.91-5.6c1.78-0.62,3.67-0.72,5.52-0.37c-1.55-5.35-3.71-12.9-4.19-15.01c-0.88-3.88,1.26-7.51,5.21-8.82
				c3.5-1.16,8.08-0.22,10.05,3.82c1.53,3.13,11.61,30.2,13.05,34.07c0.8,1.47,4.9,9.2,5.47,13.1c0.87,6.02-0.38,18.38-1.2,25.21
				C1219.19,136.65,1218.08,137.61,1216.75,137.61z"/>
		</g>
	</g>
	<linearGradient id="SVGID_2_" gradientUnits="userSpaceOnUse" x1="-3.514" y1="201.3806" x2="1403.514" y2="28.6193">
		<stop  offset="0" style="stop-color:#F0813A"/>
		<stop  offset="0.1085" style="stop-color:#DD612A"/>
		<stop  offset="0.2404" style="stop-color:#CC441C"/>
		<stop  offset="0.3836" style="stop-color:#BE2F13"/>
		<stop  offset="0.5416" style="stop-color:#B51F0E"/>
		<stop  offset="0.726" style="stop-color:#B0130B"/>
		<stop  offset="1" style="stop-color:#AE0F0A"/>
	</linearGradient>
	<rect x="0" style="opacity:0.8;fill:url(#SVGID_2_);" width="1400" height="230"/>
	<g>
		<path class="st3" d="M55.13,188.34c0,3.24-1.2,5.8-3.61,7.66c-2.4,1.87-5.75,2.8-10.04,2.8c-3.95,0-7.44-0.72-10.48-2.16v-7.07
			c2.5,1.08,4.61,1.84,6.34,2.28c1.73,0.44,3.31,0.66,4.75,0.66c1.72,0,3.04-0.32,3.96-0.96c0.92-0.64,1.38-1.59,1.38-2.85
			c0-0.7-0.2-1.33-0.61-1.88c-0.4-0.55-1-1.08-1.78-1.58c-0.78-0.51-2.38-1.32-4.8-2.43c-2.26-1.03-3.96-2.02-5.09-2.97
			c-1.13-0.95-2.03-2.06-2.71-3.32c-0.68-1.26-1.01-2.73-1.01-4.42c0-3.18,1.11-5.67,3.33-7.49c2.22-1.82,5.29-2.73,9.2-2.73
			c1.92,0,3.76,0.22,5.51,0.66c1.75,0.44,3.57,1.06,5.48,1.87l-2.53,5.92c-1.97-0.79-3.61-1.33-4.9-1.65
			c-1.29-0.31-2.56-0.47-3.81-0.47c-1.49,0-2.62,0.34-3.42,1.01c-0.79,0.67-1.19,1.55-1.19,2.63c0,0.67,0.16,1.26,0.48,1.75
			c0.32,0.5,0.83,0.98,1.53,1.45c0.7,0.47,2.36,1.31,4.97,2.52c3.46,1.61,5.83,3.21,7.11,4.83C54.49,184.02,55.13,186,55.13,188.34z
			"/>
		<path class="st3" d="M76.77,198.8c-3.32,0-5.93-1.17-7.82-3.51h-0.4c0.27,2.29,0.4,3.62,0.4,3.98v11.13h-7.72v-39.55h6.28
			l1.09,3.56h0.35c1.81-2.72,4.48-4.08,8.02-4.08c3.34,0,5.96,1.25,7.85,3.76c1.89,2.51,2.83,5.99,2.83,10.44
			c0,2.93-0.44,5.48-1.33,7.64c-0.89,2.16-2.15,3.81-3.78,4.94C80.91,198.24,78.98,198.8,76.77,198.8z M74.49,176.33
			c-1.91,0-3.3,0.57-4.18,1.71c-0.88,1.14-1.33,3.02-1.37,5.64v0.81c0,2.95,0.45,5.06,1.35,6.34s2.33,1.92,4.29,1.92
			c3.46,0,5.19-2.77,5.19-8.3c0-2.7-0.43-4.73-1.28-6.08C77.65,177.01,76.32,176.33,74.49,176.33z"/>
		<path class="st3" d="M119.75,184.53c0,4.47-1.21,7.97-3.64,10.49c-2.43,2.52-5.81,3.78-10.15,3.78c-2.72,0-5.11-0.58-7.19-1.73
			c-2.08-1.15-3.67-2.81-4.78-4.97s-1.67-4.68-1.67-7.57c0-4.49,1.21-7.97,3.62-10.46c2.41-2.49,5.8-3.73,10.17-3.73
			c2.72,0,5.11,0.57,7.19,1.72c2.08,1.15,3.67,2.79,4.78,4.94C119.19,179.14,119.75,181.65,119.75,184.53z M100.18,184.53
			c0,2.72,0.46,4.77,1.38,6.16c0.92,1.39,2.42,2.09,4.49,2.09c2.06,0,3.54-0.69,4.44-2.08c0.9-1.38,1.35-3.44,1.35-6.18
			c0-2.72-0.46-4.76-1.37-6.12c-0.91-1.36-2.4-2.04-4.48-2.04c-2.06,0-3.54,0.67-4.45,2.03
			C100.64,179.76,100.18,181.8,100.18,184.53z"/>
		<path class="st3" d="M141.92,170.34c1.05,0,1.91,0.07,2.61,0.22l-0.58,7.03c-0.62-0.16-1.38-0.25-2.28-0.25
			c-2.46,0-4.38,0.62-5.76,1.84c-1.38,1.23-2.06,2.95-2.06,5.16v13.98h-7.72v-27.46h5.85l1.14,4.62h0.38
			c0.88-1.54,2.06-2.78,3.56-3.72C138.54,170.81,140.16,170.34,141.92,170.34z"/>
		<path class="st3" d="M161.59,192.84c1.35,0,2.97-0.29,4.86-0.86v5.58c-1.92,0.84-4.29,1.25-7.09,1.25c-3.09,0-5.34-0.76-6.75-2.27
			c-1.41-1.51-2.11-3.79-2.11-6.82v-13.24h-3.7v-3.17l4.25-2.5l2.23-5.8h4.94v5.85h7.92v5.63h-7.92v13.24
			c0,1.07,0.31,1.85,0.92,2.36C159.76,192.58,160.57,192.84,161.59,192.84z"/>
		<path class="st3" d="M197.88,184.53c0,4.47-1.21,7.97-3.64,10.49c-2.43,2.52-5.81,3.78-10.15,3.78c-2.72,0-5.11-0.58-7.19-1.73
			c-2.08-1.15-3.67-2.81-4.78-4.97c-1.11-2.16-1.67-4.68-1.67-7.57c0-4.49,1.21-7.97,3.62-10.46c2.41-2.49,5.8-3.73,10.17-3.73
			c2.72,0,5.11,0.57,7.19,1.72c2.08,1.15,3.67,2.79,4.78,4.94C197.32,179.14,197.88,181.65,197.88,184.53z M178.32,184.53
			c0,2.72,0.46,4.77,1.38,6.16c0.92,1.39,2.42,2.09,4.49,2.09c2.06,0,3.54-0.69,4.44-2.08c0.9-1.38,1.35-3.44,1.35-6.18
			c0-2.72-0.46-4.76-1.37-6.12c-0.91-1.36-2.4-2.04-4.48-2.04c-2.06,0-3.54,0.67-4.45,2.03
			C178.77,179.76,178.32,181.8,178.32,184.53z"/>
		<path class="st3" d="M227.52,198.31l-2.18-9.6l-2.94-12.13h-0.18l-5.16,21.74h-8.3l-8.05-27.46h7.69l3.26,12.16
			c0.52,2.18,1.05,5.18,1.59,9.01h0.15c0.07-1.24,0.36-3.22,0.89-5.92l0.4-2.09l3.49-13.17h8.5l3.32,13.17
			c0.07,0.36,0.17,0.89,0.32,1.6c0.14,0.7,0.28,1.45,0.42,2.25c0.13,0.8,0.26,1.57,0.37,2.33c0.11,0.76,0.17,1.37,0.19,1.83h0.15
			c0.15-1.18,0.42-2.8,0.81-4.85c0.39-2.05,0.67-3.44,0.84-4.16l3.39-12.16h7.57l-8.15,27.46H227.52z"/>
		<path class="st3" d="M244.58,170.85h8.45l5.34,15.45c0.46,1.34,0.77,2.93,0.94,4.76h0.15c0.19-1.69,0.55-3.28,1.09-4.76
			l5.24-15.45h8.28l-11.97,30.97c-1.1,2.86-2.66,5.01-4.7,6.43c-2.03,1.43-4.41,2.14-7.12,2.14c-1.33,0-2.64-0.14-3.92-0.42v-5.94
			c0.93,0.21,1.94,0.32,3.04,0.32c1.37,0,2.56-0.41,3.58-1.22c1.02-0.81,1.82-2.03,2.39-3.67l0.46-1.35L244.58,170.85z"/>
		<path class="st3" d="M303.9,198.8c-4.24,0-7.32-1.54-9.26-4.62h-0.18l0.08,2.06c0.07,1.21,0.1,2.54,0.1,3.98v10.17h-2.51v-38.78
			h2.13l0.48,3.81h0.15c1.89-2.88,4.91-4.32,9.06-4.32c3.71,0,6.54,1.18,8.49,3.55c1.95,2.37,2.92,5.81,2.92,10.33
			c0,4.39-1.02,7.79-3.08,10.21C310.24,197.6,307.45,198.8,303.9,198.8z M303.85,196.64c2.82,0,5-1.02,6.54-3.05
			c1.54-2.03,2.32-4.87,2.32-8.52c0-7.84-2.92-11.77-8.76-11.77c-3.21,0-5.56,0.86-7.06,2.57c-1.5,1.71-2.25,4.5-2.25,8.36v0.79
			c0,4.17,0.72,7.16,2.16,8.94C298.25,195.75,300.6,196.64,303.85,196.64z"/>
		<path class="st3" d="M322.63,164.2c0-1.57,0.53-2.36,1.59-2.36c0.52,0,0.93,0.2,1.23,0.61c0.29,0.41,0.44,0.99,0.44,1.74
			c0,0.74-0.15,1.32-0.44,1.74c-0.3,0.43-0.7,0.64-1.23,0.64C323.16,166.58,322.63,165.78,322.63,164.2z M325.49,198.31h-2.51v-26.7
			h2.51V198.31z"/>
		<path class="st3" d="M349.64,204.41c0,1.8,0.89,2.7,2.68,2.7c0.83,0,1.52-0.1,2.08-0.29v2.06c-0.68,0.26-1.55,0.39-2.63,0.39
			c-1.42,0-2.54-0.39-3.38-1.17c-0.83-0.78-1.25-1.88-1.25-3.3c0-1.15,0.34-2.28,1.01-3.41c0.64-1.1,1.71-2.23,3.21-3.39l-0.58-3.91
			h-0.2c-1.38,1.72-2.81,2.94-4.26,3.65c-1.46,0.71-3.18,1.07-5.18,1.07c-2.7,0-4.8-0.67-6.3-2.01c-1.5-1.34-2.25-3.2-2.25-5.57
			c0-2.6,1.12-4.63,3.35-6.07c2.24-1.44,5.47-2.2,9.71-2.28l5.24-0.15v-1.77c0-2.54-0.53-4.45-1.59-5.75
			c-1.06-1.29-2.78-1.94-5.14-1.94c-2.55,0-5.19,0.69-7.92,2.06l-0.94-2.11c3.02-1.38,6.01-2.06,8.96-2.06
			c3.02,0,5.28,0.76,6.77,2.29c1.49,1.52,2.24,3.9,2.24,7.12v17.76c-1.21,1.03-2.12,2.01-2.72,2.94
			C349.94,202.17,349.64,203.23,349.64,204.41z M341.29,196.59c2.94,0,5.25-0.81,6.95-2.44c1.7-1.63,2.54-3.89,2.54-6.79v-2.63
			l-4.81,0.2c-3.86,0.18-6.62,0.76-8.26,1.75c-1.64,0.99-2.47,2.53-2.47,4.63c0,1.67,0.53,2.97,1.58,3.89
			C337.87,196.13,339.36,196.59,341.29,196.59z"/>
		<path class="st3" d="M369.43,196.64c1.59,0,2.97-0.13,4.15-0.39v1.97c-1.21,0.39-2.62,0.59-4.2,0.59c-2.43,0-4.22-0.63-5.38-1.89
			c-1.16-1.26-1.73-3.24-1.73-5.94v-17.24h-4.07v-1.43l4.07-1.1l1.27-6.04h1.29v6.46h8.07v2.11h-8.07v16.9
			c0,2.05,0.37,3.56,1.11,4.54C366.68,196.15,367.84,196.64,369.43,196.64z"/>
		<path class="st3" d="M390.64,198.8c-4,0-7.12-1.2-9.35-3.59c-2.24-2.39-3.35-5.74-3.35-10.05c0-4.26,1.08-7.67,3.24-10.23
			c2.16-2.56,5.07-3.84,8.73-3.84c3.24,0,5.8,1.1,7.67,3.29c1.87,2.19,2.81,5.18,2.81,8.94v1.97h-19.82
			c0.03,3.67,0.92,6.47,2.65,8.4c1.73,1.93,4.21,2.9,7.43,2.9c1.57,0,2.95-0.11,4.14-0.32c1.19-0.21,2.7-0.67,4.52-1.38v2.21
			c-1.55,0.65-2.99,1.1-4.3,1.34C393.68,198.69,392.23,198.8,390.64,198.8z M389.91,173.26c-2.65,0-4.78,0.85-6.38,2.54
			c-1.6,1.69-2.54,4.14-2.81,7.33h17.01c0-3.09-0.69-5.51-2.08-7.26C394.27,174.13,392.35,173.26,389.91,173.26z"/>
		<path class="st3" d="M410.43,186.6l14.05-14.98h3.04l-10.83,11.4l11.77,15.3h-3.01l-10.45-13.48l-4.51,3.98v9.51h-2.51v-38.22
			h2.51v19.16l-0.18,7.34H410.43z"/>
	</g>
</g>
</svg>
