<?xml version="1.0" encoding="utf-8"?>
<!-- Generator: Adobe Illustrator 24.2.1, SVG Export Plug-In . SVG Version: 6.00 Build 0)  -->
<svg version="1.1" id="Warstwa_1" xmlns="http://www.w3.org/2000/svg" xmlns:xlink="http://www.w3.org/1999/xlink" x="0px" y="0px"
	 viewBox="0 0 400 400" style="enable-background:new 0 0 400 400;" xml:space="preserve">
<style type="text/css">
	.st0{opacity:0.8;fill:url(#SVGID_1_);}
	.st1{fill:#FFFFFF;}
	.st2{opacity:0.8;fill:url(#SVGID_2_);}
	.st3{fill:url(#SVGID_3_);}
	.st4{fill:url(#SVGID_4_);}
	.st5{fill:url(#SVGID_5_);}
	.st6{fill:url(#SVGID_6_);}
	.st7{fill:url(#SVGID_7_);}
	.st8{fill:url(#SVGID_8_);}
	.st9{fill:url(#SVGID_9_);}
	.st10{fill:url(#SVGID_10_);}
	.st11{fill:url(#SVGID_11_);}
	.st12{fill:url(#SVGID_12_);}
	.st13{fill:url(#SVGID_13_);}
	.st14{fill:url(#SVGID_14_);}
	.st15{fill:url(#SVGID_15_);}
	.st16{fill:url(#SVGID_16_);}
	.st17{fill:url(#SVGID_17_);}
	.st18{fill:url(#SVGID_18_);}
	.st19{fill:url(#SVGID_19_);}
	.st20{fill:url(#SVGID_20_);}
	.st21{fill:url(#SVGID_21_);}
	.st22{fill:url(#SVGID_22_);}
	.st23{fill:url(#SVGID_23_);}
	.st24{fill:url(#SVGID_24_);}
	.st25{fill:url(#SVGID_25_);}
	.st26{opacity:0.8;fill:url(#SVGID_26_);}
	.st27{fill:url(#SVGID_27_);}
	.st28{fill:url(#SVGID_28_);}
	.st29{opacity:0.8;fill:url(#SVGID_29_);}
	.st30{opacity:0.9;}
	.st31{fill:url(#SVGID_30_);}
	.st32{opacity:0.8;fill:url(#SVGID_31_);}
	.st33{opacity:0.8;}
	.st34{fill:url(#SVGID_32_);}
	.st35{opacity:0.8;fill:url(#SVGID_33_);}
	.st36{fill:url(#SVGID_34_);}
	.st37{fill:url(#SVGID_35_);}
	.st38{opacity:0.9;fill:url(#SVGID_36_);}
</style>
<linearGradient id="SVGID_1_" gradientUnits="userSpaceOnUse" x1="25" y1="200" x2="375" y2="200">
	<stop  offset="0" style="stop-color:#EF803A"/>
	<stop  offset="0.1936" style="stop-color:#D95E3A"/>
	<stop  offset="0.4082" style="stop-color:#C53F39"/>
	<stop  offset="0.618" style="stop-color:#B72939"/>
	<stop  offset="0.8186" style="stop-color:#AF1C39"/>
	<stop  offset="1" style="stop-color:#AC1739"/>
</linearGradient>
<circle style="fill:url(#SVGID_1_);" cx="200" cy="200" r="175"/>
<g>
	<path class="st1" d="M200,75c-0.24,0-0.51,0.02-0.76,0.02h-0.04c-0.04,0-0.06,0-0.1,0c-2.46,0.02-4.92,0.12-7.34,0.29
		c-0.47,0.02-0.92,0.06-1.36,0.1c-2.14,0.16-4.25,0.39-6.34,0.65c-0.45,0.04-0.87,0.1-1.3,0.16c-5.05,0.69-9.99,1.69-14.81,2.97
		c-0.1,0.02-0.22,0.04-0.35,0.08l-1.46,0.39l-0.04,0.06c-27.71,7.81-51.53,24.98-67.87,47.85l-0.1,0.02l-1.06,1.53
		c-0.2,0.28-0.36,0.59-0.57,0.89c-1.22,1.79-2.38,3.63-3.52,5.47c-0.53,0.9-1.02,1.79-1.53,2.69c-0.77,1.36-1.53,2.72-2.26,4.11
		c-0.43,0.81-0.85,1.65-1.28,2.5c-1.08,2.18-2.12,4.37-3.07,6.64c-0.02,0.06-0.04,0.14-0.08,0.2c-0.97,2.32-1.87,4.68-2.7,7.08
		c-0.17,0.51-0.35,1.02-0.51,1.53c-0.76,2.22-1.44,4.46-2.06,6.73c-0.08,0.24-0.14,0.47-0.2,0.71c-1.38,5.17-2.44,10.48-3.15,15.89
		c-0.06,0.36-0.1,0.75-0.14,1.12c-0.33,2.62-0.59,5.24-0.73,7.91c0,0,0,0.02-0.02,0.02v0.02C75.1,195.08,75,197.54,75,200
		c0,33.22,13.06,63.46,34.28,85.88l0.02,0.1l1.1,1.14c0.34,0.36,0.71,0.69,1.08,1.04c0.34,0.36,0.71,0.69,1.08,1.06
		c2.34,2.3,4.76,4.49,7.28,6.59c0.24,0.22,0.49,0.43,0.73,0.65c0.9,0.73,1.79,1.42,2.71,2.11c0.89,0.71,1.79,1.4,2.7,2.07
		c0.81,0.59,1.63,1.18,2.44,1.75c1.1,0.76,2.18,1.51,3.3,2.22c0.73,0.49,1.46,0.96,2.19,1.42c1.3,0.82,2.62,1.59,3.95,2.36
		c0.61,0.35,1.2,0.69,1.81,1.04c1.85,1.02,3.72,1.99,5.61,2.93c0.13,0.06,0.22,0.12,0.34,0.18c2.08,1,4.17,1.93,6.31,2.83
		c0.43,0.19,0.87,0.35,1.3,0.53c1.69,0.67,3.38,1.32,5.11,1.93c0.2,0.08,0.41,0.16,0.63,0.24l1.48,0.51l0.06-0.02
		c12.41,4.15,25.68,6.43,39.47,6.43c68.93,0,125-56.07,125-125C325,131.07,268.93,75,200,75L200,75z M314.99,194.41l-35.46-21.53
		l5.78-39.04l10.15,1.32C307.26,152.76,313.99,173.19,314.99,194.41L314.99,194.41z M199.8,119.92l-35.65-22.85l7.06-10.13
		c2.16-0.55,4.33-1.02,6.53-1.44c0.39-0.08,0.77-0.15,1.18-0.22c1.83-0.33,3.66-0.61,5.49-0.87c0.47-0.06,0.94-0.12,1.4-0.17
		c1.83-0.22,3.68-0.41,5.52-0.55c0.43-0.02,0.83-0.06,1.24-0.08c2.16-0.14,4.33-0.22,6.49-0.24c0.06,0,0.13,0,0.18,0
		c8.89,0.04,17.74,1.12,26.31,3.14l6.24,8.95L199.8,119.92z M83.69,191.33c0.16-2.11,0.36-4.21,0.63-6.29
		c0.06-0.35,0.1-0.71,0.14-1.06c0.65-4.78,1.61-9.5,2.85-14.14c0.06-0.29,0.17-0.57,0.24-0.85c0.53-1.93,1.12-3.86,1.75-5.78
		c0.18-0.53,0.34-1.04,0.53-1.57c0.63-1.79,1.3-3.56,2.01-5.33c0.19-0.43,0.33-0.85,0.51-1.28c0.85-2.02,1.75-4.01,2.72-6
		c0.35-0.73,0.76-1.44,1.12-2.18c0.63-1.22,1.26-2.42,1.93-3.62c0.51-0.92,1.04-1.85,1.57-2.75c0.59-0.99,1.22-1.97,1.83-2.95
		c0.47-0.71,0.92-1.46,1.4-2.18l11.76-1.53l5.78,39.04l-35.52,21.59l-1.3-2.48C83.65,191.76,83.67,191.54,83.69,191.33L83.69,191.33
		z M116.85,266.69l42.72-0.02l13.47,37.68l-12.82,5.33c-1.97-0.71-3.93-1.51-5.88-2.32c-0.14-0.06-0.28-0.14-0.43-0.2
		c-1.71-0.73-3.4-1.53-5.08-2.34c-0.49-0.24-0.96-0.49-1.45-0.76c-1.32-0.65-2.6-1.32-3.91-2.05c-0.61-0.33-1.22-0.69-1.83-1.04
		c-1.12-0.65-2.24-1.32-3.34-2.02c-0.69-0.43-1.36-0.87-2.05-1.32c-0.96-0.61-1.91-1.26-2.87-1.93c-0.76-0.53-1.53-1.08-2.28-1.63
		c-0.79-0.57-1.56-1.16-2.34-1.77c-0.85-0.67-1.73-1.32-2.58-2.02c-0.53-0.45-1.04-0.9-1.57-1.34c-2.46-2.09-4.86-4.27-7.14-6.55
		L116.85,266.69z M172.88,313.44l10.68-4.43l-17.46-48.77c1.36-0.14,2.65-0.91,3.3-2.23l1.87-3.72c1.02-2.08,0.19-4.58-1.87-5.59
		c-2.06-1.04-4.56-0.2-5.59,1.85l-1.85,3.74c-0.69,1.34-0.48,2.87,0.27,4.05l-54.06,0.02l0.57,14.2
		c-14.87-18.68-24.17-42.02-25.27-67.45l41.87-25.43l1.85,0.79c0.53,0.22,1.09,0.34,1.65,0.34c1.61,0,3.15-0.95,3.82-2.52
		c0.92-2.11-0.08-4.58-2.18-5.47l-1.69-0.73l-7.06-47.59l-11.9,1.57c12.71-15.48,29.33-27.61,48.32-34.93l-5.78,8.3l43.46,27.85
		v1.87c0,2.3,1.88,4.17,4.17,4.17s4.17-1.87,4.17-4.17v-2.09l39.04-29.84l-5.25-7.51c20.61,7.12,38.64,19.82,52.2,36.36l-11.9-1.57
		l-7.06,47.59l-1.69,0.71c-2.12,0.92-3.09,3.38-2.18,5.47c0.67,1.59,2.21,2.52,3.82,2.52c0.55,0,1.12-0.1,1.65-0.32l1.85-0.79
		l41.87,25.41c-1.1,25.43-10.4,48.77-25.27,67.46l0.57-14.2l-49.89-0.02c0.75-1.18,0.93-2.7,0.26-4.05l-1.87-3.74
		c-1.02-2.05-3.52-2.89-5.59-1.85c-2.06,1.02-2.89,3.52-1.85,5.59l1.85,3.72c0.67,1.34,1.97,2.11,3.35,2.23l-21.97,48.65l10.98,4.56
		c-8.71,2.1-17.78,3.21-27.12,3.21S181.59,315.54,172.88,313.44L172.88,313.44z M244.35,266.67h38.82l-0.59,14.16
		c-12.16,12.63-27.16,22.48-43.49,28.56l-11.82-4.91L244.35,266.67z M244.35,266.67"/>
	<path class="st1" d="M227.3,243.09c0.73,1.47,2.2,2.3,3.74,2.3c0.61,0,1.26-0.14,1.85-0.43c2.06-1.04,2.89-3.54,1.85-5.59
		l-1.08-2.18l17.07-51.27l-49.68-36.14c1.77-0.48,3.11-2.03,3.11-3.94v-4.17c0-2.3-1.87-4.17-4.17-4.17s-4.17,1.87-4.17,4.17v4.17
		c0,1.91,1.34,3.46,3.11,3.94L149.14,186l20.39,53.15l-0.12,0.22c-1.02,2.05-0.18,4.56,1.87,5.59c0.59,0.29,1.24,0.43,1.85,0.43
		c1.53,0,3.01-0.83,3.74-2.3l0.71-1.42h49.01L227.3,243.09z M200,159.31l40.91,29.76l-14.75,44.25h-49.94l-17.01-44.33L200,159.31z
		 M200,159.31"/>
	<path class="st1" d="M145.8,179.37l-3.85-1.63c-2.11-0.92-4.56,0.06-5.47,2.18c-0.9,2.11,0.08,4.57,2.2,5.47l3.82,1.65
		c0.53,0.22,1.1,0.34,1.65,0.34c1.61,0,3.16-0.95,3.83-2.52C148.9,182.73,147.9,180.29,145.8,179.37L145.8,179.37z M145.8,179.37"/>
	<path class="st1" d="M255.85,187.36c0.55,0,1.12-0.1,1.65-0.32l3.82-1.65c2.12-0.9,3.09-3.35,2.2-5.47
		c-0.91-2.12-3.37-3.09-5.47-2.18l-3.85,1.63c-2.09,0.92-3.09,3.36-2.18,5.47C252.69,186.43,254.24,187.36,255.85,187.36
		L255.85,187.36z M255.85,187.36"/>
</g>
</svg>
