<?xml version="1.0" encoding="utf-8"?>
<!-- Generator: Adobe Illustrator 24.2.1, SVG Export Plug-In . SVG Version: 6.00 Build 0)  -->
<svg version="1.1" id="Warstwa_1" xmlns="http://www.w3.org/2000/svg" xmlns:xlink="http://www.w3.org/1999/xlink" x="0px" y="0px"
	 viewBox="0 0 400 400" style="enable-background:new 0 0 400 400;" xml:space="preserve">
<style type="text/css">
	.st0{opacity:0.8;fill:url(#SVGID_1_);}
	.st1{fill:#FFFFFF;}
	.st2{opacity:0.8;fill:url(#SVGID_2_);}
	.st3{fill:url(#SVGID_3_);}
	.st4{fill:url(#SVGID_4_);}
	.st5{fill:url(#SVGID_5_);}
	.st6{fill:url(#SVGID_6_);}
	.st7{fill:url(#SVGID_7_);}
	.st8{fill:url(#SVGID_8_);}
	.st9{fill:url(#SVGID_9_);}
	.st10{fill:url(#SVGID_10_);}
	.st11{fill:url(#SVGID_11_);}
	.st12{fill:url(#SVGID_12_);}
	.st13{fill:url(#SVGID_13_);}
	.st14{fill:url(#SVGID_14_);}
	.st15{fill:url(#SVGID_15_);}
	.st16{fill:url(#SVGID_16_);}
	.st17{fill:url(#SVGID_17_);}
	.st18{fill:url(#SVGID_18_);}
	.st19{fill:url(#SVGID_19_);}
	.st20{fill:url(#SVGID_20_);}
	.st21{fill:url(#SVGID_21_);}
	.st22{fill:url(#SVGID_22_);}
	.st23{fill:url(#SVGID_23_);}
	.st24{fill:url(#SVGID_24_);}
	.st25{fill:url(#SVGID_25_);}
	.st26{opacity:0.8;fill:url(#SVGID_26_);}
	.st27{fill:url(#SVGID_27_);}
	.st28{fill:url(#SVGID_28_);}
	.st29{opacity:0.8;fill:url(#SVGID_29_);}
	.st30{opacity:0.9;}
	.st31{fill:url(#SVGID_30_);}
	.st32{opacity:0.8;fill:url(#SVGID_31_);}
	.st33{opacity:0.8;}
	.st34{fill:url(#SVGID_32_);}
	.st35{opacity:0.8;fill:url(#SVGID_33_);}
	.st36{fill:url(#SVGID_34_);}
	.st37{fill:url(#SVGID_35_);}
	.st38{opacity:0.9;fill:url(#SVGID_36_);}
</style>
<linearGradient id="SVGID_1_" gradientUnits="userSpaceOnUse" x1="25" y1="200" x2="375" y2="200">
	<stop  offset="0" style="stop-color:#EF803A"/>
	<stop  offset="0.1936" style="stop-color:#D95E3A"/>
	<stop  offset="0.4082" style="stop-color:#C53F39"/>
	<stop  offset="0.618" style="stop-color:#B72939"/>
	<stop  offset="0.8186" style="stop-color:#AF1C39"/>
	<stop  offset="1" style="stop-color:#AC1739"/>
</linearGradient>
<circle style="fill:url(#SVGID_1_);" cx="200" cy="200" r="175"/>
<g>
	<path class="st1" d="M325,200c0-2.21-0.04-4.4-0.17-6.57c0-0.08,0-0.17-0.02-0.25c-0.72-13.26-3.53-25.98-8.08-37.85
		c-0.02-0.04-0.04-0.1-0.06-0.17c-0.72-1.88-1.5-3.73-2.3-5.58c-0.13-0.27-0.27-0.57-0.4-0.85c-0.7-1.56-1.43-3.11-2.21-4.65
		c-0.25-0.52-0.54-1.05-0.82-1.58c-0.63-1.24-1.28-2.46-1.96-3.66c-0.44-0.78-0.91-1.56-1.35-2.34c-0.53-0.88-1.07-1.77-1.62-2.65
		c-0.63-1.01-1.28-2.04-1.96-3.03c-0.38-0.54-0.74-1.09-1.12-1.64c-0.88-1.27-1.77-2.53-2.69-3.77c-0.13-0.17-0.25-0.36-0.4-0.52
		c-4.75-6.34-10.08-12.25-16.04-17.64l-1.64-1.49l-0.12,0.04C263.67,89.8,240.6,79.06,215.2,75.95l0.21-0.25l-8.19-0.48h-0.06
		C204.8,75.09,202.4,75,200,75c-68.93,0-125,56.07-125,125c0,2.19,0.06,4.36,0.17,6.52v0.02l0.48,9.39l0.36-0.33
		c3.15,25.25,13.87,48.18,29.8,66.45l-0.04,0.15l1.49,1.64c5.39,5.93,11.3,11.28,17.62,16.01c0.19,0.15,0.36,0.27,0.54,0.43
		c1.24,0.91,2.48,1.81,3.77,2.67c0.52,0.38,1.07,0.75,1.64,1.12c0.99,0.67,2.02,1.33,3.03,1.96c0.88,0.55,1.77,1.09,2.65,1.62
		c0.78,0.46,1.56,0.91,2.34,1.35c1.2,0.67,2.42,1.33,3.64,1.98c0.55,0.27,1.08,0.55,1.6,0.8c1.54,0.78,3.08,1.52,4.66,2.21l0.84,0.4
		c1.85,0.8,3.7,1.58,5.58,2.3c0.06,0.02,0.1,0.04,0.17,0.06c11.85,4.57,24.56,7.39,37.85,8.1c0.08,0,0.17,0,0.23,0
		c2.19,0.13,4.38,0.17,6.58,0.17c25.89,0,49.95-7.89,69.92-21.42c0.02,0,0.04-0.02,0.06-0.02l0.44-0.27
		c1.01-0.67,1.96-1.43,2.94-2.14c0.64-0.48,1.29-0.93,1.92-1.41c1.24-0.93,2.46-1.9,3.66-2.88c0.5-0.42,1.01-0.84,1.54-1.28
		c4-3.37,7.76-6.99,11.32-10.82c0.38-0.42,0.78-0.84,1.16-1.27c1.12-1.24,2.21-2.5,3.28-3.79c0.27-0.33,0.53-0.67,0.8-1.01
		c2.12-2.61,4.14-5.33,6.06-8.1c0.21-0.3,0.42-0.57,0.61-0.86c0.88-1.3,1.73-2.65,2.57-3.98c0.4-0.67,0.8-1.35,1.22-2.02
		c0.76-1.3,1.52-2.59,2.25-3.91c0.4-0.74,0.76-1.49,1.16-2.23c0.63-1.22,1.3-2.42,1.92-3.66l0.21-0.59c0.02,0,0.02-0.02,0.02-0.02
		C320.71,237.13,325,219.05,325,200L325,200z M314.98,218.04c-1.88-10.1-5.79-19.81-11.77-28.29
		c-12.62-17.89-32.08-28.27-54.77-29.21h-0.48c-17.53,1.2-31.42-3.92-40.06-14.4c21.53-14.31,45.71-24.94,71.67-30.94
		c3.58,3.37,6.97,6.92,10.1,10.71c0.08,0.09,0.15,0.17,0.21,0.23c1.05,1.3,2.09,2.61,3.09,3.96c0.21,0.27,0.42,0.57,0.65,0.86
		c0.84,1.16,1.67,2.31,2.46,3.49c0.4,0.55,0.78,1.14,1.14,1.71c0.63,0.92,1.22,1.87,1.83,2.82c0.55,0.93,1.09,1.85,1.64,2.78
		c0.38,0.65,0.75,1.28,1.12,1.93c0.73,1.35,1.45,2.72,2.14,4.11c0.15,0.27,0.27,0.52,0.42,0.8c7.79,15.85,12,33.42,12,51.4
		C316.4,206.15,315.91,212.17,314.98,218.04L314.98,218.04z M303.13,253.86c-0.34,0.63-0.65,1.27-0.99,1.88
		c-0.7,1.26-1.41,2.51-2.14,3.72c-0.34,0.59-0.7,1.16-1.06,1.75c-0.8,1.26-1.6,2.54-2.44,3.79c-0.06,0.1-0.15,0.21-0.21,0.31
		c-1.89,2.78-3.89,5.45-6.02,8.04c-0.21,0.27-0.42,0.57-0.65,0.82c-1.01,1.22-2.06,2.42-3.11,3.6c-0.32,0.36-0.65,0.72-0.97,1.07
		c-0.04,0.02-0.06,0.06-0.1,0.11l-16.63-20.23c-26.84-32.63-55.95-63.5-86.91-92.32c6-5.43,12.29-10.54,18.84-15.28
		c10.31,13.01,26.88,19.4,47.59,18.04c19.87,0.88,36.86,9.95,47.84,25.55c11.24,15.93,14.5,36.68,8.78,55.61
		C304.37,251.51,303.74,252.69,303.13,253.86L303.13,253.86z M273.6,290.08c-1.15,0.95-2.31,1.87-3.51,2.76
		c-0.53,0.4-1.05,0.78-1.58,1.16c-0.99,0.73-2,1.45-3.03,2.17c-19.74,10.17-42.81,9.7-61.86-1.27
		c-18.31-10.54-29.36-29.09-30.33-50.89c1.71-26.16-8.65-40.41-18.65-48.05c6.42-8.37,13.43-16.27,20.97-23.65
		c30.84,28.69,59.81,59.39,86.52,91.87l17.18,20.9c-1.47,1.37-2.97,2.72-4.5,4C274.41,289.41,274.01,289.75,273.6,290.08
		L273.6,290.08z M145.87,190.61c-19.15-8.97-43.99-6-62.17,6.71c0-0.57,0.02-1.14,0.04-1.7c0.04-0.95,0.09-1.88,0.13-2.82
		c0.06-1.01,0.15-2.04,0.23-3.05c0.08-0.93,0.17-1.85,0.27-2.78c0.13-1.01,0.25-2.02,0.38-3.01c0.12-0.93,0.27-1.83,0.42-2.72
		c0.15-1.01,0.33-2.02,0.52-3.01c0.17-0.88,0.34-1.77,0.53-2.65c0.21-0.99,0.44-1.98,0.7-2.97c0.21-0.86,0.42-1.72,0.63-2.59
		c0.27-0.97,0.55-1.94,0.84-2.9c0.25-0.87,0.48-1.71,0.76-2.53c0.32-0.97,0.65-1.93,0.99-2.88c0.27-0.82,0.57-1.64,0.86-2.46
		c0.36-0.95,0.73-1.9,1.12-2.82c0.33-0.8,0.65-1.6,0.99-2.38c0.4-0.95,0.82-1.85,1.27-2.78c0.36-0.78,0.72-1.56,1.07-2.31
		c0.46-0.91,0.93-1.81,1.41-2.72c0.38-0.76,0.78-1.5,1.17-2.23c0.48-0.91,1.01-1.79,1.54-2.68c0.42-0.71,0.82-1.43,1.26-2.14
		c0.55-0.88,1.12-1.75,1.66-2.61c0.46-0.67,0.91-1.37,1.36-2.06c0.57-0.84,1.18-1.69,1.79-2.51c0.48-0.67,0.94-1.35,1.45-2
		c0.61-0.82,1.26-1.62,1.9-2.42c0.5-0.65,1.01-1.29,1.54-1.92c0.67-0.8,1.35-1.58,2.04-2.35c0.52-0.61,1.05-1.22,1.6-1.83
		c0.33-0.36,0.67-0.69,1.01-1.03l11.6,9.39c14.53,11.74,28.67,23.99,42.47,36.62c-7.87,7.74-15.22,16.06-21.91,24.88
		C146.84,191.1,146.33,190.85,145.87,190.61L145.87,190.61z M142.16,198.4c-15.35,21.89-26.94,46.58-33.86,73.14
		c-13.87-17.74-22.71-39.59-24.35-63.42C99.65,194.3,124.27,190.06,142.16,198.4L142.16,198.4z M124.42,111.6
		c0.61-0.51,1.2-1.03,1.79-1.54c0.84-0.67,1.68-1.33,2.53-1.98c0.61-0.46,1.22-0.97,1.85-1.43c0.88-0.67,1.79-1.28,2.69-1.93
		c0.61-0.43,1.2-0.87,1.83-1.29c0.97-0.65,1.98-1.28,2.97-1.89c0.57-0.36,1.14-0.74,1.7-1.09c1.1-0.67,2.24-1.31,3.35-1.94
		c0.5-0.27,0.99-0.57,1.49-0.84c1.45-0.8,2.95-1.56,4.44-2.3c0.19-0.08,0.36-0.17,0.53-0.25c1.68-0.82,3.39-1.6,5.11-2.31
		c0.55-0.23,1.12-0.44,1.67-0.67c1.17-0.46,2.35-0.95,3.56-1.39c0.72-0.27,1.45-0.51,2.19-0.76c1.05-0.36,2.11-0.73,3.18-1.07
		c0.75-0.23,1.56-0.44,2.33-0.67c1.06-0.3,2.06-0.61,3.12-0.88c0.84-0.21,1.68-0.4,2.52-0.59c1.01-0.23,2.02-0.48,3.06-0.7
		c0.86-0.19,1.75-0.34,2.61-0.48c1.01-0.19,2.02-0.4,3.05-0.55c0.89-0.15,1.79-0.25,2.68-0.36c1.03-0.15,2.04-0.3,3.09-0.4
		c0.88-0.11,1.81-0.15,2.72-0.23c1.03-0.09,2.08-0.19,3.14-0.23c0.91-0.06,1.81-0.06,2.74-0.09c0.88-0.04,1.77-0.06,2.65-0.09
		c-11.03,18.69-12.42,42.43-2.97,60.26c-7.16,5.16-14,10.71-20.48,16.63c-14.1-12.88-28.52-25.38-43.34-37.38l-10.88-8.79
		c0.23-0.21,0.46-0.44,0.7-0.65C122.8,112.99,123.62,112.3,124.42,111.6L124.42,111.6z M203.2,138.94
		c-8.08-16.23-5.64-38.77,5.85-54.93c23.44,1.81,44.98,10.59,62.49,24.29C246.89,114.74,223.87,125.2,203.2,138.94L203.2,138.94z
		 M148.62,304.4c-0.3-0.15-0.59-0.29-0.88-0.44c-1.35-0.7-2.69-1.39-4.02-2.12c-0.67-0.38-1.35-0.76-2-1.16
		c-0.91-0.53-1.83-1.06-2.72-1.6c-0.97-0.61-1.93-1.22-2.88-1.85c-0.55-0.36-1.12-0.74-1.66-1.09c-1.18-0.82-2.35-1.66-3.51-2.53
		c-0.27-0.19-0.57-0.4-0.84-0.61c-1.35-1.01-2.68-2.04-3.98-3.11c-0.06-0.06-0.12-0.11-0.19-0.17c-3.81-3.14-7.37-6.52-10.73-10.12
		c6.46-27.93,18.27-53.84,34.28-76.59c11.01,8.55,16.42,22.62,15.2,40.69l-0.02,0.23v0.23c1.03,24.92,13.66,46.15,34.66,58.24
		c10.06,5.81,21.11,8.99,32.31,9.6c-10.06,2.87-20.67,4.42-31.63,4.42C182.03,316.4,164.45,312.19,148.62,304.4L148.62,304.4z
		 M148.62,304.4"/>
</g>
</svg>
