<?xml version="1.0" encoding="utf-8"?>
<!-- Generator: Adobe Illustrator 24.2.1, SVG Export Plug-In . SVG Version: 6.00 Build 0)  -->
<svg version="1.1" id="Warstwa_1" xmlns="http://www.w3.org/2000/svg" xmlns:xlink="http://www.w3.org/1999/xlink" x="0px" y="0px"
	 viewBox="0 0 400 400" style="enable-background:new 0 0 400 400;" xml:space="preserve">
<style type="text/css">
	.st0{opacity:0.8;fill:url(#SVGID_1_);}
	.st1{fill:#FFFFFF;}
	.st2{opacity:0.8;fill:url(#SVGID_2_);}
	.st3{fill:url(#SVGID_3_);}
	.st4{fill:url(#SVGID_4_);}
	.st5{fill:url(#SVGID_5_);}
	.st6{fill:url(#SVGID_6_);}
	.st7{fill:url(#SVGID_7_);}
	.st8{fill:url(#SVGID_8_);}
	.st9{fill:url(#SVGID_9_);}
	.st10{fill:url(#SVGID_10_);}
	.st11{fill:url(#SVGID_11_);}
	.st12{fill:url(#SVGID_12_);}
	.st13{fill:url(#SVGID_13_);}
	.st14{fill:url(#SVGID_14_);}
	.st15{fill:url(#SVGID_15_);}
	.st16{fill:url(#SVGID_16_);}
	.st17{fill:url(#SVGID_17_);}
	.st18{fill:url(#SVGID_18_);}
	.st19{fill:url(#SVGID_19_);}
	.st20{fill:url(#SVGID_20_);}
	.st21{fill:url(#SVGID_21_);}
	.st22{fill:url(#SVGID_22_);}
	.st23{fill:url(#SVGID_23_);}
	.st24{fill:url(#SVGID_24_);}
	.st25{fill:url(#SVGID_25_);}
	.st26{opacity:0.8;fill:url(#SVGID_26_);}
	.st27{fill:url(#SVGID_27_);}
	.st28{fill:url(#SVGID_28_);}
	.st29{opacity:0.8;fill:url(#SVGID_29_);}
	.st30{opacity:0.9;}
	.st31{fill:url(#SVGID_30_);}
	.st32{opacity:0.8;fill:url(#SVGID_31_);}
	.st33{opacity:0.8;}
	.st34{fill:url(#SVGID_32_);}
	.st35{opacity:0.8;fill:url(#SVGID_33_);}
	.st36{fill:url(#SVGID_34_);}
	.st37{fill:url(#SVGID_35_);}
	.st38{opacity:0.9;fill:url(#SVGID_36_);}
</style>
<linearGradient id="SVGID_1_" gradientUnits="userSpaceOnUse" x1="25" y1="200" x2="375" y2="200">
	<stop  offset="0" style="stop-color:#EF803A"/>
	<stop  offset="0.1936" style="stop-color:#D95E3A"/>
	<stop  offset="0.4082" style="stop-color:#C53F39"/>
	<stop  offset="0.618" style="stop-color:#B72939"/>
	<stop  offset="0.8186" style="stop-color:#AF1C39"/>
	<stop  offset="1" style="stop-color:#AC1739"/>
</linearGradient>
<circle style="fill:url(#SVGID_1_);" cx="200" cy="200" r="175"/>
<g>
	<path class="st1" d="M288.39,111.61C264.78,88,233.39,75,200,75s-64.78,13-88.39,36.61C88,135.22,75,166.61,75,200
		s13,64.78,36.61,88.39C135.22,312,166.61,325,200,325c33.39,0,64.78-13,88.39-36.61C312,264.78,325,233.39,325,200
		C325,166.61,312,135.22,288.39,111.61L288.39,111.61z M305.38,150.66c-9.84,27.48-25.83,51.26-46.31,68.87
		c-18.15,15.6-39.51,25.82-60.54,29.05c-2.89-15.9-1.38-31.4,4.36-44.51c18.36-2.01,36.54-11.16,51.47-25.97
		c15.13-15.02,25.78-34.61,31.06-57.03C293.49,129.79,300.25,139.76,305.38,150.66L305.38,150.66z M200,83.63
		c30.05,0,57.47,11.45,78.14,30.21c-1.29,6.69-3.07,13.14-5.32,19.28c-22.77-26.82-58.69-43.59-98.63-46.6
		C182.5,84.63,191.13,83.63,200,83.63L200,83.63z M149.77,95.04c48.71-3.29,94.08,14.67,119.29,47.12
		c-5.09,10.9-11.78,20.65-19.92,28.93c-14.4-17.82-34.66-31.65-58.91-40.15c-24.11-8.45-50.8-10.99-77.81-7.48
		C122.77,111.64,135.46,101.92,149.77,95.04L149.77,95.04z M104.62,133.41c28.7-5.21,57.28-3.25,82.76,5.68
		c22.59,7.92,42.12,21.3,55.43,37.9c-12.33,10.45-26.51,16.9-40.73,18.48c-10.91-14.9-27.93-26.07-48.23-31.59
		c-20.6-5.6-42.92-5.02-65.01,1.64C92.44,153.94,97.81,143.13,104.62,133.41L104.62,133.41z M83.63,200
		c0-8.43,0.91-16.64,2.62-24.57c6.46-2.24,12.96-3.93,19.42-5.05c-11.81,33.06-8.42,72.46,8.85,108.5
		C95.36,258.12,83.63,230.41,83.63,200L83.63,200z M134.17,295.9c-27.16-40.52-34.27-88.76-18.78-126.79
		c11.99-1.04,23.78-0.12,35.01,2.78c-8.23,21.39-10.08,45.85-5.32,71.09c4.74,25.13,15.91,49.55,32.49,71.2
		C161.72,311.08,147.01,304.75,134.17,295.9L134.17,295.9z M200,316.37c-3.35,0-6.66-0.15-9.94-0.43
		c-18.88-22.27-31.49-48.01-36.5-74.55c-4.44-23.52-2.61-47.13,5.11-66.95c15.22,5.46,27.89,14.51,36.37,26.03
		c-7.44,16.9-8.61,37.23-3.24,57.56c5.45,20.64,17.11,39.68,33.92,55.48C217.44,315.38,208.84,316.37,200,316.37L200,316.37z
		 M235.6,310.8c-5.17-4.48-9.88-9.26-14.09-14.29c34.61-6.31,67.09-29.03,89.67-62.11C299.98,270.54,271.58,299.21,235.6,310.8
		L235.6,310.8z M215.56,288.72c-6.89-9.86-11.99-20.53-15.09-31.71c22.64-3.56,44.74-14.2,64.22-30.94
		c19.4-16.67,34.96-38.55,45.42-63.73c4.05,11.82,6.26,24.49,6.26,37.67c0,3.01-0.11,5.99-0.34,8.94
		C294.53,252.79,256.28,283.11,215.56,288.72L215.56,288.72z M215.56,288.72"/>
</g>
</svg>
