<?xml version="1.0" encoding="utf-8"?>
<!-- Generator: Adobe Illustrator 24.2.1, SVG Export Plug-In . SVG Version: 6.00 Build 0)  -->
<svg version="1.1" id="Warstwa_1" xmlns="http://www.w3.org/2000/svg" xmlns:xlink="http://www.w3.org/1999/xlink" x="0px" y="0px"
	 viewBox="0 0 400 400" style="enable-background:new 0 0 400 400;" xml:space="preserve">
<style type="text/css">
	.st0{fill:#E77542;}
	.st1{fill:#2DB5BA;}
	.st2{fill:url(#SVGID_1_);}
	.st3{fill:#265C30;}
	.st4{fill:#A0182C;}
	.st5{fill:#80358A;}
</style>
<path class="st4" d="M312.94,334.65V65.35c-0.02-14.24-11.62-25.84-25.87-25.86H112.92c-14.24,0.02-25.84,11.62-25.86,25.87v269.29
	c0.02,14.24,11.62,25.84,25.86,25.86h174.16C301.32,360.49,312.92,348.89,312.94,334.65z M219.71,109.07
	c-1.36,4.2-4.03,7.85-7.7,10.46c-4.52,3.21-10.01,4.48-15.47,3.56c-7.68-1.3-13.9-6.77-16.27-14.01H219.71z M147.49,96.27
	c-3.69,0-6.69-3-6.69-6.69V52.45H259.2v37.12c0,3.69-3,6.69-6.69,6.69H147.49z M127.83,52.49v37.09c0,10.84,8.82,19.65,19.65,19.65
	h19.45c3.5,17.24,19.88,29.09,37.56,26.71c14.27-1.92,25.72-12.75,28.57-26.71h19.45c10.8-0.02,19.6-8.82,19.62-19.62V52.45h14.94
	c7.1,0,12.87,5.77,12.87,12.87V193.5h-47.08c-3.45-28.08-28.53-48.8-57.02-46.57c-25.51,1.99-45.63,21.41-48.71,46.57h-47.11V65.36
	c0-7.1,5.77-12.87,12.87-12.87H127.83z M203.6,159.75c18.5,1.65,33.32,15.65,36.21,33.75h-79.59
	C163.53,172.8,182.41,157.86,203.6,159.75z M203.46,276.76c7.68,1.29,13.9,6.76,16.27,14.01h-39.44c1.36-4.2,4.03-7.85,7.7-10.46
	C192.5,277.1,198,275.84,203.46,276.76z M252.51,303.73c3.69,0,6.69,3,6.69,6.69v37.12H140.79v-37.12c0-3.69,3-6.69,6.69-6.69
	H252.51z M252.51,290.77h-19.45c-1.62-8.02-6.04-15.09-12.6-20.1c-7.17-5.47-16.03-7.81-24.96-6.61
	c-14.27,1.92-25.72,12.75-28.57,26.71h-19.45c-10.8,0.02-19.6,8.82-19.62,19.62v37.15h-14.91c-7.1,0-12.87-5.77-12.87-12.87V206.5
	h47.05c1.62,13.25,8.04,25.23,18.25,33.96c10.81,9.25,24.58,13.73,38.76,12.62c25.51-2,45.64-21.41,48.71-46.57h47.11v128.15
	c0,7.1-5.77,12.87-12.87,12.87l-14.94,0.03v-37.11C272.16,299.59,263.35,290.77,252.51,290.77z M160.19,206.5h79.58
	c-3.31,20.7-22.19,35.64-43.38,33.75C177.9,238.6,163.08,224.6,160.19,206.5z"/>
</svg>
