<?xml version="1.0" encoding="utf-8"?>
<!-- Generator: Adobe Illustrator 25.4.1, SVG Export Plug-In . SVG Version: 6.00 Build 0)  -->
<svg version="1.1" id="Warstwa_1" xmlns="http://www.w3.org/2000/svg" xmlns:xlink="http://www.w3.org/1999/xlink" x="0px" y="0px"
	 viewBox="0 0 500 500" style="enable-background:new 0 0 500 500;" xml:space="preserve">
<style type="text/css">
	.st0{fill:#DB9A40;}
	.st1{fill:#FFFFFF;}
</style>
<g>
	
		<image style="overflow:visible;opacity:0.3;" width="530" height="531" xlink:href="CED9AAE1.png"  transform="matrix(1 0 0 1 -15.5118 -15.5118)">
	</image>
	<g>
		<circle class="st0" cx="249.5" cy="250.1" r="239.1"/>
	</g>
</g>
<g>
	
		<image style="overflow:visible;opacity:0.3;" width="386" height="236" xlink:href="CED9AAE3.png"  transform="matrix(1 0 0 1 56.9991 131.9991)">
	</image>
	<g>
		<g>
			<path class="st1" d="M80.6,218.2l86.1,24.6v58.7c0,4.5,2.5,8.6,6.5,10.6l52.3,26.2c5.8,2.9,11.1,6.6,15.8,11.1
				c4.6,4.4,11.8,4.4,16.4,0c4.7-4.5,10-8.2,15.8-11.1l52.3-26.2c4-2,6.5-6.1,6.5-10.6v-58.7l23.7-6.8v89.2
				c0,6.5,5.3,11.8,11.8,11.8c6.5,0,11.8-5.3,11.8-11.8v-95.9l38.8-11.1c11.4-3.3,11.4-19.5,0-22.8L252.8,148
				c-2.1-0.6-4.4-0.6-6.5,0L80.6,195.4C69.2,198.6,69.1,214.9,80.6,218.2L80.6,218.2z M308.7,294.2l-45.8,22.9
				c-4.7,2.4-9.2,5.1-13.4,8.2c-4.2-3.1-8.7-5.9-13.4-8.3l-45.8-22.9v-44.6l55.9,16c2.1,0.6,4.4,0.6,6.5,0l55.9-16V294.2z
				 M249.5,171.7l122.6,35l-122.6,35l-122.6-35L249.5,171.7z M249.5,171.7"/>
		</g>
	</g>
</g>
</svg>
