<?xml version="1.0" encoding="utf-8"?>
<!-- Generator: Adobe Illustrator 24.2.1, SVG Export Plug-In . SVG Version: 6.00 Build 0)  -->
<svg version="1.1" id="Warstwa_1" xmlns="http://www.w3.org/2000/svg" xmlns:xlink="http://www.w3.org/1999/xlink" x="0px" y="0px"
	 viewBox="0 0 1400 230" style="enable-background:new 0 0 1400 230;" xml:space="preserve">
<style type="text/css">
	.st0{fill:#AA7E63;}
	.st1{fill:#020203;}
	.st2{opacity:0.5;}
	.st3{fill:#FFFFFF;}
	.st4{opacity:0.5;fill:#FFFFFF;}
	.st5{clip-path:url(#SVGID_2_);}
	.st6{clip-path:url(#SVGID_4_);}
	.st7{clip-path:url(#SVGID_6_);}
	.st8{clip-path:url(#SVGID_8_);}
	.st9{clip-path:url(#SVGID_10_);}
	.st10{clip-path:url(#SVGID_12_);}
	.st11{clip-path:url(#SVGID_14_);}
	.st12{clip-path:url(#SVGID_16_);}
	.st13{clip-path:url(#SVGID_18_);}
	.st14{clip-path:url(#SVGID_20_);}
	.st15{clip-path:url(#SVGID_22_);}
	.st16{clip-path:url(#SVGID_24_);}
	.st17{clip-path:url(#SVGID_26_);}
	.st18{clip-path:url(#SVGID_28_);}
	.st19{clip-path:url(#SVGID_30_);}
	.st20{clip-path:url(#SVGID_32_);}
	.st21{clip-path:url(#SVGID_34_);}
	.st22{clip-path:url(#SVGID_36_);}
	.st23{clip-path:url(#SVGID_38_);}
	.st24{clip-path:url(#SVGID_40_);}
	.st25{clip-path:url(#SVGID_42_);}
	.st26{clip-path:url(#SVGID_44_);}
	.st27{clip-path:url(#SVGID_46_);}
	.st28{clip-path:url(#SVGID_48_);}
	.st29{clip-path:url(#SVGID_50_);}
	.st30{clip-path:url(#SVGID_52_);}
	.st31{clip-path:url(#SVGID_54_);}
	.st32{clip-path:url(#SVGID_56_);}
	.st33{clip-path:url(#SVGID_58_);}
	.st34{clip-path:url(#SVGID_60_);}
	.st35{clip-path:url(#SVGID_62_);}
	.st36{clip-path:url(#SVGID_64_);}
	.st37{clip-path:url(#SVGID_66_);}
	.st38{clip-path:url(#SVGID_68_);}
	.st39{clip-path:url(#SVGID_70_);}
	.st40{fill:#123274;}
	.st41{fill:#2DB8C5;}
	.st42{opacity:0.8;}
	.st43{fill:#008BC0;}
	.st44{opacity:0.5;fill:none;stroke:#FFFFFF;stroke-width:8;stroke-linecap:round;stroke-linejoin:round;stroke-miterlimit:10;}
	.st45{opacity:0.5;fill:none;stroke:#FFFFFF;stroke-width:7;stroke-linecap:round;stroke-linejoin:round;stroke-miterlimit:10;}
	.st46{fill:#0B5BA6;}
	.st47{opacity:0.8;fill:url(#SVGID_71_);}
	.st48{fill:none;stroke:#FFFFFF;stroke-width:10;stroke-miterlimit:10;}
	.st49{opacity:0.8;fill:url(#SVGID_72_);}
	.st50{fill:none;stroke:#FFFFFF;stroke-width:5;stroke-miterlimit:10;}
	.st51{fill:none;stroke:#FFFFFF;stroke-width:6;stroke-miterlimit:10;}
	.st52{opacity:0.8;fill:url(#SVGID_91_);}
	.st53{fill:#878787;}
	.st54{opacity:0.8;fill:url(#SVGID_110_);}
	.st55{opacity:0.8;fill:url(#SVGID_111_);}
	.st56{stroke:#FFFFFF;stroke-width:8;stroke-linecap:round;stroke-linejoin:round;stroke-miterlimit:10;}
	.st57{opacity:0.8;fill:url(#SVGID_112_);}
	.st58{opacity:0.8;fill:url(#SVGID_113_);}
	.st59{clip-path:url(#SVGID_115_);fill:#12100B;}
	.st60{fill:#12100B;}
	.st61{fill:url(#SVGID_116_);}
	.st62{fill:url(#SVGID_117_);}
	.st63{fill:#E87443;}
	.st64{fill:#82368C;}
	.st65{opacity:0.8;fill:url(#SVGID_118_);}
	.st66{opacity:0.8;fill:url(#SVGID_119_);}
	.st67{fill:#74B959;}
	.st68{opacity:0.8;fill:url(#SVGID_120_);}
	.st69{opacity:0.8;fill:#5EA62B;}
	.st70{fill:#10466D;}
	.st71{opacity:0.4;}
	.st72{clip-path:url(#SVGID_122_);}
	.st73{fill:url(#SVGID_123_);}
	.st74{fill:url(#SVGID_124_);}
	.st75{fill:url(#SVGID_125_);}
	.st76{fill:url(#SVGID_126_);}
	.st77{fill:url(#SVGID_127_);}
	.st78{fill:url(#SVGID_128_);}
	.st79{fill:url(#SVGID_129_);}
	.st80{fill:url(#SVGID_130_);}
	.st81{fill:url(#SVGID_131_);}
	.st82{fill:url(#SVGID_132_);}
	.st83{fill:url(#SVGID_133_);}
	.st84{fill:url(#SVGID_134_);}
	.st85{fill:url(#SVGID_135_);}
	.st86{fill:url(#SVGID_136_);}
	.st87{fill:url(#SVGID_137_);}
	.st88{fill:url(#SVGID_138_);}
	.st89{fill:url(#SVGID_139_);}
	.st90{fill:url(#SVGID_140_);}
	.st91{fill:url(#SVGID_141_);}
	.st92{fill:url(#SVGID_142_);}
	.st93{fill:url(#SVGID_143_);}
	.st94{fill:url(#SVGID_144_);}
	.st95{fill:url(#SVGID_145_);}
	.st96{fill:url(#SVGID_146_);}
	.st97{fill:url(#SVGID_147_);}
	.st98{fill:url(#SVGID_148_);}
	.st99{fill:url(#SVGID_149_);}
	.st100{fill:url(#SVGID_150_);}
	.st101{fill:url(#SVGID_151_);}
	.st102{fill:url(#SVGID_152_);}
	.st103{fill:url(#SVGID_153_);}
	.st104{fill:url(#SVGID_154_);}
	.st105{fill:url(#SVGID_155_);}
	.st106{fill:url(#SVGID_156_);}
	.st107{fill:url(#SVGID_157_);}
	.st108{fill:url(#SVGID_158_);}
	.st109{fill:url(#SVGID_159_);}
	.st110{fill:url(#SVGID_160_);}
	.st111{fill:url(#SVGID_161_);}
	.st112{fill:url(#SVGID_162_);}
	.st113{fill:url(#SVGID_163_);}
	.st114{fill:url(#SVGID_164_);}
	.st115{fill:url(#SVGID_165_);}
	.st116{fill:url(#SVGID_166_);}
	.st117{fill:url(#SVGID_167_);}
	.st118{fill:url(#SVGID_168_);}
	.st119{fill:url(#SVGID_169_);}
	.st120{fill:url(#SVGID_170_);}
	.st121{fill:url(#SVGID_171_);}
	.st122{fill:url(#SVGID_172_);}
	.st123{fill:url(#SVGID_173_);}
	.st124{fill:url(#SVGID_174_);}
	.st125{fill:url(#SVGID_175_);}
	.st126{fill:url(#SVGID_176_);}
	.st127{fill:url(#SVGID_177_);}
	.st128{fill:url(#SVGID_178_);}
	.st129{fill:#F59A1C;}
	.st130{fill:#FFFFFF;stroke:#FFFFFF;stroke-width:14.1732;stroke-miterlimit:10;}
	.st131{opacity:0.8;fill:url(#SVGID_179_);}
	.st132{fill:#255C30;}
	.st133{fill:#C10C1A;}
	.st134{fill:#65C3CE;}
	.st135{fill:#31B7BC;}
	.st136{fill:#9D9D9C;}
	.st137{opacity:0.65;fill:#FFFFFF;}
	.st138{opacity:0.65;}
	.st139{opacity:0.8;fill:url(#SVGID_180_);}
	.st140{fill:#ED694B;}
	.st141{opacity:0.8;fill:url(#SVGID_181_);}
	.st142{clip-path:url(#SVGID_183_);}
	.st143{clip-path:url(#SVGID_185_);}
	.st144{clip-path:url(#SVGID_187_);}
	.st145{opacity:0.6;}
	.st146{opacity:0.6;fill:#FFFFFF;}
	.st147{opacity:0.8;fill:url(#SVGID_188_);}
	.st148{opacity:0.8;fill:url(#SVGID_189_);}
	.st149{opacity:0.8;fill:url(#SVGID_190_);}
	.st150{fill:none;stroke:#FFFFFF;stroke-width:35;stroke-linecap:round;stroke-linejoin:round;stroke-miterlimit:10;}
	.st151{opacity:0.8;fill:url(#SVGID_191_);}
	.st152{opacity:0.8;fill:url(#SVGID_192_);}
	.st153{fill:none;stroke:#FFFFFF;stroke-width:20;stroke-linecap:round;stroke-linejoin:round;stroke-miterlimit:10;}
	.st154{opacity:0.8;fill:url(#SVGID_193_);}
	.st155{fill:none;stroke:#FFFFFF;stroke-width:2;stroke-miterlimit:10;}
	.st156{opacity:0.75;fill:url(#SVGID_194_);}
	.st157{opacity:0.8;fill:url(#SVGID_195_);}
	.st158{fill:url(#SVGID_196_);}
	.st159{opacity:0.8;fill:url(#SVGID_197_);}
	.st160{opacity:0.8;fill:url(#SVGID_198_);}
	.st161{fill:url(#SVGID_199_);}
	.st162{fill:url(#SVGID_200_);}
	.st163{fill:url(#SVGID_201_);}
	.st164{fill:url(#SVGID_202_);}
	.st165{fill:url(#SVGID_203_);}
	.st166{opacity:0.8;fill:url(#SVGID_204_);}
	.st167{fill:url(#SVGID_205_);}
	.st168{opacity:0.1;}
	.st169{opacity:0.1;fill:#FFFFFF;}
	.st170{opacity:0.15;fill:#FFFFFF;}
	.st171{opacity:0.15;}
	.st172{opacity:0.8;fill:url(#SVGID_206_);}
	.st173{fill:url(#SVGID_207_);}
	.st174{fill:url(#SVGID_208_);}
	.st175{fill:url(#SVGID_209_);}
	.st176{opacity:0.8;fill:url(#SVGID_210_);}
</style>
<rect class="st136" width="1400" height="230"/>
<path class="st137" d="M279.88,124.76c-0.76,0-1.48,0.15-2.16,0.44c-2.16,0.92-3.6,2.87-3.6,5.01c0,2.87,2.47,5.12,5.61,5.12
	c3.34,0,5.42-2.61,5.42-5.01C285.15,128.52,283.86,124.76,279.88,124.76z"/>
<path class="st137" d="M302.43,98.72c-0.76,0-1.48,0.15-2.16,0.44c-2.16,0.92-3.6,2.87-3.6,5.01c0,2.87,2.47,5.12,5.61,5.12
	c3.34,0,5.42-2.61,5.42-5.01C307.7,102.47,306.41,98.72,302.43,98.72z"/>
<path class="st137" d="M870.41,112.74c-0.76,0-1.48,0.15-2.16,0.44c-2.16,0.92-3.6,2.87-3.6,5.01c0,2.87,2.47,5.12,5.61,5.12
	c3.34,0,5.42-2.61,5.42-5.01C875.68,116.5,874.39,112.74,870.41,112.74z"/>
<path class="st137" d="M884.68,99.43c-0.76,0-1.48,0.15-2.16,0.44c-2.16,0.92-3.6,2.87-3.6,5.01c0,2.87,2.47,5.12,5.61,5.12
	c3.34,0,5.42-2.61,5.42-5.01C889.96,103.19,888.67,99.43,884.68,99.43z"/>
<path class="st137" d="M25.56,33.07c-0.76,0-1.48,0.15-2.16,0.44c-2.16,0.92-3.6,2.87-3.6,5.01c0,2.87,2.47,5.12,5.61,5.12
	c3.34,0,5.42-2.61,5.42-5.01C30.83,36.83,29.54,33.07,25.56,33.07z"/>
<path class="st137" d="M233.69,26.9c-0.76,0-1.48,0.15-2.16,0.44c-2.16,0.92-3.6,2.87-3.6,5.01c0,2.87,2.47,5.12,5.61,5.12
	c3.34,0,5.42-2.61,5.42-5.01C238.96,30.66,237.67,26.9,233.69,26.9z"/>
<path class="st137" d="M39.84,19.76c-0.76,0-1.48,0.15-2.16,0.44c-2.16,0.92-3.6,2.87-3.6,5.01c0,2.87,2.47,5.12,5.61,5.12
	c3.34,0,5.42-2.61,5.42-5.01C45.11,23.52,43.82,19.76,39.84,19.76z"/>
<path class="st137" d="M1249.78,165.23c-0.97,0-1.9,0.19-2.78,0.57c-2.78,1.18-4.63,3.69-4.63,6.43c0,3.69,3.17,6.57,7.21,6.57
	c4.29,0,6.97-3.36,6.97-6.43C1256.55,170.05,1254.9,165.23,1249.78,165.23z"/>
<path class="st137" d="M1309.26,97.22c-0.97,0-1.9,0.19-2.78,0.57c-2.78,1.18-4.63,3.69-4.63,6.43c0,3.69,3.17,6.57,7.21,6.57
	c4.29,0,6.97-3.36,6.97-6.43C1316.04,102.04,1314.38,97.22,1309.26,97.22z"/>
<path class="st137" d="M1200.12,200.76c-0.97,0-1.9,0.19-2.78,0.57c-2.78,1.18-4.63,3.69-4.63,6.43c0,3.69,3.17,6.57,7.21,6.57
	c4.29,0,6.97-3.36,6.97-6.43C1206.89,205.59,1205.24,200.76,1200.12,200.76z"/>
<path class="st137" d="M1373.91,73.08c-0.62,0-1.21,0.12-1.77,0.36c-1.77,0.75-2.94,2.35-2.94,4.09c0,2.35,2.01,4.18,4.59,4.18
	c2.73,0,4.43-2.14,4.43-4.09C1378.22,76.15,1377.16,73.08,1373.91,73.08z"/>
<path class="st137" d="M1186.44,167.7c-0.62,0-1.21,0.12-1.77,0.36c-1.77,0.75-2.94,2.35-2.94,4.09c0,2.35,2.01,4.18,4.59,4.18
	c2.73,0,4.43-2.14,4.43-4.09C1190.75,170.76,1189.69,167.7,1186.44,167.7z"/>
<path class="st137" d="M1240.14,190.92c-0.62,0-1.21,0.12-1.77,0.36c-1.77,0.75-2.94,2.35-2.94,4.09c0,2.35,2.01,4.18,4.59,4.18
	c2.73,0,4.43-2.14,4.43-4.09C1244.45,193.99,1243.39,190.92,1240.14,190.92z"/>
<path class="st137" d="M254.56,100.13c-0.91,0-1.77,0.18-2.59,0.53c-2.59,1.1-4.32,3.44-4.32,6c0,3.44,2.96,6.13,6.73,6.13
	c4,0,6.5-3.13,6.5-6C260.89,104.64,259.34,100.13,254.56,100.13z"/>
<path class="st137" d="M1067.3,25.49c-1.05,0-2.04,0.2-2.99,0.61c-2.99,1.27-4.98,3.97-4.98,6.92c0,3.97,3.41,7.07,7.76,7.07
	c4.61,0,7.5-3.61,7.5-6.92C1074.59,30.68,1072.81,25.49,1067.3,25.49z"/>
<path class="st137" d="M1067.23,49.5c-0.81,0-1.58,0.16-2.31,0.47c-2.31,0.98-3.85,3.07-3.85,5.35c0,3.07,2.63,5.46,5.99,5.46
	c3.56,0,5.79-2.79,5.79-5.35C1072.86,53.51,1071.48,49.5,1067.23,49.5z"/>
<path class="st137" d="M1067.16,71.58c-0.61,0-1.19,0.12-1.74,0.36c-1.74,0.74-2.9,2.31-2.9,4.03c0,2.31,1.99,4.12,4.52,4.12
	c2.69,0,4.37-2.1,4.37-4.03C1071.41,74.6,1070.37,71.58,1067.16,71.58z"/>
<path class="st137" d="M1197.67,53.17c-1.05,0-2.04,0.2-2.99,0.61c-2.99,1.27-4.98,3.97-4.98,6.92c0,3.97,3.41,7.07,7.76,7.07
	c4.61,0,7.5-3.61,7.5-6.92C1204.96,58.36,1203.17,53.17,1197.67,53.17z"/>
<g class="st138">
	<g>
		<path class="st3" d="M475.38,134.44c-1.78,0-3.23-1.4-3.23-3.13c0-1.73,1.44-3.13,3.23-3.13l17.09,0c1.78,0,3.23,1.4,3.23,3.13
			c0,1.73-1.44,3.13-3.23,3.13L475.38,134.44z"/>
	</g>
	<g>
		<path class="st3" d="M484.41,142.26c-0.83,0-1.65-0.31-2.28-0.92c-1.26-1.22-1.26-3.21,0-4.43l5.78-5.61l-5.77-5.6
			c-1.26-1.22-1.26-3.21,0-4.43c1.26-1.22,3.3-1.22,4.56,0l8.05,7.81c0.61,0.59,0.95,1.38,0.95,2.22c0,0.83-0.34,1.63-0.95,2.21
			l-8.06,7.82C486.07,141.95,485.24,142.26,484.41,142.26z"/>
	</g>
</g>
<g class="st138">
	<g>
		<path class="st3" d="M780.98,184.07c-0.83,0-1.65-0.31-2.28-0.92l-17.09-16.59c-1.26-1.22-1.26-3.21,0-4.43
			c1.26-1.22,3.3-1.22,4.56,0l17.09,16.59c1.26,1.22,1.26,3.21,0,4.43C782.63,183.76,781.8,184.07,780.98,184.07z"/>
	</g>
	<g>
		<path class="st3" d="M763.89,184.07c-0.83,0-1.65-0.31-2.28-0.92c-1.26-1.22-1.26-3.21,0-4.43l17.09-16.59
			c1.26-1.22,3.3-1.22,4.56,0c1.26,1.22,1.26,3.21,0,4.43l-17.09,16.59C765.54,183.76,764.71,184.07,763.89,184.07z"/>
	</g>
</g>
<g class="st138">
	<path class="st3" d="M200.47,141.99c-0.86,0-1.68-0.33-2.28-0.92l-8.05-7.81c-1.26-1.22-1.26-3.21,0-4.43
		c1.26-1.22,3.3-1.22,4.56,0l5.77,5.6l9.8-9.51c1.26-1.22,3.3-1.22,4.56,0c1.26,1.22,1.26,3.21,0,4.43l-12.08,11.73
		C202.15,141.66,201.33,141.99,200.47,141.99z"/>
</g>
<path class="st137" d="M1251.82,70.67h-14.75c-1.57,0-2.84-1.24-2.84-2.76V47.04h-10.51c-1.57,0-2.84-1.24-2.84-2.76V29.96
	c0-1.52,1.27-2.76,2.84-2.76h10.51V16.38c0-1.52,1.27-2.76,2.84-2.76h14.75c1.57,0,2.84,1.24,2.84,2.76V27.2h10.51
	c1.57,0,2.84,1.24,2.84,2.76v14.32c0,1.52-1.27,2.76-2.84,2.76h-10.51v20.87C1254.67,69.43,1253.4,70.67,1251.82,70.67
	L1251.82,70.67z M1239.91,65.14h9.07V44.28c0-1.53,1.27-2.76,2.84-2.76h10.51v-8.8h-10.51c-1.57,0-2.84-1.24-2.84-2.76V19.15h-9.07
	v10.81c0,1.52-1.27,2.76-2.84,2.76h-10.51v8.8h10.51c1.57,0,2.84,1.23,2.84,2.76V65.14z M1239.91,65.14"/>
<g class="st138">
	<g>
		<path class="st3" d="M923.83,188.81c0,1.73-1.44,3.13-3.23,3.13c-1.78,0-3.23-1.4-3.23-3.13l0-16.59c0-1.73,1.44-3.13,3.23-3.13
			c1.78,0,3.23,1.4,3.23,3.13L923.83,188.81z"/>
	</g>
	<g>
		<path class="st3" d="M931.88,180.04c0,0.8-0.32,1.6-0.95,2.21c-1.26,1.22-3.3,1.22-4.56,0l-5.78-5.6l-5.77,5.6
			c-1.26,1.22-3.3,1.22-4.56,0c-1.26-1.22-1.26-3.21,0-4.43l8.05-7.81c0.61-0.59,1.43-0.92,2.28-0.92c0.86,0,1.68,0.33,2.28,0.92
			l8.06,7.82C931.57,178.44,931.88,179.24,931.88,180.04z"/>
	</g>
</g>
<g class="st138">
	<g>
		<path class="st3" d="M958.09,204.42c0,1.73-1.44,3.13-3.23,3.13c-1.78,0-3.23-1.4-3.23-3.13l0-16.59c0-1.73,1.44-3.13,3.23-3.13
			c1.78,0,3.23,1.4,3.23,3.13L958.09,204.42z"/>
	</g>
	<g>
		<path class="st3" d="M966.14,195.65c0,0.8-0.32,1.6-0.95,2.21c-1.26,1.22-3.3,1.22-4.56,0l-5.78-5.6l-5.77,5.6
			c-1.26,1.22-3.3,1.22-4.56,0c-1.26-1.22-1.26-3.21,0-4.43l8.05-7.81c0.61-0.59,1.43-0.92,2.28-0.92c0.86,0,1.68,0.33,2.28,0.92
			l8.06,7.82C965.83,194.05,966.14,194.85,966.14,195.65z"/>
	</g>
</g>
<g class="st138">
	<g>
		<path class="st3" d="M993.93,192.99c0,1.73-1.44,3.13-3.23,3.13c-1.78,0-3.23-1.4-3.23-3.13l0-16.59c0-1.73,1.44-3.13,3.23-3.13
			c1.78,0,3.23,1.4,3.23,3.13L993.93,192.99z"/>
	</g>
	<g>
		<path class="st3" d="M1001.98,184.23c0,0.8-0.32,1.6-0.95,2.21c-1.26,1.22-3.3,1.22-4.56,0l-5.78-5.6l-5.77,5.6
			c-1.26,1.22-3.3,1.22-4.56,0s-1.26-3.21,0-4.43l8.05-7.81c0.61-0.59,1.43-0.92,2.28-0.92c0.86,0,1.68,0.33,2.28,0.92l8.06,7.82
			C1001.67,182.62,1001.98,183.43,1001.98,184.23z"/>
	</g>
</g>
<path class="st137" d="M1019.3,48.01c-0.38,0-0.75-0.09-1.08-0.26l-7.7-3.93l-7.72,3.93c-0.33,0.17-0.7,0.25-1.07,0.25
	c-0.48,0-0.94-0.14-1.33-0.41c-0.71-0.51-1.07-1.37-0.92-2.19l1.47-8.34l-6.24-5.9c-0.63-0.6-0.85-1.47-0.58-2.28
	c0.27-0.8,0.97-1.38,1.84-1.51l8.64-1.22l3.86-7.59c0.38-0.76,1.17-1.24,2.05-1.24c0.87,0,1.66,0.47,2.05,1.23l3.85,7.59l8.63,1.22
	c0.88,0.13,1.58,0.71,1.85,1.52c0.27,0.81,0.05,1.68-0.58,2.28l-6.24,5.91l1.47,8.34c0.15,0.82-0.2,1.68-0.91,2.18
	C1020.24,47.86,1019.78,48.01,1019.3,48.01z M1010.51,39.08c0.37,0,0.73,0.09,1.06,0.25l4.68,2.39l-0.89-5.05
	c-0.12-0.73,0.12-1.47,0.65-1.97l3.78-3.58l-5.22-0.74c-0.74-0.1-1.39-0.55-1.73-1.22l-2.34-4.59l-2.34,4.59
	c-0.33,0.66-0.98,1.12-1.73,1.22l-5.21,0.73l3.78,3.57c0.54,0.51,0.78,1.25,0.66,1.97l-0.9,5.05l4.67-2.38
	C1009.77,39.17,1010.14,39.08,1010.51,39.08z"/>
<path class="st137" d="M1116.81,114.36c-0.32-0.16-0.59-0.4-0.78-0.69l-4.65-6.61l-8.26-0.03c-0.35,0-0.7-0.09-1.01-0.25
	c-0.4-0.21-0.72-0.52-0.93-0.92c-0.36-0.74-0.27-1.6,0.23-2.23l5.05-6.35l-2.52-7.63c-0.25-0.77-0.04-1.6,0.56-2.16
	c0.59-0.56,1.45-0.74,2.23-0.48l7.79,2.71l6.71-4.68c0.67-0.47,1.55-0.53,2.28-0.15c0.73,0.38,1.17,1.11,1.15,1.92l-0.25,8.02
	l6.67,4.74c0.67,0.49,1,1.28,0.85,2.07c-0.14,0.79-0.73,1.43-1.53,1.66l-7.93,2.25l-2.59,7.61c-0.25,0.75-0.94,1.32-1.76,1.43
	C1117.67,114.65,1117.21,114.57,1116.81,114.36z M1113.54,103.1c0.31,0.16,0.58,0.39,0.77,0.67l2.82,4.02l1.57-4.61
	c0.23-0.67,0.77-1.17,1.45-1.37l4.8-1.36l-4.03-2.87c-0.58-0.4-0.91-1.06-0.89-1.76l0.15-4.85l-4.06,2.84
	c-0.58,0.41-1.33,0.51-2.01,0.27l-4.7-1.63l1.53,4.62c0.21,0.66,0.08,1.38-0.35,1.93l-3.06,3.84l5,0.02
	C1112.89,102.86,1113.23,102.94,1113.54,103.1z"/>
<path class="st137" d="M1185.98,45.73c0.81,0,1.58-0.16,2.31-0.47c2.31-0.98,3.85-3.07,3.85-5.35c0-3.07-2.63-5.46-5.99-5.46
	c-3.56,0-5.79,2.79-5.79,5.35C1180.35,41.72,1181.72,45.73,1185.98,45.73z"/>
<path class="st137" d="M1158.04,179.23l-14.68-7.12c-1.02-0.49-1.65-1.49-1.65-2.59v-3.61c3.44-2.96,5.61-7.27,5.61-12.07v-2.9
	c0.06,0,0.12,0,0.18,0c1.45,0,2.62-1.14,2.62-2.55v-5.44c0-8.9-7.46-16.15-16.64-16.15h-5.61c-9.18,0-16.64,7.24-16.64,16.15v5.44
	c0,1.41,1.17,2.55,2.62,2.55c0.02,0,0.08,0,0.18,0v2.9c0,4.8,2.17,9.11,5.61,12.07v3.61c0,1.1-0.63,2.1-1.65,2.59
	c-1.3,0.63-1.82,2.16-1.17,3.41c0.46,0.89,1.39,1.41,2.35,1.41c0.39,0,0.79-0.09,1.17-0.27c0.46-0.23,0.9-0.49,1.3-0.79l6.41,6.22
	v34.31c0,1.41,1.17,2.55,2.62,2.55c1.45,0,2.62-1.14,2.62-2.55v-34.31l6.41-6.22c0.4,0.3,0.84,0.56,1.3,0.79l14.2,6.89l-4.31,4.18
	c-2.08,2.02-3.23,4.71-3.23,7.57v21.1c0,1.41,1.17,2.55,2.62,2.55c1.45,0,2.62-1.14,2.62-2.55v-21.1c0-1.5,0.6-2.91,1.7-3.97
	l4.08-3.96c0.12,0.46,0.19,0.94,0.19,1.43v27.6c0,1.41,1.17,2.55,2.62,2.55c1.45,0,2.62-1.14,2.62-2.55v-27.6
	C1164.14,184.72,1161.8,181.05,1158.04,179.23z M1116.48,142.95c0-6.1,5.11-11.06,11.39-11.06h5.61c6.28,0,11.39,4.96,11.39,11.06
	v2.83c-11.4-0.6-18.28-4.9-18.35-4.95c-0.44-0.29-0.95-0.43-1.45-0.43c-0.68,0-1.35,0.25-1.86,0.75c-2.51,2.44-4.97,3.61-6.74,4.17
	L1116.48,142.95L1116.48,142.95z M1119.28,149.73c1.84-0.71,3.98-1.84,6.16-3.65c2.75,1.39,8.52,3.79,16.63,4.59v3.16
	c0,6.1-5.11,11.06-11.39,11.06s-11.39-4.96-11.39-11.06V149.73L1119.28,149.73z M1130.68,169.98c2.03,0,3.98-0.36,5.79-1.01v0.54
	c0,0.7,0.1,1.39,0.27,2.04l-6.06,5.88l-6.06-5.88c0.18-0.66,0.27-1.34,0.27-2.04v-0.54
	C1126.69,169.62,1128.64,169.98,1130.68,169.98z"/>
<path class="st137" d="M1012.01,144.84c-0.84-0.8-2.18-0.8-3.02,0l-8.54,8.29c-0.83,0.82-0.83,2.12,0,2.94l8.54,8.29
	c0.4,0.38,0.95,0.59,1.51,0.59c0.57,0.01,1.11-0.21,1.51-0.59l8.54-8.29c0.4-0.39,0.63-0.92,0.63-1.47c0-0.55-0.23-1.08-0.63-1.47
	L1012.01,144.84z M1010.49,159.95l-5.51-5.36l5.51-5.34l5.52,5.34L1010.49,159.95z M1010.49,159.95"/>
<path class="st137" d="M806.76,17.08c-0.84-0.8-2.18-0.8-3.02,0l-8.54,8.29c-0.83,0.82-0.83,2.12,0,2.94l8.54,8.29
	c0.4,0.38,0.95,0.59,1.51,0.59c0.57,0.01,1.11-0.21,1.51-0.59l8.54-8.29c0.4-0.39,0.63-0.92,0.63-1.47c0-0.55-0.23-1.08-0.63-1.47
	L806.76,17.08z M805.24,32.19l-5.51-5.36l5.51-5.34l5.52,5.34L805.24,32.19z M805.24,32.19"/>
<path class="st137" d="M844.86,22.43c-0.84-0.8-2.18-0.8-3.02,0l-8.54,8.29c-0.83,0.82-0.83,2.12,0,2.94l8.54,8.29
	c0.4,0.38,0.95,0.59,1.51,0.59c0.57,0.01,1.11-0.21,1.51-0.59l8.54-8.29c0.4-0.39,0.63-0.92,0.63-1.47c0-0.55-0.23-1.08-0.63-1.47
	L844.86,22.43z M843.34,37.54l-5.51-5.36l5.51-5.34l5.52,5.34L843.34,37.54z M843.34,37.54"/>
<path class="st137" d="M865.26,59.87c-0.84-0.8-2.18-0.8-3.02,0l-8.54,8.29c-0.83,0.82-0.83,2.12,0,2.94l8.54,8.29
	c0.4,0.38,0.95,0.59,1.51,0.59c0.57,0.01,1.11-0.21,1.51-0.59l8.54-8.29c0.4-0.39,0.63-0.92,0.63-1.47c0-0.55-0.23-1.08-0.63-1.47
	L865.26,59.87z M863.74,74.99l-5.51-5.36l5.51-5.34l5.52,5.34L863.74,74.99z M863.74,74.99"/>
<path class="st137" d="M709.73,184.43h9.15c1.47,0,2.67-1.16,2.67-2.59c0-1.43-1.2-2.59-2.67-2.59h-9.15
	c-1.47,0-2.67,1.16-2.67,2.59C707.07,183.27,708.26,184.43,709.73,184.43z"/>
<path class="st137" d="M726.52,184.43h2.36c1.47,0,2.67-1.16,2.67-2.59c0-1.43-1.2-2.59-2.67-2.59h-2.36
	c-1.47,0-2.67,1.16-2.67,2.59C723.85,183.27,725.05,184.43,726.52,184.43z"/>
<path class="st137" d="M712.36,167.54h2.36c1.47,0,2.67-1.16,2.67-2.59c0-1.43-1.2-2.59-2.67-2.59h-2.36
	c-1.47,0-2.67,1.16-2.67,2.59C709.69,166.38,710.89,167.54,712.36,167.54z"/>
<path class="st137" d="M712.1,196.12h31.2c1.47,0,2.67-1.16,2.67-2.59c0-1.43-1.2-2.59-2.67-2.59h-31.2c-1.47,0-2.67,1.16-2.67,2.59
	C709.43,194.96,710.63,196.12,712.1,196.12z"/>
<path class="st137" d="M712.18,151.84h31.2c1.47,0,2.67-1.16,2.67-2.59c0-1.43-1.2-2.59-2.67-2.59h-31.2
	c-1.47,0-2.67,1.16-2.67,2.59C709.51,150.67,710.71,151.84,712.18,151.84z"/>
<g class="st138">
	<path class="st3" d="M163.38,29.81c-2.02-4.24-5.63-7.45-10.14-9.06c-0.99-0.35-2.08-0.22-2.95,0.36l-17.26,11.44l-28.67,12.9
		l-3.06-6.4c-2.28-4.77-7.24-7.71-12.65-7.49c-5.41,0.22-10.11,3.55-11.97,8.48c-1.36,3.61-5.5,5.48-9.23,4.15
		c-10.69-3.8-22.55,1.49-26.49,11.92c-7.24,19.18,2.9,40.36,22.63,47.38c10.69,3.8,22.58-1.54,26.5-11.92
		c1.36-3.61,5.5-5.47,9.23-4.15c5.08,1.81,10.74,0.48,14.41-3.39c3.67-3.87,4.56-9.44,2.29-14.21c-1.2-2.5-2.27-4.75-3.06-6.4
		l28.67-12.9l20.15-5.39c1.01-0.27,1.83-1,2.19-1.96C165.61,38.79,165.4,34.04,163.38,29.81L163.38,29.81z M110.1,72.47
		c1.17,2.45,0.71,5.31-1.17,7.29c-1.88,1.98-4.78,2.66-7.39,1.74c-7.09-2.52-14.96,1.02-17.56,7.9
		c-2.69,7.11-10.83,10.78-18.16,8.17c-16.39-5.83-24.76-23.41-18.76-39.29c2.69-7.12,10.8-10.78,18.16-8.17
		c7.09,2.52,14.97-1.02,17.57-7.91c0.96-2.53,3.37-4.24,6.14-4.35c2.77-0.11,5.32,1.4,6.49,3.84l3.06,6.4l-10.07,4.53
		c-1.63,0.73-2.34,2.61-1.58,4.19l5.85,12.26c0.75,1.58,2.69,2.27,4.31,1.53l10.06-4.53C107.83,67.73,108.91,69.97,110.1,72.47
		L110.1,72.47z M97.19,63.55l-3.12-6.54l38.98-17.54l3.12,6.54L97.19,63.55z M142.28,43.8l-3.54-7.41l13.72-9.09
		c2.2,1.14,3.96,2.93,5.03,5.16c1.07,2.23,1.34,4.69,0.81,7.06L142.28,43.8z M142.28,43.8"/>
	<path class="st3" d="M78.84,59.03c-6.04-2.15-12.74,0.86-14.95,6.73c-2.21,5.86,0.89,12.36,6.93,14.51
		c6.04,2.15,12.74-0.86,14.95-6.73C87.98,67.67,84.88,61.18,78.84,59.03L78.84,59.03z M73.05,74.34c-2.67-0.95-4.04-3.82-3.07-6.42
		c0.98-2.59,3.94-3.93,6.61-2.97c2.67,0.95,4.04,3.82,3.07,6.42C78.69,73.96,75.73,75.29,73.05,74.34L73.05,74.34z M73.05,74.34"/>
</g>
<g class="st138">
	<path class="st3" d="M425.19,85.44c-2.64-2.57-6.16-3.98-9.9-3.98c-3.74,0-7.25,1.41-9.9,3.98l-30.4,29.5
		c-2.77,2.69-6.45,4.17-10.37,4.17c-3.92,0-7.6-1.48-10.37-4.17c-2.77-2.69-4.29-6.26-4.29-10.06c0-3.8,1.53-7.37,4.29-10.06
		l0.51-0.5c2.14,1.26,4.56,1.9,6.99,1.9c3.03,0,6.06-0.99,8.58-2.99l42.32-33.67c3.75-0.93,7.18-2.83,9.99-5.55
		c4.13-4.01,6.41-9.34,6.41-15.01c0-5.67-2.28-11-6.41-15.01c-4.13-4.01-9.62-6.22-15.47-6.22c-5.84,0-11.34,2.21-15.47,6.22
		c-2.81,2.72-4.76,6.06-5.72,9.69l-34.69,41.07c-3.72,4.4-4.04,10.45-1.12,15.11l-0.51,0.5c-4,3.88-6.2,9.03-6.2,14.52
		c0,5.48,2.2,10.64,6.2,14.52c4.13,4,9.54,6.01,14.96,6.01c5.42,0,10.84-2,14.96-6.01l30.4-29.5c1.42-1.37,3.3-2.13,5.3-2.13
		c2,0,3.89,0.76,5.3,2.13s2.2,3.2,2.2,5.14c0,1.94-0.78,3.77-2.2,5.15l-12.66,12.29c-1.27,1.23-1.27,3.23,0,4.46
		c1.27,1.23,3.33,1.23,4.6,0l12.66-12.29c2.64-2.57,4.1-5.98,4.1-9.6C429.29,91.41,427.83,88,425.19,85.44L425.19,85.44z
		 M417.47,50.09c-1.56,1.37-3.37,2.39-5.31,3.03l-19.52-18.95c0.66-1.89,1.71-3.64,3.12-5.16L417.47,50.09z M356.8,87.89
		c-2.57-2.49-2.77-6.43-0.47-9.15l32.9-38.95l17.13,16.62l-40.13,31.93C363.42,90.58,359.37,90.39,356.8,87.89L356.8,87.89z
		 M418.06,28.44c2.9,2.82,4.5,6.57,4.5,10.55c0,2.07-0.43,4.07-1.25,5.91L401.1,25.29c1.9-0.79,3.96-1.21,6.09-1.21
		C411.3,24.07,415.16,25.62,418.06,28.44L418.06,28.44z M418.06,28.44"/>
	<path class="st3" d="M383.76,57.27l-8.34,8.09c-1.27,1.23-1.27,3.23,0,4.46c0.63,0.62,1.47,0.92,2.3,0.92s1.66-0.31,2.3-0.92
		l8.34-8.09c1.27-1.23,1.27-3.23,0-4.46C387.09,56.04,385.03,56.04,383.76,57.27L383.76,57.27z M383.76,57.27"/>
</g>
<path class="st137" d="M529.12,32.75c-0.72-0.53-1.65-0.7-2.51-0.46l-40.59,11.15c-1.24,0.34-2.09,1.43-2.09,2.68v37.73
	c-1.69-0.95-3.65-1.5-5.74-1.5c-6.33,0-11.49,5-11.49,11.15s5.15,11.15,11.49,11.15s11.49-5,11.49-11.15c0-0.29,0-34.12,0-34.12
	l34.84-9.57v22.9c-1.69-0.95-3.65-1.5-5.74-1.5c-6.33,0-11.49,5-11.49,11.15c0,6.15,5.15,11.15,11.49,11.15
	c6.33,0,11.49-5,11.49-11.15c0-0.25,0-47.38,0-47.38C530.26,34.1,529.84,33.27,529.12,32.75z M478.18,99.07
	c-3.17,0-5.74-2.5-5.74-5.57s2.58-5.57,5.74-5.57c3.17,0,5.74,2.5,5.74,5.57S481.35,99.07,478.18,99.07z M489.67,53.58v-5.36
	l34.84-9.57v5.36L489.67,53.58z M518.77,87.92c-3.17,0-5.74-2.5-5.74-5.57c0-3.07,2.58-5.57,5.74-5.57c3.17,0,5.74,2.5,5.74,5.57
	C524.51,85.42,521.94,87.92,518.77,87.92z"/>
<path class="st137" d="M1373.86,157.32c-0.66-0.49-1.52-0.64-2.32-0.42l-37.47,10.29c-1.14,0.31-1.93,1.32-1.93,2.48v34.83
	c-1.56-0.88-3.37-1.38-5.3-1.38c-5.85,0-10.6,4.62-10.6,10.29s4.76,10.29,10.6,10.29c5.85,0,10.6-4.62,10.6-10.29
	c0-0.27,0-31.5,0-31.5l32.16-8.83v21.14c-1.56-0.88-3.37-1.38-5.3-1.38c-5.85,0-10.6,4.62-10.6,10.29s4.76,10.29,10.6,10.29
	c5.85,0,10.6-4.62,10.6-10.29c0-0.23,0-43.73,0-43.73C1374.92,158.57,1374.53,157.81,1373.86,157.32z M1326.85,218.54
	c-2.92,0-5.3-2.31-5.3-5.15s2.38-5.15,5.3-5.15s5.3,2.31,5.3,5.15S1329.77,218.54,1326.85,218.54z M1337.45,176.55v-4.94l32.16-8.83
	v4.94L1337.45,176.55z M1364.31,208.25c-2.92,0-5.3-2.31-5.3-5.15s2.38-5.15,5.3-5.15s5.3,2.31,5.3,5.15
	S1367.24,208.25,1364.31,208.25z"/>
<path class="st137" d="M1362.65,91.27c-2.62-1.7-5.09-3.3-6.83-5.59l-0.31-0.41c-1.03-1.34-2.2-2.87-2.38-4.15
	c-0.02-0.11-0.08-0.2-0.11-0.31c-0.05-0.16-0.09-0.32-0.17-0.47c-0.08-0.15-0.17-0.27-0.28-0.4c-0.1-0.12-0.19-0.23-0.31-0.33
	c-0.14-0.12-0.29-0.2-0.45-0.29c-0.12-0.06-0.24-0.13-0.37-0.17c-0.18-0.06-0.36-0.09-0.56-0.11c-0.1-0.01-0.19-0.05-0.29-0.05
	c-0.06,0-0.11,0.03-0.17,0.03c-0.07,0-0.12-0.02-0.18-0.01c-0.11,0.01-0.2,0.07-0.31,0.1c-0.17,0.04-0.34,0.09-0.49,0.17
	c-0.14,0.07-0.27,0.16-0.39,0.25c-0.13,0.1-0.26,0.2-0.37,0.32c-0.11,0.12-0.18,0.24-0.27,0.38c-0.09,0.14-0.16,0.27-0.22,0.43
	c-0.05,0.15-0.08,0.31-0.1,0.48c-0.02,0.11-0.07,0.21-0.07,0.32v44.38c-2.15-1.27-4.8-2.04-7.7-2.04c-7.07,0-12.83,4.47-12.83,9.96
	s5.76,9.96,12.83,9.96s12.83-4.47,12.83-9.96V90.28c2.01,2.08,4.35,3.64,6.64,5.13c3.07,2,5.98,3.88,7.48,6.87
	c0.94,1.87,1.4,3.9,1.28,5.72c-0.28,4.43-2,8.9-4.5,11.65c-0.93,1.03-0.83,2.6,0.23,3.52c0.49,0.42,1.09,0.62,1.69,0.62
	c0.71,0,1.42-0.29,1.92-0.85c3.21-3.55,5.42-9.15,5.77-14.64c0.17-2.7-0.45-5.54-1.8-8.21C1369.78,95.9,1366.15,93.54,1362.65,91.27
	z M1340.33,138.73c-4.17,0-7.7-2.28-7.7-4.98c0-2.7,3.53-4.98,7.7-4.98s7.7,2.28,7.7,4.98
	C1348.03,136.45,1344.5,138.73,1340.33,138.73z"/>
<g class="st138">
	<path class="st3" d="M1042.65,127.37l-7.92-11.95c3.67-5.01,5.68-11.12,5.65-17.27c0-13.56-9.43-25.45-22.93-28.93
		c-2.59-0.67-5.25-1-7.92-1c-11.04,0-21.3,5.78-26.78,15.09c-6.93,11.77-4.82,26.64,5.13,36.16c5.81,5.56,13.5,8.62,21.67,8.62
		c5.35,0,10.63-1.36,15.28-3.94l15.14,6.3c0.27,0.11,0.56,0.17,0.85,0.17c0.64,0,1.24-0.27,1.65-0.74
		C1043.11,129.15,1043.17,128.15,1042.65,127.37z M1025.53,119.85c-0.27-0.11-0.56-0.17-0.85-0.17c-0.41,0-0.8,0.11-1.14,0.32
		c-4.21,2.54-9.06,3.89-14,3.89c-8.32,0-16.26-3.85-21.25-10.3c-8.32-10.76-6.81-25.66,3.51-34.64c4.88-4.24,11.17-6.58,17.72-6.58
		c6.76,0,13.21,2.47,18.14,6.96c10.12,9.2,11.3,24.12,2.74,34.7c-0.57,0.7-0.62,1.68-0.12,2.44l4.91,7.41L1025.53,119.85z"/>
	<path class="st3" d="M1022.5,79.97c-0.34-0.23-0.74-0.36-1.16-0.36c-0.23,0-0.45,0.04-0.66,0.11l-21.91,7.44
		c0.01-0.01,0.02-0.02,0.03-0.02c-0.06,0.02-0.13,0.04-0.2,0.05c-0.2,0.12-0.43,0.21-0.65,0.28c-0.09,0.03-0.18,0.04-0.27,0.05
		l-1.08,0.37c-0.8,0.27-1.34,1.01-1.34,1.83v13.53c-2.27,0.68-4.04,2.48-4.62,4.74c-0.63,2.47,0.28,5.1,2.31,6.71
		c1.21,0.96,2.74,1.49,4.31,1.49c1.02,0,2-0.21,2.92-0.64c2.37-1.09,3.89-3.43,3.89-5.98V96.97l10.44-3.38v5
		c-2.27,0.68-4.04,2.48-4.62,4.74c-0.63,2.47,0.28,5.1,2.31,6.71c1.21,0.96,2.74,1.49,4.31,1.49c0,0,0,0,0,0
		c1.02,0,2-0.21,2.92-0.64c0.79-0.36,1.47-0.87,2.05-1.47c0.08-0.09,0.16-0.18,0.24-0.26c0.11-0.26,0.27-0.51,0.46-0.71
		c0.04-0.04,0.1-0.08,0.15-0.12c0.63-1.01,1-2.18,1-3.4V81.55C1023.34,80.93,1023.03,80.33,1022.5,79.97z M1019.34,104.92
		c0,1.11-0.68,2.1-1.74,2.52c-0.34,0.14-0.71,0.21-1.08,0.21c-0.75,0-1.46-0.28-1.99-0.8c-0.81-0.78-1.05-1.95-0.61-2.98
		c0.44-1.02,1.46-1.69,2.6-1.69c0.53,0,1.04-0.21,1.41-0.57c0.38-0.37,0.59-0.85,0.59-1.37V90.9c0-0.62-0.31-1.21-0.83-1.58
		c-0.34-0.24-0.75-0.37-1.17-0.37c-0.22,0-0.43,0.03-0.63,0.1l-14.44,4.67c-0.82,0.27-1.37,1.01-1.37,1.84v14.02
		c0,1.11-0.68,2.1-1.74,2.52c-0.34,0.14-0.71,0.21-1.08,0.21c-0.75,0-1.46-0.28-1.99-0.8c-0.81-0.78-1.05-1.95-0.61-2.98
		c0.44-1.02,1.46-1.69,2.6-1.69c0.53,0,1.04-0.2,1.42-0.57c0.37-0.36,0.59-0.86,0.59-1.37V91.11l20.07-6.82V104.92z"/>
</g>
<path class="st137" d="M99.1,141.67c-0.08,0-0.14-0.01-0.2-0.02c-5.64-0.34-9.85-0.59-13.01-0.78c-9.41-0.56-9.41-0.56-9.77-0.76
	l-0.08-0.04c-0.8-0.38-1.34-1.12-1.44-1.98c-0.11-0.86,0.24-1.7,0.92-2.25c9.46-7.71,13.57-11.05,15.36-12.5
	c1.01-0.82,1.32-1.07,1.36-1.11l0.06-0.07c0.32-0.32,0.32-0.32,19.63-6.48c6.91-2.2,16.29-5.2,29.06-9.28l-0.45-1.33
	c-0.21-0.57-0.78-0.96-1.41-0.96c-0.15,0-0.29,0.02-0.44,0.06l-17.41,5.56c-0.22,0.05-0.44,0.08-0.65,0.08
	c-1.13,0-2.13-0.7-2.49-1.75c-0.42-1.26,0.23-2.64,1.5-3.14l17.43-5.57c0.65-0.19,1.33-0.29,2-0.29c2.89,0,5.48,1.78,6.45,4.42
	l0.45,1.34c0.31-0.1,0.63-0.21,0.94-0.31c1.88-0.63,3.82-1.28,5.93-1.28c1.59,0,3.12,0.37,4.67,1.12c3.88,1.92,6.18,5.89,5.86,10.1
	c-0.32,4.22-3.21,7.81-7.34,9.14c-19.52,6.24-32.25,10.34-40.59,13.02C101.24,141.19,99.76,141.67,99.1,141.67L99.1,141.67z
	 M95.41,136.36l-2.68-7.89l-8.83,7.2L95.41,136.36z M100.77,135.92l39.54-12.63l-3.47-10.2l-39.53,12.64L100.77,135.92z
	 M145.27,121.7l9.12-2.91c1.38-0.44,2.55-1.42,3.21-2.68c0.67-1.28,0.78-2.74,0.31-4.1c-0.8-2.19-2.94-3.66-5.33-3.66
	c-0.56,0-1.11,0.08-1.65,0.24l-9.11,2.92L145.27,121.7z"/>
<path class="st137" d="M185.92,105c2.11,2.05,5.54,2.05,7.65,0l38.28-37.15c2.11-2.05,2.11-5.38,0-7.43l-24.83-24.1
	c-1.01-0.99-2.39-1.54-3.83-1.54c-1.44,0-2.81,0.55-3.83,1.54l-38.28,37.15c-1.02,0.99-1.59,2.32-1.59,3.72
	c0,1.39,0.57,2.73,1.59,3.72L185.92,105z M203.2,40.04l24.82,24.09l-38.28,37.15l-24.83-24.09L203.2,40.04z M203.2,40.04"/>
<path class="st137" d="M195.49,84.57c0.04-0.04,0.06-0.08,0.1-0.12c0.85-0.94-2.27,2.67,17.32-20.14l1.73,1.68
	c0.68,0.67,1.68,0.93,2.62,0.68c0.94-0.24,1.67-0.95,1.92-1.86c0.25-0.91-0.01-1.87-0.7-2.54l-1.73-1.68
	c-1.08-1.04-2.55-1.6-4.07-1.53c-1.52,0.07-2.94,0.75-3.91,1.89l-12.4,14.45c-3.42-7.04-12.01-9.7-16.16-5.68
	c-3.22,3.13-2.37,8.84,1.92,13C185.89,86.4,191.92,88.02,195.49,84.57L195.49,84.57z M184,73.42c1.45-1.41,7.06,1.31,7.94,5.54
	c0.72,3.51-3.48,2.51-6.03,0.03C183.58,76.73,183.22,74.19,184,73.42L184,73.42z M184,73.42"/>
<path class="st137" d="M1052.91,123.57c-1.55,3.38-2.88,6.97-2.88,10.93v13.65c-2.18,1.2-6.14,4.33-6.14,11.19
	c0,4.18,2.38,7.68,5.39,10.44c-0.21,0.41-0.42,0.88-0.61,1.42c-0.47,0.25-0.94,0.49-1.38,0.78c-5.97,3.86-9.54,10.33-9.54,17.3
	v29.68h73.71v-29.68c0-4.94-1.82-9.61-5-13.3c0.58-1.42,0.9-2.99,0.9-4.71c0-4.6-2.98-7.28-5.36-9.44c-1.26-1.13-2.44-2.2-3.04-3.37
	c-0.61-1.18-0.13-2.78,0.7-5.29c0.73-2.23,1.57-4.75,1.57-7.73c0-5.31-2.83-9.21-4.1-10.69v-0.24c0-3.96-0.73-7.86-2.88-10.93
	C1079.82,102.91,1057.74,113.04,1052.91,123.57z M1093.64,136.9c0.02,0.02,1.77,1.78,2.78,4.61c-1.45-1.26-3.34-2.04-5.43-2.04
	v-3.97h-9.27c-5.67,0-11.36-1.3-16.43-3.77l-0.92-0.44l-0.92,0.45c-3.08,1.49-5.02,4.43-5.19,7.74h-0.03c-1.5,0-2.88,0.42-4.1,1.1
	v-6.07c0-10.41,8.73-18.88,19.45-18.88c10.73,0,19.45,8.47,19.45,18.88v1.82L1093.64,136.9z M1090.99,149.4v-5.96
	c2.26,0,4.1,1.78,4.1,3.97c0,2.19-1.84,3.97-4.1,3.97h-0.14C1090.93,150.74,1090.99,150.08,1090.99,149.4L1090.99,149.4z
	 M1090.62,185.63c2.88,2.8,4.47,6.52,4.47,10.47c0,3.95-1.59,7.67-4.47,10.47l-1.67,1.62v6.79h-28.67v-6.79l-1.67-1.62
	c-2.88-2.8-4.47-6.52-4.47-10.47c0-3.13,1.02-6.11,2.86-8.61c0.56,0.71,1.05,1.45,1.34,2.28l0.75,2.17l2.11-1.02
	c6.12-2.97,8.97-6.89,10.29-10.22c1.01,0.31,2.06,0.49,3.13,0.49c5.65,0,10.24-4.46,10.24-9.94v-0.17c0.93,0.44,1.94,0.75,2.99,0.89
	l1.1,0.15v11.87L1090.62,185.63z M1079.41,164.75c0.29,1.03,0.76,1.99,1.34,2.85v3.66c0,3.29-2.76,5.96-6.14,5.96
	c-0.74,0-1.46-0.14-2.15-0.39c0.07-0.61,0.1-1.16,0.1-1.6c0-3.91-1.48-6.06-3.19-7.86c0.46-0.86,0.73-1.76,0.9-2.66
	c1.39,0.37,2.84,0.58,4.34,0.58c1.66,0,3.25-0.24,4.76-0.69L1079.41,164.75z M1074.61,161.33c-6.78,0-12.29-5.35-12.29-11.92v-9.47
	c0-1.67,0.81-3.2,2.16-4.17c5.38,2.43,11.31,3.7,17.24,3.7h5.18v9.94C1086.89,155.98,1081.38,161.33,1074.61,161.33L1074.61,161.33z
	 M1058.37,151.39h-0.14c-2.26,0-4.1-1.78-4.1-3.97c0-2.19,1.84-3.97,4.1-3.97v5.96C1058.23,150.08,1058.29,150.74,1058.37,151.39
	L1058.37,151.39z M1058.23,117.21 M1051.52,151.95c1.48,2.06,3.93,3.41,6.71,3.41h1.21c1.37,3.27,3.82,5.99,6.93,7.75
	c-0.1,1.17-0.38,2.34-1.14,3.14l-1.32,1.41l1.38,1.34c1.98,1.92,3.17,3.08,3.17,6.23c0,2.13-0.75,7.23-7.26,11.14
	c-1.29-2.11-3.16-3.71-4.86-5.16c-2.64-2.26-4.26-3.75-4.26-5.98c0-1.19,0.22-2.14,0.49-2.86c4.31,2.96,8.67,4.59,9.03,4.72
	l1.44-3.72c-4.19-1.52-15.05-7.01-15.05-14.04C1047.99,155,1050.11,152.89,1051.52,151.95L1051.52,151.95z M1041.85,189.27
	c0-5.03,2.31-9.73,6.25-12.91c0.49,3.48,3.15,5.79,5.55,7.83c0.16,0.14,0.31,0.27,0.46,0.4c-2.63,3.28-4.06,7.29-4.06,11.5
	c0,5.01,2.01,9.73,5.67,13.28l0.47,0.46v5.14h-14.33V189.27z M1107.37,214.98h-14.33v-5.14l0.47-0.46
	c3.66-3.55,5.67-8.27,5.67-13.28s-2.01-9.73-5.67-13.28l-0.47-0.46v-9.63c2.35,0.4,4.63,1.27,6.62,2.55
	c4.83,3.13,7.72,8.36,7.72,13.99V214.98z M1099.22,164.73c2.18,1.97,4.06,3.67,4.06,6.53c0,0.56-0.06,1.09-0.14,1.6
	c-0.4-0.3-0.78-0.62-1.21-0.89c-2.64-1.71-5.71-2.84-8.85-3.28l-4.65-0.64c-2.43-0.34-4.42-2.04-5.06-4.34l-0.21-0.76
	c2.97-1.77,5.31-4.42,6.64-7.58h1.2c1.48,0,2.85-0.41,4.05-1.08c-0.55,2.03-0.75,4,0.26,5.95
	C1096.23,162.03,1097.75,163.4,1099.22,164.73L1099.22,164.73z M1086.83,115.62"/>
<path class="st137" d="M317.2,36.32h-17.5l-16.47-10.66c-1.29-0.83-2.78-1.27-4.32-1.27c-4.29,0-7.79,3.39-7.79,7.56v4.37h-3.07
	c-5.08,0-9.22,4.01-9.22,8.95v23.85c0,4.93,4.13,8.95,9.22,8.95h49.16c5.08,0,9.22-4.01,9.22-8.95V45.27
	C326.42,40.33,322.29,36.32,317.2,36.32L317.2,36.32z M320.28,69.12c0,1.64-1.38,2.98-3.07,2.98h-49.16c-1.7,0-3.07-1.34-3.07-2.98
	V45.27c0-1.64,1.38-2.98,3.07-2.98h9.22V31.95c0-1.2,1.54-1.99,2.56-1.33l18.02,11.66h19.36c1.7,0,3.07,1.34,3.07,2.98V69.12z
	 M320.28,69.12"/>
<rect x="271.12" y="48.25" class="st137" width="6.14" height="5.96"/>
<rect x="283.41" y="48.25" class="st137" width="30.72" height="5.96"/>
<rect x="271.12" y="60.17" class="st137" width="43.01" height="5.96"/>
<path class="st137" d="M674.97,75.05c-3.58,7.98,0.18,17.26,8.4,20.74l119.07,50.33c8.22,3.47,17.79-0.18,21.37-8.15l21.61-48.15
	c3.58-7.98-0.18-17.26-8.4-20.74L717.94,18.75c-8.22-3.47-17.79,0.18-21.37,8.15L674.97,75.05z M686.77,91.49l16.21-36.11l7.44,3.15
	l-8.64,19.26c-1.19,2.66,0.06,5.75,2.8,6.91l-5.4,12.04L686.77,91.49z M790.96,135.53l5.4-12.04c1.32,0.56,2.81,0.58,4.14,0.07
	c1.34-0.51,2.41-1.51,2.98-2.79l8.63-19.26l7.44,3.15l-16.2,36.11L790.96,135.53z M798.52,118.68l-4.96-2.1l8.64-19.26l4.96,2.1
	L798.52,118.68L798.52,118.68z M781.16,111.34C779.76,114.46,779.67,114.65,781.16,111.34L781.16,111.34z M724.1,87.22l8.64-19.26
	l4.96,2.1l-8.64,19.26L724.1,87.22z M738.86,113.51l16.21-36.11l7.44,3.15l-8.66,19.25c-1.19,2.66,0.06,5.75,2.8,6.91l-5.4,12.04
	L738.86,113.51z M758.83,101.9l8.64-19.26l4.96,2.1L763.79,104L758.83,101.9z M734.02,91.42l8.63-19.26l7.44,3.15l-16.2,36.11
	l-12.4-5.24l5.4-12.04c1.32,0.56,2.8,0.58,4.14,0.07C732.38,93.7,733.45,92.69,734.02,91.42L734.02,91.42z M756.22,120.85l5.4-12.04
	c2.74,1.16,5.93-0.06,7.12-2.72l8.63-19.26l2.48,1.05l-8.64,19.26c-1.19,2.66,0.06,5.75,2.8,6.91l-5.4,12.04L756.22,120.85z
	 M776.19,109.24l8.65-19.26l4.96,2.1l-8.64,19.26L776.19,109.24z M720.34,62.72l-8.64,19.26l-4.96-2.1l8.64-19.26L720.34,62.72z
	 M716.67,84.08l8.63-19.26l2.48,1.05l-8.66,19.25c-0.57,1.28-0.6,2.72-0.08,4.02c0.53,1.3,1.56,2.34,2.88,2.89l-5.4,12.04
	l-12.41-5.24l5.42-12.02c1.32,0.56,2.81,0.58,4.14,0.07S716.1,85.36,716.67,84.08L716.67,84.08z M773.59,128.19l5.41-12.03
	c2.74,1.16,5.92-0.06,7.12-2.72l8.64-19.26l2.48,1.05l-8.65,19.24c-1.19,2.66,0.06,5.75,2.8,6.91l-5.4,12.04L773.59,128.19z
	 M715.79,23.56l119.06,50.33c2.63,1.11,4.7,3.19,5.75,5.79c1.05,2.59,1,5.48-0.15,8.04l-21.61,48.15c-1.76,3.93-5.8,6.42-10.21,6.3
	l15.89-35.41c1.19-2.66-0.06-5.75-2.8-6.91l-116.6-49.28c-2.74-1.16-5.93,0.06-7.12,2.72l-15.89,35.41
	c-3.09-3.05-3.96-7.62-2.2-11.54L701.54,29c1.15-2.55,3.29-4.56,5.96-5.58C710.17,22.4,713.15,22.45,715.79,23.56L715.79,23.56z
	 M715.79,23.56"/>
<path class="st137" d="M634.11,95.07c9.05-1.75,15.25-8.88,13.81-15.91l-9.01-44.01c6.62,2.59,13.87,3.27,20.88,1.98
	c1.81-0.35,2.99-2.06,2.63-3.82c-0.36-1.76-2.12-2.9-3.94-2.55c-0.17,0.03-17.21,3.14-21.91-6.51c-0.72-1.48-2.47-2.21-4.07-1.7
	c-1.6,0.51-2.56,2.11-2.23,3.72l9.02,44.03c-12.24-4.31-26.32,4.81-24.19,15.2C616.53,92.52,625.06,96.82,634.11,95.07L634.11,95.07
	z M630.2,75.96c5.34-1.03,10.45,1.02,11.15,4.47c0.71,3.45-3.21,7.24-8.54,8.27c-5.34,1.03-10.45-1.02-11.15-4.47
	C620.95,80.78,624.86,76.99,630.2,75.96L630.2,75.96z M630.2,75.96"/>
<path class="st137" d="M842.72,199.54c-1.75,6.42,3.55,13.36,11.82,15.48c8.26,2.12,16.4-1.37,18.15-7.79l12.68-46.54
	c0.88-3.21-1.1-6.51-4.41-7.35l-26.97-6.92c-3.31-0.85-6.7,1.07-7.58,4.28l-10.16,37.29c-8.37-8.42-23.91-6.38-26.49,3.1
	c-1.75,6.42,3.55,13.36,11.82,15.48c8.26,2.12,16.4-1.37,18.15-7.79l9.51-34.9l26.97,6.92l-6.99,25.65
	C860.84,188.03,845.3,190.06,842.72,199.54L842.72,199.54z M856.12,209.2c-4.87-1.25-8.27-4.97-7.41-8.12
	c0.86-3.15,5.7-4.76,10.58-3.51c4.87,1.25,8.26,4.97,7.4,8.12C865.83,208.85,860.99,210.45,856.12,209.2L856.12,209.2z
	 M823.15,200.74c-4.87-1.25-8.27-4.97-7.41-8.12c0.86-3.15,5.7-4.76,10.58-3.51c4.87,1.25,8.26,4.97,7.4,8.12
	C832.87,200.39,828.02,201.99,823.15,200.74L823.15,200.74z M850.81,158.05l1.59-5.82l26.97,6.92l-1.59,5.82L850.81,158.05z
	 M850.81,158.05"/>
<path class="st137" d="M1131.84,57.71c0,5.43,5.69,9.85,12.68,9.85c6.99,0,12.68-4.42,12.68-9.85V18.33c0-2.72-2.27-4.92-5.07-4.92
	h-22.83c-2.8,0-5.07,2.2-5.07,4.92v31.56c-8.44-4.96-20.29-0.2-20.29,7.83c0,5.43,5.69,9.85,12.68,9.85
	c6.99,0,12.68-4.42,12.68-9.85V28.17h22.83v21.71C1143.7,44.93,1131.84,49.69,1131.84,57.71L1131.84,57.71z M1144.53,62.63
	c-4.12,0-7.61-2.25-7.61-4.92c0-2.67,3.49-4.92,7.61-4.92s7.61,2.26,7.61,4.92C1152.13,60.38,1148.65,62.63,1144.53,62.63
	L1144.53,62.63z M1116.63,62.63c-4.12,0-7.61-2.25-7.61-4.92c0-2.67,3.49-4.92,7.61-4.92s7.61,2.26,7.61,4.92
	C1124.23,60.38,1120.75,62.63,1116.63,62.63L1116.63,62.63z M1129.31,23.25v-4.92h22.83v4.92H1129.31z M1129.31,23.25"/>
<path class="st137" d="M1363.11,19.03l-5.88-5.05c-2.92-2.5-7.67-2.5-10.57,0l-33.61,28.9l-4.85-4.18c-1.14-0.98-2.97-0.98-4.12,0
	l-43.6,37.51c-1.14,0.98-1.14,2.55,0,3.54l4.87,4.18l-17.7,15.21l-1.95-1.67c-1.13-0.98-2.98-0.98-4.11,0
	c-1.14,0.98-1.14,2.55,0,3.53l1.96,1.68l-4.61,3.97l-1.96-1.68c-1.13-0.98-2.96-0.98-4.1,0c-1.13,0.98-1.13,2.56,0,3.54l1.94,1.67
	l-7.01,6.04c-1.09-0.94-3.02-0.94-4.12,0l-16.44,14.14c-1.13,0.99-1.13,2.56,0,3.54l-13.63,11.72c-1.13,0.98-1.13,2.55,0,3.54
	l12.34,10.6c0.57,0.49,1.3,0.73,2.06,0.73c0.74,0,1.48-0.24,2.05-0.73l13.63-11.72c0.57,0.49,1.32,0.73,2.06,0.73
	c0.75,0,1.49-0.24,2.06-0.73l16.43-14.14c0.55-0.46,0.86-1.1,0.86-1.77c0-0.66-0.31-1.3-0.85-1.77l7.01-6.03l1.96,1.69
	c0.57,0.48,1.3,0.73,2.06,0.73c0.74,0,1.49-0.26,2.05-0.73c1.15-0.99,1.15-2.57,0-3.54l-1.95-1.68l4.61-3.97l1.94,1.68
	c0.57,0.49,1.32,0.73,2.06,0.73c0.74,0,1.49-0.25,2.06-0.73c1.13-0.98,1.13-2.55,0-3.53l-1.96-1.68l6.33-5.44
	c0.27,0.07,0.55,0.15,0.84,0.15h5.82c0.77,0,1.5-0.27,2.05-0.73l2.91-2.5c0.56-0.48,0.85-1.11,0.85-1.77v-5
	c0-0.24-0.09-0.48-0.17-0.71l2.24-1.93c0.27,0.07,0.55,0.15,0.84,0.15h5.82c0.77,0,1.5-0.27,2.05-0.73l2.91-2.5
	c0.56-0.48,0.85-1.11,0.85-1.77v-5c0-0.24-0.09-0.48-0.17-0.71l2.24-1.93c0.27,0.07,0.55,0.15,0.84,0.15h5.82
	c0.77,0,1.5-0.27,2.05-0.73l2.91-2.5c0.56-0.48,0.85-1.11,0.85-1.77v-5c0-0.24-0.09-0.48-0.17-0.71l2.24-1.93
	c0.27,0.07,0.55,0.15,0.84,0.15h5.82c0.77,0,1.5-0.27,2.05-0.73l2.91-2.5c0.56-0.48,0.85-1.11,0.85-1.77v-5
	c0-0.24-0.09-0.48-0.17-0.71l2.24-1.93c0.27,0.07,0.55,0.15,0.84,0.15h5.82c0.77,0,1.5-0.27,2.05-0.73l2.91-2.5
	c0.56-0.48,0.85-1.11,0.85-1.77v-5c0-0.24-0.09-0.48-0.17-0.71l5.12-4.42l0.51,0.44c1.7,1.47,3.95,2.2,6.17,2.2
	c2.23,0,4.45-0.73,6.16-2.2c3.41-2.93,3.41-7.68,0-10.61l-0.5-0.43l4.79-4.13C1366.02,25.61,1366.02,21.54,1363.11,19.03
	L1363.11,19.03z M1208.02,154.45l-8.21-7.07l11.56-9.95l8.22,7.07L1208.02,154.45z M1225.75,142.73l-12.32-10.61l12.32-10.6
	l12.34,10.6L1225.75,142.73z M1266.65,77.98l39.48-33.96l2.81,2.41l-39.49,33.98L1266.65,77.98z M1240.14,126.82l-8.22-7.07
	l7.01-6.04l8.22,7.07L1240.14,126.82z M1251.27,117.25l-8.22-7.07l4.61-3.97l8.22,7.07L1251.27,117.25z M1277.07,101.94l-1.19,1.04
	h-3.4l-1.21-1.04v-2.93l1.21-1.04h3.4l0.95,0.82l0.24,0.22V101.94z M1291.6,89.44l-1.19,1.04h-3.4l-1.21-1.04v-2.93l1.21-1.04h3.4
	l0.95,0.82l0.24,0.22V89.44z M1306.13,76.94l-1.19,1.04h-3.4l-1.21-1.04v-2.93l1.21-1.04h3.4l0.95,0.82l0.24,0.22V76.94z
	 M1320.67,64.44l-1.19,1.04h-3.4l-1.21-1.04v-2.93l1.21-1.04h3.4l0.95,0.82l0.24,0.22V64.44z M1335.2,51.94l-1.19,1.04h-3.4
	l-1.21-1.04v-2.93l1.21-1.04h3.4l0.95,0.82l0.24,0.22V51.94z M1354.7,36.21c1.15,0.98,1.15,2.56,0.01,3.53
	c-1.13,0.98-2.98,0.98-4.11,0.01l-0.51-0.44l4.12-3.54L1354.7,36.21z M1358.99,24.59l-4.78,4.12l-3.6-3.1
	c-1.14-0.98-2.98-0.98-4.12,0c-1.14,0.98-1.14,2.55,0,3.54l3.6,3.1l-4.1,3.53l-3.6-3.1c-1.14-0.98-2.98-0.98-4.12,0
	c-1.14,0.98-1.14,2.57,0,3.54l3.6,3.1L1337,43.5c-0.14-0.1-0.31-0.15-0.48-0.22c-0.08-0.04-0.17-0.1-0.27-0.13
	c-0.34-0.11-0.68-0.17-1.05-0.17h-5.8c-0.78,0-1.52,0.26-2.06,0.73l-2.91,2.5c-0.54,0.47-0.85,1.1-0.85,1.76v5
	c0,0.31,0.08,0.61,0.21,0.89c0.04,0.09,0.1,0.16,0.16,0.25c0.08,0.13,0.14,0.28,0.25,0.4l-1.73,1.49c-0.14-0.1-0.31-0.15-0.47-0.22
	c-0.1-0.04-0.18-0.1-0.3-0.13c-0.32-0.11-0.66-0.17-1.04-0.17h-5.8c-0.78,0-1.52,0.26-2.06,0.73l-2.91,2.5
	c-0.54,0.47-0.85,1.1-0.85,1.76v5c0,0.31,0.08,0.61,0.21,0.89c0.04,0.09,0.1,0.16,0.16,0.25c0.08,0.13,0.14,0.28,0.25,0.4
	l-1.73,1.49c-0.14-0.1-0.31-0.15-0.47-0.22c-0.1-0.04-0.18-0.1-0.3-0.13c-0.32-0.11-0.66-0.17-1.04-0.17h-5.8
	c-0.78,0-1.52,0.26-2.06,0.73l-2.91,2.5c-0.54,0.47-0.85,1.1-0.85,1.76v5c0,0.31,0.08,0.61,0.21,0.89c0.04,0.09,0.1,0.16,0.16,0.25
	c0.08,0.13,0.14,0.28,0.25,0.4l-1.73,1.49c-0.14-0.1-0.31-0.15-0.47-0.22c-0.1-0.04-0.18-0.1-0.3-0.13
	c-0.32-0.11-0.66-0.17-1.04-0.17h-5.8c-0.78,0-1.52,0.26-2.06,0.73l-2.91,2.5c-0.54,0.47-0.85,1.1-0.85,1.76v5
	c0,0.31,0.08,0.61,0.21,0.89c0.04,0.09,0.1,0.16,0.16,0.25c0.08,0.13,0.14,0.28,0.25,0.4l-1.73,1.49c-0.14-0.1-0.31-0.15-0.47-0.22
	c-0.1-0.04-0.18-0.1-0.3-0.13c-0.32-0.11-0.66-0.17-1.04-0.17h-5.8c-0.78,0-1.52,0.26-2.06,0.73l-2.91,2.5
	c-0.54,0.47-0.85,1.1-0.85,1.76v5c0,0.31,0.08,0.61,0.21,0.89c0.04,0.09,0.1,0.16,0.16,0.25c0.08,0.13,0.14,0.28,0.25,0.4
	l-6.09,5.22l-8.22-7.07l17.7-15.21l2.66,2.28c0.57,0.49,1.3,0.73,2.06,0.73c0.74,0,1.49-0.24,2.05-0.73c1.15-0.98,1.15-2.56,0-3.54
	l-2.66-2.28l39.5-33.97l2.66,2.28c0.57,0.49,1.3,0.73,2.06,0.73c0.74,0,1.49-0.24,2.05-0.73c1.15-0.98,1.15-2.56,0-3.54l-2.66-2.28
	l33.61-28.9c0.64-0.56,1.7-0.56,2.36-0.01l5.86,5.05C1359.64,23.12,1359.64,24.03,1358.99,24.59L1358.99,24.59z M1358.99,24.59"/>
<g class="st138">
	<path class="st3" d="M687.86,125.28c-1.24-1.51-2.76-3.01-4.75-4.66l-14.67-12.82c-1.43-1.25-3.58-1.25-5.01,0l-14.64,12.79
		c-2.02,1.68-3.55,3.18-4.8,4.69c-3.32,4.05-5.65,8.77-6.9,13.76c-0.03,0.07-0.03,0.15-0.04,0.22c-0.64,2.64-0.99,5.35-0.99,8.09
		v67.63h59.77v-67.63C695.81,139.36,692.99,131.53,687.86,125.28L687.86,125.28z M684.57,127.11c0.12,0.14,0.26,0.28,0.37,0.43
		c2.83,3.44,4.86,7.43,6.02,11.65l-9,8.73h-10.42l0.03-8.19L684.57,127.11z M667.8,112.12l12.85,11.22c0.48,0.4,0.91,0.78,1.33,1.15
		l-12.93,12.55h-1.25V112.12z M651.25,123.32l12.81-11.19v24.92h-1.09l-13.01-12.63C650.36,124.07,650.78,123.69,651.25,123.32
		L651.25,123.32z M646.92,127.54c0.14-0.17,0.29-0.34,0.45-0.51l12.97,12.58v8.31H649.9l-9-8.73
		C642.06,134.97,644.09,130.98,646.92,127.54L646.92,127.54z M639.79,147.35c0-1.29,0.11-2.58,0.27-3.85l7.19,6.98v6.53
		c0,0.48,0.2,0.94,0.55,1.28c0.36,0.34,0.82,0.53,1.32,0.53l9.28-0.02l-7.73,9.81l-10.89-10.58V147.35z M660.32,162.33v15.65
		l-6.98-6.78L660.32,162.33z M639.79,163.17l8.6,8.35l-8.6,10.92V163.17z M639.79,188.4l11.26-14.3l8.67,8.42l-19.93,25.29V188.4z
		 M664.06,211.35h-22.37l21.43-27.19h0.94V211.35z M664.03,156.86c0-0.12-0.04-0.23-0.07-0.35c-0.03-0.11-0.05-0.21-0.11-0.31
		c-0.04-0.11-0.12-0.2-0.2-0.29c-0.04-0.07-0.07-0.15-0.14-0.21c-0.03-0.02-0.07-0.03-0.11-0.06c-0.03-0.03-0.05-0.06-0.07-0.09
		c-0.07-0.05-0.15-0.06-0.21-0.1c-0.12-0.07-0.22-0.12-0.35-0.17c-0.12-0.04-0.24-0.05-0.36-0.07c-0.07-0.01-0.15-0.04-0.22-0.04
		l-11.21,0.03v-3.66h11.21c1.03,0,1.87-0.8,1.87-1.81v-9.06h3.77l-0.03,9.06c-0.01,0.48,0.19,0.94,0.54,1.28
		c0.35,0.34,0.83,0.53,1.32,0.53h11.21v3.63l-10.9,0.03c-0.49-0.07-1.01,0.02-1.44,0.34c-0.49,0.36-0.71,0.92-0.7,1.49v23.51h-3.77
		v-23.57C664.06,156.94,664.04,156.91,664.03,156.86L664.03,156.86z M671.57,162.38l6.95,8.82l-6.95,6.74V162.38z M667.8,211.35
		v-27.19h0.94l21.42,27.19H667.8z M692.07,207.81l-19.93-25.29l8.66-8.42l11.27,14.31V207.81z M692.07,182.44l-8.61-10.92l8.61-8.35
		V182.44z M692.07,158.05l-10.9,10.57l-7.72-9.8l9.27-0.02c1.03,0,1.87-0.82,1.87-1.81v-6.5l7.19-6.98
		c0.16,1.27,0.27,2.56,0.27,3.85V158.05z M692.07,158.05"/>
</g>
<path class="st137" d="M1303.65,133.49c-2.62-1.7-5.09-3.3-6.83-5.59l-0.31-0.41c-1.03-1.34-2.2-2.87-2.38-4.15
	c-0.02-0.11-0.08-0.2-0.11-0.31c-0.05-0.16-0.09-0.32-0.17-0.47c-0.08-0.15-0.17-0.27-0.28-0.4c-0.1-0.12-0.19-0.23-0.31-0.33
	c-0.14-0.12-0.29-0.2-0.45-0.29c-0.12-0.06-0.24-0.13-0.37-0.17c-0.18-0.06-0.36-0.09-0.56-0.11c-0.1-0.01-0.19-0.05-0.29-0.05
	c-0.06,0-0.11,0.03-0.17,0.03c-0.07,0-0.12-0.02-0.18-0.01c-0.11,0.01-0.2,0.07-0.31,0.1c-0.17,0.04-0.34,0.09-0.49,0.17
	c-0.14,0.07-0.27,0.16-0.39,0.25c-0.13,0.1-0.26,0.2-0.37,0.32c-0.11,0.12-0.18,0.24-0.27,0.38c-0.09,0.14-0.16,0.27-0.22,0.43
	c-0.05,0.15-0.08,0.31-0.1,0.48c-0.02,0.11-0.07,0.21-0.07,0.32v44.38c-2.15-1.27-4.8-2.04-7.7-2.04c-7.07,0-12.83,4.47-12.83,9.96
	s5.76,9.96,12.83,9.96s12.83-4.47,12.83-9.96V132.5c2.01,2.08,4.35,3.64,6.64,5.13c3.07,2,5.98,3.88,7.48,6.87
	c0.94,1.87,1.4,3.9,1.28,5.72c-0.28,4.43-2,8.9-4.5,11.65c-0.93,1.03-0.83,2.6,0.23,3.52c0.49,0.42,1.09,0.62,1.69,0.62
	c0.71,0,1.42-0.29,1.92-0.85c3.21-3.55,5.42-9.15,5.77-14.64c0.17-2.7-0.45-5.54-1.8-8.21
	C1310.77,138.12,1307.15,135.77,1303.65,133.49z M1281.33,180.95c-4.17,0-7.7-2.28-7.7-4.98c0-2.7,3.53-4.98,7.7-4.98
	s7.7,2.28,7.7,4.98C1289.02,178.67,1285.5,180.95,1281.33,180.95z"/>
<g class="st138">
	<path class="st3" d="M899.57,153.42c-1.45,0-2.63-1.15-2.63-2.55c0-1.41,1.18-2.55,2.63-2.55h5.62
		c6.39-10.73,10.03-24.4,10.81-40.65c-14.94-9.05-26.83-32.76-35.34-70.48c-3.08-0.93-5.21-3.71-5.21-6.83v-1.55
		c0-3.76,3.16-7.96,7.4-7.96h1.37c0-0.05-0.01-0.1-0.01-0.15c0-4.13,3.22-6.8,8.2-6.8h74.84c4.98,0,8.19,2.67,8.19,6.8
		c0,0.05,0,0.11,0,0.16c4,0.16,7.97,4.1,7.97,7.96v1.55c0,3.47-2.54,6.4-6.06,7.04c-8.31,36.85-18.79,59.44-32.03,69.05
		c0.65,16.78,4.31,30.86,10.87,41.86h5.48c1.44,0,2.62,1.14,2.62,2.55c0,1.41-1.17,2.55-2.62,2.55H899.57z M950.15,148.31
		c-1.95-3.62-3.65-7.62-5.07-11.91l-9.21,11.91H950.15z M925.36,148.31l-9.11-11.77c-1.41,4.24-3.1,8.2-5.03,11.77H925.36z
		 M918.04,130.48c0.11,0.08,0.24,0.18,0.34,0.32l12.23,15.82l12.23-15.82c0.13-0.18,0.3-0.31,0.46-0.43
		c-1.63-6.42-2.68-13.44-3.12-20.88c-0.1,0.04-0.2,0.08-0.3,0.11c-0.15,0.06-0.29,0.11-0.44,0.17l-0.36,0.14
		c-0.52,0.21-1,0.39-1.45,0.54l-1.3,0.37c-0.24,0.07-0.48,0.14-0.73,0.2c-0.62,0.15-1.31,0.28-2.11,0.4
		c-0.12,0.02-0.23,0.03-0.35,0.04c-0.11,0.01-0.23,0.02-0.34,0.04c-0.6,0.07-1.1,0.12-1.61,0.14c-0.28,0.04-0.57,0.06-0.89,0.06
		c-0.12,0-0.25,0-0.39-0.01c-0.04,0.01-0.07,0.01-0.11,0.01c-2.94,0-5.85-0.52-8.67-1.55C920.69,117.36,919.65,124.19,918.04,130.48
		z M923.33,83.44c1.35,0,2.47,0.99,2.6,2.31c1.39,14.44,3.53,19.07,4.4,20.4c0.78-1.23,3.43-6.67,4.76-24.98
		c0.1-1.33,1.25-2.37,2.61-2.37c0.07,0,0.14,0,0.2,0.01c1.44,0.1,2.54,1.32,2.43,2.73c-0.53,7.23-1.3,13.21-2.26,17.78
		c1.71-2.13,3.32-4.45,4.78-6.9c0.47-0.78,1.34-1.27,2.27-1.27c0.46,0,0.92,0.12,1.32,0.34c1.25,0.71,1.68,2.28,0.95,3.49
		c-1.44,2.41-3.1,4.81-4.85,7.03c11.72-8.83,21.6-30.51,29.38-64.48h-10.09c-0.27,11.9-2.41,25.08-5.73,35.31
		c-0.35,1.05-1.37,1.78-2.5,1.78c-0.28,0-0.55-0.04-0.8-0.12c-0.66-0.2-1.21-0.65-1.54-1.25c-0.33-0.61-0.39-1.3-0.18-1.95
		c3.17-9.75,5.22-22.35,5.5-33.77h-13.81c-0.01,2.82-0.03,6.62-0.07,9.08c-0.03,1.39-1.21,2.51-2.63,2.51
		c-1.49-0.02-2.65-1.19-2.63-2.59c0.03-2.31,0.06-5.99,0.07-9h-13.84c0.03,7.33,0.17,15.18,0.37,20.54
		c0.05,1.39-1.08,2.58-2.53,2.64h-0.1c-1.42,0-2.58-1.08-2.63-2.47c-0.21-5.77-0.35-13.69-0.37-20.71H904.6
		c0.07,3.35,0.26,7.94,0.6,11.08c0.15,1.4-0.9,2.66-2.34,2.81c-0.09,0.01-0.19,0.01-0.28,0.01c-1.34,0-2.47-0.98-2.61-2.28
		c-0.36-3.3-0.56-8.13-0.63-11.63h-13.24c4.75,20.56,15.33,56.08,33.34,66.21c-3.97-4.72-7.71-10.77-10.35-16.76
		c-0.28-0.63-0.29-1.33-0.03-1.96c0.26-0.63,0.76-1.13,1.41-1.39c0.33-0.14,0.67-0.21,1.03-0.21c1.05,0,1.99,0.61,2.4,1.54
		c2.86,6.46,6.19,11.3,8.66,14.41c-0.76-3.59-1.39-8.02-1.89-13.17c-0.07-0.68,0.14-1.34,0.59-1.87c0.45-0.53,1.08-0.85,1.79-0.91
		C923.15,83.44,923.24,83.44,923.33,83.44z M882.84,25.95c-0.98,0-2.14,1.55-2.14,2.86v1.55c0,1.15,0.96,2.08,2.14,2.08H976
		c1.18,0,2.14-0.93,2.14-2.08v-1.55c0-1.15-1.76-2.86-2.94-2.86H882.84z M970.18,20.85c0-0.05,0.01-0.1,0.01-0.15
		c0-0.46,0-1.69-2.94-1.69h-74.84c-2.95,0-2.95,1.23-2.95,1.69c0,0.05,0,0.1,0,0.15H970.18z"/>
	<path class="st3" d="M975.2,21.08h-0.02c0.01-0.12,0.02-0.25,0.02-0.39c0-3.98-3.13-6.56-7.95-6.56h-74.84
		c-4.84,0-7.97,2.58-7.97,6.56c0,0.14,0.02,0.26,0.02,0.39h-1.62c-4.09,0-7.16,4.09-7.16,7.73v1.55c0,3.16,2.19,5.81,5.18,6.64
		c9.94,44.08,23.23,63.25,35.39,70.54c-0.77,16.42-4.44,30.2-10.92,41h-5.76c-1.32,0-2.39,1.04-2.39,2.32
		c0,1.28,1.07,2.32,2.39,2.32h62.1c1.32,0,2.38-1.04,2.38-2.32c0-1.28-1.06-2.32-2.38-2.32h-5.62
		c-6.64-11.07-10.33-25.25-10.98-42.2c13.21-9.52,23.79-32.38,32.07-69.14c3.41-0.54,6.02-3.38,6.02-6.84v-1.55
		C983.16,24.99,979.15,21.08,975.2,21.08L975.2,21.08z M889.22,20.69c0-0.48,0-1.92,3.19-1.92h74.84c3.18,0,3.18,1.45,3.18,1.92
		c0,0.14-0.01,0.26-0.03,0.39h-81.15C889.22,20.96,889.22,20.83,889.22,20.69L889.22,20.69z M916.17,136.04l9.67,12.51h-15.01
		C912.93,144.7,914.7,140.52,916.17,136.04L916.17,136.04z M935.39,148.54l9.77-12.64c1.47,4.53,3.25,8.75,5.38,12.64H935.39z
		 M940.41,109.15c0.43,7.66,1.49,14.78,3.17,21.32c-0.2,0.12-0.4,0.26-0.55,0.46l-12.42,16.07l-12.42-16.07
		c-0.12-0.16-0.27-0.25-0.42-0.36c1.64-6.38,2.7-13.3,3.16-20.75c3.11,1.18,6.1,1.64,8.89,1.64c0.04,0,0.08-0.01,0.13-0.01
		c0.14,0.01,0.26,0.01,0.37,0.01c0.24,0,0.53-0.01,0.87-0.06c0.53-0.02,1.05-0.08,1.59-0.14c0.22-0.03,0.45-0.04,0.69-0.08
		c0.7-0.1,1.4-0.23,2.09-0.4c0.34-0.08,0.66-0.18,0.99-0.27c0.34-0.1,0.67-0.19,1.02-0.29c0.49-0.16,0.97-0.34,1.45-0.53
		c0.12-0.04,0.23-0.09,0.35-0.14C939.71,109.42,940.06,109.3,940.41,109.15L940.41,109.15z M941.3,103.19
		c2.13-2.57,4.19-5.48,5.89-8.32c0.67-1.11,0.27-2.52-0.86-3.17c-1.14-0.63-2.6-0.27-3.27,0.84c-1.85,3.1-3.71,5.63-5.43,7.7
		c0.99-4.35,1.85-10.37,2.47-18.72c0.09-1.28-0.9-2.39-2.22-2.48c-1.3-0.1-2.46,0.87-2.56,2.15c-1.27,17.44-3.79,23.86-5,25.38
		c-0.83-1.06-3.15-5.33-4.64-20.79c-0.13-1.28-1.27-2.22-2.6-2.09c-1.32,0.11-2.29,1.24-2.16,2.52c0.59,6.03,1.31,10.62,2.1,14.11
		c-3.07-3.71-6.51-8.87-9.33-15.25c-0.51-1.18-1.92-1.72-3.12-1.21c-1.23,0.5-1.79,1.87-1.26,3.05c2.94,6.64,7.03,12.96,11.03,17.53
		c-0.15-0.08-0.32-0.14-0.48-0.21c-0.07-0.05-0.15-0.06-0.22-0.09c-17.87-9.71-28.52-43.7-33.83-66.82h13.77
		c0.07,3.82,0.28,8.65,0.63,11.84c0.13,1.19,1.16,2.07,2.37,2.07c0.08,0,0.17,0,0.26-0.01c1.32-0.14,2.26-1.28,2.12-2.56
		c-0.33-3.03-0.54-7.65-0.61-11.34h14.31c0.02,7.39,0.18,15.39,0.37,20.94c0.05,1.26,1.11,2.24,2.39,2.24c0.02,0,0.06,0,0.09,0
		c1.32-0.06,2.35-1.12,2.3-2.4c-0.21-5.5-0.35-13.44-0.37-20.78h14.32c-0.01,3.05-0.04,6.86-0.07,9.23
		c-0.02,1.28,1.04,2.33,2.36,2.36h0.04c1.31,0,2.37-1.02,2.39-2.29c0.04-2.39,0.06-6.24,0.07-9.3h14.29
		c-0.26,11.36-2.31,24.2-5.52,34.07c-0.4,1.22,0.3,2.52,1.56,2.91c0.24,0.08,0.48,0.11,0.73,0.11c1,0,1.95-0.63,2.27-1.62
		c3.35-10.3,5.48-23.67,5.73-35.47h10.63C964.09,72.95,953.73,95,941.3,103.19L941.3,103.19z M978.38,30.36
		c0,1.28-1.06,2.31-2.38,2.31h-93.16c-1.3,0-2.38-1.03-2.38-2.31v-1.55c0-1.44,1.27-3.09,2.38-3.09h92.36
		c1.32,0,3.18,1.82,3.18,3.09V30.36z M978.38,30.36"/>
</g>
<g class="st138">
	<path class="st3" d="M579.54,65.28L579.54,65.28c-0.81,0-1.59-0.31-2.16-0.87l-19.87-19.28c-2.35-2.28-3.64-5.31-3.64-8.53
		c0-3.22,1.29-6.25,3.64-8.53c4.85-4.7,12.73-4.7,17.57,0l4.45,4.32l4.47-4.34c2.35-2.28,5.47-3.53,8.79-3.53
		c3.32,0,6.44,1.25,8.79,3.53c2.35,2.28,3.64,5.31,3.64,8.53c0,3.22-1.29,6.25-3.64,8.53l-19.89,19.3
		C581.13,64.97,580.35,65.28,579.54,65.28z M566.3,30.47c-1.62,0-3.24,0.6-4.47,1.79c-1.19,1.16-1.85,2.7-1.85,4.34
		c0,1.64,0.66,3.18,1.85,4.34l17.71,17.19l17.73-17.2c1.19-1.16,1.85-2.7,1.85-4.34c0-1.64-0.66-3.18-1.85-4.34
		c-1.19-1.16-2.78-1.8-4.47-1.8c-1.69,0-3.28,0.64-4.47,1.8l-6.63,6.43c-0.57,0.56-1.35,0.87-2.16,0.87l0,0
		c-0.81,0-1.59-0.31-2.16-0.87l-6.61-6.42C569.54,31.07,567.92,30.47,566.3,30.47z"/>
</g>
<g class="st138">
	<path class="st3" d="M1180.34,127.68L1180.34,127.68c-0.7,0-1.38-0.27-1.87-0.75l-17.24-16.73c-2.04-1.98-3.16-4.6-3.16-7.4
		s1.12-5.42,3.16-7.4c4.21-4.08,11.04-4.08,15.25,0l3.87,3.75l3.88-3.76c2.04-1.98,4.74-3.07,7.62-3.07c2.88,0,5.59,1.09,7.62,3.07
		c2.04,1.98,3.16,4.6,3.16,7.4s-1.12,5.42-3.16,7.4l-17.26,16.74C1181.71,127.4,1181.04,127.68,1180.34,127.68z M1168.85,97.47
		c-1.4,0-2.81,0.52-3.88,1.56c-1.04,1.01-1.61,2.34-1.61,3.76s0.57,2.76,1.61,3.76l15.37,14.92l15.38-14.93
		c1.04-1.01,1.61-2.34,1.61-3.76s-0.57-2.76-1.61-3.76c-1.04-1.01-2.41-1.56-3.88-1.56c-1.47,0-2.84,0.55-3.88,1.56l-5.75,5.58
		c-0.5,0.48-1.17,0.75-1.87,0.75l0,0c-0.7,0-1.38-0.27-1.87-0.75l-5.74-5.57C1171.66,97.99,1170.25,97.47,1168.85,97.47z"/>
</g>
<g class="st138">
	<path class="st3" d="M545.32,156c-0.62,0-1.18-0.21-1.66-0.62c-0.46-0.39-0.77-0.9-0.92-1.51c-0.1-0.23-0.15-0.54-0.01-0.96
		c0.02-0.07,0.04-0.12,0.05-0.16c-0.01-0.32,0.16-0.6,0.33-0.84l0.27-0.4l0.31-0.37c0.2-0.23,0.31-0.35,0.4-0.44
		c0.21-0.23,0.64-0.69,1.27-1.37l1.46-1.55c0.27-0.29,0.69-0.81,1.25-1.55c0.55-0.73,0.99-1.39,1.3-1.98
		c0.32-0.6,0.7-1.39,1.11-2.35c0.33-0.77,0.63-1.58,0.89-2.44c-4.23-2.42-7.64-5.41-10.13-8.91c-2.62-3.68-3.95-7.69-3.95-11.91
		c0-4.9,1.76-9.48,5.23-13.62c3.43-4.1,8.15-7.37,14.03-9.74c5.85-2.36,12.32-3.55,19.24-3.55c6.91,0,13.39,1.19,19.24,3.55
		c5.87,2.37,10.59,5.64,14.03,9.74c3.47,4.14,5.23,8.72,5.23,13.62c0,4.9-1.76,9.48-5.23,13.61c-3.43,4.09-8.15,7.37-14.03,9.74
		c-5.84,2.36-12.32,3.55-19.24,3.55c-1.88,0-3.84-0.1-5.83-0.29c-5.56,4.7-12.1,8.01-19.42,9.83c-1.38,0.38-3.04,0.69-4.9,0.92
		l-0.05,0.01H545.32z M575.78,98.51c-5.59,0-10.89,0.94-15.76,2.79c-4.83,1.84-8.72,4.34-11.56,7.45c-2.78,3.05-4.19,6.38-4.19,9.9
		c0,2.87,0.96,5.66,2.86,8.27c1.93,2.66,4.69,4.99,8.22,6.94l4.2,2.34l-1.3,4.5c-0.49,1.79-1.14,3.53-1.95,5.2
		c3.36-1.57,6.48-3.56,9.28-5.95l2.07-1.78l2.75,0.28c1.92,0.21,3.73,0.32,5.39,0.32c5.59,0,10.9-0.94,15.76-2.79
		c4.83-1.84,8.72-4.34,11.56-7.45c2.78-3.05,4.2-6.38,4.2-9.9c0-3.52-1.41-6.85-4.2-9.9c-2.83-3.1-6.72-5.61-11.56-7.45
		C586.68,99.45,581.38,98.51,575.78,98.51z"/>
	<path class="st3" d="M608.43,105.51c-3.36-4.01-7.94-7.18-13.71-9.51c-5.78-2.33-12.09-3.49-18.93-3.49
		c-6.84,0-13.15,1.17-18.93,3.49c-5.78,2.33-10.35,5.5-13.72,9.51c-3.37,4.02-5.05,8.39-5.05,13.13c0,4.08,1.27,7.91,3.81,11.47
		c2.54,3.57,6.01,6.56,10.41,8.98c-0.31,1.09-0.67,2.12-1.09,3.1c-0.42,0.98-0.8,1.78-1.14,2.41c-0.33,0.63-0.79,1.32-1.37,2.08
		c-0.58,0.76-1.01,1.3-1.3,1.61c-0.3,0.31-0.78,0.83-1.45,1.55c-0.67,0.72-1.11,1.19-1.3,1.41c-0.03,0.02-0.14,0.14-0.34,0.37
		c-0.19,0.23-0.29,0.35-0.29,0.35l-0.25,0.37c-0.14,0.2-0.2,0.33-0.19,0.39c0.01,0.06-0.01,0.19-0.08,0.41
		c-0.07,0.22-0.06,0.38,0.02,0.49v0.04c0.11,0.46,0.34,0.84,0.67,1.12c0.34,0.29,0.72,0.43,1.14,0.43h0.21
		c1.83-0.22,3.42-0.52,4.8-0.9c7.35-1.82,13.8-5.12,19.35-9.88c2.1,0.22,4.14,0.33,6.1,0.33c6.85,0,13.16-1.16,18.93-3.49
		c5.78-2.33,10.35-5.5,13.71-9.51c3.37-4.01,5.05-8.39,5.05-13.13C613.48,113.9,611.79,109.53,608.43,105.51L608.43,105.51z
		 M603.69,129.05c-2.93,3.21-6.89,5.76-11.86,7.65c-4.98,1.89-10.33,2.84-16.05,2.84c-1.71,0-3.53-0.11-5.47-0.33l-2.4-0.24
		l-1.81,1.55c-3.45,2.94-7.3,5.27-11.57,6.98c1.29-2.2,2.27-4.55,2.95-7.02l1.13-3.92l-3.66-2.04c-3.65-2.01-6.47-4.4-8.48-7.17
		c-2.01-2.76-3.01-5.67-3.01-8.72c0-3.73,1.46-7.2,4.39-10.41c2.93-3.21,6.89-5.76,11.87-7.65c4.98-1.89,10.33-2.84,16.05-2.84
		c5.72,0,11.07,0.94,16.05,2.84c4.98,1.89,8.93,4.44,11.86,7.66c2.93,3.21,4.4,6.68,4.4,10.41
		C608.09,122.37,606.63,125.84,603.69,129.05L603.69,129.05z M603.69,129.05"/>
</g>
<path class="st137" d="M1270.09,203.11c-0.97,0-1.9,0.19-2.78,0.57c-2.78,1.18-4.63,3.69-4.63,6.43c0,3.69,3.17,6.57,7.21,6.57
	c4.29,0,6.97-3.36,6.97-6.43C1276.86,207.93,1275.2,203.11,1270.09,203.11z"/>
<linearGradient id="SVGID_2_" gradientUnits="userSpaceOnUse" x1="-3.514" y1="201.3807" x2="1403.514" y2="28.6194">
	<stop  offset="0" style="stop-color:#4D7CBE"/>
	<stop  offset="0.2539" style="stop-color:#416399"/>
	<stop  offset="0.5585" style="stop-color:#384D7A"/>
	<stop  offset="0.8181" style="stop-color:#334169"/>
	<stop  offset="1" style="stop-color:#303D63"/>
</linearGradient>
<rect style="opacity:0.8;fill:url(#SVGID_2_);" width="1400" height="230"/>
<g>
	<path class="st3" d="M55.13,188.34c0,3.24-1.2,5.8-3.61,7.66c-2.4,1.87-5.75,2.8-10.04,2.8c-3.95,0-7.44-0.72-10.48-2.16v-7.07
		c2.5,1.08,4.61,1.84,6.34,2.28c1.73,0.44,3.31,0.66,4.75,0.66c1.72,0,3.04-0.32,3.96-0.96c0.92-0.64,1.38-1.59,1.38-2.85
		c0-0.7-0.2-1.33-0.61-1.88c-0.4-0.55-1-1.08-1.78-1.58c-0.78-0.51-2.38-1.32-4.8-2.43c-2.26-1.03-3.96-2.02-5.09-2.97
		c-1.13-0.95-2.03-2.06-2.71-3.32c-0.68-1.26-1.01-2.73-1.01-4.42c0-3.18,1.11-5.67,3.33-7.49c2.22-1.82,5.29-2.73,9.2-2.73
		c1.92,0,3.76,0.22,5.51,0.66c1.75,0.44,3.57,1.06,5.48,1.87l-2.53,5.92c-1.97-0.79-3.61-1.33-4.9-1.65
		c-1.29-0.31-2.56-0.47-3.81-0.47c-1.49,0-2.62,0.34-3.42,1.01c-0.79,0.67-1.19,1.55-1.19,2.63c0,0.67,0.16,1.26,0.48,1.75
		c0.32,0.5,0.83,0.98,1.53,1.45c0.7,0.47,2.36,1.31,4.97,2.52c3.46,1.61,5.83,3.21,7.11,4.83C54.49,184.02,55.13,186,55.13,188.34z"
		/>
	<path class="st3" d="M72.72,198.81c-8.81,0-13.21-4.69-13.21-14.07c0-4.67,1.2-8.23,3.59-10.7c2.4-2.47,5.83-3.7,10.3-3.7
		c3.27,0,6.21,0.62,8.81,1.87l-2.28,5.8c-1.21-0.47-2.35-0.86-3.39-1.17c-1.05-0.3-2.09-0.45-3.14-0.45c-4.02,0-6.02,2.77-6.02,8.3
		c0,5.37,2.01,8.06,6.02,8.06c1.48,0,2.86-0.19,4.13-0.58c1.27-0.38,2.53-0.99,3.8-1.8v6.41c-1.25,0.77-2.51,1.3-3.78,1.6
		C76.27,198.66,74.66,198.81,72.72,198.81z"/>
	<path class="st3" d="M114,198.31h-7.72v-16.04c0-3.96-1.52-5.94-4.56-5.94c-2.16,0-3.72,0.71-4.68,2.14
		c-0.96,1.42-1.44,3.73-1.44,6.93v12.92h-7.72v-38.22h7.72v7.79c0,0.61-0.06,2.03-0.18,4.27l-0.18,2.21h0.4
		c1.72-2.69,4.45-4.03,8.2-4.03c3.32,0,5.85,0.87,7.57,2.6c1.72,1.74,2.58,4.22,2.58,7.47V198.31z"/>
	<path class="st3" d="M147.66,184.53c0,4.47-1.21,7.97-3.64,10.49c-2.43,2.52-5.81,3.78-10.15,3.78c-2.72,0-5.11-0.58-7.19-1.73
		c-2.08-1.15-3.67-2.81-4.78-4.97c-1.11-2.16-1.67-4.68-1.67-7.57c0-4.49,1.21-7.97,3.62-10.46c2.41-2.49,5.8-3.73,10.17-3.73
		c2.72,0,5.11,0.57,7.19,1.72c2.08,1.15,3.67,2.79,4.78,4.94C147.11,179.14,147.66,181.65,147.66,184.53z M128.1,184.53
		c0,2.72,0.46,4.77,1.38,6.16c0.92,1.39,2.42,2.09,4.49,2.09c2.06,0,3.54-0.69,4.44-2.08c0.9-1.38,1.35-3.44,1.35-6.18
		c0-2.72-0.46-4.76-1.37-6.12c-0.91-1.36-2.4-2.04-4.48-2.04c-2.06,0-3.54,0.67-4.45,2.03C128.56,179.76,128.1,181.8,128.1,184.53z"
		/>
	<path class="st3" d="M161.76,198.31h-7.72v-38.22h7.72V198.31z"/>
	<path class="st3" d="M187.83,198.31l-1.49-3.73h-0.2c-1.3,1.59-2.64,2.69-4.01,3.3c-1.38,0.62-3.17,0.92-5.38,0.92
		c-2.72,0-4.86-0.75-6.42-2.26c-1.56-1.51-2.34-3.65-2.34-6.44c0-2.91,1.05-5.06,3.15-6.45c2.1-1.38,5.27-2.15,9.5-2.3l4.91-0.15
		v-1.2c0-2.78-1.47-4.18-4.4-4.18c-2.26,0-4.92,0.66-7.97,1.99l-2.56-5.06c3.26-1.65,6.87-2.48,10.83-2.48c3.8,0,6.71,0.8,8.73,2.41
		c2.02,1.61,3.04,4.04,3.04,7.32v18.3H187.83z M185.55,185.59l-2.99,0.1c-2.24,0.07-3.91,0.46-5.01,1.18
		c-1.1,0.72-1.65,1.82-1.65,3.29c0,2.11,1.25,3.17,3.75,3.17c1.79,0,3.22-0.5,4.29-1.5c1.07-1,1.61-2.32,1.61-3.98V185.59z"/>
	<path class="st3" d="M233.64,185.64h-15.03l-5.16,12.67h-2.86l14.88-36.06h1.65l14.58,36.06h-2.91L233.64,185.64z M219.55,183.38
		h13.24l-5.04-12.94c-0.42-1.02-0.93-2.42-1.52-4.22c-0.46,1.57-0.95,3-1.49,4.27L219.55,183.38z"/>
	<path class="st3" d="M248.75,186.6l14.05-14.98h3.04L255,183.01l11.77,15.3h-3.01l-10.45-13.48l-4.51,3.98v9.51h-2.51v-38.22h2.51
		v19.16l-0.18,7.34H248.75z"/>
	<path class="st3" d="M288.08,198.31l-0.63-4.22h-0.2c-1.38,1.72-2.81,2.94-4.26,3.65c-1.46,0.71-3.18,1.07-5.18,1.07
		c-2.7,0-4.8-0.67-6.3-2.01c-1.5-1.34-2.25-3.2-2.25-5.57c0-2.6,1.12-4.63,3.35-6.07c2.24-1.44,5.47-2.2,9.71-2.28l5.24-0.15v-1.77
		c0-2.54-0.53-4.45-1.59-5.75c-1.06-1.29-2.78-1.94-5.14-1.94c-2.55,0-5.19,0.69-7.92,2.06l-0.94-2.11
		c3.02-1.38,6.01-2.06,8.96-2.06c3.02,0,5.28,0.76,6.77,2.29c1.49,1.52,2.24,3.9,2.24,7.12v17.76H288.08z M277.96,196.59
		c2.94,0,5.25-0.81,6.95-2.44c1.7-1.63,2.54-3.89,2.54-6.79v-2.63l-4.81,0.2c-3.86,0.18-6.62,0.76-8.26,1.75
		c-1.64,0.99-2.47,2.53-2.47,4.63c0,1.67,0.53,2.97,1.58,3.89C274.55,196.13,276.04,196.59,277.96,196.59z"/>
	<path class="st3" d="M308.91,171.1c1.99,0,3.71,0.35,5.16,1.06c1.45,0.7,2.75,1.91,3.9,3.61h0.15c-0.1-2.06-0.15-4.09-0.15-6.07
		v-9.6h2.48v38.22h-1.65l-0.63-4.08h-0.2c-2.09,3.05-5.1,4.57-9.01,4.57c-3.8,0-6.7-1.15-8.71-3.44c-2.01-2.29-3.01-5.63-3.01-10.02
		c0-4.62,1-8.15,2.99-10.59C302.22,172.32,305.12,171.1,308.91,171.1z M308.91,173.31c-3,0-5.26,1.02-6.77,3.07
		c-1.51,2.05-2.27,5.02-2.27,8.92c0,7.57,3.03,11.35,9.09,11.35c3.1,0,5.38-0.88,6.83-2.63c1.45-1.75,2.18-4.64,2.18-8.67v-0.42
		c0-4.13-0.71-7.1-2.14-8.9C314.41,174.21,312.1,173.31,308.91,173.31z"/>
	<path class="st3" d="M340.81,198.81c-4,0-7.12-1.2-9.35-3.59c-2.24-2.39-3.35-5.74-3.35-10.05c0-4.26,1.08-7.67,3.24-10.23
		c2.16-2.56,5.07-3.84,8.73-3.84c3.24,0,5.8,1.1,7.67,3.29c1.87,2.19,2.81,5.18,2.81,8.94v1.97h-19.82c0.03,3.67,0.92,6.47,2.65,8.4
		c1.73,1.93,4.21,2.9,7.43,2.9c1.57,0,2.95-0.11,4.14-0.32c1.19-0.21,2.7-0.67,4.52-1.38v2.21c-1.55,0.65-2.99,1.1-4.3,1.34
		C343.84,198.69,342.39,198.81,340.81,198.81z M340.07,173.26c-2.65,0-4.78,0.85-6.38,2.54c-1.6,1.69-2.54,4.14-2.81,7.33h17.01
		c0-3.09-0.69-5.51-2.08-7.26C344.43,174.13,342.52,173.26,340.07,173.26z"/>
	<path class="st3" d="M392.51,198.31V180.8c0-2.6-0.52-4.5-1.57-5.7c-1.05-1.2-2.65-1.79-4.81-1.79c-2.82,0-4.9,0.75-6.25,2.26
		c-1.35,1.51-2.02,3.87-2.02,7.1v15.65h-2.56v-18.25c0-4.5-2.13-6.76-6.38-6.76c-2.89,0-4.99,0.81-6.3,2.44
		c-1.32,1.63-1.97,4.24-1.97,7.82v14.74h-2.51v-26.7h2.08l0.53,3.66h0.15c0.76-1.33,1.84-2.35,3.24-3.08
		c1.4-0.73,2.94-1.09,4.63-1.09c4.34,0,7.12,1.58,8.35,4.74h0.1c0.89-1.52,2.1-2.69,3.61-3.51c1.51-0.82,3.23-1.23,5.15-1.23
		c3,0,5.26,0.78,6.76,2.33c1.5,1.56,2.25,4.03,2.25,7.42v17.46H392.51z"/>
	<path class="st3" d="M403.55,164.2c0-1.57,0.53-2.36,1.59-2.36c0.52,0,0.93,0.2,1.23,0.61c0.29,0.41,0.44,0.99,0.44,1.74
		c0,0.74-0.15,1.32-0.44,1.74c-0.3,0.43-0.7,0.64-1.23,0.64C404.08,166.58,403.55,165.78,403.55,164.2z M406.41,198.31h-2.51v-26.7
		h2.51V198.31z"/>
	<path class="st3" d="M426.61,198.81c-3.93,0-7.01-1.2-9.24-3.61c-2.23-2.41-3.34-5.76-3.34-10.07c0-4.42,1.16-7.86,3.47-10.33
		c2.31-2.46,5.48-3.7,9.49-3.7c2.38,0,4.66,0.4,6.83,1.2l-0.68,2.16c-2.38-0.77-4.45-1.15-6.2-1.15c-3.37,0-5.93,1.01-7.67,3.03
		c-1.74,2.02-2.61,4.93-2.61,8.73c0,3.6,0.87,6.42,2.61,8.46c1.74,2.04,4.17,3.06,7.29,3.06c2.5,0,4.82-0.43,6.96-1.3v2.26
		C431.76,198.39,429.46,198.81,426.61,198.81z"/>
	<path class="st3" d="M442.7,186.6l14.05-14.98h3.04l-10.83,11.4l11.77,15.3h-3.01l-10.45-13.48l-4.51,3.98v9.51h-2.51v-38.22h2.51
		v19.16l-0.18,7.34H442.7z"/>
	<path class="st3" d="M482.04,198.31l-0.63-4.22h-0.2c-1.38,1.72-2.81,2.94-4.26,3.65s-3.18,1.07-5.18,1.07
		c-2.7,0-4.8-0.67-6.3-2.01c-1.5-1.34-2.25-3.2-2.25-5.57c0-2.6,1.12-4.63,3.35-6.07s5.47-2.2,9.71-2.28l5.24-0.15v-1.77
		c0-2.54-0.53-4.45-1.59-5.75c-1.06-1.29-2.78-1.94-5.14-1.94c-2.55,0-5.19,0.69-7.92,2.06l-0.94-2.11
		c3.02-1.38,6.01-2.06,8.96-2.06c3.02,0,5.28,0.76,6.77,2.29c1.49,1.52,2.24,3.9,2.24,7.12v17.76H482.04z M471.91,196.59
		c2.94,0,5.25-0.81,6.95-2.44c1.7-1.63,2.54-3.89,2.54-6.79v-2.63l-4.81,0.2c-3.86,0.18-6.62,0.76-8.26,1.75
		c-1.64,0.99-2.47,2.53-2.47,4.63c0,1.67,0.53,2.97,1.58,3.89C468.5,196.13,469.99,196.59,471.91,196.59z"/>
</g>
</svg>
