<?xml version="1.0" encoding="utf-8"?>
<!-- Generator: Adobe Illustrator 24.2.1, SVG Export Plug-In . SVG Version: 6.00 Build 0)  -->
<svg version="1.1" id="Warstwa_1" xmlns="http://www.w3.org/2000/svg" xmlns:xlink="http://www.w3.org/1999/xlink" x="0px" y="0px"
	 viewBox="0 0 400 400" style="enable-background:new 0 0 400 400;" xml:space="preserve">
<style type="text/css">
	.st0{opacity:0.8;fill:url(#SVGID_1_);}
	.st1{fill:#FFFFFF;}
	.st2{opacity:0.8;fill:url(#SVGID_2_);}
	.st3{fill:url(#SVGID_3_);}
	.st4{fill:url(#SVGID_4_);}
	.st5{fill:url(#SVGID_5_);}
	.st6{fill:url(#SVGID_6_);}
	.st7{fill:url(#SVGID_7_);}
	.st8{fill:url(#SVGID_8_);}
	.st9{fill:url(#SVGID_9_);}
	.st10{fill:url(#SVGID_10_);}
	.st11{fill:url(#SVGID_11_);}
	.st12{fill:url(#SVGID_12_);}
	.st13{fill:url(#SVGID_13_);}
	.st14{fill:url(#SVGID_14_);}
	.st15{fill:url(#SVGID_15_);}
	.st16{fill:url(#SVGID_16_);}
	.st17{fill:url(#SVGID_17_);}
	.st18{fill:url(#SVGID_18_);}
	.st19{fill:url(#SVGID_19_);}
	.st20{fill:url(#SVGID_20_);}
	.st21{fill:url(#SVGID_21_);}
	.st22{fill:url(#SVGID_22_);}
	.st23{fill:url(#SVGID_23_);}
	.st24{fill:url(#SVGID_24_);}
	.st25{fill:url(#SVGID_25_);}
	.st26{opacity:0.8;fill:url(#SVGID_26_);}
	.st27{fill:url(#SVGID_27_);}
	.st28{fill:url(#SVGID_28_);}
	.st29{opacity:0.8;fill:url(#SVGID_29_);}
	.st30{opacity:0.9;}
	.st31{fill:url(#SVGID_30_);}
	.st32{opacity:0.8;fill:url(#SVGID_31_);}
	.st33{opacity:0.8;}
	.st34{fill:url(#SVGID_32_);}
	.st35{opacity:0.8;fill:url(#SVGID_33_);}
	.st36{fill:url(#SVGID_34_);}
	.st37{fill:url(#SVGID_35_);}
	.st38{opacity:0.9;fill:url(#SVGID_36_);}
</style>
<linearGradient id="SVGID_1_" gradientUnits="userSpaceOnUse" x1="25" y1="200" x2="375" y2="200">
	<stop  offset="0" style="stop-color:#4C7CBD"/>
	<stop  offset="0.2699" style="stop-color:#41649B"/>
	<stop  offset="0.5679" style="stop-color:#384F7C"/>
	<stop  offset="0.822" style="stop-color:#32426A"/>
	<stop  offset="1" style="stop-color:#303D63"/>
</linearGradient>
<circle style="fill:url(#SVGID_1_);" cx="200" cy="200" r="175"/>
<path class="st1" d="M314.03,212.82l-28.17-14.08c-1.95-0.98-3.16-2.94-3.16-5.12v-7.13c6.59-5.85,10.76-14.38,10.76-23.87v-5.73
	c0.12,0,0.23,0,0.35,0c2.78,0,5.03-2.25,5.03-5.03V141.1c0-17.61-14.32-31.93-31.93-31.93h-10.76c-17.61,0-31.93,14.32-31.93,31.93
	v10.76c0,2.78,2.25,5.03,5.03,5.03c0.04,0,0.16,0,0.35-0.01v5.73c0,9.49,4.17,18.02,10.76,23.87v7.13c0,2.18-1.21,4.15-3.17,5.12
	c-2.49,1.24-3.49,4.27-2.25,6.75c0.88,1.76,2.66,2.78,4.51,2.78c0.76,0,1.52-0.17,2.25-0.53c0.89-0.45,1.72-0.97,2.5-1.56
	l12.31,12.31v67.84c0,2.78,2.25,5.03,5.03,5.03s5.03-2.25,5.03-5.03v-67.85l12.3-12.31c0.77,0.59,1.6,1.11,2.5,1.56l27.25,13.63
	l-8.27,8.27c-4,4-6.2,9.31-6.2,14.97v41.73c0,2.78,2.25,5.03,5.03,5.03c2.78,0,5.03-2.25,5.03-5.03v-41.73
	c0-2.97,1.15-5.75,3.25-7.85l7.83-7.83c0.24,0.91,0.37,1.86,0.37,2.83v54.58c0,2.78,2.25,5.03,5.03,5.03s5.03-2.25,5.03-5.03v-54.58
	C325.73,223.69,321.25,216.43,314.03,212.82z M234.29,141.1c0-12.06,9.81-21.86,21.86-21.86h10.76c12.06,0,21.86,9.81,21.86,21.86
	v5.59c-21.88-1.18-35.08-9.69-35.21-9.78c-0.85-0.57-1.82-0.85-2.79-0.85c-1.3,0-2.59,0.5-3.56,1.47
	c-4.82,4.82-9.53,7.13-12.93,8.25L234.29,141.1L234.29,141.1z M239.66,154.5c3.53-1.41,7.63-3.65,11.81-7.21
	c5.29,2.75,16.34,7.5,31.92,9.07v6.25c0,12.06-9.81,21.86-21.86,21.86c-12.06,0-21.86-9.81-21.86-21.86L239.66,154.5L239.66,154.5z
	 M261.53,194.54c3.9,0,7.64-0.71,11.1-2v1.07c0,1.39,0.19,2.74,0.53,4.04l-11.63,11.63l-11.63-11.63c0.34-1.3,0.53-2.65,0.53-4.04
	v-1.07C253.88,193.84,257.62,194.54,261.53,194.54z"/>
<path class="st1" d="M112.31,102.77c-2.98,6.69-5.52,13.79-5.52,21.61v27c-4.19,2.38-11.79,8.55-11.79,22.12
	c0,8.27,4.56,15.19,10.34,20.64c-0.41,0.8-0.81,1.74-1.17,2.8c-0.89,0.5-1.8,0.98-2.64,1.55c-11.46,7.63-18.31,20.42-18.31,34.2
	v58.69h141.45v-58.69c0-9.77-3.5-19-9.59-26.3c1.12-2.81,1.73-5.91,1.73-9.32c0-9.09-5.71-14.4-10.29-18.67
	c-2.41-2.24-4.68-4.36-5.83-6.66c-1.17-2.34-0.25-5.49,1.34-10.46c1.41-4.41,3.01-9.4,3.01-15.28c0-10.5-5.42-18.2-7.86-21.13v-0.48
	c0-7.82-1.41-15.55-5.52-21.61C163.93,61.92,121.58,81.96,112.31,102.77z M190.46,129.12c0.05,0.05,3.39,3.53,5.34,9.12
	c-2.78-2.48-6.41-4.04-10.42-4.04v-7.86h-17.79c-10.89,0-21.79-2.57-31.53-7.45l-1.76-0.87l-1.76,0.88
	c-5.9,2.95-9.64,8.76-9.97,15.3h-0.06c-2.88,0-5.54,0.83-7.86,2.18v-12.01c0-20.58,16.74-37.33,37.33-37.33s37.33,16.74,37.33,37.33
	v3.59L190.46,129.12z M185.38,153.85v-11.79c4.33,0,7.86,3.53,7.86,7.86s-3.53,7.86-7.86,7.86h-0.27
	C185.27,156.49,185.38,155.18,185.38,153.85L185.38,153.85z M184.66,225.49c5.53,5.53,8.57,12.88,8.57,20.7s-3.04,15.17-8.57,20.7
	l-3.21,3.21v13.42h-55.01v-13.42l-3.21-3.21c-5.53-5.53-8.57-12.88-8.57-20.7c0-6.19,1.95-12.09,5.5-17.02
	c1.08,1.4,2.01,2.86,2.57,4.52l1.43,4.3l4.05-2.03c11.75-5.88,17.22-13.62,19.74-20.2c1.93,0.62,3.95,0.97,6.01,0.97
	c10.83,0,19.65-8.81,19.65-19.65v-0.34c1.79,0.86,3.71,1.47,5.74,1.76l2.11,0.3v23.48L184.66,225.49z M163.16,184.2
	c0.56,2.05,1.45,3.93,2.57,5.64v7.23c0,6.5-5.29,11.79-11.79,11.79c-1.42,0-2.81-0.28-4.12-0.77c0.13-1.21,0.19-2.29,0.19-3.16
	c0-7.73-2.83-11.99-6.12-15.54c0.89-1.7,1.4-3.49,1.72-5.26c2.66,0.73,5.44,1.16,8.33,1.16c3.18,0,6.24-0.48,9.13-1.36L163.16,184.2
	z M153.94,177.43c-13,0-23.57-10.57-23.57-23.57v-18.72c0-3.31,1.55-6.33,4.14-8.25c10.31,4.8,21.7,7.32,33.08,7.32h9.93v19.65
	C177.52,166.85,166.95,177.43,153.94,177.43L153.94,177.43z M122.78,157.78h-0.27c-4.33,0-7.86-3.53-7.86-7.86s3.53-7.86,7.86-7.86
	v11.79C122.51,155.18,122.62,156.49,122.78,157.78L122.78,157.78z M122.51,90.2 M109.64,158.89c2.84,4.07,7.54,6.75,12.87,6.75h2.31
	c2.62,6.46,7.34,11.84,13.3,15.33c-0.19,2.32-0.73,4.62-2.18,6.21l-2.53,2.78l2.65,2.65c3.8,3.8,6.09,6.09,6.09,12.31
	c0,4.22-1.44,14.3-13.94,22.02c-2.47-4.16-6.06-7.33-9.32-10.2c-5.06-4.46-8.17-7.42-8.17-11.83c0-2.36,0.42-4.23,0.94-5.65
	c8.26,5.86,16.64,9.07,17.32,9.33l2.76-7.36c-8.03-3.01-28.89-13.87-28.89-27.75C102.87,164.93,106.94,160.75,109.64,158.89
	L109.64,158.89z M91.08,232.68c0-9.95,4.44-19.24,11.98-25.52c0.94,6.89,6.05,11.44,10.64,15.49c0.3,0.27,0.59,0.53,0.88,0.8
	c-5.04,6.49-7.79,14.42-7.79,22.74c0,9.91,3.86,19.24,10.88,26.26l0.91,0.91v10.16h-27.5V232.68z M216.81,283.51h-27.5v-10.16
	l0.91-0.91c7.02-7.02,10.88-16.35,10.88-26.26c0-9.91-3.86-19.24-10.88-26.26l-0.91-0.91v-19.04c4.52,0.8,8.89,2.5,12.7,5.04
	c9.27,6.18,14.81,16.52,14.81,27.66V283.51z M201.16,184.16c4.17,3.89,7.79,7.25,7.79,12.92c0,1.12-0.11,2.16-0.28,3.17
	c-0.76-0.59-1.5-1.22-2.31-1.76c-5.07-3.38-10.95-5.63-16.99-6.49l-8.92-1.27c-4.66-0.67-8.47-4.03-9.71-8.58l-0.41-1.51
	c5.69-3.5,10.2-8.74,12.74-14.98h2.31c2.84,0,5.47-0.82,7.78-2.14c-1.05,4.02-1.43,7.9,0.5,11.76
	C195.44,178.82,198.35,181.54,201.16,184.16L201.16,184.16z M177.4,87.06"/>
</svg>
