<?xml version="1.0" encoding="utf-8"?>
<!-- Generator: Adobe Illustrator 24.2.1, SVG Export Plug-In . SVG Version: 6.00 Build 0)  -->
<svg version="1.1" id="Warstwa_1" xmlns="http://www.w3.org/2000/svg" xmlns:xlink="http://www.w3.org/1999/xlink" x="0px" y="0px"
	 viewBox="0 0 400 400" style="enable-background:new 0 0 400 400;" xml:space="preserve">
<style type="text/css">
	.st0{opacity:0.8;fill:url(#SVGID_1_);}
	.st1{fill:#FFFFFF;}
	.st2{opacity:0.8;fill:url(#SVGID_2_);}
	.st3{fill:url(#SVGID_3_);}
	.st4{fill:url(#SVGID_4_);}
	.st5{fill:url(#SVGID_5_);}
	.st6{fill:url(#SVGID_6_);}
	.st7{fill:url(#SVGID_7_);}
	.st8{fill:url(#SVGID_8_);}
	.st9{fill:url(#SVGID_9_);}
	.st10{fill:url(#SVGID_10_);}
	.st11{fill:url(#SVGID_11_);}
	.st12{fill:url(#SVGID_12_);}
	.st13{fill:url(#SVGID_13_);}
	.st14{fill:url(#SVGID_14_);}
	.st15{fill:url(#SVGID_15_);}
	.st16{fill:url(#SVGID_16_);}
	.st17{fill:url(#SVGID_17_);}
	.st18{fill:url(#SVGID_18_);}
	.st19{fill:url(#SVGID_19_);}
	.st20{fill:url(#SVGID_20_);}
	.st21{fill:url(#SVGID_21_);}
	.st22{fill:url(#SVGID_22_);}
	.st23{fill:url(#SVGID_23_);}
	.st24{fill:url(#SVGID_24_);}
	.st25{fill:url(#SVGID_25_);}
	.st26{opacity:0.8;fill:url(#SVGID_26_);}
	.st27{fill:url(#SVGID_27_);}
	.st28{fill:url(#SVGID_28_);}
	.st29{opacity:0.8;fill:url(#SVGID_29_);}
	.st30{opacity:0.9;}
	.st31{fill:url(#SVGID_30_);}
	.st32{opacity:0.8;fill:url(#SVGID_31_);}
	.st33{opacity:0.8;}
	.st34{fill:url(#SVGID_32_);}
	.st35{opacity:0.8;fill:url(#SVGID_33_);}
	.st36{fill:url(#SVGID_34_);}
	.st37{fill:url(#SVGID_35_);}
	.st38{opacity:0.9;fill:url(#SVGID_36_);}
</style>
<linearGradient id="SVGID_1_" gradientUnits="userSpaceOnUse" x1="25" y1="200" x2="375" y2="200">
	<stop  offset="0" style="stop-color:#4C7CBD"/>
	<stop  offset="0.2699" style="stop-color:#41649B"/>
	<stop  offset="0.5679" style="stop-color:#384F7C"/>
	<stop  offset="0.822" style="stop-color:#32426A"/>
	<stop  offset="1" style="stop-color:#303D63"/>
</linearGradient>
<circle style="fill:url(#SVGID_1_);" cx="200" cy="200" r="175"/>
<g>
	<path class="st1" d="M283.77,230.82c-5.71-5.71-13.29-8.85-21.36-8.85c-8.07,0-15.66,3.14-21.36,8.85l-65.61,65.61
		c-5.98,5.98-13.93,9.27-22.38,9.27c-8.46,0-16.4-3.29-22.38-9.27c-5.98-5.98-9.27-13.92-9.27-22.38c0-8.45,3.29-16.4,9.27-22.38
		l1.11-1.11c4.62,2.81,9.84,4.23,15.09,4.23c6.53,0,13.09-2.2,18.52-6.66l91.35-74.89c8.09-2.08,15.5-6.29,21.56-12.34
		c8.92-8.92,13.83-20.78,13.83-33.39c0-12.61-4.91-24.47-13.83-33.39c-8.92-8.92-20.78-13.83-33.39-13.83
		c-12.61,0-24.47,4.91-33.39,13.83c-6.06,6.06-10.26,13.47-12.34,21.56l-74.89,91.35c-8.03,9.8-8.73,23.24-2.43,33.61l-1.11,1.11
		c-8.63,8.63-13.38,20.1-13.38,32.3c0,12.2,4.75,23.67,13.38,32.3c8.91,8.91,20.6,13.36,32.3,13.36c11.7,0,23.39-4.45,32.3-13.36
		l65.61-65.61c3.06-3.06,7.12-4.74,11.44-4.74c4.32,0,8.39,1.68,11.44,4.74s4.74,7.12,4.74,11.44c0,4.32-1.68,8.39-4.74,11.44
		l-27.34,27.34c-2.74,2.74-2.74,7.18,0,9.92c2.74,2.74,7.18,2.74,9.92,0l27.34-27.34c5.71-5.71,8.85-13.29,8.85-21.36
		C292.62,244.11,289.48,236.52,283.77,230.82L283.77,230.82z M267.11,152.2c-3.37,3.04-7.27,5.31-11.47,6.74l-42.15-42.15
		c1.43-4.2,3.7-8.1,6.74-11.47L267.11,152.2z M136.15,236.29c-5.54-5.54-5.98-14.3-1.01-20.36l71.02-86.63l36.97,36.97l-86.63,71.01
		C150.44,242.26,141.69,241.83,136.15,236.29L136.15,236.29z M268.38,104.05c6.27,6.27,9.72,14.6,9.72,23.47
		c0,4.6-0.94,9.05-2.7,13.14l-43.63-43.63c4.1-1.77,8.55-2.7,13.14-2.7C253.78,94.33,262.12,97.78,268.38,104.05L268.38,104.05z
		 M268.38,104.05"/>
	<path class="st1" d="M194.34,168.17l-18,18c-2.74,2.74-2.74,7.18,0,9.92c1.37,1.37,3.16,2.05,4.96,2.05s3.59-0.68,4.96-2.05l18-18
		c2.74-2.74,2.74-7.18,0-9.92C201.52,165.43,197.08,165.43,194.34,168.17L194.34,168.17z M194.34,168.17"/>
</g>
</svg>
