<?xml version="1.0" encoding="utf-8"?>
<!-- Generator: Adobe Illustrator 24.2.1, SVG Export Plug-In . SVG Version: 6.00 Build 0)  -->
<svg version="1.1" id="Warstwa_1" xmlns="http://www.w3.org/2000/svg" xmlns:xlink="http://www.w3.org/1999/xlink" x="0px" y="0px"
	 viewBox="0 0 400 400" style="enable-background:new 0 0 400 400;" xml:space="preserve">
<style type="text/css">
	.st0{opacity:0.8;fill:url(#SVGID_1_);}
	.st1{fill:#FFFFFF;}
	.st2{opacity:0.8;fill:url(#SVGID_2_);}
	.st3{fill:url(#SVGID_3_);}
	.st4{fill:url(#SVGID_4_);}
	.st5{fill:url(#SVGID_5_);}
	.st6{fill:url(#SVGID_6_);}
	.st7{fill:url(#SVGID_7_);}
	.st8{fill:url(#SVGID_8_);}
	.st9{fill:url(#SVGID_9_);}
	.st10{fill:url(#SVGID_10_);}
	.st11{fill:url(#SVGID_11_);}
	.st12{fill:url(#SVGID_12_);}
	.st13{fill:url(#SVGID_13_);}
	.st14{fill:url(#SVGID_14_);}
	.st15{fill:url(#SVGID_15_);}
	.st16{fill:url(#SVGID_16_);}
	.st17{fill:url(#SVGID_17_);}
	.st18{fill:url(#SVGID_18_);}
	.st19{fill:url(#SVGID_19_);}
	.st20{fill:url(#SVGID_20_);}
	.st21{fill:url(#SVGID_21_);}
	.st22{fill:url(#SVGID_22_);}
	.st23{fill:url(#SVGID_23_);}
	.st24{fill:url(#SVGID_24_);}
	.st25{fill:url(#SVGID_25_);}
	.st26{opacity:0.8;fill:url(#SVGID_26_);}
	.st27{fill:url(#SVGID_27_);}
	.st28{fill:url(#SVGID_28_);}
	.st29{opacity:0.8;fill:url(#SVGID_29_);}
	.st30{opacity:0.9;}
	.st31{fill:url(#SVGID_30_);}
	.st32{opacity:0.8;fill:url(#SVGID_31_);}
	.st33{opacity:0.8;}
	.st34{fill:url(#SVGID_32_);}
	.st35{opacity:0.8;fill:url(#SVGID_33_);}
	.st36{fill:url(#SVGID_34_);}
	.st37{fill:url(#SVGID_35_);}
	.st38{opacity:0.9;fill:url(#SVGID_36_);}
</style>
<linearGradient id="SVGID_1_" gradientUnits="userSpaceOnUse" x1="25" y1="200" x2="375" y2="200">
	<stop  offset="0" style="stop-color:#4C7CBD"/>
	<stop  offset="0.2699" style="stop-color:#41649B"/>
	<stop  offset="0.5679" style="stop-color:#384F7C"/>
	<stop  offset="0.822" style="stop-color:#32426A"/>
	<stop  offset="1" style="stop-color:#303D63"/>
</linearGradient>
<circle style="fill:url(#SVGID_1_);" cx="200" cy="200" r="175"/>
<g>
	<path class="st1" d="M299.96,289.05l-23.98-37.3c11.12-15.63,17.19-34.69,17.12-53.88c0.01-42.3-28.55-79.43-69.43-90.29
		c-7.84-2.08-15.91-3.14-23.98-3.14c-33.43,0-64.51,18.04-81.1,47.08c-20.98,36.73-14.6,83.13,15.52,112.84
		c17.59,17.35,40.89,26.9,65.61,26.9c16.22,0,32.19-4.24,46.28-12.29l45.85,19.65c0.82,0.35,1.69,0.53,2.59,0.53
		c1.94,0,3.76-0.85,5.01-2.32C301.32,294.62,301.53,291.5,299.96,289.05z M248.1,265.61c-0.82-0.35-1.69-0.53-2.59-0.53
		c-1.23,0-2.42,0.34-3.46,0.99c-12.76,7.94-27.42,12.13-42.4,12.13c-25.19,0-49.25-12.02-64.36-32.15
		c-25.2-33.59-20.63-80.06,10.64-108.09c14.77-13.24,33.83-20.54,53.66-20.54c20.48,0,40,7.71,54.95,21.71
		c30.65,28.7,34.22,75.26,8.3,108.3c-1.73,2.2-1.87,5.25-0.36,7.6l14.86,23.11L248.1,265.61z"/>
	<path class="st1" d="M162.52,251.22c-4.06,0-8.02-1.41-11.16-3.98c-5.25-4.29-7.59-11.31-5.97-17.89
		c1.47-5.98,6.05-10.82,11.95-12.64c1.26-0.39,2.12-1.55,2.12-2.87v-42.23c0-1.3,0.82-2.46,2.05-2.89l2.98-1.04
		c0.3-0.04,0.68-0.12,1.1-0.26c0.73-0.25,1.41-0.54,2.03-0.87c0.15-0.03,0.3-0.07,0.45-0.12l66.34-23.22
		c0.32-0.11,0.66-0.17,1.01-0.17c0.64,0,1.25,0.2,1.78,0.57c0.81,0.57,1.29,1.5,1.29,2.49V219c0,2.98-0.81,5.95-2.34,8.63
		c-0.11,0.1-0.23,0.21-0.34,0.34c-0.7,0.76-1.29,1.64-1.72,2.57c-0.16,0.17-0.32,0.36-0.47,0.55c-1.56,1.66-3.31,2.95-5.21,3.86
		c-2.38,1.13-4.92,1.7-7.56,1.7c-4.06,0-8.02-1.41-11.16-3.98c-5.25-4.29-7.59-11.31-5.97-17.89c1.47-5.98,6.05-10.82,11.95-12.64
		c1.26-0.39,2.12-1.55,2.12-2.87v-15.6c0-0.96-0.46-1.87-1.25-2.43c-0.52-0.37-1.13-0.57-1.75-0.57c-0.32,0-0.64,0.05-0.95,0.15
		l-31.62,10.54c-1.23,0.41-2.05,1.55-2.05,2.85v39.37c0,6.78-3.96,13.03-10.08,15.94C167.69,250.64,165.15,251.22,162.52,251.22z
		 M229.36,151.64c-0.33,0-0.67,0.06-0.99,0.17l-60.78,21.27c-1.2,0.42-2.01,1.56-2.01,2.83V219c0,0.79-0.33,1.6-0.9,2.16
		c-0.59,0.59-1.34,0.9-2.16,0.9c-4.68,0-8.85,2.79-10.64,7.11c-1.79,4.32-0.81,9.25,2.5,12.55c2.17,2.18,5.07,3.37,8.14,3.37
		c1.52,0,3.01-0.29,4.41-0.88c4.32-1.79,7.11-5.97,7.11-10.64v-43.74c0-1.32,0.84-2.48,2.09-2.9l43.74-14.58
		c0.31-0.1,0.64-0.16,0.97-0.16c0.65,0,1.26,0.2,1.79,0.58c0.8,0.58,1.27,1.5,1.27,2.48v29.16c0,0.82-0.32,1.58-0.9,2.16
		c-0.56,0.56-1.37,0.9-2.17,0.9c-4.67,0-8.85,2.79-10.64,7.11c-1.79,4.32-0.81,9.25,2.5,12.55c2.18,2.18,5.07,3.37,8.15,3.37
		c1.52,0,3-0.29,4.41-0.88c4.32-1.79,7.11-5.97,7.11-10.64v-64.36c0-0.97-0.47-1.88-1.26-2.45
		C230.58,151.83,229.97,151.64,229.36,151.64z"/>
</g>
</svg>
