<?xml version="1.0" encoding="utf-8"?>
<!-- Generator: Adobe Illustrator 24.2.1, SVG Export Plug-In . SVG Version: 6.00 Build 0)  -->
<svg version="1.1" id="Warstwa_1" xmlns="http://www.w3.org/2000/svg" xmlns:xlink="http://www.w3.org/1999/xlink" x="0px" y="0px"
	 viewBox="0 0 400 400" style="enable-background:new 0 0 400 400;" xml:space="preserve">
<style type="text/css">
	.st0{fill:#E77542;}
	.st1{fill:#2DB5BA;}
	.st2{fill:url(#SVGID_1_);}
	.st3{fill:#5FA531;}
	.st4{fill:#A0182C;}
	.st5{fill:#80358A;}
	.st6{fill:#265C30;}
	.st7{fill:#FFCB00;}
	.st8{fill:#0E466D;}
</style>
<g>
	<path class="st8" d="M280.17,182.32h-3.71c-0.01,0-0.02-0.01-0.02-0.02c-0.26-7.77-0.8-15.51-1.64-23.1v0
		c-0.42-3.76-3.6-6.61-7.38-6.61H88.43c-3.79,0-6.97,2.85-7.38,6.61h0c-1.21,10.94-1.82,22.17-1.82,33.37
		c0,32.3,3.86,62.74,11.15,88.03c3.8,13.17,8.55,25.09,14.11,35.43c5.84,10.85,12.65,20.08,20.22,27.44l0,0
		c1.39,1.34,3.24,2.1,5.17,2.1h96.07c1.93,0,3.79-0.75,5.17-2.1l0,0c7.58-7.35,14.38-16.59,20.22-27.44
		c4.74-8.81,8.89-18.78,12.36-29.67c0-0.01,0.01-0.02,0.02-0.02h17.03c28.77,0,52.16-23.49,52.01-52.29
		C332.62,205.34,308.89,182.32,280.17,182.32z M275.13,226.9l5.41,0c4.01,0,7.48,3.08,7.67,7.09c0.2,4.26-3.21,7.8-7.43,7.8h-7.3
		c-0.01,0-0.02-0.01-0.02-0.02c0.65-4.85,1.21-9.8,1.66-14.84C275.11,226.9,275.11,226.9,275.13,226.9z M215.05,330.72h-74.52
		c-5.04,0-9.84-2.28-12.95-6.25c-21.4-27.28-33.5-74.43-33.5-131.9c0-5.69,0.17-11.38,0.5-17.03c0.27-4.55,4.04-8.1,8.6-8.1h148.17
		c5.34,0,9.72,4.2,10.01,9.53c0.28,5.18,0.42,10.39,0.42,15.6c0,57.33-12.04,104.39-33.34,131.69
		C225.21,328.37,220.26,330.72,215.05,330.72z M280.27,271.49h-12.36c-0.01,0-0.02-0.01-0.02-0.03c1.17-4.79,2.23-9.73,3.17-14.81
		c0-0.01,0.01-0.02,0.02-0.02h9.25c12.97,0,23.43-10.62,22.7-23.57c-0.66-11.71-10.39-21.02-22.26-21.02h-4.61
		c-0.01,0-0.02-0.01-0.02-0.02c0.24-4.88,0.39-9.82,0.45-14.81c0-0.01,0.01-0.02,0.02-0.02h4.16c20.6,0,37.34,16.86,37.15,37.5
		C317.73,255.15,300.74,271.49,280.27,271.49z"/>
	<path class="st8" d="M160.29,318.81h-8.24c-9.07,0.03-16.31-7.27-20.38-15.89l-8.16-25.01c-0.31-3.22,2.05-6.07,5.27-6.38
		c1.55-0.18,3.11,0.29,4.31,1.28c1.2,0.99,1.96,2.44,2.08,3.99l8.17,25.04c1.5,3.9,5.73,5.28,8.75,5.27h8.24
		c3.24,0,5.85,2.62,5.85,5.85s-2.62,5.85-5.85,5.85H160.29z M160.29,318.81"/>
	<path class="st8" d="M145.77,136.14c-2.37,0-4.5-1.43-5.41-3.61c-0.9-2.19-0.4-4.71,1.27-6.38c3.74-3.46,5.86-8.33,5.86-13.42
		c0-5.1-2.12-9.96-5.86-13.42c-6.04-5.6-9.47-13.46-9.47-21.7c0-8.23,3.43-16.1,9.47-21.7c2.31-2.05,5.82-1.96,8.01,0.22
		c2.2,2.18,2.31,5.69,0.27,8.01c-3.74,3.46-5.87,8.33-5.87,13.43c0,5.1,2.13,9.96,5.87,13.43c6.04,5.6,9.47,13.46,9.47,21.7
		c0,8.24-3.43,16.1-9.47,21.7C148.83,135.51,147.34,136.14,145.77,136.14L145.77,136.14z M145.77,136.14"/>
	<path class="st8" d="M180.89,136.14c-2.37,0-4.5-1.43-5.41-3.61c-0.9-2.19-0.4-4.71,1.27-6.38c3.74-3.46,5.86-8.33,5.86-13.42
		c0-5.1-2.12-9.96-5.86-13.42c-6.04-5.6-9.47-13.46-9.47-21.7c0-8.23,3.43-16.1,9.47-21.7c2.31-2.05,5.82-1.96,8.01,0.22
		c2.2,2.18,2.31,5.69,0.27,8.01c-3.74,3.46-5.87,8.33-5.87,13.43c0,5.1,2.13,9.96,5.87,13.43c6.04,5.6,9.47,13.46,9.47,21.7
		c0,8.24-3.43,16.1-9.47,21.7C183.95,135.51,182.46,136.14,180.89,136.14L180.89,136.14z M180.89,136.14"/>
	<path class="st8" d="M216.01,136.14c-2.37,0-4.5-1.43-5.41-3.61c-0.9-2.19-0.4-4.71,1.27-6.38c3.74-3.46,5.86-8.33,5.86-13.42
		c0-5.1-2.12-9.96-5.86-13.42c-6.04-5.6-9.47-13.46-9.47-21.7c0-8.23,3.43-16.1,9.47-21.7c2.31-2.05,5.82-1.96,8.01,0.22
		c2.2,2.18,2.31,5.69,0.27,8.01c-3.74,3.46-5.87,8.33-5.87,13.43c0,5.1,2.13,9.96,5.87,13.43c6.04,5.6,9.47,13.46,9.47,21.7
		c0,8.24-3.43,16.1-9.47,21.7C219.07,135.51,217.58,136.14,216.01,136.14L216.01,136.14z M216.01,136.14"/>
</g>
</svg>
