<?xml version="1.0" encoding="utf-8"?>
<!-- Generator: Adobe Illustrator 24.2.1, SVG Export Plug-In . SVG Version: 6.00 Build 0)  -->
<svg version="1.1" id="Warstwa_1" xmlns="http://www.w3.org/2000/svg" xmlns:xlink="http://www.w3.org/1999/xlink" x="0px" y="0px"
	 viewBox="0 0 1400 140" style="enable-background:new 0 0 1400 140;" xml:space="preserve">
<style type="text/css">
	.st0{fill:url(#SVGID_1_);}
	.st1{fill:#FFFFFF;}
	.st2{opacity:0.3;fill:#FFFFFF;enable-background:new    ;}
</style>
<linearGradient id="SVGID_1_" gradientUnits="userSpaceOnUse" x1="0" y1="111.2913" x2="1400" y2="111.2913" gradientTransform="matrix(1 0 0 -1 0 181.2912)">
	<stop  offset="0" style="stop-color:#29235C"/>
	<stop  offset="1" style="stop-color:#E84E1B"/>
</linearGradient>
<rect y="0" class="st0" width="1400" height="140"/>
<g>
	<path class="st1" d="M547.88,48.67v36.15h-3.45c-0.53,0-0.98-0.09-1.34-0.26c-0.36-0.17-0.7-0.47-1.04-0.89l-18.88-24.1
		c0.1,1.1,0.15,2.12,0.15,3.05v22.2h-5.93V48.67h3.52c0.28,0,0.53,0.01,0.74,0.04c0.21,0.02,0.39,0.07,0.55,0.15
		c0.16,0.07,0.31,0.18,0.46,0.32s0.32,0.33,0.5,0.56l18.95,24.2c-0.05-0.58-0.09-1.16-0.13-1.72c-0.03-0.57-0.05-1.09-0.05-1.57
		V48.67H547.88z"/>
	<path class="st1" d="M553.7,62.74c2.95-2.7,6.5-4.05,10.65-4.05c1.5,0,2.84,0.25,4.02,0.74s2.18,1.18,3,2.05
		c0.82,0.88,1.44,1.92,1.86,3.14c0.43,1.22,0.64,2.55,0.64,4v16.2h-2.8c-0.58,0-1.03-0.09-1.35-0.26c-0.32-0.17-0.57-0.53-0.75-1.06
		l-0.55-1.85c-0.65,0.58-1.28,1.1-1.9,1.54s-1.26,0.81-1.92,1.11c-0.67,0.3-1.38,0.53-2.14,0.69s-1.6,0.24-2.51,0.24
		c-1.08,0-2.08-0.15-3-0.44s-1.71-0.73-2.38-1.31c-0.67-0.58-1.18-1.31-1.55-2.17c-0.37-0.87-0.55-1.88-0.55-3.03
		c0-0.65,0.11-1.3,0.32-1.94s0.57-1.25,1.06-1.84c0.49-0.58,1.13-1.13,1.91-1.65c0.78-0.52,1.75-0.97,2.89-1.35s2.47-0.7,3.99-0.94
		c1.52-0.24,3.25-0.39,5.2-0.44v-1.5c0-1.72-0.37-2.99-1.1-3.81c-0.73-0.82-1.79-1.24-3.17-1.24c-1,0-1.83,0.12-2.49,0.35
		c-0.66,0.23-1.24,0.5-1.74,0.79s-0.95,0.55-1.36,0.79c-0.41,0.23-0.86,0.35-1.36,0.35c-0.43,0-0.8-0.11-1.1-0.34
		c-0.3-0.23-0.54-0.49-0.73-0.79L553.7,62.74z M567.85,73.87c-1.78,0.08-3.28,0.24-4.5,0.46s-2.19,0.51-2.93,0.86
		c-0.73,0.35-1.26,0.76-1.57,1.23c-0.32,0.47-0.48,0.97-0.48,1.52c0,1.08,0.32,1.86,0.96,2.33s1.48,0.7,2.51,0.7
		c1.27,0,2.36-0.23,3.29-0.69c0.92-0.46,1.83-1.15,2.71-2.09L567.85,73.87L567.85,73.87z"/>
	<path class="st1" d="M595.33,64.17c-0.17,0.27-0.34,0.45-0.53,0.56s-0.42,0.16-0.7,0.16c-0.3,0-0.62-0.08-0.96-0.25
		s-0.74-0.35-1.19-0.56c-0.45-0.21-0.96-0.4-1.54-0.56c-0.58-0.17-1.25-0.25-2.04-0.25c-1.22,0-2.17,0.26-2.86,0.77
		c-0.69,0.52-1.04,1.19-1.04,2.02c0,0.55,0.18,1.01,0.54,1.39s0.83,0.7,1.42,0.99c0.59,0.28,1.26,0.54,2.01,0.76
		s1.51,0.47,2.29,0.74c0.78,0.27,1.54,0.57,2.29,0.91c0.75,0.34,1.42,0.77,2.01,1.3c0.59,0.52,1.07,1.15,1.42,1.89
		s0.54,1.62,0.54,2.65c0,1.23-0.22,2.37-0.66,3.41s-1.1,1.94-1.96,2.7c-0.87,0.76-1.94,1.35-3.21,1.78s-2.75,0.64-4.41,0.64
		c-0.88,0-1.75-0.08-2.59-0.24c-0.84-0.16-1.65-0.38-2.43-0.66c-0.77-0.28-1.49-0.62-2.15-1c-0.66-0.38-1.24-0.8-1.74-1.25
		l1.42-2.35c0.18-0.28,0.4-0.5,0.65-0.65s0.57-0.22,0.95-0.22s0.75,0.11,1.09,0.33s0.74,0.45,1.19,0.7s0.98,0.48,1.59,0.7
		c0.61,0.22,1.38,0.33,2.31,0.33c0.73,0,1.36-0.09,1.89-0.26s0.96-0.4,1.3-0.69c0.34-0.28,0.59-0.61,0.75-0.99s0.24-0.76,0.24-1.16
		c0-0.6-0.18-1.09-0.54-1.48c-0.36-0.38-0.83-0.72-1.42-1c-0.59-0.28-1.27-0.54-2.03-0.76s-1.53-0.47-2.32-0.74
		s-1.57-0.58-2.33-0.94s-1.43-0.81-2.02-1.36s-1.07-1.23-1.42-2.03c-0.36-0.8-0.54-1.77-0.54-2.9c0-1.05,0.21-2.05,0.63-3
		c0.42-0.95,1.03-1.78,1.84-2.49c0.81-0.71,1.82-1.27,3.02-1.7c1.21-0.42,2.6-0.64,4.19-0.64c1.77,0,3.38,0.29,4.83,0.88
		c1.45,0.58,2.66,1.35,3.63,2.3L595.33,64.17z"/>
	<path class="st1" d="M620.08,61.72c0,0.43-0.08,0.86-0.23,1.27c-0.15,0.42-0.35,0.76-0.6,1.03l-12.17,16.05h12.63v4.75h-19.8v-2.58
		c0-0.28,0.07-0.62,0.2-1.01s0.33-0.76,0.6-1.11L613,63.89h-12.38v-4.73h19.45v2.56H620.08z"/>
	<path class="st1" d="M628.93,72.77c0.1,1.32,0.33,2.45,0.7,3.41c0.37,0.96,0.85,1.75,1.45,2.38c0.6,0.63,1.31,1.09,2.14,1.4
		c0.83,0.31,1.74,0.46,2.74,0.46s1.86-0.12,2.59-0.35s1.36-0.49,1.9-0.77c0.54-0.28,1.02-0.54,1.42-0.78s0.8-0.35,1.19-0.35
		c0.52,0,0.9,0.19,1.15,0.57l1.77,2.25c-0.68,0.8-1.45,1.47-2.3,2.01s-1.74,0.98-2.66,1.3c-0.93,0.33-1.87,0.55-2.83,0.69
		c-0.96,0.13-1.89,0.2-2.79,0.2c-1.78,0-3.44-0.3-4.98-0.89c-1.53-0.59-2.87-1.47-4-2.63c-1.13-1.16-2.02-2.59-2.67-4.3
		c-0.65-1.71-0.98-3.69-0.98-5.94c0-1.75,0.28-3.4,0.85-4.94c0.57-1.54,1.38-2.88,2.44-4.02s2.35-2.05,3.88-2.71s3.25-1,5.16-1
		c1.62,0,3.11,0.26,4.48,0.77c1.37,0.52,2.54,1.27,3.52,2.26c0.98,0.99,1.75,2.21,2.31,3.65c0.56,1.44,0.84,3.09,0.84,4.94
		c0,0.93-0.1,1.56-0.3,1.89s-0.58,0.49-1.15,0.49L628.93,72.77L628.93,72.77z M640.7,69.04c0-0.8-0.11-1.55-0.34-2.26
		c-0.22-0.71-0.56-1.33-1.01-1.86s-1.02-0.95-1.71-1.26c-0.69-0.31-1.5-0.46-2.41-0.46c-1.78,0-3.19,0.51-4.21,1.52
		c-1.03,1.02-1.68,2.46-1.96,4.33h11.64V69.04z"/>
	<path class="st1" d="M670.28,51.69c0,0.53-0.11,1.03-0.32,1.5c-0.22,0.47-0.5,0.88-0.86,1.23s-0.78,0.63-1.26,0.84
		s-1,0.31-1.55,0.31c-0.53,0-1.04-0.1-1.51-0.31c-0.48-0.21-0.89-0.49-1.24-0.84s-0.63-0.76-0.84-1.23s-0.31-0.97-0.31-1.5
		c0-0.55,0.1-1.07,0.31-1.55s0.49-0.9,0.84-1.25c0.35-0.35,0.76-0.63,1.24-0.84s0.98-0.31,1.51-0.31c0.55,0,1.07,0.1,1.55,0.31
		c0.48,0.21,0.9,0.49,1.26,0.84s0.65,0.77,0.86,1.25C670.17,50.63,670.28,51.14,670.28,51.69z M669.43,59.17v25.65h-6.2V59.17
		H669.43z"/>
	<path class="st1" d="M681.5,62.32c0.52-0.52,1.06-1,1.64-1.44c0.57-0.44,1.18-0.82,1.82-1.13s1.33-0.55,2.06-0.73
		c0.73-0.17,1.53-0.26,2.4-0.26c1.4,0,2.64,0.24,3.72,0.71c1.08,0.48,1.99,1.14,2.71,2s1.28,1.88,1.65,3.07
		c0.38,1.19,0.56,2.5,0.56,3.94V84.8h-6.18V68.49c0-1.57-0.36-2.78-1.07-3.64c-0.71-0.86-1.81-1.29-3.28-1.29
		c-1.07,0-2.07,0.24-3,0.73s-1.82,1.14-2.65,1.98v18.55h-6.17V59.17h3.78c0.8,0,1.32,0.38,1.57,1.13L681.5,62.32z"/>
	<path class="st1" d="M711.17,51.69c0,0.53-0.11,1.03-0.33,1.5c-0.22,0.47-0.5,0.88-0.86,1.23s-0.78,0.63-1.26,0.84
		s-1,0.31-1.55,0.31c-0.53,0-1.04-0.1-1.51-0.31c-0.47-0.21-0.89-0.49-1.24-0.84s-0.63-0.76-0.84-1.23s-0.31-0.97-0.31-1.5
		c0-0.55,0.1-1.07,0.31-1.55s0.49-0.9,0.84-1.25c0.35-0.35,0.76-0.63,1.24-0.84s0.98-0.31,1.51-0.31c0.55,0,1.07,0.1,1.55,0.31
		c0.48,0.21,0.9,0.49,1.26,0.84s0.65,0.77,0.86,1.25S711.17,51.14,711.17,51.69z M710.33,59.17v25.65h-6.2V59.17H710.33z"/>
	<path class="st1" d="M735,64.59c-0.18,0.23-0.36,0.42-0.54,0.55s-0.43,0.2-0.76,0.2c-0.32,0-0.63-0.1-0.92-0.29
		c-0.3-0.19-0.66-0.41-1.08-0.65c-0.42-0.24-0.91-0.46-1.49-0.65c-0.58-0.19-1.29-0.29-2.14-0.29c-1.08,0-2.03,0.2-2.85,0.59
		c-0.82,0.39-1.5,0.95-2.04,1.69c-0.54,0.73-0.95,1.62-1.21,2.66c-0.27,1.04-0.4,2.22-0.4,3.54c0,1.37,0.15,2.58,0.44,3.65
		s0.71,1.96,1.26,2.69c0.55,0.72,1.22,1.27,2,1.65c0.78,0.38,1.67,0.56,2.65,0.56s1.78-0.12,2.39-0.36s1.12-0.51,1.54-0.8
		s0.78-0.56,1.09-0.8s0.65-0.36,1.04-0.36c0.5,0,0.88,0.19,1.13,0.57l1.77,2.25c-0.68,0.8-1.42,1.47-2.22,2.01s-1.63,0.98-2.49,1.3
		c-0.86,0.33-1.74,0.55-2.65,0.69c-0.91,0.13-1.81,0.2-2.71,0.2c-1.58,0-3.07-0.3-4.47-0.89c-1.4-0.59-2.63-1.45-3.67-2.59
		s-1.88-2.52-2.49-4.16s-0.91-3.51-0.91-5.61c0-1.88,0.27-3.63,0.81-5.24s1.34-3,2.39-4.18c1.05-1.17,2.35-2.1,3.9-2.76
		c1.55-0.67,3.33-1,5.35-1c1.92,0,3.6,0.31,5.04,0.92c1.44,0.62,2.74,1.5,3.89,2.65L735,64.59z"/>
	<path class="st1" d="M747.13,59.17v26.52c0,1.12-0.15,2.17-0.44,3.15s-0.76,1.85-1.4,2.59s-1.48,1.33-2.52,1.75
		c-1.04,0.43-2.31,0.64-3.81,0.64c-0.58,0-1.13-0.04-1.63-0.11s-1.02-0.2-1.55-0.36l0.23-3.33c0.05-0.33,0.18-0.55,0.4-0.64
		c0.22-0.09,0.63-0.14,1.25-0.14s1.14-0.06,1.56-0.19c0.43-0.13,0.76-0.32,1.01-0.6s0.43-0.64,0.54-1.09s0.16-1.01,0.16-1.67V59.17
		H747.13z M747.97,51.69c0,0.53-0.11,1.03-0.33,1.5c-0.22,0.47-0.5,0.88-0.86,1.23s-0.78,0.63-1.27,0.84s-1.01,0.31-1.56,0.31
		c-0.53,0-1.03-0.1-1.5-0.31c-0.47-0.21-0.88-0.49-1.23-0.84s-0.63-0.76-0.84-1.23s-0.31-0.97-0.31-1.5c0-0.55,0.1-1.07,0.31-1.55
		s0.49-0.9,0.84-1.25c0.35-0.35,0.76-0.63,1.23-0.84s0.97-0.31,1.5-0.31c0.55,0,1.07,0.1,1.56,0.31c0.49,0.21,0.92,0.49,1.27,0.84
		c0.36,0.35,0.65,0.77,0.86,1.25S747.97,51.14,747.97,51.69z"/>
	<path class="st1" d="M752.83,62.74c2.95-2.7,6.5-4.05,10.65-4.05c1.5,0,2.84,0.25,4.03,0.74c1.18,0.49,2.18,1.18,3,2.05
		s1.44,1.92,1.86,3.14c0.42,1.22,0.64,2.55,0.64,4v16.2h-2.8c-0.58,0-1.03-0.09-1.35-0.26c-0.32-0.17-0.57-0.53-0.75-1.06
		l-0.55-1.85c-0.65,0.58-1.28,1.1-1.9,1.54s-1.26,0.81-1.93,1.11s-1.38,0.53-2.14,0.69s-1.6,0.24-2.51,0.24
		c-1.08,0-2.08-0.15-3-0.44s-1.71-0.73-2.38-1.31c-0.67-0.58-1.18-1.31-1.55-2.17c-0.37-0.87-0.55-1.88-0.55-3.03
		c0-0.65,0.11-1.3,0.33-1.94s0.57-1.25,1.06-1.84c0.49-0.58,1.13-1.13,1.91-1.65c0.78-0.52,1.75-0.97,2.89-1.35s2.47-0.7,3.99-0.94
		c1.52-0.24,3.25-0.39,5.2-0.44v-1.5c0-1.72-0.37-2.99-1.1-3.81c-0.73-0.82-1.79-1.24-3.17-1.24c-1,0-1.83,0.12-2.49,0.35
		c-0.66,0.23-1.24,0.5-1.74,0.79s-0.95,0.55-1.36,0.79c-0.41,0.23-0.86,0.35-1.36,0.35c-0.43,0-0.8-0.11-1.1-0.34
		c-0.3-0.23-0.54-0.49-0.73-0.79L752.83,62.74z M766.97,73.87c-1.78,0.08-3.28,0.24-4.5,0.46s-2.19,0.51-2.92,0.86
		s-1.26,0.76-1.58,1.23s-0.47,0.97-0.47,1.52c0,1.08,0.32,1.86,0.96,2.33s1.48,0.7,2.51,0.7c1.27,0,2.36-0.23,3.29-0.69
		s1.83-1.15,2.71-2.09L766.97,73.87L766.97,73.87z"/>
	<path class="st1" d="M787,85.22c-2.23,0-3.95-0.63-5.14-1.89s-1.79-3-1.79-5.21V63.79h-2.63c-0.33,0-0.62-0.11-0.85-0.33
		s-0.35-0.54-0.35-0.98v-2.45l4.13-0.68l1.3-7c0.08-0.33,0.24-0.59,0.47-0.77s0.53-0.27,0.9-0.27h3.2v8.08h6.85v4.4h-6.85v13.9
		c0,0.8,0.2,1.42,0.59,1.88s0.93,0.67,1.61,0.67c0.38,0,0.7-0.04,0.96-0.14c0.26-0.09,0.48-0.19,0.67-0.29s0.36-0.2,0.51-0.29
		c0.15-0.09,0.3-0.14,0.45-0.14c0.18,0,0.33,0.05,0.45,0.14s0.24,0.23,0.38,0.41l1.85,3c-0.9,0.75-1.93,1.32-3.1,1.7
		C789.46,85.02,788.25,85.22,787,85.22z"/>
	<path class="st1" d="M820.35,59.17l-13.97,32.7c-0.18,0.43-0.42,0.76-0.71,0.99c-0.29,0.22-0.74,0.34-1.34,0.34h-4.6l4.8-10.3
		l-10.38-23.72h5.42c0.48,0,0.86,0.12,1.14,0.35c0.27,0.23,0.48,0.5,0.61,0.8l5.45,13.3c0.18,0.45,0.34,0.9,0.46,1.35
		s0.25,0.91,0.36,1.38c0.15-0.47,0.3-0.93,0.45-1.39s0.32-0.91,0.5-1.36l5.15-13.27c0.13-0.33,0.35-0.61,0.66-0.83
		s0.65-0.32,1.04-0.32h4.96V59.17z"/>
	<path class="st1" d="M860.05,59.17l-8.15,25.65h-4.95c-0.57,0-0.96-0.37-1.17-1.1l-4.6-14.82c-0.15-0.5-0.29-1-0.41-1.49
		c-0.13-0.49-0.23-0.99-0.31-1.49c-0.1,0.5-0.21,1-0.34,1.51s-0.26,1.01-0.41,1.51l-4.67,14.77c-0.2,0.73-0.64,1.1-1.33,1.1h-4.75
		l-8.13-25.65h4.92c0.45,0,0.83,0.11,1.15,0.32c0.32,0.22,0.52,0.49,0.63,0.83l3.67,13.7c0.18,0.75,0.35,1.48,0.49,2.2
		s0.26,1.43,0.36,2.15c0.18-0.72,0.38-1.43,0.59-2.15s0.43-1.45,0.66-2.2l4.25-13.75c0.1-0.33,0.3-0.61,0.59-0.83
		c0.29-0.22,0.65-0.33,1.06-0.33h2.72c0.43,0,0.8,0.11,1.11,0.33s0.51,0.49,0.61,0.83l4.13,13.75c0.22,0.75,0.42,1.49,0.61,2.21
		s0.38,1.45,0.56,2.16c0.22-1.42,0.52-2.88,0.92-4.38l3.78-13.7c0.12-0.33,0.32-0.61,0.63-0.83c0.3-0.22,0.66-0.32,1.07-0.32h4.71
		V59.17z"/>
	<path class="st1" d="M886.85,59.17l-13.97,32.7c-0.18,0.43-0.42,0.76-0.71,0.99c-0.29,0.22-0.74,0.34-1.34,0.34h-4.6l4.8-10.3
		l-10.38-23.72h5.42c0.48,0,0.86,0.12,1.14,0.35c0.27,0.23,0.48,0.5,0.61,0.8l5.45,13.3c0.18,0.45,0.34,0.9,0.46,1.35
		s0.25,0.91,0.36,1.38c0.15-0.47,0.3-0.93,0.45-1.39s0.32-0.91,0.5-1.36l5.15-13.27c0.13-0.33,0.35-0.61,0.66-0.83
		s0.65-0.32,1.04-0.32h4.96V59.17z"/>
</g>
<path class="st2" d="M370.43,85.69l-4.79,19.17c-0.37,1.46,0.52,2.95,1.99,3.31c1.46,0.37,2.95-0.52,3.31-1.99l2.22-8.86h18.8
	l1.18,4.72c1.11,4.43,5.58,7.06,9.94,5.96c4.38-1.1,7.06-5.56,5.97-9.94l-5.47-21.87c-0.33-1.33-0.98-2.51-1.85-3.48
	c1.3-1.45,2.09-3.37,2.09-5.46c0-4.52-3.68-8.2-8.2-8.2h-5.86l-3.2-6.4c-0.01-0.02-0.02-0.05-0.04-0.07
	c3.75-1.73,6.37-5.53,6.37-9.93c0-6.03-4.9-10.93-10.93-10.93s-10.93,4.9-10.93,10.93c0,2.86,1.1,5.46,2.91,7.41
	c-1.27,1.07-2.23,2.53-2.66,4.26l-5.47,21.87c-0.62,2.47-0.07,5.03,1.49,7.03C368.14,84.33,369.22,85.16,370.43,85.69z
	 M374.53,91.86l1.37-5.47h13.33l1.37,5.47H374.53z M381.96,37.2c3.01,0,5.47,2.45,5.47,5.47s-2.45,5.47-5.47,5.47
	s-5.47-2.45-5.47-5.47S378.95,37.2,381.96,37.2z M371.11,77.53l5.47-21.86c0.62-2.46,3.97-2.82,5.1-0.56c0,0,0,0,0,0.01l3.95,7.91
	c0.46,0.93,1.41,1.51,2.44,1.51h7.55c1.51,0,2.73,1.23,2.73,2.73c0,1.51-1.23,2.73-2.73,2.73c-1.35,0-9.75,0-10.93,0
	c-1.04,0-1.98-0.58-2.45-1.51c-0.68-1.35-2.32-1.9-3.67-1.22s-1.9,2.32-1.22,3.67c1.4,2.8,4.21,4.53,7.33,4.53
	c1.19,0,9.58,0,10.93,0c1.26,0,2.35,0.85,2.65,2.07l5.47,21.86c0.37,1.46-0.53,2.95-1.99,3.32c-1.44,0.36-2.94-0.5-3.31-1.99
	L394.01,83c-0.3-1.22-1.4-2.07-2.65-2.07h-17.6c-0.85,0-1.63-0.38-2.15-1.05C371.08,79.21,370.9,78.35,371.11,77.53z"/>
<path class="st2" d="M458.61,76.21l-5.47-21.87c-0.43-1.73-1.39-3.19-2.66-4.26c1.8-1.95,2.91-4.55,2.91-7.41
	c0-6.03-4.9-10.93-10.93-10.93s-10.93,4.9-10.93,10.93c0,4.4,2.61,8.2,6.37,9.93c-0.01,0.02-0.02,0.05-0.04,0.07l-3.2,6.4h-5.86
	c-4.52,0-8.2,3.68-8.2,8.2c0,2.1,0.79,4.01,2.09,5.46c-0.87,0.97-1.51,2.15-1.85,3.48l-5.47,21.87c-1.09,4.39,1.58,8.85,5.96,9.94
	c4.34,1.09,8.83-1.51,9.95-5.96l1.18-4.72h18.8l2.22,8.86c0.37,1.46,1.85,2.35,3.31,1.99c1.46-0.37,2.35-1.85,1.99-3.31l-4.79-19.17
	C457.51,84.13,459.61,80.2,458.61,76.21z M436.99,42.67c0-3.01,2.45-5.47,5.47-5.47c3.01,0,5.47,2.45,5.47,5.47
	s-2.45,5.47-5.47,5.47C439.44,48.13,436.99,45.68,436.99,42.67z M433.82,91.86l1.37-5.47h13.33l1.37,5.47H433.82z M450.65,80.93
	h-17.6c-1.25,0-2.35,0.85-2.65,2.07l-4.43,17.72c-0.38,1.5-1.88,2.35-3.32,1.99c-1.46-0.36-2.35-1.85-1.99-3.32l5.47-21.86
	c0.31-1.22,1.4-2.07,2.65-2.07c1.35,0,9.75,0,10.93,0c3.13,0,5.94-1.74,7.33-4.53c0.68-1.35,0.13-2.99-1.22-3.67
	c-1.35-0.67-2.99-0.13-3.67,1.22c-0.47,0.93-1.4,1.51-2.45,1.51c-1.19,0-9.58,0-10.93,0c-1.51,0-2.73-1.23-2.73-2.73
	c0-1.51,1.23-2.73,2.73-2.73h7.55c1.04,0,1.98-0.58,2.44-1.51c0.12-0.23,3.89-7.77,3.96-7.91c1.14-2.29,4.49-1.87,5.1,0.56
	l5.47,21.87C453.74,79.26,452.43,80.93,450.65,80.93z"/>
<path class="st2" d="M958.97,115.78c-0.11,0-0.22-0.01-0.33-0.02c-0.51-0.08-0.98-0.33-1.32-0.72c-0.44-0.49-0.63-1.15-0.53-1.8
	l9.88-64l-5.45,3.99c-0.38,0.28-0.83,0.43-1.31,0.43c-0.11,0-0.23-0.01-0.34-0.03c-0.29-0.04-0.56-0.14-0.81-0.3
	c-0.77-0.46-1.17-1.34-1.04-2.22l0.45-2.89l-2.89-0.45c-1.2-0.19-2.03-1.32-1.85-2.52l0.45-2.89L951,41.92
	c-0.89-0.14-1.6-0.79-1.81-1.66s0.12-1.78,0.84-2.31l31.21-22.86c0.38-0.28,0.83-0.43,1.31-0.43c0.4,0,0.8,0.11,1.15,0.32
	c0.76,0.46,1.17,1.34,1.03,2.22l-0.45,2.89l2.89,0.45c1.2,0.19,2.03,1.32,1.85,2.52l-0.45,2.89l2.88,0.44
	c0.89,0.14,1.6,0.79,1.81,1.66c0.21,0.87-0.12,1.78-0.84,2.31l-5.45,3.99l30.01,4.63l-3.99-5.45c-0.53-0.72-0.57-1.69-0.11-2.45
	c0.4-0.66,1.12-1.06,1.89-1.06c0.11,0,0.22,0.01,0.34,0.03l2.89,0.45l0.45-2.88c0.17-1.09,1.08-1.87,2.18-1.87
	c0.11,0,0.22,0.01,0.34,0.03l2.88,0.45l0.45-2.88c0.14-0.89,0.79-1.6,1.66-1.81c0.17-0.04,0.35-0.06,0.53-0.06
	c0.7,0,1.36,0.34,1.78,0.91l22.86,31.21c0.53,0.72,0.57,1.69,0.11,2.45c-0.4,0.66-1.12,1.06-1.89,1.06l0,0
	c-0.11,0-0.23-0.01-0.34-0.03l-2.89-0.45l-0.45,2.89c-0.17,1.08-1.08,1.87-2.18,1.87c-0.11,0-0.23-0.01-0.34-0.03l-2.88-0.45
	l-0.45,2.88c-0.14,0.89-0.79,1.6-1.66,1.81c-0.17,0.04-0.35,0.06-0.52,0.06c-0.11,0-0.23-0.01-0.34-0.03
	c-0.58-0.09-1.1-0.4-1.45-0.88l-3.99-5.45l-7.53,48.8c-0.13,0.85-2.49,5.53-9.79,5.9L958.97,115.78z M961.62,110.91l46.66-7.43
	c0.12-0.02,0.23-0.03,0.35-0.03c0.85,0,1.64,0.5,2,1.28c0.74,1.58,2.76,4.62,4.31,4.86c0.12,0.02,0.25,0.03,0.39,0.03
	c1.98,0,4.57-1.78,4.71-2.69l8.13-52.68l-7.49-10.23l-38.74-5.98l-10.23,7.49L961.62,110.91z M994.01,110.23l14.51-0.47
	c-0.45-0.61-0.82-1.2-1.1-1.67L994.01,110.23z M1036.27,57.83c0.24-0.98,1.11-1.68,2.14-1.68c0.11,0,0.22,0.01,0.34,0.03l2.88,0.45
	l0.45-2.88c0.17-1.09,1.08-1.87,2.18-1.87c0.05,0,0.1,0,0.14,0l-16.57-22.62c-0.24,0.98-1.11,1.68-2.14,1.68
	c-0.11,0-0.23-0.01-0.34-0.03l-2.88-0.45l-0.45,2.89c-0.17,1.09-1.08,1.87-2.18,1.87c-0.05,0-0.1,0-0.14,0l7.57,10.33L1036.27,57.83
	z M961.03,44.19c1.14,0.18,1.94,1.2,1.87,2.32l22.62-16.57c-1.1-0.27-1.83-1.34-1.65-2.48l0.45-2.89l-2.88-0.45
	c-0.58-0.09-1.1-0.4-1.45-0.88c-0.31-0.42-0.46-0.93-0.42-1.45l-22.62,16.57c0.5,0.12,0.94,0.42,1.25,0.84
	c0.35,0.48,0.49,1.06,0.4,1.64l-0.45,2.88L961.03,44.19z"/>
<path class="st2" d="M1008.99,83.16c-0.11,0-0.22-0.01-0.34-0.03l-27.03-4.17c-1.2-0.19-2.03-1.32-1.85-2.52l4.69-30.41
	c0.17-1.09,1.08-1.87,2.18-1.87c0.11,0,0.22,0.01,0.34,0.03l27.03,4.17c1.2,0.19,2.03,1.32,1.85,2.52l-4.69,30.41
	C1011,82.37,1010.08,83.16,1008.99,83.16L1008.99,83.16z M1007.14,78.43l4.02-26.04l-22.67-3.5l-4.02,26.05L1007.14,78.43z"/>
<rect x="991.62" y="73.66" transform="matrix(0.1525 -0.9883 0.9883 0.1525 753.7701 1058.0934)" class="st2" width="4.42" height="31.77"/>
<rect x="983.67" y="86.37" transform="matrix(0.1525 -0.9883 0.9883 0.1525 741.4078 1055.0645)" class="st2" width="4.42" height="17.73"/>
<path class="st2" d="M1085.48,104.6l-16.66-10.33l3.85-0.9c1.91-0.44,3.09-2.35,2.64-4.26c-0.22-0.95-0.81-1.73-1.58-2.2
	c-0.77-0.48-1.72-0.66-2.68-0.44l-12.19,2.85c-0.23,0.05-0.45,0.13-0.66,0.22c-0.06,0.03-0.11,0.06-0.16,0.09
	c-0.15,0.08-0.3,0.15-0.44,0.25c-0.07,0.05-0.12,0.11-0.19,0.16c-0.11,0.09-0.23,0.18-0.34,0.29c-0.16,0.17-0.3,0.36-0.43,0.56l0,0
	l0,0c-0.01,0.01-0.01,0.03-0.02,0.04c-0.11,0.19-0.21,0.38-0.29,0.59c-0.06,0.15-0.09,0.3-0.12,0.46c-0.02,0.07-0.04,0.14-0.06,0.21
	c-0.03,0.17-0.03,0.34-0.03,0.51c0,0.06-0.01,0.12-0.01,0.18c0.01,0.23,0.04,0.46,0.09,0.68l0,0l2.85,12.18
	c0.45,1.91,2.35,3.09,4.26,2.64s3.09-2.35,2.65-4.26l-0.9-3.84l16.66,10.33c1.66,1.03,3.85,0.52,4.88-1.14
	C1087.65,107.81,1087.14,105.63,1085.48,104.6z"/>
<path class="st2" d="M1095.28,42.92l-18.1,7.52l1.51-3.66c0.75-1.81-0.11-3.88-1.92-4.63c-0.9-0.37-1.88-0.35-2.71,0
	c-0.84,0.35-1.54,1.01-1.92,1.92l-4.79,11.56c-0.09,0.21-0.16,0.44-0.2,0.66c-0.01,0.06-0.01,0.12-0.02,0.18
	c-0.02,0.17-0.05,0.33-0.05,0.5c0,0.08,0.02,0.16,0.02,0.25c0.01,0.15,0.01,0.3,0.04,0.44c0.04,0.23,0.11,0.46,0.2,0.67l0,0l0,0
	c0.01,0.02,0.02,0.03,0.02,0.04c0.09,0.2,0.19,0.4,0.31,0.58c0.09,0.13,0.2,0.25,0.3,0.37c0.05,0.05,0.09,0.12,0.14,0.17
	c0.12,0.12,0.26,0.22,0.39,0.32c0.05,0.04,0.09,0.08,0.14,0.11c0.19,0.13,0.4,0.24,0.61,0.33l0,0l11.56,4.78
	c1.81,0.75,3.88-0.11,4.63-1.92c0.75-1.81-0.11-3.88-1.92-4.63l-3.65-1.51l18.1-7.52c1.81-0.75,2.67-2.82,1.92-4.63
	C1099.16,43.03,1097.08,42.17,1095.28,42.92z"/>
</svg>
