<?xml version="1.0" encoding="utf-8"?>
<!-- Generator: Adobe Illustrator 26.2.1, SVG Export Plug-In . SVG Version: 6.00 Build 0)  -->
<svg version="1.1" id="Warstwa_1" xmlns="http://www.w3.org/2000/svg" xmlns:xlink="http://www.w3.org/1999/xlink" x="0px" y="0px"
	 viewBox="0 0 300 300" style="enable-background:new 0 0 300 300;" xml:space="preserve">
<style type="text/css">
	.st0{fill:#CBBBA0;}
	.st1{opacity:0.9;}
	.st2{fill:url(#SVGID_1_);}
	.st3{fill:#FFFFFF;}
</style>
<g>
	<g id="Warstwa_1_00000056386386853537841080000010412747783533794992_">
		<path class="st0" d="M25.8,138L138,25.8c6.6-6.6,17.3-6.6,23.9,0L274.2,138c6.6,6.6,6.6,17.3,0,23.9L162,274.2
			c-6.6,6.6-17.3,6.6-23.9,0L25.8,162C19.2,155.4,19.2,144.6,25.8,138z"/>
		<g class="st1">
			
				<linearGradient id="SVGID_1_" gradientUnits="userSpaceOnUse" x1="20.8849" y1="149.8913" x2="279.1123" y2="149.8913" gradientTransform="matrix(1 0 0 -1 3.469976e-03 299.8913)">
				<stop  offset="0" style="stop-color:#29265B"/>
				<stop  offset="1" style="stop-color:#E74F1C"/>
			</linearGradient>
			<path class="st2" d="M25.8,138L138,25.8c6.6-6.6,17.3-6.6,23.9,0L274.2,138c6.6,6.6,6.6,17.3,0,23.9L162,274.2
				c-6.6,6.6-17.3,6.6-23.9,0L25.8,162C19.2,155.4,19.2,144.6,25.8,138z"/>
		</g>
		<g>
			<path class="st3" d="M188.7,102.4h-77.3c-14.3,0-26,11.7-26,26v43.1c0,14.4,11.6,26,26,26h77.3c14.3,0,25.9-11.7,25.9-26v-43.1
				C214.6,114.1,203,102.4,188.7,102.4z M188.7,191.5h-77.3c-11,0-19.9-8.9-19.9-19.9v-43.1c0-11,8.9-19.9,19.9-19.9h77.3
				c11,0,19.9,8.9,19.9,19.9v43.1C208.5,182.5,199.6,191.5,188.7,191.5z"/>
			<path class="st3" d="M173.4,148.7l-36.3-21.3c-0.5-0.3-1-0.4-1.5-0.4c-0.5,0-1.1,0.1-1.5,0.4c-0.9,0.6-1.5,1.6-1.5,2.6v42.5
				c0,1.1,0.6,2.1,1.5,2.6c0.5,0.3,1,0.4,1.5,0.4c0.5,0,1.1-0.1,1.5-0.4l36.3-21.3c0.9-0.6,1.5-1.6,1.5-2.6
				C174.9,150.2,174.4,149.2,173.4,148.7z M138.6,167.3v-31.9l27.2,16L138.6,167.3z"/>
		</g>
	</g>
</g>
</svg>
