<?xml version="1.0" encoding="utf-8"?>
<!-- Generator: Adobe Illustrator 24.0.2, SVG Export Plug-In . SVG Version: 6.00 Build 0)  -->
<svg version="1.1" id="Warstwa_1" xmlns="http://www.w3.org/2000/svg" xmlns:xlink="http://www.w3.org/1999/xlink" x="0px" y="0px"
	 viewBox="0 0 420 100" style="enable-background:new 0 0 420 100;" xml:space="preserve">
<style type="text/css">
	.st0{fill:url(#SVGID_1_);}
	.st1{fill:#FFFFFF;}
	.st2{opacity:0.5;fill:#FFFFFF;}
</style>
<linearGradient id="SVGID_1_" gradientUnits="userSpaceOnUse" x1="-0.47" y1="48.05" x2="424.1" y2="48.05" gradientTransform="matrix(1 0 0 -1 0 100)">
	<stop  offset="0" style="stop-color:#29265B"/>
	<stop  offset="1" style="stop-color:#E8501D"/>
</linearGradient>
<rect x="-0.47" y="-0.38" class="st0" width="424.57" height="104.66"/>
<g>
	<path class="st1" d="M124.4,46.96c0,1.99-0.33,3.84-0.99,5.54c-0.66,1.7-1.59,3.17-2.79,4.41c-1.2,1.24-2.65,2.21-4.34,2.9
		c-1.69,0.7-3.57,1.04-5.64,1.04c-2.06,0-3.93-0.35-5.62-1.04c-1.69-0.7-3.14-1.66-4.35-2.9c-1.21-1.24-2.15-2.71-2.81-4.41
		c-0.66-1.7-1-3.54-1-5.54c0-1.99,0.33-3.84,1-5.54c0.66-1.7,1.6-3.17,2.81-4.41c1.21-1.24,2.66-2.21,4.35-2.9
		c1.69-0.7,3.56-1.04,5.62-1.04c1.38,0,2.68,0.16,3.89,0.48c1.22,0.32,2.33,0.77,3.35,1.35c1.01,0.58,1.93,1.29,2.73,2.12
		c0.81,0.83,1.49,1.76,2.06,2.79c0.56,1.03,0.99,2.14,1.29,3.35C124.25,44.37,124.4,45.63,124.4,46.96z M119.23,46.96
		c0-1.49-0.2-2.83-0.6-4.01c-0.4-1.18-0.97-2.19-1.71-3.02c-0.74-0.83-1.64-1.46-2.7-1.9c-1.06-0.44-2.25-0.66-3.58-0.66
		c-1.33,0-2.52,0.22-3.58,0.66c-1.06,0.44-1.96,1.07-2.71,1.9c-0.75,0.83-1.32,1.83-1.72,3.02c-0.4,1.18-0.6,2.52-0.6,4.01
		c0,1.49,0.2,2.83,0.6,4.01c0.4,1.18,0.97,2.19,1.72,3.01c0.75,0.82,1.65,1.45,2.71,1.89c1.06,0.44,2.25,0.66,3.58,0.66
		c1.33,0,2.52-0.22,3.58-0.66c1.06-0.44,1.96-1.07,2.7-1.89c0.74-0.82,1.31-1.82,1.71-3.01C119.03,49.79,119.23,48.45,119.23,46.96z
		"/>
	<path class="st1" d="M132.46,43.64c0.78-0.81,1.64-1.46,2.58-1.95c0.95-0.48,2.03-0.72,3.24-0.72c1.12,0,2.12,0.22,3.02,0.66
		c0.9,0.44,1.66,1.07,2.29,1.89c0.63,0.82,1.12,1.81,1.46,2.98c0.34,1.17,0.51,2.48,0.51,3.93c0,1.57-0.19,2.99-0.58,4.27
		c-0.39,1.28-0.94,2.37-1.66,3.28c-0.72,0.91-1.59,1.61-2.6,2.11c-1.02,0.5-2.14,0.75-3.38,0.75c-0.6,0-1.15-0.06-1.64-0.18
		c-0.49-0.12-0.94-0.28-1.35-0.5c-0.41-0.21-0.79-0.47-1.14-0.78c-0.34-0.31-0.67-0.65-0.99-1.02l-0.21,1.3
		c-0.08,0.33-0.2,0.56-0.39,0.7c-0.18,0.14-0.43,0.21-0.74,0.21h-3.06V32.62h4.64V43.64z M132.46,55.55
		c0.53,0.64,1.1,1.09,1.72,1.35c0.62,0.26,1.27,0.39,1.96,0.39c0.71,0,1.36-0.13,1.93-0.39c0.57-0.26,1.06-0.66,1.46-1.2
		c0.4-0.55,0.71-1.24,0.92-2.09c0.21-0.85,0.32-1.86,0.32-3.04c0-2.12-0.35-3.65-1.05-4.6c-0.7-0.95-1.71-1.42-3.03-1.42
		c-0.89,0-1.67,0.2-2.33,0.61c-0.66,0.41-1.3,0.98-1.9,1.72V55.55z"/>
	<path class="st1" d="M160.92,45.03c-0.13,0.2-0.26,0.34-0.4,0.42s-0.31,0.12-0.53,0.12c-0.23,0-0.47-0.06-0.72-0.19
		c-0.26-0.13-0.55-0.27-0.89-0.42c-0.34-0.16-0.72-0.3-1.16-0.42c-0.43-0.13-0.94-0.19-1.53-0.19c-0.91,0-1.63,0.19-2.15,0.58
		c-0.52,0.39-0.78,0.9-0.78,1.52c0,0.41,0.13,0.76,0.4,1.04c0.27,0.28,0.63,0.53,1.07,0.74c0.44,0.21,0.95,0.4,1.51,0.57
		c0.56,0.17,1.14,0.35,1.72,0.55c0.58,0.2,1.16,0.43,1.72,0.69c0.56,0.26,1.07,0.58,1.51,0.98c0.44,0.39,0.8,0.87,1.07,1.42
		c0.27,0.55,0.4,1.22,0.4,1.99c0,0.93-0.17,1.78-0.5,2.57c-0.33,0.78-0.82,1.46-1.48,2.03c-0.65,0.57-1.46,1.02-2.42,1.33
		c-0.96,0.32-2.06,0.48-3.32,0.48c-0.66,0-1.31-0.06-1.95-0.18c-0.63-0.12-1.24-0.28-1.82-0.5c-0.58-0.21-1.12-0.46-1.62-0.75
		c-0.5-0.29-0.93-0.6-1.31-0.94l1.07-1.77c0.14-0.21,0.3-0.38,0.49-0.49c0.19-0.11,0.43-0.17,0.71-0.17c0.29,0,0.56,0.08,0.82,0.24
		c0.26,0.16,0.55,0.34,0.89,0.53c0.34,0.19,0.74,0.36,1.19,0.53c0.46,0.16,1.04,0.24,1.74,0.24c0.55,0,1.02-0.07,1.42-0.2
		c0.39-0.13,0.72-0.3,0.98-0.52c0.26-0.21,0.44-0.46,0.56-0.74s0.18-0.57,0.18-0.87c0-0.45-0.13-0.82-0.4-1.11
		c-0.27-0.29-0.63-0.54-1.07-0.75c-0.44-0.21-0.95-0.4-1.52-0.57c-0.57-0.17-1.15-0.35-1.75-0.55c-0.6-0.2-1.18-0.44-1.75-0.7
		c-0.57-0.27-1.08-0.61-1.52-1.02c-0.44-0.41-0.8-0.92-1.07-1.52c-0.27-0.6-0.4-1.33-0.4-2.18c0-0.79,0.16-1.54,0.47-2.26
		c0.31-0.71,0.77-1.34,1.38-1.87c0.61-0.53,1.37-0.96,2.27-1.28c0.91-0.32,1.96-0.48,3.15-0.48c1.33,0,2.54,0.22,3.63,0.66
		c1.09,0.44,2,1.01,2.73,1.73L160.92,45.03z"/>
	<path class="st1" d="M169.25,51.49c0.08,0.99,0.25,1.85,0.53,2.57c0.28,0.72,0.64,1.32,1.09,1.79c0.45,0.47,0.99,0.82,1.61,1.05
		c0.62,0.23,1.31,0.35,2.06,0.35c0.75,0,1.4-0.09,1.95-0.26c0.55-0.18,1.02-0.37,1.43-0.58c0.41-0.21,0.76-0.41,1.07-0.58
		c0.31-0.18,0.6-0.26,0.89-0.26c0.39,0,0.68,0.14,0.86,0.43l1.33,1.69c-0.51,0.6-1.09,1.11-1.73,1.51c-0.64,0.41-1.31,0.73-2,0.98
		c-0.7,0.24-1.4,0.42-2.12,0.52c-0.72,0.1-1.42,0.15-2.1,0.15c-1.34,0-2.59-0.22-3.74-0.67c-1.15-0.44-2.16-1.1-3.01-1.97
		c-0.85-0.87-1.52-1.95-2.01-3.23c-0.49-1.28-0.73-2.77-0.73-4.46c0-1.32,0.21-2.55,0.64-3.71c0.43-1.16,1.04-2.17,1.83-3.03
		c0.8-0.86,1.77-1.54,2.91-2.04s2.44-0.75,3.88-0.75c1.22,0,2.34,0.19,3.36,0.58c1.03,0.39,1.91,0.96,2.65,1.7
		c0.74,0.75,1.32,1.66,1.74,2.74c0.42,1.08,0.63,2.32,0.63,3.71c0,0.7-0.08,1.17-0.23,1.42c-0.15,0.24-0.44,0.37-0.86,0.37H169.25z
		 M178.1,48.69c0-0.6-0.08-1.17-0.25-1.7c-0.17-0.53-0.42-1-0.76-1.4c-0.34-0.4-0.77-0.72-1.29-0.95c-0.52-0.23-1.12-0.35-1.81-0.35
		c-1.34,0-2.4,0.38-3.17,1.15c-0.77,0.76-1.26,1.85-1.48,3.25H178.1z"/>
	<path class="st1" d="M190.13,44.61c0.6-1.15,1.32-2.06,2.14-2.72s1.8-0.99,2.93-0.99c0.89,0,1.6,0.19,2.14,0.58l-0.3,3.48
		c-0.06,0.23-0.15,0.39-0.27,0.48c-0.12,0.09-0.28,0.14-0.48,0.14c-0.19,0-0.47-0.03-0.84-0.09c-0.37-0.06-0.73-0.09-1.08-0.09
		c-0.51,0-0.97,0.08-1.37,0.23c-0.4,0.15-0.76,0.37-1.08,0.65c-0.32,0.28-0.6,0.62-0.85,1.02c-0.24,0.4-0.47,0.86-0.69,1.37v11.88
		h-4.64V41.27h2.73c0.48,0,0.81,0.08,1,0.25s0.31,0.47,0.38,0.91L190.13,44.61z"/>
	<path class="st1" d="M227.31,41.27l-6.13,19.29h-3.72c-0.43,0-0.72-0.28-0.88-0.83l-3.46-11.15c-0.11-0.38-0.22-0.75-0.31-1.12
		c-0.09-0.37-0.17-0.74-0.23-1.12c-0.08,0.38-0.16,0.76-0.25,1.14c-0.09,0.38-0.2,0.76-0.31,1.14l-3.51,11.11
		c-0.15,0.55-0.48,0.83-1,0.83h-3.57l-6.11-19.29h3.7c0.34,0,0.63,0.08,0.86,0.24c0.24,0.16,0.39,0.37,0.47,0.62l2.76,10.3
		c0.14,0.56,0.26,1.12,0.37,1.65c0.11,0.54,0.2,1.08,0.27,1.62c0.14-0.54,0.28-1.08,0.44-1.62c0.16-0.54,0.32-1.09,0.5-1.65
		l3.2-10.34c0.08-0.25,0.22-0.46,0.44-0.62c0.22-0.16,0.49-0.24,0.8-0.24h2.05c0.33,0,0.6,0.08,0.84,0.24
		c0.23,0.16,0.39,0.37,0.46,0.62l3.1,10.34c0.16,0.56,0.32,1.12,0.46,1.66c0.14,0.55,0.28,1.09,0.42,1.63
		c0.16-1.07,0.39-2.16,0.7-3.29l2.84-10.3c0.09-0.25,0.24-0.46,0.47-0.62c0.23-0.16,0.49-0.24,0.81-0.24H227.31z"/>
	<path class="st1" d="M246.56,41.27v19.29h-2.84c-0.61,0-1-0.28-1.17-0.85l-0.32-1.54c-0.79,0.8-1.66,1.45-2.61,1.95
		s-2.07,0.74-3.36,0.74c-1.05,0-1.98-0.18-2.79-0.54s-1.49-0.86-2.04-1.51c-0.55-0.65-0.97-1.43-1.25-2.32
		c-0.28-0.9-0.42-1.88-0.42-2.96V41.27h4.64v12.26c0,1.18,0.27,2.09,0.82,2.74c0.54,0.65,1.36,0.97,2.45,0.97
		c0.8,0,1.55-0.18,2.26-0.54c0.7-0.36,1.37-0.85,1.99-1.48V41.27H246.56z"/>
	<path class="st1" d="M255.96,41.27v19.94c0,0.84-0.11,1.63-0.33,2.37c-0.22,0.74-0.57,1.39-1.05,1.95c-0.48,0.56-1.12,1-1.9,1.32
		c-0.78,0.32-1.74,0.48-2.87,0.48c-0.44,0-0.85-0.03-1.22-0.08c-0.38-0.06-0.76-0.15-1.17-0.27l0.17-2.5
		c0.04-0.25,0.14-0.41,0.3-0.48c0.16-0.07,0.48-0.1,0.94-0.1c0.46,0,0.86-0.05,1.17-0.14c0.32-0.09,0.57-0.24,0.76-0.45
		c0.19-0.21,0.32-0.48,0.4-0.82c0.08-0.34,0.12-0.76,0.12-1.26V41.27H255.96z M256.6,35.65c0,0.4-0.08,0.78-0.24,1.13
		c-0.16,0.35-0.38,0.66-0.65,0.92c-0.27,0.26-0.59,0.47-0.96,0.63c-0.37,0.16-0.76,0.23-1.17,0.23c-0.4,0-0.78-0.08-1.13-0.23
		c-0.35-0.16-0.66-0.37-0.92-0.63c-0.26-0.26-0.47-0.57-0.63-0.92c-0.16-0.35-0.23-0.73-0.23-1.13c0-0.41,0.08-0.8,0.23-1.17
		c0.16-0.36,0.37-0.68,0.63-0.94c0.26-0.26,0.57-0.47,0.92-0.63c0.35-0.16,0.73-0.23,1.13-0.23c0.41,0,0.8,0.08,1.17,0.23
		c0.37,0.16,0.69,0.37,0.96,0.63c0.27,0.26,0.49,0.58,0.65,0.94C256.52,34.84,256.6,35.23,256.6,35.65z"/>
	<path class="st1" d="M274.17,43.64c0.39-0.39,0.8-0.75,1.23-1.08c0.43-0.33,0.89-0.61,1.37-0.85c0.48-0.23,1-0.41,1.55-0.55
		c0.55-0.13,1.15-0.2,1.8-0.2c1.05,0,1.99,0.18,2.8,0.54c0.82,0.36,1.49,0.86,2.04,1.5c0.54,0.65,0.96,1.42,1.24,2.31
		c0.28,0.9,0.42,1.88,0.42,2.96v12.27h-4.64V48.28c0-1.18-0.27-2.09-0.81-2.73c-0.54-0.65-1.36-0.97-2.46-0.97
		c-0.8,0-1.55,0.18-2.26,0.55s-1.37,0.86-1.99,1.49v13.95h-4.64V41.27h2.84c0.6,0,1,0.28,1.18,0.85L274.17,43.64z"/>
	<path class="st1" d="M290.58,43.95c2.22-2.03,4.89-3.05,8.01-3.05c1.13,0,2.14,0.19,3.03,0.55c0.89,0.37,1.64,0.88,2.26,1.54
		c0.61,0.66,1.08,1.44,1.4,2.36c0.32,0.91,0.48,1.92,0.48,3.01v12.18h-2.11c-0.44,0-0.78-0.07-1.02-0.2
		c-0.24-0.13-0.43-0.4-0.56-0.8l-0.41-1.39c-0.49,0.44-0.96,0.82-1.43,1.16c-0.46,0.33-0.95,0.61-1.45,0.84
		c-0.5,0.23-1.04,0.4-1.61,0.52c-0.57,0.12-1.2,0.18-1.89,0.18c-0.82,0-1.57-0.11-2.26-0.33c-0.69-0.22-1.29-0.55-1.79-0.99
		c-0.5-0.44-0.89-0.98-1.17-1.64c-0.28-0.65-0.41-1.41-0.41-2.27c0-0.49,0.08-0.97,0.24-1.46c0.16-0.48,0.43-0.94,0.8-1.38
		c0.37-0.44,0.85-0.85,1.44-1.24c0.59-0.39,1.31-0.73,2.17-1.02c0.86-0.29,1.86-0.52,3-0.7c1.14-0.18,2.44-0.29,3.91-0.33v-1.13
		c0-1.29-0.28-2.25-0.83-2.87c-0.55-0.62-1.35-0.93-2.39-0.93c-0.75,0-1.38,0.09-1.87,0.26c-0.5,0.18-0.93,0.37-1.31,0.59
		c-0.38,0.22-0.72,0.42-1.02,0.59c-0.31,0.18-0.65,0.26-1.02,0.26c-0.33,0-0.6-0.08-0.83-0.25c-0.23-0.17-0.41-0.37-0.55-0.59
		L290.58,43.95z M301.22,52.32c-1.34,0.06-2.47,0.18-3.38,0.35c-0.91,0.17-1.65,0.39-2.2,0.65c-0.55,0.26-0.95,0.57-1.18,0.92
		c-0.24,0.35-0.36,0.73-0.36,1.15c0,0.81,0.24,1.4,0.72,1.75c0.48,0.35,1.11,0.53,1.89,0.53c0.95,0,1.78-0.17,2.47-0.52
		c0.7-0.34,1.38-0.87,2.04-1.57V52.32z"/>
	<path class="st1" d="M321.88,45.03c-0.13,0.2-0.26,0.34-0.4,0.42c-0.14,0.08-0.31,0.12-0.53,0.12c-0.23,0-0.47-0.06-0.72-0.19
		c-0.26-0.13-0.55-0.27-0.89-0.42s-0.72-0.3-1.16-0.42c-0.43-0.13-0.94-0.19-1.53-0.19c-0.91,0-1.63,0.19-2.15,0.58
		c-0.52,0.39-0.78,0.9-0.78,1.52c0,0.41,0.14,0.76,0.4,1.04s0.63,0.53,1.07,0.74c0.44,0.21,0.95,0.4,1.51,0.57
		c0.56,0.17,1.14,0.35,1.72,0.55c0.58,0.2,1.16,0.43,1.72,0.69c0.56,0.26,1.07,0.58,1.51,0.98c0.44,0.39,0.8,0.87,1.07,1.42
		c0.27,0.55,0.4,1.22,0.4,1.99c0,0.93-0.17,1.78-0.5,2.57c-0.33,0.78-0.82,1.46-1.48,2.03c-0.65,0.57-1.46,1.02-2.42,1.33
		c-0.96,0.32-2.06,0.48-3.32,0.48c-0.66,0-1.31-0.06-1.95-0.18c-0.63-0.12-1.24-0.28-1.82-0.5c-0.58-0.21-1.12-0.46-1.62-0.75
		c-0.5-0.29-0.93-0.6-1.31-0.94l1.07-1.77c0.14-0.21,0.3-0.38,0.49-0.49c0.19-0.11,0.43-0.17,0.71-0.17c0.29,0,0.56,0.08,0.82,0.24
		c0.26,0.16,0.55,0.34,0.89,0.53c0.34,0.19,0.74,0.36,1.19,0.53c0.46,0.16,1.04,0.24,1.74,0.24c0.55,0,1.02-0.07,1.42-0.2
		c0.4-0.13,0.72-0.3,0.98-0.52c0.26-0.21,0.44-0.46,0.56-0.74s0.18-0.57,0.18-0.87c0-0.45-0.13-0.82-0.4-1.11
		c-0.27-0.29-0.63-0.54-1.07-0.75c-0.44-0.21-0.95-0.4-1.52-0.57c-0.57-0.17-1.15-0.35-1.75-0.55c-0.59-0.2-1.18-0.44-1.75-0.7
		c-0.57-0.27-1.08-0.61-1.52-1.02c-0.44-0.41-0.8-0.92-1.07-1.52c-0.27-0.6-0.4-1.33-0.4-2.18c0-0.79,0.16-1.54,0.47-2.26
		c0.31-0.71,0.77-1.34,1.38-1.87c0.61-0.53,1.37-0.96,2.27-1.28c0.91-0.32,1.96-0.48,3.15-0.48c1.33,0,2.54,0.22,3.63,0.66
		c1.09,0.44,2,1.01,2.73,1.73L321.88,45.03z"/>
</g>
<path class="st2" d="M34.88,74.46c-0.97,0-1.86-0.61-2.2-1.52l-8.67-23.07c-0.22-0.59-0.2-1.23,0.06-1.8
	c0.26-0.57,0.73-1.01,1.32-1.23l11.54-4.33c0.27-0.1,0.54-0.15,0.83-0.15c0.75,0,1.45,0.36,1.88,0.95c4.11-4.5,7.42-9.45,5.8-15.16
	c-0.56-1.96,0.51-4.06,2.43-4.78c0.82-0.29,1.62-0.43,2.42-0.43c1.02,0,2.01,0.22,2.94,0.65c1.68,0.78,2.97,2.16,3.62,3.9l0.17,0.46
	c0.85,2.26,1.17,4.32,1.02,6.63l6.3-2.37c0.61-0.23,1.25-0.35,1.91-0.35c2.25,0,4.3,1.42,5.09,3.52c0.4,1.06,0.45,2.19,0.17,3.27
	c0.88,0.62,1.56,1.5,1.94,2.52c0.57,1.52,0.44,3.17-0.35,4.56c0.46,0.51,0.83,1.1,1.07,1.75c0.57,1.52,0.44,3.17-0.34,4.56
	c0.46,0.51,0.83,1.1,1.07,1.75c0.51,1.36,0.46,2.83-0.14,4.16c-0.6,1.32-1.68,2.33-3.04,2.84l-4.27,1.61
	c-0.96,0.36-1.87,0.71-2.75,1.05l-0.21,0.08c-0.86,0.33-1.7,0.66-2.52,0.97c-3.93,1.48-8.21,2.92-13.49,2.92
	c-0.25,0-0.51,0-0.77-0.01c-0.45,1.69-1.67,3.06-3.34,3.68l-8.65,3.25C35.44,74.41,35.17,74.46,34.88,74.46z M36.26,69.08l1.36-0.51
	L36.28,65c-0.46-1.21,0.16-2.57,1.37-3.03c0.27-0.1,0.55-0.15,0.83-0.15c0.97,0,1.86,0.61,2.2,1.53l1.34,3.57l0.68-0.26
	c0.18-0.07,0.33-0.2,0.41-0.38c0.08-0.18,0.09-0.38,0.02-0.56l-6.76-17.99l-7.13,2.68L36.26,69.08z M47.02,62.64
	c0.49,0.03,0.97,0.04,1.45,0.04c5.08,0,8.96-1.5,14.32-3.57c0.96-0.37,1.95-0.75,3-1.15l4.27-1.61c0.38-0.14,0.57-0.56,0.43-0.94
	c-0.11-0.28-0.38-0.47-0.68-0.47c-0.09,0-0.17,0.02-0.25,0.05c-0.27,0.1-0.54,0.15-0.83,0.15c-0.97,0-1.86-0.61-2.2-1.53
	c-0.46-1.21,0.16-2.57,1.38-3.03l1.44-0.54c0.18-0.07,0.33-0.2,0.41-0.38c0.08-0.18,0.09-0.37,0.02-0.56
	c-0.11-0.28-0.38-0.47-0.68-0.47c-0.09,0-0.17,0.02-0.25,0.05l-1.39,0.52c-0.27,0.1-0.54,0.15-0.83,0.15c-0.97,0-1.86-0.61-2.2-1.53
	c-0.22-0.59-0.2-1.23,0.06-1.8c0.26-0.57,0.73-1.01,1.32-1.23l2.83-1.06c0.18-0.07,0.33-0.2,0.41-0.38
	c0.08-0.18,0.09-0.38,0.02-0.56c-0.11-0.28-0.38-0.47-0.68-0.47c-0.09,0-0.17,0.02-0.25,0.05l-2.83,1.06
	c-0.27,0.1-0.54,0.15-0.83,0.15c-0.97,0-1.86-0.61-2.2-1.53c-0.46-1.21,0.16-2.57,1.37-3.03l2.88-1.08c0.18-0.07,0.33-0.2,0.41-0.38
	c0.08-0.18,0.09-0.37,0.02-0.56c-0.11-0.28-0.38-0.47-0.68-0.47c-0.09,0-0.17,0.02-0.25,0.05l-12.98,4.88
	c-0.27,0.1-0.54,0.15-0.83,0.15c-0.97,0-1.86-0.61-2.2-1.53c-0.46-1.21,0.16-2.57,1.38-3.03l1.68-0.63
	c0.49-2.49,0.53-4.31-0.42-6.85l-0.17-0.45c-0.34-0.89-1.21-1.49-2.17-1.49c-0.04,0-0.08,0-0.11,0c0.92,3.98,0.23,8.07-2.05,12.17
	c-1.93,3.47-4.59,6.26-6.54,8.31L47.02,62.64z"/>
<path class="st2" d="M364.34,75.12c-0.46,0-0.91-0.09-1.34-0.28c-0.9-0.39-1.57-1.16-1.85-2.11c-1.62-5.55-3.73-10.14-5.6-14.2
	c-3.35-7.29-6.25-13.57-3.31-20.27c1.53-3.48,4.21-6.2,7.54-7.64c1.7-0.73,3.49-1.1,5.33-1.1c1.92,0,3.82,0.4,5.63,1.2
	c3.85,1.69,6.46,4.9,7.57,9.29c2.23-1.2,4.51-1.81,6.79-1.81c1.77,0,3.51,0.37,5.17,1.1c3.58,1.57,6.24,4.42,7.48,8.01
	c1.19,3.42,1,7.23-0.53,10.72c-2.94,6.69-9.53,8.81-17.17,11.27c-4.27,1.37-9.08,2.92-14.24,5.48
	C365.35,75,364.85,75.12,364.34,75.12z M365.12,36.18c-2.9,0-5.51,1.83-6.8,4.76c-1.74,3.96,0.25,8.27,3.26,14.81
	c1.54,3.35,3.26,7.08,4.78,11.45c4.25-1.84,8.16-3.1,11.66-4.23c6.85-2.2,11.38-3.66,13.12-7.62c0.87-1.97,0.98-4.08,0.31-5.92
	c-0.66-1.81-2.03-3.25-3.86-4.05c-0.81-0.35-1.64-0.53-2.48-0.53c-3.87,0-7.06,3.69-7.09,3.73c-0.62,0.75-1.56,1.19-2.55,1.19
	c-0.46,0-0.91-0.09-1.34-0.28c-1.35-0.59-2.15-2.03-1.96-3.48c0,0,0.23-1.92-0.25-4.05c-0.57-2.58-1.84-4.26-3.88-5.16
	C367.1,36.39,366.11,36.18,365.12,36.18z"/>
</svg>
