<?xml version="1.0" encoding="utf-8"?>
<!-- Generator: Adobe Illustrator 24.0.2, SVG Export Plug-In . SVG Version: 6.00 Build 0)  -->
<svg version="1.1" id="Warstwa_1" xmlns="http://www.w3.org/2000/svg" xmlns:xlink="http://www.w3.org/1999/xlink" x="0px" y="0px"
	 viewBox="0 0 1400 140" style="enable-background:new 0 0 1400 140;" xml:space="preserve">
<style type="text/css">
	.st0{fill:url(#SVGID_1_);}
	.st1{fill:#FFFFFF;}
	.st2{opacity:0.5;}
	.st3{opacity:0.5;fill:#FFFFFF;}
</style>
<linearGradient id="SVGID_1_" gradientUnits="userSpaceOnUse" x1="0" y1="70" x2="1400" y2="70" gradientTransform="matrix(1 0 0 -1 0 140)">
	<stop  offset="0" style="stop-color:#29235C"/>
	<stop  offset="1" style="stop-color:#E84E1B"/>
</linearGradient>
<rect class="st0" width="1400" height="140"/>
<g>
	<path class="st1" d="M585.79,66c0,2.65-0.44,5.1-1.31,7.36s-2.11,4.21-3.71,5.86s-3.52,2.94-5.77,3.86
		c-2.25,0.92-4.75,1.39-7.5,1.39c-2.73,0-5.23-0.46-7.48-1.39c-2.25-0.93-4.18-2.21-5.79-3.86s-2.85-3.6-3.74-5.86
		c-0.88-2.26-1.33-4.71-1.33-7.36c0-2.65,0.44-5.1,1.33-7.36c0.88-2.26,2.13-4.21,3.74-5.86c1.61-1.65,3.54-2.94,5.79-3.86
		c2.25-0.92,4.74-1.39,7.48-1.39c1.83,0,3.56,0.21,5.17,0.64c1.62,0.43,3.1,1.02,4.45,1.8c1.35,0.77,2.56,1.72,3.64,2.82
		c1.08,1.11,1.99,2.35,2.74,3.71c0.75,1.37,1.32,2.85,1.71,4.45C585.59,62.55,585.79,64.23,585.79,66z M578.91,66
		c0-1.98-0.27-3.76-0.8-5.34c-0.53-1.57-1.29-2.91-2.28-4.01c-0.98-1.1-2.18-1.94-3.59-2.53c-1.41-0.58-3-0.88-4.76-0.88
		c-1.77,0-3.35,0.29-4.76,0.88c-1.41,0.58-2.61,1.43-3.6,2.53c-0.99,1.1-1.75,2.44-2.29,4.01c-0.53,1.58-0.8,3.35-0.8,5.34
		c0,1.98,0.27,3.76,0.8,5.34c0.53,1.57,1.3,2.91,2.29,4s2.19,1.93,3.6,2.51c1.41,0.58,3,0.88,4.76,0.88c1.77,0,3.35-0.29,4.76-0.88
		c1.41-0.58,2.6-1.42,3.59-2.51s1.74-2.43,2.28-4C578.65,69.76,578.91,67.98,578.91,66z"/>
	<path class="st1" d="M596.51,61.57c1.03-1.08,2.18-1.95,3.44-2.59c1.26-0.64,2.7-0.96,4.31-0.96c1.48,0,2.82,0.29,4.01,0.88
		s2.21,1.42,3.05,2.51c0.84,1.09,1.49,2.41,1.94,3.96c0.45,1.55,0.67,3.29,0.67,5.23c0,2.08-0.26,3.98-0.77,5.68
		c-0.52,1.7-1.25,3.15-2.21,4.36c-0.96,1.21-2.11,2.15-3.46,2.81c-1.35,0.67-2.85,1-4.5,1c-0.8,0-1.53-0.08-2.18-0.24
		s-1.25-0.38-1.8-0.66c-0.55-0.28-1.05-0.63-1.51-1.04c-0.46-0.41-0.9-0.86-1.31-1.36l-0.27,1.72c-0.1,0.43-0.27,0.74-0.51,0.93
		c-0.24,0.18-0.57,0.27-0.99,0.27h-4.08V46.93h6.18V61.57z M596.51,77.43c0.7,0.85,1.46,1.45,2.29,1.8c0.82,0.35,1.7,0.52,2.61,0.52
		c0.95,0,1.8-0.17,2.56-0.51c0.76-0.34,1.4-0.88,1.94-1.6c0.53-0.73,0.94-1.65,1.23-2.77c0.28-1.13,0.42-2.47,0.42-4.04
		c0-2.82-0.47-4.85-1.4-6.11c-0.93-1.26-2.27-1.89-4.02-1.89c-1.18,0-2.22,0.27-3.1,0.81c-0.88,0.54-1.73,1.3-2.52,2.29V77.43z"/>
	<path class="st1" d="M634.36,63.43c-0.17,0.27-0.34,0.45-0.53,0.56s-0.42,0.16-0.7,0.16c-0.3,0-0.62-0.08-0.96-0.25
		c-0.34-0.17-0.74-0.35-1.19-0.56c-0.45-0.21-0.96-0.4-1.54-0.56c-0.58-0.17-1.25-0.25-2.04-0.25c-1.22,0-2.17,0.26-2.86,0.77
		c-0.69,0.52-1.04,1.19-1.04,2.02c0,0.55,0.18,1.01,0.54,1.39c0.36,0.38,0.83,0.7,1.42,0.99c0.59,0.28,1.26,0.54,2.01,0.76
		c0.75,0.22,1.51,0.47,2.29,0.74c0.78,0.27,1.54,0.57,2.29,0.91c0.75,0.34,1.42,0.77,2.01,1.3c0.59,0.52,1.07,1.15,1.42,1.89
		s0.54,1.62,0.54,2.65c0,1.23-0.22,2.37-0.66,3.41c-0.44,1.04-1.1,1.94-1.96,2.7c-0.87,0.76-1.94,1.35-3.21,1.78
		c-1.27,0.42-2.75,0.64-4.41,0.64c-0.88,0-1.75-0.08-2.59-0.24c-0.84-0.16-1.65-0.38-2.43-0.66c-0.77-0.28-1.49-0.62-2.15-1
		c-0.66-0.38-1.24-0.8-1.74-1.25l1.42-2.35c0.18-0.28,0.4-0.5,0.65-0.65s0.57-0.23,0.95-0.23c0.38,0,0.75,0.11,1.09,0.33
		c0.34,0.22,0.74,0.45,1.19,0.7c0.45,0.25,0.98,0.48,1.59,0.7c0.61,0.22,1.38,0.33,2.31,0.33c0.73,0,1.36-0.09,1.89-0.26
		s0.96-0.4,1.3-0.69c0.34-0.28,0.59-0.61,0.75-0.99s0.24-0.76,0.24-1.16c0-0.6-0.18-1.09-0.54-1.48c-0.36-0.38-0.83-0.72-1.42-1
		c-0.59-0.28-1.27-0.54-2.03-0.76c-0.76-0.22-1.53-0.47-2.32-0.74c-0.79-0.27-1.57-0.58-2.33-0.94s-1.43-0.81-2.02-1.36
		c-0.59-0.55-1.07-1.23-1.42-2.03c-0.36-0.8-0.54-1.77-0.54-2.9c0-1.05,0.21-2.05,0.63-3c0.42-0.95,1.03-1.78,1.84-2.49
		c0.81-0.71,1.82-1.27,3.02-1.7c1.21-0.42,2.6-0.64,4.19-0.64c1.77,0,3.38,0.29,4.83,0.88c1.45,0.58,2.66,1.35,3.63,2.3
		L634.36,63.43z"/>
	<path class="st1" d="M645.44,72.03c0.1,1.32,0.33,2.45,0.7,3.41c0.37,0.96,0.85,1.75,1.45,2.38c0.6,0.63,1.31,1.09,2.14,1.4
		c0.83,0.31,1.74,0.46,2.74,0.46s1.86-0.12,2.59-0.35s1.36-0.49,1.9-0.77c0.54-0.28,1.02-0.54,1.42-0.77s0.8-0.35,1.19-0.35
		c0.52,0,0.9,0.19,1.15,0.57l1.77,2.25c-0.68,0.8-1.45,1.47-2.3,2.01c-0.85,0.54-1.74,0.98-2.66,1.3c-0.93,0.33-1.87,0.55-2.83,0.69
		c-0.96,0.13-1.89,0.2-2.79,0.2c-1.78,0-3.44-0.3-4.98-0.89c-1.53-0.59-2.87-1.47-4-2.63c-1.13-1.16-2.02-2.59-2.67-4.3
		c-0.65-1.71-0.98-3.69-0.98-5.94c0-1.75,0.28-3.4,0.85-4.94c0.57-1.54,1.38-2.88,2.44-4.02c1.06-1.14,2.35-2.05,3.88-2.71
		s3.25-1,5.16-1c1.62,0,3.11,0.26,4.48,0.77c1.37,0.52,2.54,1.27,3.52,2.26c0.98,0.99,1.75,2.21,2.31,3.65
		c0.56,1.44,0.84,3.09,0.84,4.94c0,0.93-0.1,1.56-0.3,1.89c-0.2,0.33-0.58,0.49-1.15,0.49H645.44z M657.21,68.3
		c0-0.8-0.11-1.55-0.34-2.26c-0.22-0.71-0.56-1.33-1.01-1.86c-0.45-0.53-1.02-0.95-1.71-1.26c-0.69-0.31-1.5-0.46-2.41-0.46
		c-1.78,0-3.19,0.51-4.21,1.52c-1.03,1.02-1.68,2.46-1.96,4.33H657.21z"/>
	<path class="st1" d="M673.21,62.87c0.8-1.53,1.75-2.74,2.85-3.61s2.4-1.31,3.9-1.31c1.18,0,2.13,0.26,2.85,0.77l-0.4,4.63
		c-0.08,0.3-0.2,0.51-0.36,0.64c-0.16,0.13-0.37,0.19-0.64,0.19c-0.25,0-0.62-0.04-1.11-0.13s-0.97-0.13-1.44-0.13
		c-0.68,0-1.29,0.1-1.82,0.3c-0.53,0.2-1.01,0.49-1.44,0.86c-0.43,0.38-0.8,0.83-1.13,1.36c-0.33,0.53-0.63,1.14-0.91,1.83v15.8
		h-6.18V58.43h3.63c0.63,0,1.08,0.11,1.33,0.34s0.42,0.63,0.5,1.21L673.21,62.87z"/>
	<path class="st1" d="M722.66,58.43l-8.15,25.65h-4.95c-0.57,0-0.96-0.37-1.17-1.1l-4.6-14.82c-0.15-0.5-0.29-1-0.41-1.49
		c-0.13-0.49-0.23-0.99-0.31-1.49c-0.1,0.5-0.21,1-0.34,1.51c-0.13,0.51-0.26,1.01-0.41,1.51l-4.67,14.77
		c-0.2,0.73-0.64,1.1-1.33,1.1h-4.75l-8.13-25.65h4.92c0.45,0,0.83,0.11,1.15,0.32c0.32,0.22,0.52,0.49,0.63,0.83l3.67,13.7
		c0.18,0.75,0.35,1.48,0.49,2.2c0.14,0.72,0.26,1.43,0.36,2.15c0.18-0.72,0.38-1.43,0.59-2.15c0.21-0.72,0.43-1.45,0.66-2.2
		l4.25-13.75c0.1-0.33,0.3-0.61,0.59-0.83c0.29-0.22,0.65-0.33,1.06-0.33h2.72c0.43,0,0.8,0.11,1.11,0.33
		c0.31,0.22,0.51,0.49,0.61,0.83l4.13,13.75c0.22,0.75,0.42,1.49,0.61,2.21c0.19,0.73,0.38,1.45,0.56,2.16
		c0.22-1.42,0.52-2.88,0.92-4.38l3.78-13.7c0.12-0.33,0.32-0.61,0.63-0.83c0.3-0.22,0.66-0.32,1.07-0.32H722.66z"/>
	<path class="st1" d="M748.26,58.43v25.65h-3.78c-0.82,0-1.33-0.38-1.55-1.13l-0.42-2.05c-1.05,1.07-2.21,1.93-3.48,2.59
		s-2.76,0.99-4.47,0.99c-1.4,0-2.64-0.24-3.71-0.71s-1.98-1.15-2.71-2.01c-0.73-0.87-1.29-1.9-1.66-3.09
		c-0.38-1.19-0.56-2.5-0.56-3.94v-16.3h6.17v16.3c0,1.57,0.36,2.78,1.09,3.64s1.81,1.29,3.26,1.29c1.07,0,2.07-0.24,3-0.71
		c0.93-0.47,1.82-1.13,2.65-1.96V58.43H748.26z"/>
	<path class="st1" d="M760.76,58.43v26.52c0,1.12-0.15,2.17-0.44,3.15c-0.29,0.98-0.76,1.85-1.4,2.59
		c-0.64,0.74-1.48,1.33-2.52,1.75c-1.04,0.43-2.31,0.64-3.81,0.64c-0.58,0-1.13-0.04-1.63-0.11s-1.02-0.2-1.55-0.36l0.23-3.33
		c0.05-0.33,0.18-0.55,0.4-0.64c0.22-0.09,0.63-0.14,1.25-0.14c0.62,0,1.14-0.06,1.56-0.19c0.43-0.13,0.76-0.32,1.01-0.6
		s0.43-0.64,0.54-1.09c0.11-0.45,0.16-1.01,0.16-1.67V58.43H760.76z M761.61,50.95c0,0.53-0.11,1.03-0.33,1.5
		c-0.22,0.47-0.5,0.88-0.86,1.23s-0.78,0.63-1.27,0.84c-0.49,0.21-1.01,0.31-1.56,0.31c-0.53,0-1.03-0.1-1.5-0.31
		c-0.47-0.21-0.88-0.49-1.23-0.84c-0.35-0.35-0.63-0.76-0.84-1.23c-0.21-0.47-0.31-0.97-0.31-1.5c0-0.55,0.1-1.07,0.31-1.55
		c0.21-0.48,0.49-0.9,0.84-1.25c0.35-0.35,0.76-0.63,1.23-0.84c0.47-0.21,0.97-0.31,1.5-0.31c0.55,0,1.07,0.1,1.56,0.31
		c0.49,0.21,0.92,0.49,1.27,0.84c0.36,0.35,0.65,0.77,0.86,1.25S761.61,50.4,761.61,50.95z"/>
	<path class="st1" d="M784.99,61.57c0.52-0.52,1.06-1,1.64-1.44c0.57-0.44,1.18-0.82,1.82-1.13c0.64-0.31,1.33-0.55,2.06-0.73
		c0.73-0.17,1.53-0.26,2.4-0.26c1.4,0,2.64,0.24,3.72,0.71c1.08,0.48,1.99,1.14,2.71,2s1.28,1.88,1.65,3.07
		c0.38,1.19,0.56,2.5,0.56,3.94v16.33h-6.18V67.75c0-1.57-0.36-2.78-1.07-3.64c-0.72-0.86-1.81-1.29-3.28-1.29
		c-1.07,0-2.07,0.24-3,0.73s-1.82,1.14-2.65,1.98v18.55h-6.17V58.43h3.78c0.8,0,1.33,0.38,1.58,1.13L784.99,61.57z"/>
	<path class="st1" d="M806.81,62c2.95-2.7,6.5-4.05,10.65-4.05c1.5,0,2.84,0.25,4.03,0.74c1.18,0.49,2.18,1.18,3,2.05
		s1.44,1.92,1.86,3.14c0.42,1.22,0.64,2.55,0.64,4v16.2h-2.8c-0.58,0-1.03-0.09-1.35-0.26c-0.32-0.17-0.57-0.53-0.75-1.06
		l-0.55-1.85c-0.65,0.58-1.28,1.1-1.9,1.54c-0.62,0.44-1.26,0.81-1.93,1.11c-0.67,0.3-1.38,0.53-2.14,0.69
		c-0.76,0.16-1.6,0.24-2.51,0.24c-1.08,0-2.08-0.15-3-0.44c-0.92-0.29-1.71-0.73-2.38-1.31c-0.67-0.58-1.18-1.31-1.55-2.17
		c-0.37-0.87-0.55-1.88-0.55-3.02c0-0.65,0.11-1.3,0.33-1.94s0.57-1.25,1.06-1.84c0.49-0.58,1.13-1.13,1.91-1.65
		c0.78-0.52,1.75-0.97,2.89-1.35c1.14-0.38,2.47-0.7,3.99-0.94c1.52-0.24,3.25-0.39,5.2-0.44v-1.5c0-1.72-0.37-2.99-1.1-3.81
		c-0.73-0.82-1.79-1.24-3.17-1.24c-1,0-1.83,0.12-2.49,0.35c-0.66,0.23-1.24,0.5-1.74,0.79s-0.95,0.55-1.36,0.79
		c-0.41,0.23-0.86,0.35-1.36,0.35c-0.43,0-0.8-0.11-1.1-0.34c-0.3-0.23-0.54-0.49-0.73-0.79L806.81,62z M820.96,73.12
		c-1.78,0.08-3.28,0.24-4.5,0.46c-1.22,0.22-2.19,0.51-2.92,0.86s-1.26,0.76-1.58,1.23c-0.32,0.47-0.47,0.98-0.47,1.52
		c0,1.08,0.32,1.86,0.96,2.33c0.64,0.47,1.48,0.7,2.51,0.7c1.27,0,2.36-0.23,3.29-0.69c0.92-0.46,1.83-1.15,2.71-2.09V73.12z"/>
	<path class="st1" d="M848.44,63.43c-0.17,0.27-0.34,0.45-0.53,0.56s-0.42,0.16-0.7,0.16c-0.3,0-0.62-0.08-0.96-0.25
		c-0.34-0.17-0.74-0.35-1.19-0.56s-0.96-0.4-1.54-0.56c-0.57-0.17-1.25-0.25-2.04-0.25c-1.22,0-2.17,0.26-2.86,0.77
		c-0.69,0.52-1.04,1.19-1.04,2.02c0,0.55,0.18,1.01,0.54,1.39s0.83,0.7,1.42,0.99c0.59,0.28,1.26,0.54,2.01,0.76
		c0.75,0.22,1.51,0.47,2.29,0.74c0.78,0.27,1.54,0.57,2.29,0.91c0.75,0.34,1.42,0.77,2.01,1.3s1.07,1.15,1.43,1.89
		c0.36,0.73,0.54,1.62,0.54,2.65c0,1.23-0.22,2.37-0.66,3.41c-0.44,1.04-1.1,1.94-1.96,2.7c-0.87,0.76-1.94,1.35-3.21,1.78
		c-1.27,0.42-2.75,0.64-4.41,0.64c-0.88,0-1.75-0.08-2.59-0.24c-0.84-0.16-1.65-0.38-2.42-0.66c-0.77-0.28-1.49-0.62-2.15-1
		c-0.66-0.38-1.24-0.8-1.74-1.25l1.43-2.35c0.18-0.28,0.4-0.5,0.65-0.65s0.57-0.23,0.95-0.23c0.38,0,0.75,0.11,1.09,0.33
		c0.34,0.22,0.74,0.45,1.19,0.7c0.45,0.25,0.98,0.48,1.59,0.7c0.61,0.22,1.38,0.33,2.31,0.33c0.73,0,1.36-0.09,1.89-0.26
		s0.96-0.4,1.3-0.69c0.34-0.28,0.59-0.61,0.75-0.99s0.24-0.76,0.24-1.16c0-0.6-0.18-1.09-0.54-1.48c-0.36-0.38-0.83-0.72-1.42-1
		c-0.59-0.28-1.27-0.54-2.03-0.76c-0.76-0.22-1.53-0.47-2.33-0.74c-0.79-0.27-1.57-0.58-2.32-0.94c-0.76-0.36-1.43-0.81-2.03-1.36
		c-0.59-0.55-1.07-1.23-1.42-2.03c-0.36-0.8-0.54-1.77-0.54-2.9c0-1.05,0.21-2.05,0.63-3c0.42-0.95,1.03-1.78,1.84-2.49
		s1.82-1.27,3.03-1.7c1.21-0.42,2.6-0.64,4.19-0.64c1.77,0,3.38,0.29,4.82,0.88c1.45,0.58,2.66,1.35,3.63,2.3L848.44,63.43z"/>
</g>
<g class="st2">
	<circle class="st1" cx="342.21" cy="89.71" r="9.96"/>
</g>
<g class="st2">
	<circle class="st1" cx="1115.56" cy="41.94" r="9.96"/>
</g>
<g class="st2">
	<circle class="st1" cx="385.2" cy="111.46" r="5.87"/>
</g>
<g class="st2">
	<circle class="st1" cx="1141.36" cy="97.49" r="5.87"/>
</g>
<g class="st2">
	<circle class="st1" cx="1051.92" cy="36.43" r="5.87"/>
</g>
<g class="st2">
	<circle class="st1" cx="315.75" cy="36.07" r="5.87"/>
</g>
<g class="st2">
	<circle class="st1" cx="289.2" cy="99.66" r="5.87"/>
</g>
<g class="st2">
	<circle class="st1" cx="467.04" cy="33.4" r="5.87"/>
</g>
<g class="st2">
	<circle class="st1" cx="1010.6" cy="105.53" r="5.87"/>
</g>
<path class="st3" d="M965.48,85.88c-1.07,0-2.05-0.67-2.42-1.68l-9.54-25.4c-0.24-0.65-0.22-1.35,0.07-1.98
	c0.29-0.63,0.8-1.11,1.45-1.35l12.7-4.77c0.29-0.11,0.6-0.17,0.91-0.17c0.83,0,1.59,0.4,2.07,1.04c4.53-4.96,8.17-10.4,6.38-16.68
	c-0.61-2.16,0.56-4.47,2.68-5.27c0.9-0.32,1.78-0.48,2.67-0.48c1.12,0,2.21,0.24,3.24,0.72c1.85,0.86,3.26,2.38,3.98,4.29l0.19,0.5
	c0.94,2.49,1.29,4.75,1.12,7.29l6.93-2.6c0.67-0.25,1.38-0.38,2.1-0.38c2.48,0,4.73,1.56,5.61,3.88c0.44,1.16,0.5,2.41,0.19,3.6
	c0.97,0.69,1.72,1.65,2.14,2.77c0.63,1.67,0.48,3.49-0.38,5.02c0.51,0.56,0.91,1.21,1.18,1.92c0.63,1.67,0.48,3.49-0.38,5.02
	c0.51,0.56,0.91,1.21,1.18,1.92c0.56,1.49,0.51,3.12-0.15,4.57c-0.66,1.46-1.85,2.57-3.34,3.13l-4.71,1.77
	c-1.05,0.39-2.06,0.78-3.03,1.16l-0.23,0.09c-0.95,0.37-1.87,0.72-2.78,1.06c-4.33,1.63-9.04,3.21-14.85,3.21
	c-0.28,0-0.56,0-0.85-0.01c-0.49,1.86-1.84,3.37-3.67,4.06l-9.53,3.58C966.1,85.83,965.79,85.88,965.48,85.88z M967,79.96l1.5-0.56
	l-1.47-3.93c-0.5-1.34,0.18-2.83,1.51-3.33c0.29-0.11,0.6-0.17,0.91-0.17c1.07,0,2.05,0.67,2.43,1.68l1.47,3.93l0.75-0.28
	c0.2-0.07,0.36-0.22,0.45-0.42c0.09-0.2,0.1-0.41,0.02-0.61l-7.44-19.8l-7.85,2.95L967,79.96z M978.85,72.87
	c0.54,0.03,1.07,0.04,1.59,0.04c5.6,0,9.86-1.65,15.76-3.93c1.06-0.41,2.15-0.83,3.31-1.26l4.71-1.77c0.41-0.16,0.62-0.62,0.47-1.03
	c-0.12-0.31-0.42-0.52-0.75-0.52c-0.1,0-0.19,0.02-0.28,0.05c-0.29,0.11-0.6,0.17-0.91,0.17c-1.07,0-2.05-0.67-2.42-1.68
	c-0.5-1.34,0.18-2.83,1.51-3.33l1.59-0.6c0.2-0.08,0.36-0.22,0.45-0.42c0.09-0.2,0.1-0.41,0.02-0.61c-0.12-0.31-0.42-0.52-0.75-0.52
	c-0.1,0-0.19,0.02-0.28,0.05l-1.53,0.57c-0.29,0.11-0.6,0.17-0.91,0.17c-1.07,0-2.05-0.68-2.43-1.68c-0.24-0.65-0.22-1.35,0.07-1.98
	c0.29-0.63,0.8-1.11,1.45-1.35l3.12-1.17c0.2-0.08,0.36-0.22,0.45-0.42s0.1-0.41,0.02-0.61c-0.12-0.31-0.42-0.52-0.75-0.52
	c-0.1,0-0.19,0.02-0.28,0.05l-3.12,1.17c-0.29,0.11-0.6,0.17-0.91,0.17c-1.07,0-2.05-0.67-2.42-1.68c-0.5-1.34,0.18-2.83,1.51-3.33
	l3.18-1.19c0.2-0.08,0.36-0.22,0.45-0.42c0.09-0.2,0.1-0.41,0.02-0.61c-0.12-0.31-0.42-0.52-0.75-0.52c-0.1,0-0.19,0.02-0.28,0.05
	l-14.29,5.37c-0.29,0.11-0.6,0.17-0.91,0.17c-1.07,0-2.05-0.67-2.42-1.68c-0.5-1.34,0.18-2.83,1.51-3.33l1.85-0.69
	c0.54-2.74,0.58-4.75-0.46-7.54l-0.19-0.5c-0.37-0.98-1.33-1.65-2.39-1.65c-0.04,0-0.08,0-0.13,0c1.01,4.38,0.25,8.88-2.26,13.39
	c-2.13,3.82-5.05,6.9-7.2,9.15L978.85,72.87z"/>
<path class="st3" d="M440.23,114.42c-0.46,0-0.91-0.09-1.34-0.28c-0.9-0.39-1.57-1.16-1.85-2.11c-1.62-5.55-3.73-10.14-5.6-14.2
	c-3.35-7.29-6.25-13.57-3.31-20.27c1.53-3.48,4.21-6.2,7.54-7.64c1.7-0.73,3.49-1.1,5.33-1.1c1.92,0,3.82,0.4,5.63,1.2
	c3.85,1.69,6.46,4.9,7.57,9.29c2.23-1.2,4.51-1.81,6.79-1.81c1.77,0,3.51,0.37,5.17,1.1c3.58,1.57,6.24,4.42,7.48,8.01
	c1.19,3.42,1,7.23-0.53,10.72c-2.94,6.69-9.53,8.81-17.17,11.27c-4.27,1.37-9.08,2.92-14.24,5.48
	C441.25,114.3,440.74,114.42,440.23,114.42z M441.01,75.47c-2.9,0-5.51,1.83-6.8,4.76c-1.74,3.96,0.25,8.27,3.26,14.81
	c1.54,3.35,3.26,7.08,4.78,11.45c4.25-1.84,8.16-3.1,11.66-4.23c6.85-2.2,11.38-3.66,13.12-7.62c0.87-1.97,0.98-4.08,0.31-5.92
	c-0.66-1.81-2.03-3.25-3.86-4.05c-0.81-0.35-1.64-0.53-2.48-0.53c-3.87,0-7.06,3.69-7.09,3.73c-0.62,0.75-1.56,1.19-2.55,1.19
	c-0.46,0-0.91-0.09-1.34-0.28c-1.35-0.59-2.15-2.03-1.96-3.48c0,0,0.23-1.92-0.25-4.05c-0.57-2.58-1.84-4.26-3.88-5.16
	C443,75.69,442.01,75.47,441.01,75.47z"/>
<path class="st3" d="M1099.11,112.19c-0.55,0.2-1.16,0.26-1.76,0.18l-11.29-1.63l-7.74,8.38c-0.95,1.03-2.41,1.43-3.76,1.03
	c-1.35-0.4-2.35-1.53-2.59-2.91l-1.94-11.24l-10.36-4.77c-1.28-0.59-2.11-1.85-2.15-3.26c-0.04-1.41,0.73-2.71,1.97-3.37l10.09-5.32
	l1.34-11.33c0.17-1.4,1.11-2.58,2.43-3.05c1.33-0.47,2.8-0.15,3.81,0.83l8.18,7.96l11.19-2.23c1.38-0.28,2.8,0.26,3.65,1.37
	c0.86,1.12,1.01,2.62,0.39,3.88l-5.04,10.24l5.58,9.95c0.69,1.23,0.62,2.74-0.18,3.9C1100.47,111.45,1099.83,111.93,1099.11,112.19
	L1099.11,112.19z M1069.55,97.64l5.33,2.45c1.1,0.51,1.89,1.53,2.1,2.73l1,5.78l3.98-4.31c0.82-0.89,2.04-1.32,3.24-1.15l5.8,0.84
	l-2.87-5.12c-0.59-1.06-0.63-2.35-0.09-3.44l2.59-5.26l-5.75,1.14c-1.19,0.24-2.43-0.13-3.3-0.97l-4.2-4.09l-0.69,5.82
	c-0.14,1.21-0.87,2.27-1.95,2.83L1069.55,97.64z M1069.55,97.64"/>
<path class="st3" d="M380.22,68.91c-0.48-0.33-0.89-0.78-1.18-1.32l-5.31-10.1l-11.33-1.35c-1.4-0.17-2.58-1.11-3.05-2.44
	c-0.47-1.33-0.15-2.8,0.84-3.81l7.96-8.17l-2.22-11.19c-0.27-1.38,0.26-2.8,1.38-3.65c1.12-0.85,2.62-1,3.88-0.38l10.23,5.05
	l9.96-5.57c1.23-0.69,2.74-0.62,3.9,0.18c1.16,0.8,1.77,2.18,1.56,3.57l-1.64,11.29l8.37,7.75c1.03,0.95,1.43,2.41,1.03,3.76
	c-0.4,1.35-1.53,2.35-2.92,2.59l-11.24,1.93l-4.78,10.36c-0.59,1.28-1.85,2.11-3.26,2.14C381.61,69.58,380.85,69.34,380.22,68.91
	L380.22,68.91z M374.63,36.43l1.14,5.75c0.24,1.19-0.13,2.43-0.98,3.3l-4.09,4.2l5.82,0.69c1.21,0.14,2.27,0.87,2.83,1.95l2.73,5.19
	l2.46-5.32c0.51-1.1,1.53-1.89,2.73-2.09l5.78-0.99l-4.3-3.98c-0.89-0.83-1.32-2.04-1.15-3.24l0.84-5.8l-5.12,2.86
	c-1.06,0.59-2.35,0.63-3.44,0.09L374.63,36.43z M374.63,36.43"/>
</svg>
