<?xml version="1.0" encoding="utf-8"?>
<!-- Generator: Adobe Illustrator 24.0.2, SVG Export Plug-In . SVG Version: 6.00 Build 0)  -->
<svg version="1.1" xmlns="http://www.w3.org/2000/svg" xmlns:xlink="http://www.w3.org/1999/xlink" x="0px" y="0px"
	 viewBox="0 0 1400 140" style="enable-background:new 0 0 1400 140;" xml:space="preserve">
<style type="text/css">
	.st0{fill:url(#SVGID_1_);}
	.st1{fill:#FFFFFF;}
	.st2{opacity:0.4;}
</style>
<linearGradient id="SVGID_1_" gradientUnits="userSpaceOnUse" x1="0" y1="70" x2="1400" y2="70">
	<stop  offset="0" style="stop-color:#29235C"/>
	<stop  offset="1" style="stop-color:#E84E1B"/>
</linearGradient>
<g>
	<path class="st1" d="M592.43,75.05c0,2.16-0.27,4.1-0.8,5.84c-0.53,1.73-1.32,3.21-2.37,4.43c-1.05,1.22-2.37,2.16-3.94,2.81
		c-1.57,0.65-3.41,0.98-5.49,0.98c-0.96,0-1.89-0.06-2.81-0.17c-0.92-0.12-1.88-0.3-2.89-0.54c0.05-0.71,0.12-1.41,0.19-2.12
		c0.07-0.71,0.13-1.41,0.19-2.12c0.05-0.39,0.21-0.7,0.46-0.94c0.26-0.24,0.62-0.36,1.1-0.36c0.3,0,0.69,0.06,1.18,0.19
		c0.49,0.12,1.1,0.19,1.84,0.19c1.01,0,1.9-0.15,2.68-0.44c0.78-0.29,1.43-0.76,1.95-1.39c0.52-0.64,0.92-1.46,1.18-2.48
		c0.27-1.02,0.4-2.25,0.4-3.7V50.32h7.14V75.05z"/>
	<path class="st1" d="M597.98,65.26c3.13-2.87,6.9-4.3,11.3-4.3c1.59,0,3.02,0.26,4.27,0.78c1.26,0.52,2.32,1.25,3.18,2.18
		c0.87,0.93,1.53,2.04,1.98,3.33c0.45,1.29,0.68,2.71,0.68,4.25v17.2h-2.97c-0.62,0-1.1-0.09-1.43-0.28
		c-0.34-0.19-0.6-0.56-0.8-1.13l-0.58-1.96c-0.69,0.62-1.36,1.16-2.02,1.63c-0.65,0.47-1.34,0.86-2.04,1.18
		c-0.71,0.32-1.46,0.56-2.27,0.73c-0.8,0.17-1.69,0.25-2.67,0.25c-1.15,0-2.21-0.15-3.18-0.46c-0.97-0.31-1.81-0.77-2.52-1.39
		c-0.71-0.62-1.26-1.39-1.65-2.31c-0.39-0.92-0.58-1.99-0.58-3.21c0-0.69,0.12-1.38,0.35-2.06c0.23-0.68,0.61-1.33,1.13-1.95
		c0.52-0.62,1.2-1.2,2.03-1.75c0.83-0.55,1.85-1.03,3.07-1.43c1.21-0.41,2.62-0.74,4.23-1c1.61-0.26,3.45-0.41,5.52-0.46v-1.59
		c0-1.82-0.39-3.17-1.17-4.05c-0.78-0.88-1.9-1.31-3.37-1.31c-1.06,0-1.94,0.12-2.64,0.37c-0.7,0.25-1.31,0.53-1.84,0.84
		c-0.53,0.31-1.01,0.59-1.45,0.84c-0.43,0.25-0.92,0.37-1.45,0.37c-0.46,0-0.85-0.12-1.17-0.36c-0.32-0.24-0.57-0.52-0.77-0.84
		L597.98,65.26z M612.99,77.07c-1.89,0.09-3.49,0.25-4.78,0.49c-1.29,0.24-2.33,0.54-3.1,0.92c-0.78,0.37-1.34,0.81-1.67,1.3
		c-0.34,0.5-0.5,1.04-0.5,1.62c0,1.15,0.34,1.97,1.02,2.47c0.68,0.5,1.57,0.74,2.67,0.74c1.34,0,2.51-0.24,3.49-0.73
		c0.98-0.49,1.94-1.22,2.88-2.22V77.07z"/>
	<path class="st1" d="M632.1,49.26v22.58h1.22c0.44,0,0.79-0.06,1.05-0.17c0.26-0.11,0.52-0.35,0.78-0.7l6.77-8.36
		c0.28-0.37,0.6-0.65,0.94-0.85c0.35-0.19,0.79-0.29,1.34-0.29h6l-8.47,10.11c-0.6,0.8-1.26,1.41-1.96,1.83
		c0.37,0.27,0.7,0.58,1,0.93c0.29,0.35,0.57,0.73,0.84,1.14l9.08,13.22h-5.92c-0.51,0-0.96-0.08-1.33-0.25
		c-0.37-0.17-0.68-0.47-0.93-0.92l-6.95-10.32c-0.25-0.41-0.5-0.67-0.77-0.8c-0.27-0.12-0.66-0.19-1.19-0.19h-1.49v12.47h-6.56
		V49.26H632.1z"/>
	<path class="st1" d="M686.37,64.17c0,0.46-0.08,0.91-0.24,1.35c-0.16,0.44-0.37,0.81-0.64,1.09l-12.92,17.04h13.4v5.04h-21.02
		v-2.73c0-0.3,0.07-0.66,0.21-1.07c0.14-0.42,0.35-0.81,0.64-1.18l13.06-17.22h-13.14v-5.02h20.65V64.17z"/>
	<path class="st1" d="M690.56,65.26c3.13-2.87,6.9-4.3,11.3-4.3c1.59,0,3.02,0.26,4.27,0.78c1.26,0.52,2.32,1.25,3.18,2.18
		s1.53,2.04,1.98,3.33c0.45,1.29,0.68,2.71,0.68,4.25v17.2H709c-0.62,0-1.1-0.09-1.43-0.28c-0.34-0.19-0.6-0.56-0.8-1.13l-0.58-1.96
		c-0.69,0.62-1.36,1.16-2.02,1.63c-0.66,0.47-1.34,0.86-2.04,1.18c-0.71,0.32-1.46,0.56-2.27,0.73c-0.81,0.17-1.69,0.25-2.67,0.25
		c-1.15,0-2.21-0.15-3.18-0.46c-0.97-0.31-1.81-0.77-2.52-1.39c-0.71-0.62-1.26-1.39-1.65-2.31c-0.39-0.92-0.58-1.99-0.58-3.21
		c0-0.69,0.12-1.38,0.35-2.06c0.23-0.68,0.61-1.33,1.13-1.95c0.52-0.62,1.2-1.2,2.03-1.75c0.83-0.55,1.85-1.03,3.06-1.43
		c1.21-0.41,2.62-0.74,4.23-1c1.61-0.26,3.45-0.41,5.52-0.46v-1.59c0-1.82-0.39-3.17-1.17-4.05c-0.78-0.88-1.9-1.31-3.37-1.31
		c-1.06,0-1.94,0.12-2.64,0.37c-0.7,0.25-1.31,0.53-1.85,0.84c-0.53,0.31-1.01,0.59-1.45,0.84c-0.43,0.25-0.92,0.37-1.45,0.37
		c-0.46,0-0.85-0.12-1.17-0.36c-0.32-0.24-0.58-0.52-0.77-0.84L690.56,65.26z M705.58,77.07c-1.89,0.09-3.48,0.25-4.78,0.49
		c-1.29,0.24-2.33,0.54-3.1,0.92c-0.78,0.37-1.34,0.81-1.67,1.3c-0.34,0.5-0.5,1.04-0.5,1.62c0,1.15,0.34,1.97,1.02,2.47
		c0.68,0.5,1.57,0.74,2.67,0.74c1.34,0,2.51-0.24,3.49-0.73c0.98-0.49,1.94-1.22,2.88-2.22V77.07z"/>
	<path class="st1" d="M737.64,67.22c-0.19,0.25-0.38,0.44-0.57,0.58s-0.46,0.21-0.81,0.21c-0.34,0-0.66-0.1-0.98-0.31
		c-0.32-0.2-0.7-0.43-1.14-0.69c-0.44-0.26-0.97-0.49-1.58-0.69c-0.61-0.2-1.37-0.31-2.27-0.31c-1.15,0-2.16,0.21-3.02,0.62
		c-0.87,0.42-1.59,1.01-2.16,1.79c-0.58,0.78-1,1.72-1.29,2.83c-0.28,1.11-0.42,2.36-0.42,3.76c0,1.45,0.15,2.74,0.46,3.87
		c0.31,1.13,0.76,2.08,1.34,2.85c0.58,0.77,1.29,1.35,2.12,1.75c0.83,0.4,1.77,0.6,2.81,0.6s1.89-0.13,2.53-0.38
		c0.65-0.26,1.19-0.54,1.63-0.85c0.44-0.31,0.83-0.59,1.15-0.85c0.33-0.26,0.69-0.38,1.1-0.38c0.53,0,0.93,0.2,1.19,0.61l1.88,2.39
		c-0.73,0.85-1.51,1.56-2.36,2.14c-0.85,0.58-1.73,1.03-2.64,1.38c-0.91,0.35-1.85,0.59-2.81,0.73c-0.96,0.14-1.92,0.21-2.88,0.21
		c-1.68,0-3.26-0.31-4.75-0.94c-1.49-0.63-2.79-1.54-3.9-2.75c-1.11-1.2-2-2.68-2.64-4.42c-0.65-1.74-0.97-3.73-0.97-5.96
		c0-2,0.29-3.85,0.86-5.56c0.58-1.71,1.42-3.18,2.53-4.43c1.11-1.25,2.49-2.22,4.14-2.93c1.65-0.71,3.54-1.06,5.68-1.06
		c2.03,0,3.82,0.33,5.35,0.98c1.53,0.65,2.91,1.59,4.13,2.81L737.64,67.22z"/>
	<path class="st1" d="M763.27,64.17c0,0.46-0.08,0.91-0.24,1.35c-0.16,0.44-0.37,0.81-0.64,1.09l-12.92,17.04h13.4v5.04h-21.02
		v-2.73c0-0.3,0.07-0.66,0.21-1.07c0.14-0.42,0.35-0.81,0.64-1.18l13.06-17.22h-13.14v-5.02h20.64V64.17z"/>
	<path class="st1" d="M791.56,96.49c-0.58,0.39-1.31,0.71-2.19,0.97c-0.88,0.26-1.8,0.38-2.77,0.38c-1.73,0-3.07-0.36-4.01-1.09
		c-0.94-0.73-1.41-1.66-1.41-2.81c0-0.99,0.34-1.94,1.01-2.85c0.67-0.91,1.63-1.74,2.87-2.48c-0.35-0.07-0.64-0.21-0.85-0.41
		c-0.21-0.2-0.39-0.51-0.53-0.92l-0.58-1.96c-0.69,0.62-1.36,1.16-2.02,1.63c-0.66,0.47-1.34,0.86-2.04,1.18
		c-0.71,0.32-1.46,0.56-2.27,0.73c-0.81,0.17-1.69,0.25-2.67,0.25c-1.15,0-2.21-0.15-3.18-0.46c-0.97-0.31-1.81-0.77-2.52-1.39
		c-0.71-0.62-1.26-1.39-1.65-2.31c-0.39-0.92-0.58-1.99-0.58-3.21c0-0.69,0.12-1.38,0.35-2.06c0.23-0.68,0.61-1.33,1.13-1.95
		c0.52-0.62,1.2-1.2,2.03-1.75c0.83-0.55,1.85-1.03,3.06-1.43c1.21-0.41,2.62-0.74,4.23-1c1.61-0.26,3.45-0.41,5.52-0.46v-1.59
		c0-1.82-0.39-3.17-1.17-4.05c-0.78-0.88-1.9-1.31-3.37-1.31c-1.06,0-1.94,0.12-2.64,0.37c-0.7,0.25-1.31,0.53-1.85,0.84
		c-0.53,0.31-1.01,0.59-1.45,0.84c-0.43,0.25-0.92,0.37-1.45,0.37c-0.46,0-0.85-0.12-1.17-0.36c-0.32-0.24-0.58-0.52-0.77-0.84
		l-1.17-2.1c3.13-2.87,6.9-4.3,11.3-4.3c1.59,0,3.02,0.26,4.27,0.78c1.26,0.52,2.32,1.25,3.18,2.18c0.87,0.93,1.53,2.04,1.98,3.33
		c0.45,1.29,0.68,2.71,0.68,4.25v17.2c-0.35,0.19-0.7,0.42-1.03,0.66c-0.34,0.25-0.64,0.53-0.9,0.84s-0.48,0.64-0.64,1
		c-0.16,0.35-0.24,0.73-0.24,1.11c0,0.53,0.17,0.95,0.5,1.26c0.34,0.31,0.8,0.46,1.41,0.46c0.34,0,0.61-0.02,0.82-0.05
		c0.21-0.04,0.38-0.08,0.52-0.13s0.25-0.1,0.35-0.13c0.1-0.04,0.19-0.05,0.28-0.05c0.32,0,0.52,0.14,0.61,0.43L791.56,96.49z
		 M782.48,77.07c-1.89,0.09-3.49,0.25-4.78,0.49c-1.29,0.24-2.33,0.54-3.1,0.92c-0.78,0.37-1.34,0.81-1.67,1.3
		c-0.34,0.5-0.5,1.04-0.5,1.62c0,1.15,0.34,1.97,1.02,2.47c0.68,0.5,1.57,0.74,2.67,0.74c1.34,0,2.51-0.24,3.49-0.73
		c0.98-0.49,1.94-1.22,2.88-2.22V77.07z"/>
	<path class="st1" d="M814.54,67.22c-0.19,0.25-0.38,0.44-0.57,0.58s-0.46,0.21-0.81,0.21c-0.34,0-0.66-0.1-0.98-0.31
		c-0.32-0.2-0.7-0.43-1.14-0.69c-0.44-0.26-0.97-0.49-1.58-0.69c-0.61-0.2-1.37-0.31-2.27-0.31c-1.15,0-2.16,0.21-3.02,0.62
		c-0.87,0.42-1.59,1.01-2.16,1.79c-0.58,0.78-1,1.72-1.29,2.83c-0.28,1.11-0.42,2.36-0.42,3.76c0,1.45,0.15,2.74,0.46,3.87
		c0.31,1.13,0.76,2.08,1.34,2.85c0.58,0.77,1.29,1.35,2.12,1.75c0.83,0.4,1.77,0.6,2.81,0.6c1.04,0,1.89-0.13,2.53-0.38
		c0.65-0.26,1.19-0.54,1.63-0.85c0.44-0.31,0.83-0.59,1.15-0.85c0.33-0.26,0.69-0.38,1.1-0.38c0.53,0,0.93,0.2,1.19,0.61l1.88,2.39
		c-0.73,0.85-1.51,1.56-2.36,2.14c-0.85,0.58-1.73,1.03-2.64,1.38c-0.91,0.35-1.85,0.59-2.81,0.73c-0.96,0.14-1.92,0.21-2.88,0.21
		c-1.68,0-3.26-0.31-4.75-0.94s-2.79-1.54-3.9-2.75c-1.11-1.2-2-2.68-2.64-4.42c-0.65-1.74-0.97-3.73-0.97-5.96
		c0-2,0.29-3.85,0.86-5.56c0.58-1.71,1.42-3.18,2.53-4.43c1.11-1.25,2.49-2.22,4.14-2.93c1.65-0.71,3.54-1.06,5.68-1.06
		c2.03,0,3.82,0.33,5.35,0.98c1.53,0.65,2.91,1.59,4.13,2.81L814.54,67.22z M815.81,49.89l-6.55,6.93c-0.34,0.35-0.66,0.6-0.97,0.73
		c-0.31,0.13-0.71,0.2-1.21,0.2h-3.93l3.77-6.45c0.27-0.46,0.57-0.81,0.93-1.05c0.35-0.24,0.88-0.36,1.59-0.36H815.81z"/>
	<path class="st1" d="M818.55,53.79c0.6-0.53,1.26-1.04,1.98-1.51c0.72-0.48,1.49-0.89,2.32-1.25c0.83-0.35,1.73-0.63,2.71-0.84
		c0.97-0.2,2.03-0.3,3.16-0.3c1.54,0,2.94,0.21,4.21,0.64c1.26,0.43,2.35,1.03,3.25,1.82c0.9,0.79,1.6,1.74,2.1,2.85
		c0.5,1.11,0.74,2.36,0.74,3.74c0,1.34-0.19,2.51-0.58,3.49c-0.39,0.98-0.88,1.84-1.46,2.56c-0.58,0.73-1.23,1.35-1.92,1.88
		c-0.7,0.53-1.36,1.03-1.98,1.5c-0.62,0.47-1.15,0.93-1.61,1.38c-0.45,0.45-0.72,0.96-0.81,1.53l-0.61,3.87h-4.48l-0.45-4.33
		c-0.11-0.83,0.01-1.56,0.36-2.19c0.35-0.63,0.81-1.2,1.38-1.72c0.57-0.52,1.22-1.03,1.92-1.51c0.71-0.49,1.37-1.02,1.99-1.59
		c0.62-0.57,1.14-1.22,1.55-1.94c0.42-0.72,0.62-1.57,0.62-2.56c0-0.64-0.12-1.21-0.36-1.71c-0.24-0.5-0.57-0.94-1-1.3
		c-0.42-0.36-0.93-0.64-1.53-0.84c-0.59-0.19-1.23-0.29-1.92-0.29c-1.01,0-1.86,0.11-2.56,0.33c-0.7,0.22-1.29,0.47-1.78,0.74
		c-0.49,0.27-0.9,0.52-1.23,0.74c-0.34,0.22-0.64,0.33-0.9,0.33c-0.64,0-1.1-0.27-1.38-0.8L818.55,53.79z M823.56,85.08
		c0-0.55,0.1-1.07,0.3-1.57s0.48-0.92,0.84-1.27c0.35-0.35,0.78-0.64,1.27-0.85c0.49-0.21,1.03-0.32,1.59-0.32
		c0.57,0,1.09,0.11,1.58,0.32c0.49,0.21,0.91,0.5,1.27,0.85c0.36,0.35,0.65,0.78,0.86,1.27c0.21,0.5,0.32,1.02,0.32,1.57
		c0,0.57-0.11,1.09-0.32,1.58c-0.21,0.49-0.5,0.91-0.86,1.26c-0.36,0.35-0.79,0.63-1.27,0.84c-0.49,0.2-1.01,0.3-1.58,0.3
		c-0.57,0-1.1-0.1-1.59-0.3c-0.5-0.2-0.92-0.48-1.27-0.84c-0.35-0.35-0.63-0.77-0.84-1.26C823.66,86.17,823.56,85.65,823.56,85.08z"
		/>
</g>
<g class="st2">
	<g>
		<path class="st1" d="M1079.91,32.14c0.97-0.82,2.03-1.58,3.18-2.29c1.15-0.71,2.38-1.34,3.7-1.88c1.32-0.54,2.73-0.96,4.25-1.27
			c1.51-0.3,3.16-0.45,4.92-0.45c2.48,0,4.71,0.33,6.7,0.99c1.99,0.66,3.68,1.6,5.08,2.83c1.4,1.22,2.47,2.7,3.22,4.43
			c0.75,1.73,1.13,3.64,1.13,5.75c0,2-0.28,3.73-0.83,5.2c-0.55,1.46-1.25,2.73-2.09,3.81c-0.84,1.08-1.77,2.02-2.79,2.81
			c-1.01,0.79-1.98,1.52-2.89,2.19c-0.91,0.67-1.7,1.34-2.37,2c-0.67,0.66-1.1,1.4-1.28,2.21l-1.11,5.53h-8.38l-0.87-6.36
			c-0.21-1.29-0.08-2.42,0.4-3.38c0.47-0.96,1.13-1.83,1.96-2.61c0.83-0.78,1.76-1.51,2.79-2.21c1.03-0.7,1.99-1.45,2.89-2.25
			c0.9-0.8,1.65-1.7,2.27-2.69c0.62-0.99,0.93-2.17,0.93-3.54c0-1.58-0.52-2.84-1.56-3.77c-1.04-0.93-2.47-1.4-4.29-1.4
			c-1.4,0-2.56,0.15-3.5,0.43c-0.94,0.29-1.74,0.61-2.41,0.97c-0.67,0.36-1.26,0.68-1.76,0.97c-0.5,0.29-1,0.43-1.5,0.43
			c-1.13,0-1.98-0.49-2.53-1.46L1079.91,32.14z M1087.18,78.26c0-0.95,0.18-1.83,0.53-2.65c0.35-0.82,0.84-1.53,1.46-2.13
			c0.62-0.61,1.35-1.09,2.19-1.44c0.84-0.36,1.76-0.53,2.77-0.53c0.97,0,1.88,0.18,2.73,0.53c0.84,0.36,1.58,0.84,2.21,1.44
			c0.63,0.61,1.13,1.32,1.48,2.13c0.36,0.82,0.53,1.7,0.53,2.65c0,0.95-0.18,1.84-0.53,2.67c-0.36,0.83-0.85,1.55-1.48,2.15
			c-0.63,0.61-1.37,1.08-2.21,1.42c-0.84,0.34-1.75,0.51-2.73,0.51c-1,0-1.92-0.17-2.77-0.51c-0.84-0.34-1.57-0.82-2.19-1.42
			c-0.62-0.61-1.11-1.32-1.46-2.15C1087.36,80.1,1087.18,79.21,1087.18,78.26z"/>
	</g>
	<g>
		<path class="st1" d="M1160.63,101.85c-0.97,0.82-2.03,1.58-3.18,2.29c-1.15,0.71-2.38,1.34-3.7,1.88
			c-1.32,0.54-2.73,0.96-4.25,1.27c-1.51,0.3-3.16,0.45-4.92,0.45c-2.48,0-4.71-0.33-6.7-0.99c-1.99-0.66-3.68-1.6-5.08-2.83
			c-1.4-1.22-2.47-2.7-3.22-4.43c-0.75-1.73-1.13-3.64-1.13-5.75c0-2,0.28-3.73,0.83-5.2c0.55-1.46,1.25-2.73,2.09-3.81
			c0.84-1.08,1.77-2.02,2.79-2.81s1.98-1.52,2.89-2.19c0.91-0.67,1.7-1.34,2.37-2c0.67-0.66,1.1-1.4,1.28-2.21l1.11-5.53h8.38
			l0.87,6.36c0.21,1.29,0.08,2.42-0.4,3.38c-0.47,0.96-1.13,1.83-1.96,2.61c-0.83,0.78-1.76,1.51-2.79,2.21
			c-1.03,0.7-1.99,1.45-2.89,2.25c-0.9,0.8-1.65,1.7-2.27,2.69c-0.62,0.99-0.93,2.17-0.93,3.54c0,1.58,0.52,2.84,1.56,3.77
			c1.04,0.93,2.47,1.4,4.29,1.4c1.4,0,2.56-0.15,3.5-0.43c0.94-0.29,1.74-0.61,2.41-0.97s1.26-0.68,1.76-0.97
			c0.5-0.29,1-0.43,1.5-0.43c1.13,0,1.98,0.49,2.53,1.46L1160.63,101.85z M1153.36,55.74c0,0.95-0.18,1.83-0.53,2.65
			c-0.35,0.82-0.84,1.53-1.46,2.13c-0.62,0.61-1.35,1.09-2.19,1.44c-0.84,0.36-1.76,0.53-2.77,0.53c-0.97,0-1.88-0.18-2.73-0.53
			c-0.84-0.36-1.58-0.84-2.21-1.44c-0.63-0.61-1.13-1.32-1.48-2.13c-0.35-0.82-0.53-1.7-0.53-2.65c0-0.95,0.18-1.84,0.53-2.67
			c0.36-0.83,0.85-1.55,1.48-2.15c0.63-0.61,1.37-1.08,2.21-1.42c0.84-0.34,1.75-0.51,2.73-0.51c1,0,1.92,0.17,2.77,0.51
			c0.84,0.34,1.57,0.82,2.19,1.42c0.62,0.61,1.11,1.32,1.46,2.15C1153.18,53.9,1153.36,54.79,1153.36,55.74z"/>
	</g>
	<g>
		<path class="st1" d="M1017.84,57.24c0-0.95,0.18-1.83,0.53-2.65c0.36-0.82,0.84-1.53,1.46-2.13c0.62-0.61,1.35-1.09,2.19-1.44
			c0.84-0.36,1.77-0.53,2.77-0.53c0.98,0,1.88,0.18,2.73,0.53c0.84,0.36,1.58,0.84,2.21,1.44c0.63,0.61,1.13,1.32,1.48,2.13
			c0.36,0.82,0.53,1.7,0.53,2.65c0,0.95-0.18,1.84-0.53,2.67c-0.35,0.83-0.85,1.55-1.48,2.15c-0.63,0.61-1.37,1.08-2.21,1.42
			c-0.84,0.34-1.75,0.51-2.73,0.51c-1,0-1.92-0.17-2.77-0.51c-0.84-0.34-1.57-0.82-2.19-1.42c-0.62-0.61-1.11-1.32-1.46-2.15
			C1018.02,59.07,1017.84,58.18,1017.84,57.24z"/>
	</g>
	<g>
		<path class="st1" d="M993.08,67.45c0-0.7,0.13-1.36,0.4-1.97c0.26-0.61,0.63-1.13,1.09-1.58c0.46-0.45,1-0.81,1.63-1.07
			c0.63-0.26,1.31-0.4,2.05-0.4c0.72,0,1.4,0.13,2.02,0.4c0.63,0.26,1.17,0.62,1.64,1.07c0.47,0.45,0.84,0.98,1.1,1.58
			c0.26,0.61,0.4,1.26,0.4,1.97c0,0.7-0.13,1.36-0.4,1.98c-0.26,0.62-0.63,1.15-1.1,1.6c-0.47,0.45-1.02,0.8-1.64,1.06
			c-0.63,0.25-1.3,0.38-2.02,0.38c-0.74,0-1.43-0.13-2.05-0.38c-0.63-0.25-1.17-0.61-1.63-1.06c-0.46-0.45-0.82-0.98-1.09-1.6
			C993.22,68.82,993.08,68.16,993.08,67.45z"/>
	</g>
	<g>
		<path class="st1" d="M1036.14,78.24c0-1.32,0.25-2.54,0.74-3.68c0.5-1.13,1.17-2.12,2.03-2.97c0.86-0.84,1.88-1.51,3.05-2
			c1.17-0.49,2.45-0.74,3.84-0.74c1.36,0,2.62,0.25,3.79,0.74c1.17,0.49,2.2,1.16,3.07,2c0.88,0.84,1.57,1.83,2.06,2.97
			c0.5,1.14,0.74,2.36,0.74,3.68c0,1.32-0.25,2.55-0.74,3.71c-0.49,1.15-1.18,2.15-2.06,2.99c-0.88,0.84-1.9,1.5-3.07,1.98
			c-1.17,0.48-2.43,0.71-3.79,0.71c-1.39,0-2.67-0.24-3.84-0.71c-1.17-0.48-2.19-1.13-3.05-1.98c-0.86-0.84-1.54-1.84-2.03-2.99
			C1036.38,80.8,1036.14,79.56,1036.14,78.24z"/>
	</g>
	<g>
		<path class="st1" d="M1214.64,79.27c0,0.95-0.18,1.83-0.53,2.65c-0.36,0.82-0.84,1.53-1.46,2.13c-0.62,0.61-1.35,1.09-2.19,1.44
			c-0.84,0.36-1.77,0.53-2.77,0.53c-0.98,0-1.88-0.18-2.73-0.53c-0.84-0.36-1.58-0.84-2.21-1.44c-0.63-0.61-1.13-1.32-1.48-2.13
			c-0.36-0.82-0.53-1.7-0.53-2.65c0-0.95,0.18-1.84,0.53-2.67c0.36-0.83,0.85-1.55,1.48-2.15c0.63-0.61,1.37-1.08,2.21-1.42
			c0.84-0.34,1.75-0.51,2.73-0.51c1,0,1.92,0.17,2.77,0.51c0.84,0.34,1.57,0.82,2.19,1.42c0.62,0.61,1.11,1.32,1.46,2.15
			C1214.47,77.44,1214.64,78.32,1214.64,79.27z"/>
	</g>
	<g>
		<path class="st1" d="M1239.4,69.06c0,0.7-0.13,1.36-0.4,1.97c-0.26,0.61-0.63,1.13-1.09,1.58c-0.46,0.45-1,0.81-1.63,1.07
			c-0.63,0.26-1.31,0.4-2.05,0.4c-0.72,0-1.4-0.13-2.02-0.4c-0.63-0.26-1.17-0.62-1.64-1.07c-0.47-0.45-0.84-0.98-1.1-1.58
			c-0.26-0.61-0.4-1.26-0.4-1.97c0-0.7,0.13-1.36,0.4-1.98c0.26-0.62,0.63-1.15,1.1-1.6c0.47-0.45,1.02-0.8,1.64-1.06
			c0.63-0.25,1.3-0.38,2.02-0.38c0.74,0,1.43,0.13,2.05,0.38s1.17,0.61,1.63,1.06c0.46,0.45,0.82,0.98,1.09,1.6
			C1239.27,67.69,1239.4,68.35,1239.4,69.06z"/>
	</g>
	<g>
		<path class="st1" d="M1196.35,58.27c0,1.32-0.25,2.54-0.74,3.68c-0.5,1.13-1.17,2.12-2.03,2.97c-0.86,0.84-1.88,1.51-3.05,2
			c-1.17,0.49-2.45,0.74-3.84,0.74c-1.36,0-2.62-0.25-3.79-0.74c-1.17-0.49-2.2-1.16-3.07-2c-0.88-0.84-1.57-1.83-2.06-2.97
			c-0.5-1.14-0.74-2.36-0.74-3.68c0-1.32,0.25-2.55,0.74-3.71c0.49-1.15,1.18-2.15,2.06-2.99c0.88-0.84,1.9-1.5,3.07-1.98
			c1.17-0.48,2.44-0.71,3.79-0.71c1.39,0,2.67,0.24,3.84,0.71s2.19,1.13,3.05,1.98c0.86,0.84,1.54,1.84,2.03,2.99
			C1196.1,55.71,1196.35,56.95,1196.35,58.27z"/>
	</g>
	<g>
		<path class="st1" d="M262.03,32.14c0.97-0.82,2.03-1.58,3.18-2.29c1.15-0.71,2.38-1.34,3.7-1.88c1.32-0.54,2.73-0.96,4.25-1.27
			c1.51-0.3,3.16-0.45,4.92-0.45c2.48,0,4.71,0.33,6.7,0.99c1.99,0.66,3.68,1.6,5.08,2.83c1.4,1.22,2.47,2.7,3.22,4.43
			c0.75,1.73,1.13,3.64,1.13,5.75c0,2-0.28,3.73-0.83,5.2c-0.55,1.46-1.25,2.73-2.09,3.81c-0.84,1.08-1.77,2.02-2.79,2.81
			c-1.01,0.79-1.98,1.52-2.89,2.19c-0.91,0.67-1.7,1.34-2.37,2c-0.67,0.66-1.1,1.4-1.28,2.21l-1.11,5.53h-8.38l-0.87-6.36
			c-0.21-1.29-0.08-2.42,0.4-3.38c0.47-0.96,1.13-1.83,1.96-2.61c0.83-0.78,1.76-1.51,2.79-2.21c1.03-0.7,1.99-1.45,2.89-2.25
			c0.9-0.8,1.65-1.7,2.27-2.69c0.62-0.99,0.93-2.17,0.93-3.54c0-1.58-0.52-2.84-1.56-3.77c-1.04-0.93-2.47-1.4-4.29-1.4
			c-1.4,0-2.56,0.15-3.5,0.43c-0.94,0.29-1.74,0.61-2.41,0.97c-0.67,0.36-1.26,0.68-1.76,0.97c-0.5,0.29-1,0.43-1.5,0.43
			c-1.13,0-1.98-0.49-2.53-1.46L262.03,32.14z M269.3,78.26c0-0.95,0.18-1.83,0.53-2.65c0.36-0.82,0.84-1.53,1.46-2.13
			c0.62-0.61,1.35-1.09,2.19-1.44c0.84-0.36,1.76-0.53,2.77-0.53c0.97,0,1.88,0.18,2.73,0.53c0.84,0.36,1.58,0.84,2.21,1.44
			c0.63,0.61,1.13,1.32,1.48,2.13c0.36,0.82,0.53,1.7,0.53,2.65c0,0.95-0.18,1.84-0.53,2.67c-0.36,0.83-0.85,1.55-1.48,2.15
			c-0.63,0.61-1.37,1.08-2.21,1.42c-0.84,0.34-1.75,0.51-2.73,0.51c-1,0-1.92-0.17-2.77-0.51c-0.84-0.34-1.57-0.82-2.19-1.42
			c-0.62-0.61-1.11-1.32-1.46-2.15C269.48,80.1,269.3,79.21,269.3,78.26z"/>
	</g>
	<g>
		<path class="st1" d="M342.75,101.85c-0.97,0.82-2.03,1.58-3.18,2.29c-1.15,0.71-2.38,1.34-3.7,1.88
			c-1.32,0.54-2.73,0.96-4.25,1.27c-1.51,0.3-3.16,0.45-4.92,0.45c-2.48,0-4.71-0.33-6.7-0.99c-1.99-0.66-3.68-1.6-5.08-2.83
			c-1.4-1.22-2.47-2.7-3.22-4.43c-0.75-1.73-1.13-3.64-1.13-5.75c0-2,0.28-3.73,0.83-5.2c0.55-1.46,1.25-2.73,2.09-3.81
			c0.84-1.08,1.77-2.02,2.79-2.81c1.01-0.79,1.98-1.52,2.89-2.19c0.91-0.67,1.7-1.34,2.37-2c0.67-0.66,1.1-1.4,1.28-2.21l1.11-5.53
			h8.38l0.87,6.36c0.21,1.29,0.08,2.42-0.4,3.38c-0.47,0.96-1.13,1.83-1.96,2.61c-0.83,0.78-1.76,1.51-2.79,2.21
			c-1.03,0.7-1.99,1.45-2.89,2.25c-0.9,0.8-1.65,1.7-2.27,2.69c-0.62,0.99-0.93,2.17-0.93,3.54c0,1.58,0.52,2.84,1.56,3.77
			c1.04,0.93,2.47,1.4,4.29,1.4c1.4,0,2.56-0.15,3.5-0.43c0.94-0.29,1.74-0.61,2.41-0.97c0.67-0.36,1.26-0.68,1.76-0.97
			c0.5-0.29,1-0.43,1.5-0.43c1.13,0,1.98,0.49,2.53,1.46L342.75,101.85z M335.48,55.74c0,0.95-0.18,1.83-0.53,2.65
			c-0.36,0.82-0.84,1.53-1.46,2.13c-0.62,0.61-1.35,1.09-2.19,1.44c-0.84,0.36-1.76,0.53-2.77,0.53c-0.97,0-1.88-0.18-2.73-0.53
			c-0.84-0.36-1.58-0.84-2.21-1.44c-0.63-0.61-1.13-1.32-1.48-2.13c-0.36-0.82-0.53-1.7-0.53-2.65c0-0.95,0.18-1.84,0.53-2.67
			c0.36-0.83,0.85-1.55,1.48-2.15c0.63-0.61,1.37-1.08,2.21-1.42c0.84-0.34,1.75-0.51,2.73-0.51c1,0,1.92,0.17,2.77,0.51
			c0.84,0.34,1.57,0.82,2.19,1.42c0.62,0.61,1.11,1.32,1.46,2.15C335.3,53.9,335.48,54.79,335.48,55.74z"/>
	</g>
	<g>
		<path class="st1" d="M199.96,57.24c0-0.95,0.18-1.83,0.53-2.65c0.36-0.82,0.84-1.53,1.46-2.13c0.62-0.61,1.35-1.09,2.19-1.44
			c0.84-0.36,1.77-0.53,2.77-0.53c0.98,0,1.88,0.18,2.73,0.53c0.84,0.36,1.58,0.84,2.21,1.44c0.63,0.61,1.13,1.32,1.48,2.13
			c0.36,0.82,0.53,1.7,0.53,2.65c0,0.95-0.18,1.84-0.53,2.67c-0.36,0.83-0.85,1.55-1.48,2.15c-0.63,0.61-1.37,1.08-2.21,1.42
			c-0.84,0.34-1.75,0.51-2.73,0.51c-1,0-1.92-0.17-2.77-0.51c-0.84-0.34-1.57-0.82-2.19-1.42c-0.62-0.61-1.11-1.32-1.46-2.15
			C200.14,59.07,199.96,58.18,199.96,57.24z"/>
	</g>
	<g>
		<path class="st1" d="M175.2,67.45c0-0.7,0.13-1.36,0.4-1.97c0.26-0.61,0.63-1.13,1.09-1.58c0.46-0.45,1-0.81,1.63-1.07
			c0.63-0.26,1.31-0.4,2.05-0.4c0.72,0,1.4,0.13,2.02,0.4c0.63,0.26,1.17,0.62,1.64,1.07c0.47,0.45,0.84,0.98,1.1,1.58
			c0.26,0.61,0.4,1.26,0.4,1.97c0,0.7-0.13,1.36-0.4,1.98c-0.26,0.62-0.63,1.15-1.1,1.6c-0.47,0.45-1.02,0.8-1.64,1.06
			c-0.63,0.25-1.3,0.38-2.02,0.38c-0.74,0-1.43-0.13-2.05-0.38c-0.63-0.25-1.17-0.61-1.63-1.06c-0.46-0.45-0.82-0.98-1.09-1.6
			C175.33,68.82,175.2,68.16,175.2,67.45z"/>
	</g>
	<g>
		<path class="st1" d="M218.26,78.24c0-1.32,0.25-2.54,0.74-3.68c0.5-1.13,1.17-2.12,2.03-2.97c0.86-0.84,1.88-1.51,3.05-2
			c1.17-0.49,2.45-0.74,3.84-0.74c1.36,0,2.62,0.25,3.79,0.74c1.17,0.49,2.2,1.16,3.07,2c0.88,0.84,1.57,1.83,2.06,2.97
			c0.5,1.14,0.74,2.36,0.74,3.68c0,1.32-0.25,2.55-0.74,3.71c-0.49,1.15-1.18,2.15-2.06,2.99c-0.88,0.84-1.9,1.5-3.07,1.98
			c-1.17,0.48-2.43,0.71-3.79,0.71c-1.39,0-2.67-0.24-3.84-0.71c-1.17-0.48-2.19-1.13-3.05-1.98c-0.86-0.84-1.54-1.84-2.03-2.99
			C218.5,80.8,218.26,79.56,218.26,78.24z"/>
	</g>
	<g>
		<path class="st1" d="M396.76,79.27c0,0.95-0.18,1.83-0.53,2.65c-0.36,0.82-0.84,1.53-1.46,2.13c-0.62,0.61-1.35,1.09-2.19,1.44
			c-0.84,0.36-1.77,0.53-2.77,0.53c-0.98,0-1.88-0.18-2.73-0.53c-0.84-0.36-1.58-0.84-2.21-1.44c-0.63-0.61-1.13-1.32-1.48-2.13
			c-0.36-0.82-0.53-1.7-0.53-2.65c0-0.95,0.18-1.84,0.53-2.67c0.36-0.83,0.85-1.55,1.48-2.15c0.63-0.61,1.37-1.08,2.21-1.42
			c0.84-0.34,1.75-0.51,2.73-0.51c1,0,1.92,0.17,2.77,0.51c0.84,0.34,1.57,0.82,2.19,1.42c0.62,0.61,1.11,1.32,1.46,2.15
			C396.59,77.44,396.76,78.32,396.76,79.27z"/>
	</g>
	<g>
		<path class="st1" d="M421.52,69.06c0,0.7-0.13,1.36-0.4,1.97c-0.26,0.61-0.63,1.13-1.09,1.58c-0.46,0.45-1,0.81-1.63,1.07
			c-0.63,0.26-1.31,0.4-2.05,0.4c-0.72,0-1.4-0.13-2.02-0.4c-0.63-0.26-1.17-0.62-1.64-1.07c-0.47-0.45-0.84-0.98-1.1-1.58
			c-0.26-0.61-0.4-1.26-0.4-1.97c0-0.7,0.13-1.36,0.4-1.98c0.26-0.62,0.63-1.15,1.1-1.6c0.47-0.45,1.02-0.8,1.64-1.06
			c0.63-0.25,1.3-0.38,2.02-0.38c0.74,0,1.43,0.13,2.05,0.38s1.17,0.61,1.63,1.06c0.46,0.45,0.82,0.98,1.09,1.6
			C421.39,67.69,421.52,68.35,421.52,69.06z"/>
	</g>
	<g>
		<path class="st1" d="M378.47,58.27c0,1.32-0.25,2.54-0.74,3.68c-0.5,1.13-1.17,2.12-2.03,2.97c-0.86,0.84-1.88,1.51-3.05,2
			c-1.17,0.49-2.45,0.74-3.84,0.74c-1.36,0-2.62-0.25-3.79-0.74c-1.17-0.49-2.2-1.16-3.07-2c-0.88-0.84-1.57-1.83-2.06-2.97
			c-0.5-1.14-0.74-2.36-0.74-3.68c0-1.32,0.25-2.55,0.74-3.71c0.49-1.15,1.18-2.15,2.06-2.99c0.88-0.84,1.9-1.5,3.07-1.98
			c1.17-0.48,2.43-0.71,3.79-0.71c1.39,0,2.67,0.24,3.84,0.71c1.17,0.48,2.19,1.13,3.05,1.98c0.86,0.84,1.54,1.84,2.03,2.99
			C378.22,55.71,378.47,56.95,378.47,58.27z"/>
	</g>
</g>
</svg>
