<?xml version="1.0" encoding="utf-8"?>
<!-- Generator: Adobe Illustrator 25.4.1, SVG Export Plug-In . SVG Version: 6.00 Build 0)  -->
<svg version="1.1" id="Warstwa_1" xmlns="http://www.w3.org/2000/svg" xmlns:xlink="http://www.w3.org/1999/xlink" x="0px" y="0px"
	 viewBox="0 0 1400 140" style="enable-background:new 0 0 1400 140;" xml:space="preserve">
<style type="text/css">
	.st0{fill:url(#SVGID_1_);}
	.st1{fill:#FFFFFF;}
	.st2{opacity:0.4;}
</style>
<linearGradient id="SVGID_1_" gradientUnits="userSpaceOnUse" x1="0" y1="70" x2="1400" y2="70">
	<stop  offset="0" style="stop-color:#29235C"/>
	<stop  offset="1" style="stop-color:#E84E1B"/>
</linearGradient>
<path class="st0" d="M1400,140H0V6c0-3.3,2.7-6,6-6h1388c3.3,0,6,2.7,6,6V140z"/>
<g>
	<path class="st1" d="M592.5,75.3c0,2-0.2,3.9-0.8,5.5s-1.2,3-2.2,4.2c-1,1.2-2.2,2-3.7,2.7c-1.5,0.6-3.2,0.9-5.2,0.9
		c-0.9,0-1.8-0.1-2.6-0.2c-0.9-0.1-1.8-0.3-2.7-0.5c0.1-0.7,0.1-1.3,0.2-2c0.1-0.7,0.1-1.3,0.2-2c0.1-0.4,0.2-0.7,0.4-0.9
		s0.6-0.3,1-0.3c0.3,0,0.7,0.1,1.1,0.2c0.5,0.1,1,0.2,1.7,0.2c0.9,0,1.8-0.1,2.5-0.4c0.7-0.3,1.3-0.7,1.8-1.3
		c0.5-0.6,0.9-1.4,1.1-2.3s0.4-2.1,0.4-3.5V52h6.7V75.3z"/>
	<path class="st1" d="M597.7,66.1c2.9-2.7,6.5-4,10.6-4c1.5,0,2.8,0.2,4,0.7c1.2,0.5,2.2,1.2,3,2.1c0.8,0.9,1.4,1.9,1.9,3.1
		c0.4,1.2,0.6,2.6,0.6,4v16.2h-2.8c-0.6,0-1-0.1-1.4-0.3c-0.3-0.2-0.6-0.5-0.8-1.1l-0.6-1.8c-0.6,0.6-1.3,1.1-1.9,1.5
		c-0.6,0.4-1.3,0.8-1.9,1.1c-0.7,0.3-1.4,0.5-2.1,0.7s-1.6,0.2-2.5,0.2c-1.1,0-2.1-0.1-3-0.4c-0.9-0.3-1.7-0.7-2.4-1.3
		c-0.7-0.6-1.2-1.3-1.6-2.2s-0.5-1.9-0.5-3c0-0.7,0.1-1.3,0.3-1.9c0.2-0.6,0.6-1.3,1.1-1.8c0.5-0.6,1.1-1.1,1.9-1.6
		c0.8-0.5,1.7-1,2.9-1.4c1.1-0.4,2.5-0.7,4-0.9c1.5-0.2,3.2-0.4,5.2-0.4v-1.5c0-1.7-0.4-3-1.1-3.8c-0.7-0.8-1.8-1.2-3.2-1.2
		c-1,0-1.8,0.1-2.5,0.4c-0.7,0.2-1.2,0.5-1.7,0.8s-1,0.6-1.4,0.8c-0.4,0.2-0.9,0.4-1.4,0.4c-0.4,0-0.8-0.1-1.1-0.3
		c-0.3-0.2-0.5-0.5-0.7-0.8L597.7,66.1z M611.9,77.2c-1.8,0.1-3.3,0.2-4.5,0.5c-1.2,0.2-2.2,0.5-2.9,0.9c-0.7,0.3-1.3,0.8-1.6,1.2
		c-0.3,0.5-0.5,1-0.5,1.5c0,1.1,0.3,1.9,1,2.3s1.5,0.7,2.5,0.7c1.3,0,2.4-0.2,3.3-0.7c0.9-0.5,1.8-1.2,2.7-2.1V77.2z"/>
	<path class="st1" d="M629.9,51v21.3h1.1c0.4,0,0.7-0.1,1-0.2c0.2-0.1,0.5-0.3,0.7-0.7l6.4-7.9c0.3-0.3,0.6-0.6,0.9-0.8
		c0.3-0.2,0.7-0.3,1.3-0.3h5.6l-8,9.5c-0.6,0.8-1.2,1.3-1.8,1.7c0.3,0.2,0.7,0.5,0.9,0.9c0.3,0.3,0.5,0.7,0.8,1.1l8.6,12.5h-5.6
		c-0.5,0-0.9-0.1-1.2-0.2s-0.6-0.4-0.9-0.9l-6.5-9.7c-0.2-0.4-0.5-0.6-0.7-0.8c-0.2-0.1-0.6-0.2-1.1-0.2h-1.4v11.8h-6.2V51H629.9z"
		/>
	<path class="st1" d="M681,65c0,0.4-0.1,0.9-0.2,1.3c-0.1,0.4-0.4,0.8-0.6,1L668,83.4h12.6v4.8h-19.8v-2.6c0-0.3,0.1-0.6,0.2-1
		c0.1-0.4,0.3-0.8,0.6-1.1l12.3-16.2h-12.4v-4.7H681V65z"/>
	<path class="st1" d="M684.9,66.1c3-2.7,6.5-4,10.6-4c1.5,0,2.8,0.2,4,0.7c1.2,0.5,2.2,1.2,3,2.1s1.4,1.9,1.9,3.1
		c0.4,1.2,0.6,2.6,0.6,4v16.2h-2.8c-0.6,0-1-0.1-1.4-0.3c-0.3-0.2-0.6-0.5-0.8-1.1l-0.5-1.8c-0.6,0.6-1.3,1.1-1.9,1.5
		c-0.6,0.4-1.3,0.8-1.9,1.1c-0.7,0.3-1.4,0.5-2.1,0.7c-0.8,0.2-1.6,0.2-2.5,0.2c-1.1,0-2.1-0.1-3-0.4c-0.9-0.3-1.7-0.7-2.4-1.3
		c-0.7-0.6-1.2-1.3-1.5-2.2c-0.4-0.9-0.6-1.9-0.6-3c0-0.7,0.1-1.3,0.3-1.9c0.2-0.6,0.6-1.3,1.1-1.8c0.5-0.6,1.1-1.1,1.9-1.6
		c0.8-0.5,1.7-1,2.9-1.4c1.1-0.4,2.5-0.7,4-0.9c1.5-0.2,3.2-0.4,5.2-0.4v-1.5c0-1.7-0.4-3-1.1-3.8c-0.7-0.8-1.8-1.2-3.2-1.2
		c-1,0-1.8,0.1-2.5,0.4c-0.7,0.2-1.2,0.5-1.7,0.8s-1,0.6-1.4,0.8c-0.4,0.2-0.9,0.4-1.4,0.4c-0.4,0-0.8-0.1-1.1-0.3
		c-0.3-0.2-0.5-0.5-0.7-0.8L684.9,66.1z M699.1,77.2c-1.8,0.1-3.3,0.2-4.5,0.5s-2.2,0.5-2.9,0.9c-0.7,0.3-1.3,0.8-1.6,1.2
		s-0.5,1-0.5,1.5c0,1.1,0.3,1.9,1,2.3c0.6,0.5,1.5,0.7,2.5,0.7c1.3,0,2.4-0.2,3.3-0.7s1.8-1.2,2.7-2.1V77.2z"/>
	<path class="st1" d="M729.3,67.9c-0.2,0.2-0.4,0.4-0.5,0.6s-0.4,0.2-0.8,0.2c-0.3,0-0.6-0.1-0.9-0.3c-0.3-0.2-0.7-0.4-1.1-0.6
		c-0.4-0.2-0.9-0.5-1.5-0.6c-0.6-0.2-1.3-0.3-2.1-0.3c-1.1,0-2,0.2-2.8,0.6c-0.8,0.4-1.5,1-2,1.7c-0.5,0.7-0.9,1.6-1.2,2.7
		c-0.3,1-0.4,2.2-0.4,3.5c0,1.4,0.1,2.6,0.4,3.6c0.3,1.1,0.7,2,1.3,2.7s1.2,1.3,2,1.6c0.8,0.4,1.7,0.6,2.6,0.6s1.8-0.1,2.4-0.4
		c0.6-0.2,1.1-0.5,1.5-0.8c0.4-0.3,0.8-0.6,1.1-0.8s0.7-0.4,1-0.4c0.5,0,0.9,0.2,1.1,0.6l1.8,2.2c-0.7,0.8-1.4,1.5-2.2,2
		c-0.8,0.5-1.6,1-2.5,1.3c-0.9,0.3-1.7,0.6-2.7,0.7c-0.9,0.1-1.8,0.2-2.7,0.2c-1.6,0-3.1-0.3-4.5-0.9c-1.4-0.6-2.6-1.5-3.7-2.6
		s-1.9-2.5-2.5-4.2c-0.6-1.6-0.9-3.5-0.9-5.6c0-1.9,0.3-3.6,0.8-5.2s1.3-3,2.4-4.2c1-1.2,2.3-2.1,3.9-2.8c1.5-0.7,3.3-1,5.3-1
		c1.9,0,3.6,0.3,5,0.9c1.4,0.6,2.7,1.5,3.9,2.6L729.3,67.9z"/>
	<path class="st1" d="M753.4,65c0,0.4-0.1,0.9-0.2,1.3c-0.2,0.4-0.3,0.8-0.6,1l-12.2,16.1H753v4.8h-19.8v-2.6c0-0.3,0.1-0.6,0.2-1
		c0.1-0.4,0.3-0.8,0.6-1.1l12.3-16.2H734v-4.7h19.4V65z"/>
	<path class="st1" d="M780.1,95.5c-0.6,0.4-1.2,0.7-2.1,0.9c-0.8,0.2-1.7,0.4-2.6,0.4c-1.6,0-2.9-0.3-3.8-1
		c-0.9-0.7-1.3-1.6-1.3-2.7c0-0.9,0.3-1.8,1-2.7c0.6-0.9,1.5-1.6,2.7-2.3c-0.3-0.1-0.6-0.2-0.8-0.4c-0.2-0.2-0.4-0.5-0.5-0.9
		l-0.5-1.8c-0.6,0.6-1.3,1.1-1.9,1.5c-0.6,0.4-1.3,0.8-1.9,1.1c-0.7,0.3-1.4,0.5-2.1,0.7c-0.8,0.2-1.6,0.2-2.5,0.2
		c-1.1,0-2.1-0.1-3-0.4c-0.9-0.3-1.7-0.7-2.4-1.3c-0.7-0.6-1.2-1.3-1.5-2.2c-0.4-0.9-0.6-1.9-0.6-3c0-0.7,0.1-1.3,0.3-1.9
		c0.2-0.6,0.6-1.3,1.1-1.8c0.5-0.6,1.1-1.1,1.9-1.6c0.8-0.5,1.7-1,2.9-1.4c1.1-0.4,2.5-0.7,4-0.9c1.5-0.2,3.2-0.4,5.2-0.4v-1.5
		c0-1.7-0.4-3-1.1-3.8c-0.7-0.8-1.8-1.2-3.2-1.2c-1,0-1.8,0.1-2.5,0.4c-0.7,0.2-1.2,0.5-1.7,0.8s-1,0.6-1.4,0.8
		c-0.4,0.2-0.9,0.4-1.4,0.4c-0.4,0-0.8-0.1-1.1-0.3c-0.3-0.2-0.5-0.5-0.7-0.8l-1.1-2c3-2.7,6.5-4,10.6-4c1.5,0,2.8,0.2,4,0.7
		c1.2,0.5,2.2,1.2,3,2.1s1.4,1.9,1.9,3.1c0.4,1.2,0.6,2.6,0.6,4v16.2c-0.3,0.2-0.7,0.4-1,0.6c-0.3,0.2-0.6,0.5-0.9,0.8
		c-0.2,0.3-0.5,0.6-0.6,0.9c-0.2,0.3-0.2,0.7-0.2,1c0,0.5,0.2,0.9,0.5,1.2c0.3,0.3,0.8,0.4,1.3,0.4c0.3,0,0.6,0,0.8,0
		s0.4-0.1,0.5-0.1c0.1-0.1,0.2-0.1,0.3-0.1s0.2-0.1,0.3-0.1c0.3,0,0.5,0.1,0.6,0.4L780.1,95.5z M771.5,77.2
		c-1.8,0.1-3.3,0.2-4.5,0.5s-2.2,0.5-2.9,0.9c-0.7,0.3-1.3,0.8-1.6,1.2s-0.5,1-0.5,1.5c0,1.1,0.3,1.9,1,2.3c0.6,0.5,1.5,0.7,2.5,0.7
		c1.3,0,2.4-0.2,3.3-0.7s1.8-1.2,2.7-2.1V77.2z"/>
	<path class="st1" d="M801.7,67.9c-0.2,0.2-0.4,0.4-0.5,0.6s-0.4,0.2-0.8,0.2c-0.3,0-0.6-0.1-0.9-0.3c-0.3-0.2-0.7-0.4-1.1-0.6
		c-0.4-0.2-0.9-0.5-1.5-0.6c-0.6-0.2-1.3-0.3-2.1-0.3c-1.1,0-2,0.2-2.8,0.6c-0.8,0.4-1.5,1-2,1.7c-0.5,0.7-0.9,1.6-1.2,2.7
		c-0.3,1-0.4,2.2-0.4,3.5c0,1.4,0.1,2.6,0.4,3.6c0.3,1.1,0.7,2,1.3,2.7s1.2,1.3,2,1.6c0.8,0.4,1.7,0.6,2.6,0.6s1.8-0.1,2.4-0.4
		c0.6-0.2,1.1-0.5,1.5-0.8c0.4-0.3,0.8-0.6,1.1-0.8s0.7-0.4,1-0.4c0.5,0,0.9,0.2,1.1,0.6l1.8,2.2c-0.7,0.8-1.4,1.5-2.2,2
		c-0.8,0.5-1.6,1-2.5,1.3c-0.9,0.3-1.7,0.6-2.7,0.7c-0.9,0.1-1.8,0.2-2.7,0.2c-1.6,0-3.1-0.3-4.5-0.9c-1.4-0.6-2.6-1.5-3.7-2.6
		s-1.9-2.5-2.5-4.2c-0.6-1.6-0.9-3.5-0.9-5.6c0-1.9,0.3-3.6,0.8-5.2s1.3-3,2.4-4.2c1-1.2,2.3-2.1,3.9-2.8c1.5-0.7,3.3-1,5.3-1
		c1.9,0,3.6,0.3,5,0.9c1.4,0.6,2.7,1.5,3.9,2.6L801.7,67.9z M802.9,51.6l-6.2,6.5c-0.3,0.3-0.6,0.6-0.9,0.7
		c-0.3,0.1-0.7,0.2-1.1,0.2H791l3.5-6.1c0.2-0.4,0.5-0.8,0.9-1c0.3-0.2,0.8-0.3,1.5-0.3H802.9z"/>
	<path class="st1" d="M805.5,55.3c0.6-0.5,1.2-1,1.9-1.4c0.7-0.5,1.4-0.8,2.2-1.2c0.8-0.3,1.6-0.6,2.5-0.8c0.9-0.2,1.9-0.3,3-0.3
		c1.5,0,2.8,0.2,4,0.6c1.2,0.4,2.2,1,3.1,1.7s1.5,1.6,2,2.7c0.5,1,0.7,2.2,0.7,3.5c0,1.3-0.2,2.4-0.5,3.3c-0.4,0.9-0.8,1.7-1.4,2.4
		c-0.5,0.7-1.2,1.3-1.8,1.8s-1.3,1-1.9,1.4c-0.6,0.4-1.1,0.9-1.5,1.3c-0.4,0.4-0.7,0.9-0.8,1.4l-0.6,3.7h-4.2l-0.4-4.1
		c-0.1-0.8,0-1.5,0.3-2.1c0.3-0.6,0.8-1.1,1.3-1.6c0.5-0.5,1.1-1,1.8-1.4c0.7-0.5,1.3-1,1.9-1.5c0.6-0.5,1.1-1.1,1.5-1.8
		c0.4-0.7,0.6-1.5,0.6-2.4c0-0.6-0.1-1.1-0.3-1.6c-0.2-0.5-0.5-0.9-0.9-1.2c-0.4-0.3-0.9-0.6-1.4-0.8s-1.2-0.3-1.8-0.3
		c-1,0-1.8,0.1-2.4,0.3c-0.7,0.2-1.2,0.4-1.7,0.7c-0.5,0.3-0.8,0.5-1.2,0.7s-0.6,0.3-0.8,0.3c-0.6,0-1-0.2-1.3-0.8L805.5,55.3z
		 M810.2,84.7c0-0.5,0.1-1,0.3-1.5s0.5-0.9,0.8-1.2c0.3-0.3,0.7-0.6,1.2-0.8c0.5-0.2,1-0.3,1.5-0.3c0.5,0,1,0.1,1.5,0.3
		c0.5,0.2,0.9,0.5,1.2,0.8c0.3,0.3,0.6,0.7,0.8,1.2c0.2,0.5,0.3,1,0.3,1.5c0,0.5-0.1,1-0.3,1.5c-0.2,0.5-0.5,0.9-0.8,1.2
		c-0.3,0.3-0.7,0.6-1.2,0.8c-0.5,0.2-1,0.3-1.5,0.3c-0.5,0-1-0.1-1.5-0.3c-0.5-0.2-0.9-0.5-1.2-0.8c-0.3-0.3-0.6-0.7-0.8-1.2
		S810.2,85.3,810.2,84.7z"/>
</g>
<g class="st2">
	<g>
		<path class="st1" d="M1051,34.9c0.9-0.8,1.9-1.5,3-2.2c1.1-0.7,2.2-1.3,3.5-1.8c1.2-0.5,2.6-0.9,4-1.2c1.4-0.3,3-0.4,4.6-0.4
			c2.3,0,4.4,0.3,6.3,0.9c1.9,0.6,3.5,1.5,4.8,2.7c1.3,1.2,2.3,2.5,3,4.2c0.7,1.6,1.1,3.4,1.1,5.4c0,1.9-0.3,3.5-0.8,4.9
			c-0.5,1.4-1.2,2.6-2,3.6c-0.8,1-1.7,1.9-2.6,2.6c-1,0.7-1.9,1.4-2.7,2.1c-0.9,0.6-1.6,1.3-2.2,1.9c-0.6,0.6-1,1.3-1.2,2.1l-1,5.2
			h-7.9l-0.8-6c-0.2-1.2-0.1-2.3,0.4-3.2c0.4-0.9,1.1-1.7,1.8-2.5c0.8-0.7,1.7-1.4,2.6-2.1c1-0.7,1.9-1.4,2.7-2.1
			c0.8-0.8,1.6-1.6,2.1-2.5c0.6-0.9,0.9-2,0.9-3.3c0-1.5-0.5-2.7-1.5-3.6c-1-0.9-2.3-1.3-4-1.3c-1.3,0-2.4,0.1-3.3,0.4
			c-0.9,0.3-1.6,0.6-2.3,0.9s-1.2,0.6-1.7,0.9c-0.5,0.3-0.9,0.4-1.4,0.4c-1.1,0-1.9-0.5-2.4-1.4L1051,34.9z M1057.9,78.3
			c0-0.9,0.2-1.7,0.5-2.5c0.3-0.8,0.8-1.4,1.4-2c0.6-0.6,1.3-1,2.1-1.4c0.8-0.3,1.7-0.5,2.6-0.5c0.9,0,1.8,0.2,2.6,0.5
			c0.8,0.3,1.5,0.8,2.1,1.4c0.6,0.6,1.1,1.2,1.4,2c0.3,0.8,0.5,1.6,0.5,2.5c0,0.9-0.2,1.7-0.5,2.5c-0.3,0.8-0.8,1.5-1.4,2
			c-0.6,0.6-1.3,1-2.1,1.3c-0.8,0.3-1.7,0.5-2.6,0.5c-0.9,0-1.8-0.2-2.6-0.5c-0.8-0.3-1.5-0.8-2.1-1.3c-0.6-0.6-1-1.2-1.4-2
			C1058,80,1057.9,79.2,1057.9,78.3z"/>
	</g>
	<g>
		<path class="st1" d="M1127.1,100.5c-0.9,0.8-1.9,1.5-3,2.2c-1.1,0.7-2.2,1.3-3.5,1.8c-1.2,0.5-2.6,0.9-4,1.2
			c-1.4,0.3-3,0.4-4.6,0.4c-2.3,0-4.4-0.3-6.3-0.9c-1.9-0.6-3.5-1.5-4.8-2.7c-1.3-1.2-2.3-2.5-3-4.2c-0.7-1.6-1.1-3.4-1.1-5.4
			c0-1.9,0.3-3.5,0.8-4.9c0.5-1.4,1.2-2.6,2-3.6c0.8-1,1.7-1.9,2.6-2.6s1.9-1.4,2.7-2.1c0.9-0.6,1.6-1.3,2.2-1.9
			c0.6-0.6,1-1.3,1.2-2.1l1-5.2h7.9l0.8,6c0.2,1.2,0.1,2.3-0.4,3.2c-0.4,0.9-1.1,1.7-1.8,2.5c-0.8,0.7-1.7,1.4-2.6,2.1
			c-1,0.7-1.9,1.4-2.7,2.1c-0.8,0.8-1.6,1.6-2.1,2.5c-0.6,0.9-0.9,2-0.9,3.3c0,1.5,0.5,2.7,1.5,3.6c1,0.9,2.3,1.3,4,1.3
			c1.3,0,2.4-0.1,3.3-0.4c0.9-0.3,1.6-0.6,2.3-0.9c0.6-0.3,1.2-0.6,1.7-0.9c0.5-0.3,0.9-0.4,1.4-0.4c1.1,0,1.9,0.5,2.4,1.4
			L1127.1,100.5z M1120.2,57.1c0,0.9-0.2,1.7-0.5,2.5c-0.3,0.8-0.8,1.4-1.4,2c-0.6,0.6-1.3,1-2.1,1.4c-0.8,0.3-1.7,0.5-2.6,0.5
			c-0.9,0-1.8-0.2-2.6-0.5c-0.8-0.3-1.5-0.8-2.1-1.4c-0.6-0.6-1.1-1.2-1.4-2c-0.3-0.8-0.5-1.6-0.5-2.5c0-0.9,0.2-1.7,0.5-2.5
			c0.3-0.8,0.8-1.5,1.4-2c0.6-0.6,1.3-1,2.1-1.3c0.8-0.3,1.7-0.5,2.6-0.5c0.9,0,1.8,0.2,2.6,0.5c0.8,0.3,1.5,0.8,2.1,1.3
			c0.6,0.6,1,1.2,1.4,2C1120.1,55.4,1120.2,56.2,1120.2,57.1z"/>
	</g>
	<g>
		<path class="st1" d="M992.6,58.5c0-0.9,0.2-1.7,0.5-2.5c0.3-0.8,0.8-1.4,1.4-2c0.6-0.6,1.3-1,2.1-1.4c0.8-0.3,1.7-0.5,2.6-0.5
			c0.9,0,1.8,0.2,2.6,0.5c0.8,0.3,1.5,0.8,2.1,1.4c0.6,0.6,1.1,1.2,1.4,2c0.3,0.8,0.5,1.6,0.5,2.5c0,0.9-0.2,1.7-0.5,2.5
			c-0.3,0.8-0.8,1.5-1.4,2c-0.6,0.6-1.3,1-2.1,1.3c-0.8,0.3-1.7,0.5-2.6,0.5c-0.9,0-1.8-0.2-2.6-0.5c-0.8-0.3-1.5-0.8-2.1-1.3
			c-0.6-0.6-1-1.2-1.4-2C992.7,60.2,992.6,59.4,992.6,58.5z"/>
	</g>
	<g>
		<path class="st1" d="M969.2,68.1c0-0.7,0.1-1.3,0.4-1.9c0.2-0.6,0.6-1.1,1-1.5c0.4-0.4,0.9-0.8,1.5-1c0.6-0.2,1.2-0.4,1.9-0.4
			c0.7,0,1.3,0.1,1.9,0.4c0.6,0.2,1.1,0.6,1.5,1c0.4,0.4,0.8,0.9,1,1.5c0.2,0.6,0.4,1.2,0.4,1.9c0,0.7-0.1,1.3-0.4,1.9
			c-0.2,0.6-0.6,1.1-1,1.5c-0.4,0.4-1,0.8-1.5,1c-0.6,0.2-1.2,0.4-1.9,0.4c-0.7,0-1.3-0.1-1.9-0.4s-1.1-0.6-1.5-1
			c-0.4-0.4-0.8-0.9-1-1.5C969.4,69.4,969.2,68.8,969.2,68.1z"/>
	</g>
	<g>
		<path class="st1" d="M1009.8,78.3c0-1.2,0.2-2.4,0.7-3.5c0.5-1.1,1.1-2,1.9-2.8c0.8-0.8,1.8-1.4,2.9-1.9c1.1-0.5,2.3-0.7,3.6-0.7
			c1.3,0,2.5,0.2,3.6,0.7c1.1,0.5,2.1,1.1,2.9,1.9c0.8,0.8,1.5,1.7,1.9,2.8c0.5,1.1,0.7,2.2,0.7,3.5c0,1.2-0.2,2.4-0.7,3.5
			c-0.5,1.1-1.1,2-1.9,2.8c-0.8,0.8-1.8,1.4-2.9,1.9c-1.1,0.4-2.3,0.7-3.6,0.7c-1.3,0-2.5-0.2-3.6-0.7s-2.1-1.1-2.9-1.9
			c-0.8-0.8-1.4-1.7-1.9-2.8C1010,80.7,1009.8,79.5,1009.8,78.3z"/>
	</g>
	<g>
		<path class="st1" d="M1178,79.3c0,0.9-0.2,1.7-0.5,2.5c-0.3,0.8-0.8,1.4-1.4,2c-0.6,0.6-1.3,1-2.1,1.4c-0.8,0.3-1.7,0.5-2.6,0.5
			c-0.9,0-1.8-0.2-2.6-0.5c-0.8-0.3-1.5-0.8-2.1-1.4c-0.6-0.6-1.1-1.2-1.4-2c-0.3-0.8-0.5-1.6-0.5-2.5c0-0.9,0.2-1.7,0.5-2.5
			c0.3-0.8,0.8-1.5,1.4-2c0.6-0.6,1.3-1,2.1-1.3c0.8-0.3,1.7-0.5,2.6-0.5c0.9,0,1.8,0.2,2.6,0.5c0.8,0.3,1.5,0.8,2.1,1.3
			c0.6,0.6,1,1.2,1.4,2C1177.8,77.5,1178,78.4,1178,79.3z"/>
	</g>
	<g>
		<path class="st1" d="M1201.3,69.6c0,0.7-0.1,1.3-0.4,1.9c-0.2,0.6-0.6,1.1-1,1.5c-0.4,0.4-0.9,0.8-1.5,1c-0.6,0.2-1.2,0.4-1.9,0.4
			c-0.7,0-1.3-0.1-1.9-0.4c-0.6-0.2-1.1-0.6-1.5-1c-0.4-0.4-0.8-0.9-1-1.5c-0.2-0.6-0.4-1.2-0.4-1.9c0-0.7,0.1-1.3,0.4-1.9
			c0.2-0.6,0.6-1.1,1-1.5c0.4-0.4,1-0.8,1.5-1c0.6-0.2,1.2-0.4,1.9-0.4c0.7,0,1.3,0.1,1.9,0.4s1.1,0.6,1.5,1c0.4,0.4,0.8,0.9,1,1.5
			C1201.2,68.4,1201.3,69,1201.3,69.6z"/>
	</g>
	<g>
		<path class="st1" d="M1160.7,59.5c0,1.2-0.2,2.4-0.7,3.5c-0.5,1.1-1.1,2-1.9,2.8c-0.8,0.8-1.8,1.4-2.9,1.9
			c-1.1,0.5-2.3,0.7-3.6,0.7c-1.3,0-2.5-0.2-3.6-0.7c-1.1-0.5-2.1-1.1-2.9-1.9c-0.8-0.8-1.5-1.7-1.9-2.8c-0.5-1.1-0.7-2.2-0.7-3.5
			c0-1.2,0.2-2.4,0.7-3.5c0.5-1.1,1.1-2,1.9-2.8c0.8-0.8,1.8-1.4,2.9-1.9c1.1-0.4,2.3-0.7,3.6-0.7c1.3,0,2.5,0.2,3.6,0.7
			c1.1,0.4,2.1,1.1,2.9,1.9c0.8,0.8,1.4,1.7,1.9,2.8C1160.5,57.1,1160.7,58.2,1160.7,59.5z"/>
	</g>
	<g>
		<path class="st1" d="M280.5,34.9c0.9-0.8,1.9-1.5,3-2.2c1.1-0.7,2.2-1.3,3.5-1.8c1.2-0.5,2.6-0.9,4-1.2c1.4-0.3,3-0.4,4.6-0.4
			c2.3,0,4.4,0.3,6.3,0.9c1.9,0.6,3.5,1.5,4.8,2.7c1.3,1.2,2.3,2.5,3,4.2c0.7,1.6,1.1,3.4,1.1,5.4c0,1.9-0.3,3.5-0.8,4.9
			c-0.5,1.4-1.2,2.6-2,3.6c-0.8,1-1.7,1.9-2.6,2.6c-1,0.7-1.9,1.4-2.7,2.1c-0.9,0.6-1.6,1.3-2.2,1.9c-0.6,0.6-1,1.3-1.2,2.1l-1,5.2
			h-7.9l-0.8-6c-0.2-1.2-0.1-2.3,0.4-3.2c0.4-0.9,1.1-1.7,1.8-2.5c0.8-0.7,1.7-1.4,2.6-2.1c1-0.7,1.9-1.4,2.7-2.1
			c0.8-0.8,1.6-1.6,2.1-2.5c0.6-0.9,0.9-2,0.9-3.3c0-1.5-0.5-2.7-1.5-3.6c-1-0.9-2.3-1.3-4-1.3c-1.3,0-2.4,0.1-3.3,0.4
			c-0.9,0.3-1.6,0.6-2.3,0.9s-1.2,0.6-1.7,0.9c-0.5,0.3-0.9,0.4-1.4,0.4c-1.1,0-1.9-0.5-2.4-1.4L280.5,34.9z M287.4,78.3
			c0-0.9,0.2-1.7,0.5-2.5c0.3-0.8,0.8-1.4,1.4-2c0.6-0.6,1.3-1,2.1-1.4c0.8-0.3,1.7-0.5,2.6-0.5c0.9,0,1.8,0.2,2.6,0.5
			c0.8,0.3,1.5,0.8,2.1,1.4c0.6,0.6,1.1,1.2,1.4,2c0.3,0.8,0.5,1.6,0.5,2.5c0,0.9-0.2,1.7-0.5,2.5c-0.3,0.8-0.8,1.5-1.4,2
			c-0.6,0.6-1.3,1-2.1,1.3c-0.8,0.3-1.7,0.5-2.6,0.5c-0.9,0-1.8-0.2-2.6-0.5c-0.8-0.3-1.5-0.8-2.1-1.3c-0.6-0.6-1-1.2-1.4-2
			C287.5,80,287.4,79.2,287.4,78.3z"/>
	</g>
	<g>
		<path class="st1" d="M356.6,100.5c-0.9,0.8-1.9,1.5-3,2.2c-1.1,0.7-2.2,1.3-3.5,1.8c-1.2,0.5-2.6,0.9-4,1.2
			c-1.4,0.3-3,0.4-4.6,0.4c-2.3,0-4.4-0.3-6.3-0.9c-1.9-0.6-3.5-1.5-4.8-2.7c-1.3-1.2-2.3-2.5-3-4.2c-0.7-1.6-1.1-3.4-1.1-5.4
			c0-1.9,0.3-3.5,0.8-4.9c0.5-1.4,1.2-2.6,2-3.6c0.8-1,1.7-1.9,2.6-2.6s1.9-1.4,2.7-2.1c0.9-0.6,1.6-1.3,2.2-1.9
			c0.6-0.6,1-1.3,1.2-2.1l1-5.2h7.9l0.8,6c0.2,1.2,0.1,2.3-0.4,3.2s-1.1,1.7-1.8,2.5c-0.8,0.7-1.7,1.4-2.6,2.1
			c-1,0.7-1.9,1.4-2.7,2.1c-0.8,0.8-1.6,1.6-2.1,2.5c-0.6,0.9-0.9,2-0.9,3.3c0,1.5,0.5,2.7,1.5,3.6c1,0.9,2.3,1.3,4,1.3
			c1.3,0,2.4-0.1,3.3-0.4c0.9-0.3,1.6-0.6,2.3-0.9s1.2-0.6,1.7-0.9c0.5-0.3,0.9-0.4,1.4-0.4c1.1,0,1.9,0.5,2.4,1.4L356.6,100.5z
			 M349.7,57.1c0,0.9-0.2,1.7-0.5,2.5c-0.3,0.8-0.8,1.4-1.4,2c-0.6,0.6-1.3,1-2.1,1.4c-0.8,0.3-1.7,0.5-2.6,0.5
			c-0.9,0-1.8-0.2-2.6-0.5c-0.8-0.3-1.5-0.8-2.1-1.4c-0.6-0.6-1.1-1.2-1.4-2c-0.3-0.8-0.5-1.6-0.5-2.5c0-0.9,0.2-1.7,0.5-2.5
			c0.3-0.8,0.8-1.5,1.4-2c0.6-0.6,1.3-1,2.1-1.3c0.8-0.3,1.7-0.5,2.6-0.5c0.9,0,1.8,0.2,2.6,0.5c0.8,0.3,1.5,0.8,2.1,1.3
			c0.6,0.6,1,1.2,1.4,2C349.5,55.4,349.7,56.2,349.7,57.1z"/>
	</g>
	<g>
		<path class="st1" d="M222,58.5c0-0.9,0.2-1.7,0.5-2.5c0.3-0.8,0.8-1.4,1.4-2c0.6-0.6,1.3-1,2.1-1.4c0.8-0.3,1.7-0.5,2.6-0.5
			c0.9,0,1.8,0.2,2.6,0.5c0.8,0.3,1.5,0.8,2.1,1.4c0.6,0.6,1.1,1.2,1.4,2c0.3,0.8,0.5,1.6,0.5,2.5c0,0.9-0.2,1.7-0.5,2.5
			c-0.3,0.8-0.8,1.5-1.4,2c-0.6,0.6-1.3,1-2.1,1.3c-0.8,0.3-1.7,0.5-2.6,0.5c-0.9,0-1.8-0.2-2.6-0.5c-0.8-0.3-1.5-0.8-2.1-1.3
			c-0.6-0.6-1-1.2-1.4-2C222.2,60.2,222,59.4,222,58.5z"/>
	</g>
	<g>
		<path class="st1" d="M198.7,68.1c0-0.7,0.1-1.3,0.4-1.9c0.2-0.6,0.6-1.1,1-1.5c0.4-0.4,0.9-0.8,1.5-1c0.6-0.2,1.2-0.4,1.9-0.4
			c0.7,0,1.3,0.1,1.9,0.4c0.6,0.2,1.1,0.6,1.5,1c0.4,0.4,0.8,0.9,1,1.5c0.2,0.6,0.4,1.2,0.4,1.9c0,0.7-0.1,1.3-0.4,1.9
			c-0.2,0.6-0.6,1.1-1,1.5c-0.4,0.4-1,0.8-1.5,1c-0.6,0.2-1.2,0.4-1.9,0.4c-0.7,0-1.3-0.1-1.9-0.4s-1.1-0.6-1.5-1
			c-0.4-0.4-0.8-0.9-1-1.5C198.8,69.4,198.7,68.8,198.7,68.1z"/>
	</g>
	<g>
		<path class="st1" d="M239.3,78.3c0-1.2,0.2-2.4,0.7-3.5c0.5-1.1,1.1-2,1.9-2.8c0.8-0.8,1.8-1.4,2.9-1.9c1.1-0.5,2.3-0.7,3.6-0.7
			c1.3,0,2.5,0.2,3.6,0.7c1.1,0.5,2.1,1.1,2.9,1.9c0.8,0.8,1.5,1.7,1.9,2.8c0.5,1.1,0.7,2.2,0.7,3.5c0,1.2-0.2,2.4-0.7,3.5
			c-0.5,1.1-1.1,2-1.9,2.8c-0.8,0.8-1.8,1.4-2.9,1.9c-1.1,0.4-2.3,0.7-3.6,0.7c-1.3,0-2.5-0.2-3.6-0.7s-2.1-1.1-2.9-1.9
			c-0.8-0.8-1.4-1.7-1.9-2.8C239.5,80.7,239.3,79.5,239.3,78.3z"/>
	</g>
	<g>
		<path class="st1" d="M407.4,79.3c0,0.9-0.2,1.7-0.5,2.5c-0.3,0.8-0.8,1.4-1.4,2c-0.6,0.6-1.3,1-2.1,1.4c-0.8,0.3-1.7,0.5-2.6,0.5
			c-0.9,0-1.8-0.2-2.6-0.5c-0.8-0.3-1.5-0.8-2.1-1.4c-0.6-0.6-1.1-1.2-1.4-2c-0.3-0.8-0.5-1.6-0.5-2.5c0-0.9,0.2-1.7,0.5-2.5
			c0.3-0.8,0.8-1.5,1.4-2c0.6-0.6,1.3-1,2.1-1.3c0.8-0.3,1.7-0.5,2.6-0.5c0.9,0,1.8,0.2,2.6,0.5c0.8,0.3,1.5,0.8,2.1,1.3
			c0.6,0.6,1,1.2,1.4,2C407.3,77.5,407.4,78.4,407.4,79.3z"/>
	</g>
	<g>
		<path class="st1" d="M430.8,69.6c0,0.7-0.1,1.3-0.4,1.9c-0.2,0.6-0.6,1.1-1,1.5c-0.4,0.4-0.9,0.8-1.5,1c-0.6,0.2-1.2,0.4-1.9,0.4
			c-0.7,0-1.3-0.1-1.9-0.4c-0.6-0.2-1.1-0.6-1.5-1c-0.4-0.4-0.8-0.9-1-1.5c-0.2-0.6-0.4-1.2-0.4-1.9c0-0.7,0.1-1.3,0.4-1.9
			c0.2-0.6,0.6-1.1,1-1.5c0.4-0.4,1-0.8,1.5-1c0.6-0.2,1.2-0.4,1.9-0.4c0.7,0,1.3,0.1,1.9,0.4s1.1,0.6,1.5,1c0.4,0.4,0.8,0.9,1,1.5
			C430.6,68.4,430.8,69,430.8,69.6z"/>
	</g>
	<g>
		<path class="st1" d="M390.2,59.5c0,1.2-0.2,2.4-0.7,3.5c-0.5,1.1-1.1,2-1.9,2.8c-0.8,0.8-1.8,1.4-2.9,1.9
			c-1.1,0.5-2.3,0.7-3.6,0.7c-1.3,0-2.5-0.2-3.6-0.7c-1.1-0.5-2.1-1.1-2.9-1.9c-0.8-0.8-1.5-1.7-1.9-2.8c-0.5-1.1-0.7-2.2-0.7-3.5
			c0-1.2,0.2-2.4,0.7-3.5c0.5-1.1,1.1-2,1.9-2.8c0.8-0.8,1.8-1.4,2.9-1.9c1.1-0.4,2.3-0.7,3.6-0.7c1.3,0,2.5,0.2,3.6,0.7
			c1.1,0.4,2.1,1.1,2.9,1.9c0.8,0.8,1.4,1.7,1.9,2.8C390,57.1,390.2,58.2,390.2,59.5z"/>
	</g>
</g>
</svg>
