<?xml version="1.0" encoding="utf-8"?>
<!-- Generator: Adobe Illustrator 25.4.1, SVG Export Plug-In . SVG Version: 6.00 Build 0)  -->
<svg version="1.1" id="Warstwa_1" xmlns="http://www.w3.org/2000/svg" xmlns:xlink="http://www.w3.org/1999/xlink" x="0px" y="0px"
	 viewBox="0 0 420 100" style="enable-background:new 0 0 420 100;" xml:space="preserve">
<style type="text/css">
	.st0{fill:url(#SVGID_1_);}
	.st1{fill:#FFFFFF;}
	.st2{opacity:0.4;}
</style>
<linearGradient id="SVGID_1_" gradientUnits="userSpaceOnUse" x1="0" y1="50" x2="420" y2="50">
	<stop  offset="0" style="stop-color:#29235C"/>
	<stop  offset="1" style="stop-color:#E84E1B"/>
</linearGradient>
<path class="st0" d="M420,100H0V6c0-3.3,2.7-6,6-6h408c3.3,0,6,2.7,6,6V100z"/>
<g>
	<path class="st1" d="M134.4,51c0,1.5-0.2,2.9-0.6,4.1s-0.9,2.2-1.7,3.1c-0.7,0.8-1.6,1.5-2.8,2c-1.1,0.5-2.4,0.7-3.8,0.7
		c-0.7,0-1.3,0-2-0.1c-0.6-0.1-1.3-0.2-2-0.4c0-0.5,0.1-1,0.1-1.5c0.1-0.5,0.1-1,0.1-1.5c0-0.3,0.2-0.5,0.3-0.7
		c0.2-0.2,0.4-0.2,0.8-0.2c0.2,0,0.5,0,0.8,0.1s0.8,0.1,1.3,0.1c0.7,0,1.3-0.1,1.9-0.3c0.5-0.2,1-0.5,1.4-1c0.4-0.5,0.6-1,0.8-1.7
		c0.2-0.7,0.3-1.6,0.3-2.6V33.8h5V51z"/>
	<path class="st1" d="M138.2,44.2c2.2-2,4.8-3,7.9-3c1.1,0,2.1,0.2,3,0.5c0.9,0.4,1.6,0.9,2.2,1.5c0.6,0.7,1.1,1.4,1.4,2.3
		c0.3,0.9,0.5,1.9,0.5,3v12h-2.1c-0.4,0-0.8-0.1-1-0.2c-0.2-0.1-0.4-0.4-0.6-0.8l-0.4-1.4c-0.5,0.4-0.9,0.8-1.4,1.1
		c-0.5,0.3-0.9,0.6-1.4,0.8c-0.5,0.2-1,0.4-1.6,0.5s-1.2,0.2-1.9,0.2c-0.8,0-1.5-0.1-2.2-0.3c-0.7-0.2-1.3-0.5-1.8-1
		c-0.5-0.4-0.9-1-1.1-1.6c-0.3-0.6-0.4-1.4-0.4-2.2c0-0.5,0.1-1,0.2-1.4s0.4-0.9,0.8-1.4c0.4-0.4,0.8-0.8,1.4-1.2s1.3-0.7,2.1-1
		s1.8-0.5,3-0.7c1.1-0.2,2.4-0.3,3.9-0.3v-1.1c0-1.3-0.3-2.2-0.8-2.8c-0.5-0.6-1.3-0.9-2.4-0.9c-0.7,0-1.4,0.1-1.8,0.3
		c-0.5,0.2-0.9,0.4-1.3,0.6c-0.4,0.2-0.7,0.4-1,0.6c-0.3,0.2-0.6,0.3-1,0.3c-0.3,0-0.6-0.1-0.8-0.2c-0.2-0.2-0.4-0.4-0.5-0.6
		L138.2,44.2z M148.7,52.4c-1.3,0.1-2.4,0.2-3.3,0.3c-0.9,0.2-1.6,0.4-2.2,0.6c-0.5,0.3-0.9,0.6-1.2,0.9c-0.2,0.3-0.4,0.7-0.4,1.1
		c0,0.8,0.2,1.4,0.7,1.7s1.1,0.5,1.9,0.5c0.9,0,1.8-0.2,2.4-0.5s1.4-0.9,2-1.5L148.7,52.4L148.7,52.4z"/>
	<path class="st1" d="M162.1,33v15.8h0.9c0.3,0,0.6,0,0.7-0.1c0.2-0.1,0.4-0.2,0.6-0.5l4.7-5.8c0.2-0.3,0.4-0.5,0.7-0.6
		c0.2-0.1,0.6-0.2,0.9-0.2h4.2l-5.9,7.1c-0.4,0.6-0.9,1-1.4,1.3c0.3,0.2,0.5,0.4,0.7,0.7c0.2,0.2,0.4,0.5,0.6,0.8l6.3,9.2h-4.1
		c-0.4,0-0.7-0.1-0.9-0.2s-0.5-0.3-0.6-0.6l-4.9-7.2c-0.2-0.3-0.4-0.5-0.5-0.6c-0.2-0.1-0.5-0.1-0.8-0.1h-1v8.7h-4.6V33H162.1z"/>
	<path class="st1" d="M200,43.4c0,0.3-0.1,0.6-0.2,1s-0.3,0.6-0.4,0.8l-9,11.9h9.4v3.5H185v-1.9c0-0.2,0.1-0.5,0.1-0.8
		c0.1-0.3,0.2-0.6,0.4-0.8l9.1-12h-9.2v-3.5H200L200,43.4L200,43.4z"/>
	<path class="st1" d="M202.9,44.2c2.2-2,4.8-3,7.9-3c1.1,0,2.1,0.2,3,0.5c0.9,0.4,1.6,0.9,2.2,1.5c0.6,0.7,1.1,1.4,1.4,2.3
		c0.3,0.9,0.5,1.9,0.5,3v12h-2.1c-0.4,0-0.8-0.1-1-0.2c-0.2-0.1-0.4-0.4-0.6-0.8l-0.4-1.4c-0.5,0.4-0.9,0.8-1.4,1.1
		c-0.5,0.3-0.9,0.6-1.4,0.8c-0.5,0.2-1,0.4-1.6,0.5s-1.2,0.2-1.9,0.2c-0.8,0-1.5-0.1-2.2-0.3c-0.7-0.2-1.3-0.5-1.8-1
		c-0.5-0.4-0.9-1-1.1-1.6c-0.3-0.6-0.4-1.4-0.4-2.2c0-0.5,0.1-1,0.2-1.4s0.4-0.9,0.8-1.4c0.4-0.4,0.8-0.8,1.4-1.2s1.3-0.7,2.1-1
		s1.8-0.5,3-0.7c1.1-0.2,2.4-0.3,3.9-0.3v-1.1c0-1.3-0.3-2.2-0.8-2.8c-0.5-0.6-1.3-0.9-2.4-0.9c-0.7,0-1.4,0.1-1.8,0.3
		c-0.5,0.2-0.9,0.4-1.3,0.6c-0.4,0.2-0.7,0.4-1,0.6c-0.3,0.2-0.6,0.3-1,0.3c-0.3,0-0.6-0.1-0.8-0.2c-0.2-0.2-0.4-0.4-0.5-0.6
		L202.9,44.2z M213.4,52.4c-1.3,0.1-2.4,0.2-3.3,0.3c-0.9,0.2-1.6,0.4-2.2,0.6c-0.5,0.3-0.9,0.6-1.2,0.9c-0.2,0.3-0.4,0.7-0.4,1.1
		c0,0.8,0.2,1.4,0.7,1.7c0.5,0.3,1.1,0.5,1.9,0.5c0.9,0,1.8-0.2,2.4-0.5s1.4-0.9,2-1.5L213.4,52.4L213.4,52.4z"/>
	<path class="st1" d="M235.8,45.6c-0.1,0.2-0.3,0.3-0.4,0.4c-0.1,0.1-0.3,0.2-0.6,0.2c-0.2,0-0.5-0.1-0.7-0.2
		c-0.2-0.1-0.5-0.3-0.8-0.5s-0.7-0.3-1.1-0.5c-0.4-0.1-0.9-0.2-1.6-0.2c-0.8,0-1.5,0.2-2.1,0.4c-0.6,0.3-1.1,0.7-1.5,1.2
		s-0.7,1.2-0.9,2s-0.3,1.7-0.3,2.6c0,1,0.1,1.9,0.3,2.7c0.2,0.8,0.5,1.5,0.9,2c0.4,0.5,0.9,1,1.5,1.2c0.6,0.3,1.2,0.4,2,0.4
		s1.3-0.1,1.8-0.3s0.8-0.4,1.1-0.6c0.3-0.2,0.6-0.4,0.8-0.6s0.5-0.3,0.8-0.3c0.4,0,0.6,0.1,0.8,0.4l1.3,1.7
		c-0.5,0.6-1.1,1.1-1.6,1.5s-1.2,0.7-1.8,1c-0.6,0.2-1.3,0.4-2,0.5c-0.7,0.1-1.3,0.2-2,0.2c-1.2,0-2.3-0.2-3.3-0.7
		c-1-0.4-1.9-1.1-2.7-1.9c-0.8-0.8-1.4-1.9-1.8-3.1s-0.7-2.6-0.7-4.2c0-1.4,0.2-2.7,0.6-3.9c0.4-1.2,1-2.2,1.8-3.1
		c0.8-0.9,1.7-1.5,2.9-2c1.1-0.5,2.5-0.7,4-0.7c1.4,0,2.7,0.2,3.7,0.7c1.1,0.5,2,1.1,2.9,2L235.8,45.6z"/>
	<path class="st1" d="M253.7,43.4c0,0.3-0.1,0.6-0.2,1s-0.3,0.6-0.4,0.8l-9,11.9h9.4v3.5h-14.7v-1.9c0-0.2,0.1-0.5,0.1-0.8
		c0.1-0.3,0.2-0.6,0.4-0.8l9.1-12h-9.2v-3.5h14.4V43.4z"/>
	<path class="st1" d="M273.4,66c-0.4,0.3-0.9,0.5-1.5,0.7S270.6,67,270,67c-1.2,0-2.1-0.2-2.8-0.8c-0.7-0.5-1-1.2-1-2
		c0-0.7,0.2-1.4,0.7-2c0.5-0.6,1.1-1.2,2-1.7c-0.2,0-0.5-0.1-0.6-0.3c-0.1-0.1-0.3-0.3-0.4-0.6l-0.4-1.4c-0.5,0.4-1,0.8-1.4,1.1
		c-0.5,0.3-0.9,0.6-1.4,0.8c-0.5,0.2-1,0.4-1.6,0.5s-1.2,0.2-1.9,0.2c-0.8,0-1.5-0.1-2.2-0.3c-0.7-0.2-1.3-0.5-1.8-1
		c-0.5-0.4-0.9-1-1.1-1.6c-0.3-0.6-0.4-1.4-0.4-2.2c0-0.5,0.1-1,0.2-1.4c0.2-0.5,0.4-0.9,0.8-1.4c0.4-0.4,0.8-0.8,1.4-1.2
		c0.6-0.4,1.3-0.7,2.1-1s1.8-0.5,3-0.7c1.1-0.2,2.4-0.3,3.9-0.3v-1.1c0-1.3-0.3-2.2-0.8-2.8c-0.5-0.6-1.3-0.9-2.4-0.9
		c-0.7,0-1.4,0.1-1.8,0.3c-0.5,0.2-0.9,0.4-1.3,0.6c-0.4,0.2-0.7,0.4-1,0.6c-0.3,0.2-0.6,0.3-1,0.3c-0.3,0-0.6-0.1-0.8-0.2
		c-0.2-0.2-0.4-0.4-0.5-0.6l-0.8-1.5c2.2-2,4.8-3,7.9-3c1.1,0,2.1,0.2,3,0.5c0.9,0.4,1.6,0.9,2.2,1.5c0.6,0.7,1.1,1.4,1.4,2.3
		c0.3,0.9,0.5,1.9,0.5,3v12c-0.2,0.1-0.5,0.3-0.7,0.5c-0.2,0.2-0.5,0.4-0.6,0.6c-0.2,0.2-0.3,0.5-0.4,0.7c-0.1,0.2-0.2,0.5-0.2,0.8
		c0,0.4,0.1,0.7,0.4,0.9s0.6,0.3,1,0.3c0.2,0,0.4,0,0.6,0c0.1,0,0.3-0.1,0.4-0.1c0.1,0,0.2-0.1,0.2-0.1c0.1,0,0.1,0,0.2,0
		c0.2,0,0.4,0.1,0.4,0.3L273.4,66z M267.1,52.4c-1.3,0.1-2.4,0.2-3.3,0.3c-0.9,0.2-1.6,0.4-2.2,0.6c-0.5,0.3-0.9,0.6-1.2,0.9
		c-0.2,0.3-0.4,0.7-0.4,1.1c0,0.8,0.2,1.4,0.7,1.7c0.5,0.3,1.1,0.5,1.9,0.5c0.9,0,1.8-0.2,2.4-0.5s1.4-0.9,2-1.5L267.1,52.4
		L267.1,52.4z"/>
	<path class="st1" d="M289.5,45.6c-0.1,0.2-0.3,0.3-0.4,0.4s-0.3,0.2-0.6,0.2c-0.2,0-0.5-0.1-0.7-0.2c-0.2-0.1-0.5-0.3-0.8-0.5
		s-0.7-0.3-1.1-0.5c-0.4-0.1-1-0.2-1.6-0.2c-0.8,0-1.5,0.2-2.1,0.4c-0.6,0.3-1.1,0.7-1.5,1.2c-0.4,0.5-0.7,1.2-0.9,2
		c-0.2,0.8-0.3,1.7-0.3,2.6c0,1,0.1,1.9,0.3,2.7c0.2,0.8,0.5,1.5,0.9,2c0.4,0.5,0.9,1,1.5,1.2c0.6,0.3,1.2,0.4,2,0.4
		s1.3-0.1,1.8-0.3c0.5-0.2,0.8-0.4,1.1-0.6c0.3-0.2,0.6-0.4,0.8-0.6s0.5-0.3,0.8-0.3c0.4,0,0.6,0.1,0.8,0.4l1.3,1.7
		c-0.5,0.6-1.1,1.1-1.6,1.5s-1.2,0.7-1.8,1c-0.6,0.2-1.3,0.4-2,0.5c-0.7,0.1-1.3,0.2-2,0.2c-1.2,0-2.3-0.2-3.3-0.7s-2-1.1-2.7-1.9
		c-0.8-0.8-1.4-1.9-1.8-3.1c-0.5-1.2-0.7-2.6-0.7-4.2c0-1.4,0.2-2.7,0.6-3.9c0.4-1.2,1-2.2,1.8-3.1c0.8-0.9,1.7-1.5,2.9-2
		c1.1-0.5,2.5-0.7,4-0.7c1.4,0,2.7,0.2,3.7,0.7c1.1,0.5,2,1.1,2.9,2L289.5,45.6z M290.4,33.5l-4.6,4.8c-0.2,0.2-0.5,0.4-0.7,0.5
		s-0.5,0.1-0.8,0.1h-2.7l2.6-4.5c0.2-0.3,0.4-0.6,0.6-0.7c0.2-0.2,0.6-0.2,1.1-0.2L290.4,33.5L290.4,33.5z"/>
	<path class="st1" d="M292.3,36.2c0.4-0.4,0.9-0.7,1.4-1.1c0.5-0.3,1-0.6,1.6-0.9s1.2-0.4,1.9-0.6c0.7-0.1,1.4-0.2,2.2-0.2
		c1.1,0,2,0.2,2.9,0.4c0.9,0.3,1.6,0.7,2.3,1.3s1.1,1.2,1.5,2c0.4,0.8,0.5,1.7,0.5,2.6c0,0.9-0.1,1.8-0.4,2.4s-0.6,1.3-1,1.8
		c-0.4,0.5-0.9,1-1.3,1.3c-0.5,0.4-1,0.7-1.4,1c-0.4,0.3-0.8,0.7-1.1,1c-0.3,0.3-0.5,0.7-0.6,1.1l-0.4,2.7h-3.1l-0.3-3
		c-0.1-0.6,0-1.1,0.2-1.5s0.6-0.8,1-1.2s0.9-0.7,1.3-1.1s1-0.7,1.4-1.1c0.4-0.4,0.8-0.8,1.1-1.3c0.3-0.5,0.4-1.1,0.4-1.8
		c0-0.4-0.1-0.8-0.2-1.2c-0.2-0.3-0.4-0.7-0.7-0.9c-0.3-0.2-0.6-0.5-1.1-0.6c-0.4-0.1-0.9-0.2-1.3-0.2c-0.7,0-1.3,0.1-1.8,0.2
		c-0.5,0.2-0.9,0.3-1.2,0.5s-0.6,0.4-0.9,0.5s-0.4,0.2-0.6,0.2c-0.5,0-0.8-0.2-1-0.6L292.3,36.2z M295.8,58c0-0.4,0.1-0.8,0.2-1.1
		s0.3-0.6,0.6-0.9c0.2-0.2,0.5-0.4,0.9-0.6s0.7-0.2,1.1-0.2c0.4,0,0.8,0.1,1.1,0.2s0.6,0.3,0.9,0.6c0.2,0.2,0.5,0.5,0.6,0.9
		s0.2,0.7,0.2,1.1c0,0.4-0.1,0.8-0.2,1.1s-0.4,0.6-0.6,0.9s-0.5,0.4-0.9,0.6c-0.3,0.1-0.7,0.2-1.1,0.2c-0.4,0-0.8-0.1-1.1-0.2
		c-0.4-0.1-0.6-0.3-0.9-0.6c-0.2-0.2-0.4-0.5-0.6-0.9C295.9,58.8,295.8,58.4,295.8,58z"/>
</g>
<g class="st2">
	<g>
		<path class="st1" d="M41.4,21.5c1-0.8,2-1.6,3.2-2.3s2.4-1.3,3.7-1.9c1.3-0.5,2.7-1,4.2-1.3c1.5-0.3,3.2-0.4,4.9-0.4
			c2.5,0,4.7,0.3,6.7,1c2,0.7,3.7,1.6,5.1,2.8c1.4,1.2,2.5,2.7,3.2,4.4s1.1,3.6,1.1,5.8c0,2-0.3,3.7-0.8,5.2
			c-0.6,1.5-1.2,2.7-2.1,3.8s-1.8,2-2.8,2.8s-2,1.5-2.9,2.2c-0.9,0.7-1.7,1.3-2.4,2s-1.1,1.4-1.3,2.2l-1.1,5.5h-8.4L51,47
			c-0.2-1.3-0.1-2.4,0.4-3.4c0.5-1,1.1-1.8,2-2.6c0.8-0.8,1.8-1.5,2.8-2.2c1-0.7,2-1.5,2.9-2.2c0.9-0.8,1.7-1.7,2.3-2.7
			c0.6-1,0.9-2.2,0.9-3.5c0-1.6-0.5-2.8-1.6-3.8s-2.5-1.4-4.3-1.4c-1.4,0-2.6,0.1-3.5,0.4c-0.9,0.3-1.7,0.6-2.4,1
			c-0.7,0.4-1.3,0.7-1.8,1s-1,0.4-1.5,0.4c-1.1,0-2-0.5-2.5-1.5L41.4,21.5z M48.7,67.6c0-0.9,0.2-1.8,0.5-2.7
			c0.4-0.8,0.8-1.5,1.5-2.1c0.6-0.6,1.3-1.1,2.2-1.4c0.8-0.4,1.8-0.5,2.8-0.5c1,0,1.9,0.2,2.7,0.5c0.8,0.4,1.6,0.8,2.2,1.4
			c0.6,0.6,1.1,1.3,1.5,2.1c0.4,0.8,0.5,1.7,0.5,2.7c0,0.9-0.2,1.8-0.5,2.7c-0.4,0.8-0.8,1.6-1.5,2.2c-0.6,0.6-1.4,1.1-2.2,1.4
			c-0.8,0.3-1.8,0.5-2.7,0.5c-1,0-1.9-0.2-2.8-0.5c-0.8-0.3-1.6-0.8-2.2-1.4c-0.6-0.6-1.1-1.3-1.5-2.2
			C48.9,69.5,48.7,68.6,48.7,67.6z"/>
	</g>
	<g>
		<path class="st1" d="M34.2,56.3c0,1-0.2,1.8-0.5,2.7c-0.4,0.8-0.8,1.5-1.5,2.1c-0.6,0.6-1.4,1.1-2.2,1.4c-0.8,0.4-1.8,0.5-2.8,0.5
			c-1,0-1.9-0.2-2.7-0.5c-0.8-0.4-1.6-0.8-2.2-1.4c-0.6-0.6-1.1-1.3-1.5-2.1c-0.4-0.8-0.5-1.7-0.5-2.7s0.2-1.8,0.5-2.7
			c0.4-0.8,0.9-1.5,1.5-2.2c0.6-0.6,1.4-1.1,2.2-1.4c0.8-0.3,1.8-0.5,2.7-0.5c1,0,1.9,0.2,2.8,0.5c0.8,0.3,1.6,0.8,2.2,1.4
			c0.6,0.6,1.1,1.3,1.5,2.2C34,54.5,34.2,55.4,34.2,56.3z"/>
	</g>
	<g>
		<path class="st1" d="M40.4,78.4c0,0.7-0.1,1.4-0.4,2c-0.3,0.6-0.6,1.1-1.1,1.6c-0.5,0.4-1,0.8-1.6,1.1s-1.3,0.4-2,0.4
			c-0.7,0-1.4-0.1-2-0.4c-0.6-0.3-1.2-0.6-1.6-1.1s-0.8-1-1.1-1.6c-0.3-0.6-0.4-1.3-0.4-2c0-0.7,0.1-1.4,0.4-2
			c0.3-0.6,0.6-1.2,1.1-1.6c0.5-0.4,1-0.8,1.6-1.1c0.6-0.2,1.3-0.4,2-0.4c0.7,0,1.4,0.1,2,0.4c0.6,0.2,1.2,0.6,1.6,1.1
			c0.5,0.4,0.8,1,1.1,1.6C40.2,77,40.4,77.7,40.4,78.4z"/>
	</g>
</g>
<g class="st2">
	<g>
		<path class="st1" d="M383.3,79.1c-1,0.8-2,1.6-3.2,2.3s-2.4,1.3-3.7,1.9s-2.7,1-4.2,1.3c-1.5,0.3-3.2,0.4-4.9,0.4
			c-2.5,0-4.7-0.3-6.7-1c-2-0.7-3.7-1.6-5.1-2.8c-1.4-1.2-2.5-2.7-3.2-4.4s-1.1-3.6-1.1-5.8c0-2,0.3-3.7,0.8-5.2
			c0.5-1.5,1.2-2.7,2.1-3.8s1.8-2,2.8-2.8c1-0.8,2-1.5,2.9-2.2s1.7-1.3,2.4-2c0.7-0.7,1.1-1.4,1.3-2.2l1.1-5.5h8.4l0.9,6.4
			c0.2,1.3,0.1,2.4-0.4,3.4c-0.5,1-1.1,1.8-2,2.6s-1.8,1.5-2.8,2.2s-2,1.5-2.9,2.2c-0.9,0.8-1.6,1.7-2.3,2.7c-0.6,1-0.9,2.2-0.9,3.5
			c0,1.6,0.5,2.8,1.6,3.8s2.5,1.4,4.3,1.4c1.4,0,2.6-0.2,3.5-0.4c0.9-0.3,1.7-0.6,2.4-1s1.3-0.7,1.8-1s1-0.4,1.5-0.4
			c1.1,0,2,0.5,2.5,1.5L383.3,79.1z M376,33c0,1-0.2,1.8-0.5,2.7c-0.4,0.8-0.8,1.5-1.5,2.1c-0.6,0.6-1.4,1.1-2.2,1.4
			c-0.8,0.4-1.8,0.5-2.8,0.5c-1,0-1.9-0.2-2.7-0.5c-0.8-0.4-1.6-0.8-2.2-1.4c-0.6-0.6-1.1-1.3-1.5-2.1c-0.4-0.8-0.5-1.7-0.5-2.7
			s0.2-1.8,0.5-2.7c0.4-0.8,0.9-1.5,1.5-2.1c0.6-0.6,1.4-1.1,2.2-1.4s1.8-0.5,2.7-0.5c1,0,1.9,0.2,2.8,0.5c0.8,0.3,1.6,0.8,2.2,1.4
			c0.6,0.6,1.1,1.3,1.5,2.1C375.9,31.2,376,32,376,33z"/>
	</g>
	<g>
		<path class="st1" d="M390.5,44.3c0-1,0.2-1.8,0.5-2.7c0.4-0.8,0.8-1.5,1.5-2.1c0.6-0.6,1.4-1.1,2.2-1.4c0.8-0.4,1.8-0.5,2.8-0.5
			c1,0,1.9,0.2,2.7,0.5c0.8,0.4,1.6,0.8,2.2,1.4c0.6,0.6,1.1,1.3,1.5,2.1c0.4,0.8,0.5,1.7,0.5,2.7s-0.2,1.8-0.5,2.7
			c-0.4,0.8-0.9,1.5-1.5,2.2c-0.6,0.6-1.4,1.1-2.2,1.4c-0.8,0.3-1.8,0.5-2.7,0.5c-1,0-1.9-0.2-2.8-0.5c-0.8-0.3-1.6-0.8-2.2-1.4
			c-0.6-0.6-1.1-1.3-1.5-2.2C390.7,46.1,390.5,45.2,390.5,44.3z"/>
	</g>
	<g>
		<path class="st1" d="M384.4,22.2c0-0.7,0.1-1.4,0.4-2c0.3-0.6,0.6-1.1,1.1-1.6s1-0.8,1.6-1.1s1.3-0.4,2-0.4c0.7,0,1.4,0.1,2,0.4
			c0.6,0.3,1.2,0.6,1.6,1.1c0.5,0.5,0.8,1,1.1,1.6c0.3,0.6,0.4,1.3,0.4,2c0,0.7-0.1,1.4-0.4,2c-0.3,0.6-0.6,1.1-1.1,1.6
			s-1,0.8-1.6,1.1c-0.6,0.2-1.3,0.4-2,0.4c-0.7,0-1.4-0.1-2-0.4s-1.2-0.6-1.6-1.1c-0.5-0.5-0.8-1-1.1-1.6
			C384.5,23.6,384.4,22.9,384.4,22.2z"/>
	</g>
</g>
</svg>
