<?xml version="1.0" encoding="utf-8"?>
<!-- Generator: Adobe Illustrator 24.0.2, SVG Export Plug-In . SVG Version: 6.00 Build 0)  -->
<svg version="1.1" id="Warstwa_1" xmlns="http://www.w3.org/2000/svg" xmlns:xlink="http://www.w3.org/1999/xlink" x="0px" y="0px"
	 viewBox="0 0 420 100" style="enable-background:new 0 0 420 100;" xml:space="preserve">
<style type="text/css">
	.st0{fill:url(#SVGID_1_);}
	.st1{fill:#FFFFFF;}
	.st2{opacity:0.4;}
</style>
<g>
	<linearGradient id="SVGID_1_" gradientUnits="userSpaceOnUse" x1="-0.4672" y1="49.6156" x2="419.5328" y2="49.6156">
		<stop  offset="0" style="stop-color:#29265B"/>
		<stop  offset="1" style="stop-color:#E8501D"/>
	</linearGradient>
	
	<g>
		<path class="st1" d="M133.9,50.66c0,1.51-0.19,2.87-0.56,4.08c-0.37,1.21-0.92,2.24-1.66,3.1c-0.74,0.85-1.65,1.51-2.75,1.96
			c-1.1,0.46-2.38,0.69-3.84,0.69c-0.67,0-1.32-0.04-1.96-0.12c-0.64-0.08-1.32-0.21-2.02-0.38c0.04-0.49,0.08-0.99,0.13-1.48
			c0.05-0.49,0.09-0.99,0.13-1.48c0.04-0.27,0.15-0.49,0.32-0.66c0.18-0.17,0.44-0.25,0.77-0.25c0.21,0,0.48,0.04,0.82,0.13
			c0.34,0.09,0.77,0.13,1.29,0.13c0.7,0,1.33-0.1,1.87-0.31c0.54-0.2,1-0.53,1.36-0.97c0.36-0.45,0.64-1.02,0.83-1.73
			c0.19-0.71,0.28-1.57,0.28-2.59V33.39h4.99V50.66z"/>
		<path class="st1" d="M137.77,43.82c2.19-2,4.82-3,7.89-3c1.11,0,2.11,0.18,2.98,0.55c0.88,0.36,1.62,0.87,2.22,1.52
			c0.61,0.65,1.07,1.42,1.38,2.33c0.31,0.9,0.47,1.89,0.47,2.97v12.01h-2.08c-0.43,0-0.77-0.07-1-0.19
			c-0.23-0.13-0.42-0.39-0.56-0.79l-0.41-1.37c-0.48,0.43-0.95,0.81-1.41,1.14c-0.46,0.33-0.93,0.6-1.43,0.82
			c-0.49,0.22-1.02,0.39-1.58,0.51c-0.56,0.12-1.18,0.18-1.86,0.18c-0.8,0-1.54-0.11-2.22-0.32c-0.68-0.22-1.27-0.54-1.76-0.97
			c-0.49-0.43-0.88-0.97-1.15-1.61c-0.27-0.64-0.41-1.39-0.41-2.24c0-0.48,0.08-0.96,0.24-1.44s0.42-0.93,0.79-1.36
			c0.36-0.43,0.84-0.84,1.42-1.22c0.58-0.38,1.29-0.72,2.14-1c0.85-0.28,1.83-0.52,2.96-0.7c1.12-0.18,2.41-0.29,3.86-0.32v-1.11
			c0-1.27-0.27-2.21-0.82-2.83c-0.54-0.61-1.33-0.92-2.35-0.92c-0.74,0-1.36,0.09-1.84,0.26c-0.49,0.17-0.92,0.37-1.29,0.58
			c-0.37,0.22-0.71,0.41-1.01,0.58c-0.3,0.17-0.64,0.26-1.01,0.26c-0.32,0-0.59-0.08-0.82-0.25c-0.22-0.17-0.4-0.36-0.54-0.58
			L137.77,43.82z M148.26,52.07c-1.32,0.06-2.43,0.18-3.34,0.34c-0.9,0.17-1.62,0.38-2.17,0.64c-0.54,0.26-0.93,0.56-1.17,0.91
			c-0.23,0.35-0.35,0.72-0.35,1.13c0,0.8,0.24,1.38,0.71,1.72s1.1,0.52,1.86,0.52c0.94,0,1.75-0.17,2.44-0.51
			c0.69-0.34,1.36-0.86,2.01-1.55V52.07z"/>
		<path class="st1" d="M161.61,32.65v15.77h0.85c0.31,0,0.55-0.04,0.73-0.12c0.18-0.08,0.36-0.24,0.55-0.49l4.73-5.84
			c0.2-0.26,0.42-0.46,0.66-0.59c0.24-0.14,0.55-0.2,0.94-0.2h4.19l-5.91,7.06c-0.42,0.56-0.88,0.98-1.37,1.28
			c0.26,0.19,0.49,0.4,0.7,0.65c0.2,0.25,0.4,0.51,0.58,0.8l6.34,9.23h-4.13c-0.36,0-0.67-0.06-0.93-0.18
			c-0.26-0.12-0.48-0.33-0.65-0.64l-4.86-7.21c-0.17-0.28-0.35-0.47-0.54-0.56c-0.19-0.09-0.46-0.13-0.83-0.13h-1.04v8.71h-4.58
			V32.65H161.61z"/>
		<path class="st1" d="M199.51,43.06c0,0.32-0.06,0.64-0.17,0.95c-0.11,0.31-0.26,0.56-0.44,0.76l-9.03,11.9h9.36v3.52h-14.68v-1.91
			c0-0.21,0.05-0.46,0.15-0.75c0.1-0.29,0.25-0.57,0.45-0.82l9.12-12.03h-9.17v-3.5h14.42V43.06z"/>
		<path class="st1" d="M202.43,43.82c2.19-2,4.82-3,7.89-3c1.11,0,2.11,0.18,2.98,0.55c0.88,0.36,1.62,0.87,2.22,1.52
			c0.61,0.65,1.07,1.42,1.38,2.33c0.31,0.9,0.47,1.89,0.47,2.97v12.01h-2.08c-0.43,0-0.77-0.07-1-0.19
			c-0.23-0.13-0.42-0.39-0.56-0.79l-0.41-1.37c-0.48,0.43-0.95,0.81-1.41,1.14c-0.46,0.33-0.93,0.6-1.43,0.82
			c-0.49,0.22-1.02,0.39-1.58,0.51c-0.56,0.12-1.18,0.18-1.86,0.18c-0.8,0-1.54-0.11-2.22-0.32c-0.68-0.22-1.27-0.54-1.76-0.97
			c-0.49-0.43-0.88-0.97-1.15-1.61c-0.27-0.64-0.41-1.39-0.41-2.24c0-0.48,0.08-0.96,0.24-1.44s0.42-0.93,0.79-1.36
			c0.36-0.43,0.84-0.84,1.42-1.22c0.58-0.38,1.29-0.72,2.14-1c0.85-0.28,1.83-0.52,2.96-0.7c1.12-0.18,2.41-0.29,3.85-0.32v-1.11
			c0-1.27-0.27-2.21-0.82-2.83c-0.54-0.61-1.33-0.92-2.35-0.92c-0.74,0-1.36,0.09-1.84,0.26c-0.49,0.17-0.92,0.37-1.29,0.58
			c-0.37,0.22-0.71,0.41-1.01,0.58c-0.3,0.17-0.64,0.26-1.01,0.26c-0.32,0-0.59-0.08-0.82-0.25c-0.22-0.17-0.4-0.36-0.54-0.58
			L202.43,43.82z M212.92,52.07c-1.32,0.06-2.43,0.18-3.34,0.34c-0.9,0.17-1.62,0.38-2.17,0.64c-0.54,0.26-0.93,0.56-1.17,0.91
			c-0.23,0.35-0.35,0.72-0.35,1.13c0,0.8,0.24,1.38,0.71,1.72c0.47,0.35,1.1,0.52,1.86,0.52c0.94,0,1.75-0.17,2.44-0.51
			c0.69-0.34,1.36-0.86,2.01-1.55V52.07z"/>
		<path class="st1" d="M235.31,45.2c-0.14,0.17-0.27,0.31-0.4,0.41c-0.13,0.1-0.32,0.15-0.57,0.15c-0.23,0-0.46-0.07-0.69-0.21
			c-0.22-0.14-0.49-0.3-0.8-0.48c-0.31-0.18-0.68-0.34-1.1-0.48c-0.43-0.14-0.95-0.21-1.58-0.21c-0.8,0-1.51,0.15-2.11,0.44
			c-0.61,0.29-1.11,0.71-1.51,1.25c-0.4,0.54-0.7,1.2-0.9,1.97c-0.2,0.77-0.3,1.65-0.3,2.62c0,1.01,0.11,1.91,0.32,2.71
			c0.22,0.79,0.53,1.46,0.94,1.99c0.41,0.54,0.9,0.95,1.48,1.22c0.58,0.28,1.24,0.42,1.96,0.42s1.32-0.09,1.77-0.27
			c0.45-0.18,0.83-0.38,1.14-0.59c0.31-0.22,0.58-0.41,0.81-0.59c0.23-0.18,0.49-0.27,0.77-0.27c0.37,0,0.65,0.14,0.83,0.43
			l1.32,1.67c-0.51,0.59-1.06,1.09-1.65,1.49c-0.59,0.4-1.21,0.72-1.84,0.96c-0.64,0.24-1.29,0.41-1.96,0.51
			c-0.67,0.1-1.34,0.15-2.01,0.15c-1.17,0-2.28-0.22-3.32-0.66c-1.04-0.44-1.95-1.08-2.72-1.92c-0.78-0.84-1.39-1.87-1.84-3.09
			c-0.45-1.22-0.68-2.6-0.68-4.16c0-1.4,0.2-2.69,0.6-3.88c0.4-1.19,0.99-2.22,1.77-3.1c0.78-0.87,1.74-1.55,2.89-2.05
			c1.15-0.49,2.47-0.74,3.97-0.74c1.42,0,2.67,0.23,3.73,0.69c1.07,0.46,2.03,1.11,2.88,1.96L235.31,45.2z"/>
		<path class="st1" d="M253.22,43.06c0,0.32-0.06,0.64-0.17,0.95c-0.11,0.31-0.26,0.56-0.44,0.76l-9.03,11.9h9.36v3.52h-14.68v-1.91
			c0-0.21,0.05-0.46,0.15-0.75c0.1-0.29,0.25-0.57,0.44-0.82l9.12-12.03h-9.17v-3.5h14.42V43.06z"/>
		<path class="st1" d="M272.97,65.64c-0.41,0.27-0.92,0.5-1.53,0.68c-0.61,0.18-1.26,0.27-1.94,0.27c-1.21,0-2.14-0.25-2.8-0.76
			c-0.66-0.51-0.98-1.16-0.98-1.96c0-0.69,0.23-1.36,0.7-1.99c0.47-0.64,1.14-1.21,2-1.73c-0.25-0.05-0.45-0.14-0.59-0.29
			c-0.15-0.14-0.27-0.35-0.37-0.64l-0.41-1.37c-0.48,0.43-0.95,0.81-1.41,1.14c-0.46,0.33-0.93,0.6-1.43,0.82
			c-0.49,0.22-1.02,0.39-1.58,0.51c-0.56,0.12-1.18,0.18-1.86,0.18c-0.8,0-1.54-0.11-2.22-0.32c-0.68-0.22-1.27-0.54-1.76-0.97
			c-0.49-0.43-0.88-0.97-1.15-1.61c-0.27-0.64-0.41-1.39-0.41-2.24c0-0.48,0.08-0.96,0.24-1.44s0.42-0.93,0.79-1.36
			c0.36-0.43,0.84-0.84,1.42-1.22c0.58-0.38,1.29-0.72,2.14-1c0.85-0.28,1.83-0.52,2.96-0.7c1.12-0.18,2.41-0.29,3.85-0.32v-1.11
			c0-1.27-0.27-2.21-0.82-2.83c-0.54-0.61-1.33-0.92-2.35-0.92c-0.74,0-1.36,0.09-1.84,0.26c-0.49,0.17-0.92,0.37-1.29,0.58
			c-0.37,0.22-0.71,0.41-1.01,0.58c-0.3,0.17-0.64,0.26-1.01,0.26c-0.32,0-0.59-0.08-0.82-0.25c-0.22-0.17-0.4-0.36-0.54-0.58
			l-0.82-1.46c2.19-2,4.82-3,7.89-3c1.11,0,2.11,0.18,2.98,0.55c0.88,0.36,1.62,0.87,2.22,1.52c0.61,0.65,1.07,1.42,1.38,2.33
			c0.31,0.9,0.47,1.89,0.47,2.97v12.01c-0.25,0.14-0.49,0.29-0.72,0.46c-0.24,0.17-0.45,0.37-0.63,0.58
			c-0.19,0.22-0.33,0.45-0.44,0.7c-0.11,0.25-0.17,0.51-0.17,0.78c0,0.37,0.12,0.66,0.35,0.88c0.23,0.22,0.56,0.32,0.98,0.32
			c0.23,0,0.43-0.01,0.57-0.04s0.27-0.06,0.36-0.09c0.09-0.04,0.17-0.07,0.24-0.09c0.07-0.02,0.13-0.04,0.19-0.04
			c0.22,0,0.36,0.1,0.43,0.3L272.97,65.64z M266.63,52.07c-1.32,0.06-2.43,0.18-3.34,0.34c-0.9,0.17-1.62,0.38-2.17,0.64
			c-0.54,0.26-0.93,0.56-1.17,0.91c-0.23,0.35-0.35,0.72-0.35,1.13c0,0.8,0.24,1.38,0.71,1.72c0.47,0.35,1.1,0.52,1.86,0.52
			c0.94,0,1.75-0.17,2.44-0.51c0.69-0.34,1.36-0.86,2.01-1.55V52.07z"/>
		<path class="st1" d="M289.02,45.2c-0.14,0.17-0.27,0.31-0.4,0.41c-0.13,0.1-0.32,0.15-0.57,0.15c-0.23,0-0.46-0.07-0.69-0.21
			c-0.22-0.14-0.49-0.3-0.8-0.48c-0.31-0.18-0.68-0.34-1.1-0.48c-0.43-0.14-0.95-0.21-1.58-0.21c-0.8,0-1.51,0.15-2.11,0.44
			c-0.61,0.29-1.11,0.71-1.51,1.25c-0.4,0.54-0.7,1.2-0.9,1.97c-0.2,0.77-0.3,1.65-0.3,2.62c0,1.01,0.11,1.91,0.32,2.71
			c0.22,0.79,0.53,1.46,0.94,1.99c0.41,0.54,0.9,0.95,1.48,1.22c0.58,0.28,1.24,0.42,1.96,0.42s1.32-0.09,1.77-0.27
			c0.45-0.18,0.83-0.38,1.14-0.59c0.31-0.22,0.58-0.41,0.81-0.59c0.23-0.18,0.49-0.27,0.77-0.27c0.37,0,0.65,0.14,0.83,0.43
			l1.32,1.67c-0.51,0.59-1.06,1.09-1.65,1.49c-0.59,0.4-1.21,0.72-1.84,0.96c-0.64,0.24-1.29,0.41-1.96,0.51
			c-0.67,0.1-1.34,0.15-2.01,0.15c-1.17,0-2.28-0.22-3.32-0.66c-1.04-0.44-1.95-1.08-2.72-1.92c-0.78-0.84-1.39-1.87-1.84-3.09
			c-0.45-1.22-0.68-2.6-0.68-4.16c0-1.4,0.2-2.69,0.6-3.88c0.4-1.19,0.99-2.22,1.77-3.1c0.78-0.87,1.74-1.55,2.89-2.05
			c1.15-0.49,2.47-0.74,3.97-0.74c1.42,0,2.67,0.23,3.73,0.69c1.07,0.46,2.03,1.11,2.88,1.96L289.02,45.2z M289.91,33.09l-4.58,4.84
			c-0.24,0.25-0.46,0.42-0.68,0.51c-0.22,0.09-0.5,0.14-0.84,0.14h-2.74l2.63-4.5c0.19-0.32,0.4-0.57,0.65-0.73
			c0.25-0.17,0.62-0.25,1.11-0.25H289.91z"/>
		<path class="st1" d="M291.82,35.82c0.42-0.37,0.88-0.72,1.38-1.06c0.5-0.33,1.04-0.62,1.62-0.87c0.58-0.25,1.21-0.44,1.89-0.58
			c0.68-0.14,1.41-0.21,2.21-0.21c1.08,0,2.05,0.15,2.94,0.44c0.88,0.3,1.64,0.72,2.27,1.27s1.12,1.21,1.46,1.99
			c0.35,0.78,0.52,1.65,0.52,2.61c0,0.94-0.14,1.75-0.41,2.44c-0.27,0.69-0.61,1.28-1.02,1.79c-0.41,0.51-0.86,0.95-1.34,1.32
			c-0.49,0.37-0.95,0.72-1.38,1.05c-0.43,0.33-0.81,0.65-1.12,0.96c-0.31,0.31-0.5,0.67-0.57,1.07l-0.43,2.71h-3.13l-0.31-3.02
			c-0.07-0.58,0.01-1.09,0.25-1.53c0.24-0.44,0.56-0.84,0.96-1.2c0.4-0.36,0.85-0.72,1.34-1.06c0.49-0.34,0.96-0.71,1.39-1.11
			c0.43-0.4,0.79-0.85,1.08-1.35c0.29-0.5,0.44-1.1,0.44-1.79c0-0.44-0.08-0.84-0.25-1.2c-0.17-0.35-0.4-0.65-0.7-0.91
			c-0.3-0.25-0.65-0.45-1.07-0.58c-0.41-0.14-0.86-0.2-1.34-0.2c-0.7,0-1.3,0.08-1.79,0.23c-0.49,0.15-0.9,0.33-1.24,0.52
			c-0.34,0.19-0.63,0.36-0.86,0.52s-0.44,0.23-0.63,0.23c-0.45,0-0.77-0.19-0.96-0.56L291.82,35.82z M295.32,57.67
			c0-0.38,0.07-0.75,0.21-1.09s0.34-0.64,0.58-0.89c0.25-0.25,0.54-0.44,0.89-0.59c0.35-0.15,0.72-0.22,1.11-0.22
			c0.4,0,0.76,0.07,1.1,0.22c0.34,0.15,0.64,0.35,0.89,0.59c0.25,0.25,0.45,0.54,0.6,0.89c0.15,0.35,0.22,0.71,0.22,1.09
			c0,0.4-0.07,0.76-0.22,1.1c-0.15,0.34-0.35,0.63-0.6,0.88c-0.25,0.25-0.55,0.44-0.89,0.58c-0.34,0.14-0.71,0.21-1.1,0.21
			c-0.4,0-0.77-0.07-1.11-0.21c-0.35-0.14-0.64-0.34-0.89-0.58c-0.25-0.25-0.44-0.54-0.58-0.88
			C295.39,58.43,295.32,58.06,295.32,57.67z"/>
	</g>
	<g class="st2">
		<g>
			<path class="st1" d="M40.97,21.12c0.97-0.82,2.03-1.58,3.18-2.29c1.15-0.71,2.38-1.34,3.7-1.88c1.32-0.54,2.73-0.96,4.25-1.27
				c1.51-0.3,3.16-0.45,4.92-0.45c2.48,0,4.71,0.33,6.7,0.99c1.99,0.66,3.68,1.6,5.08,2.83c1.4,1.22,2.47,2.7,3.22,4.43
				c0.75,1.73,1.13,3.64,1.13,5.75c0,2-0.28,3.73-0.83,5.2c-0.55,1.46-1.25,2.73-2.09,3.81c-0.84,1.08-1.77,2.02-2.79,2.81
				s-1.98,1.52-2.89,2.19c-0.91,0.67-1.7,1.34-2.37,2c-0.67,0.66-1.1,1.4-1.28,2.21l-1.11,5.53h-8.38l-0.87-6.36
				c-0.21-1.29-0.08-2.42,0.4-3.38c0.47-0.96,1.13-1.83,1.96-2.61c0.83-0.78,1.76-1.51,2.79-2.21c1.03-0.7,1.99-1.45,2.89-2.25
				c0.9-0.8,1.65-1.7,2.27-2.69c0.62-0.99,0.93-2.17,0.93-3.54c0-1.58-0.52-2.84-1.56-3.77c-1.04-0.93-2.47-1.4-4.29-1.4
				c-1.4,0-2.56,0.15-3.5,0.43c-0.94,0.29-1.74,0.61-2.41,0.97c-0.67,0.36-1.26,0.68-1.76,0.97s-1,0.43-1.5,0.43
				c-1.13,0-1.98-0.49-2.53-1.46L40.97,21.12z M48.24,67.24c0-0.95,0.18-1.83,0.53-2.65c0.36-0.82,0.84-1.53,1.46-2.13
				c0.62-0.61,1.35-1.09,2.19-1.44c0.84-0.36,1.76-0.53,2.77-0.53c0.97,0,1.88,0.18,2.73,0.53c0.84,0.36,1.58,0.84,2.21,1.44
				c0.63,0.61,1.13,1.32,1.48,2.13c0.36,0.82,0.53,1.7,0.53,2.65c0,0.95-0.18,1.84-0.53,2.67c-0.36,0.83-0.85,1.55-1.48,2.15
				c-0.63,0.61-1.37,1.08-2.21,1.42C57.08,73.82,56.17,74,55.2,74c-1,0-1.92-0.17-2.77-0.51c-0.84-0.34-1.57-0.82-2.19-1.42
				c-0.62-0.61-1.11-1.32-1.46-2.15C48.42,69.08,48.24,68.19,48.24,67.24z"/>
		</g>
		<g>
			<path class="st1" d="M33.74,55.97c0,0.95-0.18,1.83-0.53,2.65c-0.36,0.82-0.84,1.53-1.46,2.13c-0.62,0.61-1.35,1.09-2.19,1.44
				c-0.84,0.36-1.77,0.53-2.77,0.53c-0.98,0-1.88-0.18-2.73-0.53c-0.84-0.36-1.58-0.84-2.21-1.44c-0.63-0.61-1.13-1.32-1.48-2.13
				c-0.36-0.82-0.53-1.7-0.53-2.65c0-0.95,0.18-1.84,0.53-2.67c0.36-0.83,0.85-1.55,1.48-2.15c0.63-0.61,1.37-1.08,2.21-1.42
				c0.84-0.34,1.75-0.51,2.73-0.51c1,0,1.92,0.17,2.77,0.51c0.84,0.34,1.57,0.82,2.19,1.42c0.62,0.61,1.11,1.32,1.46,2.15
				C33.56,54.14,33.74,55.03,33.74,55.97z"/>
		</g>
		<g>
			<path class="st1" d="M39.9,78c0,0.7-0.13,1.36-0.4,1.97c-0.26,0.61-0.63,1.13-1.09,1.58c-0.46,0.45-1,0.81-1.63,1.07
				c-0.63,0.26-1.31,0.4-2.05,0.4c-0.72,0-1.4-0.13-2.02-0.4c-0.63-0.26-1.17-0.62-1.64-1.07c-0.47-0.45-0.84-0.98-1.1-1.58
				c-0.26-0.61-0.4-1.26-0.4-1.97c0-0.7,0.13-1.36,0.4-1.98c0.26-0.62,0.63-1.15,1.1-1.6c0.47-0.45,1.02-0.8,1.64-1.06
				c0.63-0.25,1.3-0.38,2.02-0.38c0.74,0,1.43,0.13,2.05,0.38c0.63,0.25,1.17,0.61,1.63,1.06c0.46,0.45,0.82,0.98,1.09,1.6
				C39.77,76.63,39.9,77.29,39.9,78z"/>
		</g>
	</g>
	<g class="st2">
		<g>
			<path class="st1" d="M382.84,78.74c-0.97,0.82-2.03,1.58-3.18,2.29c-1.15,0.71-2.38,1.34-3.7,1.88
				c-1.32,0.54-2.73,0.96-4.25,1.27c-1.51,0.3-3.16,0.45-4.92,0.45c-2.48,0-4.71-0.33-6.7-0.99c-1.99-0.66-3.68-1.6-5.08-2.83
				c-1.4-1.22-2.47-2.7-3.22-4.43c-0.75-1.73-1.13-3.64-1.13-5.75c0-2,0.28-3.73,0.83-5.2c0.55-1.46,1.25-2.73,2.09-3.81
				c0.84-1.08,1.77-2.02,2.79-2.81c1.01-0.79,1.98-1.52,2.89-2.19c0.91-0.67,1.7-1.34,2.37-2c0.67-0.66,1.1-1.4,1.28-2.21l1.11-5.53
				h8.38l0.87,6.36c0.21,1.29,0.08,2.42-0.4,3.38c-0.47,0.96-1.13,1.83-1.96,2.61c-0.83,0.78-1.76,1.51-2.79,2.21
				c-1.03,0.7-1.99,1.45-2.89,2.25c-0.9,0.8-1.65,1.7-2.27,2.69c-0.62,0.99-0.93,2.17-0.93,3.54c0,1.58,0.52,2.84,1.56,3.77
				c1.04,0.93,2.47,1.4,4.29,1.4c1.4,0,2.56-0.15,3.5-0.43c0.94-0.29,1.74-0.61,2.41-0.97c0.67-0.36,1.26-0.68,1.76-0.97
				c0.5-0.29,1-0.43,1.5-0.43c1.13,0,1.98,0.49,2.53,1.46L382.84,78.74z M375.57,32.62c0,0.95-0.18,1.83-0.53,2.65
				c-0.36,0.82-0.84,1.53-1.46,2.13c-0.62,0.61-1.35,1.09-2.19,1.44c-0.84,0.36-1.76,0.53-2.77,0.53c-0.97,0-1.88-0.18-2.73-0.53
				c-0.84-0.36-1.58-0.84-2.21-1.44c-0.63-0.61-1.13-1.32-1.48-2.13c-0.36-0.82-0.53-1.7-0.53-2.65c0-0.95,0.18-1.84,0.53-2.67
				c0.36-0.83,0.85-1.55,1.48-2.15c0.63-0.61,1.37-1.08,2.21-1.42s1.75-0.51,2.73-0.51c1,0,1.92,0.17,2.77,0.51
				c0.84,0.34,1.57,0.82,2.19,1.42c0.62,0.61,1.11,1.32,1.46,2.15C375.39,30.78,375.57,31.67,375.57,32.62z"/>
		</g>
		<g>
			<path class="st1" d="M390.07,43.89c0-0.95,0.18-1.83,0.53-2.65c0.36-0.82,0.84-1.53,1.46-2.13c0.62-0.61,1.35-1.09,2.19-1.44
				c0.84-0.36,1.77-0.53,2.77-0.53c0.98,0,1.88,0.18,2.73,0.53c0.84,0.36,1.58,0.84,2.21,1.44c0.63,0.61,1.13,1.32,1.48,2.13
				c0.36,0.82,0.53,1.7,0.53,2.65c0,0.95-0.18,1.84-0.53,2.67c-0.36,0.83-0.85,1.55-1.48,2.15c-0.63,0.61-1.37,1.08-2.21,1.42
				c-0.84,0.34-1.75,0.51-2.73,0.51c-1,0-1.92-0.17-2.77-0.51c-0.84-0.34-1.57-0.82-2.19-1.42c-0.62-0.61-1.11-1.32-1.46-2.15
				C390.25,45.72,390.07,44.84,390.07,43.89z"/>
		</g>
		<g>
			<path class="st1" d="M383.91,21.86c0-0.7,0.13-1.36,0.4-1.97c0.26-0.61,0.63-1.13,1.09-1.58c0.46-0.45,1-0.81,1.63-1.07
				c0.63-0.26,1.31-0.4,2.05-0.4c0.72,0,1.4,0.13,2.02,0.4c0.63,0.26,1.17,0.62,1.64,1.07c0.47,0.45,0.84,0.98,1.1,1.58
				c0.26,0.61,0.4,1.26,0.4,1.97c0,0.7-0.13,1.36-0.4,1.98c-0.26,0.62-0.63,1.15-1.1,1.6c-0.47,0.45-1.02,0.8-1.64,1.06
				c-0.63,0.25-1.3,0.38-2.02,0.38c-0.74,0-1.43-0.13-2.05-0.38s-1.17-0.61-1.63-1.06c-0.46-0.45-0.82-0.98-1.09-1.6
				C384.04,23.23,383.91,22.57,383.91,21.86z"/>
		</g>
	</g>
</g>
</svg>
