<?xml version="1.0" encoding="utf-8"?>
<!-- Generator: Adobe Illustrator 25.4.1, SVG Export Plug-In . SVG Version: 6.00 Build 0)  -->
<svg version="1.1" id="Warstwa_1" xmlns="http://www.w3.org/2000/svg" xmlns:xlink="http://www.w3.org/1999/xlink" x="0px" y="0px"
	 viewBox="0 0 300 300" style="enable-background:new 0 0 300 300;" xml:space="preserve">
<style type="text/css">
	.st0{fill:#CBBBA0;}
	.st1{opacity:0.9;}
	.st2{fill:url(#SVGID_1_);}
	.st3{opacity:0.9;fill:url(#SVGID_00000183929269707597390230000007804314130413840020_);}
	.st4{fill:#FFFFFF;}
	.st5{fill:url(#SVGID_00000121277134305133981350000005685413051364237971_);}
	.st6{opacity:0.9;fill:url(#SVGID_00000054242286178735100990000014016970950068171150_);}
	.st7{opacity:0.9;fill:url(#SVGID_00000084490964835385311280000013965588189344110494_);}
</style>
<path class="st0" d="M140.9,277L23,159.1c-5-5-5-13.2,0-18.2L140.9,23c5-5,13.2-5,18.2,0L277,140.9c5,5,5,13.2,0,18.2L159.1,277
	C154.1,282,145.9,282,140.9,277z"/>
<linearGradient id="SVGID_1_" gradientUnits="userSpaceOnUse" x1="19.2069" y1="150" x2="280.7931" y2="150">
	<stop  offset="0" style="stop-color:#29265B"/>
	<stop  offset="1" style="stop-color:#E74F1C"/>
</linearGradient>
<path style="opacity:0.9;fill:url(#SVGID_1_);" d="M140.9,277L23,159.1c-5-5-5-13.2,0-18.2L140.9,23c5-5,13.2-5,18.2,0L277,140.9
	c5,5,5,13.2,0,18.2L159.1,277C154.1,282,145.9,282,140.9,277z"/>
<path class="st4" d="M101.3,208.7c-5.1,0-9.4-4-9.8-9l-2.3-28.3c-0.2-3,0.8-5.9,2.8-8.1c2.1-2.2,4.8-3.4,7.9-3.4h8.8l0.9-18.3
	l-0.5-0.3c-1.9-1.3-3.2-3.3-3.8-5.5c-2-7.7-2-15.5,0-23.2c0.9-3.6,3.7-6.3,7.3-7.1l0.9-0.2v-12c0-3.4,2.8-6.2,6.2-6.2h11.5
	c3.4,0,6.2,2.8,6.2,6.2v11.9h25.3V93.2c0-3.4,2.8-6.2,6.2-6.2h11.5c3.4,0,6.2,2.8,6.2,6.2v12l0.9,0.2c3.6,0.8,6.4,3.6,7.3,7.2
	c1.9,7.6,1.9,15.4,0,23c-0.6,2.3-1.9,4.2-3.8,5.6l-0.5,0.3l0.9,18.3h8.8c3,0,5.8,1.2,7.9,3.4c2.1,2.2,3,5.1,2.8,8.1l-2.3,28.3
	c-0.4,5.1-4.7,9-9.8,9H101.3z M198.7,203.6c2.4,0,4.5-1.9,4.7-4.4l1.3-16.2h-12.3l0.1,1.1c0.1,2.8,0.3,5.1,0.4,7l0,0.5
	c0.4,7.3,0.5,8.5-0.2,10.5l-0.5,1.5L198.7,203.6L198.7,203.6z M183.4,203.6c1.3,0,2.5-0.5,3.4-1.5c0.9-0.9,1.4-2.2,1.3-3.5
	c-0.1-1.3-2.6-52.6-2.7-55.6h-10.1l0,1.1c0.1,7.9-0.8,15.9-1.6,22.9l-0.4,3.6l4.3,33H183.4z M172.5,203.6l-4-30.4h-37l-4,30.4H172.5
	z M111.9,198.6c-0.1,1.3,0.4,2.5,1.3,3.5c0.9,0.9,2.1,1.5,3.4,1.5h5.8l4.3-33l-0.4-3.2c-0.9-7.6-1.8-15.5-1.7-23.4l0-1.1h-10.1
	C114.5,146,112,196.9,111.9,198.6z M96.6,199.2c0.2,2.4,2.3,4.4,4.7,4.4h6.5l-0.5-1.5c-0.7-1.9-0.7-2.7-0.2-10.3l0-0.2
	c0.1-2,0.2-4.5,0.4-7.5l0.1-1.1H95.3L96.6,199.2z M205.1,177.9l0.6-7c0.1-1.6-0.4-3.1-1.5-4.3c-1.1-1.1-2.6-1.8-4.1-1.8h-8.5
	l0.6,13.1H205.1z M107.8,177.9l0.6-13.1h-8.5c-1.6,0-3.1,0.7-4.1,1.8c-1.1,1.1-1.6,2.7-1.5,4.3l0.6,7H107.8z M168.4,168.1l0.2-1.6
	c0.8-7,1.7-14.9,1.6-22.5l0-1.1h-10.4v5.7c0,2.7-2.2,5-5,5h-9.7c-2.7,0-5-2.2-5-5V143h-10.4l0,1.1c-0.1,7.6,0.8,15.5,1.6,22.5
	l0.2,1.6H168.4z M154.7,148.5v-16.2h-9.5v16.2H154.7z M185.2,137.9c2.2,0,4.1-1.5,4.6-3.6c1.7-6.8,1.7-13.7,0-20.5
	c-0.5-2.1-2.4-3.6-4.6-3.6h-70.4c-2.2,0-4.1,1.5-4.6,3.5c-1.7,6.8-1.7,13.8,0,20.6c0.5,2.1,2.4,3.5,4.6,3.5h25.4v-5.7
	c0-2.7,2.2-5,5-5h9.7c2.7,0,5,2.2,5,5v5.7H185.2z M181.4,105.1v-13h-13.7v13H181.4z M132.3,105.1v-13h-13.7v13H132.3z"/>
</svg>
