<?xml version="1.0" encoding="utf-8"?>
<!-- Generator: Adobe Illustrator 25.4.1, SVG Export Plug-In . SVG Version: 6.00 Build 0)  -->
<svg version="1.1" id="Warstwa_1" xmlns="http://www.w3.org/2000/svg" xmlns:xlink="http://www.w3.org/1999/xlink" x="0px" y="0px"
	 viewBox="0 0 300 300" style="enable-background:new 0 0 300 300;" xml:space="preserve">
<style type="text/css">
	.st0{fill:#CBBBA0;}
	.st1{opacity:0.9;}
	.st2{fill:url(#SVGID_1_);}
	.st3{opacity:0.9;fill:url(#SVGID_00000132781446086559932720000002344177351378043019_);}
	.st4{fill:#FFFFFF;}
	.st5{fill:url(#SVGID_00000029030368550731852790000001663119005072145285_);}
	.st6{opacity:0.9;fill:url(#SVGID_00000078043978105363780580000003682226890255449497_);}
	.st7{opacity:0.9;fill:url(#SVGID_00000065045048725629275980000007818841285467370943_);}
</style>
<path class="st0" d="M138,274.2L25.8,162c-6.6-6.6-6.6-17.3,0-23.9L138,25.8c6.6-6.6,17.3-6.6,23.9,0L274.2,138
	c6.6,6.6,6.6,17.3,0,23.9L162,274.2C155.4,280.8,144.6,280.8,138,274.2z"/>
<linearGradient id="SVGID_1_" gradientUnits="userSpaceOnUse" x1="20.8811" y1="150" x2="279.1189" y2="150">
	<stop  offset="0" style="stop-color:#29265B"/>
	<stop  offset="1" style="stop-color:#E74F1C"/>
</linearGradient>
<path style="opacity:0.9;fill:url(#SVGID_1_);" d="M138,274.2L25.8,162c-6.6-6.6-6.6-17.3,0-23.9L138,25.8c6.6-6.6,17.3-6.6,23.9,0
	L274.2,138c6.6,6.6,6.6,17.3,0,23.9L162,274.2C155.4,280.8,144.6,280.8,138,274.2z"/>
<path class="st4" d="M192.4,135.1c-0.8-3.3-5.6-5.9-14.6-7.8c-10.6-2-21.3-3-32.1-2.8c-10.8-0.1-21.5,0.8-32.1,2.8
	c-9.9,2.1-14.8,5-14.8,8.9c-0.1,12.8,4.3,25.3,12.4,35.3c-16.7,2.5-25.2,6.4-25.2,11.5c0,12.7,25.6,22.4,59.6,22.4
	c34,0,59.6-9.6,59.6-22.4c0-3.3-3.3-5.9-9.9-8.1c12.2-4.4,18.5-10.6,18.5-18.5c0.3-5.9-2.1-11.6-6.4-15.6
	C203.2,137.3,197.9,135.3,192.4,135.1L192.4,135.1z M191.4,147.8c3.1,0.1,6,1.3,8.3,3.3c1.4,1.6,1.8,3.9,0.8,5.9
	c-1.2,2.4-4.2,3.9-7.2,5.1c-2.7,1.1-5.5,1.9-8.4,2.6C188,159.5,190.2,153.8,191.4,147.8L191.4,147.8z M103.1,136.2
	c0.1-0.5,2.2-2.8,11.7-4.8c10.2-1.9,20.5-2.8,30.8-2.7c10.3-0.1,20.7,0.8,30.8,2.7c9.5,2,11.7,4.3,11.7,4.8c0,0.1,0,0.1-0.1,0.1l0,0
	c-0.3,0.5-1.5,1.6-5.2,2.9c-5.4-5.9-31.6-6.2-37.3-6.2c-5.7,0-31.9,0.3-37.3,6.2C104.2,137.7,103.2,136.5,103.1,136.2L103.1,136.2z
	 M177.6,140.7c-1.1,0.2-2.2,0.5-3.3,0.7c-0.2,0-0.4,0.1-0.7,0.1c-1,0.2-2.1,0.4-3.2,0.5c-0.5,0.1-1,0.1-1.4,0.2
	c-0.9,0.1-1.8,0.2-2.7,0.3c-0.5,0.1-1.1,0.1-1.7,0.2c-0.9,0.1-1.8,0.2-2.7,0.3c-0.6,0-1.2,0.1-1.8,0.1c-0.9,0.1-1.9,0.1-2.9,0.2
	c-0.6,0-1.2,0.1-1.8,0.1c-1.1,0.1-2.2,0.1-3.2,0.1c-0.5,0-1,0-1.6,0.1c-1.6,0-3.3,0.1-4.9,0.1s-3.3,0-4.9-0.1c-0.5,0-1,0-1.5,0
	c-1.1,0-2.2-0.1-3.3-0.1c-0.6,0-1.2-0.1-1.8-0.1c-1-0.1-1.9-0.1-2.9-0.2c-0.6,0-1.2-0.1-1.8-0.1c-0.9-0.1-1.9-0.2-2.8-0.3
	c-0.6-0.1-1.1-0.1-1.6-0.2c-0.9-0.1-1.9-0.2-2.8-0.3c-0.5-0.1-0.9-0.1-1.4-0.2c-1.2-0.2-2.3-0.3-3.4-0.5c-0.2,0-0.3,0-0.5-0.1
	c-1.2-0.2-2.3-0.4-3.3-0.7c4.5-1.6,15.2-3.5,31.9-3.5C162.4,137.2,173.1,139.1,177.6,140.7L177.6,140.7z M103.5,141.7
	c1.8,0.9,3.6,1.6,5.5,2.1c8.6,2.5,22.3,4,36.8,4c3.6,0,7.2-0.1,10.6-0.3c8.8-0.3,17.6-1.6,26.1-3.7c1.9-0.5,3.8-1.3,5.5-2.1
	c-2.4,23.8-20.5,42.4-42.3,42.4c-10.9-0.1-21.2-4.6-28.7-12.5C109.3,163.4,104.5,152.9,103.5,141.7L103.5,141.7z M161.9,185.1
	c7.3,1,10.5,2.5,11.3,3.2c-1.6,1.4-9.1,3.7-22.8,4.2l-0.2,0c-1.2,0-2.5,0-3.8,0.1c-0.2,0-0.5,0-0.7,0c0,0,0,0,0,0
	c-1.5,0-3,0-4.5-0.1h0c-13.8-0.5-21.3-2.8-22.9-4.2c0.9-0.7,4-2.2,11.4-3.2C140,189.4,151.6,189.4,161.9,185.1L161.9,185.1z
	 M90.4,183c0-1,4.2-5.1,24.4-7.7c2.6,2.5,5.4,4.8,8.5,6.6c-9.5,2.2-9.5,5.3-9.5,6.4c0,0.9,0.3,1.7,0.9,2.4
	C98.7,188.6,90.4,185.1,90.4,183L90.4,183z M145.7,201.1c-21.5,0-38.8-4.2-48-9.5c11.9,3.6,30.5,4.9,43.4,5.1c1.5,0,3.1,0.1,4.6,0.1
	c0.5,0,1.1,0,1.5,0c0.5,0,1.1,0,1.5,0l0.6,0c0.3,0,0.6,0,0.9,0c12.9-0.2,31.5-1.6,43.4-5.1C184.5,196.9,167.3,201.1,145.7,201.1
	L145.7,201.1z M201.1,183c0,2.1-8.3,5.6-24.4,7.7c0.6-0.7,0.9-1.5,0.9-2.4c0-1.1,0-4.2-9.5-6.4c0.8-0.5,1.6-1,2.4-1.6
	c5.8-0.7,11.6-1.8,17.2-3.2C198.6,179.6,201.1,182.3,201.1,183L201.1,183z M187.4,172.9c-0.1,0-0.1,0-0.2,0
	c-3.2,0.8-6.7,1.6-10.4,2.2c1.7-1.7,3.2-3.4,4.6-5.3c4.6-0.9,9-2.2,13.4-3.8c3.8-1.5,7.7-3.4,9.5-7.1c1.8-3.6,1.1-7.8-1.6-10.7
	c-2.9-2.7-6.7-4.3-10.6-4.5c0.2-1.4,0.3-2.8,0.4-4.3c4.4,0.2,8.7,1.8,12.1,4.6c3.4,3.2,5.2,7.8,5,12.5
	C209.6,165.1,197.6,170.2,187.4,172.9L187.4,172.9z"/>
<path class="st4" d="M113.8,152.1c0-1.2-1-2.1-2.1-2.1s-2.1,1-2.1,2.1c0,1.2,1,2.1,2.1,2.1c0.2,0,0.4,0,0.6-0.1
	C113.2,153.9,113.8,153.1,113.8,152.1L113.8,152.1z"/>
<path class="st4" d="M125.4,173.1c0.6,0.4,1.4,0.5,2.1,0.1s1.1-1,1.2-1.8c0-0.8-0.3-1.5-1-1.9c-4.4-2.9-8.2-6.6-11-11.1
	c-0.4-0.7-1.1-1.1-1.9-1.1c-0.8,0-1.5,0.5-1.8,1.1c-0.4,0.7-0.3,1.5,0.1,2.2C116.3,165.6,120.5,169.9,125.4,173.1L125.4,173.1z"/>
<path class="st4" d="M136.6,91c-0.4-0.4-0.9-0.6-1.5-0.6s-1.1,0.2-1.5,0.6c-1.9,2.2-2.9,5-2.8,7.9c-0.1,2.9,0.9,5.7,2.7,7.9
	c1.1,1.4,1.6,3.1,1.5,4.9c0.1,1.8-0.4,3.5-1.5,4.9c-0.8,0.8-0.8,2.2,0,3c0.8,0.8,2.2,0.8,3,0c1.9-2.2,2.9-5,2.8-7.9
	c0.1-2.9-0.9-5.7-2.7-7.9c-1.1-1.4-1.6-3.1-1.5-4.9c-0.1-1.8,0.4-3.5,1.5-4.9c0.4-0.4,0.6-0.9,0.6-1.5C137.2,91.9,137,91.4,136.6,91
	L136.6,91z"/>
<path class="st4" d="M149.4,78.2c-0.4-0.4-0.9-0.6-1.5-0.6s-1.1,0.2-1.5,0.6c-1.9,2.2-2.9,5-2.8,7.9c-0.1,2.9,0.9,5.7,2.7,7.9
	c1.1,1.4,1.6,3.1,1.5,4.9c0.1,1.8-0.4,3.5-1.5,4.9c-0.8,0.8-0.8,2.2,0,3c0.8,0.8,2.2,0.8,3,0c1.9-2.2,2.9-5,2.8-7.9
	c0.1-2.9-0.9-5.7-2.7-7.9c-1.1-1.4-1.6-3.1-1.5-4.9c-0.1-1.8,0.4-3.5,1.5-4.9c0.4-0.4,0.6-0.9,0.6-1.5
	C150,79.2,149.8,78.6,149.4,78.2L149.4,78.2z"/>
<path class="st4" d="M162.1,91c-0.4-0.4-0.9-0.6-1.5-0.6s-1.1,0.2-1.5,0.6c-1.9,2.2-2.9,5-2.8,7.9c-0.1,2.9,0.9,5.7,2.7,7.9
	c1.1,1.4,1.6,3.1,1.5,4.9c0.1,1.8-0.4,3.5-1.5,4.9c-0.8,0.8-0.8,2.2,0,3c0.8,0.8,2.2,0.8,3,0c1.9-2.2,2.9-5,2.8-7.9
	c0.1-2.9-0.9-5.7-2.7-7.9c-1.1-1.4-1.6-3.1-1.5-4.9c-0.1-1.8,0.4-3.5,1.5-4.9c0.4-0.4,0.6-0.9,0.6-1.5
	C162.8,91.9,162.5,91.4,162.1,91L162.1,91z"/>
</svg>
