<?xml version="1.0" encoding="utf-8"?>
<!-- Generator: Adobe Illustrator 25.4.1, SVG Export Plug-In . SVG Version: 6.00 Build 0)  -->
<svg version="1.1" id="Warstwa_1" xmlns="http://www.w3.org/2000/svg" xmlns:xlink="http://www.w3.org/1999/xlink" x="0px" y="0px"
	 viewBox="0 0 300 300" style="enable-background:new 0 0 300 300;" xml:space="preserve">
<style type="text/css">
	.st0{fill:#CBBBA0;}
	.st1{opacity:0.9;}
	.st2{fill:url(#SVGID_1_);}
	.st3{opacity:0.9;fill:url(#SVGID_00000053536510456058839510000010293184736549972357_);}
	.st4{fill:#FFFFFF;}
	.st5{fill:url(#SVGID_00000124142861705864164410000002286997029034209410_);}
	.st6{opacity:0.9;fill:url(#SVGID_00000131335653335268643300000013130363452437081008_);}
	.st7{opacity:0.9;fill:url(#SVGID_00000179607904968565288680000016808628190690302352_);}
</style>
<path class="st0" d="M140.9,277L23,159.1c-5-5-5-13.2,0-18.2L140.9,23c5-5,13.2-5,18.2,0L277,140.9c5,5,5,13.2,0,18.2L159.1,277
	C154.1,282,145.9,282,140.9,277z"/>
<linearGradient id="SVGID_1_" gradientUnits="userSpaceOnUse" x1="19.2069" y1="150" x2="280.7931" y2="150">
	<stop  offset="0" style="stop-color:#29265B"/>
	<stop  offset="1" style="stop-color:#E74F1C"/>
</linearGradient>
<path style="opacity:0.9;fill:url(#SVGID_1_);" d="M140.9,277L23,159.1c-5-5-5-13.2,0-18.2L140.9,23c5-5,13.2-5,18.2,0L277,140.9
	c5,5,5,13.2,0,18.2L159.1,277C154.1,282,145.9,282,140.9,277z"/>
<path class="st4" d="M137.9,94.9c0.4,0.4,0.9,0.6,1.4,0.6s1-0.2,1.4-0.6c0.8-0.8,0.8-2.1,0-2.9l-6.1-6.1c-0.8-0.8-2.1-0.8-2.9,0
	c-0.8,0.8-0.8,2.1,0,2.9L137.9,94.9z"/>
<path class="st4" d="M155.6,95.5c0.5,0,1-0.2,1.4-0.6l6.1-6.1c0.8-0.8,0.8-2.1,0-2.9c-0.8-0.8-2.1-0.8-2.9,0l-6.1,6.1
	c-0.8,0.8-0.8,2.1,0,2.9C154.6,95.3,155.1,95.5,155.6,95.5L155.6,95.5z"/>
<path class="st4" d="M147.5,95.5c1.1,0,2-0.9,2-2v-8.1c0-1.1-0.9-2-2-2c-1.1,0-2,0.9-2,2v8.1C145.5,94.6,146.4,95.5,147.5,95.5
	L147.5,95.5z"/>
<path class="st4" d="M116.7,126l6.4,0.8v19.6c0,1.1,0.9,2,2,2s2-0.9,2-2v-19.1l5.9,0.7c0.1,0,0.2,0,0.3,0c1,0,1.9-0.8,2-1.8
	c0.1-1.1-0.7-2.1-1.8-2.3l-6.4-0.8v-5.3c0-1.1-0.9-2-2-2s-2,0.9-2,2v4.8l-5.9-0.7c-1.1-0.1-2.1,0.7-2.3,1.8
	C114.8,124.9,115.6,125.9,116.7,126L116.7,126z"/>
<path class="st4" d="M146.7,191.1c-0.8-0.8-2.1-0.8-2.9,0l-2.3,2.3l-2.3-2.3c-0.8-0.8-2.1-0.8-2.9,0c-0.8,0.8-0.8,2.1,0,2.9l2.3,2.3
	l-2.3,2.3c-0.8,0.8-0.8,2.1,0,2.9c0.4,0.4,0.9,0.6,1.4,0.6c0.5,0,1-0.2,1.4-0.6l2.3-2.3l2.3,2.3c0.4,0.4,0.9,0.6,1.4,0.6
	c0.5,0,1-0.2,1.4-0.6c0.8-0.8,0.8-2.1,0-2.9l-2.3-2.3l2.3-2.3C147.5,193.1,147.5,191.8,146.7,191.1L146.7,191.1z"/>
<path class="st4" d="M212.6,170.6c-0.1-0.5-0.5-1-1-1.3l-11.2-6.2v-48.7c0-3.8-2.5-7.2-6.1-8.3v-9.5c0-1-0.7-1.8-1.7-2
	c-25-4.6-40.5,6.1-45.1,10c-4.6-3.9-20.1-14.6-45.2-10c-1,0.2-1.7,1-1.7,2v9.5c-3.6,1.1-6.1,4.4-6.1,8.3v55.9c0,4.8,3.9,8.7,8.7,8.7
	h44.3c2.3,4.7,7.3,10.9,17.4,14.2c0.2,0.1,0.4,0.1,0.6,0.1c0,0,2.7,0.1,6,2.1l-1.6,2.5c-0.6,0.9-0.4,2.1,0.5,2.8l14.5,10.5
	c0.4,0.3,0.8,0.4,1.2,0.4c0.1,0,0.3,0,0.4,0c0.5-0.1,1-0.4,1.3-0.9l24.4-38.4C212.6,171.7,212.7,171.1,212.6,170.6L212.6,170.6z
	 M196.4,114.4v46.5c-0.7-0.3-1.5-0.1-2.1,0.4v-50.6C195.5,111.4,196.4,112.8,196.4,114.4L196.4,114.4z M190.2,98.3v59.5
	c-0.7-1.7-1-3.5-1-5.4c0-3.1-0.5-6.2-1.5-9.1l-4.8-14.4c-1.4-4.2-5.8-6.8-10.1-5.9c-2.5,0.5-4.7,2-5.9,4.2c-1.3,2.2-1.5,4.8-0.7,7.3
	l5.3,15.9l-0.6,0.7c-2.9,3.6-3.9,8.1-3.7,12.4c-6.6,1.6-12.5,3.9-17.6,6.9v-62.3C152.5,105.6,166.6,94.6,190.2,98.3L190.2,98.3z
	 M104.7,98.3c23.5-3.7,37.7,7.3,40.7,9.9v62.3c-13-8-28.5-9.2-36.9-9.2c-1.5,0-2.8,0-3.8,0.1V98.3z M98.6,170.3v-55.9
	c0-1.6,0.8-3,2-3.8v53c0,0.6,0.2,1.1,0.7,1.5c0.4,0.4,1,0.6,1.6,0.5c0.2,0,24.4-2.3,41.9,9.3h-41.6
	C100.7,174.9,98.6,172.8,98.6,170.3L98.6,170.3z M166,189.3c-10.5-3.6-14.4-10.5-15.8-14.4c4.9-3.3,10.8-5.7,17.5-7.3
	c0.5,2.3,1.4,4.5,2.5,6.4c0.4,0.6,1.1,1,1.7,1c0.4,0,0.7-0.1,1.1-0.3c1-0.6,1.3-1.8,0.7-2.8c-3-4.9-3.9-12.9,0.3-18.2l1.3-1.6
	c0.4-0.5,0.6-1.3,0.3-1.9l-5.7-16.9c-0.4-1.3-0.3-2.7,0.4-3.9c0.7-1.2,1.9-2,3.2-2.3c2.4-0.5,4.7,0.9,5.5,3.2l4.8,14.4
	c0.8,2.5,1.3,5.2,1.3,7.8c0,5.2,2.1,10.1,5.8,13.7L173.8,192C170.2,189.8,167,189.3,166,189.3L166,189.3z M185.6,206.6l-11.2-8.1
	l21.9-33.1l11.5,6.4L185.6,206.6z"/>
<path class="st4" d="M183.1,196.4c-1,0-1.9,0.8-1.9,1.9c0,1,0.8,1.9,1.9,1.9c1,0,1.9-0.8,1.9-1.9C185,197.3,184.2,196.4,183.1,196.4
	L183.1,196.4z"/>
<path class="st4" d="M109.8,190.3c-1,0-1.9,0.8-1.9,1.9c0,1,0.8,1.9,1.9,1.9c1,0,1.9-0.8,1.9-1.9
	C111.7,191.2,110.9,190.3,109.8,190.3L109.8,190.3z"/>
</svg>
