<?xml version="1.0" encoding="utf-8"?>
<!-- Generator: Adobe Illustrator 24.0.2, SVG Export Plug-In . SVG Version: 6.00 Build 0)  -->
<svg version="1.1" id="Warstwa_1" xmlns="http://www.w3.org/2000/svg" xmlns:xlink="http://www.w3.org/1999/xlink" x="0px" y="0px"
	 viewBox="0 0 420 100" style="enable-background:new 0 0 420 100;" xml:space="preserve">
<style type="text/css">
	.st0{fill:url(#SVGID_1_);}
	.st1{fill:#FFFFFF;}
	.st2{opacity:0.5;fill:#FFFFFF;}
</style>
<linearGradient id="SVGID_1_" gradientUnits="userSpaceOnUse" x1="-0.4672" y1="51.9461" x2="424.1064" y2="51.9461">
	<stop  offset="0" style="stop-color:#29265B"/>
	<stop  offset="1" style="stop-color:#E8501D"/>
</linearGradient>
<rect x="-0.47" y="-0.38" class="st0" width="424.57" height="104.66"/>
<g>
	<path class="st1" d="M139.35,60.39h-3.89c-0.44,0-0.79-0.11-1.07-0.33c-0.27-0.22-0.48-0.49-0.62-0.81l-2.02-5.51h-11.19
		l-2.02,5.51c-0.1,0.29-0.29,0.55-0.58,0.78c-0.29,0.24-0.64,0.36-1.07,0.36h-3.92l10.63-27.02h5.12L139.35,60.39z M130.48,50.19
		l-3.29-8.99c-0.16-0.4-0.33-0.87-0.5-1.42c-0.17-0.55-0.35-1.14-0.52-1.78c-0.16,0.64-0.33,1.23-0.5,1.78
		c-0.17,0.55-0.34,1.04-0.5,1.45l-3.27,8.95H130.48z"/>
	<path class="st1" d="M146.01,32.62v15.9h0.86c0.31,0,0.56-0.04,0.74-0.12c0.18-0.08,0.36-0.25,0.55-0.5l4.77-5.89
		c0.2-0.26,0.42-0.46,0.66-0.6c0.24-0.14,0.56-0.21,0.94-0.21h4.22l-5.96,7.12c-0.42,0.56-0.88,0.99-1.38,1.29
		c0.26,0.19,0.49,0.4,0.7,0.65c0.21,0.25,0.4,0.52,0.59,0.8l6.39,9.31h-4.17c-0.36,0-0.67-0.06-0.93-0.18
		c-0.26-0.12-0.48-0.33-0.65-0.64l-4.9-7.27c-0.17-0.29-0.36-0.47-0.54-0.56c-0.19-0.09-0.47-0.13-0.84-0.13h-1.05v8.78h-4.62V32.62
		H146.01z"/>
	<path class="st1" d="M167.76,60.69c-1.67,0-2.95-0.47-3.84-1.41c-0.89-0.94-1.34-2.24-1.34-3.9V44.67h-1.96
		c-0.25,0-0.46-0.08-0.64-0.24c-0.17-0.16-0.26-0.4-0.26-0.73v-1.83l3.08-0.5l0.97-5.23c0.06-0.25,0.18-0.44,0.35-0.58
		c0.17-0.14,0.4-0.21,0.67-0.21h2.39v6.04h5.12v3.29h-5.12v10.39c0,0.6,0.15,1.07,0.44,1.4c0.29,0.34,0.69,0.5,1.21,0.5
		c0.29,0,0.53-0.03,0.72-0.1c0.19-0.07,0.36-0.14,0.5-0.21c0.14-0.07,0.27-0.15,0.38-0.21c0.11-0.07,0.22-0.1,0.34-0.1
		c0.14,0,0.25,0.03,0.34,0.1c0.09,0.07,0.18,0.17,0.28,0.31l1.38,2.24c-0.67,0.56-1.45,0.98-2.32,1.27
		C169.6,60.55,168.69,60.69,167.76,60.69z"/>
	<path class="st1" d="M191.79,41.22v19.17h-2.82c-0.61,0-1-0.28-1.16-0.84l-0.32-1.53c-0.78,0.8-1.65,1.44-2.6,1.93
		c-0.95,0.49-2.06,0.74-3.34,0.74c-1.05,0-1.97-0.18-2.78-0.53c-0.8-0.36-1.48-0.86-2.03-1.5c-0.55-0.65-0.96-1.42-1.24-2.31
		c-0.28-0.89-0.42-1.87-0.42-2.94V41.22h4.62V53.4c0,1.17,0.27,2.08,0.81,2.72c0.54,0.64,1.35,0.96,2.44,0.96
		c0.8,0,1.54-0.18,2.24-0.53c0.7-0.35,1.36-0.84,1.98-1.47V41.22H191.79z"/>
	<path class="st1" d="M195.9,43.89c2.21-2.02,4.86-3.03,7.96-3.03c1.12,0,2.12,0.18,3.01,0.55c0.88,0.37,1.63,0.88,2.24,1.53
		c0.61,0.65,1.07,1.44,1.39,2.35c0.32,0.91,0.48,1.91,0.48,2.99v12.11h-2.09c-0.44,0-0.77-0.07-1.01-0.2
		c-0.24-0.13-0.42-0.4-0.56-0.79l-0.41-1.38c-0.48,0.44-0.96,0.82-1.42,1.15c-0.46,0.33-0.94,0.61-1.44,0.83
		c-0.5,0.22-1.03,0.4-1.6,0.51c-0.57,0.12-1.19,0.18-1.88,0.18c-0.81,0-1.56-0.11-2.24-0.33s-1.28-0.54-1.77-0.98
		c-0.5-0.44-0.88-0.98-1.16-1.63c-0.27-0.65-0.41-1.4-0.41-2.26c0-0.49,0.08-0.97,0.24-1.45c0.16-0.48,0.43-0.94,0.79-1.37
		c0.37-0.44,0.84-0.85,1.43-1.23c0.59-0.39,1.3-0.72,2.16-1.01c0.85-0.29,1.85-0.52,2.98-0.7c1.13-0.18,2.43-0.29,3.89-0.33v-1.12
		c0-1.28-0.27-2.23-0.82-2.85c-0.55-0.62-1.34-0.92-2.37-0.92c-0.75,0-1.37,0.09-1.86,0.26c-0.49,0.17-0.93,0.37-1.3,0.59
		s-0.71,0.41-1.02,0.59c-0.31,0.17-0.64,0.26-1.02,0.26c-0.32,0-0.6-0.08-0.82-0.25c-0.22-0.17-0.4-0.36-0.54-0.59L195.9,43.89z
		 M206.48,52.21c-1.33,0.06-2.45,0.18-3.36,0.35c-0.91,0.17-1.64,0.38-2.19,0.64c-0.55,0.26-0.94,0.57-1.18,0.92
		c-0.24,0.35-0.35,0.73-0.35,1.14c0,0.81,0.24,1.39,0.72,1.74c0.48,0.35,1.11,0.52,1.88,0.52c0.95,0,1.77-0.17,2.46-0.51
		c0.69-0.34,1.37-0.86,2.03-1.56V52.21z"/>
	<path class="st1" d="M219.99,32.62v27.77h-4.62V32.62H219.99z"/>
	<path class="st1" d="M228.92,43.57c0.39-0.39,0.79-0.74,1.22-1.07c0.43-0.33,0.88-0.61,1.36-0.84c0.48-0.23,0.99-0.41,1.54-0.54
		c0.55-0.13,1.15-0.2,1.79-0.2c1.05,0,1.97,0.18,2.78,0.53c0.81,0.36,1.49,0.85,2.03,1.5s0.95,1.41,1.23,2.3
		c0.28,0.89,0.42,1.87,0.42,2.94v12.2h-4.62v-12.2c0-1.17-0.27-2.08-0.8-2.72c-0.54-0.64-1.35-0.96-2.45-0.96
		c-0.8,0-1.54,0.18-2.24,0.54c-0.7,0.36-1.36,0.85-1.98,1.48v13.87h-4.62V41.22h2.82c0.6,0,0.99,0.28,1.18,0.84L228.92,43.57z"/>
	<path class="st1" d="M254.17,40.92c1.42,0,2.71,0.23,3.88,0.69c1.16,0.46,2.16,1.12,2.99,1.96c0.83,0.85,1.47,1.88,1.92,3.1
		c0.45,1.22,0.67,2.59,0.67,4.09c0,1.52-0.22,2.89-0.67,4.11c-0.45,1.22-1.09,2.26-1.92,3.12c-0.83,0.86-1.83,1.52-2.99,1.98
		c-1.17,0.46-2.46,0.69-3.88,0.69c-1.43,0-2.74-0.23-3.91-0.69c-1.17-0.46-2.17-1.12-3-1.98c-0.83-0.86-1.47-1.9-1.92-3.12
		c-0.46-1.22-0.68-2.59-0.68-4.11c0-1.51,0.23-2.87,0.68-4.09c0.45-1.22,1.1-2.25,1.92-3.1c0.83-0.85,1.83-1.5,3-1.96
		C251.43,41.15,252.73,40.92,254.17,40.92z M254.17,57.12c1.59,0,2.77-0.54,3.54-1.61c0.77-1.07,1.15-2.64,1.15-4.71
		c0-2.07-0.38-3.64-1.15-4.73c-0.77-1.08-1.95-1.63-3.54-1.63c-1.62,0-2.82,0.55-3.6,1.64c-0.78,1.09-1.17,2.66-1.17,4.72
		s0.39,3.62,1.17,4.7C251.35,56.58,252.55,57.12,254.17,57.12z"/>
	<path class="st1" d="M278.85,44.96c-0.12,0.2-0.26,0.34-0.39,0.42s-0.31,0.12-0.52,0.12c-0.22,0-0.46-0.06-0.72-0.19
		c-0.26-0.12-0.55-0.26-0.89-0.42c-0.34-0.16-0.72-0.3-1.15-0.42c-0.43-0.12-0.94-0.19-1.52-0.19c-0.91,0-1.62,0.19-2.14,0.58
		c-0.52,0.39-0.78,0.89-0.78,1.51c0,0.41,0.13,0.76,0.4,1.04c0.27,0.28,0.62,0.53,1.07,0.74c0.44,0.21,0.94,0.4,1.5,0.57
		c0.56,0.17,1.13,0.35,1.71,0.55c0.58,0.2,1.15,0.43,1.71,0.68c0.56,0.26,1.06,0.58,1.5,0.97c0.44,0.39,0.8,0.86,1.07,1.41
		c0.27,0.55,0.4,1.21,0.4,1.98c0,0.92-0.16,1.77-0.49,2.55c-0.33,0.78-0.82,1.45-1.47,2.02c-0.65,0.57-1.45,1.01-2.4,1.33
		c-0.95,0.32-2.05,0.48-3.3,0.48c-0.66,0-1.31-0.06-1.93-0.18c-0.63-0.12-1.23-0.28-1.81-0.5c-0.58-0.21-1.11-0.46-1.61-0.75
		c-0.49-0.29-0.93-0.6-1.3-0.93l1.07-1.76c0.14-0.21,0.3-0.37,0.49-0.49c0.19-0.11,0.42-0.17,0.71-0.17c0.29,0,0.56,0.08,0.81,0.24
		c0.25,0.16,0.55,0.34,0.89,0.52c0.34,0.19,0.73,0.36,1.19,0.52c0.45,0.16,1.03,0.24,1.73,0.24c0.55,0,1.02-0.07,1.41-0.2
		c0.39-0.13,0.72-0.3,0.97-0.51c0.26-0.21,0.44-0.46,0.56-0.74c0.12-0.28,0.18-0.57,0.18-0.87c0-0.45-0.13-0.82-0.4-1.1
		c-0.27-0.29-0.62-0.54-1.07-0.75c-0.44-0.21-0.95-0.4-1.51-0.57c-0.57-0.17-1.15-0.35-1.74-0.55c-0.59-0.2-1.17-0.43-1.74-0.7
		c-0.57-0.27-1.07-0.61-1.51-1.02c-0.44-0.41-0.8-0.92-1.07-1.51c-0.27-0.6-0.4-1.32-0.4-2.17c0-0.78,0.16-1.53,0.47-2.24
		c0.31-0.71,0.77-1.33,1.37-1.86c0.6-0.53,1.36-0.95,2.26-1.27c0.9-0.32,1.95-0.48,3.13-0.48c1.32,0,2.52,0.22,3.61,0.65
		c1.08,0.44,1.99,1.01,2.71,1.72L278.85,44.96z M279.84,33.07l-4.62,4.88c-0.24,0.25-0.46,0.42-0.68,0.51
		c-0.22,0.09-0.5,0.14-0.85,0.14h-2.77l2.65-4.54c0.19-0.32,0.4-0.57,0.65-0.74c0.25-0.17,0.62-0.25,1.12-0.25H279.84z"/>
	<path class="st1" d="M297.32,45.27c-0.14,0.17-0.27,0.31-0.4,0.41c-0.13,0.1-0.32,0.15-0.57,0.15c-0.24,0-0.47-0.07-0.69-0.21
		c-0.22-0.14-0.49-0.31-0.8-0.49c-0.31-0.18-0.68-0.34-1.11-0.49c-0.43-0.14-0.96-0.21-1.6-0.21c-0.81,0-1.52,0.15-2.13,0.44
		c-0.61,0.29-1.12,0.71-1.52,1.26c-0.41,0.55-0.71,1.21-0.91,1.99c-0.2,0.78-0.3,1.66-0.3,2.64c0,1.02,0.11,1.93,0.33,2.73
		c0.22,0.8,0.53,1.47,0.94,2.01s0.91,0.95,1.49,1.23c0.59,0.28,1.25,0.42,1.98,0.42c0.74,0,1.33-0.09,1.78-0.27
		c0.45-0.18,0.84-0.38,1.15-0.6c0.31-0.22,0.58-0.42,0.81-0.6c0.23-0.18,0.49-0.27,0.78-0.27c0.37,0,0.65,0.14,0.84,0.43l1.33,1.68
		c-0.51,0.6-1.07,1.1-1.66,1.5c-0.6,0.41-1.22,0.73-1.86,0.97c-0.64,0.24-1.3,0.41-1.98,0.51c-0.68,0.1-1.35,0.15-2.03,0.15
		c-1.18,0-2.3-0.22-3.34-0.66c-1.05-0.44-1.96-1.09-2.75-1.93c-0.78-0.85-1.41-1.88-1.86-3.11c-0.46-1.23-0.68-2.63-0.68-4.2
		c0-1.41,0.2-2.71,0.61-3.91c0.41-1.2,1-2.24,1.78-3.12c0.78-0.88,1.76-1.57,2.92-2.06c1.16-0.5,2.49-0.75,4-0.75
		c1.43,0,2.69,0.23,3.77,0.69c1.08,0.46,2.05,1.12,2.91,1.98L297.32,45.27z"/>
	<path class="st1" d="M307.01,35.63c0,0.4-0.08,0.77-0.24,1.12c-0.16,0.35-0.38,0.65-0.64,0.92c-0.27,0.26-0.58,0.47-0.94,0.63
		c-0.36,0.16-0.75,0.23-1.16,0.23c-0.4,0-0.78-0.08-1.13-0.23c-0.35-0.16-0.66-0.36-0.92-0.63c-0.26-0.26-0.47-0.57-0.63-0.92
		c-0.16-0.35-0.23-0.72-0.23-1.12c0-0.41,0.08-0.8,0.23-1.16c0.16-0.36,0.36-0.67,0.63-0.93c0.26-0.26,0.57-0.47,0.92-0.63
		c0.36-0.16,0.73-0.23,1.13-0.23c0.41,0,0.8,0.08,1.16,0.23c0.36,0.16,0.68,0.36,0.94,0.63c0.27,0.26,0.48,0.57,0.64,0.93
		C306.93,34.83,307.01,35.22,307.01,35.63z M306.38,41.22v19.17h-4.63V41.22H306.38z"/>
</g>
<path class="st2" d="M399.39,34.98c0-0.07-0.01-0.14-0.03-0.21c-0.01-0.06-0.02-0.12-0.04-0.17c-0.01-0.02-0.01-0.03-0.01-0.05
	c-0.01-0.03-0.03-0.06-0.04-0.09c-0.01-0.02-0.01-0.04-0.02-0.06c-0.01-0.02-0.02-0.04-0.03-0.05c-0.02-0.05-0.05-0.09-0.07-0.14
	c-0.02-0.03-0.04-0.06-0.06-0.09c-0.05-0.07-0.11-0.14-0.17-0.21c-0.03-0.03-0.06-0.06-0.09-0.09c-0.03-0.03-0.07-0.06-0.1-0.08
	c-0.04-0.03-0.09-0.06-0.13-0.09c-0.03-0.02-0.06-0.04-0.09-0.05c-0.08-0.04-0.16-0.08-0.25-0.11c-0.01,0-0.02,0-0.03-0.01
	c-0.09-0.03-0.18-0.05-0.27-0.06c-0.01,0-0.02,0-0.03,0c-0.04-0.01-0.07-0.01-0.11-0.02l-57.64-4.45c-0.67-0.05-1.31,0.29-1.63,0.88
	c-0.32,0.59-0.27,1.31,0.13,1.85l10.79,14.39l-6.2,16.05c-0.02,0.04-0.03,0.08-0.04,0.13c-0.01,0.04-0.03,0.08-0.04,0.13
	c-0.02,0.1-0.03,0.2-0.04,0.3c0,0.02,0,0.04,0,0.06c0,0.09,0.01,0.18,0.02,0.27c0,0.01,0,0.02,0,0.03c0,0.02,0.01,0.03,0.01,0.05
	c0.02,0.09,0.04,0.17,0.07,0.26c0.01,0.02,0.02,0.05,0.03,0.07c0.04,0.1,0.09,0.2,0.16,0.29c0,0,0,0,0.01,0.01
	c0.06,0.09,0.13,0.16,0.2,0.24c0.02,0.02,0.04,0.04,0.06,0.06c0.03,0.03,0.06,0.06,0.1,0.09c0.04,0.03,0.09,0.06,0.13,0.09
	c0.08,0.05,0.17,0.09,0.25,0.13c0.03,0.01,0.06,0.02,0.08,0.03c0.06,0.02,0.13,0.04,0.19,0.06c0.03,0.01,0.06,0.01,0.1,0.02
	c0.07,0.01,0.14,0.02,0.2,0.02c0.03,0,0.05,0,0.08,0c0.1,0,0.19-0.01,0.29-0.02c0,0,0,0,0,0l0,0c0.01,0,0.02,0,0.03,0l16.28-2.85
	l7.98,10.16c0.12,0.16,0.27,0.29,0.44,0.39c0.27,0.17,0.59,0.26,0.92,0.26c0.53,0,1.03-0.26,1.35-0.68l26.91-35.56
	c0.01-0.01,0.01-0.02,0.02-0.03c0.03-0.04,0.06-0.08,0.08-0.12c0.02-0.04,0.04-0.07,0.06-0.11c0.02-0.04,0.04-0.09,0.06-0.13
	c0.02-0.04,0.03-0.09,0.04-0.13c0.02-0.08,0.04-0.15,0.05-0.23c0.01-0.04,0.01-0.08,0.02-0.12c0-0.05,0.01-0.1,0.01-0.15
	C399.4,35.06,399.39,35.02,399.39,34.98z M343.68,32.65l42.77,3.3l-34.35,7.94L343.68,32.65z M352.67,47.26l28.92-6.69l-24.97,11.4
	c-0.01,0.01-0.02,0.02-0.04,0.02c-0.03,0.02-0.07,0.04-0.1,0.06c-0.06,0.03-0.11,0.06-0.17,0.1l-7.75,5.72L352.67,47.26z
	 M351.72,59.79l5.3-3.9l2.06,2.62L351.72,59.79z M370.76,67.86l-10.74-13.68l32.23-14.72L370.76,67.86z"/>
<path class="st2" d="M20.45,35.1c0,0.05,0,0.1,0.01,0.15c0,0.04,0.01,0.08,0.02,0.12c0.01,0.08,0.03,0.16,0.05,0.23
	c0.01,0.04,0.03,0.09,0.04,0.13c0.02,0.05,0.04,0.09,0.06,0.13c0.02,0.04,0.04,0.07,0.06,0.11c0.03,0.04,0.05,0.08,0.08,0.12
	c0.01,0.01,0.01,0.02,0.02,0.03l26.91,35.56c0.32,0.42,0.82,0.67,1.35,0.68c0.33,0,0.65-0.09,0.92-0.26
	c0.17-0.1,0.31-0.24,0.44-0.39l7.98-10.16l16.28,2.85c0.01,0,0.02,0,0.03,0l0,0c0,0,0,0,0,0c0.1,0.02,0.19,0.02,0.29,0.02
	c0.03,0,0.05,0,0.08,0c0.07,0,0.14-0.01,0.2-0.02c0.03-0.01,0.06-0.01,0.1-0.02c0.06-0.01,0.13-0.03,0.19-0.06
	c0.03-0.01,0.06-0.02,0.08-0.03c0.09-0.04,0.17-0.08,0.25-0.13c0.04-0.03,0.09-0.06,0.13-0.09c0.04-0.03,0.07-0.06,0.1-0.09
	c0.02-0.02,0.04-0.04,0.06-0.06c0.08-0.07,0.14-0.15,0.2-0.24c0,0,0,0,0.01-0.01c0.06-0.09,0.11-0.19,0.16-0.29
	c0.01-0.02,0.02-0.05,0.03-0.07c0.03-0.08,0.06-0.17,0.07-0.26c0-0.02,0.01-0.03,0.01-0.05c0-0.01,0-0.02,0-0.03
	c0.01-0.09,0.02-0.18,0.02-0.27c0-0.02,0-0.04,0-0.06c0-0.1-0.02-0.2-0.04-0.3c-0.01-0.04-0.02-0.08-0.04-0.13
	c-0.01-0.04-0.02-0.09-0.04-0.13l-6.2-16.05l10.79-14.39c0.4-0.54,0.45-1.26,0.13-1.85c-0.32-0.59-0.96-0.93-1.63-0.88l-57.64,4.45
	c-0.04,0-0.07,0.01-0.11,0.02c-0.01,0-0.02,0-0.03,0c-0.09,0.02-0.18,0.04-0.27,0.06c-0.01,0-0.02,0-0.03,0.01
	c-0.09,0.03-0.17,0.07-0.25,0.11c-0.03,0.02-0.06,0.04-0.09,0.05c-0.05,0.03-0.09,0.06-0.13,0.09c-0.04,0.03-0.07,0.05-0.1,0.08
	c-0.03,0.03-0.06,0.06-0.09,0.09c-0.06,0.06-0.12,0.13-0.17,0.21c-0.02,0.03-0.04,0.06-0.06,0.09c-0.03,0.04-0.05,0.09-0.07,0.14
	c-0.01,0.02-0.02,0.03-0.03,0.05c-0.01,0.02-0.02,0.04-0.02,0.06c-0.01,0.03-0.03,0.06-0.04,0.09c-0.01,0.02-0.01,0.03-0.01,0.05
	c-0.02,0.06-0.03,0.11-0.04,0.17c-0.01,0.07-0.02,0.14-0.03,0.21C20.45,35.02,20.45,35.06,20.45,35.1z M67.74,43.89l-34.35-7.94
	l42.77-3.3L67.74,43.89z M71.27,57.87l-7.75-5.72c-0.05-0.04-0.11-0.07-0.17-0.1c-0.03-0.02-0.06-0.04-0.1-0.06
	c-0.01-0.01-0.02-0.02-0.04-0.02l-24.97-11.4l28.92,6.69L71.27,57.87z M60.77,58.51l2.06-2.62l5.3,3.9L60.77,58.51z M27.6,39.47
	l32.23,14.72L49.08,67.86L27.6,39.47z"/>
</svg>
