<?xml version="1.0" encoding="utf-8"?>
<!-- Generator: Adobe Illustrator 24.0.2, SVG Export Plug-In . SVG Version: 6.00 Build 0)  -->
<svg version="1.1" id="Warstwa_1" xmlns="http://www.w3.org/2000/svg" xmlns:xlink="http://www.w3.org/1999/xlink" x="0px" y="0px"
	 viewBox="0 0 1400 140" style="enable-background:new 0 0 1400 140;" xml:space="preserve">
<style type="text/css">
	.st0{fill:url(#SVGID_1_);}
	.st1{fill:#FFFFFF;}
	.st2{opacity:0.4;}
	.st3{fill:none;stroke:#FFFFFF;stroke-width:4;stroke-miterlimit:10;}
	.st4{fill:none;stroke:#FFFFFF;stroke-width:4;stroke-miterlimit:10;stroke-dasharray:8.0155,8.0155;}
</style>
<linearGradient id="SVGID_1_" gradientUnits="userSpaceOnUse" x1="0" y1="70" x2="1400" y2="70" gradientTransform="matrix(1 0 0 -1 0 140)">
	<stop  offset="0" style="stop-color:#29235C"/>
	<stop  offset="1" style="stop-color:#E84E1B"/>
</linearGradient>
<rect class="st0" width="1400" height="140"/>
<g>
	<path class="st1" d="M604.15,87.96h-5.2c-0.58,0-1.06-0.15-1.42-0.44c-0.37-0.29-0.64-0.65-0.83-1.09l-2.7-7.38h-14.98l-2.7,7.38
		c-0.13,0.38-0.39,0.73-0.77,1.05s-0.86,0.48-1.42,0.48h-5.25l14.23-36.15h6.85L604.15,87.96z M592.28,74.31l-4.4-12.02
		c-0.22-0.53-0.44-1.17-0.68-1.9c-0.23-0.73-0.47-1.52-0.7-2.38c-0.22,0.85-0.44,1.65-0.68,2.39c-0.23,0.74-0.46,1.39-0.67,1.94
		l-4.38,11.97H592.28z"/>
	<path class="st1" d="M613.05,50.81v21.27h1.15c0.42,0,0.75-0.05,0.99-0.16s0.49-0.33,0.74-0.66l6.38-7.88
		c0.27-0.35,0.56-0.62,0.89-0.8s0.75-0.27,1.26-0.27h5.65l-7.98,9.52c-0.57,0.75-1.18,1.33-1.85,1.72c0.35,0.25,0.66,0.54,0.94,0.88
		c0.27,0.33,0.54,0.69,0.79,1.08l8.55,12.45h-5.58c-0.48,0-0.9-0.08-1.25-0.24s-0.64-0.45-0.88-0.86l-6.55-9.72
		c-0.23-0.38-0.48-0.63-0.73-0.75s-0.63-0.17-1.13-0.17h-1.4v11.75h-6.18V50.81H613.05z"/>
	<path class="st1" d="M642.15,88.36c-2.23,0-3.95-0.63-5.14-1.89s-1.79-3-1.79-5.21V66.93h-2.63c-0.33,0-0.62-0.11-0.85-0.33
		s-0.35-0.54-0.35-0.97v-2.45l4.13-0.68l1.3-7c0.08-0.33,0.24-0.59,0.48-0.77c0.23-0.18,0.53-0.27,0.9-0.27h3.2v8.08h6.85v4.4h-6.85
		v13.9c0,0.8,0.2,1.42,0.59,1.88s0.93,0.67,1.61,0.67c0.38,0,0.7-0.05,0.96-0.14s0.48-0.19,0.67-0.29s0.36-0.2,0.51-0.29
		c0.15-0.09,0.3-0.14,0.45-0.14c0.18,0,0.33,0.05,0.45,0.14s0.24,0.23,0.38,0.41l1.85,3c-0.9,0.75-1.93,1.32-3.1,1.7
		C644.61,88.17,643.4,88.36,642.15,88.36z"/>
	<path class="st1" d="M674.3,62.31v25.65h-3.77c-0.82,0-1.33-0.38-1.55-1.13l-0.43-2.05c-1.05,1.07-2.21,1.93-3.48,2.59
		s-2.76,0.99-4.47,0.99c-1.4,0-2.64-0.24-3.71-0.71c-1.07-0.48-1.98-1.15-2.71-2.01c-0.73-0.87-1.29-1.9-1.66-3.09
		c-0.38-1.19-0.56-2.5-0.56-3.94v-16.3h6.18v16.3c0,1.57,0.36,2.78,1.09,3.64s1.81,1.29,3.26,1.29c1.07,0,2.07-0.24,3-0.71
		s1.82-1.13,2.65-1.96V62.31H674.3z"/>
	<path class="st1" d="M679.8,65.88c2.95-2.7,6.5-4.05,10.65-4.05c1.5,0,2.84,0.25,4.03,0.74c1.18,0.49,2.18,1.18,3,2.05
		s1.44,1.92,1.86,3.14c0.43,1.22,0.64,2.55,0.64,4v16.2h-2.8c-0.58,0-1.03-0.09-1.35-0.26s-0.57-0.53-0.75-1.06l-0.55-1.85
		c-0.65,0.58-1.28,1.1-1.9,1.54s-1.26,0.81-1.93,1.11s-1.38,0.53-2.14,0.69s-1.6,0.24-2.51,0.24c-1.08,0-2.08-0.15-3-0.44
		s-1.71-0.73-2.37-1.31c-0.67-0.58-1.18-1.31-1.55-2.17c-0.37-0.87-0.55-1.88-0.55-3.02c0-0.65,0.11-1.3,0.32-1.94
		s0.57-1.25,1.06-1.84c0.49-0.58,1.13-1.13,1.91-1.65c0.78-0.52,1.75-0.97,2.89-1.35s2.47-0.7,3.99-0.94
		c1.52-0.24,3.25-0.39,5.2-0.44v-1.5c0-1.72-0.37-2.99-1.1-3.81c-0.73-0.83-1.79-1.24-3.18-1.24c-1,0-1.83,0.12-2.49,0.35
		c-0.66,0.23-1.24,0.5-1.74,0.79s-0.96,0.55-1.36,0.79S683.22,69,682.72,69c-0.43,0-0.8-0.11-1.1-0.34
		c-0.3-0.23-0.54-0.49-0.73-0.79L679.8,65.88z M693.95,77.01c-1.78,0.08-3.28,0.24-4.5,0.46s-2.19,0.51-2.93,0.86
		c-0.73,0.35-1.26,0.76-1.57,1.22c-0.32,0.47-0.47,0.98-0.47,1.53c0,1.08,0.32,1.86,0.96,2.33s1.48,0.7,2.51,0.7
		c1.27,0,2.36-0.23,3.29-0.69s1.83-1.15,2.71-2.09L693.95,77.01L693.95,77.01z"/>
	<path class="st1" d="M712.02,50.81v37.15h-6.17V50.81H712.02z"/>
	<path class="st1" d="M723.97,65.46c0.52-0.52,1.06-1,1.64-1.44c0.57-0.44,1.18-0.82,1.82-1.13s1.33-0.55,2.06-0.73
		c0.73-0.17,1.53-0.26,2.4-0.26c1.4,0,2.64,0.24,3.72,0.71c1.08,0.48,1.99,1.14,2.71,2c0.72,0.86,1.28,1.88,1.65,3.07
		s0.56,2.5,0.56,3.94v16.33h-6.18V71.63c0-1.57-0.36-2.78-1.07-3.64c-0.72-0.86-1.81-1.29-3.28-1.29c-1.07,0-2.07,0.24-3,0.72
		s-1.82,1.14-2.65,1.98v18.55h-6.17V62.31h3.78c0.8,0,1.33,0.38,1.58,1.13L723.97,65.46z"/>
	<path class="st1" d="M757.75,61.91c1.9,0,3.63,0.31,5.19,0.92c1.56,0.62,2.89,1.49,4,2.63c1.11,1.13,1.96,2.52,2.56,4.15
		c0.6,1.63,0.9,3.46,0.9,5.48c0,2.03-0.3,3.87-0.9,5.5c-0.6,1.63-1.46,3.02-2.56,4.17c-1.11,1.15-2.44,2.03-4,2.65
		s-3.29,0.92-5.19,0.92c-1.92,0-3.66-0.31-5.23-0.92c-1.57-0.62-2.9-1.5-4.01-2.65s-1.97-2.54-2.57-4.17
		c-0.61-1.63-0.91-3.47-0.91-5.5c0-2.02,0.3-3.84,0.91-5.48c0.61-1.63,1.47-3.02,2.57-4.15c1.11-1.13,2.45-2.01,4.01-2.63
		C754.09,62.22,755.83,61.91,757.75,61.91z M757.75,83.58c2.13,0,3.71-0.72,4.74-2.15c1.02-1.43,1.54-3.53,1.54-6.3
		s-0.51-4.88-1.54-6.33c-1.03-1.45-2.6-2.17-4.74-2.17c-2.17,0-3.77,0.73-4.81,2.19s-1.56,3.56-1.56,6.31s0.52,4.85,1.56,6.29
		S755.58,83.58,757.75,83.58z"/>
	<path class="st1" d="M790.77,67.31c-0.17,0.27-0.34,0.45-0.53,0.56s-0.42,0.16-0.7,0.16c-0.3,0-0.62-0.08-0.96-0.25
		s-0.74-0.35-1.19-0.56s-0.96-0.4-1.54-0.56c-0.57-0.17-1.25-0.25-2.04-0.25c-1.22,0-2.17,0.26-2.86,0.77
		c-0.69,0.52-1.04,1.19-1.04,2.03c0,0.55,0.18,1.01,0.54,1.39s0.83,0.7,1.42,0.99s1.26,0.54,2.01,0.76s1.51,0.47,2.29,0.74
		c0.78,0.27,1.54,0.57,2.29,0.91c0.75,0.34,1.42,0.78,2.01,1.3c0.59,0.53,1.07,1.15,1.43,1.89c0.36,0.73,0.54,1.62,0.54,2.65
		c0,1.23-0.22,2.37-0.66,3.41s-1.1,1.94-1.96,2.7c-0.87,0.76-1.94,1.35-3.21,1.78c-1.27,0.42-2.75,0.64-4.41,0.64
		c-0.88,0-1.75-0.08-2.59-0.24s-1.65-0.38-2.42-0.66c-0.77-0.28-1.49-0.62-2.15-1c-0.66-0.38-1.24-0.8-1.74-1.25l1.43-2.35
		c0.18-0.28,0.4-0.5,0.65-0.65s0.57-0.23,0.95-0.23s0.75,0.11,1.09,0.33s0.74,0.45,1.19,0.7s0.98,0.48,1.59,0.7s1.38,0.33,2.31,0.33
		c0.73,0,1.36-0.09,1.89-0.26s0.96-0.4,1.3-0.69s0.59-0.61,0.75-0.99s0.24-0.76,0.24-1.16c0-0.6-0.18-1.09-0.54-1.47
		s-0.83-0.72-1.42-1c-0.59-0.28-1.27-0.54-2.03-0.76s-1.53-0.47-2.33-0.74c-0.79-0.27-1.57-0.58-2.32-0.94
		c-0.76-0.36-1.43-0.81-2.03-1.36c-0.59-0.55-1.07-1.23-1.42-2.03s-0.54-1.77-0.54-2.9c0-1.05,0.21-2.05,0.63-3s1.03-1.78,1.84-2.49
		s1.82-1.27,3.03-1.7c1.21-0.42,2.6-0.64,4.19-0.64c1.77,0,3.38,0.29,4.82,0.88c1.45,0.58,2.66,1.35,3.63,2.3L790.77,67.31z
		 M792.1,51.41l-6.18,6.52c-0.32,0.33-0.62,0.56-0.91,0.69c-0.29,0.13-0.67,0.19-1.14,0.19h-3.7l3.55-6.08
		c0.25-0.43,0.54-0.76,0.88-0.99c0.33-0.23,0.83-0.34,1.5-0.34h6V51.41z"/>
	<path class="st1" d="M815.47,67.73c-0.18,0.23-0.36,0.42-0.54,0.55c-0.17,0.13-0.43,0.2-0.76,0.2c-0.32,0-0.63-0.1-0.92-0.29
		s-0.66-0.41-1.08-0.65c-0.42-0.24-0.91-0.46-1.49-0.65s-1.29-0.29-2.14-0.29c-1.08,0-2.03,0.2-2.85,0.59
		c-0.82,0.39-1.5,0.95-2.04,1.69s-0.95,1.62-1.21,2.66c-0.27,1.04-0.4,2.22-0.4,3.54c0,1.37,0.15,2.58,0.44,3.65
		s0.71,1.96,1.26,2.69s1.22,1.28,2,1.65c0.78,0.38,1.67,0.56,2.65,0.56s1.78-0.12,2.39-0.36s1.12-0.51,1.54-0.8s0.78-0.56,1.09-0.8
		c0.31-0.24,0.65-0.36,1.04-0.36c0.5,0,0.88,0.19,1.13,0.58l1.77,2.25c-0.68,0.8-1.42,1.47-2.22,2.01s-1.63,0.97-2.49,1.3
		s-1.74,0.55-2.65,0.69c-0.91,0.13-1.81,0.2-2.71,0.2c-1.58,0-3.07-0.3-4.47-0.89s-2.63-1.45-3.67-2.59
		c-1.05-1.13-1.88-2.52-2.49-4.16s-0.91-3.51-0.91-5.61c0-1.88,0.27-3.63,0.81-5.24s1.34-3,2.39-4.18c1.05-1.17,2.35-2.1,3.9-2.76
		c1.55-0.67,3.33-1,5.35-1c1.92,0,3.6,0.31,5.04,0.92c1.44,0.62,2.74,1.5,3.89,2.65L815.47,67.73z"/>
	<path class="st1" d="M828.45,54.83c0,0.53-0.11,1.03-0.33,1.5c-0.22,0.47-0.5,0.88-0.86,1.23s-0.78,0.63-1.26,0.84
		s-1,0.31-1.55,0.31c-0.53,0-1.04-0.1-1.51-0.31c-0.47-0.21-0.89-0.49-1.24-0.84s-0.63-0.76-0.84-1.23s-0.31-0.97-0.31-1.5
		c0-0.55,0.1-1.07,0.31-1.55s0.49-0.9,0.84-1.25c0.35-0.35,0.76-0.63,1.24-0.84s0.98-0.31,1.51-0.31c0.55,0,1.07,0.1,1.55,0.31
		c0.48,0.21,0.9,0.49,1.26,0.84s0.65,0.77,0.86,1.25S828.45,54.28,828.45,54.83z M827.6,62.31v25.65h-6.2V62.31H827.6z"/>
</g>
<g class="st2">
	<path class="st1" d="M1228.05,44.35c-0.01-0.1-0.02-0.19-0.04-0.29c-0.02-0.08-0.03-0.16-0.06-0.24c-0.01-0.02-0.01-0.05-0.02-0.07
		c-0.01-0.04-0.04-0.08-0.06-0.12c-0.01-0.03-0.02-0.06-0.03-0.09s-0.03-0.05-0.04-0.07c-0.03-0.07-0.07-0.13-0.1-0.19
		c-0.03-0.04-0.06-0.08-0.09-0.12c-0.07-0.1-0.15-0.2-0.24-0.29c-0.04-0.04-0.08-0.08-0.13-0.12c-0.05-0.04-0.1-0.08-0.15-0.12
		c-0.06-0.04-0.12-0.09-0.18-0.13c-0.04-0.03-0.08-0.05-0.12-0.07c-0.11-0.06-0.23-0.11-0.35-0.15c-0.01,0-0.03-0.01-0.04-0.01
		c-0.12-0.04-0.25-0.07-0.37-0.09c-0.01,0-0.03,0-0.04-0.01c-0.05-0.01-0.1-0.02-0.15-0.02l-80.46-6.21
		c-0.93-0.07-1.82,0.41-2.27,1.23c-0.45,0.82-0.38,1.83,0.19,2.58l15.06,20.09l-8.66,22.4c-0.02,0.06-0.03,0.12-0.05,0.18
		s-0.04,0.12-0.05,0.18c-0.03,0.14-0.05,0.28-0.05,0.42c0,0.03,0,0.05,0,0.08c0,0.12,0.01,0.25,0.03,0.37c0,0.02,0,0.03,0,0.05
		c0,0.02,0.01,0.04,0.02,0.07c0.03,0.12,0.06,0.24,0.1,0.36c0.01,0.03,0.02,0.07,0.04,0.1c0.06,0.14,0.13,0.28,0.22,0.41l0.01,0.01
		c0.08,0.12,0.18,0.23,0.28,0.33c0.03,0.03,0.06,0.05,0.09,0.08c0.05,0.04,0.09,0.09,0.14,0.13c0.06,0.04,0.12,0.09,0.18,0.13
		c0.11,0.07,0.23,0.13,0.35,0.18c0.04,0.02,0.08,0.03,0.12,0.04c0.09,0.03,0.18,0.06,0.26,0.08c0.04,0.01,0.09,0.02,0.13,0.03
		c0.09,0.02,0.19,0.03,0.28,0.03c0.04,0,0.08,0,0.11,0c0.14,0,0.27-0.01,0.4-0.03l0,0l0,0c0.01,0,0.03,0,0.04-0.01l22.73-3.98
		l11.14,14.18c0.17,0.22,0.38,0.41,0.61,0.55c0.38,0.24,0.83,0.37,1.28,0.36c0.74-0.01,1.43-0.36,1.88-0.94l37.56-49.64
		c0.01-0.01,0.02-0.03,0.03-0.04c0.04-0.06,0.08-0.11,0.11-0.17c0.03-0.05,0.06-0.1,0.08-0.15c0.03-0.06,0.06-0.12,0.09-0.19
		c0.02-0.06,0.04-0.12,0.06-0.19c0.03-0.11,0.06-0.21,0.08-0.32c0.01-0.05,0.02-0.11,0.02-0.16c0.01-0.07,0.01-0.14,0.01-0.21
		C1228.06,44.46,1228.05,44.4,1228.05,44.35z M1150.28,41.09l59.71,4.61l-47.94,11.08L1150.28,41.09z M1162.83,61.49l40.37-9.34
		l-34.85,15.91c-0.02,0.01-0.03,0.02-0.05,0.03c-0.05,0.02-0.09,0.06-0.14,0.08c-0.08,0.05-0.16,0.09-0.23,0.14l-10.82,7.98
		L1162.83,61.49z M1161.5,78.99l7.39-5.45l2.87,3.65L1161.5,78.99z M1188.08,90.25l-15-19.09l44.99-20.54L1188.08,90.25z"/>
	<path class="st1" d="M171.94,46.72c0,0.07,0,0.14,0.01,0.21c0.01,0.05,0.01,0.11,0.02,0.16c0.02,0.11,0.04,0.22,0.08,0.32
		c0.02,0.06,0.04,0.13,0.06,0.19c0.03,0.06,0.06,0.12,0.09,0.19c0.03,0.05,0.05,0.1,0.08,0.15c0.04,0.06,0.07,0.12,0.11,0.17
		c0.01,0.01,0.02,0.03,0.03,0.04l37.56,49.64c0.45,0.59,1.14,0.94,1.88,0.94c0.46,0.01,0.9-0.12,1.28-0.36
		c0.23-0.14,0.44-0.33,0.61-0.55l11.14-14.18l22.73,3.98c0.01,0,0.03,0,0.04,0.01l0,0l0,0c0.13,0.02,0.27,0.03,0.4,0.03
		c0.04,0,0.08,0,0.11,0c0.1,0,0.19-0.01,0.28-0.03c0.05-0.01,0.09-0.01,0.13-0.03c0.09-0.02,0.18-0.05,0.26-0.08
		c0.04-0.01,0.08-0.02,0.12-0.04c0.12-0.05,0.24-0.11,0.35-0.18c0.06-0.04,0.13-0.08,0.18-0.13c0.05-0.04,0.09-0.08,0.14-0.13
		c0.03-0.03,0.06-0.05,0.09-0.08c0.1-0.1,0.2-0.21,0.28-0.33l0.01-0.01c0.09-0.13,0.16-0.26,0.22-0.41c0.01-0.03,0.02-0.07,0.04-0.1
		c0.04-0.12,0.08-0.24,0.1-0.36c0-0.02,0.02-0.04,0.02-0.07c0-0.02,0-0.03,0-0.05c0.02-0.12,0.03-0.25,0.03-0.37
		c0-0.03,0-0.05,0-0.08c-0.01-0.14-0.02-0.28-0.05-0.42c-0.01-0.06-0.03-0.12-0.05-0.18s-0.03-0.12-0.05-0.18L241.61,62l15.06-20.09
		c0.56-0.75,0.63-1.76,0.19-2.58c-0.45-0.82-1.34-1.3-2.27-1.23l-80.46,6.21c-0.05,0-0.1,0.02-0.15,0.02c-0.01,0-0.03,0-0.04,0.01
		c-0.13,0.02-0.25,0.05-0.37,0.09c-0.01,0-0.03,0.01-0.04,0.01c-0.12,0.04-0.24,0.09-0.35,0.15c-0.04,0.02-0.08,0.05-0.12,0.07
		c-0.06,0.04-0.12,0.08-0.18,0.13c-0.05,0.04-0.1,0.08-0.15,0.12c-0.04,0.04-0.08,0.08-0.13,0.12c-0.09,0.09-0.17,0.19-0.24,0.29
		c-0.03,0.04-0.06,0.08-0.09,0.12c-0.04,0.06-0.07,0.13-0.1,0.19c-0.01,0.03-0.03,0.05-0.04,0.07c-0.01,0.03-0.02,0.06-0.03,0.09
		c-0.02,0.04-0.04,0.08-0.06,0.12c-0.01,0.02-0.01,0.05-0.02,0.07c-0.02,0.08-0.04,0.16-0.06,0.24c-0.02,0.1-0.03,0.19-0.04,0.29
		C171.95,46.6,171.94,46.66,171.94,46.72z M237.96,58.98L190.02,47.9l59.71-4.61L237.96,58.98z M242.9,78.5l-10.82-7.98
		c-0.07-0.05-0.15-0.09-0.23-0.14c-0.05-0.03-0.09-0.06-0.14-0.08c-0.02-0.01-0.03-0.02-0.05-0.03L196.8,54.35l40.37,9.34
		L242.9,78.5z M228.24,79.39l2.87-3.65l7.39,5.45L228.24,79.39z M181.93,52.81l44.99,20.54l-15,19.09L181.93,52.81z"/>
	<g>
		<g>
			<path class="st3" d="M262.16,88.18c0.88,0.94,1.83,1.87,2.86,2.79"/>
			<path class="st4" d="M271.38,95.83c20.25,13.27,57.2,19.55,99.24-11.84c31.65-23.63,69.13-37.63,89.77-23.51"/>
			<path class="st3" d="M463.52,62.96c0.97,0.88,1.89,1.85,2.76,2.89"/>
		</g>
	</g>
	<g>
		<g>
			<path class="st3" d="M1141.94,82.41c-0.83,0.98-1.75,1.95-2.73,2.92"/>
			<path class="st4" d="M1133.08,90.48c-19.61,14.2-56.24,22.18-99.68-7.22c-32.71-22.14-70.8-34.38-90.76-19.32"/>
			<path class="st3" d="M939.62,66.56c-0.93,0.93-1.8,1.93-2.62,3.01"/>
		</g>
	</g>
</g>
</svg>
