<?xml version="1.0" encoding="utf-8"?>
<!-- Generator: Adobe Illustrator 26.2.1, SVG Export Plug-In . SVG Version: 6.00 Build 0)  -->
<svg version="1.1" id="Warstwa_1" xmlns="http://www.w3.org/2000/svg" xmlns:xlink="http://www.w3.org/1999/xlink" x="0px" y="0px"
	 viewBox="0 0 1400 230" style="enable-background:new 0 0 1400 230;" xml:space="preserve">
<style type="text/css">
	.st0{fill:#AA7E63;}
	.st1{opacity:0.6;}
	.st2{fill:#FFFFFF;}
	.st3{opacity:0.6;fill:#FFFFFF;enable-background:new    ;}
	
		.st4{opacity:0.5;fill:none;stroke:#FFFFFF;stroke-width:7;stroke-linecap:round;stroke-linejoin:round;stroke-miterlimit:10;enable-background:new    ;}
	.st5{opacity:0.8;fill:url(#SVGID_1_);enable-background:new    ;}
</style>
<path class="st0" d="M17,0h1366c9.4,0,17,7.6,17,17v213H0V17C0,7.6,7.6,0,17,0z"/>
<g class="st1">
	<path class="st2" d="M1232.5,180.4c-6.5,0-11.8-5.1-11.8-11.4c0-6.3,5.3-11.4,11.8-11.4s11.8,5.1,11.8,11.4
		C1244.3,175.2,1239,180.4,1232.5,180.4z M1232.5,163.8c-2.9,0-5.3,2.3-5.3,5.2s2.4,5.2,5.3,5.2s5.3-2.3,5.3-5.2
		S1235.5,163.8,1232.5,163.8z"/>
</g>
<g class="st1">
	<path class="st2" d="M1103.6,191.9c-0.7,0-1.4-0.3-1.9-0.8l-6.8-6.6c-1.1-1-1.1-2.7,0-3.7s2.8-1,3.9,0l4.9,4.7l8.3-8
		c1.1-1,2.8-1,3.9,0s1.1,2.7,0,3.7l-10.2,9.9C1105,191.6,1104.3,191.9,1103.6,191.9z"/>
</g>
<path class="st3" d="M506.3,35c-0.8,0-1.5,0.2-2.2,0.4c-2.2,0.9-3.6,2.9-3.6,5c0,2.9,2.5,5.1,5.6,5.1c3.3,0,5.4-2.6,5.4-5
	C511.6,38.7,510.3,35,506.3,35z"/>
<path class="st3" d="M478.2,19.8c-0.8,0-1.5,0.1-2.2,0.4c-2.2,0.9-3.6,2.9-3.6,5c0,2.9,2.5,5.1,5.6,5.1c3.3,0,5.4-2.6,5.4-5
	C483.5,23.5,482.2,19.8,478.2,19.8z"/>
<path class="st3" d="M820.5,98.2c-0.8,0-1.5,0.2-2.2,0.4c-2.2,0.9-3.6,2.9-3.6,5c0,2.9,2.5,5.1,5.6,5.1c3.3,0,5.4-2.6,5.4-5
	C825.8,101.9,824.5,98.2,820.5,98.2z"/>
<path class="st3" d="M1264.2,173.6c-1,0-1.9,0.2-2.8,0.6c-2.8,1.2-4.6,3.7-4.6,6.4c0,3.7,3.2,6.6,7.2,6.6c4.3,0,7-3.4,7-6.4
	C1271,178.4,1269.4,173.6,1264.2,173.6z"/>
<path class="st3" d="M1363.2,148.9c-0.6,0-1.2,0.1-1.8,0.4c-1.8,0.8-2.9,2.4-2.9,4.1c0,2.4,2,4.2,4.6,4.2c2.7,0,4.4-2.1,4.4-4.1
	C1367.5,151.9,1366.4,148.9,1363.2,148.9z"/>
<path class="st3" d="M1344.6,164.9c-0.9,0-1.7,0.2-2.5,0.5c-2.5,1.1-4.2,3.3-4.2,5.8c0,3.3,2.8,5.9,6.5,5.9c3.9,0,6.3-3,6.3-5.8
	C1350.7,169.3,1349.2,164.9,1344.6,164.9z"/>
<path class="st3" d="M1360.5,182.3c-0.6,0-1.2,0.1-1.8,0.4c-1.8,0.8-2.9,2.4-2.9,4.1c0,2.4,2,4.2,4.6,4.2c2.7,0,4.4-2.1,4.4-4.1
	C1364.8,185.4,1363.8,182.3,1360.5,182.3z"/>
<path class="st3" d="M1235.6,192.9c-0.6,0-1.2,0.1-1.8,0.4c-1.8,0.8-2.9,2.4-2.9,4.1c0,2.4,2,4.2,4.6,4.2c2.7,0,4.4-2.1,4.4-4.1
	C1239.9,195.9,1238.9,192.9,1235.6,192.9z"/>
<path class="st3" d="M484.8,51.2c-0.9,0-1.8,0.2-2.6,0.5c-2.6,1.1-4.3,3.4-4.3,6c0,3.4,3,6.1,6.7,6.1c4,0,6.5-3.1,6.5-6
	C491.2,55.7,489.6,51.2,484.8,51.2z"/>
<path class="st3" d="M1068.8,139c-1.1,0-2,0.2-3,0.6c-3,1.3-5,4-5,6.9c0,4,3.4,7.1,7.8,7.1c4.6,0,7.5-3.6,7.5-6.9
	C1076.1,144.1,1074.3,139,1068.8,139z"/>
<path class="st3" d="M1050.4,156.8c-0.8,0-1.6,0.2-2.3,0.5c-2.3,1-3.8,3.1-3.8,5.4c0,3.1,2.6,5.5,6,5.5c3.6,0,5.8-2.8,5.8-5.4
	C1056,160.8,1054.6,156.8,1050.4,156.8z"/>
<path class="st3" d="M634.4,116.1c-1,0-2,0.2-3,0.6c-3,1.3-5,4-5,6.9c0,4,3.4,7.1,7.8,7.1c4.6,0,7.5-3.6,7.5-6.9
	C641.7,121.3,639.9,116.1,634.4,116.1z"/>
<path class="st3" d="M616,133.9c-0.8,0-1.6,0.2-2.3,0.5c-2.3,1-3.8,3.1-3.8,5.4c0,3.1,2.6,5.5,6,5.5c3.6,0,5.8-2.8,5.8-5.4
	C621.6,137.9,620.2,133.9,616,133.9z"/>
<path class="st3" d="M1068.7,197.2c-0.6,0-1.2,0.1-1.7,0.4c-1.7,0.7-2.9,2.3-2.9,4c0,2.3,2,4.1,4.5,4.1c2.7,0,4.4-2.1,4.4-4
	C1072.9,200.2,1071.9,197.2,1068.7,197.2z"/>
<path class="st3" d="M962.6,42.7c-1,0-2,0.2-3,0.6c-3,1.3-5,4-5,6.9c0,4,3.4,7.1,7.8,7.1c4.6,0,7.5-3.6,7.5-6.9
	C969.9,47.8,968.1,42.7,962.6,42.7z"/>
<path class="st3" d="M297.1,70.3h-14.8c-1.6,0-2.8-1.2-2.8-2.8V46.7H269c-1.6,0-2.8-1.2-2.8-2.8V29.6c0-1.5,1.3-2.8,2.8-2.8h10.5V16
	c0-1.5,1.3-2.8,2.8-2.8h14.8c1.6,0,2.8,1.2,2.8,2.8v10.8h10.5c1.6,0,2.8,1.2,2.8,2.8v14.3c0,1.5-1.3,2.8-2.8,2.8h-10.5v20.9
	C299.9,69.1,298.7,70.3,297.1,70.3L297.1,70.3z M285.2,64.8h9.1V43.9c0-1.5,1.3-2.8,2.8-2.8h10.5v-8.8h-10.5c-1.6,0-2.8-1.2-2.8-2.8
	V18.8h-9.1v10.8c0,1.5-1.3,2.8-2.8,2.8h-10.5v8.8h10.5c1.6,0,2.8,1.2,2.8,2.8V64.8z"/>
<g class="st1">
	<g>
		<path class="st2" d="M708.5,25.4c1.8,0,3.2,1.4,3.2,3.1s-1.4,3.1-3.2,3.1h-17.1c-1.8,0-3.2-1.4-3.2-3.1s1.4-3.1,3.2-3.1H708.5z"/>
	</g>
	<g>
		<path class="st2" d="M699.5,17.5c0.8,0,1.7,0.3,2.3,0.9c1.3,1.2,1.3,3.2,0,4.4l-5.8,5.6l5.8,5.6c1.3,1.2,1.3,3.2,0,4.4
			s-3.3,1.2-4.6,0l-8-7.8c-0.6-0.6-1-1.4-1-2.2c0-0.8,0.3-1.6,1-2.2l8.1-7.8C697.9,17.9,698.7,17.5,699.5,17.5z"/>
	</g>
</g>
<path class="st3" d="M1206.1,75.1c-0.4,0-0.8-0.1-1.1-0.3l-7.7-3.9l-7.7,3.9c-0.3,0.2-0.7,0.2-1.1,0.2c-0.5,0-0.9-0.1-1.3-0.4
	c-0.7-0.5-1.1-1.4-0.9-2.2l1.5-8.3l-6.2-5.9c-0.6-0.6-0.8-1.5-0.6-2.3c0.3-0.8,1-1.4,1.8-1.5l8.6-1.2l3.9-7.6
	c0.4-0.8,1.2-1.2,2.1-1.2s1.7,0.5,2.1,1.2l3.8,7.6l8.6,1.2c0.9,0.1,1.6,0.7,1.8,1.5s0.1,1.7-0.6,2.3l-6.2,5.9l1.5,8.3
	c0.2,0.8-0.2,1.7-0.9,2.2C1207,74.9,1206.6,75.1,1206.1,75.1z M1197.3,66.1c0.4,0,0.7,0.1,1.1,0.2l4.7,2.4l-0.9-5
	c-0.1-0.7,0.1-1.5,0.7-2l3.8-3.6l-5.2-0.7c-0.7-0.1-1.4-0.5-1.7-1.2l-2.3-4.6l-2.3,4.6c-0.3,0.7-1,1.1-1.7,1.2l-5.2,0.7l3.8,3.6
	c0.5,0.5,0.8,1.2,0.7,2l-0.9,5.1l4.7-2.4C1196.6,66.2,1196.9,66.1,1197.3,66.1z"/>
<path class="st3" d="M1319.5,211.3c-0.4,0-0.7-0.1-1-0.2l-7.3-3.7l-7.3,3.7c-0.3,0.2-0.7,0.2-1,0.2c-0.4,0-0.9-0.1-1.3-0.4
	c-0.7-0.5-1-1.3-0.9-2.1l1.4-7.9l-5.9-5.6c-0.6-0.6-0.8-1.4-0.6-2.2c0.2-0.8,0.9-1.3,1.7-1.4l8.2-1.1l3.7-7.2
	c0.4-0.7,1.1-1.2,1.9-1.2s1.6,0.4,1.9,1.2l3.7,7.2l8.2,1.1c0.8,0.1,1.5,0.7,1.8,1.4c0.3,0.8,0.1,1.6-0.6,2.2l-5.9,5.6l1.4,7.9
	c0.2,0.8-0.2,1.6-0.9,2.1C1320.4,211.1,1320,211.3,1319.5,211.3z M1311.2,202.8c0.3,0,0.7,0.1,1,0.2l4.4,2.3l-0.8-4.8
	c-0.1-0.7,0.1-1.4,0.6-1.9l3.6-3.4l-4.9-0.7c-0.7-0.1-1.3-0.5-1.6-1.1l-2.2-4.4l-2.2,4.4c-0.3,0.6-0.9,1.1-1.6,1.1l-4.9,0.7l3.6,3.4
	c0.5,0.5,0.7,1.2,0.6,1.9l-0.8,4.8l4.4-2.3C1310.5,202.9,1310.8,202.8,1311.2,202.8z"/>
<path class="st3" d="M1028.9,136.3c0.8,0,1.6-0.2,2.3-0.5c2.3-1,3.8-3.1,3.8-5.4c0-3.1-2.6-5.5-6-5.5c-3.6,0-5.8,2.8-5.8,5.3
	C1023.2,132.3,1024.6,136.3,1028.9,136.3z"/>
<path class="st3" d="M1007.8,178.4c-3.2-3.3-8.5-3.5-11.9-0.4l-1,0.9l-9.6-6.1l0.7-14c0.5-10.4,0-13.7-3.7-23.6
	c-2.9-7.7-6.8-17.3-9.9-25c-2.2-5.5-4.2-10.3-4.8-12.1l0,0c-1.6-4.6-5.9-6-9.3-5.1c-1.3,0.3-2.5,1.1-3.5,2.2c-1-1.1-2.2-1.8-3.5-2.2
	c-3.4-0.9-7.7,0.5-9.3,5.1l0,0c-0.5,1.4-1.9,4.8-3.3,8.3c-0.5,1.2,0.1,2.7,1.4,3.2s2.7-0.1,3.2-1.4c1.6-4,2.8-7,3.3-8.5
	c0.7-1.8,2.1-2.3,3.2-2c1.2,0.3,2.3,1.6,1.7,4.2l-5.8,24.4c-1.2,0.9-2.5,2.3-3.5,4.7c-2.9,6.8-5.3,14-6.7,19.8
	c-0.3,1.3,0.5,2.6,1.9,2.9c1.3,0.3,2.7-0.5,3-1.8c1.3-5.5,3.6-12.4,6.4-19c1.3-3.1,2.4-2.9,2.9-2.9c1.4,0.1,2.4,1.3,2.2,2.6
	c-0.1,1.2-0.6,5.8-1.1,10.2c-0.5,4.6-1,9-1.1,10.3c-0.3,3.2,0.3,7,0.9,11.1c1.8,11.9,4,26.5-12.3,36.3l-20-18.1l9.7-6.2
	c0.7-0.5,1.2-1.3,1.1-2.1l-0.7-15.4c-0.5-9.8,0-12.4,3.4-21.8c0.9-2.4,2-5.2,3.2-8.4c0.5-1.2-0.2-2.7-1.5-3.1
	c-1.3-0.5-2.7,0.2-3.2,1.4c-1.3,3.2-2.3,6-3.2,8.4c-3.7,9.9-4.2,13.3-3.7,23.6l0.7,14l-9.6,6.1l-1-0.9c-3.4-3.1-8.8-2.9-11.9,0.4
	c-3.2,3.3-3,8.5,0.4,11.6l27.6,25c1.6,1.5,3.7,2.2,5.8,2.2c2.3,0,4.5-0.9,6.2-2.6c1.5-1.6,2.3-3.7,2.3-5.9c-0.1-1.7-0.7-3.4-1.8-4.7
	c6.2-4,10.4-8.9,12.7-14.8c2.3,6,6.5,10.9,12.7,14.8c-1.1,1.4-1.7,3-1.8,4.7c-0.1,2.2,0.7,4.3,2.3,5.9c1.7,1.7,3.9,2.6,6.2,2.6
	c2.1,0,4.1-0.7,5.8-2.2l27.6-25C1010.8,186.9,1011,181.7,1007.8,178.4L1007.8,178.4z M937.8,211.2c-1.3,1.3-3.5,1.4-4.8,0.2
	l-27.6-25c-1.4-1.2-1.5-3.4-0.2-4.7c0.7-0.7,1.6-1.1,2.5-1.1c0.8,0,1.7,0.3,2.3,0.9l27.6,25c0.7,0.6,1.1,1.4,1.1,2.3
	C938.7,209.7,938.4,210.6,937.8,211.2L937.8,211.2z M951,125.2l3.6-15.1l3.6,15.1c-1.4,0.3-2.7,1-3.6,1.9
	C953.7,126.1,952.4,125.4,951,125.2L951,125.2z M954.7,153.6c0.1,0.8,0.1,1.7,0,2.6C954.6,155.4,954.6,154.5,954.7,153.6
	L954.7,153.6z M958.7,164.1c0.6-4.1,1.2-7.9,0.9-11.1c-0.1-1.3-0.6-5.7-1.1-10.3c-0.5-4.4-1-9-1.1-10.2c-0.1-1.3,0.9-2.5,2.2-2.6
	c0.4,0,1.6-0.1,2.9,2.9c2.8,6.5,5.1,13.4,6.4,19c0.3,1.3,1.7,2.1,3,1.8s2.2-1.6,1.9-2.9c-1.3-5.8-3.8-13-6.7-19.8
	c-1-2.4-2.2-3.8-3.5-4.7l-5.8-24.4c-0.6-2.6,0.5-3.8,1.7-4.2c1.2-0.3,2.6,0.2,3.2,2c0.7,1.9,2.5,6.5,4.9,12.3
	c3.1,7.7,7,17.3,9.9,24.9c3.5,9.4,3.9,12,3.4,21.8l-0.7,15.4c0,0.9,0.4,1.7,1.1,2.1l9.7,6.2l-20,18.1
	C954.8,190.7,957,176,958.7,164.1L958.7,164.1z M1004,186.4l-27.6,25c-1.4,1.2-3.6,1.2-4.8-0.2c-0.6-0.6-1-1.5-0.9-2.4
	s0.4-1.7,1.1-2.3l27.6-25c0.7-0.6,1.5-0.9,2.3-0.9c0.9,0,1.8,0.4,2.5,1.1C1005.5,183.1,1005.4,185.2,1004,186.4L1004,186.4z"/>
<path class="st3" d="M1215.2,116.2c2.1-7-3.1-16.4-9.4-15.4l-1.9-1.8c-4.4-4.2-10.3-6.6-16.6-6.6h-50.8c-6.2,0-12.1,2.4-16.6,6.6
	l-1.9,1.8c-8.7-1.3-13.9,15.3-6.2,19.6l1.7,7c-5.6,5.8,1.1,19.7,8.9,18.2l4.7,5.1c-3.2,7.8,11.9,16.2,18.1,10.4l6.1,1.6
	c0.5,3.2,3.9,5.8,8.4,6.4v4.3c-2.4,0-4.3,1.9-4.3,4.1v6.2h-6.4c-2.4,0-4.3,1.9-4.3,4.1v4.1c0,2.3,1.9,4.1,4.3,4.1h6.4v16.6
	c0,2.3,1.9,4.1,4.3,4.1h4.3c2.4,0,4.3-1.9,4.3-4.1V196h6.4c2.4,0,4.3-1.9,4.3-4.1v-4.1c0-2.3-1.9-4.1-4.3-4.1h-6.4v-6.2
	c0-2.3-1.9-4.1-4.3-4.1V169c4.6-0.6,7.9-3.1,8.6-6.4l6.1-1.6c6.2,5.8,21.4-2.6,18.1-10.4l4.7-5.1c7.8,1.5,14.6-12.3,8.9-18.2l1.7-7
	C1213.7,119.4,1214.8,117.9,1215.2,116.2L1215.2,116.2z M1166.2,187.8h8.6v4.1h-8.6c-1.2,0-2.1,0.9-2.1,2.1v18.7h-4.3V194
	c0-1.1-1-2.1-2.1-2.1h-8.6v-4.1h8.6c1.2,0,2.1-0.9,2.1-2.1v-8.3h4.3v8.3C1164.1,186.9,1165,187.8,1166.2,187.8L1166.2,187.8z
	 M1211.1,115c-1.8,5.7-8.2-2.4-6.4-8.3C1206.4,100.8,1213,109.2,1211.1,115L1211.1,115z M1136.5,96.5h50.8c5.1,0,9.9,1.9,13.5,5.4
	l1.2,1.1c-4.3,5.3-0.8,15.9,5.5,17.7l-1.2,4.8c-7.3-0.1-12.7,11.7-8.6,17.6l-4.2,4.5c-6.4-3-16.8,3-16.8,9.5l-5.5,1.5
	c-3.9-5.3-15.2-5.3-19.1,0l-5.4-1.5c0-6.6-10.3-12.4-16.8-9.5l-4.2-4.5c4.3-5.9-1.2-17.7-8.6-17.6l-1.2-4.8
	c6.3-1.9,9.6-12.4,5.5-17.7l1.2-1.1C1126.6,98.5,1131.4,96.5,1136.5,96.5L1136.5,96.5z M1119.2,106.8c1.8,5.8-4.5,13.9-6.4,8.3
	C1110.9,109.5,1117.3,101.1,1119.2,106.8L1119.2,106.8z M1115.8,131.8c1.1-5.8,8.4,1.5,7.2,7.5
	C1121.9,145.2,1114.7,137.8,1115.8,131.8L1115.8,131.8z M1140.3,158.8c-6.2,0.5-13.1-7.2-7-7.7
	C1139.5,150.5,1146.4,158.2,1140.3,158.8L1140.3,158.8z M1161.9,165c-3.7,0-6.4-1.6-6.4-3.1s2.7-3.1,6.4-3.1c3.7,0,6.4,1.6,6.4,3.1
	C1168.4,163.4,1165.6,165,1161.9,165L1161.9,165z M1183.6,158.8c-6.1-0.5,0.8-8.3,7-7.7C1196.8,151.6,1189.7,159.3,1183.6,158.8
	L1183.6,158.8z M1200.8,139.4c-1.2-6,6-13.4,7.2-7.6C1209.2,137.6,1202,145.2,1200.8,139.4L1200.8,139.4z"/>
<path class="st3" d="M584.2,113.8c-7,0-12.8-5.6-12.8-12.4c0-2.4,0.7-4.7,2.1-6.7c-5.4-1.5-9.3-6.3-9.3-11.9c0-2.4,0.7-4.7,2.1-6.7
	c-5.4-1.5-9.3-6.3-9.3-11.9c0-2.7,0.9-5.2,2.6-7.4c-4.5-2-7.4-6.4-7.4-11.2c0-6.8,5.7-12.4,12.8-12.4c4.3,0,8.2,2.1,10.6,5.6
	c0.9-0.8,1.9-1.4,2.9-2c-1.7-2.9-3.4-5.4-5-7.5c-1.4,1.5-3.1,2.6-5.1,3.2c-1.2,0.4-2.4,0.6-3.6,0.6c-2.3,0-4.6-0.7-6.5-2
	c-2.7-1.8-3.3-4-3.4-5.4c-0.1-2.6,1.4-5,4.5-7.5c1.6-1.3,3.5-2,5.5-2c0.5,0,1.1,0,1.7,0.2c1.5,0.3,3.1,1,4.6,2
	c0.3-1.4,0.4-2.7,0.5-3.9c0-1.7,1.5-3,3.2-3h0.1c0.8,0,1.6,0.4,2.2,1c0.6,0.6,0.9,1.4,0.9,2.2c-0.1,2.6-0.6,5.5-1.5,8.6
	c1.8,2.1,3.8,4.8,5.8,8.1c0.8-3.9,2.6-8.7,6.5-12c4.7-4,11.1-4.9,15.6-4.9c2.3,0,3.8,0.2,3.9,0.2c1.5,0.2,2.7,1.5,2.7,3
	c0,0.5,0.2,11.9-7.2,18.2c-2.6,2.2-5.9,3.7-10,4.4c0.6,0.8,1.1,1.6,1.6,2.5c2.2-1.6,4.9-2.5,7.6-2.5c7,0,12.8,5.6,12.8,12.4
	s-5.7,12.4-12.8,12.4c-0.6,0-1.1,0-1.7-0.1c0.1,0.6,0.1,1.1,0.1,1.7c0,2.4-0.7,4.7-2.1,6.7c5.4,1.5,9.3,6.3,9.3,11.9
	c0,6.8-5.7,12.3-12.6,12.4c0.4,1.3,0.7,2.6,0.7,3.9C597,108.3,591.3,113.8,584.2,113.8z M584.2,95.2c-3.5,0-6.4,2.8-6.4,6.2
	s2.9,6.2,6.4,6.2s6.4-2.8,6.4-6.2C590.6,98,587.8,95.2,584.2,95.2z M596.2,79c-3.5,0-6.4,2.8-6.4,6.2s2.9,6.2,6.4,6.2
	s6.4-2.8,6.4-6.2S599.7,79,596.2,79z M577.1,76.7c-3.5,0-6.4,2.8-6.4,6.2s2.9,6.2,6.4,6.2s6.4-2.8,6.4-6.2S580.6,76.7,577.1,76.7z
	 M589,60.4c-3.5,0-6.4,2.8-6.4,6.2c0,3.4,2.9,6.2,6.4,6.2s6.4-2.8,6.4-6.2C595.4,63.2,592.6,60.4,589,60.4z M569.9,58.1
	c-3.5,0-6.4,2.8-6.4,6.2c0,3.4,2.9,6.2,6.4,6.2s6.4-2.8,6.4-6.2S573.4,58.1,569.9,58.1z M603.4,46.4c-3.5,0-6.4,2.8-6.4,6.2
	s2.9,6.2,6.4,6.2s6.4-2.8,6.4-6.2C609.8,49.2,606.9,46.4,603.4,46.4z M584.2,41.8c-3.5,0-6.4,2.8-6.4,6.2s2.9,6.2,6.4,6.2
	s6.4-2.8,6.4-6.2S587.8,41.8,584.2,41.8z M565.1,39.5c-3.5,0-6.4,2.8-6.4,6.2s2.9,6.2,6.4,6.2s6.4-2.8,6.4-6.2
	C571.5,42.2,568.6,39.5,565.1,39.5z M588.6,34.5c3.4,0,8.2-0.6,11.4-3.3c3.3-2.9,4.5-7.6,4.8-10.6h-0.1c-2.8,0-8,0.4-11.3,3.3
	C590,26.8,588.9,31.5,588.6,34.5C588.5,34.5,588.5,34.5,588.6,34.5z M561.5,25.6c0,0,0.2,0.2,0.7,0.6c0.8,0.6,1.8,0.9,2.8,0.9
	c0.5,0,1.1-0.1,1.6-0.2c1.2-0.4,2.2-1.1,2.8-2c-1.4-1.3-2.7-2-3.8-2.2c-0.2,0-0.3,0-0.5,0c-0.5,0-1,0.2-1.5,0.6
	C561.5,24.7,561.5,25.6,561.5,25.6L561.5,25.6z"/>
<path class="st3" d="M519.6,151c-1.8,0-3.2-1.4-3.2-3.1s1.4-3.1,3.2-3.1h8.8v-22.6c-6.8-0.6-13.3-3.9-17.7-9.2
	c-3.7-4.4-5.8-10.2-5.7-16.3c0-2.3,0.3-4.5,0.9-6.7l5.8-22c0.4-1.4,1.6-2.3,3.1-2.3h31.8c1.5,0,2.7,1,3.1,2.3l5.8,22
	c0.5,2.1,0.8,4.4,0.9,6.7c0.1,6.1-2,11.9-5.7,16.3c-4,4.8-9.6,7.9-15.7,8.9v22.8h8.8c1.8,0,3.2,1.4,3.2,3.1s-1.4,3.1-3.2,3.1
	L519.6,151L519.6,151z M511.6,99.9c0.5,3.5,1.9,6.7,4,9.3c3.8,4.5,9.2,7,15,7s11.2-2.6,15-7c2.2-2.6,3.5-5.8,4-9.3
	C549.5,99.9,511.6,99.9,511.6,99.9z M549.5,93.7c-0.1-0.8-0.2-1.4-0.4-2.1L543.9,72h-26.8L512,91.7c-0.2,0.6-0.3,1.3-0.4,2.1
	L549.5,93.7L549.5,93.7z"/>
<path class="st3" d="M247.8,128.1c-0.4,0-0.9-0.1-1.3-0.3h-0.1l0,0c-0.8-0.4-13.1-6.7-31.7-6.7c-6.9,0-13.9,0.9-20.7,2.5
	c-0.1,0-0.3,0-0.4,0s-0.2,0-0.3,0h-0.5h-0.1c-6.8-1.7-13.7-2.5-20.5-2.5c-18.4,0-30.6,6-32,6.7c-0.4,0.2-0.8,0.3-1.3,0.3
	c-1.4,0-2.6-1.1-2.6-2.5V57.5c0-1.4,1.2-2.5,2.6-2.5h7v-2.1c-0.1-1.1,0.7-2.2,1.9-2.5c5.2-1.3,10.5-2,15.8-2h0.1
	c8.6,0,20.8,1.8,29.6,10.5c9-8.7,21-10.5,29.6-10.5h0.1c5.3,0,10.6,0.7,15.8,2c1.2,0.3,1.9,1.4,1.9,2.5V55h7.1
	c1.4,0,2.6,1.1,2.6,2.5v68.1c0,0.9-0.5,1.7-1.3,2.2C248.7,128,248.2,128.1,247.8,128.1z M215,116c10.4,0,20.6,1.9,30.2,5.7l0.1-61.6
	h-4.4v53c0,0.1,0,0.3,0,0.4c-0.2,1.2-1.3,2.1-2.6,2.1c-0.1,0-0.3,0-0.4,0c-4.5-0.7-9.2-1-13.8-1c-0.4,0-0.7,0-1.1,0
	c-4.6,0-9.1,0.5-13.6,1.6C211.3,116,213.1,116,215,116z M141.5,121.6c9.6-3.7,19.8-5.6,30.2-5.6c1.8,0,3.6,0.1,5.5,0.2
	c-4.4-1.1-9-1.6-13.6-1.6c-0.3,0-0.6,0-1,0c-4.6,0-9.2,0.4-13.7,1.1c-0.1,0-0.3,0-0.4,0c-1.4,0-2.6-1.2-2.6-2.6V60h-4.4V121.6
	L141.5,121.6z M162.6,109.5c14.2,0,23.1,3.4,28.1,6.5l-0.1-52.2c-7.8-8.4-19-10.2-27-10.2c-4.2,0-8.5,0.5-12.6,1.3v55.3
	C154.8,109.8,158.7,109.6,162.6,109.5L162.6,109.5z M195.9,116c5.1-3.1,14-6.5,28.1-6.5c3.8,0,7.7,0.3,11.5,0.7V54.9
	c-4.1-0.9-8.4-1.3-12.6-1.3c-8,0-19.1,1.8-27,10.2V116L195.9,116z"/>
<g class="st1">
	<path class="st2" d="M1279.7,147.6c-5.2,0-9.8-3.6-10.9-8.6l-20.4-94.5c-0.6-2.8-0.1-5.7,1.6-8.1c1.6-2.4,4.1-4.1,7-4.7l84.2-17.1
		c0.2,0,0.4-0.1,0.6-0.1c1.4,0,2.7,1,3,2.4l23.7,109.8c0.3,1.6-0.7,3.2-2.4,3.5l-84.2,17.1C1281.2,147.5,1280.5,147.6,1279.7,147.6
		L1279.7,147.6z M1278.7,132c-1.3,0.3-2.4,1-3.1,2.1s-1,2.4-0.7,3.6c0.5,2.2,2.5,3.8,4.9,3.8c0.3,0,0.7,0,1-0.1l81.2-16.5l-2-9.5
		L1278.7,132z M1258.3,37.5c-2.7,0.5-4.4,3.1-3.8,5.7l18.4,85c1.4-1.1,2.9-1.8,4.6-2.1l2.2-0.5L1260.5,37L1258.3,37.5z
		 M1285.7,124.5l72.9-14.8L1339.4,21l-72.9,14.8L1285.7,124.5z M1303.4,109.6c-1.4,0-2.7-1-3-2.4c-0.2-0.8,0-1.6,0.4-2.2
		s1.1-1.1,1.9-1.3l31.6-6.4c0.2,0,0.4-0.1,0.6-0.1c1.4,0,2.7,1,3,2.4c0.3,1.6-0.7,3.2-2.4,3.6l-31.6,6.4
		C1303.8,109.6,1303.6,109.6,1303.4,109.6z M1292.8,98.4c-1.4,0-2.7-1-3-2.4c-0.2-0.8,0-1.6,0.4-2.2s1.1-1.1,1.9-1.3l47.4-9.6
		c0.2,0,0.4-0.1,0.6-0.1c1.4,0,2.7,1,3,2.4c0.3,1.6-0.7,3.2-2.4,3.6l-47.4,9.6C1293.2,98.4,1293,98.4,1292.8,98.4z M1313.7,80.8
		c-0.4,0-0.9-0.1-1.3-0.3l-16.9-8.2c-8.1-4.1-12.6-10.8-11.9-18.1c0.7-6.1,5-11.3,10.4-12.7l0.9-0.2c1.1-0.2,2.2-0.3,3.2-0.3
		c2.8,0,5.5,0.7,7.8,2.1c2.5-3.3,6.2-5.5,10.4-6.1c0.6-0.1,1.3-0.2,1.9-0.2c5.1,0,10.1,3,12.8,7.7c3.8,6.4,2.7,14.3-3.1,21.2
		L1316,79.8c-0.4,0.6-1.3,0.9-1.7,1C1314.1,80.8,1313.9,80.8,1313.7,80.8z M1298.3,46.9c-0.7,0-1.3,0.1-2,0.2l-0.7,0.1
		c-3,0.9-5.4,4-5.8,7.6c-0.6,4.8,2.5,9.4,8.3,12.3l14.7,7.1l10.4-12.2c4.2-5,5.1-10.3,2.6-14.5c-1.7-2.9-4.6-4.8-7.5-4.8
		c-0.3,0-0.7,0-1,0.1c-3.5,0.5-6.3,2.6-7.6,5.7c-0.5,0.9-1.3,1.5-2.2,1.7c-0.2,0-0.4,0.1-0.6,0.1c-0.7,0-1.5-0.3-2.1-0.7
		C1303.2,47.8,1300.8,46.9,1298.3,46.9z"/>
	<path class="st2" d="M1341.3,14.9L1257.1,32c-5.8,1.2-9.5,6.7-8.3,12.4l20.4,94.5c1.2,5.6,6.9,9.2,12.7,8.1l84.2-17.1
		c1.4-0.3,2.4-1.7,2.1-3.1L1344.5,17C1344.2,15.5,1342.7,14.6,1341.3,14.9L1341.3,14.9z M1254,43.3c-0.6-2.8,1.3-5.6,4.2-6.2
		l2.6-0.5l19.3,89.4l-2.6,0.5c-2,0.4-3.6,1.3-5,2.5L1254,43.3z M1362.4,125.2l-81.6,16.6c-2.9,0.6-5.8-1.2-6.4-4s1.3-5.6,4.2-6.2
		l81.6-16.6L1362.4,125.2z M1359.1,109.9l-73.7,15l-19.3-89.4l73.7-15L1359.1,109.9z M1290.1,96c-0.3-1.4,0.6-2.8,2.1-3.1l47.4-9.6
		c1.4-0.3,2.9,0.6,3.2,2c0.3,1.4-0.6,2.8-2.1,3.1l-47.4,9.6C1291.9,98.3,1290.4,97.4,1290.1,96L1290.1,96z M1337.6,99.6
		c0.3,1.4-0.6,2.8-2.1,3.1l-31.6,6.4c-1.4,0.3-2.9-0.6-3.2-2c-0.3-1.4,0.6-2.8,2.1-3.1l31.6-6.4
		C1335.9,97.3,1337.3,98.2,1337.6,99.6L1337.6,99.6z M1295.7,72l16.9,8.2c0.6,0.3,1.2,0.3,1.7,0.2s1.2-0.4,1.5-0.8l12.1-14.1
		c5.7-6.8,6.7-14.6,3.1-20.8c-3.1-5.2-8.9-8.2-14.4-7.3c-4.1,0.6-7.9,2.8-10.3,6.2c-3.3-2-7.3-2.7-11.1-1.9c-0.3,0-0.7,0.1-0.9,0.2
		c-5.3,1.3-9.4,6.5-10.1,12.3C1283.3,61.4,1287.5,68,1295.7,72L1295.7,72z M1289.5,54.8c0.4-3.8,3-7,6.1-7.9l0.7-0.1
		c3.2-0.6,6.7,0.2,9,2.4c0.7,0.5,1.5,0.8,2.3,0.6s1.5-0.7,1.9-1.5c1.4-3.2,4.3-5.4,7.9-5.9c3.3-0.5,6.9,1.5,8.9,4.9
		c2.6,4.4,1.6,9.8-2.7,14.9L1313,74.7l-15-7.2C1292,64.4,1288.9,59.7,1289.5,54.8L1289.5,54.8z"/>
</g>
<path class="st3" d="M1056.8,116.1c-0.5,0-1-0.1-1.5-0.2L990.4,99c-3.1-0.8-5-3.9-4.1-6.9l13.6-49.3L988.8,32
	c-2.3-2.2-3.2-5.5-2.4-8.6s3.3-5.5,6.5-6.3c0.8-0.2,1.6-0.3,2.4-0.3c2.4,0,4.8,1,6.5,2.6l5.9,5.7c0.5-0.1,1.1-0.2,1.6-0.2
	s1,0.1,1.5,0.2l24.9,6.5l29.8-7.8c0.5-0.1,1-0.2,1.5-0.2c2.6,0,5,1.7,5.7,4.2l4,14.5c2.5,1.2,3.9,3.9,3.1,6.6l-0.7,2.4l9.1,32.8
	c0.8,3-1,6.1-4.1,6.9l-17.2,4.4l-4.5,16.4C1061.8,114.4,1059.4,116.1,1056.8,116.1L1056.8,116.1z M991.1,93.4
	c-0.1,0.2,0,0.4,0.1,0.7c0.1,0.2,0.3,0.3,0.5,0.4l64.9,16.9c0.1,0,0.2,0,0.2,0c0.2,0,0.3,0,0.4-0.1c0.2-0.1,0.3-0.3,0.4-0.5l17.4-63
	c0.1-0.2,0-0.5-0.1-0.7s-0.3-0.3-0.5-0.4l-60.9-15.8l23.8,23.2c0.2,0.2,0.4,0.5,0.5,0.7l0.1,0.1v0.2l3.7,10.6
	c0.1,0.2,0.1,0.3,0.1,0.4l18.1,4.7c1.2,0.3,2,1.4,1.8,2.6s-1.2,2.1-2.5,2.1c-0.2,0-0.4,0-0.7-0.1l-19-4.9c-0.6,0.3-1.2,0.4-1.9,0.4
	c-0.5,0-0.9-0.1-1.3-0.2l-11.2-3.6l0,0c-0.3-0.1-0.6-0.3-0.8-0.5l-20.5-19.8L991.1,93.4z M1068.5,90.2l14.4-3.7
	c0.5-0.1,0.7-0.6,0.6-1l-6.8-24.7L1068.5,90.2z M1036.5,65.7l-1.9-5.6l-3.8,3.7L1036.5,65.7z M1026.2,61.5l1.2-1.2L1013.7,47
	c-0.5-0.5-0.7-1.1-0.7-1.7s0.3-1.2,0.7-1.7s1.1-0.7,1.8-0.7s1.3,0.2,1.8,0.7l13.7,13.3l1.2-1.2l-22.6-22l-1.2,1.2l4.2,4.1
	c0.6,0.6,0.9,1.5,0.6,2.3c-0.2,0.8-0.9,1.5-1.8,1.7c-0.2,0-0.4,0.1-0.6,0.1c-0.7,0-1.3-0.2-1.8-0.7l-4.2-4.1l-1.2,1.2L1026.2,61.5z
	 M1071.2,40.8l-3.2-11.7c-0.1-0.2-0.2-0.4-0.4-0.5c-0.1-0.1-0.3-0.1-0.4-0.1s-0.2,0-0.2,0l-21.5,5.6L1071.2,40.8z M1000,36.2l6-5.8
	l-1.2-1.2l-6,5.8L1000,36.2z M995.3,21.6c-0.6,0-1.1,0.1-1.6,0.3c-1.6,0.6-2.6,2.1-2.6,3.8c0,1.1,0.5,2.1,1.2,2.9l3,2.9l6-5.8
	l-3-2.9C997.5,22,996.4,21.6,995.3,21.6z"/>
<path class="st3" d="M1064.5,56.7c-0.2,0-0.4,0-0.6-0.1l-23.9-6.2c-0.9-0.2-1.6-0.8-1.8-1.7s0-1.7,0.7-2.4c0.5-0.4,1.1-0.7,1.7-0.7
	c0.2,0,0.5,0,0.7,0.1l23.9,6.2c1.2,0.3,2,1.4,1.8,2.6C1066.8,55.8,1065.8,56.7,1064.5,56.7L1064.5,56.7z"/>
<path class="st3" d="M1061.9,66.1c-0.2,0-0.4,0-0.6-0.1l-16.2-4.2c-0.8-0.2-1.5-0.9-1.8-1.7c-0.2-0.8,0-1.7,0.7-2.3
	c0.5-0.5,1.1-0.7,1.7-0.7c0.2,0,0.5,0,0.7,0.1l16.2,4.2c1.2,0.3,2,1.4,1.8,2.6C1064.2,65.2,1063.1,66.1,1061.9,66.1L1061.9,66.1z"/>
<path class="st3" d="M1009.7,72.8c-0.2,0-0.4,0-0.6-0.1l-4.9-1.3c-0.8-0.2-1.5-0.8-1.8-1.7c-0.2-0.8,0-1.7,0.7-2.3
	c0.5-0.4,1.1-0.7,1.7-0.7c0.2,0,0.5,0,0.7,0.1l4.8,1.3c1.2,0.3,2,1.4,1.8,2.6S1010.9,72.8,1009.7,72.8L1009.7,72.8z"/>
<path class="st3" d="M1056.7,85c-0.2,0-0.4,0-0.7-0.1l-37.3-9.7c-1.3-0.4-2-1.7-1.6-2.9c0.3-1.1,1.3-1.8,2.4-1.8c0.2,0,0.3,0,0.5,0
	l37.4,9.7c1.3,0.3,2.1,1.7,1.8,2.9C1058.8,84.2,1057.8,85,1056.7,85L1056.7,85z"/>
<path class="st3" d="M1007,82.2c-0.2,0-0.4,0-0.6-0.1l-4.9-1.3c-1.3-0.3-2.1-1.7-1.8-2.9c0.3-1.1,1.3-1.8,2.4-1.8
	c0.2,0,0.4,0,0.6,0.1l4.9,1.3c1.2,0.3,2,1.4,1.8,2.6C1009.3,81.3,1008.3,82.2,1007,82.2v-0.8V82.2z"/>
<path class="st3" d="M1054.1,94.4c-0.2,0-0.4,0-0.7-0.1l-37.3-9.7c-0.9-0.2-1.5-0.8-1.8-1.7c-0.2-0.8,0-1.8,0.7-2.4
	c0.5-0.4,1.1-0.7,1.7-0.7c0.2,0,0.5,0,0.7,0.1l37.3,9.7c1.2,0.3,2,1.4,1.8,2.6C1056.4,93.5,1055.3,94.4,1054.1,94.4L1054.1,94.4z"/>
<path class="st3" d="M65.4,93.6c-11.1,0-21.5-4.2-29.4-11.8c-7.9-7.6-12.2-17.7-12.2-28.5S28.1,32.4,36,24.8S54.4,13,65.4,13
	c11.1,0,21.5,4.2,29.4,11.8c7.8,7.6,12.2,17.7,12.2,28.5s-4.3,20.9-12.2,28.5C87,89.4,76.6,93.6,65.4,93.6z M65.4,18.3
	c-19.9,0-36,15.7-36,35s16.2,35,36,35s36-15.7,36-35S85.3,18.3,65.4,18.3z"/>
<path class="st3" d="M65.4,73.4c-1.5,0-2.8-1.2-2.8-2.7V57.8c0-1.5,1.2-2.7,2.8-2.7s2.8,1.2,2.8,2.7v12.9
	C68.2,72.2,67,73.4,65.4,73.4z"/>
<path class="st3" d="M47.5,56c-1.5,0-2.8-1.2-2.8-2.7s1.2-2.7,2.8-2.7h15.2V35.9c0-1.5,1.2-2.7,2.8-2.7s2.8,1.2,2.8,2.7v14.7h15.2
	c1.5,0,2.8,1.2,2.8,2.7S84.9,56,83.4,56H47.5L47.5,56z"/>
<path class="st3" d="M651.8,85.4c-4.1,0-6.9-3.2-6.9-7.8V45.5c0-4.6,2.8-7.8,6.9-7.8c1.5,0,3.1,0.5,4.7,1.3l28.7,16
	c2.8,1.6,4.4,3.9,4.4,6.5s-1.6,4.9-4.4,6.5l-28.7,16.1C654.8,85,653.3,85.4,651.8,85.4z M651.8,43.4c-0.9,0-1,1.3-1,2.1v32.1
	c0,0.8,0.1,2.1,1,2.1c0.5,0,1.1-0.2,1.7-0.6l28.7-16c1-0.6,1.5-1.2,1.5-1.5s-0.5-1-1.5-1.5l-28.7-16
	C652.8,43.6,652.2,43.4,651.8,43.4z"/>
<g class="st1">
	<path class="st2" d="M794.7,71.7c-0.7,0-1.4-0.3-1.9-0.8c-1.1-1-1.1-2.7,0-3.7c2.1-2.1,3.3-4.8,3.3-7.8s-1.2-5.7-3.3-7.8
		c-0.5-0.5-0.8-1.2-0.8-1.9s0.3-1.4,0.8-1.9s1.2-0.8,1.9-0.8s1.4,0.3,1.9,0.8c3.2,3.1,4.9,7.2,4.9,11.5s-1.7,8.4-4.9,11.5
		C796.1,71.4,795.4,71.7,794.7,71.7z"/>
	<path class="st2" d="M794.7,71.3c-0.6,0-1.2-0.2-1.6-0.7c-0.9-0.9-0.9-2.3,0-3.2c2.2-2.2,3.4-5,3.4-8s-1.2-5.9-3.4-8.1
		c-0.9-0.9-0.9-2.3,0-3.2s2.4-0.9,3.3,0c3.1,3,4.8,7,4.8,11.2s-1.7,8.2-4.8,11.2C795.9,71.1,795.3,71.3,794.7,71.3z"/>
	<path class="st2" d="M801.1,79.7c-0.7,0-1.4-0.3-1.9-0.8c-1.1-1-1.1-2.7,0-3.7c4.3-4.2,6.7-9.7,6.7-15.6s-2.4-11.4-6.7-15.6
		c-0.5-0.5-0.8-1.2-0.8-1.9s0.3-1.4,0.8-1.9s1.2-0.8,1.9-0.8s1.4,0.3,1.9,0.8c5.3,5.2,8.2,12,8.2,19.3s-2.9,14.2-8.2,19.3
		C802.5,79.4,801.8,79.7,801.1,79.7z"/>
	<path class="st2" d="M801.1,79.3c-0.6,0-1.2-0.2-1.6-0.7c-0.9-0.9-0.9-2.3,0-3.2c4.4-4.2,6.8-9.9,6.8-15.9s-2.4-11.6-6.8-15.9
		c-0.9-0.9-0.9-2.3,0-3.2s2.4-0.9,3.3,0c5.2,5.1,8.1,11.9,8.1,19.1s-2.9,14-8.1,19.1C802.3,79.1,801.7,79.3,801.1,79.3z"/>
	<path class="st2" d="M771.2,59.2c-1.1,0-2.1-0.6-2.5-1.6c-0.6-1.3,0-2.9,1.4-3.5l13.8-5.8l-0.5-3.1c-0.2-1.3,0.6-2.5,1.9-3
		c3-0.9,7.4-3.3,7.4-5.2c0-1-0.7-1.6-3.4-3.6c-3.5-2.6-8.9-6.5-13.7-15.4c-0.3-0.6-0.4-1.3-0.2-2c0.2-0.7,0.7-1.2,1.3-1.5
		c0.4-0.2,0.8-0.3,1.2-0.3c1,0,1.9,0.5,2.4,1.4c4.2,7.9,8.8,11.2,12.1,13.6c3,2.2,5.6,4.1,5.6,7.8c0,4.9-5.5,7.9-8.9,9.4l0.5,3
		c0.2,1.2-0.5,2.4-1.6,2.8L772.3,59C771.9,59.2,771.5,59.2,771.2,59.2z"/>
	<path class="st2" d="M771.2,58.8c-0.9,0-1.7-0.5-2.1-1.3c-0.5-1.1,0-2.5,1.2-3l14.1-5.9l-0.6-3.4c-0.2-1.1,0.5-2.2,1.6-2.5
		c3.1-1,7.6-3.4,7.6-5.5c0-1.2-0.9-2-3.6-3.9c-3.5-2.5-8.8-6.4-13.6-15.3c-0.6-1.1-0.2-2.4,1-3c1.1-0.6,2.5-0.1,3.1,0.9
		c4.3,8,8.9,11.3,12.2,13.8c2.9,2.1,5.4,3.9,5.4,7.5c0,4.8-5.8,7.8-9,9.1l0.6,3.3c0.2,1-0.4,2-1.4,2.4L772,58.6
		C771.8,58.8,771.5,58.8,771.2,58.8z"/>
	<path class="st2" d="M774.8,85.1c-16.1,0-30.3-15.7-30.3-33.6c0-19.1,10.9-33.8,27.2-36.7c0.2,0,0.3,0,0.5,0c1.3,0,2.4,0.9,2.7,2.2
		c0.1,0.7,0,1.4-0.4,2s-1,1-1.8,1.1C758.9,22.4,750,34.7,750,51.5c0,14.8,11.8,28.4,24.8,28.4c2.1,0,4.9-0.3,6.1-1.8
		c1.2-1.5,0.8-4.2,0.2-6.2c-0.2-0.7-0.1-1.4,0.3-2l1.7-2.9l-9-3.8c-0.7-0.3-1.2-0.8-1.5-1.4c-0.3-0.7-0.3-1.4,0-2
		c0.4-1,1.4-1.6,2.5-1.6c0.4,0,0.7,0.1,1.1,0.2l11.8,5c0.7,0.3,1.3,0.9,1.5,1.6s0.2,1.5-0.2,2.1l-2.7,4.5c1,4.1,0.5,7.3-1.4,9.7
		C783.2,83.8,779.7,85.1,774.8,85.1z"/>
	<path class="st2" d="M774.8,84.7c-15.9,0-29.9-15.5-29.9-33.2c0-18.9,10.8-33.5,26.9-36.3c1.2-0.2,2.5,0.6,2.7,1.8
		c0.2,1.2-0.6,2.4-1.9,2.6c-14,2.5-23.1,15-23.1,31.9c0,15.1,12,28.8,25.2,28.8c2.2,0,5.1-0.3,6.4-2c1.3-1.7,0.8-4.5,0.2-6.6
		c-0.2-0.6-0.1-1.2,0.2-1.7l1.9-3.2l-9.5-4c-1.2-0.5-1.7-1.8-1.2-3s1.9-1.7,3-1.2l11.8,5c0.6,0.2,1.1,0.8,1.3,1.4s0.1,1.3-0.2,1.8
		l-2.8,4.6c1,4,0.5,7.2-1.3,9.6C782.9,83.4,779.5,84.7,774.8,84.7z"/>
</g>
<g class="st1">
	<path class="st2" d="M881.8,31.6c-0.5-1.1-1.6-1.9-2.9-1.9c-1.3,0-2.4,0.7-2.9,1.9l-8.1,18.9c-0.7,1.6,0.1,3.4,1.7,4
		c1.6,0.7,3.5-0.1,4.1-1.7l0.5-1.1h9.5l0.5,1.1c0.5,1.2,1.7,1.9,2.9,1.9c0.4,0,0.8-0.1,1.2-0.2c1.6-0.7,2.4-2.5,1.7-4L881.8,31.6z
		 M876.8,45.6l2.1-4.9l2.1,4.9H876.8z"/>
	<path class="st2" d="M847.7,29.7c-1.8,0-3.2,1.4-3.2,3.1v18.9c0,1.7,1.4,3.1,3.2,3.1s3.2-1.4,3.2-3.1v-6.4h8v6.4
		c0,1.7,1.4,3.1,3.2,3.1s3.2-1.4,3.2-3.1v-19c0-1.7-1.4-3.1-3.2-3.1s-3.2,1.4-3.2,3.1v6.4h-8v-6.4C850.8,31,849.4,29.7,847.7,29.7z"
		/>
	<path class="st2" d="M888.1,61.6l-6.8,15.9l0,0l-1.3,2.9c-0.7,1.6,0.1,3.4,1.7,4c0.4,0.2,0.8,0.2,1.2,0.2c1.2,0,2.4-0.7,2.9-1.9
		l0.5-1.1h9.5l0.5,1.1c0.7,1.6,2.5,2.3,4.1,1.7c1.6-0.7,2.4-2.4,1.7-4L894,61.5c-0.5-1.1-1.6-1.9-2.9-1.9
		C889.7,59.7,888.6,60.5,888.1,61.6z M888.9,75.7l2.1-4.9l2.1,4.9H888.9z"/>
	<path class="st2" d="M912,62.8c0-1.7-1.4-3.1-3.2-3.1s-3.2,1.4-3.2,3.1V74c0,1.7,1.4,3.1,3.2,3.1s3.2-1.4,3.2-3.1V62.8z"/>
	<path class="st2" d="M862.9,62.8c0-1.7-1.4-3.1-3.2-3.1s-3.2,1.4-3.2,3.1v18.9c0,1.7,1.4,3.1,3.2,3.1s3.2-1.4,3.2-3.1v-6.4h8v6.4
		c0,1.7,1.4,3.1,3.2,3.1s3.2-1.4,3.2-3.1V62.8c0-1.7-1.4-3.1-3.2-3.1s-3.2,1.4-3.2,3.1v6.4h-8V62.8z"/>
	<path class="st2" d="M902.7,39.1h-6.6c-1.8,0-3.2,1.4-3.2,3.1c0,1.7,1.4,3.1,3.2,3.1h6.6c1.8,0,3.2-1.4,3.2-3.1
		S904.5,39.1,902.7,39.1z"/>
	<path class="st2" d="M906.6,79.5c-0.6,0.6-0.9,1.4-0.9,2.2s0.3,1.6,0.9,2.2c0.6,0.6,1.4,0.9,2.2,0.9c0.9,0,1.6-0.3,2.2-0.9
		c0.6-0.6,0.9-1.3,0.9-2.2c0-0.8-0.3-1.6-0.9-2.2C909.9,78.4,907.7,78.4,906.6,79.5z"/>
	<path class="st2" d="M913,14.7h-69.5c-8.1,0-14.7,6.4-14.7,14.2v56.6c0,7.8,6.6,14.2,14.7,14.2h6.3c1.8,0,3.2-1.4,3.2-3.1
		s-1.4-3.1-3.2-3.1h-6.3c-4.6,0-8.3-3.6-8.3-8.1V28.9c0-4.5,3.7-8.1,8.3-8.1H913c4.6,0,8.3,3.6,8.3,8.1v56.6c0,4.5-3.7,8.1-8.3,8.1
		h-37c-0.6,0-1.2,0.2-1.7,0.5l-13,7.9v-5.3c0-1.7-1.4-3.1-3.2-3.1s-3.2,1.4-3.2,3.1v10.8c0,1.1,0.6,2.1,1.6,2.7
		c0.5,0.3,1,0.4,1.5,0.4c0.6,0,1.2-0.2,1.7-0.5l17.1-10.4H913c8.1,0,14.7-6.4,14.7-14.2V28.9C927.7,21.1,921.1,14.7,913,14.7z"/>
</g>
<g class="st1">
	<path class="st2" d="M667.2,216.9h137.7c1.5,0,2.8-1.2,2.8-2.7s-1.2-2.7-2.8-2.7h-8.4v-21.7c3.2,0,6.1-1.7,7.5-4.5
		c2.1-4,0.4-8.9-3.8-10.9l0,0L766.8,159v-11.1l3.5,2.4c3.8,2.6,9.1,1.7,11.7-1.9c2.7-3.7,1.8-8.8-2-11.4l-39.2-27.2
		c-0.7-0.4-1.3-0.8-2.1-1V97.4h2.8c1.5,0,2.8-1.2,2.8-2.7s-1.2-2.7-2.8-2.7h-2.8v-2.7c0-1.5-1.2-2.7-2.8-2.7s-2.8,1.2-2.8,2.7V92
		h-2.8c-1.5,0-2.8,1.2-2.8,2.7s1.2,2.7,2.8,2.7h2.8v11.3c-0.7,0.2-1.4,0.6-2.1,1.1l-28,19.4c-1.3,0.9-1.5,2.6-0.7,3.8
		c0.9,1.2,2.7,1.5,3.9,0.6l28-19.4c0.5-0.3,1-0.5,1.6-0.5s1.2,0.2,1.6,0.5l39.2,27.2c1.3,0.9,1.5,2.6,0.7,3.8
		c-0.9,1.2-2.6,1.5-3.9,0.6l-35.9-24.9c-1-0.7-2.3-0.7-3.2,0l-35.9,24.9c-1.3,0.9-3,0.6-3.9-0.6c-0.9-1.2-0.6-2.9,0.7-3.8l11.2-7.8
		c1.3-0.9,1.5-2.6,0.7-3.8c-0.9-1.2-2.7-1.5-3.9-0.6L692,137c-3.8,2.6-4.7,7.7-2,11.4c2.7,3.6,7.9,4.5,11.7,1.9l3.5-2.4V159
		l-33.4,15.4c-4.1,2-5.8,6.9-3.8,10.9c1.4,2.8,4.3,4.5,7.5,4.5v21.7h-8.4c-1.5,0-2.8,1.2-2.8,2.7S665.7,216.9,667.2,216.9
		L667.2,216.9z M744.5,211.5h-16.8v-19c0-4.5,3.8-8.1,8.4-8.1s8.4,3.7,8.4,8.1L744.5,211.5L744.5,211.5z M779.7,211.5v-8.1
		c0-1.5-1.2-2.7-2.8-2.7s-2.8,1.2-2.8,2.7v8.1h-7.3V177l24.1,11v23.4L779.7,211.5L779.7,211.5z M797.8,179.2
		c1.4,0.7,1.9,2.3,1.2,3.6c-0.6,1.2-2.2,1.9-3.8,1.2l-28.4-13v-6.1L797.8,179.2z M736.1,126.4l25.2,17.5v67.6H750v-19
		c0-7.5-6.3-13.6-14-13.6s-14,6.1-14,13.6v19h-11.2v-67.6L736.1,126.4z M673.1,182.8c-0.7-1.3-0.1-3,1.2-3.6l31-14.3v6.1L677,184
		C675.2,184.7,673.7,184,673.1,182.8L673.1,182.8z M681.2,188l24.1-11v34.5H698v-8.1c0-1.5-1.2-2.7-2.8-2.7s-2.8,1.2-2.8,2.7v8.1
		h-11.2V188L681.2,188z"/>
	<path class="st2" d="M734.3,172.8c0.5,0.4,1.1,0.6,1.8,0.6s1.2-0.2,1.8-0.6c8.5-6.6,15-10.4,15-17.1c0-5.3-4.3-9.5-9.8-9.5
		c-3.1,0-5.4,1.3-7,2.9c-1.6-1.6-3.9-2.9-7-2.9c-5.5,0-9.8,4.2-9.8,9.5C719.3,162.4,725.8,166.2,734.3,172.8L734.3,172.8z
		 M729.1,151.7c3.1,0,4.2,3.2,4.3,3.5c0.4,1.1,1.5,1.9,2.7,1.9s2.3-0.8,2.7-1.9c0,0,1.1-3.5,4.3-3.5c2.8,0,4.2,2.1,4.2,4.1
		c0,3.3-4.6,6.4-11.2,11.5c-6.9-5.3-11.2-8.2-11.2-11.5C724.9,153.8,726.3,151.7,729.1,151.7L729.1,151.7z"/>
</g>
<g class="st1">
	<path class="st2" d="M389.3,99.2c-0.8,0-1.6-0.2-2.3-0.7c-7.4-4.7-17.5-12.7-19.9-27c-0.9-5.6,0-14.3,5.6-20.6
		c3.8-4.3,9.1-6.6,15.4-6.6c9.1,0,16.4,5.1,19.6,13.6c4,10.6,0.7,23.4-7.8,30.5c-0.7,0.6-1.7,0.9-2.6,0.9c-1.2,0-2.4-0.5-3.1-1.4
		c-0.7-0.8-1-1.8-1-2.9c0.1-1.1,0.6-2,1.4-2.7c5.9-4.9,8.2-14.2,5.4-21.6c-1.2-3.1-4.3-8.4-11.9-8.4c-3.9,0-6.9,1.3-9.2,3.8
		c-3.5,3.9-4.3,10.1-3.7,14.1c1.9,11.2,10.2,17.7,16.3,21.6c0.9,0.6,1.5,1.5,1.8,2.5c0.2,1,0,2.1-0.6,3
		C392,98.6,390.7,99.2,389.3,99.2z"/>
	<path class="st2" d="M353.1,142.9c-2.3,0-4.1-1.8-4.1-4c0-9.6,0.2-23,2.4-29.3c3.4-9.8,18.9-15.9,20.6-16.6c0.5-0.2,1-0.3,1.5-0.3
		c1.7,0,3.2,1,3.8,2.5c2.2,5.4,6.7,8.7,11.6,8.7s9.2-3.2,11.5-8.7c0.4-1,1.2-1.8,2.2-2.2c0.5-0.2,1-0.3,1.6-0.3
		c0.5,0,1.1,0.1,1.6,0.3c1.6,0.7,15.9,6.8,19.3,16.5c2,5.9,2,10.1,1.9,14.5c0,0.9,0,1.8,0,2.8c0,2.2-1.8,4-4.1,4s-4.1-1.8-4.1-4
		c0-1,0-2,0-3c0.1-4.2,0.1-7.2-1.5-11.8c-1.5-4.2-7.5-8-10.9-9.8l-0.3-0.2l-0.2,0.3c-4,6.1-10.1,9.6-16.9,9.6
		c-6.9,0-13.2-3.5-17.2-9.7l-0.2-0.3l-0.3,0.2c-2.4,1.2-10.5,5.4-12,10c-0.8,2.4-1.8,8.2-2,22.4v0.4h66c2.3,0,4.1,1.8,4.1,4
		s-1.8,4-4.1,4L353.1,142.9L353.1,142.9z"/>
	<path class="st2" d="M431.1,106c-2.3,0-4.1-1.8-4.1-4s1.8-4,4.1-4c6.5,0,11.7-6.5,11.7-14.5S437.5,69,431.1,69
		c-3.3,0-6.6,1.9-8.6,4.9c-1.4,2.2-3.4,6.8-0.3,13.4c0.5,1,0.5,2.1,0.1,3.1s-1.1,1.8-2.1,2.2c-0.5,0.2-1.1,0.4-1.7,0.4
		c-1.6,0-3.1-0.9-3.7-2.3c-3.5-7.3-3.2-14.9,0.8-21c3.5-5.3,9.3-8.5,15.5-8.5c11,0,20,10.1,20,22.5C451,95.9,442.1,106,431.1,106z"
		/>
	<path class="st2" d="M436.8,138.8c-2.3,0-4.1-1.8-4.1-4s1.8-4,4.1-4h13.5v-0.4c-0.2-2.7-0.6-6.6-1.2-9.8c-1-5.1-3.8-7.9-6-9.5
		c-0.9-0.6-1.5-1.5-1.7-2.6s0.1-2.1,0.7-3c0.8-1.1,2-1.7,3.4-1.7c0.9,0,1.7,0.3,2.4,0.7c2.8,1.9,7.8,6.4,9.3,14.5
		c1.3,6.5,1.6,14.7,1.6,15.6c0,1.1-0.4,2.1-1.1,2.9s-1.9,1.2-3,1.2L436.8,138.8L436.8,138.8z"/>
	<path class="st2" d="M346.2,106c-11,0-20-10.1-20-22.5s9-22.5,20-22.5c6.2,0,12,3.2,15.5,8.5c4,6.1,4.3,13.7,0.8,21
		c-0.7,1.4-2.1,2.3-3.7,2.3c-0.6,0-1.2-0.1-1.7-0.4c-1-0.4-1.8-1.2-2.1-2.2s-0.3-2.1,0.1-3.1c3.1-6.5,1.1-11.2-0.3-13.4
		c-2-3-5.3-4.9-8.6-4.9c-6.5,0-11.7,6.5-11.7,14.5s5.3,14.5,11.7,14.5c2.3,0,4.1,1.8,4.1,4C350.3,104.2,348.5,106,346.2,106z"/>
	<path class="st2" d="M322.7,138.8c-1.1,0-2.2-0.4-3-1.2s-1.2-1.8-1.1-2.9c0-0.9,0.4-9.1,1.7-15.6c1.4-7.4,5.6-11.8,8.9-14.2
		c0.7-0.5,1.6-0.8,2.5-0.8c1.3,0,2.5,0.6,3.3,1.6c1.4,1.8,1,4.3-0.8,5.6c-2.1,1.5-4.8,4.3-5.7,9.2c-0.6,3.3-1,7.2-1.2,9.9v0.4h13.5
		c2.3,0,4.1,1.8,4.1,4s-1.8,4-4.1,4H322.7L322.7,138.8z"/>
	<path class="st2" d="M388.2,30.7c-2.3,0-4.1-1.8-4.1-4V11c0-2.2,1.8-4,4.1-4s4.1,1.8,4.1,4v15.8C392.3,28.9,390.5,30.7,388.2,30.7z
		"/>
	<path class="st2" d="M380.1,22.8c-2.3,0-4.1-1.8-4.1-4s1.8-4,4.1-4h16.3c2.3,0,4.1,1.8,4.1,4s-1.8,4-4.1,4H380.1z"/>
	<path class="st2" d="M355.3,50.2c-2.3,0-4.1-1.8-4.1-4V30.4c0-2.2,1.8-4,4.1-4s4.1,1.8,4.1,4v15.8
		C359.4,48.4,357.6,50.2,355.3,50.2z"/>
	<path class="st2" d="M347.1,42.3c-2.3,0-4.1-1.8-4.1-4s1.8-4,4.1-4h16.3c2.3,0,4.1,1.8,4.1,4s-1.8,4-4.1,4H347.1z"/>
	<path class="st2" d="M421.2,50.2c-2.3,0-4.1-1.8-4.1-4V30.4c0-2.2,1.8-4,4.1-4s4.1,1.8,4.1,4v15.8
		C425.3,48.4,423.4,50.2,421.2,50.2z"/>
	<path class="st2" d="M413,42.3c-2.3,0-4.1-1.8-4.1-4s1.8-4,4.1-4h16.3c2.3,0,4.1,1.8,4.1,4s-1.8,4-4.1,4H413z"/>
</g>
<path class="st3" d="M672.8,120.2c1.3,0,2.4-1,2.4-2.3v-7c0-1.3-1.1-2.3-2.4-2.3c-1.3,0-2.4,1-2.4,2.3v7
	C670.4,119.1,671.5,120.2,672.8,120.2L672.8,120.2z"/>
<path class="st3" d="M672.8,124.8c-1.3,0-2.4,1-2.4,2.3v7c0,1.3,1.1,2.3,2.4,2.3s2.4-1,2.4-2.3v-7
	C675.2,125.9,674.1,124.8,672.8,124.8L672.8,124.8z"/>
<path class="st3" d="M668,120.2h-7.2c-1.3,0-2.4,1-2.4,2.3s1.1,2.3,2.4,2.3h7.2c1.3,0,2.4-1,2.4-2.3S669.3,120.2,668,120.2
	L668,120.2z"/>
<path class="st3" d="M684.8,124.8c1.3,0,2.4-1,2.4-2.3s-1.1-2.3-2.4-2.3h-7.2c-1.3,0-2.4,1-2.4,2.3s1.1,2.3,2.4,2.3H684.8z"/>
<path class="st3" d="M807.7,146.4c1.3,0,2.4-1,2.4-2.3v-7c0-1.3-1.1-2.3-2.4-2.3c-1.3,0-2.4,1-2.4,2.3v7
	C805.3,145.4,806.4,146.4,807.7,146.4L807.7,146.4z"/>
<path class="st3" d="M807.7,151.1c-1.3,0-2.4,1-2.4,2.3v7c0,1.3,1.1,2.3,2.4,2.3s2.4-1,2.4-2.3v-7
	C810.1,152.1,809,151.1,807.7,151.1L807.7,151.1z"/>
<path class="st3" d="M802.9,146.4h-7.2c-1.3,0-2.4,1-2.4,2.3s1.1,2.3,2.4,2.3h7.2c1.3,0,2.4-1,2.4-2.3
	C805.3,147.5,804.3,146.4,802.9,146.4L802.9,146.4z"/>
<path class="st3" d="M819.7,151.1c1.3,0,2.4-1,2.4-2.3s-1.1-2.3-2.4-2.3h-7.2c-1.3,0-2.4,1-2.4,2.3s1.1,2.3,2.4,2.3H819.7z"/>
<g class="st1">
	<path class="st2" d="M867.6,171.4L867.6,171.4c-0.8,0-1.6-0.3-2.2-0.9l-19.9-19.3c-2.3-2.3-3.6-5.3-3.6-8.5s1.3-6.2,3.6-8.5
		c4.8-4.7,12.7-4.7,17.6,0l4.5,4.3l4.5-4.3c2.3-2.3,5.5-3.5,8.8-3.5s6.4,1.2,8.8,3.5s3.6,5.3,3.6,8.5s-1.3,6.2-3.6,8.5l-19.9,19.3
		C869.2,171.1,868.4,171.4,867.6,171.4z M854.4,136.6c-1.6,0-3.2,0.6-4.5,1.8c-1.2,1.2-1.8,2.7-1.8,4.3s0.7,3.2,1.8,4.3l17.7,17.2
		l17.7-17.2c1.2-1.2,1.8-2.7,1.8-4.3s-0.7-3.2-1.8-4.3s-2.8-1.8-4.5-1.8s-3.3,0.6-4.5,1.8l-6.6,6.4c-0.6,0.6-1.3,0.9-2.2,0.9l0,0
		c-0.8,0-1.6-0.3-2.2-0.9l-6.6-6.4C857.6,137.2,856,136.6,854.4,136.6z"/>
</g>
<g class="st1">
	<path class="st2" d="M1131,63L1131,63c-0.8,0-1.6-0.3-2.2-0.9l-19.9-19.3c-2.3-2.3-3.6-5.3-3.6-8.5s1.3-6.2,3.6-8.5
		c4.8-4.7,12.7-4.7,17.6,0l4.4,4.3l4.5-4.3c2.3-2.3,5.5-3.5,8.8-3.5s6.4,1.2,8.8,3.5c2.3,2.3,3.6,5.3,3.6,8.5s-1.3,6.2-3.6,8.5
		l-19.9,19.3C1132.6,62.7,1131.8,63,1131,63z M1117.7,28.2c-1.6,0-3.2,0.6-4.5,1.8c-1.2,1.2-1.8,2.7-1.8,4.3s0.7,3.2,1.8,4.3
		l17.7,17.2l17.7-17.2c1.2-1.2,1.8-2.7,1.8-4.3s-0.7-3.2-1.8-4.3s-2.8-1.8-4.5-1.8s-3.3,0.6-4.5,1.8l-6.6,6.4
		c-0.6,0.6-1.3,0.9-2.2,0.9l0,0c-0.8,0-1.6-0.3-2.2-0.9L1122,30C1121,28.8,1119.3,28.2,1117.7,28.2z"/>
</g>
<polyline class="st4" points="112.2,120.2 96.4,107.5 80.2,120.2 64.4,107.5 48.3,120.2 32.5,107.5 16.4,120.2 "/>
<polyline class="st4" points="239.8,33.3 224,20.7 207.9,33.3 192.1,20.7 175.9,33.3 160.1,20.7 144,33.3 "/>
<path class="st3" d="M290,80.8c-1,0-2,0.2-3,0.6c-3,1.3-5,4-5,6.9c0,4,3.4,7.1,7.8,7.1c4.6,0,7.5-3.6,7.5-6.9
	C297.3,85.9,295.5,80.8,290,80.8z"/>
<path class="st3" d="M290,104.8c-0.8,0-1.6,0.2-2.3,0.5c-2.3,1-3.9,3.1-3.9,5.3c0,3.1,2.6,5.5,6,5.5c3.6,0,5.8-2.8,5.8-5.3
	C295.6,108.8,294.2,104.8,290,104.8z"/>
<path class="st3" d="M289.9,126.8c-0.6,0-1.2,0.1-1.7,0.4c-1.7,0.7-2.9,2.3-2.9,4c0,2.3,2,4.1,4.5,4.1c2.7,0,4.4-2.1,4.4-4
	C294.1,129.9,293.1,126.8,289.9,126.8z"/>
<linearGradient id="SVGID_1_" gradientUnits="userSpaceOnUse" x1="-3.3955" y1="812.2354" x2="1401.7028" y2="639.711" gradientTransform="matrix(1 0 0 1 0 -609.8898)">
	<stop  offset="0" style="stop-color:#CF6B2C"/>
	<stop  offset="9.265524e-02" style="stop-color:#B05D35"/>
	<stop  offset="0.2339" style="stop-color:#874C41"/>
	<stop  offset="0.3788" style="stop-color:#653D4B"/>
	<stop  offset="0.5259" style="stop-color:#4B3252"/>
	<stop  offset="0.6763" style="stop-color:#382958"/>
	<stop  offset="0.8316" style="stop-color:#2D255B"/>
	<stop  offset="1" style="stop-color:#29235C"/>
</linearGradient>
<path class="st5" d="M17,0h1366c9.4,0,17,7.6,17,17v213H0V17C0,7.6,7.6,0,17,0z"/>
<g>
	<path class="st2" d="M36.3,167c2.5,0,4.7,0.2,6.4,0.7c1.8,0.5,3.2,1.1,4.3,2s1.9,1.9,2.4,3.1c0.5,1.2,0.8,2.6,0.8,4.1
		c0,0.8-0.1,1.6-0.4,2.4c-0.2,0.8-0.6,1.5-1.1,2.1c-0.5,0.7-1.1,1.3-1.9,1.8c-0.8,0.6-1.7,1-2.8,1.4c2.4,0.6,4.2,1.5,5.3,2.8
		s1.7,3,1.7,5.1c0,1.5-0.3,3-0.9,4.3c-0.6,1.3-1.5,2.5-2.6,3.5c-1.2,1-2.6,1.8-4.3,2.3c-1.7,0.6-3.6,0.8-5.8,0.8H22.9V167H36.3z
		 M31.4,173.4v9h4.4c0.9,0,1.8-0.1,2.5-0.2s1.4-0.4,1.9-0.7s0.9-0.8,1.2-1.4c0.3-0.6,0.4-1.3,0.4-2.2s-0.1-1.6-0.3-2.2
		c-0.2-0.6-0.6-1-1-1.4c-0.5-0.3-1-0.6-1.7-0.8s-1.5-0.2-2.5-0.2L31.4,173.4L31.4,173.4z M37.3,197.1c1.1,0,2-0.1,2.7-0.4
		c0.7-0.3,1.3-0.7,1.7-1.1c0.4-0.4,0.7-1,0.8-1.5s0.2-1.1,0.2-1.7c0-0.7-0.1-1.3-0.3-1.8s-0.5-1-0.9-1.3c-0.4-0.4-1-0.7-1.7-0.9
		s-1.6-0.3-2.6-0.3h-5.9v9.1h6V197.1z"/>
	<path class="st2" d="M88.4,203.5h-6.6c-0.7,0-1.3-0.2-1.8-0.5s-0.8-0.8-1-1.3l-2.1-6.3H63.1l-2.1,6.3c-0.2,0.5-0.5,0.9-1,1.3
		s-1.1,0.6-1.8,0.6h-6.6L65.7,167h8.6L88.4,203.5z M75,189.5l-3.4-10c-0.2-0.6-0.5-1.4-0.8-2.2c-0.3-0.9-0.6-1.8-0.9-2.8
		c-0.2,1-0.5,2-0.8,2.8c-0.3,0.9-0.6,1.6-0.8,2.2l-3.4,9.9H75V189.5z"/>
	<path class="st2" d="M104.7,167c2.5,0,4.7,0.2,6.4,0.7c1.8,0.5,3.2,1.1,4.3,2s1.9,1.9,2.4,3.1c0.5,1.2,0.8,2.6,0.8,4.1
		c0,0.8-0.1,1.6-0.4,2.4c-0.2,0.8-0.6,1.5-1.1,2.1c-0.5,0.7-1.1,1.3-1.9,1.8c-0.8,0.6-1.7,1-2.8,1.4c2.4,0.6,4.2,1.5,5.3,2.8
		c1.1,1.3,1.7,3,1.7,5.1c0,1.5-0.3,3-0.9,4.3s-1.5,2.5-2.6,3.5c-1.2,1-2.6,1.8-4.3,2.3c-1.7,0.6-3.6,0.8-5.8,0.8H91.3V167H104.7z
		 M99.8,173.4v9h4.4c0.9,0,1.8-0.1,2.5-0.2s1.4-0.4,1.9-0.7s0.9-0.8,1.2-1.4c0.3-0.6,0.4-1.3,0.4-2.2s-0.1-1.6-0.3-2.2
		c-0.2-0.6-0.6-1-1-1.4c-0.5-0.3-1-0.6-1.7-0.8s-1.5-0.2-2.5-0.2L99.8,173.4L99.8,173.4z M105.7,197.1c1.1,0,2-0.1,2.7-0.4
		c0.7-0.3,1.3-0.7,1.7-1.1c0.4-0.4,0.7-1,0.8-1.5s0.2-1.1,0.2-1.7c0-0.7-0.1-1.3-0.3-1.8c-0.2-0.5-0.5-1-0.9-1.3
		c-0.4-0.4-1-0.7-1.7-0.9s-1.6-0.3-2.6-0.3h-5.9v9.1h6V197.1z"/>
	<path class="st2" d="M133.3,173.5v8.5h11.5v6.2h-11.5v8.7h15v6.5h-23.5V167h23.5v6.5H133.3z"/>
	<path class="st2" d="M175.4,196.7v6.8h-22V167h8.5v29.7H175.4z"/>
	<path class="st2" d="M189.7,187.6h11.6v2h-11.6V187.6z"/>
	<path class="st2" d="M242.4,179.7v0.8c0,0.4-0.2,0.6-0.7,0.7l-3.8,0.3c0.5,0.6,0.8,1.3,1.1,2.1s0.4,1.6,0.4,2.5
		c0,1.2-0.2,2.3-0.6,3.3s-1,1.8-1.8,2.5s-1.7,1.2-2.8,1.6c-1.1,0.4-2.3,0.6-3.6,0.6c-1.4,0-2.7-0.2-3.9-0.7
		c-0.7,0.4-1.3,0.9-1.7,1.4s-0.6,1.1-0.6,1.6c0,0.7,0.3,1.3,0.8,1.7s1.2,0.7,2,0.8c0.8,0.2,1.8,0.3,2.8,0.3c1.1,0,2.1,0.1,3.2,0.2
		c1.1,0.1,2.2,0.2,3.2,0.3c1.1,0.2,2,0.4,2.8,0.8c0.8,0.4,1.5,0.9,2,1.6c0.5,0.7,0.8,1.6,0.8,2.7c0,1-0.3,2-0.8,3s-1.3,1.8-2.2,2.5
		s-2.2,1.3-3.5,1.8s-2.9,0.7-4.6,0.7c-1.8,0-3.3-0.2-4.6-0.5s-2.4-0.8-3.3-1.5s-1.6-1.3-2-2.1c-0.5-0.8-0.7-1.6-0.7-2.5
		c0-1.3,0.4-2.4,1.3-3.4c0.9-0.9,2-1.7,3.5-2.2c-0.8-0.3-1.5-0.7-2-1.2s-0.8-1.3-0.8-2.2c0-0.4,0.1-0.7,0.2-1.1
		c0.1-0.4,0.3-0.8,0.6-1.1s0.6-0.7,1-1.1c0.4-0.3,0.8-0.6,1.3-0.9c-1.2-0.7-2.1-1.6-2.8-2.7c-0.7-1.1-1-2.5-1-4
		c0-1.2,0.2-2.3,0.6-3.3c0.4-1,1-1.8,1.8-2.5s1.7-1.2,2.8-1.6c1.1-0.4,2.3-0.6,3.6-0.6c1.1,0,2.1,0.1,3,0.4c0.9,0.3,1.8,0.6,2.5,1.1
		h6.5V179.7z M239.8,205.1c0-0.8-0.2-1.4-0.6-1.9c-0.4-0.5-1-0.8-1.6-1.1c-0.7-0.3-1.5-0.5-2.4-0.6s-1.8-0.2-2.8-0.2s-2-0.1-2.9-0.2
		c-1,0-1.9-0.1-2.8-0.3c-0.6,0.2-1.2,0.5-1.8,0.9c-0.5,0.3-1,0.7-1.4,1.1c-0.4,0.4-0.7,0.9-0.9,1.4s-0.3,1-0.3,1.6
		c0,0.7,0.2,1.4,0.6,2s0.9,1.2,1.7,1.6c0.7,0.5,1.6,0.8,2.7,1.1c1.1,0.3,2.3,0.4,3.6,0.4s2.4-0.1,3.5-0.4c1.1-0.3,2-0.7,2.9-1.2
		c0.8-0.5,1.4-1.1,1.9-1.8C239.6,206.8,239.8,206,239.8,205.1z M230.5,192.5c1.1,0,2-0.2,2.9-0.5c0.8-0.3,1.5-0.7,2.1-1.3
		s1-1.2,1.3-2s0.4-1.6,0.4-2.6c0-0.9-0.2-1.8-0.5-2.6s-0.8-1.4-1.3-2c-0.6-0.5-1.3-1-2.1-1.3s-1.8-0.5-2.8-0.5c-1.1,0-2,0.1-2.8,0.5
		c-0.8,0.3-1.5,0.7-2.1,1.3s-1,1.2-1.3,2s-0.5,1.6-0.5,2.6c0,0.9,0.2,1.8,0.5,2.6s0.7,1.4,1.3,2s1.3,1,2.1,1.3
		C228.5,192.3,229.5,192.5,230.5,192.5z"/>
	<path class="st2" d="M250.2,184.6c0.4-1,0.8-1.9,1.3-2.7s1.1-1.5,1.7-2c0.6-0.6,1.4-1,2.1-1.3c0.8-0.3,1.7-0.4,2.6-0.4
		c0.5,0,1,0,1.5,0.1s0.9,0.3,1.3,0.5l-0.2,1.6c-0.1,0.3-0.2,0.4-0.5,0.4c-0.2,0-0.5-0.1-0.9-0.2c-0.4-0.1-0.9-0.2-1.6-0.2
		c-1,0-1.8,0.1-2.6,0.4c-0.7,0.3-1.4,0.7-2,1.3s-1.1,1.3-1.6,2.2c-0.4,0.9-0.8,1.8-1.2,3v16.1h-2.4v-24.9h1.3c0.3,0,0.5,0.1,0.6,0.2
		c0.1,0.1,0.2,0.3,0.2,0.6L250.2,184.6z"/>
	<path class="st2" d="M284.9,178.6v24.9h-1.3c-0.4,0-0.7-0.2-0.7-0.7l-0.2-3.7c-1.1,1.4-2.5,2.6-4,3.4c-1.5,0.9-3.2,1.3-5,1.3
		c-1.4,0-2.6-0.2-3.6-0.7c-1-0.4-1.9-1.1-2.6-1.9c-0.7-0.8-1.2-1.8-1.5-3c-0.4-1.1-0.5-2.5-0.5-3.9v-15.9h2.4v15.9
		c0,2.3,0.5,4.2,1.6,5.5s2.7,2,4.9,2c1.6,0,3.1-0.4,4.5-1.2s2.7-2,3.8-3.4v-18.7L284.9,178.6L284.9,178.6z"/>
	<path class="st2" d="M295.4,183.1c1.1-1.5,2.4-2.7,3.9-3.6c1.5-0.9,3.1-1.3,5-1.3c3,0,5.4,1.1,7.1,3.2c1.7,2.1,2.6,5.3,2.6,9.5
		c0,1.8-0.2,3.5-0.7,5.1s-1.2,2.9-2.1,4.1c-0.9,1.2-2.1,2.1-3.4,2.7c-1.3,0.7-2.9,1-4.6,1s-3.1-0.3-4.4-0.9
		c-1.2-0.6-2.3-1.5-3.2-2.7v12.1h-2.4v-33.7h1.3c0.4,0,0.7,0.2,0.7,0.6L295.4,183.1z M295.5,198c0.5,0.7,1,1.3,1.5,1.8
		s1.1,0.9,1.7,1.2s1.2,0.5,1.9,0.7c0.7,0.1,1.4,0.2,2.1,0.2c1.5,0,2.8-0.3,3.9-0.8s2-1.3,2.8-2.3c0.7-1,1.3-2.1,1.7-3.5
		s0.6-2.9,0.6-4.5c0-3.7-0.7-6.4-2.1-8.2c-1.4-1.7-3.3-2.6-5.9-2.6c-1.6,0-3.1,0.4-4.5,1.3c-1.3,0.8-2.5,2-3.6,3.5V198H295.5z"/>
	<path class="st2" d="M319.9,182.1c1.3-1.3,2.7-2.3,4.1-3s3.1-1,4.9-1c1.3,0,2.5,0.2,3.5,0.6c1,0.4,1.8,1,2.5,1.8s1.2,1.8,1.5,2.9
		c0.3,1.1,0.5,2.4,0.5,3.8v16.2h-1c-0.5,0-0.8-0.2-0.9-0.7l-0.4-3.2c-0.7,0.7-1.4,1.3-2,1.8c-0.7,0.5-1.4,1-2.1,1.3
		c-0.7,0.4-1.5,0.7-2.4,0.8c-0.9,0.2-1.8,0.3-2.8,0.3c-0.8,0-1.7-0.1-2.5-0.4c-0.8-0.2-1.5-0.6-2.1-1.2s-1.1-1.2-1.5-2
		s-0.6-1.8-0.6-2.9c0-1,0.3-2,0.9-2.9s1.5-1.7,2.8-2.3c1.3-0.7,2.9-1.2,4.9-1.6c2-0.4,4.4-0.6,7.2-0.7v-2.6c0-2.3-0.5-4.1-1.5-5.3
		s-2.5-1.9-4.4-1.9c-1.2,0-2.2,0.2-3.1,0.5c-0.8,0.3-1.6,0.7-2.1,1.1c-0.6,0.4-1.1,0.8-1.4,1.1c-0.4,0.3-0.7,0.5-0.9,0.5
		c-0.2,0-0.3,0-0.5-0.1c-0.1-0.1-0.2-0.2-0.3-0.3L319.9,182.1z M334.6,191.4c-2.4,0.1-4.4,0.3-6.1,0.6s-3.1,0.7-4.2,1.2
		s-1.9,1.1-2.5,1.8c-0.5,0.7-0.8,1.5-0.8,2.4c0,0.8,0.1,1.6,0.4,2.2c0.3,0.6,0.6,1.1,1.1,1.5s1,0.7,1.6,0.9s1.2,0.3,1.9,0.3
		c1,0,1.9-0.1,2.7-0.3c0.8-0.2,1.6-0.5,2.2-0.9c0.7-0.4,1.3-0.8,1.9-1.3s1.2-1.1,1.8-1.7V191.4z"/>
	<path class="st2" d="M357.7,182.1c1.3-1.3,2.7-2.3,4.1-3s3.1-1,4.9-1c1.3,0,2.5,0.2,3.5,0.6c1,0.4,1.8,1,2.5,1.8s1.2,1.8,1.5,2.9
		c0.3,1.1,0.5,2.4,0.5,3.8v16.2h-1c-0.5,0-0.8-0.2-0.9-0.7l-0.4-3.2c-0.7,0.7-1.4,1.3-2,1.8c-0.7,0.5-1.4,1-2.1,1.3
		c-0.7,0.4-1.5,0.7-2.4,0.8c-0.9,0.2-1.8,0.3-2.8,0.3c-0.8,0-1.7-0.1-2.5-0.4c-0.8-0.2-1.5-0.6-2.1-1.2s-1.1-1.2-1.5-2
		s-0.6-1.8-0.6-2.9c0-1,0.3-2,0.9-2.9s1.5-1.7,2.8-2.3c1.3-0.7,2.9-1.2,4.9-1.6c2-0.4,4.4-0.6,7.2-0.7v-2.6c0-2.3-0.5-4.1-1.5-5.3
		s-2.5-1.9-4.4-1.9c-1.2,0-2.2,0.2-3.1,0.5c-0.8,0.3-1.6,0.7-2.1,1.1c-0.6,0.4-1.1,0.8-1.4,1.1c-0.4,0.3-0.7,0.5-0.9,0.5
		c-0.2,0-0.3,0-0.5-0.1c-0.1-0.1-0.2-0.2-0.3-0.3L357.7,182.1z M372.3,191.4c-2.4,0.1-4.4,0.3-6.1,0.6s-3.1,0.7-4.2,1.2
		s-1.9,1.1-2.5,1.8c-0.5,0.7-0.8,1.5-0.8,2.4c0,0.8,0.1,1.6,0.4,2.2c0.3,0.6,0.6,1.1,1.1,1.5s1,0.7,1.6,0.9s1.2,0.3,1.9,0.3
		c1,0,1.9-0.1,2.7-0.3c0.8-0.2,1.6-0.5,2.2-0.9c0.7-0.4,1.3-0.8,1.9-1.3s1.2-1.1,1.8-1.7V191.4z"/>
	<path class="st2" d="M384.9,182.9c1.1-1.4,2.5-2.6,4-3.4c1.5-0.9,3.2-1.3,5-1.3c1.4,0,2.6,0.2,3.6,0.7c1,0.4,1.9,1.1,2.6,1.9
		c0.7,0.8,1.2,1.8,1.5,3c0.4,1.1,0.5,2.5,0.5,3.9v15.9h-2.4v-15.9c0-2.3-0.5-4.2-1.6-5.5s-2.7-2-4.9-2c-1.6,0-3.1,0.4-4.5,1.2
		s-2.7,2-3.8,3.4v18.7h-2.4v-24.9h1.3c0.4,0,0.7,0.2,0.7,0.6L384.9,182.9z"/>
	<path class="st2" d="M430.1,179.7v0.8c0,0.4-0.2,0.6-0.7,0.7l-3.8,0.3c0.5,0.6,0.8,1.3,1.1,2.1s0.4,1.6,0.4,2.5
		c0,1.2-0.2,2.3-0.6,3.3s-1,1.8-1.8,2.5s-1.7,1.2-2.8,1.6c-1.1,0.4-2.3,0.6-3.6,0.6c-1.4,0-2.7-0.2-3.9-0.7
		c-0.7,0.4-1.3,0.9-1.7,1.4c-0.4,0.5-0.6,1.1-0.6,1.6c0,0.7,0.3,1.3,0.8,1.7s1.2,0.7,2,0.8c0.8,0.2,1.8,0.3,2.8,0.3
		c1.1,0,2.1,0.1,3.2,0.2c1.1,0.1,2.2,0.2,3.2,0.3c1.1,0.2,2,0.4,2.8,0.8c0.8,0.4,1.5,0.9,2,1.6c0.5,0.7,0.8,1.6,0.8,2.7
		c0,1-0.3,2-0.8,3s-1.3,1.8-2.2,2.5s-2.2,1.3-3.5,1.8s-2.9,0.7-4.6,0.7c-1.8,0-3.3-0.2-4.6-0.5s-2.4-0.8-3.3-1.5s-1.6-1.3-2-2.1
		c-0.5-0.8-0.7-1.6-0.7-2.5c0-1.3,0.4-2.4,1.3-3.4c0.9-0.9,2-1.7,3.5-2.2c-0.8-0.3-1.5-0.7-2-1.2s-0.8-1.3-0.8-2.2
		c0-0.4,0.1-0.7,0.2-1.1c0.1-0.4,0.3-0.8,0.6-1.1s0.6-0.7,1-1.1c0.4-0.3,0.8-0.6,1.3-0.9c-1.2-0.7-2.1-1.6-2.8-2.7
		c-0.7-1.1-1-2.5-1-4c0-1.2,0.2-2.3,0.6-3.3s1-1.8,1.8-2.5s1.7-1.2,2.8-1.6c1.1-0.4,2.3-0.6,3.6-0.6c1.1,0,2.1,0.1,3,0.4
		c0.9,0.3,1.8,0.6,2.5,1.1h6.5V179.7z M427.5,205.1c0-0.8-0.2-1.4-0.6-1.9s-1-0.8-1.6-1.1c-0.7-0.3-1.5-0.5-2.4-0.6
		s-1.8-0.2-2.8-0.2s-2-0.1-2.9-0.2c-1,0-1.9-0.1-2.8-0.3c-0.6,0.2-1.2,0.5-1.8,0.9c-0.5,0.3-1,0.7-1.4,1.1c-0.4,0.4-0.7,0.9-0.9,1.4
		c-0.2,0.5-0.3,1-0.3,1.6c0,0.7,0.2,1.4,0.6,2s0.9,1.2,1.7,1.6c0.7,0.5,1.6,0.8,2.7,1.1s2.3,0.4,3.6,0.4c1.3,0,2.4-0.1,3.5-0.4
		c1.1-0.3,2-0.7,2.9-1.2c0.8-0.5,1.4-1.1,1.9-1.8C427.3,206.8,427.5,206,427.5,205.1z M418.2,192.5c1.1,0,2-0.2,2.9-0.5
		c0.8-0.3,1.5-0.7,2.1-1.3s1-1.2,1.3-2s0.4-1.6,0.4-2.6c0-0.9-0.2-1.8-0.5-2.6s-0.8-1.4-1.3-2c-0.6-0.5-1.3-1-2.1-1.3
		c-0.8-0.3-1.8-0.5-2.8-0.5c-1.1,0-2,0.1-2.8,0.5c-0.8,0.3-1.5,0.7-2.1,1.3s-1,1.2-1.3,2s-0.5,1.6-0.5,2.6c0,0.9,0.2,1.8,0.5,2.6
		s0.7,1.4,1.3,2s1.3,1,2.1,1.3C416.3,192.3,417.2,192.5,418.2,192.5z"/>
	<path class="st2" d="M438.3,167.1v36.4h-2.4v-36.4H438.3z"/>
	<path class="st2" d="M456.5,178.2c1.8,0,3.4,0.3,4.8,0.9s2.6,1.5,3.6,2.6s1.7,2.5,2.2,4c0.5,1.6,0.8,3.3,0.8,5.3s-0.3,3.7-0.8,5.3
		s-1.2,2.9-2.2,4s-2.2,2-3.6,2.6s-3,0.9-4.8,0.9s-3.4-0.3-4.8-0.9c-1.4-0.6-2.6-1.5-3.6-2.6s-1.7-2.5-2.2-4s-0.8-3.3-0.8-5.3
		s0.3-3.7,0.8-5.3s1.2-2.9,2.2-4s2.2-2,3.6-2.6C453.2,178.5,454.8,178.2,456.5,178.2z M456.5,201.9c1.5,0,2.8-0.3,3.9-0.8
		s2-1.2,2.8-2.2s1.3-2.1,1.7-3.4s0.6-2.8,0.6-4.5c0-1.6-0.2-3.1-0.6-4.5c-0.4-1.3-0.9-2.5-1.7-3.5c-0.7-1-1.7-1.7-2.8-2.2
		s-2.4-0.8-3.9-0.8s-2.8,0.3-3.9,0.8s-2,1.3-2.8,2.2c-0.7,1-1.3,2.1-1.7,3.5c-0.4,1.4-0.6,2.9-0.6,4.5c0,1.7,0.2,3.2,0.6,4.5
		s0.9,2.5,1.7,3.4c0.7,1,1.7,1.7,2.8,2.2C453.8,201.7,455.1,201.9,456.5,201.9z"/>
	<path class="st2" d="M477.2,178.6v28c0,0.9-0.1,1.7-0.4,2.4s-0.6,1.4-1.1,1.9s-1.1,1-1.9,1.3c-0.7,0.3-1.6,0.5-2.6,0.5
		c-0.5,0-0.9,0-1.3-0.1s-0.8-0.2-1.1-0.4l0.1-1.2c0-0.2,0.1-0.2,0.2-0.3c0.1,0,0.2,0,0.3,0c0.1,0,0.3,0.1,0.5,0.1s0.5,0.1,0.8,0.1
		c1.4,0,2.4-0.4,3-1.1s1-1.8,1-3.1v-28L477.2,178.6L477.2,178.6z M478.3,170c0,0.3-0.1,0.6-0.2,0.8s-0.3,0.5-0.5,0.7
		s-0.4,0.4-0.7,0.5c-0.3,0.1-0.5,0.2-0.9,0.2c-0.3,0-0.6-0.1-0.9-0.2c-0.3-0.1-0.5-0.3-0.7-0.5s-0.4-0.4-0.5-0.7s-0.2-0.5-0.2-0.8
		s0.1-0.6,0.2-0.9c0.1-0.3,0.3-0.5,0.5-0.7s0.4-0.4,0.7-0.5c0.3-0.1,0.6-0.2,0.9-0.2s0.6,0.1,0.9,0.2c0.3,0.1,0.5,0.3,0.7,0.5
		s0.4,0.4,0.5,0.7S478.3,169.7,478.3,170z"/>
	<path class="st2" d="M486.6,190v0.5c0,1.9,0.2,3.5,0.6,4.9s1,2.6,1.9,3.6c0.8,1,1.8,1.7,2.9,2.2s2.4,0.7,3.8,0.7
		c1.2,0,2.3-0.1,3.2-0.4c0.9-0.3,1.7-0.6,2.3-0.9s1.1-0.7,1.5-0.9c0.4-0.3,0.6-0.4,0.8-0.4c0.2,0,0.4,0.1,0.5,0.2l0.6,0.8
		c-0.3,0.4-0.7,0.8-1.2,1.1s-1,0.7-1.6,0.9c-0.6,0.3-1.2,0.5-1.9,0.8c-0.7,0.2-1.4,0.4-2.1,0.5c-0.3,0.2-0.7,0.4-1.1,0.7
		s-0.7,0.6-1,1s-0.6,0.8-0.8,1.2s-0.3,0.9-0.3,1.4c0,0.8,0.3,1.4,0.8,1.9c0.5,0.4,1.2,0.7,2,0.7c0.5,0,0.9,0,1.2-0.1
		c0.3-0.1,0.6-0.2,0.8-0.3c0.2-0.1,0.4-0.2,0.5-0.3s0.2-0.1,0.3-0.1c0.1,0,0.2,0.1,0.3,0.2l0.4,0.8c-0.5,0.4-1.1,0.7-1.8,1
		c-0.7,0.2-1.4,0.4-2.2,0.4c-1.3,0-2.3-0.3-3.1-0.9c-0.8-0.6-1.2-1.5-1.2-2.6c0-0.5,0.1-0.9,0.2-1.3c0.2-0.4,0.4-0.8,0.6-1.2
		c0.3-0.4,0.6-0.7,0.9-1.1c0.4-0.3,0.7-0.7,1.1-0.9h-0.4c-1.7,0-3.2-0.3-4.6-0.9c-1.4-0.6-2.6-1.5-3.6-2.6s-1.8-2.5-2.3-4.2
		c-0.5-1.6-0.8-3.5-0.8-5.6c0-1.8,0.3-3.4,0.8-4.9s1.2-2.8,2.2-3.9c1-1.1,2.1-1.9,3.5-2.6c1.4-0.6,3-0.9,4.7-0.9
		c1.4,0,2.7,0.2,3.9,0.7c1.2,0.5,2.2,1.2,3.1,2.1c0.9,0.9,1.6,2.1,2.1,3.4c0.5,1.4,0.8,2.9,0.8,4.7c0,0.4-0.1,0.6-0.2,0.8
		c-0.1,0.1-0.3,0.2-0.5,0.2h-17.6V190z M503.2,188.5c0-1.3-0.2-2.5-0.6-3.6s-0.9-2-1.6-2.7s-1.5-1.3-2.4-1.7s-2-0.6-3.1-0.6
		c-1.3,0-2.4,0.2-3.5,0.6c-1,0.4-1.9,1-2.6,1.7c-0.7,0.8-1.3,1.6-1.8,2.7c-0.5,1-0.8,2.2-0.9,3.5h16.5V188.5z"/>
	<path class="st2" d="M528.1,178.6v1c0,0.3-0.1,0.7-0.3,1l-15.6,21h15.3v1.9h-18.2v-1c0-0.3,0.1-0.6,0.4-0.9l15.6-21.1h-15.2v-1.9
		H528.1z"/>
	<path class="st2" d="M554.1,178.6l-14.3,32.9c-0.1,0.2-0.2,0.4-0.4,0.6c-0.2,0.1-0.4,0.2-0.7,0.2H537l4.4-9.7l-10.5-24h2
		c0.2,0,0.4,0.1,0.6,0.2c0.2,0.1,0.2,0.3,0.3,0.4l8.4,19.4c0.1,0.2,0.2,0.5,0.3,0.8s0.1,0.5,0.2,0.8c0.1-0.3,0.2-0.5,0.3-0.8
		s0.2-0.5,0.3-0.8l8.3-19.4c0.1-0.2,0.2-0.3,0.4-0.4c0.1-0.1,0.3-0.2,0.5-0.2H554.1z"/>
	<path class="st2" d="M575.2,181.9c-0.1,0.1-0.2,0.2-0.2,0.2c-0.1,0.1-0.2,0.1-0.3,0.1c-0.2,0-0.4-0.1-0.7-0.3s-0.7-0.5-1.1-0.7
		c-0.5-0.3-1.1-0.5-1.8-0.7s-1.6-0.3-2.6-0.3c-1.4,0-2.7,0.3-3.8,0.8s-2,1.2-2.8,2.2s-1.3,2.1-1.7,3.5c-0.4,1.3-0.6,2.9-0.6,4.5
		c0,1.8,0.2,3.3,0.6,4.7c0.4,1.3,1,2.5,1.7,3.4s1.7,1.6,2.7,2.1c1.1,0.5,2.2,0.7,3.5,0.7c1.2,0,2.2-0.1,3-0.4c0.8-0.3,1.5-0.6,2-0.9
		c0.5-0.3,0.9-0.6,1.2-0.9c0.3-0.3,0.6-0.4,0.8-0.4s0.4,0.1,0.5,0.2l0.6,0.8c-0.4,0.5-0.9,1-1.4,1.4c-0.6,0.4-1.2,0.8-2,1.1
		s-1.5,0.6-2.4,0.7s-1.8,0.3-2.7,0.3c-1.6,0-3-0.3-4.3-0.9c-1.3-0.6-2.4-1.4-3.4-2.5c-0.9-1.1-1.7-2.4-2.2-4s-0.8-3.4-0.8-5.4
		c0-1.9,0.2-3.6,0.8-5.2c0.5-1.6,1.2-2.9,2.2-4s2.1-2,3.5-2.6s3-0.9,4.8-0.9c1.6,0,3,0.3,4.3,0.8s2.3,1.2,3.3,2.1L575.2,181.9z"/>
	<path class="st2" d="M598.4,178.6v1c0,0.3-0.1,0.7-0.3,1l-15.6,21h15.3v1.9h-18.2v-1c0-0.3,0.1-0.6,0.4-0.9l15.6-21.1h-15.2v-1.9
		H598.4z"/>
	<path class="st2" d="M606.5,182.9c1.1-1.4,2.5-2.6,4-3.4c1.5-0.9,3.2-1.3,5-1.3c1.4,0,2.6,0.2,3.6,0.7c1,0.4,1.9,1.1,2.6,1.9
		c0.7,0.8,1.2,1.8,1.5,3c0.4,1.1,0.5,2.5,0.5,3.9v15.9h-2.4v-15.9c0-2.3-0.5-4.2-1.6-5.5s-2.7-2-4.9-2c-1.6,0-3.1,0.4-4.5,1.2
		s-2.7,2-3.8,3.4v18.7h-2.4v-24.9h1.3c0.4,0,0.7,0.2,0.7,0.6L606.5,182.9z"/>
	<path class="st2" d="M631,182.1c1.3-1.3,2.7-2.3,4.1-3c1.4-0.7,3.1-1,4.9-1c1.3,0,2.5,0.2,3.5,0.6c1,0.4,1.8,1,2.5,1.8
		s1.2,1.8,1.5,2.9c0.3,1.1,0.5,2.4,0.5,3.8v16.2h-1c-0.5,0-0.8-0.2-0.9-0.7l-0.4-3.2c-0.7,0.7-1.4,1.3-2,1.8c-0.7,0.5-1.4,1-2.1,1.3
		c-0.7,0.4-1.5,0.7-2.4,0.8c-0.9,0.2-1.8,0.3-2.8,0.3c-0.8,0-1.7-0.1-2.5-0.4c-0.8-0.2-1.5-0.6-2.1-1.2s-1.1-1.2-1.5-2
		s-0.6-1.8-0.6-2.9c0-1,0.3-2,0.9-2.9c0.6-0.9,1.5-1.7,2.8-2.3c1.3-0.7,2.9-1.2,4.9-1.6c2-0.4,4.4-0.6,7.2-0.7v-2.6
		c0-2.3-0.5-4.1-1.5-5.3s-2.5-1.9-4.4-1.9c-1.2,0-2.2,0.2-3.1,0.5c-0.8,0.3-1.6,0.7-2.1,1.1c-0.6,0.4-1.1,0.8-1.4,1.1
		c-0.4,0.3-0.7,0.5-0.9,0.5s-0.3,0-0.5-0.1c-0.1-0.1-0.2-0.2-0.3-0.3L631,182.1z M645.6,191.4c-2.4,0.1-4.4,0.3-6.1,0.6
		c-1.7,0.3-3.1,0.7-4.2,1.2s-1.9,1.1-2.5,1.8c-0.5,0.7-0.8,1.5-0.8,2.4c0,0.8,0.1,1.6,0.4,2.2c0.3,0.6,0.6,1.1,1.1,1.5
		s1,0.7,1.6,0.9s1.2,0.3,1.9,0.3c1,0,1.9-0.1,2.7-0.3s1.6-0.5,2.2-0.9c0.7-0.4,1.3-0.8,1.9-1.3s1.2-1.1,1.8-1.7L645.6,191.4
		L645.6,191.4z"/>
</g>
</svg>
