<?xml version="1.0" encoding="utf-8"?>
<!-- Generator: Adobe Illustrator 24.2.1, SVG Export Plug-In . SVG Version: 6.00 Build 0)  -->
<svg version="1.1" id="Warstwa_1" xmlns="http://www.w3.org/2000/svg" xmlns:xlink="http://www.w3.org/1999/xlink" x="0px" y="0px"
	 viewBox="0 0 1400 230" style="enable-background:new 0 0 1400 230;" xml:space="preserve">
<style type="text/css">
	.st0{fill:#AA7E63;}
	.st1{fill:#020203;}
	.st2{opacity:0.5;}
	.st3{fill:#FFFFFF;}
	.st4{opacity:0.5;fill:#FFFFFF;}
	.st5{clip-path:url(#SVGID_2_);}
	.st6{clip-path:url(#SVGID_4_);}
	.st7{clip-path:url(#SVGID_6_);}
	.st8{clip-path:url(#SVGID_8_);}
	.st9{clip-path:url(#SVGID_10_);}
	.st10{clip-path:url(#SVGID_12_);}
	.st11{clip-path:url(#SVGID_14_);}
	.st12{clip-path:url(#SVGID_16_);}
	.st13{clip-path:url(#SVGID_18_);}
	.st14{clip-path:url(#SVGID_20_);}
	.st15{clip-path:url(#SVGID_22_);}
	.st16{clip-path:url(#SVGID_24_);}
	.st17{clip-path:url(#SVGID_26_);}
	.st18{clip-path:url(#SVGID_28_);}
	.st19{clip-path:url(#SVGID_30_);}
	.st20{clip-path:url(#SVGID_32_);}
	.st21{clip-path:url(#SVGID_34_);}
	.st22{clip-path:url(#SVGID_36_);}
	.st23{clip-path:url(#SVGID_38_);}
	.st24{clip-path:url(#SVGID_40_);}
	.st25{clip-path:url(#SVGID_42_);}
	.st26{clip-path:url(#SVGID_44_);}
	.st27{clip-path:url(#SVGID_46_);}
	.st28{clip-path:url(#SVGID_48_);}
	.st29{clip-path:url(#SVGID_50_);}
	.st30{clip-path:url(#SVGID_52_);}
	.st31{clip-path:url(#SVGID_54_);}
	.st32{clip-path:url(#SVGID_56_);}
	.st33{clip-path:url(#SVGID_58_);}
	.st34{clip-path:url(#SVGID_60_);}
	.st35{clip-path:url(#SVGID_62_);}
	.st36{clip-path:url(#SVGID_64_);}
	.st37{clip-path:url(#SVGID_66_);}
	.st38{clip-path:url(#SVGID_68_);}
	.st39{clip-path:url(#SVGID_70_);}
	.st40{fill:#123274;}
	.st41{fill:#2DB8C5;}
	.st42{opacity:0.8;}
	.st43{fill:#008BC0;}
	.st44{opacity:0.5;fill:none;stroke:#FFFFFF;stroke-width:8;stroke-linecap:round;stroke-linejoin:round;stroke-miterlimit:10;}
	.st45{opacity:0.5;fill:none;stroke:#FFFFFF;stroke-width:7;stroke-linecap:round;stroke-linejoin:round;stroke-miterlimit:10;}
	.st46{fill:#0B5BA6;}
	.st47{opacity:0.8;fill:url(#SVGID_71_);}
	.st48{fill:none;stroke:#FFFFFF;stroke-width:10;stroke-miterlimit:10;}
	.st49{opacity:0.8;fill:url(#SVGID_72_);}
	.st50{fill:none;stroke:#FFFFFF;stroke-width:5;stroke-miterlimit:10;}
	.st51{fill:none;stroke:#FFFFFF;stroke-width:6;stroke-miterlimit:10;}
	.st52{opacity:0.8;fill:url(#SVGID_91_);}
	.st53{fill:#878787;}
	.st54{opacity:0.8;fill:url(#SVGID_110_);}
	.st55{opacity:0.8;fill:url(#SVGID_111_);}
	.st56{stroke:#FFFFFF;stroke-width:8;stroke-linecap:round;stroke-linejoin:round;stroke-miterlimit:10;}
	.st57{opacity:0.8;fill:url(#SVGID_112_);}
	.st58{opacity:0.8;fill:url(#SVGID_113_);}
	.st59{clip-path:url(#SVGID_115_);fill:#12100B;}
	.st60{fill:#12100B;}
	.st61{fill:url(#SVGID_116_);}
	.st62{fill:url(#SVGID_117_);}
	.st63{fill:#E87443;}
	.st64{fill:#82368C;}
	.st65{opacity:0.8;fill:url(#SVGID_118_);}
	.st66{opacity:0.8;fill:url(#SVGID_119_);}
	.st67{fill:#9D9D9C;}
	.st68{opacity:0.8;fill:url(#SVGID_120_);}
	.st69{opacity:0.8;fill:#5EA62B;}
	.st70{fill:#10466D;}
	.st71{opacity:0.4;}
	.st72{clip-path:url(#SVGID_122_);}
	.st73{fill:url(#SVGID_123_);}
	.st74{fill:url(#SVGID_124_);}
	.st75{fill:url(#SVGID_125_);}
	.st76{fill:url(#SVGID_126_);}
	.st77{fill:url(#SVGID_127_);}
	.st78{fill:url(#SVGID_128_);}
	.st79{fill:url(#SVGID_129_);}
	.st80{fill:url(#SVGID_130_);}
	.st81{fill:url(#SVGID_131_);}
	.st82{fill:url(#SVGID_132_);}
	.st83{fill:url(#SVGID_133_);}
	.st84{fill:url(#SVGID_134_);}
	.st85{fill:url(#SVGID_135_);}
	.st86{fill:url(#SVGID_136_);}
	.st87{fill:url(#SVGID_137_);}
	.st88{fill:url(#SVGID_138_);}
	.st89{fill:url(#SVGID_139_);}
	.st90{fill:url(#SVGID_140_);}
	.st91{fill:url(#SVGID_141_);}
	.st92{fill:url(#SVGID_142_);}
	.st93{fill:url(#SVGID_143_);}
	.st94{fill:url(#SVGID_144_);}
	.st95{fill:url(#SVGID_145_);}
	.st96{fill:url(#SVGID_146_);}
	.st97{fill:url(#SVGID_147_);}
	.st98{fill:url(#SVGID_148_);}
	.st99{fill:url(#SVGID_149_);}
	.st100{fill:url(#SVGID_150_);}
	.st101{fill:url(#SVGID_151_);}
	.st102{fill:url(#SVGID_152_);}
	.st103{fill:url(#SVGID_153_);}
	.st104{fill:url(#SVGID_154_);}
	.st105{fill:url(#SVGID_155_);}
	.st106{fill:url(#SVGID_156_);}
	.st107{fill:url(#SVGID_157_);}
	.st108{fill:url(#SVGID_158_);}
	.st109{fill:url(#SVGID_159_);}
	.st110{fill:url(#SVGID_160_);}
	.st111{fill:url(#SVGID_161_);}
	.st112{fill:url(#SVGID_162_);}
	.st113{fill:url(#SVGID_163_);}
	.st114{fill:url(#SVGID_164_);}
	.st115{fill:url(#SVGID_165_);}
	.st116{fill:url(#SVGID_166_);}
	.st117{fill:url(#SVGID_167_);}
	.st118{fill:url(#SVGID_168_);}
	.st119{fill:url(#SVGID_169_);}
	.st120{fill:url(#SVGID_170_);}
	.st121{fill:url(#SVGID_171_);}
	.st122{fill:url(#SVGID_172_);}
	.st123{fill:url(#SVGID_173_);}
	.st124{fill:url(#SVGID_174_);}
	.st125{fill:url(#SVGID_175_);}
	.st126{fill:url(#SVGID_176_);}
	.st127{fill:url(#SVGID_177_);}
	.st128{fill:url(#SVGID_178_);}
	.st129{fill:#F59A1C;}
	.st130{fill:#FFFFFF;stroke:#FFFFFF;stroke-width:14.1732;stroke-miterlimit:10;}
	.st131{fill:#255C30;}
	.st132{fill:#C10C1A;}
	.st133{fill:#65C3CE;}
	.st134{fill:#31B7BC;}
	.st135{opacity:0.4;fill:#FFFFFF;}
	.st136{fill:#C3372A;}
	.st137{opacity:0.65;fill:#FFFFFF;}
	.st138{opacity:0.65;}
	.st139{opacity:0.8;fill:url(#SVGID_179_);}
	.st140{fill:#ED694B;}
	.st141{opacity:0.8;fill:url(#SVGID_180_);}
	.st142{clip-path:url(#SVGID_182_);}
	.st143{clip-path:url(#SVGID_184_);}
	.st144{clip-path:url(#SVGID_186_);}
	.st145{opacity:0.6;}
	.st146{opacity:0.6;fill:#FFFFFF;}
	.st147{opacity:0.8;fill:url(#SVGID_187_);}
	.st148{opacity:0.8;fill:url(#SVGID_188_);}
	.st149{opacity:0.8;fill:url(#SVGID_189_);}
	.st150{fill:none;stroke:#FFFFFF;stroke-width:35;stroke-linecap:round;stroke-linejoin:round;stroke-miterlimit:10;}
	.st151{opacity:0.8;fill:url(#SVGID_190_);}
	.st152{opacity:0.8;fill:url(#SVGID_191_);}
	.st153{fill:none;stroke:#FFFFFF;stroke-width:20;stroke-linecap:round;stroke-linejoin:round;stroke-miterlimit:10;}
	.st154{opacity:0.8;fill:url(#SVGID_192_);}
	.st155{fill:none;stroke:#FFFFFF;stroke-width:2;stroke-miterlimit:10;}
	.st156{opacity:0.75;fill:url(#SVGID_193_);}
	.st157{opacity:0.8;fill:url(#SVGID_194_);}
	.st158{fill:url(#SVGID_195_);}
	.st159{opacity:0.8;fill:url(#SVGID_196_);}
	.st160{opacity:0.8;fill:url(#SVGID_197_);}
	.st161{fill:url(#SVGID_198_);}
	.st162{fill:url(#SVGID_199_);}
	.st163{fill:url(#SVGID_200_);}
	.st164{fill:url(#SVGID_201_);}
	.st165{fill:url(#SVGID_202_);}
	.st166{opacity:0.8;fill:url(#SVGID_203_);}
	.st167{fill:url(#SVGID_204_);}
	.st168{opacity:0.1;}
	.st169{opacity:0.1;fill:#FFFFFF;}
	.st170{opacity:0.15;fill:#FFFFFF;}
	.st171{opacity:0.15;}
	.st172{opacity:0.8;fill:url(#SVGID_205_);}
	.st173{fill:url(#SVGID_206_);}
	.st174{fill:url(#SVGID_207_);}
	.st175{fill:url(#SVGID_208_);}
	.st176{opacity:0.8;fill:url(#SVGID_209_);}
	.st177{opacity:0.8;fill:url(#SVGID_210_);}
	.st178{opacity:0.8;fill:url(#SVGID_211_);}
	.st179{fill:#B2B2B2;}
	.st180{opacity:0.7;fill:url(#SVGID_212_);}
	.st181{opacity:0.9;fill:url(#SVGID_213_);}
	.st182{opacity:0.8;fill:url(#SVGID_214_);}
	.st183{opacity:0.8;fill:url(#SVGID_215_);}
	.st184{opacity:0.85;}
	.st185{fill:url(#SVGID_216_);}
	.st186{fill:url(#SVGID_217_);}
	.st187{fill:#5DB34E;}
	.st188{fill:url(#SVGID_218_);}
	.st189{fill:url(#SVGID_219_);}
	.st190{opacity:0.8;fill:url(#SVGID_220_);}
	.st191{opacity:0.8;fill:url(#SVGID_221_);}
</style>
<g>
	<g>
		<path class="st3" d="M1264.74,53.28c-6.49,0-11.77-5.13-11.77-11.43s5.28-11.43,11.77-11.43c6.49,0,11.77,5.13,11.77,11.43
			S1271.23,53.28,1264.74,53.28z M1264.74,36.69c-2.93,0-5.32,2.32-5.32,5.16c0,2.85,2.39,5.16,5.32,5.16
			c2.93,0,5.32-2.32,5.32-5.16C1270.06,39,1267.68,36.69,1264.74,36.69z"/>
	</g>
</g>
<g>
	<g>
		<path class="st3" d="M1264.74,67.92c-6.49,0-11.77-5.13-11.77-11.43s5.28-11.43,11.77-11.43c6.49,0,11.77,5.13,11.77,11.43
			S1271.23,67.92,1264.74,67.92z M1264.74,51.33c-2.93,0-5.32,2.32-5.32,5.16c0,2.85,2.39,5.16,5.32,5.16
			c2.93,0,5.32-2.32,5.32-5.16C1270.06,53.64,1267.68,51.33,1264.74,51.33z"/>
	</g>
</g>
<g>
	<rect x="0" y="0" class="st187" width="1400" height="230"/>
</g>
<g class="st2">
	<path class="st3" d="M1039.03,14.09c-0.76,0-1.48,0.15-2.16,0.44c-2.16,0.92-3.6,2.87-3.6,5.01c0,2.87,2.47,5.12,5.61,5.12
		c3.34,0,5.42-2.61,5.42-5.01C1044.3,17.85,1043.01,14.09,1039.03,14.09z"/>
</g>
<g class="st2">
	<path class="st3" d="M1056.54,26.75c-0.76,0-1.48,0.15-2.16,0.44c-2.16,0.92-3.6,2.87-3.6,5.01c0,2.87,2.47,5.12,5.61,5.12
		c3.34,0,5.42-2.61,5.42-5.01C1061.81,30.51,1060.52,26.75,1056.54,26.75z"/>
</g>
<g class="st2">
	<path class="st3" d="M1042.55,83.44c-0.76,0-1.48,0.15-2.16,0.44c-2.16,0.92-3.6,2.87-3.6,5.01c0,2.87,2.47,5.12,5.61,5.12
		c3.34,0,5.42-2.61,5.42-5.01C1047.82,87.19,1046.53,83.44,1042.55,83.44z"/>
</g>
<g class="st2">
	<path class="st3" d="M28.93,66.37c-0.91,0-1.77,0.18-2.59,0.53c-2.59,1.1-4.32,3.44-4.32,6c0,3.44,2.96,6.13,6.73,6.13
		c4,0,6.5-3.13,6.5-6C35.25,70.88,33.7,66.37,28.93,66.37z"/>
</g>
<g class="st2">
	<path class="st3" d="M1251.55,57.74c-1.05,0-2.04,0.19-2.99,0.58c-2.99,1.22-4.98,3.79-4.98,6.61c0,3.79,3.41,6.76,7.76,6.76
		c4.61,0,7.5-3.45,7.5-6.61C1258.83,62.7,1257.05,57.74,1251.55,57.74z"/>
</g>
<g class="st2">
	<path class="st3" d="M1251.47,80.68c-0.81,0-1.58,0.15-2.31,0.45c-2.31,0.94-3.85,2.93-3.85,5.11c0,2.93,2.63,5.22,5.99,5.22
		c3.56,0,5.79-2.67,5.79-5.11C1257.1,84.51,1255.72,80.68,1251.47,80.68z"/>
</g>
<g class="st2">
	<path class="st3" d="M1251.4,101.77c-0.61,0-1.19,0.11-1.74,0.34c-1.74,0.71-2.9,2.21-2.9,3.85c0,2.21,1.99,3.94,4.52,3.94
		c2.69,0,4.37-2.01,4.37-3.85C1255.65,104.66,1254.61,101.77,1251.4,101.77z"/>
</g>
<g class="st2">
	<path class="st3" d="M1223.3,159.09c1.05,0,2.04-0.2,2.99-0.61c2.99-1.27,4.98-3.97,4.98-6.92c0-3.97-3.41-7.07-7.76-7.07
		c-4.61,0-7.5,3.61-7.5,6.92C1216.01,153.91,1217.79,159.09,1223.3,159.09z"/>
</g>
<g class="st2">
	<path class="st3" d="M1223.38,135.08c0.81,0,1.58-0.16,2.31-0.47c2.31-0.98,3.85-3.07,3.85-5.35c0-3.07-2.63-5.46-5.99-5.46
		c-3.56,0-5.79,2.79-5.79,5.35C1217.75,131.07,1219.12,135.08,1223.38,135.08z"/>
</g>
<g class="st2">
	<path class="st3" d="M1223.44,113c0.61,0,1.19-0.12,1.74-0.36c1.74-0.74,2.9-2.31,2.9-4.03c0-2.31-1.99-4.12-4.52-4.12
		c-2.69,0-4.37,2.1-4.37,4.03C1219.2,109.98,1220.23,113,1223.44,113z"/>
</g>
<g class="st2">
	<g>
		<path class="st3" d="M1251.2,45.56c-0.83,0-1.65-0.29-2.28-0.88l-12.07-11.2c-1.69-1.56-2.61-3.64-2.61-5.85s0.93-4.29,2.61-5.85
			c1.68-1.56,3.93-2.42,6.31-2.42c2.38,0,4.62,0.86,6.31,2.42l1.74,1.61l1.75-1.62c1.69-1.56,3.93-2.42,6.31-2.42
			c2.38,0,4.62,0.86,6.31,2.42c1.69,1.56,2.61,3.64,2.61,5.85c0,2.21-0.93,4.29-2.61,5.85l-12.09,11.2
			C1252.85,45.27,1252.03,45.56,1251.2,45.56z M1243.15,25.35c-0.66,0-1.28,0.24-1.74,0.67c-0.96,0.89-0.96,2.35,0,3.24l9.79,9.08
			l9.8-9.09c0.47-0.43,0.72-1.01,0.72-1.62c0-0.61-0.26-1.19-0.72-1.62c-0.96-0.89-2.53-0.89-3.49,0l-4.03,3.74
			c-0.61,0.56-1.43,0.88-2.28,0.88l0,0c-0.86,0-1.68-0.32-2.28-0.88l-4.02-3.73C1244.43,25.59,1243.81,25.35,1243.15,25.35z"/>
	</g>
</g>
<g class="st2">
	<g>
		<path class="st3" d="M1017.71,59.28c-6.49,0-11.77-5.13-11.77-11.43s5.28-11.43,11.77-11.43c6.49,0,11.77,5.13,11.77,11.43
			S1024.2,59.28,1017.71,59.28z M1017.71,42.7c-2.93,0-5.32,2.32-5.32,5.16c0,2.85,2.39,5.16,5.32,5.16c2.93,0,5.32-2.32,5.32-5.16
			C1023.03,45.01,1020.64,42.7,1017.71,42.7z"/>
	</g>
</g>
<g class="st2">
	<g>
		<g>
			<path class="st3" d="M366.02,40.19c0,1.73-1.44,3.13-3.23,3.13c-1.78,0-3.23-1.4-3.23-3.13l0-16.59c0-1.73,1.44-3.13,3.23-3.13
				c1.78,0,3.23,1.4,3.23,3.13L366.02,40.19z"/>
		</g>
	</g>
	<g>
		<g>
			<path class="st3" d="M374.08,31.43c0,0.8-0.32,1.6-0.95,2.21c-1.26,1.22-3.3,1.22-4.56,0l-5.78-5.6l-5.77,5.6
				c-1.26,1.22-3.3,1.22-4.56,0s-1.26-3.21,0-4.43l8.05-7.81c0.61-0.59,1.43-0.92,2.28-0.92c0.86,0,1.68,0.33,2.28,0.92l8.06,7.82
				C373.76,29.82,374.08,30.63,374.08,31.43z"/>
		</g>
	</g>
</g>
<g class="st2">
	<g>
		<g>
			<path class="st3" d="M417.12,134.76c-0.46-0.45-0.74-1.06-0.74-1.74l0-18.44c0-1.36,1.14-2.46,2.54-2.46
				c1.4,0,2.54,1.1,2.54,2.46l0,18.44c0,1.36-1.14,2.46-2.54,2.46C418.21,135.48,417.58,135.21,417.12,134.76z"/>
		</g>
	</g>
	<g>
		<g>
			<path class="st3" d="M407.62,125.54c-0.46-0.45-0.74-1.06-0.74-1.74c0-1.36,1.14-2.46,2.54-2.46l19,0c1.4,0,2.54,1.1,2.54,2.46
				c0,1.36-1.14,2.46-2.54,2.46l-19,0C408.71,126.26,408.07,125.99,407.62,125.54z"/>
		</g>
	</g>
</g>
<g class="st2">
	<g>
		<path class="st3" d="M278.49,33.41c-0.72,0-1.42-0.28-1.93-0.78l-6.81-6.6c-1.07-1.03-1.07-2.71,0-3.74
			c1.07-1.03,2.79-1.03,3.86,0l4.88,4.73l8.29-8.04c1.07-1.03,2.79-1.03,3.86,0c1.07,1.03,1.07,2.71,0,3.74l-10.22,9.92
			C279.91,33.13,279.22,33.41,278.49,33.41z"/>
	</g>
</g>
<g class="st2">
	<g>
		<path class="st3" d="M46.74,39.08c-0.72,0-1.42-0.28-1.93-0.78L38,31.7c-1.07-1.03-1.07-2.71,0-3.74c1.07-1.03,2.79-1.03,3.86,0
			l4.88,4.73l8.29-8.04c1.07-1.03,2.79-1.03,3.86,0c1.07,1.03,1.07,2.71,0,3.74l-10.22,9.92C48.15,38.8,47.46,39.08,46.74,39.08z"/>
	</g>
</g>
<g class="st2">
	<g>
		<g>
			<path class="st3" d="M176.26,89.75c-0.83,0-1.65-0.31-2.28-0.92l-17.09-16.59c-1.26-1.22-1.26-3.21,0-4.43
				c1.26-1.22,3.3-1.22,4.56,0l17.09,16.59c1.26,1.22,1.26,3.21,0,4.43C177.91,89.44,177.08,89.75,176.26,89.75z"/>
		</g>
	</g>
	<g>
		<g>
			<path class="st3" d="M159.16,89.75c-0.83,0-1.65-0.31-2.28-0.92c-1.26-1.22-1.26-3.21,0-4.43l17.09-16.59
				c1.26-1.22,3.3-1.22,4.56,0c1.26,1.22,1.26,3.21,0,4.43l-17.09,16.59C160.81,89.44,159.99,89.75,159.16,89.75z"/>
		</g>
	</g>
</g>
<g class="st2">
	<g>
		<path class="st3" d="M505.16,40.9c-0.86,0-1.68-0.33-2.28-0.92l-8.05-7.81c-1.26-1.22-1.26-3.21,0-4.43c1.26-1.22,3.3-1.22,4.56,0
			l5.77,5.6l9.8-9.51c1.26-1.22,3.3-1.22,4.56,0c1.26,1.22,1.26,3.21,0,4.43l-12.08,11.73C506.84,40.57,506.02,40.9,505.16,40.9z"/>
	</g>
</g>
<g class="st2">
	<g>
		<path class="st3" d="M1169.78,183.21c-0.86,0-1.68-0.33-2.28-0.92l-8.05-7.81c-1.26-1.22-1.26-3.21,0-4.43
			c1.26-1.22,3.3-1.22,4.56,0l5.77,5.6l9.8-9.51c1.26-1.22,3.3-1.22,4.56,0c1.26,1.22,1.26,3.21,0,4.43l-12.08,11.73
			C1171.46,182.88,1170.64,183.21,1169.78,183.21z"/>
	</g>
</g>
<g class="st2">
	<g>
		<path class="st3" d="M398.71,67.64c-0.81,0-1.61-0.3-2.22-0.9c-1.23-1.19-1.23-3.13,0-4.32c0.48-0.47,0.75-1.09,0.75-1.75
			c0-0.66-0.26-1.28-0.75-1.75c-0.03-0.02-0.05-0.05-0.07-0.07c-3.37-3.35-3.34-8.74,0.08-12.06c1.23-1.19,3.22-1.19,4.45,0
			c1.23,1.19,1.23,3.13,0,4.32c-0.99,0.96-0.99,2.53,0,3.5c0.03,0.02,0.05,0.05,0.07,0.07c1.62,1.61,2.51,3.74,2.51,5.99
			c0,2.29-0.92,4.45-2.59,6.07C400.32,67.34,399.52,67.64,398.71,67.64z"/>
	</g>
</g>
<g class="st2">
	<g>
		<path class="st3" d="M314.8,51.77c-0.81,0-1.61-0.3-2.22-0.9c-1.23-1.19-1.23-3.13,0-4.32c0.48-0.47,0.75-1.09,0.75-1.75
			c0-0.66-0.26-1.28-0.75-1.75c-0.03-0.03-0.06-0.06-0.09-0.09c-3.35-3.35-3.32-8.73,0.09-12.04c1.23-1.19,3.22-1.19,4.45,0
			c1.23,1.19,1.23,3.13,0,4.32c-0.99,0.97-0.99,2.54,0,3.5c0.03,0.03,0.06,0.06,0.09,0.09c1.61,1.61,2.5,3.73,2.5,5.98
			c0,2.29-0.92,4.45-2.59,6.07C316.41,51.47,315.6,51.77,314.8,51.77z"/>
	</g>
</g>
<g class="st2">
	<g>
		<path class="st3" d="M328.62,38.76c-0.81,0-1.61-0.3-2.22-0.9c-1.23-1.19-1.23-3.13,0-4.32c0.48-0.47,0.75-1.09,0.75-1.75
			c0-0.66-0.26-1.28-0.75-1.75c-0.03-0.03-0.06-0.06-0.09-0.09c-3.35-3.35-3.32-8.73,0.09-12.04c1.23-1.19,3.22-1.19,4.45,0
			c1.23,1.19,1.23,3.13,0,4.32c-0.99,0.97-0.99,2.54,0,3.5c0.03,0.03,0.06,0.06,0.09,0.09c1.61,1.61,2.5,3.73,2.5,5.98
			c0,2.29-0.92,4.45-2.59,6.07C330.23,38.46,329.43,38.76,328.62,38.76z"/>
	</g>
</g>
<g class="st2">
	<g>
		<path class="st3" d="M326.87,67.64c-0.81,0-1.61-0.3-2.22-0.9c-1.23-1.19-1.23-3.13,0-4.32c0.48-0.47,0.75-1.09,0.75-1.75
			s-0.26-1.28-0.75-1.75c-0.03-0.03-0.06-0.06-0.09-0.09c-3.35-3.35-3.32-8.73,0.09-12.04c1.23-1.19,3.22-1.19,4.45,0
			c1.23,1.19,1.23,3.13,0,4.32c-0.99,0.97-0.99,2.54,0,3.5c0.03,0.03,0.06,0.06,0.09,0.09c1.61,1.61,2.5,3.73,2.5,5.98
			c0,2.29-0.92,4.45-2.59,6.07C328.49,67.34,327.68,67.64,326.87,67.64z"/>
	</g>
</g>
<g class="st2">
	<g>
		<path class="st3" d="M411.95,51.08c-0.81,0-1.61-0.3-2.22-0.9c-1.23-1.19-1.23-3.13,0-4.32c0.48-0.47,0.75-1.09,0.75-1.75
			s-0.26-1.28-0.75-1.75c-0.03-0.03-0.06-0.06-0.09-0.09c-3.35-3.35-3.32-8.73,0.09-12.04c1.23-1.19,3.22-1.19,4.45,0
			c1.23,1.19,1.23,3.13,0,4.32c-0.99,0.97-0.99,2.54,0,3.5c0.03,0.03,0.06,0.06,0.09,0.09c1.61,1.61,2.5,3.73,2.5,5.98
			c0,2.29-0.92,4.45-2.59,6.07C413.56,50.78,412.75,51.08,411.95,51.08z"/>
	</g>
</g>
<g class="st2">
	<g>
		<path class="st3" d="M396.96,38.76c-0.81,0-1.61-0.3-2.22-0.9c-1.23-1.19-1.23-3.13,0-4.32c0.48-0.47,0.75-1.09,0.75-1.75
			c0-0.66-0.26-1.28-0.75-1.75c-0.03-0.03-0.06-0.06-0.09-0.09c-3.35-3.35-3.32-8.73,0.09-12.04c1.23-1.19,3.22-1.19,4.45,0
			c1.23,1.19,1.23,3.13,0,4.32c-0.99,0.97-0.99,2.54,0,3.5c0.03,0.03,0.06,0.06,0.09,0.09c1.61,1.61,2.5,3.73,2.5,5.98
			c0,2.29-0.92,4.45-2.59,6.07C398.57,38.46,397.77,38.76,396.96,38.76z"/>
	</g>
</g>
<g class="st2">
	<path class="st3" d="M136.94,42.78c-1.19,0-2.36-0.53-3.15-1.53c-1.36-1.74-1.06-4.25,0.68-5.62l16.12-12.65
		c1.46-1.15,3.52-1.14,4.97,0.02l13.34,10.67l13.63-10.69c1.46-1.15,3.52-1.14,4.97,0.02l13.34,10.67l13.63-10.69
		c1.46-1.15,3.52-1.14,4.97,0.02l15.81,12.65c1.73,1.38,2.01,3.9,0.63,5.62c-1.38,1.73-3.9,2.01-5.62,0.63L216.9,31.24l-13.63,10.69
		c-1.46,1.14-3.52,1.14-4.97-0.02l-13.34-10.67l-13.63,10.69c-1.46,1.14-3.52,1.14-4.97-0.02l-13.34-10.67l-13.63,10.69
		C138.67,42.5,137.8,42.78,136.94,42.78z"/>
</g>
<g class="st2">
	<path class="st3" d="M1280.68,208.14c-0.52,0-0.94-0.41-0.94-0.91V97.69c0-4.36,0.55-8.84,1.64-13.31c0.03-0.2,0.06-0.33,0.1-0.45
		c2.04-8.18,5.97-16,11.33-22.55c2.1-2.53,4.6-4.99,7.89-7.72l23.69-20.7c1.29-1.13,2.96-1.75,4.69-1.75s3.39,0.62,4.69,1.75
		l23.76,20.77c3.25,2.69,5.73,5.12,7.8,7.65c8.44,10.29,13.09,23.18,13.09,36.32v109.54c0,0.5-0.42,0.91-0.94,0.91H1280.68z
		 M1366.43,200.44l-33.26-42.21h-0.12v42.21H1366.43z M1325.11,200.44v-42.21H1325l-33.28,42.21H1325.11z M1370.49,192.93V164.5
		l-17.41-22.11l-12.69,12.33L1370.49,192.93z M1287.67,192.93l30.11-38.2l-12.71-12.33l-17.4,22.09V192.93z M1370.49,151.83v-26.32
		l-11.76,11.4L1370.49,151.83z M1287.67,151.83l11.74-14.92l-11.74-11.4V151.83z M1331.21,150.54v-37.18
		c-0.02-1.26,0.53-2.41,1.51-3.13c0.69-0.51,1.52-0.78,2.4-0.78c0.19,0,0.38,0.01,0.56,0.04l16.65-0.04v-4.06h-17.22
		c-1.03,0-2.05-0.41-2.8-1.12c-0.76-0.75-1.17-1.75-1.15-2.74l0.04-13.75h-4.22v13.77c0,2.12-1.78,3.85-3.97,3.85h-17.22v4.1
		c0,0,17.22-0.04,17.22-0.04c0.18,0,0.32,0.03,0.42,0.05c0.28,0.04,0.54,0.08,0.8,0.16c0.33,0.11,0.56,0.24,0.77,0.36
		c0.07,0.02,0.26,0.08,0.45,0.23c0.03,0.03,0.06,0.06,0.09,0.09c0.01,0.01,0.02,0.03,0.04,0.05c0.06,0.04,0.13,0.08,0.21,0.15
		c0.2,0.19,0.29,0.36,0.35,0.47l0,0c0.18,0.21,0.31,0.41,0.41,0.61c0.12,0.23,0.18,0.45,0.23,0.63c0.07,0.24,0.14,0.45,0.15,0.7
		c0.02,0.07,0.05,0.18,0.05,0.32v37.26H1331.21z M1319.06,145.1v-20.45l-9.13,11.59L1319.06,145.1z M1339.15,145.04l9.07-8.81
		l-9.07-11.52V145.04z M1353.87,130.75l16.62-16.11V97.69c0-1.32-0.07-2.72-0.22-4.25l-10,9.7v10.14c0,2.12-1.78,3.85-3.97,3.85
		l-13.13,0.03L1353.87,130.75z M1304.28,130.75l10.72-13.6l-13.13,0.04c-1.04,0-2.03-0.4-2.8-1.11c-0.75-0.73-1.17-1.72-1.17-2.73
		v-10.2l-10-9.7c-0.15,1.51-0.22,2.92-0.22,4.25v16.94L1304.28,130.75z M1354.66,97.69l13.92-13.5c-1.87-6.54-5.1-12.74-9.36-17.95
		l-20.07,19.48l-0.04,11.97H1354.66z M1319.07,97.69V85.52l-20.01-19.41c-0.01,0.02-0.03,0.03-0.04,0.05
		c-4.3,5.23-7.56,11.46-9.43,18.04l13.92,13.5H1319.07z M1325.11,80.09V42.68l-19.19,16.75c-0.49,0.39-0.94,0.78-1.36,1.15
		l20.1,19.51H1325.11z M1333.75,80.08l19.97-19.38c-0.45-0.39-0.92-0.79-1.41-1.21l-19.26-16.82v37.41H1333.75z"/>
</g>
<g class="st2">
	<g>
		<g>
			<path class="st3" d="M807.83,69.75c0,1.85-1.54,3.35-3.45,3.35c-1.91,0-3.45-1.5-3.45-3.35l0-17.74c0-1.85,1.54-3.35,3.45-3.35
				c1.91,0,3.45,1.5,3.45,3.35L807.83,69.75z"/>
		</g>
	</g>
	<g>
		<g>
			<path class="st3" d="M816.45,60.38c0,0.86-0.34,1.71-1.01,2.37c-1.35,1.31-3.53,1.31-4.88,0l-6.18-6l-6.17,5.99
				c-1.35,1.31-3.53,1.31-4.88,0c-1.35-1.31-1.35-3.43,0-4.74l8.61-8.36c0.65-0.63,1.53-0.98,2.44-0.98c0.92,0,1.79,0.35,2.44,0.98
				l8.62,8.37C816.11,58.66,816.45,59.52,816.45,60.38z"/>
		</g>
	</g>
</g>
<g class="st2">
	<g>
		<g>
			<path class="st3" d="M766.1,50.15c0,1.85-1.54,3.35-3.45,3.35c-1.91,0-3.45-1.5-3.45-3.35l0-17.74c0-1.85,1.54-3.35,3.45-3.35
				c1.91,0,3.45,1.5,3.45,3.35L766.1,50.15z"/>
		</g>
	</g>
	<g>
		<g>
			<path class="st3" d="M774.72,40.78c0,0.86-0.34,1.71-1.01,2.37c-1.35,1.31-3.53,1.31-4.88,0l-6.18-6l-6.17,5.99
				c-1.35,1.31-3.53,1.31-4.88,0c-1.35-1.31-1.35-3.43,0-4.74l8.61-8.36c0.65-0.63,1.53-0.98,2.44-0.98c0.92,0,1.79,0.35,2.44,0.98
				l8.62,8.37C774.38,39.06,774.72,39.92,774.72,40.78z"/>
		</g>
	</g>
</g>
<g class="st2">
	<g>
		<g>
			<path class="st3" d="M657.51,183.29c1.78,0,3.23,1.4,3.23,3.13c0,1.73-1.44,3.13-3.23,3.13l-17.09,0c-1.78,0-3.23-1.4-3.23-3.13
				c0-1.73,1.44-3.13,3.23-3.13L657.51,183.29z"/>
		</g>
	</g>
	<g>
		<g>
			<path class="st3" d="M648.48,175.47c0.83,0,1.65,0.31,2.28,0.92c1.26,1.22,1.26,3.21,0,4.43l-5.78,5.61l5.77,5.6
				c1.26,1.22,1.26,3.21,0,4.43c-1.26,1.22-3.3,1.22-4.56,0l-8.05-7.81c-0.61-0.59-0.95-1.38-0.95-2.22c0-0.83,0.34-1.63,0.95-2.21
				l8.06-7.82C646.83,175.77,647.65,175.47,648.48,175.47z"/>
		</g>
	</g>
</g>
<g class="st2">
	<path class="st3" d="M1128.6,204.89c-0.38,0-0.75-0.09-1.08-0.26l-7.7-3.93l-7.72,3.93c-0.33,0.17-0.7,0.25-1.07,0.25
		c-0.48,0-0.94-0.14-1.33-0.41c-0.71-0.51-1.07-1.37-0.92-2.19l1.47-8.34l-6.24-5.9c-0.63-0.6-0.85-1.47-0.58-2.28
		c0.27-0.8,0.97-1.38,1.84-1.51l8.64-1.22l3.86-7.59c0.38-0.76,1.17-1.24,2.05-1.24c0.87,0,1.66,0.47,2.05,1.23l3.85,7.59l8.63,1.22
		c0.88,0.13,1.58,0.71,1.85,1.52c0.27,0.81,0.05,1.68-0.58,2.28l-6.24,5.91l1.47,8.34c0.15,0.82-0.2,1.68-0.91,2.18
		C1129.55,204.75,1129.08,204.89,1128.6,204.89z M1119.81,195.96c0.37,0,0.73,0.09,1.06,0.25l4.68,2.39l-0.89-5.05
		c-0.12-0.73,0.12-1.47,0.65-1.97l3.78-3.58l-5.22-0.74c-0.74-0.1-1.39-0.55-1.73-1.22l-2.34-4.59l-2.34,4.59
		c-0.33,0.66-0.98,1.12-1.73,1.22l-5.21,0.73l3.78,3.57c0.54,0.51,0.78,1.25,0.66,1.97l-0.9,5.05l4.67-2.38
		C1119.08,196.05,1119.44,195.96,1119.81,195.96z"/>
</g>
<g class="st2">
	<path class="st3" d="M303.15,136.68c-0.38,0-0.75-0.09-1.08-0.26l-7.7-3.93l-7.72,3.93c-0.33,0.17-0.7,0.25-1.07,0.25
		c-0.48,0-0.94-0.14-1.33-0.41c-0.71-0.51-1.07-1.37-0.92-2.19l1.47-8.34l-6.24-5.9c-0.63-0.6-0.85-1.47-0.58-2.28
		c0.27-0.8,0.97-1.38,1.84-1.51l8.64-1.22l3.86-7.59c0.38-0.76,1.17-1.24,2.05-1.24c0.87,0,1.66,0.47,2.05,1.23l3.85,7.59l8.63,1.22
		c0.88,0.13,1.58,0.71,1.85,1.52c0.27,0.81,0.05,1.68-0.58,2.28l-6.24,5.91l1.47,8.34c0.15,0.82-0.2,1.68-0.91,2.18
		C304.1,136.53,303.63,136.68,303.15,136.68z M294.36,127.75c0.37,0,0.73,0.09,1.06,0.25l4.68,2.39l-0.89-5.05
		c-0.12-0.73,0.12-1.47,0.65-1.97l3.78-3.58l-5.22-0.74c-0.74-0.1-1.39-0.55-1.73-1.22l-2.34-4.59l-2.34,4.59
		c-0.33,0.66-0.98,1.12-1.73,1.22l-5.21,0.73l3.78,3.57c0.54,0.51,0.78,1.25,0.66,1.97l-0.9,5.05l4.67-2.38
		C293.63,127.84,294,127.75,294.36,127.75z"/>
</g>
<g class="st2">
	<path class="st3" d="M282.03,93.66c-0.38,0-0.75-0.09-1.08-0.26l-7.7-3.93l-7.72,3.93c-0.33,0.17-0.7,0.25-1.07,0.25
		c-0.48,0-0.94-0.14-1.33-0.41c-0.71-0.51-1.07-1.37-0.92-2.19l1.47-8.34l-6.24-5.9c-0.63-0.6-0.85-1.47-0.58-2.28
		c0.27-0.8,0.97-1.38,1.84-1.51l8.64-1.22l3.86-7.59c0.38-0.76,1.17-1.24,2.05-1.24c0.87,0,1.66,0.47,2.05,1.23l3.85,7.59l8.63,1.22
		c0.88,0.13,1.58,0.71,1.85,1.52c0.27,0.81,0.05,1.68-0.58,2.28l-6.24,5.91l1.47,8.34c0.15,0.82-0.2,1.68-0.91,2.18
		C282.98,93.51,282.52,93.66,282.03,93.66z M273.25,84.73c0.37,0,0.73,0.09,1.06,0.25l4.68,2.39l-0.89-5.05
		c-0.12-0.73,0.12-1.47,0.65-1.97l3.78-3.58l-5.22-0.74c-0.74-0.1-1.39-0.55-1.73-1.22l-2.34-4.59l-2.34,4.59
		c-0.33,0.66-0.98,1.12-1.73,1.22l-5.21,0.73l3.78,3.57c0.54,0.51,0.78,1.25,0.66,1.97l-0.9,5.05l4.67-2.38
		C272.51,84.82,272.88,84.73,273.25,84.73z"/>
</g>
<g class="st2">
	<path class="st3" d="M461.22,90.32c-0.38,0-0.75-0.09-1.08-0.26l-7.7-3.93l-7.72,3.93c-0.33,0.17-0.7,0.25-1.07,0.25
		c-0.48,0-0.94-0.14-1.33-0.41c-0.71-0.51-1.07-1.37-0.92-2.19l1.47-8.34l-6.24-5.9c-0.63-0.6-0.85-1.47-0.58-2.28
		c0.27-0.8,0.97-1.38,1.84-1.51l8.64-1.22l3.86-7.59c0.38-0.76,1.17-1.24,2.05-1.24c0.87,0,1.66,0.47,2.05,1.23l3.85,7.59l8.63,1.22
		c0.88,0.13,1.58,0.71,1.85,1.52c0.27,0.81,0.05,1.68-0.58,2.28l-6.24,5.91l1.47,8.34c0.15,0.82-0.2,1.68-0.91,2.18
		C462.17,90.18,461.7,90.32,461.22,90.32z M452.43,81.4c0.37,0,0.73,0.09,1.06,0.25l4.68,2.39l-0.89-5.05
		c-0.12-0.73,0.12-1.47,0.65-1.97l3.78-3.58l-5.22-0.74c-0.74-0.1-1.39-0.55-1.73-1.22l-2.34-4.59l-2.34,4.59
		c-0.33,0.66-0.98,1.12-1.73,1.22l-5.21,0.73l3.78,3.57c0.54,0.51,0.78,1.25,0.66,1.97l-0.9,5.05l4.67-2.38
		C451.7,81.48,452.07,81.4,452.43,81.4z"/>
</g>
<g class="st2">
	<path class="st3" d="M678.23,98.87c-0.36,0-0.71-0.09-1.02-0.25l-7.3-3.72l-7.31,3.73c-0.31,0.16-0.66,0.24-1.01,0.24
		c-0.45,0-0.89-0.13-1.26-0.39c-0.68-0.49-1.01-1.3-0.88-2.07l1.39-7.9l-5.91-5.59c-0.6-0.57-0.81-1.39-0.55-2.16
		c0.25-0.76,0.92-1.31,1.74-1.44l8.19-1.15l3.66-7.19c0.36-0.72,1.11-1.17,1.94-1.17c0.83,0,1.57,0.45,1.95,1.17l3.65,7.19
		l8.18,1.15c0.83,0.13,1.5,0.68,1.75,1.44c0.26,0.76,0.05,1.59-0.55,2.16l-5.92,5.6l1.39,7.9c0.15,0.78-0.19,1.59-0.86,2.06
		C679.13,98.74,678.69,98.87,678.23,98.87z M669.91,90.41c0.35,0,0.7,0.08,1,0.24l4.44,2.26l-0.84-4.78
		c-0.12-0.69,0.11-1.39,0.62-1.87l3.58-3.39l-4.95-0.7c-0.7-0.09-1.32-0.53-1.64-1.15l-2.21-4.35l-2.21,4.35
		c-0.32,0.63-0.93,1.06-1.64,1.15l-4.94,0.7l3.58,3.39c0.51,0.49,0.74,1.18,0.63,1.86l-0.85,4.79l4.43-2.26
		C669.21,90.49,669.56,90.41,669.91,90.41z"/>
</g>
<g class="st2">
	<path class="st3" d="M706.85,52.71c-0.36,0-0.71-0.09-1.02-0.25l-7.3-3.72l-7.31,3.73c-0.31,0.16-0.66,0.24-1.01,0.24
		c-0.45,0-0.89-0.13-1.26-0.39c-0.68-0.49-1.01-1.3-0.88-2.07l1.39-7.9l-5.91-5.59c-0.6-0.57-0.81-1.39-0.55-2.16
		c0.25-0.76,0.92-1.31,1.74-1.44l8.19-1.15l3.66-7.19c0.36-0.72,1.11-1.17,1.94-1.17c0.83,0,1.57,0.45,1.95,1.17l3.65,7.19
		l8.18,1.15c0.83,0.13,1.5,0.68,1.75,1.44c0.26,0.76,0.05,1.59-0.55,2.16l-5.92,5.6l1.39,7.9c0.15,0.78-0.19,1.59-0.86,2.06
		C707.74,52.57,707.3,52.71,706.85,52.71z M698.52,44.25c0.35,0,0.7,0.08,1,0.24l4.44,2.26l-0.84-4.78
		c-0.12-0.69,0.11-1.39,0.62-1.87l3.58-3.39l-4.95-0.7c-0.7-0.09-1.32-0.53-1.64-1.15l-2.21-4.35l-2.21,4.35
		c-0.32,0.63-0.93,1.06-1.64,1.15l-4.94,0.7l3.58,3.39c0.51,0.49,0.74,1.18,0.63,1.86l-0.85,4.79l4.43-2.26
		C697.82,44.33,698.17,44.25,698.52,44.25z"/>
</g>
<g class="st2">
	<path class="st3" d="M1223.9,168.35c-0.81,0-1.58,0.16-2.31,0.47c-2.31,0.98-3.85,3.07-3.85,5.35c0,3.07,2.63,5.46,5.99,5.46
		c3.56,0,5.79-2.79,5.79-5.35C1229.53,172.36,1228.16,168.35,1223.9,168.35z"/>
</g>
<g class="st2">
	<path class="st3" d="M1223.84,190.43c-0.61,0-1.19,0.12-1.74,0.36c-1.74,0.74-2.9,2.31-2.9,4.03c0,2.31,1.99,4.12,4.52,4.12
		c2.69,0,4.37-2.1,4.37-4.03C1228.08,193.45,1227.04,190.43,1223.84,190.43z"/>
</g>
<g class="st2">
	<g>
		<path class="st3" d="M498.39,133.84L498.39,133.84c-0.79,0.18-1.62,0.05-2.31-0.36l-23.92-14.31c-2.83-1.69-4.8-4.35-5.57-7.48
			s-0.23-6.37,1.51-9.11c3.6-5.66,11.27-7.42,17.1-3.94l5.36,3.21l3.32-5.22c1.74-2.74,4.48-4.66,7.71-5.41
			c3.23-0.74,6.57-0.22,9.39,1.47c2.83,1.69,4.8,4.35,5.57,7.48c0.77,3.13,0.23,6.37-1.51,9.11l-14.76,23.23
			C499.86,133.18,499.18,133.66,498.39,133.84z M477.23,102.93c-1.57,0.36-3.01,1.31-3.92,2.75c-0.89,1.39-1.16,3.04-0.77,4.64
			c0.39,1.59,1.4,2.95,2.83,3.81l21.32,12.76l13.16-20.71c0.89-1.4,1.16-3.04,0.77-4.64s-1.4-2.95-2.83-3.81
			c-1.44-0.86-3.13-1.13-4.78-0.75c-1.64,0.38-3.04,1.36-3.92,2.75l-4.92,7.74c-0.42,0.67-1.11,1.15-1.89,1.33l0,0
			c-0.79,0.18-1.62,0.05-2.31-0.36l-7.96-4.76C480.52,102.79,478.81,102.57,477.23,102.93z"/>
	</g>
</g>
<g class="st2">
	<g>
		<path class="st3" d="M622.66,73.18h2.53c10.54,0,19.12-8.32,19.12-18.55s-8.58-18.55-19.12-18.55c-2.05,0-4.07,0.32-5.99,0.93
			c-1.72-3.9-4.43-7.38-7.87-10.07c-4.73-3.69-10.68-5.72-16.76-5.72c-10.42,0-19.84,5.89-24.21,14.89
			c-4.33,0.27-8.28,1.96-11.35,4.58c-0.89-0.1-1.79-0.16-2.7-0.16c-5.21,0-10.31,1.74-14.36,4.9c-2.8,2.18-5.03,4.98-6.51,8.12
			c-1.5-0.42-3.06-0.64-4.64-0.64c-9.13,0-16.56,7.21-16.56,16.08c0,8.86,7.43,16.08,16.56,16.08h44.64c2.17,0,4.23-0.41,6.11-1.15
			l-11.36,59.15c-0.39,2.01,0.98,3.94,3.05,4.31c0.24,0.04,0.47,0.06,0.7,0.06c1.8,0,3.4-1.24,3.74-3.02l13.69-71.24h7.45
			l4.86,42.13c0.22,1.89,1.87,3.29,3.78,3.29c0.14,0,0.29-0.01,0.43-0.02c2.09-0.23,3.6-2.06,3.36-4.09l-4.77-41.31h8.21
			l19.05,61.62c0.49,1.6,2.01,2.64,3.65,2.64c0.36,0,0.73-0.05,1.1-0.16c2.02-0.59,3.16-2.65,2.55-4.6L622.66,73.18z M571.63,65.78
			c-6.34,0-11.49-5-11.49-11.15c0-6.15,5.16-11.15,11.49-11.15c0.29,0,0.61,0.01,0.97,0.04c1.73,0.14,3.34-0.87,3.91-2.46
			c2.69-7.44,9.95-12.43,18.07-12.43c8.95,0,16.62,5.9,18.65,14.34c0.28,1.17,1.13,2.13,2.28,2.59c1.15,0.45,2.45,0.34,3.49-0.31
			c1.85-1.15,3.99-1.76,6.19-1.76c6.34,0,11.49,5,11.49,11.15c0,6.15-5.16,11.15-11.49,11.15H571.63z M530.82,77.67
			c-4.93,0-8.94-3.89-8.94-8.68c0-4.79,4.01-8.68,8.94-8.68c1.71,0,3.38,0.47,4.82,1.37c1.04,0.65,2.34,0.77,3.49,0.31
			c1.15-0.45,2-1.42,2.28-2.59c1.42-5.92,6.31-10.28,12.32-11.26c-0.78,2.02-1.21,4.2-1.21,6.48c0,10.23,8.58,18.55,19.12,18.55
			h11.66c-1.53,2.67-4.46,4.49-7.83,4.49H530.82z M530.82,77.67"/>
	</g>
</g>
<g class="st2">
	<g>
		<path class="st3" d="M362.8,70.01c8.93,0,19.36-2.02,19.36-7.7s-10.43-7.7-19.36-7.7s-19.36,2.02-19.36,7.7
			S353.87,70.01,362.8,70.01L362.8,70.01z M375.61,62.31c-5.6,2.73-20.01,2.73-25.62,0C355.58,59.58,370,59.58,375.61,62.31
			L375.61,62.31z M375.61,62.31"/>
	</g>
	<g>
		<path class="st3" d="M407.95,74.48c-0.03-1.41-1.13-2.59-2.57-2.75c-1.44-0.16-2.79,0.74-3.15,2.1
			c-2.41,9.13-13.14,5.84-24.34,9.75c-2.19-6.05-8.13-10.39-15.1-10.39c-6.97,0-12.91,4.35-15.1,10.39
			c-11.16-3.89-21.93-0.62-24.34-9.75c-0.36-1.37-1.71-2.27-3.15-2.1c-1.44,0.16-2.54,1.34-2.57,2.75
			c-0.22,10.87,1.09,24.18,12.16,26.19c-0.29,4.7,0.26,10.18,5.02,11.09c0.18,3.18,1.96,5.36,4.76,6.33l-0.36,1.54
			c-2.95,12.8,7.09,24.93,20.58,24.93h5.98c13.52,0,23.53-12.15,20.58-24.93l-0.36-1.54c2.8-0.97,4.58-3.15,4.76-6.33
			c4.76-0.91,5.31-6.4,5.02-11.09C406.86,98.66,408.18,85.35,407.95,74.48L407.95,74.48z M362.8,78.84c5.61,0,10.18,4.43,10.18,9.88
			c0,5.45-4.57,9.88-10.18,9.88s-10.18-4.43-10.18-9.88C352.62,83.27,357.19,78.84,362.8,78.84L362.8,78.84z M340.88,112.38
			c-0.14-0.18-0.54-0.92,0.03-3.15c0.57-2.26-1.76-4.18-3.97-3.27c-0.43,0.18-0.71,0.24-0.86,0.26c-0.24-0.43-0.92-2.21-0.24-7.79
			c0.21-1.7-1.18-3.19-2.96-3.15c-2.3,0.05-4.07-0.55-5.41-1.84c-1.88-1.82-3.1-5.03-3.67-9.72c6.37,3.83,15.41,2.5,23,5.63
			c0.1,2.4,0.76,4.66,1.85,6.66c-3.17,2.57-5.4,6.11-6.3,10.03C340.78,112.88,340.9,112.41,340.88,112.38L340.88,112.38z
			 M365.79,138.93h-5.98c-9.79,0-17.04-8.8-14.91-18.06l3.14-13.63c0.61-2.66,2.12-5.07,4.25-6.84c6.03,5.12,15,5.11,21.02,0
			c2.13,1.77,3.63,4.18,4.25,6.84l3.14,13.63C382.83,130.15,375.55,138.93,365.79,138.93L365.79,138.93z M398.11,93.43
			c-1.34,1.29-3.1,1.9-5.41,1.84c-1.75-0.04-3.17,1.44-2.96,3.16c0.68,5.58,0,7.36-0.24,7.79c-0.15-0.02-0.43-0.08-0.86-0.26
			c-2.2-0.91-4.54,1.01-3.97,3.27c0.56,2.23,0.16,2.97,0.03,3.15c-0.02,0.03,0.1,0.49-1.48-6.37c-0.9-3.91-3.14-7.46-6.3-10.03
			c1.1-2,1.76-4.26,1.85-6.66c7.58-3.13,16.63-1.8,23-5.63C401.21,88.4,399.99,91.61,398.11,93.43L398.11,93.43z M398.11,93.43"/>
	</g>
</g>
<g class="st2">
	<path class="st3" d="M154.55,101.72c-41.82-21.64-5.95-3.08-32.38-16.76V64.33c2.14,1.11,2.79,1.58,4.06,1.58
		c1.45,0,2.86-0.76,3.59-2.09c1.06-1.92,0.31-4.31-1.67-5.33c-19.74-10.22-11.85-6.13-24.54-12.7c0.38-0.95,0.28-0.47,0.28-11.29
		h4.06c2.24,0,4.06-1.76,4.06-3.94s-1.82-3.94-4.06-3.94h-4.06v-3.94c0-2.18-1.82-3.94-4.06-3.94s-4.06,1.76-4.06,3.94v3.94H91.7
		c-2.24,0-4.06,1.76-4.06,3.94s1.82,3.94,4.06,3.94h4.06c0,10.94-0.1,10.35,0.28,11.29c-10.81,5.6-14.09,7.29-24.54,12.7
		c-1.98,1.02-2.73,3.41-1.67,5.33c1.06,1.92,3.52,2.65,5.5,1.62l2.15-1.11v20.63c-3.53,1.82-25.93,13.42-32.38,16.76
		c-1.98,1.02-2.73,3.41-1.67,5.33c1.06,1.92,3.52,2.65,5.5,1.62l6.21-3.22V137h-6.09c-2.24,0-4.06,1.76-4.06,3.94
		c0,2.18,1.82,3.94,4.06,3.94h101.56c2.24,0,4.06-1.76,4.06-3.94c0-2.18-1.82-3.94-4.06-3.94h-6.09v-31.54l6.21,3.22
		c1.99,1.03,4.45,0.29,5.5-1.62C157.28,105.13,156.53,102.74,154.55,101.72L154.55,101.72z M85.61,60.12l14.22-7.36l14.22,7.36
		v20.63l-12.31-6.37c-1.2-0.62-2.63-0.62-3.82,0l-12.31,6.37V60.12z M82.7,118.86c0-6.99,9.31-10.15,14.04-4.77
		c1.62,1.84,4.56,1.84,6.18,0c4.73-5.38,14.04-2.21,14.04,4.77c0,8.24-11.22,15.08-17.13,17.78
		C93.92,133.93,82.7,127.09,82.7,118.86L82.7,118.86z M136.39,137h-21.97c5.51-4.34,10.66-10.45,10.66-18.14
		c0-12.46-14.71-19.65-25.25-12.6c-10.53-7.05-25.25,0.13-25.25,12.6c0,7.7,5.15,13.81,10.66,18.14H63.26v-35.75
		c6.73-3.48,29.82-15.44,36.56-18.92c21.68,11.22,23.11,11.96,36.56,18.92V137z M136.39,137"/>
</g>
<g class="st2">
	<path class="st3" d="M1053.14,146.68h-4.37v-2.83c0-2.22-1.87-4.04-4.16-4.04s-4.16,1.82-4.16,4.04v2.83h-4.37
		c-2.29,0-4.16,1.82-4.16,4.04s1.87,4.04,4.16,4.04h4.37v15.95c0,2.22,1.87,4.04,4.16,4.04s4.16-1.82,4.16-4.04v-15.95h4.37
		c2.29,0,4.16-1.82,4.16-4.04S1055.42,146.68,1053.14,146.68z"/>
</g>
<g class="st2">
	<path class="st3" d="M1055.42,205.84h-1.87c9.99-11.51,28.09-34.53,28.09-49.47c0-20.6-16.65-37.36-37.04-37.36
		s-37.04,16.76-37.04,37.36c0,14.94,18.1,37.96,28.09,49.47h-2.08c-2.29,0-4.16,1.82-4.16,4.04s1.87,4.04,4.16,4.04h22.06
		c2.08,0,3.95-1.82,3.95-4.04S1057.71,205.84,1055.42,205.84z M1015.68,156.37c0-16.15,12.9-29.48,28.92-29.48
		s28.92,13.33,28.92,29.48c0,12.52-18.73,36.14-28.92,47.65C1034.41,192.51,1015.68,168.89,1015.68,156.37z"/>
</g>
<g class="st2">
	<path class="st3" d="M1122.25,79.43h9.8v26.26c0,2.29,1.92,4.15,4.28,4.15h17.11c2.36,0,4.28-1.86,4.28-4.15V79.43h9.8
		c2.36,0,4.28-1.86,4.28-4.15V58.67c0-2.29-1.92-4.15-4.28-4.15h-9.8v-9.27c0-2.29-1.92-4.15-4.28-4.15h-17.11
		c-2.36,0-4.28,1.86-4.28,4.15v9.27h-9.8c-2.36,0-4.28,1.86-4.28,4.15v16.61C1117.97,77.57,1119.89,79.43,1122.25,79.43
		L1122.25,79.43z M1126.53,62.82h9.8c2.36,0,4.28-1.86,4.28-4.15v-9.27h8.56v9.27c0,2.29,1.92,4.15,4.28,4.15h9.8v8.31h-9.8
		c-2.36,0-4.28,1.86-4.28,4.15v26.27h-8.56V75.27c0-2.29-1.92-4.15-4.28-4.15h-9.8V62.82z M1126.53,62.82"/>
</g>
<g class="st2">
	<path class="st3" d="M1144.89,28.53c2.36,0,4.28-1.86,4.28-4.15v-9.92c0-2.29-1.92-4.15-4.28-4.15c-2.36,0-4.28,1.86-4.28,4.15
		v9.92C1140.61,26.67,1142.52,28.53,1144.89,28.53L1144.89,28.53z M1144.89,28.53"/>
</g>
<g class="st2">
	<path class="st3" d="M1140.61,126.54v9.94c0,2.29,1.92,4.15,4.28,4.15c2.36,0,4.28-1.86,4.28-4.15v-9.94
		c0-2.29-1.92-4.15-4.28-4.15C1142.52,122.39,1140.61,124.25,1140.61,126.54L1140.61,126.54z M1140.61,126.54"/>
</g>
<g class="st2">
	<path class="st3" d="M1193.25,75.47c0,2.29,1.91,4.15,4.28,4.15h10.22c2.36,0,4.28-1.86,4.28-4.15c0-2.29-1.92-4.15-4.28-4.15
		h-10.22C1195.17,71.31,1193.25,73.17,1193.25,75.47L1193.25,75.47z M1193.25,75.47"/>
</g>
<g class="st2">
	<path class="st3" d="M1082.02,79.62h10.24c2.36,0,4.28-1.86,4.28-4.15c0-2.29-1.92-4.15-4.28-4.15h-10.24
		c-2.36,0-4.28,1.86-4.28,4.15C1077.74,77.76,1079.66,79.62,1082.02,79.62L1082.02,79.62z M1082.02,79.62"/>
</g>
<g class="st2">
	<path class="st3" d="M1179.09,108.66c-1.67,1.62-1.67,4.25,0,5.87l15.41,14.96c0.84,0.81,1.93,1.22,3.03,1.22
		c1.09,0,2.19-0.41,3.02-1.22c1.67-1.62,1.67-4.25,0-5.87l-15.41-14.96C1183.47,107.04,1180.76,107.04,1179.09,108.66
		L1179.09,108.66z M1179.09,108.66"/>
</g>
<g class="st2">
	<path class="st3" d="M1104.65,42.29c0.84,0.81,1.93,1.22,3.03,1.22c1.09,0,2.19-0.41,3.02-1.22c1.67-1.62,1.67-4.25,0-5.87
		l-12.66-12.29c-1.67-1.62-4.38-1.62-6.05,0c-1.67,1.62-1.67,4.25,0,5.87L1104.65,42.29z M1104.65,42.29"/>
</g>
<g class="st2">
	<path class="st3" d="M1104.64,108.66l-15.51,15.05c-1.67,1.62-1.67,4.25,0,5.87c0.84,0.81,1.93,1.22,3.03,1.22
		c1.09,0,2.19-0.4,3.02-1.22l15.51-15.05c1.67-1.62,1.67-4.25,0-5.87C1109.02,107.04,1106.31,107.04,1104.64,108.66L1104.64,108.66z
		 M1104.64,108.66"/>
</g>
<g class="st2">
	<path class="st3" d="M1175.79,49.63c1.09,0,2.19-0.4,3.02-1.21l15.05-14.61c1.67-1.62,1.67-4.25,0-5.87
		c-1.67-1.62-4.38-1.62-6.05,0l-15.05,14.61c-1.67,1.62-1.67,4.25,0,5.87C1173.6,49.22,1174.69,49.63,1175.79,49.63L1175.79,49.63z
		 M1175.79,49.63"/>
</g>
<g class="st2">
	<path class="st3" d="M1201.1,25.06c1.13,0,2.23-0.44,3.03-1.21c0.8-0.78,1.25-1.84,1.25-2.93c0-1.09-0.46-2.16-1.25-2.94
		c-0.8-0.77-1.9-1.21-3.03-1.21c-1.13,0-2.23,0.44-3.02,1.21c-0.8,0.78-1.25,1.84-1.25,2.94c0,1.09,0.45,2.16,1.25,2.93
		C1198.87,24.62,1199.97,25.06,1201.1,25.06L1201.1,25.06z M1201.1,25.06"/>
</g>
<g class="st2">
	<path class="st3" d="M978.46,113.78c0-8.65,17.56-18.97,17.56-30.67c0-13.78-9.26-20.47-18.62-29.55l-4.62-25.41
		c-0.47-2.59-1.98-4.89-4.2-6.39c-2.22-1.51-4.96-2.09-7.63-1.63c-4.2,0.72-3.46,2.43-3.81,0.37c-0.93-4.92-5.49-8.4-10.64-8.11
		c-5.15,0.28-9.27,4.24-9.62,9.23c-3.35-0.8-6.89,0.1-9.42,2.39c-2.52,2.29-3.68,5.66-3.08,8.96l1.12,6.22
		c-2.39,0.14-4.66,1.08-6.41,2.67c-1.75-1.59-4.02-2.54-6.41-2.67l1.12-6.22c0.6-3.3-0.56-6.67-3.08-8.96
		c-2.52-2.29-6.06-3.19-9.42-2.39c-0.34-4.99-4.46-8.96-9.61-9.25c-5.15-0.29-9.71,3.18-10.65,8.1c-0.35,1.99,0.35,0.34-3.85-0.37
		c-5.55-0.87-10.8,2.72-11.83,8.09l-4.58,25.38c-9.33,9.05-18.62,15.74-18.62,29.55c0,11.63,17.56,22.08,17.56,30.67
		c0,2.33-1.25,9.33-9.62,31.1c-0.62,1.61,0.23,3.41,1.89,4.01c1.67,0.6,3.51-0.22,4.13-1.83c13.91-35.83,12.63-36.64,0.58-50.67
		c-4.07-4.54-8.14-9.3-8.14-13.28c0.14-5.49,2.3-10.76,6.09-14.84c12.63-12.26,12.05-11.91,12.37-11.73
		c3.45,2.29,4.78,6.6,3.21,10.36c-3.56,8.65-4.13,9.18-3.21,10.85c1.64,2.93,6.57,0.69,16.03,7.56c4.03,3.02,7.32,6.88,9.62,11.29
		c0.87,1.4,2.7,1.91,4.19,1.17c1.5-0.74,2.16-2.47,1.51-3.97c-4.92-9.51-13.66-16.62-24.17-19.66l2.02-4.95
		c3.65-9.02-2.76-17.98-8.43-18.82l3.88-21.09c0.31-1.45,1.48-2.6,2.97-2.91c1.5-0.32,3.05,0.25,3.95,1.45
		c1.19,1.65,0.87,1.31-2.21,18.26c-0.31,1.72,0.87,3.35,2.64,3.65c1.77,0.3,3.46-0.85,3.77-2.56l4.55-25.57
		c0.37-2.02,2.36-3.36,4.44-3c2.08,0.36,3.46,2.29,3.09,4.31l-6.12,33.53c-0.16,0.97,0.16,1.96,0.87,2.66
		c0.71,0.7,1.72,1.04,2.72,0.91c3.21-0.4,2.5-1.18,7.63-29.39c0.45-1.93,2.39-3.17,4.39-2.82c2.01,0.35,3.37,2.17,3.11,4.13
		l-6.57,36.33c-0.31,1.72,0.87,3.35,2.64,3.65c1.77,0.3,3.46-0.85,3.77-2.56l4.33-23.76c1.04-0.11,2.08,0.19,2.88,0.85
		c0.8,0.65,1.29,1.59,1.35,2.61v45.44c0,19.47-13.11,18.23-17.02,51.2c-0.19,1.72,1.08,3.26,2.85,3.45s3.36-1.05,3.56-2.77
		c0.98-10.85,4.62-21.31,10.61-30.51c5.61-7.87,1.06-7.87,6.67,0c5.96,9.21,9.58,19.67,10.54,30.51c0.19,1.72,1.79,2.96,3.56,2.77
		s3.05-1.73,2.85-3.45c-4.13-33.19-17.21-31.57-17.21-51.2V49.05c0.02-1.06,0.5-2.06,1.33-2.75c0.83-0.69,1.92-1,3-0.86l4.33,23.76
		c0.31,1.72,2,2.87,3.77,2.57c1.77-0.3,2.95-1.94,2.65-3.65l-6.67-36.18c-0.37-2.04,1.03-3.99,3.14-4.35c2.11-0.36,4.11,1,4.49,3.05
		l4.9,26.91c0.31,1.72,2,2.87,3.77,2.57c1.77-0.3,2.95-1.94,2.64-3.65l-6.35-33.59c-0.35-2.02,1.05-3.93,3.13-4.28
		c2.08-0.34,4.05,1.01,4.41,3.03l4.62,25.57c0.31,1.72,2,2.87,3.77,2.56c1.77-0.3,2.95-1.94,2.64-3.65
		c-3.21-16.98-3.4-16.61-2.21-18.26c0.91-1.2,2.45-1.77,3.95-1.45c1.5,0.32,2.66,1.46,2.97,2.91l3.81,21.12
		c-5.67,0.81-12.08,9.74-8.43,18.66l2.02,5.07c-10.47,3.07-19.18,10.2-24.07,19.69c-0.65,1.5,0.01,3.23,1.51,3.97
		c1.5,0.73,3.33,0.22,4.19-1.17c2.29-4.41,5.58-8.26,9.62-11.26c9.62-7,14.23-4.67,16.03-7.59c0.93-1.68,0.35-2.15-3.21-10.82
		c-1.59-3.75-0.25-8.07,3.21-10.36c0.32-0.22-0.48-0.84,12.4,11.66c3.73,4.11,5.84,9.36,5.96,14.84c0,3.98-4.07,8.74-8.04,13.34
		c-12.31,14.34-13.01,15.55,0.58,50.67c0.62,1.61,2.47,2.44,4.13,1.83c1.66-0.6,2.51-2.4,1.89-4.01
		C979.71,123.23,978.46,116.11,978.46,113.78L978.46,113.78z M978.46,113.78"/>
</g>
<g class="st2">
	<path class="st3" d="M714.65,113.75c9.31,0,16.8-7.69,16.08-16.86c-0.6-7.65-6.96-13.83-14.85-14.4
		c-9.45-0.69-17.36,6.58-17.36,15.61C698.52,106.73,705.76,113.75,714.65,113.75L714.65,113.75z M714.65,90.15
		c4.82,0,8.68,4.06,8.13,8.85c-0.42,3.64-3.44,6.58-7.19,6.99c-4.93,0.54-9.13-3.21-9.13-7.89
		C706.46,93.72,710.14,90.15,714.65,90.15L714.65,90.15z M714.65,90.15"/>
</g>
<g class="st2">
	<path class="st3" d="M759.8,124.86l-3.87-2.81c-0.64-0.47-1.56-0.34-2.04,0.29l-5.59,7.25c0,0,0,0-0.01,0.01l-13.85,6.22
		c-0.01,0-0.01,0-0.02,0l-19.54-12.61c-2.63-1.69-5.67-2.71-8.83-2.81c-0.19-0.01-0.39-0.01-0.58-0.01
		c-7.79,0-14.7,5.08-16.81,12.34l-11.52,39.31c-1.7,5.75-0.54,11.79,3.17,16.57c0.05,0.06,0.09,0.12,0.14,0.18
		c-10,1.83-17.59,10.37-17.59,20.6v3.84c0,0.01,0.01,0.02,0.02,0.02h51.95c11.88,0,21.8-9.15,21.97-20.68
		c0.18-11.71-9.59-21.3-21.62-21.3h-1.98c-0.01,0-0.02-0.01-0.02-0.02l4.87-15.63c0-0.01,0.02-0.02,0.03-0.01l17.24,9.41
		c0.01,0,0.02,0,0.02,0l8.7-7.65c6.71-5.9,10.57-14.31,10.59-23.1c0,0,0-0.01,0-0.01l5.5-7.13
		C760.68,126.39,760.53,125.39,759.8,124.86z M728.86,192.24c0,7.32-6.14,13.28-13.68,13.28h-43.75c-0.01,0-0.02-0.01-0.02-0.02
		c1.71-5.42,6.92-9.37,13.06-9.37h28.28c1.29,0,2.34-1.02,2.34-2.27v-3.58c0-1.03-0.86-1.86-1.92-1.86h-17.1
		c-3.63,0-7.12-1.57-9.33-4.36c-1.2-1.52-1.96-3.26-2.26-5.07c0-0.01,0.01-0.02,0.02-0.02h30.68
		C722.72,178.96,728.86,184.91,728.86,192.24L728.86,192.24z M738.71,151.63l-4.46,3.92c-0.01,0.01-0.01,0.01-0.02,0l-24.55-13.4
		c-1.03-0.56-2.34-0.21-2.93,0.8l-1.8,3.1c-0.58,0.99-0.21,2.25,0.81,2.81l5.18,2.83c0.01,0,0.01,0.01,0.01,0.02l-6.08,19.52
		c0,0.01-0.01,0.01-0.02,0.01h-19.21c-0.01,0-0.02-0.01-0.02-0.02l10.67-36.4c1.15-3.96,4.92-6.73,9.17-6.73
		c1.56,0,3.03,0.34,4.37,1.02c0,0,0,0,0,0l23.83,15.52c0.01,0,0.01,0,0.02,0l12.43-5.58c0.01-0.01,0.03,0.01,0.03,0.02
		C745.1,143.87,742.51,148.29,738.71,151.63L738.71,151.63z M738.71,151.63"/>
</g>
<g class="st2">
	<g>
		<path class="st3" d="M775.87,93.46c-4.48,1.71-8,5.01-9.92,9.29c-0.42,0.93-0.35,2.01,0.19,2.88l10.74,17.4l11.56,28.54
			l-6.76,2.58c-5.04,1.92-8.36,6.56-8.46,11.81c-0.1,5.25,3.05,10,8.01,12.1c3.64,1.54,5.3,5.66,3.72,9.19
			c-4.55,10.13,0.19,21.94,10.69,26.37c19.3,8.16,41.69-0.41,50.08-19.11c4.55-10.13-0.25-21.96-10.69-26.38
			c-3.63-1.54-5.3-5.65-3.72-9.19c2.16-4.82,1.13-10.37-2.63-14.16c-3.76-3.78-9.44-4.98-14.48-3.06c-2.65,1.01-5.02,1.91-6.76,2.58
			l-11.57-28.55l-4.35-19.84c-0.22-1-0.92-1.83-1.88-2.24C785.24,91.84,780.35,91.75,775.87,93.46L775.87,93.46z M816.59,147.61
			c2.58-0.99,5.5-0.37,7.43,1.57c1.93,1.94,2.46,4.79,1.35,7.27c-3.01,6.71,0.16,14.56,7.09,17.48c7.15,3.02,10.44,11.13,7.32,18.08
			c-6.97,15.53-25.55,22.6-41.53,15.84c-7.17-3.03-10.45-11.11-7.32-18.07c3.01-6.72-0.16-14.56-7.09-17.49
			c-2.55-1.08-4.16-3.51-4.11-6.21c0.05-2.69,1.75-5.07,4.34-6.06l6.76-2.58l4.06,10.02c0.66,1.62,2.54,2.42,4.21,1.78l12.96-4.94
			c1.67-0.64,2.49-2.47,1.83-4.09l-4.06-10.02C811.58,149.52,813.95,148.62,816.59,147.61L816.59,147.61z M806.65,159.58l-6.91,2.64
			l-15.72-38.81l6.91-2.64L806.65,159.58z M789.01,114.73l-7.83,2.99l-8.54-13.83c1.3-2.07,3.25-3.66,5.61-4.56
			c2.36-0.9,4.91-1.02,7.31-0.37L789.01,114.73z M789.01,114.73"/>
	</g>
	<g>
		<path class="st3" d="M800.91,177.1c-2.57,5.73,0.13,12.39,6.03,14.88c5.9,2.49,12.77-0.13,15.34-5.85
			c2.57-5.73-0.13-12.39-6.03-14.88C810.34,168.75,803.48,171.37,800.91,177.1L800.91,177.1z M816.31,183.61
			c-1.14,2.53-4.17,3.69-6.78,2.59c-2.61-1.1-3.8-4.05-2.67-6.58c1.14-2.53,4.17-3.69,6.78-2.59
			C816.26,178.13,817.45,181.08,816.31,183.61L816.31,183.61z M816.31,183.61"/>
	</g>
</g>
<g class="st2">
	<path class="st3" d="M240.94,73.17c-0.72-0.53-1.65-0.7-2.51-0.46l-40.59,11.15c-1.24,0.34-2.09,1.43-2.09,2.68v37.73
		c-1.69-0.95-3.65-1.5-5.74-1.5c-6.33,0-11.49,5-11.49,11.15s5.15,11.15,11.49,11.15c6.33,0,11.49-5,11.49-11.15
		c0-0.29,0-34.12,0-34.12l34.84-9.57v22.9c-1.69-0.95-3.65-1.5-5.74-1.5c-6.33,0-11.49,5-11.49,11.15c0,6.15,5.15,11.15,11.49,11.15
		s11.49-5,11.49-11.15c0-0.25,0-47.38,0-47.38C242.08,74.52,241.66,73.7,240.94,73.17z M190,139.49c-3.17,0-5.74-2.5-5.74-5.57
		s2.58-5.57,5.74-5.57s5.74,2.5,5.74,5.57S193.17,139.49,190,139.49z M201.49,94v-5.36l34.84-9.57v5.36L201.49,94z M230.59,128.34
		c-3.17,0-5.74-2.5-5.74-5.57s2.58-5.57,5.74-5.57s5.74,2.5,5.74,5.57S233.76,128.34,230.59,128.34z"/>
</g>
<g class="st2">
	<path class="st3" d="M970.17,155.73c-0.59-0.43-1.35-0.57-2.06-0.38l-33.28,9.14c-1.01,0.28-1.71,1.18-1.71,2.2v30.94
		c-1.39-0.78-2.99-1.23-4.71-1.23c-5.19,0-9.42,4.1-9.42,9.14s4.23,9.14,9.42,9.14c5.19,0,9.42-4.1,9.42-9.14
		c0-0.24,0-27.98,0-27.98l28.57-7.85v18.78c-1.39-0.78-2.99-1.23-4.71-1.23c-5.19,0-9.42,4.1-9.42,9.14s4.23,9.14,9.42,9.14
		c5.19,0,9.42-4.1,9.42-9.14c0-0.2,0-38.85,0-38.85C971.1,156.84,970.75,156.16,970.17,155.73z M928.4,210.12
		c-2.6,0-4.71-2.05-4.71-4.57s2.11-4.57,4.71-4.57s4.71,2.05,4.71,4.57S930.99,210.12,928.4,210.12z M937.82,172.82v-4.39
		l28.57-7.85v4.39L937.82,172.82z M961.68,200.98c-2.6,0-4.71-2.05-4.71-4.57s2.11-4.57,4.71-4.57s4.71,2.05,4.71,4.57
		S964.28,200.98,961.68,200.98z"/>
</g>
<g class="st2">
	<path class="st3" d="M879.11,218.24c7.18-1.39,12.1-7.05,10.96-12.63l-7.15-34.92c5.26,2.05,11,2.6,16.57,1.57
		c1.44-0.28,2.37-1.63,2.09-3.03c-0.29-1.4-1.68-2.3-3.12-2.02c-0.13,0.03-13.66,2.49-17.39-5.17c-0.57-1.18-1.96-1.75-3.23-1.35
		c-1.27,0.41-2.03,1.67-1.77,2.95l7.15,34.94c-9.71-3.42-20.88,3.82-19.19,12.06C865.16,216.21,871.93,219.62,879.11,218.24
		L879.11,218.24z M876.01,203.07c4.24-0.82,8.29,0.81,8.85,3.55c0.56,2.74-2.54,5.75-6.78,6.56c-4.24,0.82-8.29-0.81-8.85-3.55
		C868.67,206.89,871.77,203.88,876.01,203.07L876.01,203.07z M876.01,203.07"/>
</g>
<g class="st42">
	
		<linearGradient id="SVGID_2_" gradientUnits="userSpaceOnUse" x1="2866.5483" y1="-13753.2617" x2="4266.5474" y2="-13753.2617" gradientTransform="matrix(-1 0 0 -1 4266.5483 -13638.2617)">
		<stop  offset="0" style="stop-color:#32A936"/>
		<stop  offset="0.2333" style="stop-color:#3C9232"/>
		<stop  offset="0.5626" style="stop-color:#41782D"/>
		<stop  offset="0.83" style="stop-color:#416829"/>
		<stop  offset="1" style="stop-color:#416227"/>
	</linearGradient>
	<polygon style="fill:url(#SVGID_2_);" points="0,0 1400,0 1400,230 0,230 	"/>
	
		<linearGradient id="SVGID_4_" gradientUnits="userSpaceOnUse" x1="2863.0342" y1="-13666.8809" x2="4270.0615" y2="-13839.6416" gradientTransform="matrix(-1 0 0 -1 4266.5483 -13638.2617)">
		<stop  offset="0" style="stop-color:#32A936"/>
		<stop  offset="0.2333" style="stop-color:#3C9232"/>
		<stop  offset="0.5626" style="stop-color:#41782D"/>
		<stop  offset="0.83" style="stop-color:#416829"/>
		<stop  offset="1" style="stop-color:#416227"/>
	</linearGradient>
	<polygon style="fill:url(#SVGID_4_);" points="0,230 1400,230 1400,0 0,0 	"/>
</g>
<g>
	<path class="st3" d="M54.26,190.18c0,3.08-1.13,5.52-3.4,7.33c-2.27,1.8-5.28,2.7-9.03,2.7c-4.51,0-7.98-0.5-10.38-1.49v-2.58
		c2.66,1.13,6.06,1.69,10.18,1.69c3.03,0,5.44-0.7,7.21-2.08c1.78-1.39,2.67-3.21,2.67-5.47c0-1.4-0.3-2.56-0.88-3.47
		c-0.59-0.92-1.55-1.76-2.88-2.51c-1.33-0.76-3.28-1.58-5.86-2.45c-3.77-1.3-6.38-2.7-7.82-4.21c-1.44-1.51-2.16-3.52-2.16-6.03
		c0-2.76,1.08-5.02,3.25-6.76c2.16-1.74,4.95-2.62,8.35-2.62c3.47,0,6.73,0.66,9.78,1.97l-0.93,2.22c-3.07-1.28-6-1.92-8.79-1.92
		c-2.73,0-4.9,0.63-6.52,1.89s-2.43,2.98-2.43,5.15c0,1.36,0.25,2.48,0.75,3.36c0.5,0.88,1.31,1.66,2.44,2.36
		c1.13,0.7,3.07,1.54,5.81,2.51c2.88,0.99,5.04,1.96,6.49,2.89c1.45,0.94,2.51,2,3.17,3.18C53.92,187.06,54.26,188.49,54.26,190.18z
		"/>
	<path class="st3" d="M68.68,197.99c1.58,0,2.96-0.13,4.14-0.4v2.02c-1.21,0.4-2.61,0.61-4.19,0.61c-2.43,0-4.22-0.65-5.37-1.95
		c-1.15-1.3-1.73-3.34-1.73-6.12v-17.74h-4.07v-1.47l4.07-1.14l1.26-6.22h1.29v6.64h8.06v2.17h-8.06v17.38
		c0,2.11,0.37,3.66,1.11,4.67C65.94,197.48,67.1,197.99,68.68,197.99z"/>
	<path class="st3" d="M80.94,172.24v17.79c0,2.76,0.58,4.77,1.74,6.03c1.16,1.25,2.96,1.88,5.41,1.88c3.27,0,5.67-0.82,7.21-2.48
		c1.54-1.65,2.31-4.34,2.31-8.06v-15.16h2.48v27.46h-2.12l-0.45-3.79h-0.15c-1.79,2.86-4.96,4.3-9.53,4.3
		c-6.25,0-9.37-3.34-9.37-10.03v-17.94H80.94z"/>
	<path class="st3" d="M119.34,171.71c1.99,0,3.71,0.36,5.15,1.09c1.45,0.72,2.75,1.96,3.89,3.71h0.15c-0.1-2.12-0.15-4.2-0.15-6.24
		v-9.88h2.48v39.31h-1.64l-0.63-4.19h-0.2c-2.09,3.13-5.09,4.7-8.99,4.7c-3.79,0-6.69-1.18-8.69-3.54c-2-2.36-3.01-5.79-3.01-10.31
		c0-4.75,0.99-8.38,2.98-10.89C112.66,172.96,115.55,171.71,119.34,171.71z M119.34,173.98c-3,0-5.25,1.05-6.76,3.16
		c-1.51,2.11-2.26,5.16-2.26,9.17c0,7.78,3.02,11.67,9.07,11.67c3.1,0,5.37-0.9,6.82-2.7c1.45-1.8,2.17-4.77,2.17-8.92v-0.43
		c0-4.24-0.71-7.3-2.13-9.16C124.83,174.91,122.52,173.98,119.34,173.98z"/>
	<path class="st3" d="M151.18,200.21c-3.99,0-7.1-1.23-9.34-3.69c-2.23-2.46-3.35-5.9-3.35-10.33c0-4.38,1.08-7.89,3.23-10.52
		c2.16-2.64,5.06-3.95,8.72-3.95c3.23,0,5.79,1.13,7.66,3.39c1.87,2.26,2.8,5.32,2.8,9.2v2.02h-19.78c0.03,3.77,0.91,6.65,2.64,8.64
		c1.73,1.99,4.2,2.98,7.42,2.98c1.57,0,2.94-0.11,4.13-0.33c1.19-0.22,2.69-0.69,4.51-1.41v2.27c-1.55,0.67-2.98,1.13-4.3,1.38
		C154.21,200.09,152.76,200.21,151.18,200.21z M150.44,173.93c-2.64,0-4.77,0.87-6.37,2.62c-1.6,1.74-2.54,4.26-2.8,7.54h16.98
		c0-3.18-0.69-5.67-2.07-7.47C154.8,174.83,152.89,173.93,150.44,173.93z"/>
	<path class="st3" d="M187.63,199.7v-17.81c0-2.76-0.58-4.77-1.74-6.03c-1.16-1.25-2.96-1.88-5.41-1.88c-3.28,0-5.69,0.83-7.21,2.49
		c-1.52,1.66-2.29,4.35-2.29,8.07v15.16h-2.5v-27.46h2.12l0.48,3.76h0.15c1.79-2.86,4.96-4.3,9.53-4.3c6.23,0,9.35,3.34,9.35,10.03
		v17.96H187.63z"/>
	<path class="st3" d="M209.97,200.21c-3.92,0-7-1.24-9.22-3.71c-2.22-2.48-3.34-5.93-3.34-10.36c0-4.55,1.15-8.09,3.46-10.62
		c2.31-2.53,5.47-3.8,9.47-3.8c2.37,0,4.65,0.41,6.82,1.24l-0.68,2.22c-2.37-0.79-4.44-1.19-6.19-1.19c-3.37,0-5.92,1.04-7.66,3.12
		c-1.74,2.08-2.6,5.07-2.6,8.98c0,3.71,0.87,6.61,2.6,8.7c1.73,2.1,4.16,3.15,7.28,3.15c2.49,0,4.81-0.45,6.95-1.34v2.32
		C215.11,199.78,212.82,200.21,209.97,200.21z"/>
	<path class="st3" d="M226.04,187.65l14.02-15.41h3.03l-10.81,11.72l11.75,15.74h-3.01l-10.43-13.87l-4.5,4.09v9.78h-2.5v-39.31h2.5
		v19.71l-0.18,7.55H226.04z"/>
	<path class="st3" d="M248.27,164.61c0-1.62,0.53-2.43,1.59-2.43c0.52,0,0.93,0.21,1.23,0.63c0.29,0.42,0.44,1.02,0.44,1.79
		c0,0.76-0.15,1.36-0.44,1.79c-0.3,0.44-0.7,0.66-1.23,0.66C248.8,167.06,248.27,166.24,248.27,164.61z M251.13,199.7h-2.5v-27.46
		h2.5V199.7z"/>
	<path class="st3" d="M271.42,200.21c-3.99,0-7.1-1.23-9.34-3.69c-2.23-2.46-3.35-5.9-3.35-10.33c0-4.38,1.08-7.89,3.23-10.52
		c2.16-2.64,5.06-3.95,8.72-3.95c3.23,0,5.79,1.13,7.66,3.39c1.87,2.26,2.8,5.32,2.8,9.2v2.02h-19.78c0.03,3.77,0.91,6.65,2.64,8.64
		c1.73,1.99,4.2,2.98,7.42,2.98c1.57,0,2.94-0.11,4.13-0.33c1.19-0.22,2.69-0.69,4.51-1.41v2.27c-1.55,0.67-2.98,1.13-4.3,1.38
		C274.45,200.09,273,200.21,271.42,200.21z M270.68,173.93c-2.64,0-4.77,0.87-6.37,2.62c-1.6,1.74-2.54,4.26-2.8,7.54h16.98
		c0-3.18-0.69-5.67-2.07-7.47C275.04,174.83,273.13,173.93,270.68,173.93z"/>
	<path class="st3" d="M321.62,199.7l-1.04-3.61h-0.4c-0.83,1.31-2,2.33-3.51,3.05c-1.52,0.72-3.24,1.07-5.18,1.07
		c-3.32,0-5.82-0.89-7.5-2.67c-1.68-1.78-2.53-4.33-2.53-7.67v-18.42h7.71v16.5c0,2.04,0.36,3.57,1.09,4.59
		c0.72,1.02,1.88,1.53,3.46,1.53c2.16,0,3.71-0.72,4.67-2.16c0.96-1.44,1.44-3.83,1.44-7.16v-13.29h7.71v28.25H321.62z"/>
	<path class="st3" d="M358.84,199.7l-2.17-9.88l-2.93-12.48h-0.18l-5.15,22.36h-8.29l-8.03-28.25h7.68l3.26,12.51
		c0.52,2.24,1.05,5.33,1.59,9.27h0.15c0.07-1.28,0.36-3.31,0.88-6.09l0.4-2.15l3.49-13.54h8.49l3.31,13.54
		c0.07,0.37,0.17,0.92,0.32,1.64c0.14,0.72,0.28,1.49,0.42,2.31c0.13,0.82,0.26,1.62,0.37,2.4c0.11,0.78,0.17,1.41,0.19,1.88h0.15
		c0.15-1.21,0.42-2.88,0.81-4.99c0.39-2.11,0.67-3.54,0.83-4.28l3.39-12.51h7.55l-8.14,28.25H358.84z"/>
	<path class="st3" d="M379.58,164.15c0-2.51,1.4-3.76,4.19-3.76c2.8,0,4.19,1.25,4.19,3.76c0,1.2-0.35,2.13-1.05,2.79
		c-0.7,0.67-1.75,1-3.15,1C380.98,167.94,379.58,166.68,379.58,164.15z M387.61,199.7h-7.71v-28.25h7.71V199.7z"/>
	<path class="st3" d="M408.48,200.21c-4.55,0-8.1-1.25-10.66-3.76c-2.56-2.51-3.84-6.06-3.84-10.66c0-4.73,1.18-8.39,3.55-10.98
		c2.37-2.58,5.64-3.88,9.82-3.88c3.99,0,7.1,1.14,9.32,3.41c2.22,2.27,3.34,5.42,3.34,9.42v3.74h-18.22
		c0.08,2.19,0.73,3.9,1.95,5.13c1.21,1.23,2.91,1.84,5.1,1.84c1.7,0,3.31-0.18,4.83-0.53c1.52-0.35,3.1-0.92,4.75-1.69v5.96
		c-1.35,0.67-2.79,1.18-4.32,1.5C412.56,200.04,410.69,200.21,408.48,200.21z M407.4,176.41c-1.63,0-2.91,0.52-3.84,1.55
		c-0.93,1.04-1.46,2.51-1.59,4.41h10.81c-0.03-1.9-0.53-3.37-1.49-4.41C410.33,176.93,409.03,176.41,407.4,176.41z"/>
	<path class="st3" d="M433.98,199.7h-7.71v-39.31h7.71V199.7z"/>
	<path class="st3" d="M457.78,170.93c3.34,0,5.95,1.3,7.83,3.9c1.89,2.6,2.83,6.17,2.83,10.7c0,4.67-0.97,8.28-2.92,10.84
		c-1.95,2.56-4.59,3.84-7.95,3.84c-3.32,0-5.92-1.2-7.81-3.61h-0.53l-1.29,3.11h-5.89v-39.31h7.71v9.15c0,1.16-0.1,3.02-0.3,5.58
		h0.3C451.57,172.32,454.24,170.93,457.78,170.93z M455.3,177.09c-1.9,0-3.29,0.59-4.17,1.76c-0.88,1.17-1.33,3.1-1.36,5.8v0.83
		c0,3.03,0.45,5.21,1.35,6.52c0.9,1.31,2.33,1.97,4.28,1.97c1.58,0,2.84-0.73,3.78-2.19c0.93-1.46,1.4-3.58,1.4-6.35
		c0-2.78-0.47-4.86-1.41-6.25C458.22,177.78,456.93,177.09,455.3,177.09z"/>
	<path class="st3" d="M474.48,164.15c0-2.51,1.4-3.76,4.19-3.76c2.8,0,4.19,1.25,4.19,3.76c0,1.2-0.35,2.13-1.05,2.79
		c-0.7,0.67-1.75,1-3.15,1C475.87,167.94,474.48,166.68,474.48,164.15z M482.51,199.7h-7.71v-28.25h7.71V199.7z"/>
	<path class="st3" d="M503.38,200.21c-4.55,0-8.1-1.25-10.66-3.76c-2.56-2.51-3.84-6.06-3.84-10.66c0-4.73,1.18-8.39,3.55-10.98
		c2.37-2.58,5.64-3.88,9.82-3.88c3.99,0,7.1,1.14,9.32,3.41c2.22,2.27,3.34,5.42,3.34,9.42v3.74h-18.22
		c0.08,2.19,0.73,3.9,1.95,5.13c1.21,1.23,2.91,1.84,5.1,1.84c1.7,0,3.31-0.18,4.83-0.53c1.52-0.35,3.1-0.92,4.75-1.69v5.96
		c-1.35,0.67-2.79,1.18-4.32,1.5C507.46,200.04,505.59,200.21,503.38,200.21z M502.29,176.41c-1.63,0-2.91,0.52-3.84,1.55
		c-0.93,1.04-1.46,2.51-1.59,4.41h10.81c-0.03-1.9-0.53-3.37-1.49-4.41C505.22,176.93,503.93,176.41,502.29,176.41z"/>
	<path class="st3" d="M547.24,199.7h-7.71v-16.5c0-2.04-0.36-3.57-1.09-4.59c-0.72-1.02-1.88-1.53-3.46-1.53
		c-2.16,0-3.71,0.72-4.67,2.16c-0.96,1.44-1.44,3.83-1.44,7.16v13.29h-7.71v-28.25h5.89l1.04,3.61h0.43
		c0.86-1.36,2.04-2.4,3.55-3.09c1.51-0.7,3.22-1.05,5.14-1.05c3.28,0,5.78,0.89,7.48,2.67c1.7,1.78,2.55,4.34,2.55,7.69V199.7z"/>
	<path class="st3" d="M554.85,164.15c0-2.51,1.4-3.76,4.19-3.76c2.8,0,4.19,1.25,4.19,3.76c0,1.2-0.35,2.13-1.05,2.79
		c-0.7,0.67-1.75,1-3.15,1C556.24,167.94,554.85,166.68,554.85,164.15z M562.88,199.7h-7.71v-28.25h7.71V199.7z"/>
	<path class="st3" d="M583.75,200.21c-4.55,0-8.1-1.25-10.66-3.76c-2.56-2.51-3.84-6.06-3.84-10.66c0-4.73,1.18-8.39,3.55-10.98
		c2.37-2.58,5.64-3.88,9.82-3.88c3.99,0,7.1,1.14,9.32,3.41c2.22,2.27,3.34,5.42,3.34,9.42v3.74h-18.22
		c0.08,2.19,0.73,3.9,1.95,5.13c1.21,1.23,2.91,1.84,5.1,1.84c1.7,0,3.31-0.18,4.83-0.53c1.52-0.35,3.1-0.92,4.75-1.69v5.96
		c-1.35,0.67-2.79,1.18-4.32,1.5C587.83,200.04,585.96,200.21,583.75,200.21z M582.66,176.41c-1.63,0-2.91,0.52-3.84,1.55
		c-0.93,1.04-1.46,2.51-1.59,4.41h10.81c-0.03-1.9-0.53-3.37-1.49-4.41C585.6,176.93,584.3,176.41,582.66,176.41z"/>
</g>
</svg>
