<?xml version="1.0" encoding="utf-8"?>
<!-- Generator: Adobe Illustrator 24.2.1, SVG Export Plug-In . SVG Version: 6.00 Build 0)  -->
<svg version="1.1" id="Warstwa_1" xmlns="http://www.w3.org/2000/svg" xmlns:xlink="http://www.w3.org/1999/xlink" x="0px" y="0px"
	 viewBox="0 0 400 400" style="enable-background:new 0 0 400 400;" xml:space="preserve">
<style type="text/css">
	.st0{opacity:0.8;fill:url(#SVGID_1_);}
	.st1{fill:#FFFFFF;}
	.st2{opacity:0.8;fill:url(#SVGID_2_);}
	.st3{fill:url(#SVGID_3_);}
	.st4{fill:url(#SVGID_4_);}
	.st5{fill:url(#SVGID_5_);}
	.st6{fill:url(#SVGID_6_);}
	.st7{fill:url(#SVGID_7_);}
	.st8{fill:url(#SVGID_8_);}
	.st9{fill:url(#SVGID_9_);}
	.st10{fill:url(#SVGID_10_);}
	.st11{fill:url(#SVGID_11_);}
	.st12{fill:url(#SVGID_12_);}
	.st13{fill:url(#SVGID_13_);}
	.st14{fill:url(#SVGID_14_);}
	.st15{fill:url(#SVGID_15_);}
	.st16{fill:url(#SVGID_16_);}
	.st17{fill:url(#SVGID_17_);}
	.st18{fill:url(#SVGID_18_);}
	.st19{fill:url(#SVGID_19_);}
	.st20{fill:url(#SVGID_20_);}
	.st21{fill:url(#SVGID_21_);}
	.st22{fill:url(#SVGID_22_);}
	.st23{fill:url(#SVGID_23_);}
	.st24{fill:url(#SVGID_24_);}
	.st25{fill:url(#SVGID_25_);}
	.st26{opacity:0.8;fill:url(#SVGID_26_);}
	.st27{fill:url(#SVGID_27_);}
	.st28{fill:url(#SVGID_28_);}
	.st29{opacity:0.8;fill:url(#SVGID_29_);}
	.st30{opacity:0.9;}
	.st31{fill:url(#SVGID_30_);}
	.st32{opacity:0.8;fill:url(#SVGID_31_);}
	.st33{opacity:0.8;}
	.st34{fill:url(#SVGID_32_);}
	.st35{opacity:0.8;fill:url(#SVGID_33_);}
	.st36{fill:url(#SVGID_34_);}
	.st37{fill:url(#SVGID_35_);}
	.st38{opacity:0.9;fill:url(#SVGID_36_);}
</style>
<linearGradient id="SVGID_1_" gradientUnits="userSpaceOnUse" x1="25" y1="200" x2="375" y2="200">
	<stop  offset="0" style="stop-color:#32A836"/>
	<stop  offset="0.0291" style="stop-color:#33A535"/>
	<stop  offset="0.4463" style="stop-color:#3A812E"/>
	<stop  offset="0.7847" style="stop-color:#3F6A29"/>
	<stop  offset="1" style="stop-color:#416227"/>
</linearGradient>
<circle style="fill:url(#SVGID_1_);" cx="200" cy="200" r="175"/>
<path class="st1" d="M323.6,108.43c-5.25,0.15-10.41,1.42-15.12,3.74c-10.17,5.09-15.78,14.73-15.78,27.16v30.4l-9.91,9.91
	c-1.95-12.93-12.96-20.41-13.44-20.73c-2.45-1.63-5.72-1.31-7.8,0.77l-49.44,49.44c-1.16,1.16-1.81,2.73-1.81,4.37v82.4
	c0,3.41,2.77,6.18,6.18,6.18c3.41,0,6.18-2.77,6.18-6.18v-79.84l43.48-43.47c2,2.29,4.15,5.64,4.53,9.71
	c0.53,5.76-2.53,12.01-9.11,18.59l-24.72,24.72c-2.38,2.42-2.37,6.3,0.03,8.7c2.4,2.4,6.28,2.41,8.7,0.04l57.68-57.68
	c1.16-1.16,1.81-2.73,1.81-4.37v-32.96c0-7.69,2.82-12.91,8.63-15.94c1.2-0.62,2.44-1.12,3.73-1.52v64.66l-39.77,47.72
	c-0.93,1.11-1.43,2.51-1.43,3.96v57.68c0,3.41,2.77,6.18,6.18,6.18c3.41,0,6.18-2.77,6.18-6.18v-55.44l39.77-47.72
	c0.93-1.11,1.43-2.51,1.43-3.96v-74.16C329.78,111.2,327.01,108.43,323.6,108.43L323.6,108.43z M323.6,108.43"/>
<path class="st1" d="M138.45,159.68c-2.08-2.08-5.35-2.41-7.8-0.77c-0.48,0.32-11.49,7.8-13.44,20.73l-9.91-9.91v-30.4
	c0-12.43-5.6-22.07-15.78-27.16c-4.71-2.32-9.87-3.59-15.12-3.74c-3.41,0-6.18,2.77-6.18,6.18v74.16c0,1.45,0.51,2.85,1.43,3.96
	l39.77,47.72v55.44c0,3.41,2.77,6.18,6.18,6.18s6.18-2.77,6.18-6.18v-57.68c0-1.45-0.51-2.85-1.43-3.96l-39.77-47.72v-64.66
	c1.17,0.35,2.32,0.81,3.42,1.35c6.02,3.01,8.94,8.27,8.94,16.1v32.96c0,1.64,0.65,3.21,1.81,4.37l57.68,57.68
	c2.42,2.38,6.3,2.36,8.7-0.04c2.4-2.4,2.41-6.28,0.04-8.7l-24.72-24.72c-6.58-6.58-9.65-12.84-9.11-18.59
	c0.38-4.08,2.53-7.43,4.53-9.72l43.47,43.48v79.84c0,3.41,2.77,6.18,6.18,6.18c3.41,0,6.18-2.77,6.18-6.18v-82.4
	c0-1.64-0.65-3.21-1.81-4.37L138.45,159.68z M138.45,159.68"/>
</svg>
