<?xml version="1.0" encoding="utf-8"?>
<!-- Generator: Adobe Illustrator 24.2.1, SVG Export Plug-In . SVG Version: 6.00 Build 0)  -->
<svg version="1.1" id="Warstwa_1" xmlns="http://www.w3.org/2000/svg" xmlns:xlink="http://www.w3.org/1999/xlink" x="0px" y="0px"
	 viewBox="0 0 400 400" style="enable-background:new 0 0 400 400;" xml:space="preserve">
<style type="text/css">
	.st0{opacity:0.8;fill:url(#SVGID_1_);}
	.st1{fill:#FFFFFF;}
	.st2{opacity:0.8;fill:url(#SVGID_2_);}
	.st3{fill:url(#SVGID_3_);}
	.st4{fill:url(#SVGID_4_);}
	.st5{fill:url(#SVGID_5_);}
	.st6{fill:url(#SVGID_6_);}
	.st7{fill:url(#SVGID_7_);}
	.st8{fill:url(#SVGID_8_);}
	.st9{fill:url(#SVGID_9_);}
	.st10{fill:url(#SVGID_10_);}
	.st11{fill:url(#SVGID_11_);}
	.st12{fill:url(#SVGID_12_);}
	.st13{fill:url(#SVGID_13_);}
	.st14{fill:url(#SVGID_14_);}
	.st15{fill:url(#SVGID_15_);}
	.st16{fill:url(#SVGID_16_);}
	.st17{fill:url(#SVGID_17_);}
	.st18{fill:url(#SVGID_18_);}
	.st19{fill:url(#SVGID_19_);}
	.st20{fill:url(#SVGID_20_);}
	.st21{fill:url(#SVGID_21_);}
	.st22{fill:url(#SVGID_22_);}
	.st23{fill:url(#SVGID_23_);}
	.st24{fill:url(#SVGID_24_);}
	.st25{fill:url(#SVGID_25_);}
	.st26{opacity:0.8;fill:url(#SVGID_26_);}
	.st27{fill:url(#SVGID_27_);}
	.st28{fill:url(#SVGID_28_);}
	.st29{opacity:0.8;fill:url(#SVGID_29_);}
	.st30{opacity:0.9;}
	.st31{fill:url(#SVGID_30_);}
	.st32{opacity:0.8;fill:url(#SVGID_31_);}
	.st33{opacity:0.8;}
	.st34{fill:url(#SVGID_32_);}
	.st35{opacity:0.8;fill:url(#SVGID_33_);}
	.st36{fill:url(#SVGID_34_);}
	.st37{fill:url(#SVGID_35_);}
	.st38{opacity:0.9;fill:url(#SVGID_36_);}
</style>
<linearGradient id="SVGID_1_" gradientUnits="userSpaceOnUse" x1="25" y1="200" x2="375" y2="200">
	<stop  offset="0" style="stop-color:#32A836"/>
	<stop  offset="0.0291" style="stop-color:#33A535"/>
	<stop  offset="0.4463" style="stop-color:#3A812E"/>
	<stop  offset="0.7847" style="stop-color:#3F6A29"/>
	<stop  offset="1" style="stop-color:#416227"/>
</linearGradient>
<circle style="fill:url(#SVGID_1_);" cx="200" cy="200" r="175"/>
<path class="st1" d="M204.24,179.97c15.39,14.48,30.61,22.89,31.25,23.24l3.21,1.76l3.21-1.78c0.64-0.36,15.85-8.88,31.23-23.4
	c17.56-16.58,31.98-37.88,31.98-62.13c0-21.98-17.88-39.86-39.86-39.86c-9.99,0-19.34,3.62-26.57,10.13
	c-7.24-6.51-16.58-10.13-26.57-10.13c-21.98,0-39.86,17.88-39.86,39.86c0,11.89,3.44,23.87,10.24,35.59
	C187.77,162.38,195.09,171.37,204.24,179.97L204.24,179.97z M212.11,91.1c8.44,0,16.19,3.88,21.26,10.63l5.31,7.07l5.31-7.07
	c5.08-6.76,12.83-10.63,21.26-10.63c14.65,0,26.58,11.92,26.58,26.57c0,36.09-41.22,64.51-53.17,71.98
	c-11.96-7.4-53.13-35.55-53.13-71.98C185.53,103.02,197.46,91.1,212.11,91.1L212.11,91.1z M212.11,91.1"/>
<path class="st1" d="M283.71,220.55c-1.79,0.03-3.61,0.32-5.53,0.89l-46.21,13.59c-0.78-9.69-7.65-17.78-17.25-20.05
	c-0.37-0.1,4.57,1.17-40.77-10.41c-4.25-0.91-8.68-0.67-12.77,0.7c-1.58,0.52,6.3-2.06-18.62,6.09c-9.82,3.27-15.37,5.12-23.45,5.73
	v-19.7H79.24v106.29h39.86v-19.93h13.29c8.21,0,16.38,1.13,24.29,3.34c0.05,0.01,60.94,15.87,61.27,15.95
	c6.5,1.52,13.51,0.16,19.24-3.78c59.76-41.06,54.38-37.52,57.46-39.42l0.55-0.35c11.58-7.22,13.33-23.36,3.63-32.89
	C294.81,222.66,289.31,220.47,283.71,220.55L283.71,220.55z M105.81,290.4H92.53v-79.72h13.29V290.4z M288.17,248.22l-0.53,0.33
	c-3.65,2.26,1.46-1.06-57.99,39.77c-2.63,1.81-5.93,2.56-9.12,1.67l-60.33-15.71c-9.05-2.53-18.41-3.82-27.81-3.82H119.1V230.4
	c10.35-0.67,17.29-2.98,27.65-6.44l18.58-6.08c1.84-0.61,3.81-0.73,5.71-0.34c0.42,0.11-4.88-1.25,40.59,10.37
	c7.59,1.76,9.63,11.5,3.58,16.23c-2.25,1.76-5.13,2.37-7.9,1.67l-33.45-8.36l-3.22,12.89l33.45,8.36
	c9.15,2.29,18.35-1.34,23.64-8.57c56.61-16.57,54.62-16.27,56.21-16.3c4.25-0.07,7.89,3.37,7.89,7.78
	C291.83,244.33,290.46,246.8,288.17,248.22L288.17,248.22z M288.17,248.22"/>
</svg>
