<?xml version="1.0" encoding="utf-8"?>
<!-- Generator: Adobe Illustrator 24.2.1, SVG Export Plug-In . SVG Version: 6.00 Build 0)  -->
<svg version="1.1" id="Warstwa_1" xmlns="http://www.w3.org/2000/svg" xmlns:xlink="http://www.w3.org/1999/xlink" x="0px" y="0px"
	 viewBox="0 0 400 400" style="enable-background:new 0 0 400 400;" xml:space="preserve">
<style type="text/css">
	.st0{opacity:0.8;fill:url(#SVGID_1_);}
	.st1{fill:#FFFFFF;}
	.st2{opacity:0.8;fill:url(#SVGID_2_);}
	.st3{fill:url(#SVGID_3_);}
	.st4{fill:url(#SVGID_4_);}
	.st5{fill:url(#SVGID_5_);}
	.st6{fill:url(#SVGID_6_);}
	.st7{fill:url(#SVGID_7_);}
	.st8{fill:url(#SVGID_8_);}
	.st9{fill:url(#SVGID_9_);}
	.st10{fill:url(#SVGID_10_);}
	.st11{fill:url(#SVGID_11_);}
	.st12{fill:url(#SVGID_12_);}
	.st13{fill:url(#SVGID_13_);}
	.st14{fill:url(#SVGID_14_);}
	.st15{fill:url(#SVGID_15_);}
	.st16{fill:url(#SVGID_16_);}
	.st17{fill:url(#SVGID_17_);}
	.st18{fill:url(#SVGID_18_);}
	.st19{fill:url(#SVGID_19_);}
	.st20{fill:url(#SVGID_20_);}
	.st21{fill:url(#SVGID_21_);}
	.st22{fill:url(#SVGID_22_);}
	.st23{fill:url(#SVGID_23_);}
	.st24{fill:url(#SVGID_24_);}
	.st25{fill:url(#SVGID_25_);}
	.st26{opacity:0.8;fill:url(#SVGID_26_);}
	.st27{fill:url(#SVGID_27_);}
	.st28{fill:url(#SVGID_28_);}
	.st29{opacity:0.8;fill:url(#SVGID_29_);}
	.st30{opacity:0.9;}
	.st31{fill:url(#SVGID_30_);}
	.st32{opacity:0.8;fill:url(#SVGID_31_);}
	.st33{opacity:0.8;}
	.st34{fill:url(#SVGID_32_);}
	.st35{opacity:0.8;fill:url(#SVGID_33_);}
	.st36{fill:url(#SVGID_34_);}
	.st37{fill:url(#SVGID_35_);}
	.st38{opacity:0.9;fill:url(#SVGID_36_);}
</style>
<linearGradient id="SVGID_1_" gradientUnits="userSpaceOnUse" x1="25" y1="200" x2="375" y2="200">
	<stop  offset="0" style="stop-color:#32A836"/>
	<stop  offset="0.0291" style="stop-color:#33A535"/>
	<stop  offset="0.4463" style="stop-color:#3A812E"/>
	<stop  offset="0.7847" style="stop-color:#3F6A29"/>
	<stop  offset="1" style="stop-color:#416227"/>
</linearGradient>
<circle style="fill:url(#SVGID_1_);" cx="200" cy="200" r="175"/>
<path class="st1" d="M328.54,107.16h-24.63c-0.27,0-0.52,0.04-0.78,0.08c-0.25-0.04-0.51-0.08-0.78-0.08h-47.02
	c-10.33-2.54-20.9-4.06-31.52-4.56v-24c0-13.13-10.68-23.81-23.81-23.81c-13.13,0-23.81,10.68-23.81,23.81v23.85
	c-12.22,0.22-24.41,1.79-36.28,4.71H92.89c-0.27,0-0.54,0.04-0.8,0.08c-0.26-0.04-0.52-0.08-0.79-0.08H71.46
	c-2.63,0-4.76,2.13-4.76,4.76c0,13.13,10.68,23.8,23.8,23.8h2.68c3.16,7.24,8.28,14.37,16.61,18.54c0.66,0.33,1.39,0.5,2.13,0.5
	h35.7v40.46c0,1.59,0.79,3.08,2.12,3.96l12.16,8.11V321.4c0,2.63,2.13,4.76,4.76,4.76h61.89c2.63,0,4.76-2.13,4.76-4.76v-26.07
	c6.77,3.81,11.42,6.16,12.15,6.53c0.68,0.34,1.41,0.5,2.14,0.5c0.87,0,1.74-0.24,2.5-0.71c1.4-0.87,2.26-2.4,2.26-4.05v-52.37
	c0-2.63-2.13-4.76-4.76-4.76h-3.98c-3.54,0-7-0.49-10.3-1.41v-31.75l12.16-8.11c1.32-0.88,2.12-2.37,2.12-3.96v-40.46h35.71
	c0.74,0,1.47-0.17,2.13-0.5c8.33-4.17,13.45-11.3,16.61-18.54h7.45c13.12,0,23.8-10.68,23.8-23.8
	C333.3,109.3,331.16,107.16,328.54,107.16L328.54,107.16z M200,64.32c7.87,0,14.28,6.41,14.28,14.28v23.8h-28.56V78.6
	C185.72,70.73,192.13,64.32,200,64.32L200,64.32z M77.04,116.69h11.37c0.25,2.52,0.72,5.83,1.61,9.5
	C84.02,125.98,78.95,122.08,77.04,116.69L77.04,116.69z M157.16,192.69v-42.68c0-2.63-2.13-4.76-4.76-4.76h-39.28
	C102.03,139,98.89,124.3,98,116.69h42.17c3.59,3.98,10.73,10.8,21.75,16.79v62.38L157.16,192.69z M223.81,316.63h-52.37V248.5
	c13.01,15.95,35.54,31.2,52.37,41.29V316.63z M242.84,289.69c-6.86-3.74-18.02-10.1-29.53-17.84
	c-23.57-15.85-38.03-30.24-41.88-41.65v-92.23c2.96,1.2,6.13,2.29,9.5,3.25c-0.03,0.85-0.07,2.3-0.13,4.12
	c-0.86,25.1,4.73,49.86,16.15,71.59c1.84,3.51,3.73,6.84,5.6,9.89c8.75,14.28,23.78,22.9,40.29,23.17V289.69z M210.67,221.84
	c-1.76-2.87-3.54-6.02-5.29-9.35c-10.65-20.27-15.86-43.38-15.05-66.83c0.03-0.82,0.05-1.57,0.07-2.22
	c6.16,1.13,12.87,1.81,20.18,1.81c2.74,0,5.56-0.09,8.46-0.29v71.7c0,2.63,2.13,4.76,4.76,4.76v13.51
	C218.56,231.76,214.03,227.33,210.67,221.84L210.67,221.84z M282.13,145.25h-39.28c-2.63,0-4.76,2.13-4.76,4.76v42.68l-9.52,6.35
	v-72.83c0-2.63-2.13-4.76-4.76-4.76c-2.63,0-4.76,2.13-4.76,4.76v9.19c-12.49,0.84-44.96,0.62-67.78-20.93
	c9.2-1.69,18.55-2.54,27.9-2.54h36.91c12.64,0,25.26,1.55,37.52,4.62c0.38,0.09,0.77,0.14,1.15,0.14h42.5
	C296.35,124.31,293.2,139.01,282.13,145.25L282.13,145.25z M309.5,126.21h-4.27c0.89-3.68,1.36-7,1.61-9.52h16.13
	C321,122.23,315.7,126.21,309.5,126.21L309.5,126.21z M309.5,126.21"/>
</svg>
