<?xml version="1.0" encoding="utf-8"?>
<!-- Generator: Adobe Illustrator 24.2.1, SVG Export Plug-In . SVG Version: 6.00 Build 0)  -->
<svg version="1.1" id="Warstwa_1" xmlns="http://www.w3.org/2000/svg" xmlns:xlink="http://www.w3.org/1999/xlink" x="0px" y="0px"
	 viewBox="0 0 1400 230" style="enable-background:new 0 0 1400 230;" xml:space="preserve">
<style type="text/css">
	.st0{fill:#AA7E63;}
	.st1{fill:#020203;}
	.st2{opacity:0.5;}
	.st3{fill:#FFFFFF;}
	.st4{opacity:0.5;fill:#FFFFFF;}
	.st5{clip-path:url(#SVGID_2_);}
	.st6{clip-path:url(#SVGID_4_);}
	.st7{clip-path:url(#SVGID_6_);}
	.st8{clip-path:url(#SVGID_8_);}
	.st9{clip-path:url(#SVGID_10_);}
	.st10{clip-path:url(#SVGID_12_);}
	.st11{clip-path:url(#SVGID_14_);}
	.st12{clip-path:url(#SVGID_16_);}
	.st13{clip-path:url(#SVGID_18_);}
	.st14{clip-path:url(#SVGID_20_);}
	.st15{clip-path:url(#SVGID_22_);}
	.st16{clip-path:url(#SVGID_24_);}
	.st17{clip-path:url(#SVGID_26_);}
	.st18{clip-path:url(#SVGID_28_);}
	.st19{clip-path:url(#SVGID_30_);}
	.st20{clip-path:url(#SVGID_32_);}
	.st21{clip-path:url(#SVGID_34_);}
	.st22{clip-path:url(#SVGID_36_);}
	.st23{clip-path:url(#SVGID_38_);}
	.st24{clip-path:url(#SVGID_40_);}
	.st25{clip-path:url(#SVGID_42_);}
	.st26{clip-path:url(#SVGID_44_);}
	.st27{clip-path:url(#SVGID_46_);}
	.st28{clip-path:url(#SVGID_48_);}
	.st29{clip-path:url(#SVGID_50_);}
	.st30{clip-path:url(#SVGID_52_);}
	.st31{clip-path:url(#SVGID_54_);}
	.st32{clip-path:url(#SVGID_56_);}
	.st33{clip-path:url(#SVGID_58_);}
	.st34{clip-path:url(#SVGID_60_);}
	.st35{clip-path:url(#SVGID_62_);}
	.st36{clip-path:url(#SVGID_64_);}
	.st37{clip-path:url(#SVGID_66_);}
	.st38{clip-path:url(#SVGID_68_);}
	.st39{clip-path:url(#SVGID_70_);}
	.st40{fill:#123274;}
	.st41{fill:#2DB8C5;}
	.st42{opacity:0.8;}
	.st43{fill:#008BC0;}
	.st44{opacity:0.5;fill:none;stroke:#FFFFFF;stroke-width:8;stroke-linecap:round;stroke-linejoin:round;stroke-miterlimit:10;}
	.st45{opacity:0.5;fill:none;stroke:#FFFFFF;stroke-width:7;stroke-linecap:round;stroke-linejoin:round;stroke-miterlimit:10;}
	.st46{fill:#0B5BA6;}
	.st47{opacity:0.8;fill:url(#SVGID_71_);}
	.st48{fill:none;stroke:#FFFFFF;stroke-width:10;stroke-miterlimit:10;}
	.st49{opacity:0.8;fill:url(#SVGID_72_);}
	.st50{fill:none;stroke:#FFFFFF;stroke-width:5;stroke-miterlimit:10;}
	.st51{fill:none;stroke:#FFFFFF;stroke-width:6;stroke-miterlimit:10;}
	.st52{opacity:0.8;fill:url(#SVGID_91_);}
	.st53{opacity:0.8;fill:url(#SVGID_110_);}
	.st54{fill:#878787;}
	.st55{opacity:0.8;fill:url(#SVGID_111_);}
	.st56{stroke:#FFFFFF;stroke-width:8;stroke-linecap:round;stroke-linejoin:round;stroke-miterlimit:10;}
	.st57{opacity:0.8;fill:url(#SVGID_112_);}
	.st58{opacity:0.8;fill:url(#SVGID_113_);}
	.st59{clip-path:url(#SVGID_115_);fill:#12100B;}
	.st60{fill:#12100B;}
	.st61{fill:url(#SVGID_116_);}
	.st62{fill:url(#SVGID_117_);}
	.st63{fill:#E87443;}
	.st64{fill:#82368C;}
	.st65{opacity:0.8;fill:url(#SVGID_118_);}
	.st66{opacity:0.8;fill:url(#SVGID_119_);}
	.st67{fill:#74B959;}
	.st68{opacity:0.8;fill:url(#SVGID_120_);}
	.st69{opacity:0.8;fill:#5EA62B;}
	.st70{fill:#10466D;}
	.st71{opacity:0.4;}
	.st72{clip-path:url(#SVGID_122_);}
	.st73{fill:url(#SVGID_123_);}
	.st74{fill:url(#SVGID_124_);}
	.st75{fill:url(#SVGID_125_);}
	.st76{fill:url(#SVGID_126_);}
	.st77{fill:url(#SVGID_127_);}
	.st78{fill:url(#SVGID_128_);}
	.st79{fill:url(#SVGID_129_);}
	.st80{fill:url(#SVGID_130_);}
	.st81{fill:url(#SVGID_131_);}
	.st82{fill:url(#SVGID_132_);}
	.st83{fill:url(#SVGID_133_);}
	.st84{fill:url(#SVGID_134_);}
	.st85{fill:url(#SVGID_135_);}
	.st86{fill:url(#SVGID_136_);}
	.st87{fill:url(#SVGID_137_);}
	.st88{fill:url(#SVGID_138_);}
	.st89{fill:url(#SVGID_139_);}
	.st90{fill:url(#SVGID_140_);}
	.st91{fill:url(#SVGID_141_);}
	.st92{fill:url(#SVGID_142_);}
	.st93{fill:url(#SVGID_143_);}
	.st94{fill:url(#SVGID_144_);}
	.st95{fill:url(#SVGID_145_);}
	.st96{fill:url(#SVGID_146_);}
	.st97{fill:url(#SVGID_147_);}
	.st98{fill:url(#SVGID_148_);}
	.st99{fill:url(#SVGID_149_);}
	.st100{fill:url(#SVGID_150_);}
	.st101{fill:url(#SVGID_151_);}
	.st102{fill:url(#SVGID_152_);}
	.st103{fill:url(#SVGID_153_);}
	.st104{fill:url(#SVGID_154_);}
	.st105{fill:url(#SVGID_155_);}
	.st106{fill:url(#SVGID_156_);}
	.st107{fill:url(#SVGID_157_);}
	.st108{fill:url(#SVGID_158_);}
	.st109{fill:url(#SVGID_159_);}
	.st110{fill:url(#SVGID_160_);}
	.st111{fill:url(#SVGID_161_);}
	.st112{fill:url(#SVGID_162_);}
	.st113{fill:url(#SVGID_163_);}
	.st114{fill:url(#SVGID_164_);}
	.st115{fill:url(#SVGID_165_);}
	.st116{fill:url(#SVGID_166_);}
	.st117{fill:url(#SVGID_167_);}
	.st118{fill:url(#SVGID_168_);}
	.st119{fill:url(#SVGID_169_);}
	.st120{fill:url(#SVGID_170_);}
	.st121{fill:url(#SVGID_171_);}
	.st122{fill:url(#SVGID_172_);}
	.st123{fill:url(#SVGID_173_);}
	.st124{fill:url(#SVGID_174_);}
	.st125{fill:url(#SVGID_175_);}
	.st126{fill:url(#SVGID_176_);}
	.st127{fill:url(#SVGID_177_);}
	.st128{fill:url(#SVGID_178_);}
	.st129{fill:#F59A1C;}
	.st130{fill:#FFFFFF;stroke:#FFFFFF;stroke-width:14.1732;stroke-miterlimit:10;}
	.st131{opacity:0.8;fill:url(#SVGID_179_);}
	.st132{fill:#255C30;}
	.st133{fill:#C10C1A;}
	.st134{fill:#65C3CE;}
	.st135{fill:#31B7BC;}
	.st136{opacity:0.65;fill:#FFFFFF;}
	.st137{opacity:0.65;}
	.st138{opacity:0.8;fill:url(#SVGID_180_);}
	.st139{fill:#ED694B;}
	.st140{opacity:0.8;fill:url(#SVGID_181_);}
	.st141{clip-path:url(#SVGID_183_);}
	.st142{clip-path:url(#SVGID_185_);}
	.st143{clip-path:url(#SVGID_187_);}
	.st144{opacity:0.6;}
	.st145{opacity:0.6;fill:#FFFFFF;}
	.st146{opacity:0.8;fill:url(#SVGID_188_);}
	.st147{opacity:0.8;fill:url(#SVGID_189_);}
	.st148{opacity:0.8;fill:url(#SVGID_190_);}
	.st149{fill:none;stroke:#FFFFFF;stroke-width:35;stroke-linecap:round;stroke-linejoin:round;stroke-miterlimit:10;}
	.st150{opacity:0.8;fill:url(#SVGID_191_);}
	.st151{opacity:0.8;fill:url(#SVGID_192_);}
	.st152{fill:none;stroke:#FFFFFF;stroke-width:20;stroke-linecap:round;stroke-linejoin:round;stroke-miterlimit:10;}
	.st153{opacity:0.8;fill:url(#SVGID_193_);}
	.st154{fill:none;stroke:#FFFFFF;stroke-width:2;stroke-miterlimit:10;}
	.st155{opacity:0.75;fill:url(#SVGID_194_);}
	.st156{opacity:0.8;fill:url(#SVGID_195_);}
	.st157{fill:url(#SVGID_196_);}
	.st158{opacity:0.8;fill:url(#SVGID_197_);}
	.st159{opacity:0.8;fill:url(#SVGID_198_);}
	.st160{fill:url(#SVGID_199_);}
	.st161{fill:url(#SVGID_200_);}
	.st162{fill:url(#SVGID_201_);}
	.st163{fill:url(#SVGID_202_);}
	.st164{fill:url(#SVGID_203_);}
	.st165{opacity:0.8;fill:url(#SVGID_204_);}
	.st166{fill:url(#SVGID_205_);}
	.st167{opacity:0.1;}
	.st168{opacity:0.1;fill:#FFFFFF;}
	.st169{opacity:0.15;fill:#FFFFFF;}
	.st170{opacity:0.15;}
	.st171{opacity:0.8;fill:url(#SVGID_206_);}
	.st172{fill:url(#SVGID_207_);}
</style>
<rect class="st0" width="1400" height="230"/>
<g class="st144">
	<path class="st3" d="M1232.53,180.35c-6.49,0-11.77-5.13-11.77-11.43c0-6.3,5.28-11.43,11.77-11.43s11.77,5.13,11.77,11.43
		C1244.3,175.23,1239.02,180.35,1232.53,180.35z M1232.53,163.77c-2.93,0-5.32,2.32-5.32,5.16c0,2.85,2.39,5.16,5.32,5.16
		s5.32-2.32,5.32-5.16C1237.84,166.08,1235.46,163.77,1232.53,163.77z"/>
</g>
<g class="st144">
	<path class="st3" d="M1103.6,191.89c-0.72,0-1.42-0.28-1.93-0.78l-6.81-6.6c-1.07-1.03-1.07-2.71,0-3.74
		c1.07-1.03,2.79-1.03,3.86,0l4.88,4.73l8.29-8.04c1.07-1.03,2.79-1.03,3.86,0c1.07,1.03,1.07,2.71,0,3.74l-10.22,9.92
		C1105.01,191.61,1104.32,191.89,1103.6,191.89z"/>
</g>
<path class="st145" d="M506.33,34.97c-0.76,0-1.48,0.15-2.16,0.44c-2.16,0.92-3.6,2.87-3.6,5.01c0,2.87,2.47,5.12,5.61,5.12
	c3.34,0,5.42-2.61,5.42-5.01C511.6,38.73,510.31,34.97,506.33,34.97z"/>
<path class="st145" d="M478.17,19.75c-0.76,0-1.48,0.15-2.16,0.44c-2.16,0.92-3.6,2.87-3.6,5.01c0,2.87,2.47,5.12,5.61,5.12
	c3.34,0,5.42-2.61,5.42-5.01C483.45,23.51,482.16,19.75,478.17,19.75z"/>
<path class="st145" d="M820.47,98.15c-0.76,0-1.48,0.15-2.16,0.44c-2.16,0.92-3.6,2.87-3.6,5.01c0,2.87,2.47,5.12,5.61,5.12
	c3.34,0,5.42-2.61,5.42-5.01C825.75,101.9,824.46,98.15,820.47,98.15z"/>
<path class="st145" d="M1264.25,173.57c-0.97,0-1.9,0.19-2.78,0.57c-2.78,1.18-4.63,3.69-4.63,6.43c0,3.69,3.17,6.57,7.21,6.57
	c4.29,0,6.97-3.36,6.97-6.43C1271.02,178.39,1269.37,173.57,1264.25,173.57z"/>
<path class="st145" d="M1363.16,148.85c-0.62,0-1.21,0.12-1.77,0.36c-1.77,0.75-2.94,2.35-2.94,4.09c0,2.35,2.01,4.18,4.59,4.18
	c2.73,0,4.43-2.14,4.43-4.09C1367.46,151.92,1366.41,148.85,1363.16,148.85z"/>
<path class="st145" d="M1344.58,164.95c-0.88,0-1.71,0.17-2.5,0.51c-2.5,1.07-4.17,3.32-4.17,5.79c0,3.32,2.85,5.92,6.5,5.92
	c3.86,0,6.28-3.03,6.28-5.79C1350.68,169.3,1349.19,164.95,1344.58,164.95z"/>
<path class="st145" d="M1360.51,182.29c-0.62,0-1.21,0.12-1.77,0.36c-1.77,0.75-2.94,2.35-2.94,4.09c0,2.35,2.01,4.18,4.59,4.18
	c2.73,0,4.43-2.14,4.43-4.09C1364.81,185.36,1363.76,182.29,1360.51,182.29z"/>
<path class="st145" d="M1235.63,192.88c-0.62,0-1.21,0.12-1.77,0.36c-1.77,0.75-2.94,2.35-2.94,4.09c0,2.35,2.01,4.18,4.59,4.18
	c2.73,0,4.43-2.14,4.43-4.09C1239.94,195.94,1238.89,192.88,1235.63,192.88z"/>
<path class="st145" d="M484.84,51.17c-0.91,0-1.77,0.18-2.59,0.53c-2.59,1.1-4.32,3.44-4.32,6c0,3.44,2.96,6.13,6.73,6.13
	c4,0,6.5-3.13,6.5-6C491.16,55.67,489.62,51.17,484.84,51.17z"/>
<path class="st145" d="M1068.81,138.96c-1.05,0-2.04,0.2-2.99,0.61c-2.99,1.27-4.98,3.97-4.98,6.92c0,3.97,3.41,7.07,7.76,7.07
	c4.61,0,7.5-3.61,7.5-6.92C1076.1,144.15,1074.32,138.96,1068.81,138.96z"/>
<path class="st145" d="M1050.37,156.8c-0.81,0-1.58,0.16-2.31,0.47c-2.31,0.98-3.85,3.07-3.85,5.35c0,3.07,2.63,5.46,5.99,5.46
	c3.56,0,5.79-2.79,5.79-5.35C1056,160.81,1054.63,156.8,1050.37,156.8z"/>
<path class="st145" d="M634.39,116.08c-1.05,0-2.04,0.2-2.99,0.61c-2.99,1.27-4.98,3.97-4.98,6.92c0,3.97,3.41,7.07,7.76,7.07
	c4.61,0,7.5-3.61,7.5-6.92C641.67,121.27,639.89,116.08,634.39,116.08z"/>
<path class="st145" d="M615.95,133.91c-0.81,0-1.58,0.16-2.31,0.47c-2.31,0.98-3.85,3.07-3.85,5.35c0,3.07,2.63,5.46,5.99,5.46
	c3.56,0,5.79-2.79,5.79-5.35C621.58,137.92,620.2,133.91,615.95,133.91z"/>
<path class="st145" d="M1068.67,197.19c-0.61,0-1.19,0.12-1.74,0.36c-1.74,0.74-2.9,2.31-2.9,4.03c0,2.31,1.99,4.12,4.52,4.12
	c2.69,0,4.37-2.1,4.37-4.03C1072.91,200.21,1071.88,197.19,1068.67,197.19z"/>
<path class="st145" d="M962.63,42.66c-1.05,0-2.04,0.2-2.99,0.61c-2.99,1.27-4.98,3.97-4.98,6.92c0,3.97,3.41,7.07,7.76,7.07
	c4.61,0,7.5-3.61,7.5-6.92C969.92,47.85,968.13,42.66,962.63,42.66z"/>
<path class="st145" d="M297.09,70.32h-14.75c-1.57,0-2.84-1.24-2.84-2.76V46.69h-10.51c-1.57,0-2.84-1.24-2.84-2.76V29.61
	c0-1.52,1.27-2.76,2.84-2.76h10.51V16.03c0-1.52,1.27-2.76,2.84-2.76h14.75c1.57,0,2.84,1.24,2.84,2.76v10.81h10.51
	c1.57,0,2.84,1.24,2.84,2.76v14.32c0,1.52-1.27,2.76-2.84,2.76h-10.51v20.87C299.93,69.08,298.66,70.32,297.09,70.32L297.09,70.32z
	 M285.18,64.79h9.07V43.93c0-1.53,1.27-2.76,2.84-2.76h10.51v-8.8h-10.51c-1.57,0-2.84-1.24-2.84-2.76V18.79h-9.07v10.81
	c0,1.52-1.27,2.76-2.84,2.76h-10.51v8.8h10.51c1.57,0,2.84,1.23,2.84,2.76V64.79z M285.18,64.79"/>
<g class="st144">
	<g>
		<path class="st3" d="M708.55,25.36c1.78,0,3.23,1.4,3.23,3.13c0,1.73-1.44,3.13-3.23,3.13l-17.09,0c-1.78,0-3.23-1.4-3.23-3.13
			c0-1.73,1.44-3.13,3.23-3.13L708.55,25.36z"/>
	</g>
	<g>
		<path class="st3" d="M699.51,17.54c0.83,0,1.65,0.31,2.28,0.92c1.26,1.22,1.26,3.21,0,4.43l-5.78,5.61l5.77,5.6
			c1.26,1.22,1.26,3.21,0,4.43s-3.3,1.22-4.56,0l-8.05-7.81c-0.61-0.59-0.95-1.38-0.95-2.22c0-0.83,0.34-1.63,0.95-2.21l8.06-7.82
			C697.86,17.85,698.69,17.54,699.51,17.54z"/>
	</g>
</g>
<path class="st145" d="M1206.07,75.07c-0.38,0-0.75-0.09-1.08-0.26l-7.7-3.93l-7.72,3.93c-0.33,0.17-0.7,0.25-1.07,0.25
	c-0.48,0-0.94-0.14-1.33-0.41c-0.71-0.51-1.07-1.37-0.92-2.19l1.47-8.34l-6.24-5.9c-0.63-0.6-0.85-1.47-0.58-2.28
	c0.27-0.8,0.97-1.38,1.84-1.51l8.64-1.22l3.86-7.59c0.38-0.76,1.17-1.24,2.05-1.24c0.87,0,1.66,0.47,2.05,1.23l3.85,7.59l8.63,1.22
	c0.88,0.13,1.58,0.71,1.85,1.52c0.27,0.81,0.05,1.68-0.58,2.28l-6.24,5.91l1.47,8.34c0.15,0.82-0.2,1.68-0.91,2.18
	C1207.02,74.93,1206.55,75.07,1206.07,75.07z M1197.28,66.14c0.37,0,0.73,0.09,1.06,0.25l4.68,2.39l-0.89-5.05
	c-0.12-0.73,0.12-1.47,0.65-1.97l3.78-3.58l-5.22-0.74c-0.74-0.1-1.39-0.55-1.73-1.22l-2.34-4.59l-2.34,4.59
	c-0.33,0.66-0.98,1.12-1.73,1.22l-5.21,0.73l3.78,3.57c0.54,0.51,0.78,1.25,0.66,1.97l-0.9,5.05l4.67-2.38
	C1196.55,66.23,1196.92,66.14,1197.28,66.14z"/>
<path class="st145" d="M1319.5,211.28c-0.36,0-0.71-0.09-1.02-0.25l-7.3-3.72l-7.31,3.73c-0.31,0.16-0.66,0.24-1.01,0.24
	c-0.45,0-0.89-0.13-1.26-0.39c-0.68-0.49-1.01-1.3-0.88-2.07l1.39-7.9l-5.91-5.59c-0.6-0.57-0.81-1.39-0.55-2.16
	c0.25-0.76,0.92-1.31,1.74-1.44l8.19-1.15l3.66-7.19c0.36-0.72,1.11-1.17,1.94-1.17c0.83,0,1.57,0.45,1.95,1.17l3.65,7.19l8.18,1.15
	c0.83,0.13,1.5,0.68,1.75,1.44c0.26,0.76,0.05,1.59-0.55,2.16l-5.92,5.6l1.39,7.9c0.15,0.78-0.19,1.59-0.86,2.06
	C1320.4,211.14,1319.96,211.28,1319.5,211.28z M1311.17,202.82c0.35,0,0.7,0.08,1.01,0.24l4.44,2.26l-0.84-4.78
	c-0.12-0.69,0.11-1.39,0.62-1.87l3.58-3.39l-4.95-0.7c-0.7-0.09-1.32-0.53-1.64-1.15l-2.21-4.35l-2.21,4.35
	c-0.32,0.63-0.93,1.06-1.64,1.15l-4.94,0.7l3.58,3.39c0.51,0.49,0.74,1.18,0.63,1.86l-0.85,4.79l4.43-2.26
	C1310.48,202.9,1310.83,202.82,1311.17,202.82z"/>
<path class="st145" d="M1028.87,136.27c0.81,0,1.58-0.16,2.31-0.47c2.31-0.98,3.85-3.07,3.85-5.35c0-3.07-2.63-5.46-5.99-5.46
	c-3.56,0-5.79,2.79-5.79,5.35C1023.24,132.26,1024.61,136.27,1028.87,136.27z"/>
<path class="st145" d="M1007.82,178.42c-3.17-3.3-8.53-3.48-11.93-0.4l-1.01,0.91l-9.57-6.07l0.66-14.04
	c0.49-10.38-0.03-13.7-3.73-23.64c-2.86-7.69-6.77-17.31-9.91-25.04c-2.25-5.53-4.19-10.3-4.81-12.1c0-0.01-0.01-0.02-0.01-0.02
	c-1.64-4.56-5.94-6.02-9.34-5.09c-1.29,0.35-2.54,1.08-3.53,2.15c-0.98-1.07-2.23-1.8-3.53-2.15c-3.4-0.92-7.7,0.53-9.34,5.09
	c0,0.01-0.01,0.02-0.01,0.02c-0.5,1.44-1.86,4.83-3.26,8.27c-0.51,1.25,0.13,2.66,1.42,3.15c1.29,0.49,2.74-0.12,3.25-1.37
	c1.64-4.04,2.83-7.03,3.34-8.49c0.66-1.81,2.1-2.31,3.25-2c1.2,0.32,2.27,1.59,1.71,4.17l-5.85,24.42c-1.25,0.89-2.47,2.35-3.48,4.7
	c-2.9,6.75-5.34,13.96-6.69,19.76c-0.31,1.31,0.54,2.61,1.89,2.91c1.35,0.3,2.69-0.52,3-1.83c1.29-5.54,3.64-12.45,6.43-18.96
	c1.31-3.05,2.44-2.95,2.87-2.91c1.36,0.12,2.37,1.3,2.25,2.63c-0.11,1.25-0.62,5.82-1.1,10.23c-0.51,4.64-0.99,9.01-1.11,10.31
	c-0.29,3.18,0.28,7.04,0.89,11.13c1.77,11.85,3.96,26.51-12.35,36.31l-20.02-18.12l9.73-6.17c0.74-0.47,1.17-1.29,1.13-2.15
	l-0.73-15.43c-0.46-9.76-0.04-12.4,3.44-21.76c0.9-2.43,1.95-5.17,3.21-8.37c0.49-1.25-0.15-2.66-1.45-3.14
	c-1.29-0.48-2.74,0.15-3.23,1.41c-1.27,3.23-2.33,6-3.25,8.45c-3.7,9.94-4.22,13.26-3.73,23.64l0.67,14.04l-9.57,6.07l-1-0.91
	c-3.4-3.08-8.76-2.9-11.93,0.4c-3.17,3.3-2.99,8.5,0.42,11.58l27.57,24.96c1.62,1.47,3.69,2.2,5.75,2.2c2.26,0,4.52-0.87,6.18-2.6
	c1.54-1.6,2.34-3.69,2.26-5.87c-0.06-1.74-0.68-3.38-1.76-4.73c6.22-3.96,10.43-8.86,12.74-14.83c2.31,5.98,6.52,10.87,12.74,14.83
	c-1.08,1.35-1.7,2.99-1.76,4.73c-0.08,2.19,0.73,4.27,2.26,5.87c1.66,1.73,3.91,2.6,6.18,2.6c2.06,0,4.13-0.73,5.75-2.2l27.57-24.96
	C1010.81,186.92,1011,181.73,1007.82,178.42L1007.82,178.42z M937.75,211.24c-1.29,1.34-3.47,1.42-4.85,0.16l-27.57-24.96
	c-1.38-1.25-1.46-3.36-0.17-4.71c0.67-0.7,1.59-1.06,2.51-1.06c0.84,0,1.68,0.3,2.34,0.89l27.57,24.96
	c0.67,0.61,1.06,1.43,1.09,2.32C938.71,209.74,938.38,210.59,937.75,211.24L937.75,211.24z M951.04,125.15l3.63-15.13l3.63,15.13
	c-1.4,0.3-2.65,0.98-3.63,1.91C953.68,126.13,952.44,125.45,951.04,125.15L951.04,125.15z M954.66,153.65c0.06,0.81,0.06,1.7,0,2.65
	C954.61,155.35,954.6,154.47,954.66,153.65L954.66,153.65z M958.74,164.15c0.61-4.09,1.19-7.95,0.89-11.13
	c-0.12-1.29-0.6-5.67-1.11-10.31c-0.49-4.41-0.99-8.98-1.1-10.23c-0.12-1.33,0.88-2.51,2.25-2.63c0.43-0.04,1.56-0.14,2.87,2.91
	c2.8,6.51,5.14,13.42,6.43,18.96c0.3,1.31,1.65,2.13,3,1.83c1.35-0.3,2.2-1.6,1.89-2.91c-1.35-5.81-3.79-13.01-6.69-19.76
	c-1.01-2.35-2.23-3.81-3.48-4.7l-5.85-24.42c-0.56-2.58,0.51-3.84,1.71-4.17c1.15-0.31,2.6,0.19,3.25,2
	c0.67,1.92,2.53,6.51,4.89,12.32c3.13,7.7,7.02,17.28,9.86,24.91c3.48,9.36,3.9,12,3.44,21.76l-0.73,15.43
	c-0.04,0.86,0.39,1.68,1.13,2.15l9.74,6.17l-20.02,18.12C954.79,190.67,956.98,176,958.74,164.15L958.74,164.15z M1003.99,186.45
	l-27.57,24.96c-1.38,1.25-3.56,1.18-4.85-0.16c-0.63-0.65-0.95-1.5-0.92-2.39c0.03-0.89,0.42-1.71,1.09-2.32l27.57-24.96
	c0.66-0.6,1.5-0.89,2.34-0.89c0.92,0,1.84,0.35,2.51,1.06C1005.45,183.08,1005.37,185.19,1003.99,186.45L1003.99,186.45z
	 M1003.99,186.45"/>
<path class="st145" d="M1215.24,116.23c2.14-6.99-3.08-16.39-9.45-15.42l-1.88-1.83c-4.41-4.23-10.35-6.6-16.55-6.6h-50.84
	c-6.2,0-12.14,2.37-16.55,6.6l-1.88,1.83c-8.7-1.33-13.88,15.35-6.24,19.57l1.69,6.99c-5.64,5.81,1.05,19.69,8.89,18.18l4.72,5.1
	c-3.19,7.78,11.87,16.18,18.09,10.37l6.11,1.64c0.49,3.22,3.87,5.75,8.45,6.35v4.3c-2.36,0-4.28,1.86-4.28,4.15v6.23h-6.41
	c-2.36,0-4.28,1.86-4.28,4.15v4.15c0,2.29,1.91,4.15,4.28,4.15h6.41v16.6c0,2.29,1.91,4.15,4.28,4.15h4.27
	c2.36,0,4.28-1.86,4.28-4.15v-16.6h6.41c2.36,0,4.28-1.86,4.28-4.15v-4.15c0-2.29-1.91-4.15-4.28-4.15h-6.41v-6.23
	c0-2.29-1.91-4.15-4.28-4.15v-4.3c4.58-0.6,7.95-3.13,8.55-6.35l6.11-1.64c6.18,5.77,21.38-2.57,18.09-10.37l4.73-5.1
	c7.78,1.49,14.58-12.3,8.89-18.18l1.69-6.99C1213.68,119.42,1214.79,117.94,1215.24,116.23L1215.24,116.23z M1166.22,187.83h8.55
	v4.15h-8.55c-1.18,0-2.14,0.93-2.14,2.08v18.67h-4.27v-18.67c0-1.15-0.96-2.08-2.14-2.08h-8.55v-4.15h8.55
	c1.18,0,2.14-0.93,2.14-2.07v-8.3h4.27v8.3C1164.08,186.9,1165.04,187.83,1166.22,187.83L1166.22,187.83z M1211.12,115
	c-1.8,5.73-8.15-2.45-6.41-8.3C1206.44,100.85,1212.98,109.21,1211.12,115L1211.12,115z M1136.52,96.54h50.84
	c5.07,0,9.93,1.94,13.53,5.39l1.18,1.12c-4.28,5.35-0.81,15.87,5.47,17.74l-1.18,4.79c-7.27-0.12-12.7,11.66-8.55,17.55l-4.15,4.48
	c-6.44-2.97-16.76,3.01-16.76,9.54l-5.47,1.47c-3.89-5.33-15.2-5.33-19.07,0l-5.39-1.47c0-6.6-10.33-12.45-16.8-9.5l-4.15-4.48
	c4.28-5.91-1.22-17.68-8.55-17.55l-1.18-4.83c6.29-1.87,9.64-12.45,5.47-17.74l1.18-1.12C1126.56,98.46,1131.44,96.52,1136.52,96.54
	L1136.52,96.54z M1119.19,106.79c1.84,5.79-4.53,13.92-6.41,8.3C1110.89,109.46,1117.28,101.06,1119.19,106.79L1119.19,106.79z
	 M1115.83,131.81c1.13-5.85,8.4,1.53,7.25,7.49C1121.92,145.25,1114.67,137.83,1115.83,131.81L1115.83,131.81z M1140.33,158.78
	c-6.16,0.54-13.11-7.22-6.97-7.74C1139.5,150.52,1146.45,158.24,1140.33,158.78L1140.33,158.78z M1161.94,165.01
	c-3.68,0-6.41-1.64-6.41-3.11c0-1.47,2.74-3.11,6.41-3.11c3.68,0,6.41,1.64,6.41,3.11C1168.36,163.37,1165.62,165.01,1161.94,165.01
	L1161.94,165.01z M1183.56,158.78c-6.11-0.52,0.75-8.3,6.97-7.74C1196.75,151.6,1189.74,159.3,1183.56,158.78L1183.56,158.78z
	 M1200.81,139.38c-1.15-5.98,6.03-13.36,7.25-7.57c1.22,5.79-6.11,13.4-7.25,7.55V139.38z M1200.81,139.38"/>
<path class="st145" d="M584.24,113.85c-7.04,0-12.77-5.56-12.77-12.4c0-2.38,0.72-4.67,2.09-6.69c-5.44-1.5-9.27-6.33-9.27-11.9
	c0-2.38,0.72-4.67,2.09-6.7c-5.44-1.5-9.27-6.33-9.27-11.9c0-2.66,0.91-5.25,2.59-7.41c-4.46-2.03-7.38-6.4-7.38-11.19
	c0-6.84,5.73-12.4,12.77-12.4c4.26,0,8.23,2.11,10.59,5.57c0.89-0.79,1.86-1.44,2.91-1.95c-1.72-2.89-3.38-5.4-4.95-7.46
	c-1.39,1.48-3.14,2.58-5.12,3.21c-1.18,0.37-2.39,0.56-3.6,0.56c-2.33,0-4.56-0.69-6.47-2c-2.68-1.84-3.31-3.96-3.37-5.42
	c-0.1-2.56,1.38-5.02,4.52-7.54c1.64-1.31,3.55-2.01,5.54-2.01c0.55,0,1.11,0.05,1.67,0.16c1.51,0.28,3.07,0.95,4.64,1.99
	c0.28-1.4,0.44-2.73,0.48-3.95c0.05-1.66,1.47-3.01,3.16-3.01l0.14,0c0.84,0.02,1.63,0.37,2.22,0.97c0.59,0.6,0.89,1.39,0.87,2.22
	c-0.08,2.62-0.59,5.53-1.53,8.64c1.84,2.12,3.79,4.82,5.82,8.05c0.82-3.94,2.62-8.66,6.51-12c4.71-4.04,11.09-4.89,15.6-4.89
	c2.32,0,3.85,0.23,3.91,0.24c1.53,0.22,2.67,1.48,2.71,2.98c0.01,0.48,0.25,11.86-7.16,18.21c-2.58,2.21-5.93,3.69-9.98,4.4
	c0.62,0.76,1.14,1.59,1.57,2.49c2.22-1.63,4.89-2.51,7.63-2.51c7.04,0,12.77,5.56,12.77,12.4c0,6.83-5.73,12.39-12.77,12.39
	c-0.56,0-1.14-0.04-1.73-0.13c0.09,0.58,0.13,1.14,0.13,1.68c0,2.38-0.72,4.67-2.09,6.7c5.44,1.5,9.27,6.33,9.27,11.9
	c0,6.79-5.66,12.32-12.63,12.4c0.44,1.26,0.66,2.56,0.66,3.87C597.02,108.29,591.29,113.85,584.24,113.85z M584.24,95.25
	c-3.52,0-6.39,2.78-6.39,6.2c0,3.42,2.87,6.2,6.39,6.2c3.52,0,6.39-2.78,6.39-6.2C590.63,98.04,587.77,95.25,584.24,95.25z
	 M596.22,78.98c-3.52,0-6.39,2.78-6.39,6.2c0,3.42,2.87,6.2,6.39,6.2c3.52,0,6.39-2.78,6.39-6.2
	C602.61,81.76,599.74,78.98,596.22,78.98z M577.06,76.66c-3.52,0-6.39,2.78-6.39,6.2s2.87,6.2,6.39,6.2c3.52,0,6.39-2.78,6.39-6.2
	S580.58,76.66,577.06,76.66z M589.03,60.39c-3.52,0-6.39,2.78-6.39,6.2c0,3.42,2.87,6.2,6.39,6.2c3.52,0,6.39-2.78,6.39-6.2
	C595.42,63.17,592.56,60.39,589.03,60.39z M569.87,58.07c-3.52,0-6.39,2.78-6.39,6.2c0,3.42,2.87,6.2,6.39,6.2
	c3.52,0,6.39-2.78,6.39-6.2C576.26,60.85,573.4,58.07,569.87,58.07z M603.41,46.44c-3.52,0-6.39,2.78-6.39,6.2
	c0,3.42,2.87,6.2,6.39,6.2c3.52,0,6.39-2.78,6.39-6.2C609.79,49.22,606.93,46.44,603.41,46.44z M584.24,41.79
	c-3.52,0-6.39,2.78-6.39,6.2c0,3.42,2.87,6.2,6.39,6.2c3.52,0,6.39-2.78,6.39-6.2C590.63,44.57,587.77,41.79,584.24,41.79z
	 M565.08,39.47c-3.52,0-6.39,2.78-6.39,6.2c0,3.42,2.87,6.2,6.39,6.2c3.52,0,6.39-2.78,6.39-6.2
	C571.47,42.25,568.6,39.47,565.08,39.47z M588.57,34.55c3.43,0,8.18-0.58,11.39-3.33c3.33-2.85,4.45-7.57,4.82-10.59
	c-0.03,0-0.07,0-0.1,0c-2.78,0-7.95,0.43-11.32,3.33c-3.32,2.85-4.45,7.56-4.82,10.59C588.54,34.55,588.55,34.55,588.57,34.55z
	 M561.46,25.57c0.02,0,0.19,0.24,0.67,0.57c0.82,0.56,1.78,0.86,2.79,0.86c0.54,0,1.09-0.08,1.62-0.25c1.15-0.36,2.16-1.1,2.83-2.05
	c-1.43-1.26-2.73-2.03-3.78-2.22c-0.16-0.03-0.32-0.05-0.47-0.05c-0.51,0-0.96,0.18-1.47,0.59
	C561.54,24.72,561.46,25.57,561.46,25.57C561.46,25.57,561.46,25.57,561.46,25.57z"/>
<path class="st145" d="M519.57,151.04c-1.76,0-3.19-1.39-3.19-3.1c0-1.71,1.43-3.1,3.19-3.1h8.78v-22.58
	c-6.85-0.58-13.27-3.9-17.71-9.18c-3.73-4.43-5.75-10.22-5.7-16.31c0.02-2.3,0.31-4.53,0.86-6.65l5.75-21.97
	c0.36-1.38,1.63-2.34,3.1-2.34h31.77c1.46,0,2.74,0.96,3.1,2.34l5.75,21.97c0.55,2.12,0.84,4.36,0.86,6.66
	c0.06,6.08-1.97,11.87-5.7,16.31c-4.02,4.77-9.57,7.93-15.69,8.94v22.82h8.78c1.76,0,3.19,1.39,3.19,3.1c0,1.71-1.43,3.1-3.19,3.1
	H519.57z M511.56,99.9c0.5,3.52,1.89,6.71,4.04,9.27c3.76,4.47,9.21,7.03,14.95,7.03c5.74,0,11.19-2.56,14.95-7.03
	c2.15-2.56,3.54-5.75,4.04-9.27H511.56z M549.48,93.71c-0.11-0.75-0.24-1.43-0.4-2.06l-5.14-19.64h-26.8l-5.14,19.64
	c-0.16,0.62-0.3,1.3-0.41,2.06H549.48z"/>
<path class="st145" d="M247.77,128.1c-0.45,0-0.9-0.12-1.3-0.34l-0.08-0.04l-0.01-0.01c-0.78-0.42-13.06-6.71-31.74-6.71
	c-6.89,0-13.86,0.86-20.72,2.54c-0.15,0.02-0.26,0.03-0.36,0.03c-0.1,0-0.21-0.01-0.31-0.02l-0.53,0l-0.05-0.01
	c-6.79-1.66-13.7-2.5-20.54-2.5c-18.37,0-30.65,6.03-31.99,6.72c-0.4,0.22-0.84,0.33-1.29,0.34c-1.43,0-2.6-1.13-2.6-2.52V57.49
	c0-1.39,1.16-2.52,2.59-2.52h7v-2.06c-0.05-1.14,0.72-2.18,1.87-2.5c5.16-1.31,10.47-1.98,15.8-1.98h0.15
	c8.65,0,20.76,1.83,29.61,10.49c8.99-8.66,21.04-10.49,29.6-10.49h0.14c5.33,0,10.64,0.66,15.79,1.97c1.16,0.33,1.93,1.36,1.88,2.52
	l0,2.07h7.05c1.45,0,2.62,1.13,2.62,2.52v68.08c-0.01,0.89-0.5,1.72-1.3,2.17C248.68,127.98,248.23,128.1,247.77,128.1z
	 M214.97,115.96c10.4,0,20.55,1.9,30.19,5.65l0.09-61.57h-4.45v53.05c0,0.13-0.01,0.27-0.03,0.4c-0.19,1.22-1.29,2.14-2.56,2.14
	c-0.13,0-0.26-0.01-0.39-0.03c-4.54-0.67-9.17-1.02-13.76-1.04c-0.35-0.01-0.7-0.01-1.05-0.01c-4.58,0-9.12,0.53-13.55,1.59
	C211.29,116.02,213.14,115.96,214.97,115.96z M141.46,121.61c9.63-3.74,19.78-5.64,30.16-5.64c1.82,0,3.65,0.06,5.47,0.18
	c-4.43-1.06-8.97-1.6-13.55-1.6c-0.33,0-0.65,0-0.98,0.01c-4.57,0.04-9.17,0.39-13.67,1.06c-0.13,0.02-0.26,0.03-0.4,0.03
	c-1.45-0.02-2.6-1.16-2.59-2.55V60.03h-4.45V121.61z M162.56,109.54c14.24,0,23.1,3.44,28.15,6.48l-0.07-52.24
	c-7.78-8.43-18.97-10.2-27.01-10.2c-4.24,0.01-8.48,0.46-12.62,1.33v55.33C154.83,109.78,158.72,109.55,162.56,109.54L162.56,109.54
	z M195.9,116c5.12-3.05,14.02-6.49,28.15-6.49c3.82,0.02,7.69,0.26,11.48,0.71V54.91c-4.14-0.87-8.39-1.32-12.63-1.33
	c-7.99,0-19.15,1.77-27.01,10.2V116z"/>
<g class="st144">
	<path class="st3" d="M1279.71,147.56c-5.25,0-9.85-3.62-10.92-8.6l-20.41-94.47c-0.61-2.82-0.05-5.71,1.59-8.13
		c1.63-2.43,4.13-4.09,7.04-4.68l84.19-17.13c0.21-0.04,0.42-0.06,0.63-0.06c1.45,0,2.73,1,3.02,2.38l23.72,109.8
		c0.35,1.62-0.72,3.21-2.39,3.55l-84.19,17.13C1281.24,147.48,1280.48,147.56,1279.71,147.56
		C1279.71,147.56,1279.71,147.56,1279.71,147.56z M1278.68,132.01c-1.3,0.26-2.41,1.01-3.14,2.09c-0.73,1.08-0.98,2.37-0.71,3.63
		c0.48,2.23,2.53,3.84,4.88,3.84c0.34,0,0.68-0.03,1.02-0.1l81.17-16.52l-2.04-9.46L1278.68,132.01z M1258.27,37.53
		c-2.69,0.55-4.41,3.11-3.85,5.72l18.37,85.03c1.38-1.08,2.9-1.79,4.62-2.14l2.24-0.46l-19.15-88.61L1258.27,37.53z M1285.7,124.46
		l72.89-14.83l-19.15-88.61l-72.89,14.83L1285.7,124.46z M1303.41,109.58c-1.45,0-2.73-1-3.02-2.38c-0.17-0.78-0.01-1.58,0.44-2.25
		c0.45-0.67,1.14-1.13,1.95-1.29l31.57-6.42c0.21-0.04,0.42-0.06,0.63-0.06c1.45,0,2.73,1,3.02,2.38c0.35,1.62-0.72,3.21-2.39,3.55
		l-31.57,6.42C1303.83,109.56,1303.62,109.58,1303.41,109.58z M1292.75,98.42c-1.45,0-2.72-1-3.02-2.38
		c-0.17-0.78-0.01-1.58,0.44-2.25c0.45-0.67,1.14-1.13,1.95-1.3l47.36-9.64c0.21-0.04,0.42-0.06,0.63-0.06c1.45,0,2.73,1,3.02,2.38
		c0.35,1.62-0.72,3.21-2.39,3.55l-47.36,9.64C1293.18,98.4,1292.96,98.42,1292.75,98.42z M1313.65,80.84
		c-0.44,0-0.86-0.09-1.28-0.29l-16.88-8.17c-8.13-4.06-12.58-10.84-11.88-18.13c0.68-6.07,4.96-11.28,10.41-12.66l0.94-0.19
		c1.06-0.22,2.15-0.33,3.24-0.33c2.78,0,5.48,0.71,7.85,2.06c2.46-3.3,6.22-5.52,10.38-6.1c0.63-0.1,1.28-0.15,1.93-0.15
		c5.08,0,10.12,3.01,12.83,7.68c3.81,6.42,2.65,14.34-3.11,21.19L1316,79.81c-0.43,0.64-1.33,0.89-1.69,0.96
		C1314.08,80.82,1313.87,80.84,1313.65,80.84z M1298.29,46.92c-0.67,0-1.33,0.07-1.97,0.2l-0.66,0.13c-3.02,0.87-5.42,3.99-5.8,7.57
		c-0.57,4.78,2.53,9.37,8.29,12.28l14.73,7.07l10.44-12.19c4.15-5.02,5.12-10.3,2.64-14.5c-1.69-2.88-4.62-4.75-7.46-4.75
		c-0.34,0-0.68,0.03-1,0.08c-3.47,0.45-6.32,2.56-7.63,5.65c-0.46,0.88-1.26,1.5-2.17,1.68c-0.19,0.04-0.39,0.06-0.6,0.06
		c-0.74,0-1.47-0.26-2.06-0.73C1303.24,47.84,1300.8,46.92,1298.29,46.92z"/>
	<path class="st3" d="M1341.28,14.91l-84.19,17.13c-5.79,1.18-9.53,6.74-8.32,12.36l20.41,94.47c1.21,5.62,6.94,9.25,12.73,8.07
		l84.19-17.13c1.45-0.29,2.38-1.68,2.08-3.09l-23.72-109.8C1344.16,15.53,1342.73,14.62,1341.28,14.91L1341.28,14.91z
		 M1254.03,43.33c-0.61-2.81,1.26-5.59,4.16-6.18l2.63-0.54l19.31,89.37l-2.63,0.54c-1.97,0.4-3.57,1.26-4.96,2.48L1254.03,43.33z
		 M1362.37,125.24l-81.56,16.6c-2.89,0.59-5.76-1.23-6.37-4.04c-0.61-2.81,1.26-5.59,4.16-6.18l81.56-16.6L1362.37,125.24z
		 M1359.06,109.92l-73.67,14.99l-19.31-89.37l73.67-14.99L1359.06,109.92z M1290.12,95.96c-0.3-1.4,0.63-2.79,2.08-3.09l47.36-9.64
		c1.45-0.29,2.88,0.61,3.18,2.02c0.3,1.41-0.63,2.79-2.08,3.09l-47.36,9.64C1291.86,98.27,1290.42,97.37,1290.12,95.96
		L1290.12,95.96z M1337.61,99.63c0.3,1.4-0.63,2.79-2.08,3.09l-31.57,6.42c-1.45,0.29-2.88-0.61-3.18-2.02
		c-0.3-1.41,0.63-2.79,2.08-3.09l31.57-6.42C1335.87,97.32,1337.31,98.22,1337.61,99.63L1337.61,99.63z M1295.67,72.04l16.87,8.16
		c0.61,0.28,1.16,0.3,1.69,0.19s1.16-0.37,1.47-0.83l12.07-14.05c5.68-6.75,6.74-14.57,3.07-20.75c-3.06-5.24-8.91-8.18-14.36-7.34
		c-4.13,0.57-7.91,2.81-10.33,6.23c-3.31-1.99-7.3-2.65-11.12-1.87c-0.26,0.05-0.66,0.13-0.92,0.19
		c-5.34,1.35-9.45,6.46-10.11,12.32C1283.33,61.36,1287.51,67.97,1295.67,72.04L1295.67,72.04z M1289.46,54.78
		c0.41-3.81,3.02-7.01,6.12-7.91l0.66-0.13c3.16-0.64,6.65,0.25,9.04,2.43c0.67,0.53,1.54,0.75,2.33,0.59
		c0.79-0.16,1.5-0.7,1.88-1.45c1.37-3.21,4.32-5.41,7.93-5.88c3.32-0.54,6.92,1.52,8.88,4.86c2.6,4.4,1.57,9.81-2.68,14.94
		l-10.64,12.43l-15.02-7.21C1291.96,64.4,1288.88,59.7,1289.46,54.78L1289.46,54.78z M1289.46,54.78"/>
</g>
<path class="st145" d="M1056.81,116.12c-0.51,0-1.01-0.07-1.51-0.2l-64.89-16.87c-3.1-0.82-4.95-3.93-4.12-6.94l13.6-49.28
	l-11.13-10.8c-2.33-2.24-3.25-5.55-2.41-8.63c0.85-3.08,3.34-5.5,6.52-6.32c0.77-0.2,1.57-0.3,2.36-0.3c2.44,0,4.82,0.96,6.53,2.64
	l5.93,5.74c0.52-0.15,1.06-0.22,1.6-0.22c0.51,0,1.02,0.07,1.52,0.2l24.94,6.49l29.79-7.75c0.49-0.12,0.99-0.19,1.49-0.19
	c2.63,0,4.96,1.72,5.66,4.19l4.01,14.52c2.52,1.16,3.86,3.91,3.14,6.56l-0.67,2.41l9.06,32.78c0.82,3.01-1.02,6.12-4.11,6.93
	l-17.15,4.45l-4.52,16.4c-0.69,2.46-3.01,4.18-5.64,4.19H1056.81z M991.09,93.36c-0.06,0.22-0.03,0.45,0.09,0.65
	c0.12,0.2,0.31,0.34,0.54,0.4l64.88,16.87c0.08,0.02,0.15,0.03,0.23,0.03c0.15,0,0.31-0.04,0.44-0.11c0.2-0.11,0.35-0.3,0.41-0.52
	l17.38-62.97c0.06-0.22,0.03-0.45-0.09-0.65c-0.12-0.2-0.31-0.34-0.54-0.4l-60.9-15.83l23.85,23.16c0.22,0.22,0.39,0.47,0.51,0.73
	l0.12,0.13l0.01,0.18l3.66,10.64c0.05,0.15,0.09,0.3,0.12,0.45l18.13,4.72c1.2,0.31,1.98,1.44,1.81,2.63
	c-0.16,1.19-1.22,2.09-2.46,2.09c-0.22,0-0.44-0.03-0.65-0.08l-18.99-4.95c-0.58,0.3-1.23,0.45-1.89,0.45c-0.46,0-0.9-0.07-1.32-0.2
	l-11.22-3.64l-0.03-0.03c-0.29-0.12-0.56-0.29-0.78-0.5l-20.46-19.85L991.09,93.36z M1068.47,90.16l14.38-3.73
	c0.46-0.12,0.74-0.59,0.61-1.04l-6.84-24.74L1068.47,90.16z M1036.48,65.71l-1.92-5.58l-3.83,3.72L1036.48,65.71z M1026.16,61.51
	l1.25-1.21l-13.69-13.28c-0.47-0.45-0.73-1.06-0.73-1.7c0-0.64,0.26-1.25,0.73-1.7c0.47-0.45,1.09-0.7,1.75-0.7
	c0.66,0,1.28,0.25,1.75,0.7l13.69,13.28l1.25-1.21l-22.62-21.96l-1.25,1.21l4.19,4.06c0.62,0.6,0.87,1.49,0.64,2.32
	c-0.23,0.83-0.9,1.48-1.75,1.7c-0.21,0.05-0.43,0.08-0.64,0.08c-0.66,0-1.28-0.25-1.75-0.7l-4.19-4.06l-1.25,1.21L1026.16,61.51z
	 M1071.15,40.82l-3.23-11.69c-0.06-0.22-0.21-0.41-0.41-0.53c-0.14-0.08-0.29-0.11-0.44-0.11c-0.08,0-0.16,0.01-0.23,0.03
	l-21.5,5.59L1071.15,40.82z M1000.03,36.15l6-5.82l-1.25-1.21l-6,5.82L1000.03,36.15z M995.28,21.6c-0.56,0-1.1,0.11-1.62,0.31
	c-1.59,0.64-2.62,2.13-2.62,3.8c0,1.08,0.45,2.14,1.24,2.91l3,2.91l6-5.82l-3-2.91C997.48,22.03,996.41,21.6,995.28,21.6z"/>
<path class="st145" d="M1064.51,56.65c-0.22,0-0.43-0.03-0.64-0.08l-23.89-6.21c-0.86-0.2-1.55-0.85-1.79-1.69
	c-0.24-0.84,0.01-1.74,0.65-2.36c0.47-0.44,1.08-0.69,1.74-0.69c0.24,0,0.48,0.03,0.71,0.1l23.86,6.2c1.2,0.31,1.98,1.44,1.82,2.63
	C1066.8,55.75,1065.75,56.65,1064.51,56.65L1064.51,56.65z"/>
<path class="st145" d="M1061.9,66.1c-0.21,0-0.43-0.03-0.64-0.08l-16.24-4.22c-0.85-0.21-1.54-0.86-1.78-1.69
	c-0.24-0.84,0.01-1.74,0.65-2.35c0.47-0.45,1.09-0.7,1.74-0.7c0.23,0,0.46,0.03,0.68,0.09l16.23,4.21c1.2,0.31,1.98,1.44,1.82,2.64
	C1064.19,65.2,1063.14,66.1,1061.9,66.1L1061.9,66.1z"/>
<path class="st145" d="M1009.65,72.76c-0.22,0-0.43-0.03-0.64-0.08l-4.87-1.27c-0.85-0.2-1.54-0.85-1.78-1.69
	c-0.24-0.84,0.01-1.74,0.65-2.35c0.46-0.44,1.08-0.69,1.74-0.69c0.24,0,0.47,0.03,0.7,0.1l4.85,1.26c1.2,0.31,1.98,1.44,1.82,2.64
	C1011.94,71.86,1010.88,72.76,1009.65,72.76L1009.65,72.76z"/>
<path class="st145" d="M1056.68,84.98c-0.22,0-0.44-0.03-0.65-0.09l-37.3-9.7c-1.28-0.43-1.98-1.7-1.64-2.91
	c0.29-1.05,1.27-1.78,2.39-1.78c0.16,0,0.32,0.01,0.48,0.04l37.36,9.71c1.32,0.34,2.1,1.66,1.75,2.94
	C1058.79,84.25,1057.8,84.98,1056.68,84.98C1056.69,84.98,1056.68,84.98,1056.68,84.98z"/>
<path class="st145" d="M1007.03,82.2c-0.21,0-0.43-0.03-0.64-0.08l-4.86-1.26c-1.32-0.35-2.1-1.67-1.75-2.94
	c0.29-1.05,1.27-1.78,2.39-1.78c0.21,0,0.42,0.03,0.63,0.08l4.87,1.27c1.2,0.31,1.98,1.44,1.82,2.64
	C1009.33,81.3,1008.28,82.2,1007.03,82.2v-0.77V82.2z"/>
<path class="st145" d="M1054.08,94.44c-0.22,0-0.44-0.03-0.65-0.09l-37.3-9.7c-0.86-0.2-1.55-0.85-1.79-1.69
	c-0.24-0.84,0.01-1.75,0.65-2.36c0.47-0.44,1.08-0.69,1.74-0.69c0.24,0,0.48,0.03,0.7,0.1l37.29,9.7c1.2,0.31,1.98,1.44,1.82,2.63
	C1056.37,93.54,1055.32,94.44,1054.08,94.44L1054.08,94.44z"/>
<path class="st145" d="M65.45,93.63c-11.1,0-21.54-4.19-29.38-11.81C28.22,74.2,23.9,64.08,23.9,53.3s4.32-20.9,12.17-28.52
	c7.85-7.62,18.29-11.81,29.38-11.81c11.1,0,21.54,4.2,29.38,11.81c7.85,7.62,12.17,17.74,12.17,28.52s-4.32,20.9-12.17,28.52
	C86.99,89.44,76.55,93.63,65.45,93.63z M65.45,18.34c-19.86,0-36.03,15.68-36.03,34.96s16.16,34.96,36.03,34.96
	s36.03-15.68,36.03-34.96S85.32,18.34,65.45,18.34z"/>
<path class="st145" d="M65.45,73.41c-1.53,0-2.77-1.2-2.77-2.68V57.85c0-1.48,1.24-2.68,2.77-2.68c1.53,0,2.77,1.2,2.77,2.68v12.88
	C68.22,72.21,66.98,73.41,65.45,73.41z"/>
<path class="st145" d="M47.5,55.99c-1.53,0-2.77-1.2-2.77-2.68c0-1.48,1.24-2.68,2.77-2.68h15.19V35.88c0-1.48,1.24-2.68,2.77-2.68
	c1.53,0,2.77,1.2,2.77,2.68v14.74H83.4c1.53,0,2.77,1.2,2.77,2.68c0,1.48-1.24,2.68-2.77,2.68H47.5z"/>
<path class="st145" d="M651.75,85.44c-4.07,0-6.92-3.21-6.92-7.81v-32.1c0-4.6,2.84-7.81,6.92-7.81c1.52,0,3.08,0.45,4.65,1.32
	l28.65,16.05c2.85,1.6,4.42,3.9,4.42,6.48s-1.57,4.88-4.42,6.48L656.4,84.12C654.83,84.99,653.27,85.44,651.75,85.44z M651.75,43.43
	c-0.91,0-1.04,1.32-1.04,2.11v32.1c0,0.79,0.14,2.11,1.04,2.11c0.46,0,1.07-0.2,1.71-0.56l28.65-16.05
	c1.03-0.58,1.48-1.19,1.48-1.54c0-0.35-0.46-0.97-1.48-1.54l-28.65-16.05C652.82,43.63,652.21,43.43,651.75,43.43z"/>
<g class="st144">
	<path class="st3" d="M794.7,71.69c-0.72,0-1.4-0.27-1.91-0.77c-1.06-1.02-1.06-2.69-0.01-3.72c2.14-2.08,3.32-4.84,3.32-7.78
		c0-2.94-1.18-5.7-3.32-7.78c-0.51-0.5-0.79-1.16-0.79-1.86s0.28-1.36,0.8-1.86c0.51-0.5,1.19-0.77,1.91-0.77
		c0.72,0,1.41,0.27,1.92,0.77c3.16,3.07,4.9,7.16,4.9,11.5c0,4.34-1.74,8.42-4.9,11.49C796.1,71.41,795.42,71.69,794.7,71.69z"/>
	<path class="st3" d="M794.7,71.3c-0.59,0-1.18-0.22-1.63-0.65c-0.9-0.88-0.91-2.29-0.01-3.17c2.22-2.15,3.44-5.01,3.44-8.05
		c0-3.04-1.22-5.9-3.43-8.06c-0.9-0.88-0.9-2.3,0-3.17c0.9-0.88,2.37-0.87,3.27,0c3.08,3,4.78,6.99,4.78,11.22
		c0,4.23-1.7,8.22-4.78,11.22C795.88,71.08,795.29,71.3,794.7,71.3z"/>
	<path class="st3" d="M801.13,79.67c-0.72,0-1.4-0.27-1.91-0.77c-1.06-1.03-1.06-2.69-0.01-3.72c4.29-4.18,6.66-9.73,6.66-15.62
		c0-5.9-2.36-11.44-6.66-15.62c-0.51-0.5-0.79-1.16-0.79-1.86c0-0.7,0.28-1.36,0.8-1.86c0.51-0.5,1.19-0.77,1.92-0.77
		c0.72,0,1.4,0.27,1.92,0.77c5.31,5.17,8.24,12.04,8.24,19.34c0,7.29-2.93,14.16-8.24,19.33C802.53,79.4,801.85,79.67,801.13,79.67z
		"/>
	<path class="st3" d="M801.13,79.28c-0.59,0-1.18-0.22-1.63-0.65c-0.9-0.88-0.91-2.29-0.01-3.17c4.37-4.25,6.78-9.9,6.78-15.89
		c0-6-2.41-11.64-6.78-15.9c-0.9-0.88-0.9-2.3,0-3.17c0.9-0.87,2.37-0.87,3.27,0c5.24,5.1,8.12,11.87,8.12,19.06
		c0,7.19-2.88,13.96-8.12,19.06C802.31,79.06,801.72,79.28,801.13,79.28z"/>
	<path class="st3" d="M771.18,59.22c-1.08,0-2.06-0.62-2.49-1.58c-0.59-1.33,0.04-2.88,1.4-3.46l13.79-5.82l-0.54-3.12
		c-0.22-1.29,0.58-2.55,1.86-2.95c3.01-0.93,7.36-3.3,7.36-5.15c0-1.01-0.69-1.64-3.41-3.62c-3.54-2.57-8.88-6.45-13.69-15.43
		c-0.33-0.62-0.4-1.33-0.18-2c0.22-0.67,0.69-1.22,1.33-1.54c0.39-0.19,0.82-0.3,1.25-0.3c1.02,0,1.94,0.54,2.4,1.42
		c4.24,7.91,8.8,11.22,12.13,13.64c3,2.18,5.59,4.06,5.59,7.84c0,4.88-5.46,7.92-8.92,9.36l0.53,3.01c0.21,1.19-0.45,2.36-1.59,2.85
		L772.26,59C771.91,59.15,771.55,59.22,771.18,59.22z"/>
	<path class="st3" d="M771.18,58.83c-0.89,0-1.74-0.5-2.12-1.35c-0.51-1.14,0.03-2.46,1.2-2.95l14.07-5.94l-0.6-3.42
		c-0.19-1.1,0.48-2.18,1.58-2.51c3.08-0.95,7.64-3.36,7.64-5.52c0-1.24-0.87-1.97-3.57-3.93c-3.51-2.55-8.81-6.4-13.58-15.29
		c-0.59-1.1-0.15-2.45,0.98-3.02c1.13-0.57,2.53-0.14,3.11,0.95c4.28,7.99,8.89,11.33,12.25,13.77c2.91,2.11,5.43,3.94,5.43,7.52
		c0,4.85-5.8,7.85-8.97,9.12l0.58,3.32c0.18,1.02-0.38,2.02-1.36,2.43l-15.73,6.64C771.8,58.77,771.49,58.83,771.18,58.83z"/>
	<path class="st3" d="M774.8,85.1c-16.12,0-30.26-15.72-30.26-33.64c0-19.1,10.94-33.84,27.23-36.69c0.16-0.03,0.33-0.04,0.49-0.04
		c1.31,0,2.43,0.91,2.66,2.17c0.13,0.69-0.03,1.39-0.44,1.96c-0.41,0.58-1.03,0.96-1.75,1.09c-13.83,2.42-22.77,14.79-22.77,31.51
		c0,14.85,11.84,28.38,24.84,28.38c2.11,0,4.88-0.32,6.07-1.83c1.19-1.52,0.76-4.23,0.19-6.23c-0.19-0.68-0.09-1.41,0.27-2.02
		l1.71-2.87l-9.04-3.78c-0.66-0.28-1.18-0.79-1.45-1.44c-0.27-0.65-0.26-1.37,0.03-2.01c0.43-0.97,1.4-1.59,2.49-1.59
		c0.37,0,0.73,0.07,1.07,0.21l11.85,4.95c0.71,0.29,1.26,0.87,1.5,1.59c0.24,0.71,0.16,1.49-0.23,2.14l-2.69,4.51
		c0.95,4.07,0.49,7.34-1.38,9.72C783.15,83.78,779.66,85.1,774.8,85.1z"/>
	<path class="st3" d="M774.8,84.71c-15.91,0-29.86-15.54-29.86-33.25c0-18.9,10.81-33.5,26.9-36.31c1.25-0.23,2.46,0.59,2.68,1.81
		c0.23,1.22-0.61,2.38-1.86,2.6c-14.03,2.45-23.1,14.97-23.1,31.9c0,15.06,12.03,28.77,25.24,28.77c2.21,0,5.1-0.34,6.39-1.98
		c1.29-1.65,0.85-4.48,0.25-6.57c-0.17-0.58-0.08-1.2,0.23-1.72l1.94-3.25l-9.46-3.95c-1.17-0.49-1.71-1.81-1.21-2.95
		c0.5-1.14,1.86-1.66,3.03-1.17l11.85,4.95c0.61,0.25,1.07,0.75,1.28,1.35c0.21,0.61,0.14,1.28-0.2,1.83l-2.77,4.64
		c0.97,4.02,0.54,7.23-1.28,9.55C782.91,83.45,779.52,84.71,774.8,84.71z"/>
</g>
<g class="st144">
	<path class="st3" d="M881.82,31.56c-0.49-1.14-1.64-1.89-2.92-1.89c-1.28,0-2.43,0.74-2.92,1.89l-8.13,18.89
		c-0.67,1.56,0.09,3.36,1.7,4.02c1.61,0.65,3.46-0.09,4.14-1.65l0.46-1.07h9.5l0.46,1.07c0.51,1.18,1.68,1.89,2.92,1.89
		c0.41,0,0.82-0.08,1.21-0.24c1.61-0.65,2.37-2.45,1.7-4.02L881.82,31.56z M876.79,45.61l2.11-4.9l2.11,4.9H876.79z"/>
	<path class="st3" d="M847.66,29.67c-1.75,0-3.16,1.37-3.16,3.07v18.89c0,1.69,1.42,3.07,3.16,3.07s3.16-1.37,3.16-3.07v-6.38h8.04
		v6.38c0,1.69,1.42,3.07,3.16,3.07c1.75,0,3.16-1.37,3.16-3.07V32.74c0-1.69-1.42-3.07-3.16-3.07c-1.75,0-3.16,1.37-3.16,3.07v6.38
		h-8.04v-6.38C850.82,31.05,849.4,29.67,847.66,29.67z"/>
	<path class="st3" d="M888.09,61.62l-6.84,15.91c0,0.01-0.01,0.02-0.01,0.03l-1.27,2.95c-0.67,1.56,0.09,3.36,1.7,4.01
		c0.4,0.16,0.81,0.24,1.22,0.24c1.24,0,2.41-0.71,2.92-1.89l0.46-1.07h9.5l0.46,1.07c0.67,1.56,2.52,2.31,4.14,1.65
		c1.61-0.65,2.37-2.45,1.7-4.02l-8.13-18.89c-0.49-1.14-1.64-1.89-2.92-1.89C889.73,59.73,888.58,60.47,888.09,61.62z M888.9,75.67
		l2.11-4.9l2.11,4.9H888.9z"/>
	<path class="st3" d="M911.98,62.8c0-1.69-1.42-3.07-3.16-3.07c-1.75,0-3.16,1.37-3.16,3.07v11.21c0,1.7,1.42,3.07,3.16,3.07
		c1.75,0,3.16-1.38,3.16-3.07V62.8z"/>
	<path class="st3" d="M862.93,62.8c0-1.69-1.42-3.07-3.16-3.07s-3.16,1.37-3.16,3.07V81.7c0,1.7,1.42,3.07,3.16,3.07
		c1.75,0,3.16-1.37,3.16-3.07v-6.38h8.04v6.38c0,1.7,1.42,3.07,3.16,3.07c1.75,0,3.16-1.37,3.16-3.07V62.8
		c0-1.69-1.42-3.07-3.16-3.07s-3.16,1.37-3.16,3.07v6.38h-8.04V62.8z"/>
	<path class="st3" d="M902.71,39.12h-6.57c-1.75,0-3.16,1.37-3.16,3.07c0,1.69,1.42,3.07,3.16,3.07h6.57c1.75,0,3.16-1.38,3.16-3.07
		C905.87,40.5,904.45,39.12,902.71,39.12z"/>
	<path class="st3" d="M906.58,79.52c-0.6,0.58-0.93,1.37-0.93,2.18c0,0.81,0.32,1.6,0.93,2.16c0.6,0.58,1.39,0.9,2.23,0.9
		c0.86,0,1.64-0.32,2.24-0.9c0.6-0.57,0.92-1.35,0.92-2.16c0-0.81-0.34-1.6-0.92-2.18C909.87,78.39,907.74,78.39,906.58,79.52z"/>
	<path class="st3" d="M912.99,14.68h-69.5c-8.09,0-14.67,6.38-14.67,14.23v56.61c0,7.85,6.58,14.23,14.67,14.23h6.26
		c1.75,0,3.16-1.38,3.16-3.07c0-1.7-1.42-3.07-3.16-3.07h-6.26c-4.6,0-8.35-3.63-8.35-8.09V28.92c0-4.46,3.74-8.1,8.35-8.1h69.5
		c4.6,0,8.35,3.63,8.35,8.1v56.61c0,4.46-3.74,8.09-8.35,8.09H876c-0.59,0-1.17,0.16-1.68,0.47L861.27,102v-5.31
		c0-1.7-1.42-3.07-3.16-3.07c-1.75,0-3.16,1.37-3.16,3.07v10.85c0,1.12,0.62,2.14,1.63,2.69c0.48,0.26,1.01,0.38,1.53,0.38
		c0.58,0,1.17-0.15,1.68-0.47l17.13-10.38h36.08c8.09,0,14.67-6.38,14.67-14.23V28.92C927.66,21.07,921.08,14.68,912.99,14.68z"/>
</g>
<g class="st144">
	<path class="st3" d="M667.2,216.9h137.73c1.55,0,2.8-1.22,2.8-2.72s-1.25-2.72-2.8-2.72h-8.4v-21.73c3.2,0,6.08-1.73,7.51-4.5
		c2.07-4.02,0.38-8.93-3.76-10.94c-0.02-0.01-0.03-0.01-0.05-0.02l-33.38-15.42v-11.11l3.52,2.44c3.81,2.65,9.06,1.72,11.72-1.9
		c2.7-3.66,1.83-8.75-1.95-11.37l-39.19-27.17c-0.65-0.45-1.35-0.79-2.08-1.04V97.36h2.8c1.55,0,2.8-1.22,2.8-2.72
		c0-1.5-1.25-2.72-2.8-2.72h-2.8v-2.72c0-1.5-1.25-2.72-2.8-2.72s-2.8,1.22-2.8,2.72v2.72h-2.8c-1.55,0-2.8,1.22-2.8,2.72
		c0,1.5,1.25,2.72,2.8,2.72h2.8v11.34c-0.73,0.25-1.43,0.6-2.08,1.05l-27.99,19.4c-1.26,0.87-1.55,2.57-0.65,3.79
		c0.9,1.22,2.65,1.5,3.9,0.63l27.99-19.4c0.48-0.33,1.04-0.51,1.63-0.51s1.15,0.18,1.63,0.5l39.19,27.17
		c1.26,0.88,1.55,2.57,0.66,3.79c-0.89,1.21-2.64,1.51-3.91,0.63l-35.94-24.91c-0.97-0.67-2.28-0.67-3.25,0l-35.94,24.91
		c-1.26,0.87-3.01,0.59-3.91-0.63c-0.9-1.22-0.61-2.92,0.65-3.79l11.2-7.76c1.26-0.87,1.55-2.57,0.65-3.79
		c-0.9-1.22-2.65-1.5-3.9-0.63l-11.2,7.76c-3.78,2.62-4.65,7.71-1.96,11.37c2.69,3.65,7.94,4.51,11.71,1.9l3.52-2.44v11.11
		c0,0-33.41,15.43-33.43,15.44c-4.14,2.01-5.82,6.91-3.75,10.94c1.43,2.78,4.31,4.5,7.51,4.5v21.73h-8.4c-1.55,0-2.8,1.22-2.8,2.72
		S665.65,216.9,667.2,216.9L667.2,216.9z M744.46,211.46h-16.8v-19.02c0-4.49,3.77-8.15,8.4-8.15s8.4,3.66,8.4,8.15V211.46z
		 M779.73,211.46v-8.15c0-1.5-1.25-2.72-2.8-2.72c-1.55,0-2.8,1.22-2.8,2.72v8.15h-7.28V177l24.07,11.03v23.44H779.73z
		 M797.8,179.16c1.36,0.68,1.92,2.3,1.23,3.64c-0.64,1.24-2.19,1.93-3.82,1.19l-28.36-12.99v-6.13L797.8,179.16z M736.06,126.4
		l25.19,17.47v67.6h-11.2v-19.02c0-7.49-6.28-13.58-14-13.58c-7.72,0-14,6.09-14,13.58v19.02h-11.2v-67.6L736.06,126.4z
		 M673.09,182.8c-0.69-1.33-0.13-2.96,1.23-3.64l30.95-14.29v6.13l-28.35,12.99C675.2,184.74,673.71,183.98,673.09,182.8
		L673.09,182.8z M681.2,188.03L705.27,177v34.46h-7.28v-8.15c0-1.5-1.25-2.72-2.8-2.72s-2.8,1.22-2.8,2.72v8.15h-11.2V188.03z
		 M681.2,188.03"/>
	<path class="st3" d="M734.32,172.83c0.51,0.4,1.13,0.6,1.75,0.6c0.62,0,1.24-0.2,1.75-0.6c8.46-6.57,15.05-10.45,15.05-17.05
		c0-5.34-4.3-9.52-9.8-9.52c-3.1,0-5.4,1.31-7,2.94c-1.6-1.63-3.9-2.94-7-2.94c-5.49,0-9.8,4.18-9.8,9.52
		C719.27,162.38,725.83,166.25,734.32,172.83L734.32,172.83z M729.07,151.7c3.08,0,4.21,3.16,4.32,3.5
		c0.36,1.15,1.45,1.94,2.68,1.94c1.24,0,2.33-0.79,2.68-1.94c0.01-0.03,1.12-3.5,4.32-3.5c2.76,0,4.2,2.06,4.2,4.09
		c0,3.34-4.62,6.45-11.2,11.46c-6.93-5.28-11.2-8.2-11.2-11.46C724.87,153.75,726.31,151.7,729.07,151.7L729.07,151.7z
		 M729.07,151.7"/>
</g>
<g class="st144">
	<path class="st3" d="M389.34,99.24c-0.8,0-1.58-0.23-2.26-0.66c-7.39-4.73-17.49-12.67-19.86-27.02
		c-0.9-5.55,0.02-14.27,5.56-20.56c3.82-4.34,9.15-6.63,15.42-6.63c9.09,0,16.43,5.09,19.65,13.61c4.01,10.62,0.72,23.43-7.83,30.45
		c-0.74,0.61-1.68,0.95-2.65,0.95c-1.21,0-2.36-0.52-3.14-1.41c-0.71-0.81-1.05-1.84-0.96-2.91c0.09-1.06,0.6-2.03,1.44-2.71
		c5.91-4.86,8.25-14.16,5.42-21.62c-1.18-3.13-4.3-8.38-11.93-8.38c-3.89,0-6.89,1.26-9.17,3.84c-3.47,3.93-4.34,10.08-3.69,14.13
		c1.85,11.23,10.17,17.71,16.26,21.61c0.92,0.59,1.54,1.48,1.77,2.53c0.22,1.04,0.01,2.11-0.59,3
		C392.01,98.57,390.73,99.24,389.34,99.24z"/>
	<path class="st3" d="M353.1,142.93c-2.27,0-4.11-1.79-4.11-3.99c0-9.55,0.25-22.98,2.43-29.33c3.37-9.78,18.85-15.89,20.6-16.56
		c0.48-0.18,0.98-0.27,1.48-0.27c1.7,0,3.19,0.98,3.82,2.51c2.22,5.37,6.67,8.71,11.62,8.71c4.93,0,9.22-3.25,11.46-8.71
		c0.41-0.98,1.22-1.79,2.23-2.2c0.5-0.2,1.04-0.31,1.58-0.31c0.55,0,1.09,0.11,1.6,0.31c1.62,0.66,15.91,6.77,19.26,16.51
		c2.03,5.9,1.95,10.07,1.87,14.49c-0.02,0.9-0.03,1.84-0.03,2.83c0,2.2-1.84,3.99-4.11,3.99c-2.27,0-4.11-1.79-4.11-3.99
		c0-1.04,0.02-2.02,0.03-2.97c0.07-4.21,0.13-7.24-1.45-11.84c-1.45-4.21-7.45-7.98-10.89-9.85l-0.33-0.18l-0.2,0.31
		c-3.97,6.08-10.13,9.56-16.92,9.56c-6.93,0-13.18-3.54-17.16-9.71l-0.19-0.3l-0.32,0.16c-2.43,1.19-10.47,5.43-12.05,10.01
		c-0.81,2.37-1.81,8.18-1.98,22.43l0,0.39h66.01c2.27,0,4.11,1.79,4.11,3.99c0,2.2-1.84,3.99-4.1,3.99H353.1z"/>
	<path class="st3" d="M431.09,105.98c-2.27,0-4.11-1.79-4.11-3.99c0-2.2,1.84-3.99,4.11-3.99c6.47,0,11.74-6.52,11.74-14.54
		c0-8.01-5.27-14.53-11.74-14.53c-3.33,0-6.64,1.86-8.62,4.86c-1.44,2.18-3.39,6.82-0.28,13.36c0.46,0.97,0.51,2.05,0.13,3.05
		c-0.38,1-1.14,1.8-2.13,2.24c-0.54,0.24-1.12,0.37-1.72,0.37c-1.6,0-3.06-0.91-3.73-2.32c-3.47-7.29-3.17-14.94,0.82-20.99
		c3.53-5.35,9.33-8.54,15.54-8.54c11.01,0,19.96,10.1,19.96,22.51C451.05,95.88,442.09,105.98,431.09,105.98z"/>
	<path class="st3" d="M436.78,138.77c-2.27,0-4.11-1.79-4.11-3.99c0-2.2,1.84-3.99,4.11-3.99h13.46l-0.03-0.42
		c-0.21-2.69-0.6-6.59-1.23-9.85c-0.97-5.07-3.79-7.94-5.99-9.46c-0.89-0.62-1.49-1.54-1.67-2.59c-0.18-1.05,0.07-2.11,0.7-2.97
		c0.77-1.05,2.02-1.68,3.35-1.68c0.86,0,1.68,0.26,2.38,0.74c2.81,1.94,7.75,6.4,9.3,14.49c1.27,6.51,1.62,14.67,1.65,15.58
		c0.04,1.07-0.38,2.14-1.15,2.92c-0.77,0.78-1.85,1.22-2.96,1.22H436.78z"/>
	<path class="st3" d="M346.22,105.98c-11,0-19.96-10.1-19.96-22.52c0-12.41,8.95-22.51,19.96-22.51c6.2,0,12.02,3.19,15.54,8.54
		c3.99,6.05,4.29,13.7,0.83,21c-0.67,1.41-2.14,2.32-3.74,2.32c-0.59,0-1.17-0.12-1.72-0.37c-1-0.45-1.76-1.24-2.14-2.24
		c-0.38-1-0.34-2.08,0.12-3.05c3.1-6.53,1.15-11.17-0.29-13.36c-1.98-3-5.28-4.86-8.62-4.86c-6.47,0-11.74,6.52-11.74,14.53
		c0,8.02,5.27,14.54,11.74,14.54c2.27,0,4.11,1.79,4.11,3.99C350.33,104.19,348.49,105.98,346.22,105.98z"/>
	<path class="st3" d="M322.71,138.77c-1.11,0-2.19-0.45-2.96-1.22c-0.77-0.77-1.19-1.84-1.15-2.92c0.04-0.93,0.4-9.14,1.66-15.58
		c1.41-7.42,5.59-11.79,8.85-14.15c0.71-0.52,1.56-0.79,2.46-0.79c1.31,0,2.51,0.58,3.3,1.6c1.36,1.76,0.98,4.27-0.83,5.58
		c-2.08,1.51-4.76,4.34-5.69,9.23c-0.64,3.28-1.03,7.17-1.24,9.87l-0.03,0.42h13.46c2.27,0,4.11,1.79,4.11,3.99
		c0,2.2-1.84,3.99-4.11,3.99H322.71z"/>
	<path class="st3" d="M388.23,30.71c-2.27,0-4.11-1.79-4.11-3.99V10.96c0-2.2,1.84-3.99,4.11-3.99s4.11,1.79,4.11,3.99v15.77
		C392.34,28.92,390.5,30.71,388.23,30.71z"/>
	<path class="st3" d="M380.09,22.83c-2.27,0-4.11-1.79-4.11-3.99s1.84-3.99,4.11-3.99h16.26c2.27,0,4.11,1.79,4.11,3.99
		s-1.84,3.99-4.11,3.99H380.09z"/>
	<path class="st3" d="M355.29,50.2c-2.27,0-4.11-1.79-4.11-3.99V30.44c0-2.2,1.84-3.99,4.11-3.99c2.27,0,4.11,1.79,4.11,3.99v15.77
		C359.4,48.41,357.56,50.2,355.29,50.2z"/>
	<path class="st3" d="M347.15,42.32c-2.27,0-4.11-1.79-4.11-3.99c0-2.2,1.84-3.99,4.11-3.99h16.26c2.27,0,4.11,1.79,4.11,3.99
		c0,2.2-1.84,3.99-4.11,3.99H347.15z"/>
	<path class="st3" d="M421.17,50.2c-2.27,0-4.11-1.79-4.11-3.99V30.44c0-2.2,1.84-3.99,4.11-3.99c2.27,0,4.11,1.79,4.11,3.99v15.77
		C425.28,48.41,423.44,50.2,421.17,50.2z"/>
	<path class="st3" d="M413.05,42.32c-2.27,0-4.11-1.79-4.11-3.99c0-2.2,1.84-3.99,4.11-3.99h16.26c2.27,0,4.11,1.79,4.11,3.99
		c0,2.2-1.84,3.99-4.11,3.99H413.05z"/>
</g>
<path class="st145" d="M672.8,120.17c1.32,0,2.4-1.04,2.4-2.32v-6.97c0-1.28-1.07-2.33-2.4-2.33c-1.32,0-2.39,1.04-2.39,2.33v6.97
	C670.4,119.13,671.48,120.17,672.8,120.17L672.8,120.17z M672.8,120.17"/>
<path class="st145" d="M672.8,124.82c-1.32,0-2.39,1.04-2.39,2.32v6.97c0,1.28,1.07,2.32,2.39,2.32c1.32,0,2.4-1.04,2.4-2.32v-6.97
	C675.19,125.86,674.12,124.82,672.8,124.82L672.8,124.82z M672.8,124.82"/>
<path class="st145" d="M668.01,120.17h-7.18c-1.32,0-2.4,1.04-2.4,2.32c0,1.28,1.07,2.32,2.4,2.32h7.18c1.32,0,2.4-1.04,2.4-2.32
	C670.4,121.21,669.33,120.17,668.01,120.17L668.01,120.17z M668.01,120.17"/>
<path class="st145" d="M684.77,124.82c1.32,0,2.4-1.04,2.4-2.32c0-1.28-1.07-2.32-2.4-2.32h-7.18c-1.32,0-2.4,1.04-2.4,2.32
	c0,1.28,1.07,2.32,2.4,2.32H684.77z M684.77,124.82"/>
<path class="st145" d="M807.73,146.45c1.32,0,2.4-1.04,2.4-2.32v-6.97c0-1.28-1.07-2.33-2.4-2.33c-1.32,0-2.39,1.04-2.39,2.33v6.97
	C805.33,145.41,806.4,146.45,807.73,146.45L807.73,146.45z M807.73,146.45"/>
<path class="st145" d="M807.73,151.1c-1.32,0-2.39,1.04-2.39,2.32v6.97c0,1.28,1.07,2.32,2.39,2.32c1.32,0,2.4-1.04,2.4-2.32v-6.97
	C810.12,152.14,809.05,151.1,807.73,151.1L807.73,151.1z M807.73,151.1"/>
<path class="st145" d="M802.94,146.45h-7.18c-1.32,0-2.4,1.04-2.4,2.32c0,1.28,1.07,2.32,2.4,2.32h7.18c1.32,0,2.4-1.04,2.4-2.32
	C805.33,147.49,804.26,146.45,802.94,146.45L802.94,146.45z M802.94,146.45"/>
<path class="st145" d="M819.7,151.1c1.32,0,2.4-1.04,2.4-2.32c0-1.28-1.07-2.32-2.4-2.32h-7.18c-1.32,0-2.4,1.04-2.4,2.32
	c0,1.28,1.07,2.32,2.4,2.32H819.7z M819.7,151.1"/>
<g class="st144">
	<path class="st3" d="M867.6,171.39L867.6,171.39c-0.81,0-1.59-0.31-2.16-0.87l-19.87-19.28c-2.35-2.28-3.64-5.31-3.64-8.53
		c0-3.22,1.29-6.25,3.64-8.53c4.85-4.7,12.73-4.7,17.57,0l4.45,4.32l4.47-4.34c2.35-2.28,5.47-3.53,8.79-3.53
		c3.32,0,6.44,1.25,8.79,3.53c2.35,2.28,3.64,5.31,3.64,8.53s-1.29,6.25-3.64,8.53l-19.89,19.3
		C869.18,171.08,868.41,171.39,867.6,171.39z M854.36,136.58c-1.62,0-3.24,0.6-4.47,1.79c-1.19,1.16-1.85,2.7-1.85,4.34
		c0,1.64,0.66,3.18,1.85,4.34l17.71,17.19l17.73-17.2c1.19-1.16,1.85-2.7,1.85-4.34s-0.66-3.18-1.85-4.34
		c-1.19-1.16-2.78-1.8-4.47-1.8c-1.69,0-3.28,0.64-4.47,1.8l-6.63,6.43c-0.57,0.56-1.35,0.87-2.16,0.87l0,0
		c-0.81,0-1.59-0.31-2.16-0.87l-6.61-6.42C857.59,137.18,855.97,136.58,854.36,136.58z"/>
</g>
<g class="st144">
	<path class="st3" d="M1130.97,63.03L1130.97,63.03c-0.81,0-1.59-0.31-2.16-0.87l-19.87-19.28c-2.35-2.28-3.64-5.31-3.64-8.53
		c0-3.22,1.29-6.25,3.64-8.53c4.85-4.7,12.73-4.7,17.57,0l4.45,4.32l4.47-4.34c2.35-2.28,5.47-3.53,8.79-3.53
		c3.32,0,6.44,1.25,8.79,3.53c2.35,2.28,3.64,5.31,3.64,8.53c0,3.22-1.29,6.25-3.64,8.53l-19.89,19.3
		C1132.56,62.72,1131.78,63.03,1130.97,63.03z M1117.73,28.22c-1.62,0-3.24,0.6-4.47,1.79c-1.19,1.16-1.85,2.7-1.85,4.34
		c0,1.64,0.66,3.18,1.85,4.34l17.71,17.19l17.73-17.2c1.19-1.16,1.85-2.7,1.85-4.34c0-1.64-0.66-3.18-1.85-4.34
		c-1.19-1.16-2.78-1.8-4.47-1.8c-1.69,0-3.28,0.64-4.47,1.8l-6.63,6.43c-0.57,0.56-1.35,0.87-2.16,0.87l0,0
		c-0.81,0-1.59-0.31-2.16-0.87l-6.61-6.42C1120.97,28.82,1119.35,28.22,1117.73,28.22z"/>
</g>
<polyline class="st45" points="112.18,120.18 96.37,107.53 80.25,120.18 64.43,107.53 48.32,120.18 32.5,107.53 16.38,120.18 "/>
<polyline class="st45" points="239.81,33.33 224,20.68 207.88,33.33 192.07,20.68 175.95,33.33 160.13,20.68 144.02,33.33 "/>
<path class="st145" d="M290.05,80.75c-1.05,0-2.04,0.2-2.99,0.61c-2.99,1.27-4.98,3.97-4.98,6.92c0,3.97,3.41,7.07,7.76,7.07
	c4.61,0,7.5-3.61,7.5-6.92C297.34,85.94,295.55,80.75,290.05,80.75z"/>
<path class="st145" d="M289.97,104.76c-0.81,0-1.58,0.16-2.31,0.47c-2.31,0.98-3.85,3.07-3.85,5.35c0,3.07,2.63,5.46,5.99,5.46
	c3.56,0,5.79-2.79,5.79-5.35C295.6,108.77,294.23,104.76,289.97,104.76z"/>
<path class="st145" d="M289.91,126.85c-0.61,0-1.19,0.12-1.74,0.36c-1.74,0.74-2.9,2.31-2.9,4.03c0,2.31,1.99,4.12,4.52,4.12
	c2.69,0,4.37-2.1,4.37-4.03C294.15,129.87,293.11,126.85,289.91,126.85z"/>
<linearGradient id="SVGID_2_" gradientUnits="userSpaceOnUse" x1="-3.514" y1="201.3807" x2="1403.514" y2="28.6194">
	<stop  offset="0" style="stop-color:#D0589B"/>
	<stop  offset="1" style="stop-color:#6A2A85"/>
</linearGradient>
<rect style="opacity:0.8;fill:url(#SVGID_2_);" width="1400" height="230"/>
<g>
	<path class="st3" d="M66.88,180.31c0,5.94-1.52,10.51-4.56,13.71c-3.04,3.19-7.39,4.79-13.06,4.79s-10.02-1.6-13.06-4.79
		c-3.04-3.19-4.56-7.78-4.56-13.75c0-5.98,1.52-10.54,4.57-13.69c3.05-3.15,7.41-4.73,13.1-4.73c5.69,0,10.04,1.59,13.05,4.77
		C65.37,169.78,66.88,174.35,66.88,180.31z M39.87,180.31c0,4.01,0.78,7.03,2.35,9.06c1.57,2.03,3.91,3.04,7.04,3.04
		c6.26,0,9.39-4.04,9.39-12.11c0-8.09-3.11-12.13-9.34-12.13c-3.12,0-5.48,1.02-7.06,3.06C40.66,173.27,39.87,176.3,39.87,180.31z"
		/>
	<path class="st3" d="M97.2,198.31l-2.68-8.55H81.02l-2.68,8.55h-8.45l13.06-36.06h9.59l13.11,36.06H97.2z M92.64,183.38
		c-2.48-7.75-3.88-12.13-4.19-13.14c-0.31-1.01-0.54-1.82-0.67-2.41c-0.56,2.1-2.15,7.28-4.78,15.55H92.64z"/>
	<path class="st3" d="M134.43,198.31h-27.54v-4.94l17.74-24.68h-17.26v-6.29h26.58v4.91l-17.72,24.71h18.2V198.31z"/>
	<path class="st3" d="M162.98,198.31l-2.68-8.55H146.8l-2.68,8.55h-8.45l13.06-36.06h9.59l13.11,36.06H162.98z M158.42,183.38
		c-2.48-7.75-3.88-12.13-4.19-13.14c-0.31-1.01-0.54-1.82-0.67-2.41c-0.56,2.1-2.15,7.28-4.78,15.55H158.42z"/>
	<path class="st3" d="M192.72,182.67v15.65h-2.58V162.4h8.81c4.59,0,7.98,0.82,10.17,2.47c2.19,1.65,3.29,4.12,3.29,7.43
		c0,2.41-0.65,4.44-1.96,6.09c-1.31,1.65-3.29,2.84-5.96,3.56l10.05,16.36h-3.09l-9.54-15.65H192.72z M192.72,180.51h7.06
		c3.12,0,5.54-0.68,7.26-2.03c1.72-1.35,2.58-3.34,2.58-5.98c0-2.73-0.84-4.72-2.53-5.97c-1.69-1.24-4.44-1.87-8.25-1.87h-6.13
		V180.51z"/>
	<path class="st3" d="M222.48,171.61v17.29c0,2.69,0.58,4.64,1.75,5.86c1.16,1.22,2.97,1.83,5.42,1.83c3.27,0,5.68-0.8,7.23-2.41
		c1.54-1.6,2.32-4.22,2.32-7.83v-14.74h2.48v26.7h-2.13l-0.46-3.68h-0.15c-1.79,2.78-4.97,4.18-9.54,4.18
		c-6.26,0-9.39-3.25-9.39-9.75v-17.44H222.48z"/>
	<path class="st3" d="M261.86,198.8c-3.93,0-7.01-1.2-9.24-3.61c-2.23-2.41-3.34-5.76-3.34-10.07c0-4.42,1.16-7.86,3.47-10.33
		c2.31-2.46,5.48-3.7,9.49-3.7c2.38,0,4.66,0.4,6.83,1.2l-0.68,2.16c-2.38-0.77-4.45-1.15-6.2-1.15c-3.38,0-5.93,1.01-7.67,3.03
		c-1.74,2.02-2.61,4.93-2.61,8.73c0,3.6,0.87,6.42,2.61,8.46s4.17,3.06,7.29,3.06c2.5,0,4.82-0.43,6.96-1.3v2.26
		C267.02,198.39,264.72,198.8,261.86,198.8z"/>
	<path class="st3" d="M294.69,198.31V181c0-2.69-0.58-4.64-1.75-5.86c-1.16-1.22-2.97-1.83-5.42-1.83c-3.29,0-5.7,0.81-7.23,2.42
		c-1.53,1.61-2.29,4.23-2.29,7.85v14.74h-2.51v-38.22h2.51v12.16l-0.13,3.41h0.18c1.03-1.6,2.33-2.77,3.9-3.49s3.52-1.08,5.85-1.08
		c6.24,0,9.36,3.25,9.36,9.75v17.46H294.69z"/>
	<path class="st3" d="M340.6,189.05c0,3-1.14,5.37-3.4,7.12c-2.27,1.75-5.29,2.63-9.05,2.63c-4.52,0-7.99-0.48-10.4-1.45v-2.5
		c2.67,1.1,6.07,1.65,10.2,1.65c3.04,0,5.45-0.68,7.23-2.03c1.78-1.35,2.67-3.12,2.67-5.32c0-1.36-0.3-2.48-0.89-3.38
		s-1.55-1.71-2.89-2.44c-1.33-0.74-3.29-1.53-5.87-2.38c-3.78-1.26-6.39-2.62-7.83-4.09c-1.44-1.47-2.16-3.42-2.16-5.86
		c0-2.69,1.08-4.88,3.25-6.57c2.17-1.7,4.96-2.54,8.37-2.54c3.48,0,6.74,0.64,9.79,1.92l-0.94,2.16c-3.07-1.24-6.01-1.87-8.81-1.87
		c-2.73,0-4.91,0.61-6.53,1.84c-1.62,1.23-2.43,2.9-2.43,5.01c0,1.33,0.25,2.42,0.75,3.27c0.5,0.85,1.31,1.62,2.44,2.3
		c1.13,0.68,3.07,1.5,5.82,2.44c2.89,0.97,5.05,1.9,6.5,2.81c1.45,0.91,2.51,1.94,3.18,3.09S340.6,187.42,340.6,189.05z
		 M326.48,159.14c1.23-1.29,2.45-2.7,3.66-4.21c1.21-1.51,2.03-2.67,2.47-3.45h3.57v0.42c-0.61,0.85-1.64,1.98-3.1,3.39
		c-1.46,1.41-3.07,2.83-4.82,4.25h-1.77V159.14z"/>
	<path class="st3" d="M369.79,198.31l-6.02-17.86c-0.39-1.21-0.89-2.99-1.49-5.33h-0.15l-0.53,1.82l-1.14,3.56l-6.13,17.81h-2.48
		l-7.87-26.7h2.68l4.4,15.47c1.03,3.83,1.7,6.65,2.02,8.45h0.15c1-3.83,1.72-6.38,2.18-7.64l5.67-16.28h2.28l5.39,16.24
		c1.21,3.85,1.96,6.39,2.23,7.64h0.15c0.13-1.06,0.81-3.91,2.02-8.55l4.2-15.33h2.53l-7.47,26.7H369.79z"/>
	<path class="st3" d="M384.92,164.2c0-1.57,0.53-2.36,1.59-2.36c0.52,0,0.93,0.21,1.23,0.61c0.29,0.41,0.44,0.99,0.44,1.74
		c0,0.74-0.15,1.32-0.44,1.74c-0.3,0.43-0.7,0.64-1.23,0.64C385.45,166.58,384.92,165.78,384.92,164.2z M387.78,198.31h-2.51v-26.7
		h2.51V198.31z"/>
	<path class="st3" d="M413.7,198.31l-0.63-4.22h-0.2c-1.38,1.72-2.81,2.94-4.26,3.65s-3.19,1.07-5.18,1.07c-2.7,0-4.8-0.67-6.3-2.01
		c-1.5-1.34-2.25-3.2-2.25-5.58c0-2.6,1.12-4.63,3.35-6.07c2.24-1.44,5.47-2.2,9.71-2.28l5.24-0.15v-1.77
		c0-2.54-0.53-4.45-1.59-5.75s-2.78-1.94-5.14-1.94c-2.55,0-5.19,0.69-7.92,2.06l-0.94-2.11c3.02-1.38,6.01-2.06,8.96-2.06
		c3.02,0,5.28,0.76,6.77,2.28c1.49,1.52,2.24,3.9,2.24,7.12v17.76H413.7z M403.57,196.59c2.94,0,5.25-0.81,6.95-2.44
		c1.7-1.63,2.54-3.89,2.54-6.79v-2.63l-4.81,0.2c-3.86,0.18-6.62,0.77-8.26,1.76c-1.65,0.99-2.47,2.53-2.47,4.63
		c0,1.67,0.53,2.97,1.58,3.89C400.16,196.13,401.65,196.59,403.57,196.59z"/>
	<path class="st3" d="M431.72,196.64c1.59,0,2.97-0.13,4.15-0.39v1.96c-1.21,0.39-2.62,0.59-4.2,0.59c-2.43,0-4.22-0.63-5.38-1.89
		c-1.16-1.26-1.73-3.24-1.73-5.94v-17.24h-4.07v-1.42l4.07-1.11l1.27-6.04h1.29v6.46h8.07v2.11h-8.07v16.9
		c0,2.05,0.37,3.56,1.11,4.54C428.97,196.15,430.13,196.64,431.72,196.64z"/>
	<path class="st3" d="M444.32,178.25l3.87-2.53l1.09,1.72l-4.96,3.22v17.66h-2.51v-16.04l-3.27,2.11l-1.14-1.77l4.4-2.83v-19.7h2.51
		V178.25z"/>
	<path class="st3" d="M476.29,184.93c0,4.36-1.09,7.76-3.27,10.21s-5.18,3.67-9.01,3.67c-2.41,0-4.54-0.56-6.38-1.69
		c-1.84-1.13-3.25-2.75-4.23-4.86c-0.98-2.11-1.47-4.55-1.47-7.32c0-4.36,1.09-7.75,3.27-10.18c2.18-2.43,5.16-3.65,8.96-3.65
		c3.78,0,6.75,1.23,8.9,3.7S476.29,180.64,476.29,184.93z M454.57,184.93c0,3.67,0.83,6.53,2.49,8.58c1.66,2.05,4.01,3.08,7.05,3.08
		s5.39-1.03,7.05-3.08c1.66-2.05,2.49-4.92,2.49-8.58c0-3.68-0.84-6.54-2.52-8.57c-1.68-2.03-4.04-3.05-7.07-3.05
		s-5.38,1.01-7.02,3.03C455.4,178.37,454.57,181.23,454.57,184.93z"/>
	<path class="st3" d="M520.56,198.31h-25.72v-1.87l21.67-31.69h-20.68v-2.36h24.15v1.87l-21.72,31.69h22.3V198.31z M506.08,155.89
		c0-1.57,0.54-2.36,1.62-2.36c0.52,0,0.93,0.21,1.21,0.61c0.29,0.41,0.43,0.99,0.43,1.74c0,0.74-0.14,1.32-0.43,1.74
		c-0.29,0.43-0.69,0.64-1.21,0.64C506.62,158.28,506.08,157.48,506.08,155.89z"/>
	<path class="st3" d="M522.63,171.61h2.58l5.82,14.98c1.77,4.6,2.89,7.71,3.37,9.31h0.15c0.71-2.11,1.86-5.26,3.47-9.46l5.82-14.84
		h2.58l-12.33,31.02c-1,2.52-1.83,4.22-2.51,5.11c-0.68,0.88-1.46,1.55-2.37,1.99c-0.9,0.44-2,0.66-3.28,0.66
		c-0.96,0-2.03-0.17-3.21-0.52v-2.11c0.98,0.26,2.03,0.39,3.16,0.39c0.86,0,1.62-0.2,2.28-0.59c0.66-0.39,1.25-1,1.78-1.83
		c0.53-0.83,1.15-2.14,1.85-3.93s1.15-2.96,1.35-3.5L522.63,171.61z"/>
	<path class="st3" d="M562.02,198.8c-3.93,0-7.01-1.2-9.24-3.61c-2.23-2.41-3.34-5.76-3.34-10.07c0-4.42,1.16-7.86,3.47-10.33
		c2.31-2.46,5.48-3.7,9.49-3.7c2.38,0,4.66,0.4,6.83,1.2l-0.68,2.16c-2.38-0.77-4.45-1.15-6.2-1.15c-3.38,0-5.93,1.01-7.67,3.03
		c-1.74,2.02-2.61,4.93-2.61,8.73c0,3.6,0.87,6.42,2.61,8.46s4.17,3.06,7.29,3.06c2.5,0,4.82-0.43,6.96-1.3v2.26
		C567.17,198.39,564.87,198.8,562.02,198.8z"/>
	<path class="st3" d="M575.3,164.2c0-1.57,0.53-2.36,1.59-2.36c0.52,0,0.93,0.21,1.23,0.61c0.29,0.41,0.44,0.99,0.44,1.74
		c0,0.74-0.15,1.32-0.44,1.74c-0.3,0.43-0.7,0.64-1.23,0.64C575.83,166.58,575.3,165.78,575.3,164.2z M578.16,198.31h-2.51v-26.7
		h2.51V198.31z"/>
	<path class="st3" d="M598.49,198.8c-4,0-7.12-1.2-9.35-3.59s-3.35-5.74-3.35-10.05c0-4.26,1.08-7.67,3.24-10.23
		c2.16-2.56,5.07-3.84,8.73-3.84c3.24,0,5.8,1.1,7.67,3.29s2.81,5.17,2.81,8.94v1.96h-19.82c0.03,3.67,0.92,6.47,2.65,8.4
		c1.73,1.93,4.21,2.9,7.43,2.9c1.57,0,2.95-0.11,4.14-0.32c1.19-0.21,2.7-0.67,4.52-1.38v2.21c-1.55,0.65-2.99,1.1-4.3,1.34
		S600.07,198.8,598.49,198.8z M597.75,173.26c-2.65,0-4.78,0.85-6.38,2.54c-1.6,1.7-2.54,4.14-2.81,7.33h17.01
		c0-3.09-0.69-5.51-2.08-7.26C602.11,174.13,600.2,173.26,597.75,173.26z"/>
</g>
</svg>
