<?xml version="1.0" encoding="utf-8"?>
<!-- Generator: Adobe Illustrator 24.2.1, SVG Export Plug-In . SVG Version: 6.00 Build 0)  -->
<svg version="1.1" id="Warstwa_1" xmlns="http://www.w3.org/2000/svg" xmlns:xlink="http://www.w3.org/1999/xlink" x="0px" y="0px"
	 viewBox="0 0 400 400" style="enable-background:new 0 0 400 400;" xml:space="preserve">
<style type="text/css">
	.st0{opacity:0.8;fill:url(#SVGID_1_);}
	.st1{fill:#FFFFFF;}
	.st2{opacity:0.8;fill:url(#SVGID_2_);}
	.st3{fill:url(#SVGID_3_);}
	.st4{fill:url(#SVGID_4_);}
	.st5{fill:url(#SVGID_5_);}
	.st6{fill:url(#SVGID_6_);}
	.st7{fill:url(#SVGID_7_);}
	.st8{fill:url(#SVGID_8_);}
	.st9{fill:url(#SVGID_9_);}
	.st10{fill:url(#SVGID_10_);}
	.st11{fill:url(#SVGID_11_);}
	.st12{fill:url(#SVGID_12_);}
	.st13{fill:url(#SVGID_13_);}
	.st14{fill:url(#SVGID_14_);}
	.st15{fill:url(#SVGID_15_);}
	.st16{fill:url(#SVGID_16_);}
	.st17{fill:url(#SVGID_17_);}
	.st18{fill:url(#SVGID_18_);}
	.st19{fill:url(#SVGID_19_);}
	.st20{fill:url(#SVGID_20_);}
	.st21{fill:url(#SVGID_21_);}
	.st22{fill:url(#SVGID_22_);}
	.st23{fill:url(#SVGID_23_);}
	.st24{fill:url(#SVGID_24_);}
	.st25{fill:url(#SVGID_25_);}
	.st26{opacity:0.8;fill:url(#SVGID_26_);}
	.st27{fill:url(#SVGID_27_);}
	.st28{fill:url(#SVGID_28_);}
	.st29{opacity:0.8;fill:url(#SVGID_29_);}
	.st30{opacity:0.9;}
	.st31{fill:url(#SVGID_30_);}
	.st32{opacity:0.8;fill:url(#SVGID_31_);}
	.st33{opacity:0.8;}
	.st34{fill:url(#SVGID_32_);}
	.st35{opacity:0.8;fill:url(#SVGID_33_);}
	.st36{fill:url(#SVGID_34_);}
	.st37{fill:url(#SVGID_35_);}
	.st38{opacity:0.9;fill:url(#SVGID_36_);}
</style>
<linearGradient id="SVGID_1_" gradientUnits="userSpaceOnUse" x1="25" y1="200" x2="375" y2="200">
	<stop  offset="0" style="stop-color:#D0579A"/>
	<stop  offset="1" style="stop-color:#6A2985"/>
</linearGradient>
<circle style="fill:url(#SVGID_1_);" cx="200" cy="200" r="175"/>
<g>
	<path class="st1" d="M180.17,167.49c0,10.93,8.89,19.83,19.83,19.83c10.93,0,19.83-8.89,19.83-19.83
		c0-10.93-8.89-19.83-19.83-19.83C189.07,147.66,180.17,156.55,180.17,167.49L180.17,167.49z M207.17,167.49
		c0,3.95-3.22,7.17-7.17,7.17c-3.95,0-7.17-3.22-7.17-7.17s3.22-7.17,7.17-7.17C203.95,160.32,207.17,163.53,207.17,167.49
		L207.17,167.49z M207.17,167.49"/>
	<path class="st1" d="M294.92,222.33l-27.84-20.88V179.3c2.8,2.1,6.73,1.52,8.83-1.23c2.12-2.78,1.58-6.75-1.2-8.87l-68.38-52.1
		V99.57h17.3c3.5,0,6.33-2.83,6.33-6.33c0-3.5-2.83-6.33-6.33-6.33h-17.3v-7.59c0-3.5-2.83-6.33-6.33-6.33s-6.33,2.83-6.33,6.33
		v7.59h-17.3c-3.5,0-6.33,2.83-6.33,6.33c0,3.5,2.83,6.33,6.33,6.33h17.3v17.54l-68.38,52.1c-2.78,2.12-3.32,6.09-1.2,8.87
		c2.1,2.75,6.03,3.32,8.83,1.23v22.15l-27.84,20.88c-1.59,1.2-2.53,3.07-2.53,5.06v55.27c0,3.5,2.83,6.33,6.33,6.33h182.25
		c3.5,0,6.33-2.83,6.33-6.33v-55.27C297.45,225.4,296.51,223.53,294.92,222.33L294.92,222.33z M132.92,276.33H115.2v-45.77
		l17.72-13.29V276.33z M193.67,276.33h-14.34v-31.22c0-9.19,6.03-17,14.34-19.68V276.33z M220.67,276.33h-14.34v-50.9
		c8.31,2.68,14.34,10.49,14.34,19.68V276.33z M254.42,276.33h-21.09v-31.22c0-18.38-14.95-33.33-33.33-33.33
		s-33.33,14.95-33.33,33.33v31.22h-21.09V169.66L200,128.19l54.42,41.46V276.33z M284.8,276.33h-17.72v-59.06l17.72,13.29V276.33z
		 M284.8,276.33"/>
</g>
</svg>
