<?xml version="1.0" encoding="utf-8"?>
<!-- Generator: Adobe Illustrator 24.2.1, SVG Export Plug-In . SVG Version: 6.00 Build 0)  -->
<svg version="1.1" id="Warstwa_1" xmlns="http://www.w3.org/2000/svg" xmlns:xlink="http://www.w3.org/1999/xlink" x="0px" y="0px"
	 viewBox="0 0 400 400" style="enable-background:new 0 0 400 400;" xml:space="preserve">
<style type="text/css">
	.st0{opacity:0.8;fill:url(#SVGID_1_);}
	.st1{fill:#FFFFFF;}
	.st2{opacity:0.8;fill:url(#SVGID_2_);}
	.st3{fill:url(#SVGID_3_);}
	.st4{fill:url(#SVGID_4_);}
	.st5{fill:url(#SVGID_5_);}
	.st6{fill:url(#SVGID_6_);}
	.st7{fill:url(#SVGID_7_);}
	.st8{fill:url(#SVGID_8_);}
	.st9{fill:url(#SVGID_9_);}
	.st10{fill:url(#SVGID_10_);}
	.st11{fill:url(#SVGID_11_);}
	.st12{fill:url(#SVGID_12_);}
	.st13{fill:url(#SVGID_13_);}
	.st14{fill:url(#SVGID_14_);}
	.st15{fill:url(#SVGID_15_);}
	.st16{fill:url(#SVGID_16_);}
	.st17{fill:url(#SVGID_17_);}
	.st18{fill:url(#SVGID_18_);}
	.st19{fill:url(#SVGID_19_);}
	.st20{fill:url(#SVGID_20_);}
	.st21{fill:url(#SVGID_21_);}
	.st22{fill:url(#SVGID_22_);}
	.st23{fill:url(#SVGID_23_);}
	.st24{fill:url(#SVGID_24_);}
	.st25{fill:url(#SVGID_25_);}
	.st26{opacity:0.8;fill:url(#SVGID_26_);}
	.st27{fill:url(#SVGID_27_);}
	.st28{fill:url(#SVGID_28_);}
	.st29{opacity:0.8;fill:url(#SVGID_29_);}
	.st30{opacity:0.9;}
	.st31{fill:url(#SVGID_30_);}
	.st32{opacity:0.8;fill:url(#SVGID_31_);}
	.st33{opacity:0.8;}
	.st34{fill:url(#SVGID_32_);}
	.st35{opacity:0.8;fill:url(#SVGID_33_);}
	.st36{fill:url(#SVGID_34_);}
	.st37{fill:url(#SVGID_35_);}
	.st38{opacity:0.9;fill:url(#SVGID_36_);}
</style>
<linearGradient id="SVGID_1_" gradientUnits="userSpaceOnUse" x1="25" y1="200" x2="375" y2="200">
	<stop  offset="0" style="stop-color:#D0579A"/>
	<stop  offset="1" style="stop-color:#6A2985"/>
</linearGradient>
<circle style="fill:url(#SVGID_1_);" cx="200" cy="200" r="175"/>
<g>
	<path class="st1" d="M288.11,185.68c4.47-5.51,7.15-12.52,7.15-20.14c0-17.67-14.37-32.04-32.04-32.04
		c-17.67,0-32.04,14.37-32.04,32.04c0,7.63,2.69,14.64,7.16,20.15c-4.23,1.35-8.25,3.33-11.91,5.86
		c-5.78-8.42-15.47-13.95-26.42-13.95c-10.96,0-20.64,5.53-26.42,13.95c-3.66-2.54-7.68-4.51-11.91-5.86
		c4.47-5.51,7.16-12.52,7.16-20.15c0-17.67-14.37-32.04-32.04-32.04c-17.67,0-32.04,14.37-32.04,32.04c0,7.63,2.68,14.63,7.15,20.14
		c-18.02,5.75-31.1,22.64-31.1,42.54v39.66c0,3.87,3.13,7,7,7h56.22v37.11c0,3.87,3.13,7,7,7h97.98c3.87,0,7-3.13,7-7v-37.11h56.22
		c3.87,0,7-3.13,7-7v-39.66C319.21,208.32,306.13,191.42,288.11,185.68L288.11,185.68z M263.22,147.49
		c9.95,0,18.04,8.09,18.04,18.04c0,9.94-8.09,18.03-18.03,18.04h-0.04c-9.94-0.01-18.02-8.1-18.02-18.04
		C245.18,155.59,253.27,147.49,263.22,147.49L263.22,147.49z M200,191.6c10.02,0,18.18,8.22,18.04,18.31
		c-0.15,9.86-8.21,17.78-18.04,17.78c-9.98,0-18.04-8.14-18.04-18.04C181.96,199.83,189.93,191.6,200,191.6L200,191.6z
		 M136.78,147.49c9.95,0,18.04,8.09,18.04,18.04c0,9.94-8.08,18.03-18.02,18.04h-0.04c-9.94-0.01-18.02-8.1-18.02-18.04
		C118.74,155.59,126.83,147.49,136.78,147.49L136.78,147.49z M94.79,228.21c0-16.9,13.75-30.64,30.64-30.64h22.71
		c7.42,0,14.59,2.72,20.14,7.55c-1.25,8.84,1.27,17.8,6.81,24.66c-14.5,4.62-25.72,16.43-29.59,31.09h-20.85v-26.19
		c0-3.86-3.13-7-7-7c-3.86,0-7,3.13-7,7v26.19H94.79V228.21z M241.99,304.98h-14V284.3c0-3.86-3.13-7-7-7c-3.86,0-7,3.13-7,7v20.69
		H186V284.3c0-3.86-3.14-7-7-7c-3.87,0-7,3.13-7,7v20.69h-14v-32.66c0-16.83,13.69-30.64,30.64-30.64h22.71
		c16.93,0,30.64,13.79,30.64,30.64V304.98z M305.21,260.88h-15.86v-26.19c0-3.86-3.13-7-7-7c-3.87,0-7,3.13-7,7v26.19H254.5
		c-3.85-14.56-14.99-26.44-29.59-31.09c5.35-6.62,8.11-15.52,6.81-24.66c5.55-4.83,12.72-7.55,20.14-7.55h22.71
		c16.9,0,30.64,13.74,30.64,30.64V260.88z M305.21,260.88"/>
	<path class="st1" d="M162.2,116.49c1.6,3.52,5.75,5.07,9.27,3.48c3.52-1.6,5.07-5.75,3.48-9.27l-9.33-20.53
		c-1.6-3.52-5.75-5.08-9.27-3.48c-3.52,1.6-5.08,5.75-3.48,9.27L162.2,116.49z M162.2,116.49"/>
	<path class="st1" d="M228.53,119.96c3.52,1.6,7.67,0.04,9.27-3.48l9.33-20.53c1.6-3.52,0.04-7.67-3.48-9.27
		c-3.52-1.6-7.67-0.04-9.27,3.48l-9.33,20.53C223.46,114.21,225.01,118.36,228.53,119.96L228.53,119.96z M228.53,119.96"/>
	<path class="st1" d="M200,115.47c3.87,0,7-3.14,7-7V88.02c0-3.87-3.13-7-7-7c-3.87,0-7,3.13-7,7v20.45
		C193,112.33,196.13,115.47,200,115.47L200,115.47z M200,115.47"/>
</g>
</svg>
