<?xml version="1.0" encoding="utf-8"?>
<!-- Generator: Adobe Illustrator 24.2.1, SVG Export Plug-In . SVG Version: 6.00 Build 0)  -->
<svg version="1.1" id="Warstwa_1" xmlns="http://www.w3.org/2000/svg" xmlns:xlink="http://www.w3.org/1999/xlink" x="0px" y="0px"
	 viewBox="0 0 400 400" style="enable-background:new 0 0 400 400;" xml:space="preserve">
<style type="text/css">
	.st0{opacity:0.8;fill:url(#SVGID_1_);}
	.st1{fill:#FFFFFF;}
	.st2{opacity:0.8;fill:url(#SVGID_2_);}
	.st3{fill:url(#SVGID_3_);}
	.st4{fill:url(#SVGID_4_);}
	.st5{fill:url(#SVGID_5_);}
	.st6{fill:url(#SVGID_6_);}
	.st7{fill:url(#SVGID_7_);}
	.st8{fill:url(#SVGID_8_);}
	.st9{fill:url(#SVGID_9_);}
	.st10{fill:url(#SVGID_10_);}
	.st11{fill:url(#SVGID_11_);}
	.st12{fill:url(#SVGID_12_);}
	.st13{fill:url(#SVGID_13_);}
	.st14{fill:url(#SVGID_14_);}
	.st15{fill:url(#SVGID_15_);}
	.st16{fill:url(#SVGID_16_);}
	.st17{fill:url(#SVGID_17_);}
	.st18{fill:url(#SVGID_18_);}
	.st19{fill:url(#SVGID_19_);}
	.st20{fill:url(#SVGID_20_);}
	.st21{fill:url(#SVGID_21_);}
	.st22{fill:url(#SVGID_22_);}
	.st23{fill:url(#SVGID_23_);}
	.st24{fill:url(#SVGID_24_);}
	.st25{fill:url(#SVGID_25_);}
	.st26{opacity:0.8;fill:url(#SVGID_26_);}
	.st27{fill:url(#SVGID_27_);}
	.st28{fill:url(#SVGID_28_);}
	.st29{opacity:0.8;fill:url(#SVGID_29_);}
	.st30{opacity:0.9;}
	.st31{fill:url(#SVGID_30_);}
	.st32{opacity:0.8;fill:url(#SVGID_31_);}
	.st33{opacity:0.8;}
	.st34{fill:url(#SVGID_32_);}
	.st35{opacity:0.8;fill:url(#SVGID_33_);}
	.st36{fill:url(#SVGID_34_);}
	.st37{fill:url(#SVGID_35_);}
	.st38{opacity:0.9;fill:url(#SVGID_36_);}
</style>
<linearGradient id="SVGID_1_" gradientUnits="userSpaceOnUse" x1="25" y1="200" x2="375" y2="200">
	<stop  offset="0" style="stop-color:#D0579A"/>
	<stop  offset="1" style="stop-color:#6A2985"/>
</linearGradient>
<circle style="fill:url(#SVGID_1_);" cx="200" cy="200" r="175"/>
<g>
	<path class="st1" d="M200,124.67c-41.53,0-75.33,33.79-75.33,75.33c0,41.54,33.79,75.33,75.33,75.33s75.33-33.79,75.33-75.33
		C275.33,158.46,241.54,124.67,200,124.67L200,124.67z M200,261.63c-33.98,0-61.63-27.65-61.63-61.63s27.65-61.63,61.63-61.63
		s61.63,27.65,61.63,61.63S233.98,261.63,200,261.63L200,261.63z M200,261.63"/>
	<path class="st1" d="M304.96,200c0-9,3.54-17.56,9.96-24.1c1.7-1.74,2.36-4.25,1.72-6.59c-0.64-2.35-2.47-4.18-4.82-4.81
		c-9.51-2.57-17.72-8.49-21.97-15.85c-4.96-8.6-6.51-17.74-4.34-25.74c0.64-2.37-0.03-4.9-1.77-6.63c-1.73-1.73-4.26-2.41-6.63-1.77
		c-8.7,2.35-17.84,1.13-25.74-3.43c-7.85-4.53-13.48-11.86-15.85-20.65c-0.63-2.35-2.47-4.18-4.81-4.82
		c-2.35-0.64-4.86,0.02-6.59,1.72c-6.54,6.42-15.1,9.96-24.1,9.96s-17.56-3.54-24.1-9.95c-1.74-1.7-4.25-2.36-6.59-1.72
		c-2.35,0.64-4.18,2.47-4.81,4.82c-2.37,8.78-8,16.11-15.85,20.65c-7.9,4.56-17.04,5.78-25.74,3.43c-2.37-0.64-4.9,0.04-6.63,1.77
		c-1.73,1.73-2.41,4.26-1.77,6.63c2.16,8,0.62,17.15-4.34,25.74c-4.25,7.36-12.46,13.28-21.97,15.85c-2.35,0.63-4.18,2.47-4.82,4.81
		c-0.64,2.35,0.02,4.86,1.72,6.59c6.42,6.54,9.96,15.1,9.96,24.1c0,9-3.54,17.56-9.95,24.1c-1.71,1.74-2.36,4.25-1.72,6.59
		c0.64,2.35,2.47,4.18,4.82,4.81c9.51,2.57,17.72,8.5,21.97,15.85c4.96,8.6,6.51,17.74,4.34,25.74c-0.64,2.37,0.04,4.9,1.77,6.63
		c1.73,1.73,4.26,2.41,6.63,1.77c8.7-2.35,17.84-1.13,25.74,3.43c7.85,4.53,13.48,11.86,15.85,20.65c0.64,2.35,2.47,4.18,4.81,4.82
		c2.35,0.64,4.86-0.02,6.59-1.72c6.54-6.42,15.1-9.96,24.1-9.96s17.56,3.54,24.1,9.96c1.74,1.71,4.26,2.36,6.59,1.72
		c2.35-0.64,4.18-2.47,4.81-4.82c2.37-8.78,8-16.11,15.85-20.65c7.9-4.56,17.04-5.78,25.74-3.43c2.37,0.64,4.9-0.03,6.63-1.77
		c1.73-1.73,2.41-4.26,1.77-6.63c-2.16-8-0.62-17.15,4.34-25.74c4.25-7.35,12.46-13.28,21.97-15.85c2.35-0.63,4.18-2.47,4.82-4.81
		c0.64-2.35-0.02-4.86-1.72-6.59C308.49,217.56,304.96,209,304.96,200L304.96,200z M298.83,225.8c-8.89,4.3-16.35,10.91-20.85,18.71
		c-4.89,8.47-7.31,17.49-7.12,26.18c-9.11-0.5-18.2,1.67-26.35,6.37c-8.08,4.67-14.48,11.44-18.63,19.58
		c-7.7-4.96-16.62-7.62-25.88-7.62s-18.19,2.66-25.88,7.62c-4.15-8.14-10.55-14.92-18.63-19.58c-8.14-4.7-17.24-6.87-26.35-6.37
		c0.19-8.7-2.23-17.72-7.12-26.19c-4.5-7.79-11.96-14.41-20.85-18.71c4.93-7.68,7.57-16.57,7.57-25.8c0-9.24-2.64-18.12-7.57-25.8
		c8.89-4.3,16.35-10.91,20.85-18.71c4.89-8.47,7.31-17.49,7.12-26.18c9.11,0.5,18.2-1.67,26.35-6.37
		c8.08-4.67,14.48-11.44,18.63-19.58c7.7,4.96,16.62,7.62,25.88,7.62s18.19-2.66,25.88-7.62c4.15,8.14,10.55,14.92,18.63,19.58
		c8.14,4.7,17.24,6.86,26.35,6.37c-0.19,8.7,2.23,17.72,7.12,26.18c4.5,7.8,11.97,14.41,20.85,18.71
		c-4.93,7.68-7.57,16.57-7.57,25.8C291.26,209.24,293.9,218.12,298.83,225.8L298.83,225.8z M298.83,225.8"/>
</g>
</svg>
