<?xml version="1.0" encoding="utf-8"?>
<!-- Generator: Adobe Illustrator 24.2.1, SVG Export Plug-In . SVG Version: 6.00 Build 0)  -->
<svg version="1.1" id="Warstwa_1" xmlns="http://www.w3.org/2000/svg" xmlns:xlink="http://www.w3.org/1999/xlink" x="0px" y="0px"
	 viewBox="0 0 1400 230" style="enable-background:new 0 0 1400 230;" xml:space="preserve">
<style type="text/css">
	.st0{fill:#AA7E63;}
	.st1{fill:#020203;}
	.st2{opacity:0.5;}
	.st3{fill:#FFFFFF;}
	.st4{opacity:0.5;fill:#FFFFFF;}
	.st5{clip-path:url(#SVGID_2_);}
	.st6{clip-path:url(#SVGID_4_);}
	.st7{clip-path:url(#SVGID_6_);}
	.st8{clip-path:url(#SVGID_8_);}
	.st9{clip-path:url(#SVGID_10_);}
	.st10{clip-path:url(#SVGID_12_);}
	.st11{clip-path:url(#SVGID_14_);}
	.st12{clip-path:url(#SVGID_16_);}
	.st13{clip-path:url(#SVGID_18_);}
	.st14{clip-path:url(#SVGID_20_);}
	.st15{clip-path:url(#SVGID_22_);}
	.st16{clip-path:url(#SVGID_24_);}
	.st17{clip-path:url(#SVGID_26_);}
	.st18{clip-path:url(#SVGID_28_);}
	.st19{clip-path:url(#SVGID_30_);}
	.st20{clip-path:url(#SVGID_32_);}
	.st21{clip-path:url(#SVGID_34_);}
	.st22{clip-path:url(#SVGID_36_);}
	.st23{clip-path:url(#SVGID_38_);}
	.st24{clip-path:url(#SVGID_40_);}
	.st25{clip-path:url(#SVGID_42_);}
	.st26{clip-path:url(#SVGID_44_);}
	.st27{clip-path:url(#SVGID_46_);}
	.st28{clip-path:url(#SVGID_48_);}
	.st29{clip-path:url(#SVGID_50_);}
	.st30{clip-path:url(#SVGID_52_);}
	.st31{clip-path:url(#SVGID_54_);}
	.st32{clip-path:url(#SVGID_56_);}
	.st33{clip-path:url(#SVGID_58_);}
	.st34{clip-path:url(#SVGID_60_);}
	.st35{clip-path:url(#SVGID_62_);}
	.st36{clip-path:url(#SVGID_64_);}
	.st37{clip-path:url(#SVGID_66_);}
	.st38{clip-path:url(#SVGID_68_);}
	.st39{clip-path:url(#SVGID_70_);}
	.st40{fill:#123274;}
	.st41{fill:#2DB8C5;}
	.st42{opacity:0.8;}
	.st43{fill:#008BC0;}
	.st44{opacity:0.5;fill:none;stroke:#FFFFFF;stroke-width:8;stroke-linecap:round;stroke-linejoin:round;stroke-miterlimit:10;}
	.st45{opacity:0.5;fill:none;stroke:#FFFFFF;stroke-width:7;stroke-linecap:round;stroke-linejoin:round;stroke-miterlimit:10;}
	.st46{fill:#0B5BA6;}
	.st47{opacity:0.8;fill:url(#SVGID_71_);}
	.st48{fill:none;stroke:#FFFFFF;stroke-width:10;stroke-miterlimit:10;}
	.st49{opacity:0.8;fill:url(#SVGID_72_);}
	.st50{fill:none;stroke:#FFFFFF;stroke-width:5;stroke-miterlimit:10;}
	.st51{fill:none;stroke:#FFFFFF;stroke-width:6;stroke-miterlimit:10;}
	.st52{opacity:0.8;fill:url(#SVGID_91_);}
	.st53{fill:#878787;}
	.st54{opacity:0.8;fill:url(#SVGID_110_);}
	.st55{opacity:0.8;fill:url(#SVGID_111_);}
	.st56{stroke:#FFFFFF;stroke-width:8;stroke-linecap:round;stroke-linejoin:round;stroke-miterlimit:10;}
	.st57{opacity:0.8;fill:url(#SVGID_112_);}
	.st58{opacity:0.8;fill:url(#SVGID_113_);}
	.st59{clip-path:url(#SVGID_115_);fill:#12100B;}
	.st60{fill:#12100B;}
	.st61{fill:url(#SVGID_116_);}
	.st62{fill:url(#SVGID_117_);}
	.st63{fill:#E87443;}
	.st64{fill:#82368C;}
	.st65{opacity:0.8;fill:url(#SVGID_118_);}
	.st66{opacity:0.8;fill:url(#SVGID_119_);}
	.st67{fill:#9D9D9C;}
	.st68{opacity:0.8;fill:url(#SVGID_120_);}
	.st69{opacity:0.8;fill:#5EA62B;}
	.st70{fill:#10466D;}
	.st71{opacity:0.4;}
	.st72{clip-path:url(#SVGID_122_);}
	.st73{fill:url(#SVGID_123_);}
	.st74{fill:url(#SVGID_124_);}
	.st75{fill:url(#SVGID_125_);}
	.st76{fill:url(#SVGID_126_);}
	.st77{fill:url(#SVGID_127_);}
	.st78{fill:url(#SVGID_128_);}
	.st79{fill:url(#SVGID_129_);}
	.st80{fill:url(#SVGID_130_);}
	.st81{fill:url(#SVGID_131_);}
	.st82{fill:url(#SVGID_132_);}
	.st83{fill:url(#SVGID_133_);}
	.st84{fill:url(#SVGID_134_);}
	.st85{fill:url(#SVGID_135_);}
	.st86{fill:url(#SVGID_136_);}
	.st87{fill:url(#SVGID_137_);}
	.st88{fill:url(#SVGID_138_);}
	.st89{fill:url(#SVGID_139_);}
	.st90{fill:url(#SVGID_140_);}
	.st91{fill:url(#SVGID_141_);}
	.st92{fill:url(#SVGID_142_);}
	.st93{fill:url(#SVGID_143_);}
	.st94{fill:url(#SVGID_144_);}
	.st95{fill:url(#SVGID_145_);}
	.st96{fill:url(#SVGID_146_);}
	.st97{fill:url(#SVGID_147_);}
	.st98{fill:url(#SVGID_148_);}
	.st99{fill:url(#SVGID_149_);}
	.st100{fill:url(#SVGID_150_);}
	.st101{fill:url(#SVGID_151_);}
	.st102{fill:url(#SVGID_152_);}
	.st103{fill:url(#SVGID_153_);}
	.st104{fill:url(#SVGID_154_);}
	.st105{fill:url(#SVGID_155_);}
	.st106{fill:url(#SVGID_156_);}
	.st107{fill:url(#SVGID_157_);}
	.st108{fill:url(#SVGID_158_);}
	.st109{fill:url(#SVGID_159_);}
	.st110{fill:url(#SVGID_160_);}
	.st111{fill:url(#SVGID_161_);}
	.st112{fill:url(#SVGID_162_);}
	.st113{fill:url(#SVGID_163_);}
	.st114{fill:url(#SVGID_164_);}
	.st115{fill:url(#SVGID_165_);}
	.st116{fill:url(#SVGID_166_);}
	.st117{fill:url(#SVGID_167_);}
	.st118{fill:url(#SVGID_168_);}
	.st119{fill:url(#SVGID_169_);}
	.st120{fill:url(#SVGID_170_);}
	.st121{fill:url(#SVGID_171_);}
	.st122{fill:url(#SVGID_172_);}
	.st123{fill:url(#SVGID_173_);}
	.st124{fill:url(#SVGID_174_);}
	.st125{fill:url(#SVGID_175_);}
	.st126{fill:url(#SVGID_176_);}
	.st127{fill:url(#SVGID_177_);}
	.st128{fill:url(#SVGID_178_);}
	.st129{fill:#F59A1C;}
	.st130{fill:#FFFFFF;stroke:#FFFFFF;stroke-width:14.1732;stroke-miterlimit:10;}
	.st131{opacity:0.8;fill:url(#SVGID_179_);}
	.st132{fill:#255C30;}
	.st133{fill:#C10C1A;}
	.st134{fill:#65C3CE;}
	.st135{fill:#31B7BC;}
	.st136{opacity:0.4;fill:#FFFFFF;}
	.st137{fill:#C3372A;}
	.st138{opacity:0.65;fill:#FFFFFF;}
	.st139{opacity:0.65;}
	.st140{opacity:0.8;fill:url(#SVGID_180_);}
	.st141{fill:#ED694B;}
	.st142{opacity:0.8;fill:url(#SVGID_181_);}
	.st143{clip-path:url(#SVGID_183_);}
	.st144{clip-path:url(#SVGID_185_);}
	.st145{clip-path:url(#SVGID_187_);}
	.st146{opacity:0.6;}
	.st147{opacity:0.6;fill:#FFFFFF;}
	.st148{opacity:0.8;fill:url(#SVGID_188_);}
	.st149{opacity:0.8;fill:url(#SVGID_189_);}
	.st150{opacity:0.8;fill:url(#SVGID_190_);}
	.st151{fill:none;stroke:#FFFFFF;stroke-width:35;stroke-linecap:round;stroke-linejoin:round;stroke-miterlimit:10;}
	.st152{opacity:0.8;fill:url(#SVGID_191_);}
	.st153{opacity:0.8;fill:url(#SVGID_192_);}
	.st154{fill:none;stroke:#FFFFFF;stroke-width:20;stroke-linecap:round;stroke-linejoin:round;stroke-miterlimit:10;}
	.st155{opacity:0.8;fill:url(#SVGID_193_);}
	.st156{fill:none;stroke:#FFFFFF;stroke-width:2;stroke-miterlimit:10;}
	.st157{opacity:0.75;fill:url(#SVGID_194_);}
	.st158{opacity:0.8;fill:url(#SVGID_195_);}
	.st159{fill:url(#SVGID_196_);}
	.st160{opacity:0.8;fill:url(#SVGID_197_);}
	.st161{opacity:0.8;fill:url(#SVGID_198_);}
	.st162{fill:url(#SVGID_199_);}
	.st163{fill:url(#SVGID_200_);}
	.st164{fill:url(#SVGID_201_);}
	.st165{fill:url(#SVGID_202_);}
	.st166{fill:url(#SVGID_203_);}
	.st167{opacity:0.8;fill:url(#SVGID_204_);}
	.st168{fill:url(#SVGID_205_);}
	.st169{opacity:0.1;}
	.st170{opacity:0.1;fill:#FFFFFF;}
	.st171{opacity:0.15;fill:#FFFFFF;}
	.st172{opacity:0.15;}
	.st173{opacity:0.8;fill:url(#SVGID_206_);}
	.st174{fill:url(#SVGID_207_);}
	.st175{fill:url(#SVGID_208_);}
	.st176{fill:url(#SVGID_209_);}
	.st177{opacity:0.8;fill:url(#SVGID_210_);}
	.st178{opacity:0.8;fill:url(#SVGID_211_);}
	.st179{opacity:0.8;fill:url(#SVGID_212_);}
	.st180{fill:#B2B2B2;}
	.st181{opacity:0.7;fill:url(#SVGID_213_);}
	.st182{opacity:0.9;fill:url(#SVGID_214_);}
	.st183{opacity:0.8;fill:url(#SVGID_215_);}
	.st184{opacity:0.8;fill:url(#SVGID_216_);}
	.st185{opacity:0.85;}
	.st186{fill:url(#SVGID_217_);}
	.st187{fill:url(#SVGID_218_);}
	.st188{fill:url(#SVGID_219_);}
	.st189{fill:url(#SVGID_220_);}
</style>
<g>
	<g>
		<g>
			<path class="st3" d="M1264.74,67.92c-6.49,0-11.77-5.13-11.77-11.43s5.28-11.43,11.77-11.43s11.77,5.13,11.77,11.43
				S1271.24,67.92,1264.74,67.92z M1264.74,51.33c-2.93,0-5.32,2.32-5.32,5.16s2.39,5.16,5.32,5.16s5.32-2.32,5.32-5.16
				S1267.68,51.33,1264.74,51.33z"/>
		</g>
	</g>
	<g>
		<rect x="0" y="0" class="st67" width="1400" height="230"/>
	</g>
	<g class="st2">
		<g>
			<path class="st3" d="M653.06,97.43C653.07,97.43,653.07,97.43,653.06,97.43c0.3-0.19,0.62-0.35,0.95-0.48
				c11.65-4.66,19.17-15.54,19.17-27.73V24.43c0-1.35-1.13-2.45-2.52-2.45h-57c-1.39,0-2.52,1.09-2.52,2.45v44.79
				c0,12.19,7.53,23.07,19.17,27.73c0.33,0.13,0.65,0.29,0.94,0.47c0,0,0,0,0,0c1.79,1.1,2.9,3.09,2.9,5.18v25.89H623.5
				c0.33-1.23,0.51-2.39,0.51-4.47c0-2.02-0.16-4.06-0.49-6.04c-0.02-0.14-0.06-0.27-0.1-0.4c-1.57-8.76-6.27-16.78-13.28-22.63
				c-7.84-6.54-15.9-9.36-26.08-9.36c-9.58,0-18.83,3.33-26.08,9.36c-7.01,5.85-11.71,13.86-13.28,22.63
				c-0.04,0.13-0.08,0.26-0.1,0.39c-0.32,1.99-0.49,4.02-0.49,6.04c0,2.82,0.32,3.94,0.92,5.85c0.16,0.49,0.33,1.04,0.53,1.72
				c0.3,1.06,1.3,1.79,2.43,1.79h116.23c1.39,0,2.52-1.09,2.52-2.45c0-1.35-1.13-2.45-2.52-2.45h-14.06v-25.89
				C650.17,100.52,651.28,98.53,653.06,97.43z M572.45,92.38c-1.96,2.99-3.13,6.75-3.13,10.83c0,1.35,1.13,2.45,2.52,2.45
				c1.39,0,2.52-1.09,2.52-2.45c0-7.01,4.35-12.72,9.7-12.72c5.35,0,9.7,5.71,9.7,12.72c0,1.35,1.13,2.45,2.52,2.45
				c1.39,0,2.52-1.09,2.52-2.45c0-4.16-1.1-7.86-2.95-10.77c10.8,3.7,19.18,12.37,22.05,23.48h-67.69
				C553.11,104.75,561.57,96.04,572.45,92.38z M618.27,128.44c-0.01,0.02-0.01,0.04-0.02,0.06h-68.37
				c-0.01-0.02-0.01-0.04-0.02-0.06c-0.51-1.6-0.7-2.2-0.7-4.41c0-1.01,0.05-2.02,0.14-3.03h69.53c0.09,1.01,0.14,2.02,0.14,3.03
				C618.97,126.24,618.78,126.84,618.27,128.44z M616.19,26.88h51.96v10.11h-13.4h-1.18h-37.37V26.88z M645.13,102.61v25.89h-5.92
				v-25.89c0-1.7-0.39-3.33-1.11-4.8h8.15C645.51,99.27,645.13,100.91,645.13,102.61z M633.29,92.91c-0.34-0.18-0.7-0.34-1.06-0.49
				c-9.75-3.9-16.05-13.01-16.05-23.2V42.07l41.41-0.19h10.55v27.34c0,10.2-6.3,19.3-16.05,23.2c-0.36,0.14-0.71,0.31-1.06,0.49
				H633.29z"/>
		</g>
		<g>
			<path class="st3" d="M656.83,68.42v-8.79c0-1.35-1.13-2.45-2.52-2.45h-5.14v-5.71c0-1.35-1.13-2.45-2.52-2.45h-9.06
				c-1.39,0-2.52,1.1-2.52,2.45v5.71h-5.14c-1.39,0-2.52,1.09-2.52,2.45v8.79c0,1.35,1.13,2.45,2.52,2.45h5.14v11.19
				c0,1.35,1.13,2.45,2.52,2.45h9.06c1.39,0,2.52-1.1,2.52-2.45V70.87h5.14C655.7,70.87,656.83,69.77,656.83,68.42z M651.79,65.97
				h-5.14c-1.39,0-2.52,1.1-2.52,2.45v11.19h-4.02V68.42c0-1.35-1.13-2.45-2.52-2.45h-5.14v-3.9h5.14c1.39,0,2.52-1.1,2.52-2.45
				v-5.71h4.02v5.71c0,1.35,1.13,2.45,2.52,2.45h5.14V65.97z"/>
		</g>
	</g>
	<g class="st2">
		<g>
			<path class="st3" d="M485.25,103.53V80.7c0-1.18-0.98-2.13-2.19-2.13h-8.96v-1.12c4.15-0.96,7.24-4.6,7.24-8.92
				c0-4.39-6.41-12.64-7.7-14.25c-0.42-0.52-1.06-0.82-1.73-0.82c-0.68,0-1.32,0.31-1.73,0.82c-1.29,1.61-7.7,9.85-7.7,14.25
				c0,4.32,3.09,7.95,7.24,8.92v1.12h-8.96c-1.21,0-2.19,0.95-2.19,2.13v22.83h-37.54V80.7c0-1.18-0.98-2.13-2.19-2.13h-8.96v-1.12
				c4.15-0.96,7.24-4.6,7.24-8.92c0-4.39-6.41-12.64-7.7-14.25c-0.41-0.52-1.05-0.82-1.73-0.82c-0.68,0-1.32,0.31-1.73,0.82
				c-1.29,1.61-7.7,9.85-7.7,14.25c0,4.32,3.09,7.95,7.24,8.92v1.12h-8.96c-1.21,0-2.19,0.95-2.19,2.13v22.83
				c-5.93,0.15-10.71,4.88-10.71,10.67v4.77c0,1.18,0.98,2.13,2.19,2.13h63.9h1.51h42.55c1.21,0,2.19-0.95,2.19-2.13v-4.77
				C495.97,108.41,491.19,103.68,485.25,103.53z M466.86,68.54c0-1.6,2.38-5.69,5.05-9.35c2.66,3.67,5.05,7.75,5.05,9.35
				c0,1.94-1.17,3.62-2.85,4.42v-2.32c0-1.18-0.98-2.13-2.19-2.13c-1.21,0-2.19,0.95-2.19,2.13v2.32
				C468.03,72.16,466.86,70.48,466.86,68.54z M462.95,82.83h17.91v5.69h-17.91V82.83z M462.95,92.78h17.91v10.75h-17.91V92.78z
				 M405.49,70.63v2.32c-1.69-0.8-2.85-2.48-2.85-4.42c0-1.6,2.38-5.69,5.05-9.35c2.66,3.67,5.05,7.75,5.05,9.35
				c0,1.94-1.16,3.62-2.85,4.42v-2.32c0-1.18-0.98-2.13-2.19-2.13C406.47,68.5,405.49,69.46,405.49,70.63z M398.72,82.83h17.91v5.69
				h-17.91V82.83z M398.72,92.78h17.91v10.75h-17.91V92.78z M491.58,116.84h-40.36h-1.51h-61.7v-2.64c0-3.54,2.96-6.41,6.61-6.41
				h90.35c3.64,0,6.61,2.88,6.61,6.41V116.84z"/>
		</g>
		<g>
			<path class="st3" d="M416.72,55.26h13.67v35.27c0,1.18,0.98,2.13,2.19,2.13h14.42c1.21,0,2.19-0.95,2.19-2.13V55.26h13.67
				c1.21,0,2.19-0.95,2.19-2.13v-14c0-1.18-0.98-2.13-2.19-2.13H449.2V22.59c0-1.18-0.98-2.13-2.19-2.13h-14.42
				c-1.21,0-2.19,0.95-2.19,2.13V37h-13.67c-1.21,0-2.19,0.95-2.19,2.13v14C414.52,54.31,415.51,55.26,416.72,55.26z M418.91,41.26
				h13.67c1.21,0,2.19-0.95,2.19-2.13V24.72h10.03v14.41c0,1.18,0.98,2.13,2.19,2.13h13.67V51h-13.67c-1.21,0-2.19,0.95-2.19,2.13
				V88.4h-10.03V53.13c0-1.18-0.98-2.13-2.19-2.13h-13.67V41.26z"/>
		</g>
	</g>
	<g class="st2">
		<g>
			<path class="st3" d="M1015.88,106.26l-23.6-22.97v-8.45h3.44c1.46,0,2.65-1.15,2.65-2.57c0-1.42-1.19-2.57-2.65-2.57h-3.44v-5.4
				c0-1.42-1.19-2.57-2.65-2.57c-1.46,0-2.65,1.15-2.65,2.57v5.4h-3.44c-1.46,0-2.65,1.15-2.65,2.57c0,1.42,1.19,2.57,2.65,2.57
				h3.44v8.45l-23.6,22.97c-0.49,0.48-0.77,1.13-0.77,1.82v16.91L897.95,125c-0.7,0-1.38,0.27-1.87,0.75l-14.29,13.87
				c-0.48,0.46-0.78,1.11-0.78,1.82v49.37c0,1.42,1.19,2.57,2.65,2.57h130.35c1.46,0,2.65-1.15,2.65-2.57v-82.73
				C1016.66,107.4,1016.38,106.74,1015.88,106.26z M904.32,188.23h-7.42v-25.14c0-1.98,1.66-3.6,3.71-3.6c2.05,0,3.71,1.61,3.71,3.6
				V188.23z M927.64,188.23h-7.42v-25.14c0-1.98,1.66-3.6,3.71-3.6s3.71,1.61,3.71,3.6V188.23z M950.95,188.23h-7.42v-25.14
				c0-1.98,1.66-3.6,3.71-3.6s3.71,1.61,3.71,3.6V188.23z M962.61,188.23h-6.36v-25.14c0-4.82-4.04-8.74-9.01-8.74
				c-4.97,0-9.01,3.92-9.01,8.74v25.14h-5.3v-25.14c0-4.82-4.04-8.74-9.01-8.74c-4.97,0-9.01,3.92-9.01,8.74v25.14h-5.3v-25.14
				c0-4.82-4.04-8.74-9.01-8.74c-4.97,0-9.01,3.92-9.01,8.74v25.14h-5.3v-44.22h76.3V188.23z M890.05,138.87l8.99-8.73l63.56-0.02
				v8.74H890.05z M996.52,188.23h-13.78v-33.17c0-3.69,3.09-6.68,6.89-6.68c3.8,0,6.89,3,6.89,6.68V188.23z M1011.36,188.23h-9.54
				v-33.17c0-6.52-5.47-11.83-12.19-11.83c-6.72,0-12.19,5.31-12.19,11.83v33.17h-9.54v-64.09l21.72-21.14l21.72,21.14V188.23z
				 M1011.36,116.86l-19.85-19.32c-0.5-0.48-1.17-0.76-1.88-0.76c-0.7,0-1.38,0.27-1.88,0.76l-19.85,19.32v-7.73L989.63,88
				l21.72,21.14V116.86z"/>
		</g>
		<g>
			<path class="st3" d="M979.83,127.55c0,5.25,4.4,9.51,9.8,9.51c5.41,0,9.8-4.27,9.8-9.51c0-5.25-4.4-9.51-9.8-9.51
				C984.23,118.04,979.83,122.31,979.83,127.55z M994.14,127.55c0,2.41-2.02,4.37-4.5,4.37c-2.48,0-4.5-1.96-4.5-4.37
				s2.02-4.37,4.5-4.37C992.12,123.18,994.14,125.14,994.14,127.55z"/>
		</g>
	</g>
	<g class="st2">
		<path class="st3" d="M838.03,46.1c-1.1-1.53-2.78-2.68-4.73-3.01c-4.04-0.69-7.9,1.93-8.61,5.85l-0.59,3.26l-14.59,6.71V46.97
			c0,0,6.91,1.75,7.12,1.75c1.1,0,2.1-0.71,2.39-1.79c0,0,2.53-9.27,2.54-9.29c0.35-1.27-0.46-2.6-1.76-2.94l-29.1-7.48
			c-1.39-2.64-3.89-4.73-7.07-5.55c-5.94-1.53-12.06,1.92-13.63,7.68c-1.56,5.69,2.08,11.72,7.92,13.22
			c2.98,0.77,6.34,0.26,8.98-1.42l17.65,4.54v15.49l-4.71,2.17c0,0-3.13-6.5-3.13-6.51c-0.57-1.19-2.08-1.72-3.31-1.16l-34.26,15.75
			c-1.23,0.57-1.76,1.99-1.18,3.19c0,0,8.37,17.42,8.38,17.42c0.57,1.18,2.06,1.71,3.27,1.17v20.62c0,0.8,0.41,1.55,1.1,2l13.76,8.9
			v14.81h-33.7c-1.37,0-2.48,1.08-2.48,2.4c0,1.32,1.11,2.4,2.48,2.4h78.29c0.65,0,1.29-0.26,1.75-0.7c0.46-0.45,0.73-1.07,0.73-1.7
			v-9.61c0-1.32-1.11-2.4-2.48-2.4c-1.37,0-2.48,1.08-2.48,2.4v7.21h-37.17l0-55.36l37.16-16.92v65.8c0,1.32,1.11,2.4,2.48,2.4
			c1.37,0,2.48-1.08,2.48-2.4V65l4.62-2.1c0.73-0.33,1.25-0.99,1.39-1.76c0,0,1.76-9.68,1.76-9.7
			C839.67,49.57,839.14,47.64,838.03,46.1L838.03,46.1z M811.35,37.5l4.79,1.23l-1.27,4.65l-4.79-1.23L811.35,37.5z M779.19,37.94
			c-3.27-0.84-5.27-4.18-4.4-7.35c0.7-2.57,3.24-4.47,5.98-4.47c0.53,0,1.07,0.07,1.6,0.2c3.3,0.85,5.28,4.14,4.4,7.35
			C785.89,36.87,782.5,38.78,779.19,37.94L779.19,37.94z M795.71,38.45l-5.06-1.3c0.38-0.7,0.69-1.45,0.91-2.25
			c0.22-0.8,0.34-1.6,0.36-2.39l5.06,1.3L795.71,38.45z M800.5,39.69l1.27-4.65l4.79,1.23l-1.27,4.65L800.5,39.69z M765.6,79.1
			l-2.09-4.36l29.78-13.69l2.09,4.35L765.6,79.1z M784.49,118.95l-9.91-6.41V90.95l9.91-4.51V118.95z M834.45,50.61l-1.54,8.47
			l-63.12,28.75l-2.1-4.36l59.69-27.45c0.72-0.33,1.24-0.99,1.38-1.75c0,0,0.82-4.48,0.82-4.48c0.24-1.29,1.53-2.18,2.87-1.95
			C833.72,48.04,834.69,49.29,834.45,50.61L834.45,50.61z M834.45,50.61"/>
	</g>
	<g class="st2">
		<g>
			<path class="st3" d="M355.78,75c0.4-1.02,0.58-2.15,0.47-3.33c-0.35-3.81-3.71-6.66-7.56-6.66l-0.82,0c0,0-0.01,0-0.01-0.01
				v-10.2c0-1.36-0.66-2.63-1.77-3.42l-4.24-3.01c0,0,0,0,0-0.01v-6.14c0-3.96-2.69-7.31-6.35-8.33c0,0-0.01,0-0.01-0.01v-2.77
				c0-1.04-0.85-1.88-1.89-1.88h-0.91c-1.04,0-1.89,0.84-1.89,1.88v2.77c0,0,0,0.01-0.01,0.01c-3.66,1.02-6.35,4.37-6.35,8.33v6.14
				c0,0,0,0,0,0.01l-4.24,3.01c-1.11,0.79-1.77,2.06-1.77,3.42v10.2c0,0,0,0.01-0.01,0.01l-0.82,0c-3.85,0-7.22,2.85-7.56,6.66
				c-0.11,1.18,0.07,2.31,0.47,3.33c0,0.01,0,0.01,0,0.01c-0.16,0-3.46,0-5.47,0c-0.85,0-1.54,0.69-1.54,1.53v1.5
				c0,0.9,0.73,1.62,1.63,1.62h2.8c0,0,0.01,0,0.01,0.01v8.14c0,6.12,4.99,11.07,11.14,11.07h11.71c0,0,0.01,0,0.01,0.01v5.06
				c0,0,0,0.01-0.01,0.01h-10.22c-1.13,0-2.04,0.91-2.04,2.03v0.6c0,1.12,0.91,2.03,2.04,2.03h25.09c1.15,0,2.08-0.93,2.08-2.07
				v-0.52c0-1.14-0.93-2.07-2.08-2.07h-10.17c0,0-0.01,0-0.01-0.01V98.9c0,0,0-0.01,0.01-0.01h11.71c6.15,0,11.14-4.96,11.14-11.07
				v-8.14c0,0,0-0.01,0.01-0.01h2.56c1.04,0,1.88-0.84,1.88-1.87V76.9c0-1.04-0.85-1.89-1.9-1.89c-2.02,0-4.96,0-5.11,0
				C355.78,75.01,355.78,75.01,355.78,75z M329.14,42.23c0-2.37,2.09-4.27,4.54-3.96c2.02,0.26,3.49,2.07,3.49,4.1v4.87
				c0,0,0,0.01-0.01,0.01h-8.01c0,0-0.01,0-0.01-0.01V42.23z M324.89,53.8l2.65-1.88c0,0,0,0,0,0h11.21c0,0,0,0,0,0l2.65,1.88
				c1.11,0.79,1.77,2.06,1.77,3.42v7.8c0,0,0,0.01-0.01,0.01h-20.04c0,0-0.01,0-0.01-0.01v-7.8
				C323.13,55.86,323.79,54.58,324.89,53.8z M317.39,69.68l31.41,0c1.4,0,2.65,1.01,2.79,2.4c0.16,1.59-1.1,2.93-2.67,2.93l-31.41,0
				c-1.4,0-2.65-1.01-2.79-2.4C314.57,71.02,315.82,69.68,317.39,69.68L317.39,69.68z M353.67,87.82c0,3.54-2.89,6.42-6.45,6.42
				H319.1c-3.56,0-6.45-2.87-6.45-6.42v-8.14c0,0,0-0.01,0.01-0.01h6.57c0,0,0.01,0,0.01,0.01v4.99c0,0.81,0.66,1.47,1.48,1.47h1.72
				c0.82,0,1.48-0.66,1.48-1.47v-4.99c0,0,0-0.01,0.01-0.01h6.88c0,0,0.01,0,0.01,0.01v4.99c0,0.81,0.66,1.47,1.48,1.47h1.72
				c0.82,0,1.48-0.66,1.48-1.47v-4.99c0,0,0-0.01,0.01-0.01h6.88c0,0,0.01,0,0.01,0.01v4.99c0,0.81,0.66,1.47,1.48,1.47h1.72
				c0.82,0,1.48-0.66,1.48-1.47v-4.99c0,0,0-0.01,0.01-0.01h6.57c0,0,0.01,0,0.01,0.01V87.82z M353.67,87.82"/>
		</g>
	</g>
	<g class="st2">
		<path class="st3" d="M529.57,56.77c-0.76,0-1.48,0.15-2.16,0.44c-2.16,0.92-3.6,2.87-3.6,5.01c0,2.87,2.47,5.12,5.61,5.12
			c3.34,0,5.42-2.61,5.42-5.01C534.84,60.52,533.55,56.77,529.57,56.77z"/>
	</g>
	<g class="st2">
		<path class="st3" d="M547.08,69.43c-0.76,0-1.48,0.15-2.16,0.44c-2.16,0.92-3.6,2.87-3.6,5.01c0,2.87,2.47,5.12,5.61,5.12
			c3.34,0,5.42-2.61,5.42-5.01C552.35,73.18,551.06,69.43,547.08,69.43z"/>
	</g>
	<g class="st2">
		<path class="st3" d="M862.1,143.08c-0.62,0-1.21,0.12-1.77,0.36c-1.77,0.75-2.94,2.35-2.94,4.09c0,2.35,2.01,4.18,4.59,4.18
			c2.73,0,4.43-2.14,4.43-4.09C866.41,146.15,865.35,143.08,862.1,143.08z"/>
	</g>
	<g class="st2">
		<path class="st3" d="M28.93,66.37c-0.91,0-1.77,0.18-2.59,0.53c-2.59,1.1-4.32,3.44-4.32,6c0,3.44,2.96,6.13,6.73,6.13
			c4,0,6.5-3.13,6.5-6C35.25,70.88,33.7,66.37,28.93,66.37z"/>
	</g>
	<g class="st2">
		<path class="st3" d="M716.57,65.39c-1.05,0-2.04,0.2-2.99,0.61c-2.99,1.27-4.98,3.97-4.98,6.92c0,3.97,3.41,7.07,7.76,7.07
			c4.61,0,7.5-3.61,7.5-6.92C723.86,70.58,722.08,65.39,716.57,65.39z"/>
	</g>
	<g class="st2">
		<path class="st3" d="M716.49,89.4c-0.81,0-1.58,0.16-2.31,0.47c-2.31,0.98-3.85,3.07-3.85,5.35c0,3.07,2.63,5.46,5.99,5.46
			c3.56,0,5.79-2.79,5.79-5.35C722.12,93.41,720.75,89.4,716.49,89.4z"/>
	</g>
	<g class="st2">
		<path class="st3" d="M716.43,111.48c-0.61,0-1.19,0.12-1.74,0.36c-1.74,0.74-2.9,2.31-2.9,4.03c0,2.31,1.99,4.12,4.52,4.12
			c2.69,0,4.37-2.1,4.37-4.03C720.67,114.51,719.64,111.48,716.43,111.48z"/>
	</g>
	<g class="st2">
		<path class="st3" d="M1177.91,76.59c1.05,0,2.04-0.2,2.99-0.61c2.99-1.27,4.98-3.97,4.98-6.92c0-3.97-3.41-7.07-7.76-7.07
			c-4.61,0-7.5,3.61-7.5,6.92C1170.62,71.4,1172.41,76.59,1177.91,76.59z"/>
	</g>
	<g class="st2">
		<path class="st3" d="M1177.99,52.58c0.81,0,1.58-0.16,2.31-0.47c2.31-0.98,3.85-3.07,3.85-5.35c0-3.07-2.63-5.46-5.99-5.46
			c-3.56,0-5.79,2.79-5.79,5.35C1172.36,48.57,1173.74,52.58,1177.99,52.58z"/>
	</g>
	<g class="st2">
		<path class="st3" d="M1178.05,30.5c0.61,0,1.19-0.12,1.74-0.36c1.74-0.74,2.9-2.31,2.9-4.03c0-2.31-1.99-4.12-4.52-4.12
			c-2.69,0-4.37,2.1-4.37,4.03C1173.81,27.47,1174.85,30.5,1178.05,30.5z"/>
	</g>
	<g class="st2">
		<g>
			<path class="st3" d="M716.22,52.64c-0.83,0-1.65-0.31-2.28-0.92l-12.07-11.72c-1.69-1.64-2.61-3.81-2.61-6.12
				s0.93-4.49,2.61-6.12c1.68-1.64,3.93-2.54,6.31-2.54c2.38,0,4.62,0.9,6.31,2.54l1.74,1.69l1.75-1.7
				c1.69-1.64,3.93-2.54,6.31-2.54c2.38,0,4.62,0.9,6.31,2.54c1.69,1.63,2.61,3.81,2.61,6.12c0,2.31-0.93,4.49-2.61,6.12
				l-12.09,11.73C717.88,52.34,717.05,52.64,716.22,52.64z M708.18,31.49c-0.66,0-1.28,0.25-1.74,0.7c-0.96,0.94-0.96,2.46,0,3.39
				l9.79,9.5l9.8-9.51c0.47-0.45,0.72-1.05,0.72-1.69c0-0.64-0.26-1.24-0.72-1.69c-0.96-0.93-2.53-0.94-3.49,0l-4.03,3.91
				c-0.61,0.59-1.43,0.92-2.28,0.92l0,0c-0.86,0-1.68-0.33-2.28-0.92l-4.02-3.9C709.46,31.74,708.84,31.49,708.18,31.49z"/>
		</g>
	</g>
	<g class="st2">
		<g>
			<path class="st3" d="M133.94,128.49c-6.49,0-11.77-5.13-11.77-11.43c0-6.3,5.28-11.43,11.77-11.43s11.77,5.13,11.77,11.43
				C145.71,123.37,140.43,128.49,133.94,128.49z M133.94,111.9c-2.93,0-5.32,2.32-5.32,5.16c0,2.85,2.39,5.16,5.32,5.16
				s5.32-2.32,5.32-5.16C139.25,114.22,136.87,111.9,133.94,111.9z"/>
		</g>
	</g>
	<g class="st2">
		<g>
			<path class="st3" d="M268.43,84.58c-6.49,0-11.77-5.13-11.77-11.43c0-6.3,5.28-11.43,11.77-11.43c6.49,0,11.77,5.13,11.77,11.43
				C280.2,79.46,274.92,84.58,268.43,84.58z M268.43,68c-2.93,0-5.32,2.32-5.32,5.16s2.39,5.16,5.32,5.16
				c2.93,0,5.32-2.32,5.32-5.16S271.36,68,268.43,68z"/>
		</g>
	</g>
	<g class="st2">
		<g>
			<g>
				<path class="st3" d="M276.48,120.2c-1.78,0-3.23-1.4-3.23-3.13c0-1.73,1.44-3.13,3.23-3.13l17.09,0c1.78,0,3.23,1.4,3.23,3.13
					c0,1.73-1.44,3.13-3.23,3.13L276.48,120.2z"/>
			</g>
		</g>
		<g>
			<g>
				<path class="st3" d="M285.51,128.01c-0.83,0-1.65-0.31-2.28-0.92c-1.26-1.22-1.26-3.21,0-4.43l5.78-5.61l-5.77-5.6
					c-1.26-1.22-1.26-3.21,0-4.43c1.26-1.22,3.3-1.22,4.56,0l8.05,7.81c0.61,0.59,0.95,1.38,0.95,2.22c0,0.83-0.34,1.63-0.95,2.21
					l-8.06,7.82C287.16,127.71,286.33,128.01,285.51,128.01z"/>
			</g>
		</g>
	</g>
	<g class="st2">
		<g>
			<g>
				<path class="st3" d="M383.13,38.21c-0.46-0.45-0.74-1.06-0.74-1.74l0-18.44c0-1.36,1.14-2.46,2.54-2.46
					c1.4,0,2.54,1.1,2.54,2.46l0,18.44c0,1.36-1.14,2.46-2.54,2.46C384.22,38.93,383.59,38.65,383.13,38.21z"/>
			</g>
		</g>
		<g>
			<g>
				<path class="st3" d="M373.63,28.99c-0.46-0.45-0.74-1.06-0.74-1.74c0-1.36,1.14-2.46,2.54-2.46l19.01,0
					c1.4,0,2.54,1.1,2.54,2.46c0,1.36-1.14,2.46-2.54,2.46l-19.01,0C374.72,29.71,374.09,29.43,373.63,28.99z"/>
			</g>
		</g>
	</g>
	<g class="st2">
		<g>
			<g>
				<path class="st3" d="M848.18,199.23c-0.65,0-1.3-0.24-1.79-0.72l-13.44-13.04c-0.99-0.96-0.99-2.52,0-3.48
					c0.99-0.96,2.6-0.96,3.59,0l13.44,13.04c0.99,0.96,0.99,2.52,0,3.48C849.48,198.99,848.83,199.23,848.18,199.23z"/>
			</g>
		</g>
		<g>
			<g>
				<path class="st3" d="M834.75,199.23c-0.65,0-1.3-0.24-1.79-0.72c-0.99-0.96-0.99-2.52,0-3.48l13.44-13.04
					c0.99-0.96,2.6-0.96,3.59,0c0.99,0.96,0.99,2.52,0,3.48l-13.44,13.04C836.04,198.99,835.4,199.23,834.75,199.23z"/>
			</g>
		</g>
	</g>
	<g class="st2">
		<g>
			<g>
				<path class="st3" d="M872.13,108.58c-0.65,0-1.3-0.24-1.79-0.72l-13.44-13.04c-0.99-0.96-0.99-2.52,0-3.48
					c0.99-0.96,2.6-0.96,3.59,0l13.44,13.04c0.99,0.96,0.99,2.52,0,3.48C873.42,108.34,872.78,108.58,872.13,108.58z"/>
			</g>
		</g>
		<g>
			<g>
				<path class="st3" d="M858.69,108.58c-0.65,0-1.3-0.24-1.79-0.72c-0.99-0.96-0.99-2.52,0-3.48l13.44-13.04
					c0.99-0.96,2.6-0.96,3.59,0c0.99,0.96,0.99,2.52,0,3.48l-13.44,13.04C859.99,108.34,859.34,108.58,858.69,108.58z"/>
			</g>
		</g>
	</g>
	<g class="st2">
		<g>
			<path class="st3" d="M278.49,33.41c-0.72,0-1.42-0.28-1.93-0.78l-6.81-6.6c-1.07-1.03-1.07-2.71,0-3.74
				c1.07-1.03,2.79-1.03,3.86,0l4.88,4.73l8.29-8.04c1.07-1.03,2.79-1.03,3.86,0c1.07,1.03,1.07,2.71,0,3.74l-10.22,9.92
				C279.91,33.13,279.22,33.41,278.49,33.41z"/>
		</g>
	</g>
	<g class="st2">
		<g>
			<path class="st3" d="M46.74,39.08c-0.72,0-1.42-0.28-1.93-0.78L38,31.7c-1.07-1.03-1.07-2.71,0-3.74c1.07-1.03,2.79-1.03,3.86,0
				l4.88,4.73l8.29-8.04c1.07-1.03,2.79-1.03,3.86,0c1.07,1.03,1.07,2.71,0,3.74l-10.22,9.92C48.15,38.8,47.46,39.08,46.74,39.08z"
				/>
		</g>
	</g>
	<g class="st2">
		<g>
			<g>
				<path class="st3" d="M184.72,98.3c-0.83,0-1.65-0.31-2.28-0.92L165.35,80.8c-1.26-1.22-1.26-3.21,0-4.43
					c1.26-1.22,3.3-1.22,4.56,0L187,92.96c1.26,1.22,1.26,3.21,0,4.43C186.37,98,185.55,98.3,184.72,98.3z"/>
			</g>
		</g>
		<g>
			<g>
				<path class="st3" d="M167.63,98.3c-0.83,0-1.65-0.31-2.28-0.92c-1.26-1.22-1.26-3.21,0-4.43l17.09-16.59
					c1.26-1.22,3.3-1.22,4.56,0c1.26,1.22,1.26,3.21,0,4.43l-17.09,16.59C169.28,98,168.46,98.3,167.63,98.3z"/>
			</g>
		</g>
	</g>
	<g class="st2">
		<g>
			<path class="st3" d="M505.16,40.9c-0.86,0-1.68-0.33-2.28-0.92l-8.05-7.81c-1.26-1.22-1.26-3.21,0-4.43
				c1.26-1.22,3.3-1.22,4.56,0l5.77,5.6l9.8-9.51c1.26-1.22,3.3-1.22,4.56,0c1.26,1.22,1.26,3.21,0,4.43l-12.08,11.73
				C506.84,40.57,506.02,40.9,505.16,40.9z"/>
		</g>
	</g>
	<g class="st2">
		<g>
			<path class="st3" d="M1166.92,172.1c-0.86,0-1.68-0.33-2.28-0.92l-8.05-7.81c-1.26-1.22-1.26-3.21,0-4.43
				c1.26-1.22,3.3-1.22,4.56,0l5.77,5.6l9.8-9.51c1.26-1.22,3.3-1.22,4.56,0c1.26,1.22,1.26,3.21,0,4.43l-12.08,11.73
				C1168.6,171.77,1167.78,172.1,1166.92,172.1z"/>
		</g>
	</g>
	<g class="st2">
		<g>
			<path class="st3" d="M360.66,58.7c-0.81,0-1.61-0.3-2.22-0.9c-1.23-1.19-1.23-3.13,0-4.32c0.48-0.47,0.75-1.09,0.75-1.75
				c0-0.66-0.26-1.28-0.75-1.75c-0.03-0.02-0.05-0.05-0.07-0.07c-3.37-3.35-3.34-8.74,0.08-12.06c1.23-1.19,3.22-1.19,4.45,0
				c1.23,1.19,1.23,3.13,0,4.32c-0.99,0.96-0.99,2.53,0,3.5c0.03,0.02,0.05,0.05,0.07,0.07c1.62,1.61,2.51,3.74,2.51,5.99
				c0,2.29-0.92,4.45-2.59,6.07C362.27,58.4,361.46,58.7,360.66,58.7z"/>
		</g>
	</g>
	<g class="st2">
		<g>
			<path class="st3" d="M302.95,58.4c-0.81,0-1.61-0.3-2.22-0.9c-1.23-1.19-1.23-3.13,0-4.32c0.48-0.47,0.75-1.09,0.75-1.75
				s-0.26-1.28-0.75-1.75c-0.03-0.03-0.06-0.06-0.09-0.09c-3.35-3.35-3.32-8.73,0.09-12.04c1.23-1.19,3.22-1.19,4.45,0
				c1.23,1.19,1.23,3.13,0,4.32c-0.99,0.97-0.99,2.54,0,3.5c0.03,0.03,0.06,0.06,0.09,0.09c1.61,1.61,2.5,3.73,2.5,5.98
				c0,2.29-0.92,4.45-2.59,6.07C304.56,58.1,303.76,58.4,302.95,58.4z"/>
		</g>
	</g>
	<g class="st2">
		<path class="st3" d="M62.37,61.55c-0.93,0-1.85-0.39-2.48-1.15c-1.11-1.33-0.89-3.28,0.48-4.35L76.48,43.4
			c1.18-0.93,2.86-0.92,4.03,0.02l13.8,11.04l14.09-11.06c1.18-0.93,2.86-0.92,4.03,0.02l13.8,11.04l14.09-11.06
			c1.18-0.93,2.86-0.92,4.03,0.02l15.81,12.65c1.36,1.09,1.55,3.04,0.43,4.36c-1.12,1.32-3.13,1.51-4.49,0.42l-13.8-11.04
			l-14.09,11.06c-1.18,0.93-2.86,0.92-4.03-0.02l-13.8-11.04L96.3,60.86c-1.18,0.93-2.86,0.92-4.03-0.02L78.46,49.8L64.37,60.86
			C63.78,61.32,63.07,61.55,62.37,61.55z"/>
	</g>
	<g class="st2">
		<path class="st3" d="M96.97,38.67c-0.93,0-1.85-0.39-2.48-1.15c-1.11-1.33-0.89-3.28,0.48-4.35l16.12-12.65
			c1.18-0.93,2.86-0.92,4.03,0.02l13.8,11.04l14.09-11.06c1.18-0.93,2.86-0.92,4.03,0.02l13.8,11.04l14.09-11.06
			c1.18-0.93,2.86-0.92,4.03,0.02l15.81,12.65c1.36,1.09,1.55,3.04,0.43,4.36s-3.13,1.51-4.49,0.42l-13.8-11.04l-14.09,11.06
			c-1.18,0.93-2.86,0.92-4.03-0.02L145,26.92l-14.09,11.06c-1.18,0.93-2.86,0.92-4.03-0.02l-13.8-11.04L98.98,37.98
			C98.39,38.44,97.68,38.67,96.97,38.67z"/>
	</g>
	<g class="st2">
		<path class="st3" d="M946.51,33.81c-0.81,0-1.62-0.34-2.17-1.01c-0.97-1.16-0.78-2.87,0.42-3.81l16.12-12.65
			c1.03-0.81,2.51-0.8,3.53,0.02l14.06,11.24l14.35-11.26c1.03-0.81,2.51-0.8,3.53,0.02l14.06,11.24l14.35-11.26
			c1.03-0.81,2.51-0.8,3.53,0.02l15.81,12.65c1.19,0.95,1.36,2.66,0.38,3.81c-0.98,1.15-2.74,1.32-3.93,0.37l-14.06-11.24
			l-14.35,11.26c-1.03,0.81-2.51,0.8-3.53-0.02l-14.06-11.24L980.2,33.21c-1.03,0.81-2.51,0.8-3.53-0.02l-14.06-11.24l-14.35,11.26
			C947.75,33.62,947.13,33.81,946.51,33.81z"/>
	</g>
	<g class="st2">
		<path class="st3" d="M1074.35,143.25c-0.37,0-0.68-0.29-0.68-0.66V63.54c0-3.15,0.4-6.38,1.18-9.61c0.02-0.14,0.04-0.24,0.07-0.33
			c1.47-5.9,4.31-11.55,8.18-16.28c1.51-1.83,3.32-3.6,5.7-5.57l17.1-14.94c0.93-0.81,2.14-1.26,3.38-1.26
			c1.25,0,2.45,0.45,3.38,1.26l17.15,14.99c2.34,1.94,4.14,3.7,5.63,5.52c6.09,7.42,9.44,16.73,9.44,26.21v79.05
			c0,0.36-0.3,0.66-0.68,0.66H1074.35z M1136.23,137.7l-24.01-30.47h-0.09v30.47H1136.23z M1106.42,137.7v-30.47h-0.09l-24.02,30.47
			H1106.42z M1139.16,132.28v-20.51l-12.57-15.96l-9.16,8.9L1139.16,132.28z M1079.4,132.28l21.73-27.57l-9.17-8.9l-12.55,15.95
			V132.28z M1139.16,102.62v-19l-8.49,8.23L1139.16,102.62z M1079.4,102.62l8.48-10.77l-8.48-8.23V102.62z M1110.82,101.69V74.86
			c-0.02-0.91,0.38-1.74,1.09-2.26c0.49-0.37,1.09-0.56,1.73-0.56c0.14,0,0.27,0.01,0.41,0.03l12.01-0.03V69.1h-12.42
			c-0.74,0-1.48-0.29-2.02-0.81c-0.55-0.54-0.84-1.26-0.83-1.98l0.03-9.92h-3.05v9.94c0,1.53-1.28,2.78-2.86,2.78h-12.42v2.96
			c0,0,12.42-0.03,12.42-0.03c0.13,0,0.23,0.02,0.3,0.04c0.2,0.03,0.39,0.06,0.58,0.12c0.24,0.08,0.41,0.17,0.56,0.26
			c0.05,0.01,0.19,0.06,0.33,0.17c0.02,0.02,0.05,0.04,0.07,0.06c0.01,0.01,0.02,0.02,0.03,0.03c0.05,0.03,0.1,0.06,0.15,0.11
			c0.14,0.14,0.21,0.26,0.25,0.34l0,0c0.13,0.15,0.23,0.29,0.29,0.44c0.09,0.17,0.13,0.33,0.17,0.45c0.05,0.17,0.1,0.32,0.11,0.51
			c0.02,0.05,0.04,0.13,0.04,0.23v26.89H1110.82z M1102.04,97.76V83l-6.59,8.37L1102.04,97.76z M1116.54,97.72l6.55-6.36l-6.55-8.31
			V97.72z M1127.17,87.41l11.99-11.63V63.54c0-0.95-0.05-1.96-0.16-3.07l-7.21,7v7.32c0,1.53-1.28,2.78-2.86,2.78l-9.48,0.03
			L1127.17,87.41z M1091.38,87.41l7.73-9.82l-9.47,0.03c-0.75,0-1.47-0.29-2.02-0.8c-0.54-0.53-0.84-1.24-0.84-1.97v-7.36l-7.22-7
			c-0.11,1.09-0.16,2.1-0.16,3.07v12.22L1091.38,87.41z M1127.74,63.55l10.04-9.74c-1.35-4.72-3.68-9.19-6.76-12.96l-14.48,14.06
			l-0.03,8.64H1127.74z M1102.06,63.55v-8.78l-14.44-14.01c-0.01,0.01-0.02,0.02-0.03,0.04c-3.1,3.78-5.45,8.27-6.81,13.02
			l10.05,9.74H1102.06z M1106.42,50.84v-27l-13.85,12.09c-0.35,0.28-0.68,0.56-0.98,0.83l14.51,14.08H1106.42z M1112.64,50.83
			l14.41-13.99c-0.33-0.28-0.66-0.57-1.02-0.87l-13.9-12.14v27H1112.64z"/>
	</g>
	<g class="st2">
		<path class="st3" d="M84.94,131.66H70.19c-1.57,0-2.84-1.24-2.84-2.76v-20.87H56.84c-1.57,0-2.84-1.24-2.84-2.76V90.96
			c0-1.52,1.27-2.76,2.84-2.76h10.51V77.38c0-1.52,1.27-2.76,2.84-2.76h14.75c1.57,0,2.84,1.24,2.84,2.76V88.2h10.51
			c1.57,0,2.84,1.24,2.84,2.76v14.32c0,1.52-1.27,2.76-2.84,2.76H87.79v20.87C87.79,130.43,86.51,131.66,84.94,131.66L84.94,131.66z
			 M73.03,126.14h9.07v-20.87c0-1.53,1.27-2.76,2.84-2.76h10.51v-8.8H84.94c-1.57,0-2.84-1.24-2.84-2.76V80.14h-9.07v10.81
			c0,1.52-1.27,2.76-2.84,2.76H59.68v8.8h10.51c1.57,0,2.84,1.23,2.84,2.76V126.14z M73.03,126.14"/>
	</g>
	<g class="st2">
		<g>
			<g>
				<path class="st3" d="M580.62,35.15c1.78,0,3.23,1.4,3.23,3.13c0,1.73-1.45,3.13-3.23,3.13l-17.09,0c-1.78,0-3.23-1.4-3.23-3.13
					c0-1.73,1.45-3.13,3.23-3.13L580.62,35.15z"/>
			</g>
		</g>
		<g>
			<g>
				<path class="st3" d="M571.59,27.33c0.83,0,1.65,0.31,2.28,0.92c1.26,1.22,1.26,3.21,0,4.43l-5.78,5.61l5.77,5.6
					c1.26,1.22,1.26,3.21,0,4.43c-1.26,1.22-3.3,1.22-4.56,0l-8.05-7.81c-0.61-0.59-0.95-1.38-0.95-2.22c0-0.83,0.34-1.63,0.95-2.21
					l8.06-7.82C569.94,27.64,570.76,27.33,571.59,27.33z"/>
			</g>
		</g>
	</g>
	<g class="st2">
		<g>
			<g>
				<path class="st3" d="M795.52,190.24c1.78,0,3.23,1.4,3.23,3.13c0,1.73-1.44,3.13-3.23,3.13l-17.09,0c-1.78,0-3.23-1.4-3.23-3.13
					c0-1.73,1.45-3.13,3.23-3.13L795.52,190.24z"/>
			</g>
		</g>
		<g>
			<g>
				<path class="st3" d="M786.49,182.43c0.83,0,1.65,0.31,2.28,0.92c1.26,1.22,1.26,3.21,0,4.43l-5.78,5.61l5.77,5.6
					c1.26,1.22,1.26,3.21,0,4.43s-3.3,1.22-4.56,0l-8.05-7.81c-0.61-0.59-0.95-1.38-0.95-2.22c0-0.83,0.34-1.63,0.95-2.21l8.06-7.82
					C784.84,182.73,785.66,182.43,786.49,182.43z"/>
			</g>
		</g>
	</g>
	<g class="st2">
		<path class="st3" d="M1267.83,178.38c-1.7,0-3.09-1.34-3.09-3c0-1.65,1.38-3,3.09-3h0.48c1.13-4.39,4.66-7.81,9.18-8.91v-2.29
			c0-3.02,0.89-5.92,2.58-8.41c-3.67-3.46-5.77-8.26-5.77-13.24v-18.66h-3.29c-1.7,0-3.09-1.34-3.09-3c0-1.65,1.38-3,3.09-3h3.29
			V74.22c0-6.77,5.68-12.28,12.65-12.28h0.1v-3.58c-7.31-1.41-12.75-7.79-12.75-15.08c0-3.13,0.97-6.15,2.8-8.73l10.51-14.58
			c0.58-0.8,1.52-1.28,2.53-1.28c1.01,0,1.95,0.48,2.53,1.28l10.49,14.56c1.84,2.58,2.81,5.61,2.81,8.74
			c0,7.28-5.44,13.66-12.75,15.08v3.58h0.1c6.98,0,12.65,5.51,12.65,12.28v40.66h3.29c1.7,0,3.09,1.34,3.09,3c0,1.65-1.38,3-3.09,3
			h-3.29v18.66c0,4.99-2.09,9.78-5.77,13.24c1.69,2.49,2.58,5.39,2.58,8.41v2.29c4.52,1.1,8.05,4.52,9.18,8.91h0.48
			c1.7,0,3.09,1.34,3.09,3c0,1.65-1.38,3-3.09,3H1267.83z M1305.4,172.39c-1.12-2-3.3-3.29-5.69-3.29h-19.13
			c-2.39,0-4.57,1.29-5.69,3.29H1305.4z M1296.62,163.11v-1.91c0-2.16-0.73-4.17-2.11-5.84h-8.74c-1.38,1.67-2.11,3.68-2.11,5.84
			v1.91H1296.62z M1294.87,149.36c3.1-2.35,4.94-6.01,4.94-9.82v-18.66h-19.33v18.66c0,3.81,1.84,7.47,4.94,9.82H1294.87z
			 M1299.81,114.88V74.22c0-3.47-2.91-6.29-6.48-6.29h-6.38c-3.57,0-6.48,2.82-6.48,6.29v40.66H1299.81z M1282.18,37.97
			c-1.11,1.56-1.7,3.4-1.7,5.31c0,4.07,2.66,7.61,6.58,8.89v-8.89c0-1.65,1.38-3,3.09-3s3.09,1.34,3.09,3v8.89
			c3.91-1.27,6.58-4.81,6.58-8.89c0-1.91-0.59-3.75-1.71-5.32l-7.96-11.04L1282.18,37.97z"/>
	</g>
	<g class="st2">
		<path class="st3" d="M1322.02,178.38c-1.7,0-3.09-1.34-3.09-3c0-1.65,1.38-3,3.09-3h0.48c1.13-4.39,4.66-7.81,9.18-8.91v-2.29
			c0-3.02,0.89-5.92,2.58-8.41c-3.67-3.46-5.77-8.26-5.77-13.24v-18.66h-3.29c-1.7,0-3.09-1.34-3.09-3c0-1.65,1.38-3,3.09-3h3.29
			V74.22c0-6.77,5.67-12.28,12.65-12.28h0.1v-3.58c-7.31-1.41-12.75-7.79-12.75-15.08c0-3.14,0.97-6.15,2.8-8.73l10.51-14.58
			c0.58-0.8,1.52-1.28,2.53-1.28s1.95,0.48,2.53,1.28l10.5,14.56c1.84,2.58,2.81,5.61,2.81,8.74c0,7.28-5.44,13.66-12.75,15.08v3.58
			h0.1c6.98,0,12.65,5.51,12.65,12.28v40.66h3.29c1.7,0,3.09,1.34,3.09,3c0,1.65-1.38,3-3.09,3h-3.29v18.66
			c0,4.98-2.09,9.78-5.77,13.24c1.69,2.49,2.58,5.39,2.58,8.41v2.29c4.53,1.1,8.05,4.52,9.18,8.91h0.48c1.7,0,3.09,1.34,3.09,3
			c0,1.65-1.38,3-3.09,3H1322.02z M1359.59,172.39c-1.12-2-3.3-3.29-5.69-3.29h-19.13c-2.39,0-4.57,1.29-5.69,3.29H1359.59z
			 M1350.81,163.11v-1.91c0-2.16-0.73-4.17-2.11-5.84h-8.74c-1.38,1.67-2.11,3.68-2.11,5.84v1.91H1350.81z M1349.06,149.36
			c3.1-2.35,4.94-6.01,4.94-9.82v-18.66h-19.33v18.66c0,3.81,1.84,7.47,4.94,9.82H1349.06z M1354,114.88V74.22
			c0-3.47-2.91-6.29-6.48-6.29h-6.38c-3.57,0-6.48,2.82-6.48,6.29v40.66H1354z M1336.37,37.97c-1.11,1.56-1.7,3.4-1.7,5.31
			c0,4.07,2.66,7.61,6.58,8.89v-8.89c0-1.65,1.38-3,3.09-3c1.7,0,3.09,1.34,3.09,3v8.89c3.91-1.27,6.58-4.81,6.58-8.89
			c0-1.91-0.59-3.75-1.71-5.32l-7.96-11.04L1336.37,37.97z"/>
	</g>
	<g class="st2">
		<path class="st3" d="M1213.64,178.38c-1.7,0-3.09-1.34-3.09-3c0-1.65,1.38-3,3.09-3h0.48c1.13-4.39,4.66-7.81,9.18-8.91v-2.29
			c0-3.02,0.89-5.92,2.58-8.41c-3.67-3.46-5.77-8.26-5.77-13.24v-18.66h-3.29c-1.7,0-3.09-1.34-3.09-3c0-1.65,1.38-3,3.09-3h3.29
			V74.22c0-6.77,5.68-12.28,12.65-12.28h0.1v-3.58c-7.31-1.41-12.75-7.79-12.75-15.08c0-3.13,0.97-6.15,2.8-8.73l10.51-14.58
			c0.58-0.8,1.52-1.28,2.53-1.28c1.01,0,1.95,0.48,2.53,1.28l10.5,14.56c1.84,2.58,2.81,5.61,2.81,8.74
			c0,7.28-5.44,13.66-12.75,15.08v3.58h0.1c6.98,0,12.65,5.51,12.65,12.28v40.66h3.29c1.7,0,3.09,1.34,3.09,3c0,1.65-1.38,3-3.09,3
			h-3.29v18.66c0,4.99-2.09,9.78-5.77,13.24c1.69,2.49,2.58,5.39,2.58,8.41v2.29c4.52,1.1,8.05,4.52,9.18,8.91h0.48
			c1.7,0,3.09,1.34,3.09,3c0,1.65-1.38,3-3.09,3H1213.64z M1251.21,172.39c-1.12-2-3.3-3.29-5.69-3.29h-19.13
			c-2.39,0-4.57,1.29-5.69,3.29H1251.21z M1242.43,163.11v-1.91c0-2.16-0.73-4.17-2.11-5.84h-8.74c-1.38,1.67-2.11,3.68-2.11,5.84
			v1.91H1242.43z M1240.68,149.36c3.1-2.35,4.94-6.01,4.94-9.82v-18.66h-19.33v18.66c0,3.81,1.84,7.47,4.94,9.82H1240.68z
			 M1245.62,114.88V74.22c0-3.47-2.91-6.29-6.48-6.29h-6.38c-3.57,0-6.48,2.82-6.48,6.29v40.66H1245.62z M1227.99,37.97
			c-1.11,1.56-1.7,3.4-1.7,5.31c0,4.07,2.66,7.61,6.58,8.89v-8.89c0-1.65,1.38-3,3.09-3c1.7,0,3.09,1.34,3.09,3v8.89
			c3.91-1.27,6.58-4.81,6.58-8.89c0-1.91-0.59-3.75-1.71-5.32l-7.96-11.04L1227.99,37.97z"/>
	</g>
	<g class="st2">
		<path class="st3" d="M1094.94,201.95c-0.38,0-0.75-0.09-1.08-0.26l-7.7-3.93l-7.72,3.93c-0.33,0.17-0.7,0.25-1.07,0.25
			c-0.48,0-0.94-0.14-1.33-0.41c-0.71-0.51-1.07-1.37-0.92-2.19l1.47-8.34l-6.24-5.9c-0.63-0.6-0.85-1.47-0.58-2.28
			c0.27-0.8,0.97-1.38,1.84-1.51l8.64-1.22l3.86-7.59c0.38-0.76,1.17-1.24,2.05-1.24c0.87,0,1.66,0.47,2.05,1.23l3.85,7.59
			l8.63,1.22c0.88,0.13,1.58,0.71,1.85,1.52c0.27,0.81,0.05,1.68-0.58,2.28l-6.24,5.91l1.47,8.34c0.15,0.82-0.2,1.68-0.91,2.18
			C1095.88,201.81,1095.42,201.95,1094.94,201.95z M1086.15,193.02c0.37,0,0.73,0.09,1.06,0.25l4.68,2.39l-0.89-5.05
			c-0.12-0.73,0.12-1.47,0.65-1.97l3.78-3.58l-5.22-0.74c-0.74-0.1-1.39-0.55-1.73-1.22l-2.34-4.59l-2.34,4.59
			c-0.33,0.66-0.98,1.12-1.73,1.22l-5.21,0.73l3.78,3.57c0.54,0.51,0.78,1.25,0.66,1.97l-0.9,5.05l4.67-2.38
			C1085.41,193.11,1085.78,193.02,1086.15,193.02z"/>
	</g>
	<g class="st2">
		<path class="st3" d="M941.8,107.62c-0.36,0-0.71-0.09-1.02-0.25l-7.3-3.72l-7.31,3.73c-0.31,0.16-0.66,0.24-1.01,0.24
			c-0.45,0-0.89-0.13-1.26-0.39c-0.68-0.49-1.01-1.3-0.88-2.07l1.39-7.9l-5.91-5.59c-0.6-0.57-0.81-1.39-0.55-2.16
			c0.25-0.76,0.92-1.31,1.74-1.44l8.19-1.15l3.66-7.19c0.36-0.72,1.11-1.17,1.94-1.17c0.83,0,1.57,0.45,1.95,1.17l3.65,7.19
			l8.18,1.15c0.83,0.13,1.5,0.68,1.75,1.44c0.26,0.76,0.05,1.59-0.55,2.16l-5.92,5.6l1.39,7.9c0.15,0.78-0.19,1.59-0.86,2.06
			C942.7,107.48,942.26,107.62,941.8,107.62z M933.47,99.16c0.35,0,0.7,0.08,1.01,0.24l4.44,2.26l-0.84-4.78
			c-0.12-0.69,0.11-1.39,0.62-1.87l3.58-3.39l-4.95-0.7c-0.7-0.09-1.32-0.53-1.64-1.15l-2.21-4.35l-2.21,4.35
			c-0.32,0.63-0.93,1.06-1.64,1.15l-4.94,0.7l3.58,3.39c0.51,0.49,0.74,1.18,0.63,1.86l-0.85,4.79l4.43-2.26
			C932.78,99.24,933.12,99.16,933.47,99.16z"/>
	</g>
	<g class="st2">
		<path class="st3" d="M1178.52,85.84c-0.81,0-1.58,0.16-2.31,0.47c-2.31,0.98-3.85,3.07-3.85,5.35c0,3.07,2.63,5.46,5.99,5.46
			c3.56,0,5.79-2.79,5.79-5.35C1184.15,89.85,1182.77,85.84,1178.52,85.84z"/>
	</g>
	<g class="st2">
		<path class="st3" d="M1178.45,107.92c-0.61,0-1.19,0.12-1.74,0.36c-1.74,0.74-2.9,2.31-2.9,4.03c0,2.31,1.99,4.12,4.52,4.12
			c2.69,0,4.37-2.1,4.37-4.03C1182.7,110.95,1181.66,107.92,1178.45,107.92z"/>
	</g>
	<g class="st2">
		<path class="st3" d="M1037.79,161.06c-0.71,0-1.43-0.23-2.03-0.71c-1.36-1.09-1.55-3.04-0.43-4.36l11.38-13.4l-11.39-13.68
			c-0.95-1.14-0.94-2.78,0.02-3.91l11.38-13.4l-11.39-13.68c-0.95-1.14-0.94-2.78,0.02-3.91l11.38-13.4l-11.39-13.68
			c-1.11-1.33-0.89-3.28,0.48-4.35c1.37-1.08,3.38-0.87,4.49,0.46l13.03,15.64c0.95,1.14,0.94,2.78-0.02,3.91l-11.38,13.4
			l11.39,13.68c0.95,1.14,0.94,2.78-0.02,3.91l-11.38,13.4l11.39,13.68c0.95,1.14,0.94,2.78-0.02,3.91l-13.03,15.35
			C1039.62,160.68,1038.71,161.06,1037.79,161.06z"/>
	</g>
	<g class="st2">
		<path class="st3" d="M1369.74,198.76H1182.7c-1.76,0-3.19-1.39-3.19-3.1s1.43-3.1,3.19-3.1h187.04c1.76,0,3.19,1.39,3.19,3.1
			S1371.5,198.76,1369.74,198.76z"/>
	</g>
	<g class="st2">
		<path class="st3" d="M1319.81,212.09h-187.04c-1.76,0-3.19-1.39-3.19-3.1s1.43-3.1,3.19-3.1h187.04c1.76,0,3.19,1.39,3.19,3.1
			S1321.57,212.09,1319.81,212.09z"/>
	</g>
	<g class="st2">
		<path class="st3" d="M212.42,128.28c-1.28,0-2.33-1.01-2.33-2.26s1.04-2.26,2.33-2.26h0.04c0.8-2.72,2.99-4.85,5.8-5.63v-1.2
			c0-1.91,0.54-3.74,1.55-5.34c-2.29-2.27-3.6-5.34-3.6-8.53V91.45h-1.75c-1.28,0-2.33-1.01-2.33-2.26s1.04-2.26,2.33-2.26h1.75
			v-25.7c0-4.43,3.64-8.05,8.17-8.2v-1.68c-4.7-1.04-8.17-5.2-8.17-9.93c0-2.08,0.64-4.08,1.86-5.78l6.73-9.34
			c0.43-0.6,1.15-0.97,1.91-0.97c0.76,0,1.47,0.36,1.91,0.97l6.72,9.33c1.22,1.71,1.87,3.72,1.87,5.79c0,4.73-3.47,8.89-8.17,9.93
			v1.68c4.53,0.15,8.17,3.77,8.17,8.2v25.7h1.75c1.28,0,2.33,1.01,2.33,2.26s-1.04,2.26-2.33,2.26h-1.75v11.61
			c0,3.19-1.3,6.26-3.6,8.53c1.02,1.6,1.55,3.43,1.55,5.34v1.2c2.81,0.78,5,2.9,5.8,5.63H241c1.28,0,2.33,1.01,2.33,2.26
			s-1.04,2.26-2.33,2.26H212.42z M235.83,123.76c-0.71-0.88-1.81-1.42-3-1.42h-12.25c-1.19,0-2.29,0.54-3,1.42H235.83z
			 M230.5,117.81v-0.89c0-1.25-0.4-2.42-1.17-3.4h-5.25c-0.77,0.98-1.17,2.15-1.17,3.4v0.89H230.5z M229.61,109.01
			c1.84-1.45,2.93-3.65,2.93-5.95V91.45h-11.68v11.61c0,2.3,1.09,4.5,2.93,5.95H229.61z M232.54,86.93v-25.7
			c0-2.03-1.7-3.68-3.8-3.68h-4.08c-2.09,0-3.8,1.65-3.8,3.68v25.7H232.54z M221.89,38.21c-0.67,0.94-1.02,2.05-1.02,3.2
			c0,2.3,1.4,4.31,3.51,5.2v-5.2c0-1.25,1.04-2.26,2.33-2.26c1.28,0,2.33,1.01,2.33,2.26v5.2c2.11-0.88,3.51-2.9,3.51-5.2
			c0-1.16-0.36-2.27-1.03-3.22l-4.81-6.67L221.89,38.21z"/>
	</g>
	<linearGradient id="SVGID_2_" gradientUnits="userSpaceOnUse" x1="-3.514" y1="201.3806" x2="1403.514" y2="28.6193">
		<stop  offset="0" style="stop-color:#FFCD03"/>
		<stop  offset="0.2276" style="stop-color:#FCC506"/>
		<stop  offset="0.618" style="stop-color:#F4AF0C"/>
		<stop  offset="1" style="stop-color:#EA9411"/>
	</linearGradient>
	<rect x="0" y="0" style="opacity:0.8;fill:url(#SVGID_2_);" width="1400" height="230"/>
	<g>
		<g>
			<path class="st3" d="M33.29,198.31V162.4h7.85v29.62h15.01v6.29H33.29z"/>
		</g>
		<g>
			<path class="st3" d="M61.64,163.75c0-2.44,1.4-3.66,4.2-3.66c2.8,0,4.2,1.22,4.2,3.66c0,1.16-0.35,2.07-1.05,2.71
				c-0.7,0.65-1.75,0.97-3.15,0.97C63.04,167.44,61.64,166.21,61.64,163.75z M69.68,198.31h-7.72v-27.46h7.72V198.31z"/>
		</g>
		<g>
			<path class="st3" d="M89.7,192.84c1.35,0,2.97-0.29,4.86-0.86v5.58c-1.92,0.84-4.29,1.25-7.09,1.25c-3.09,0-5.34-0.76-6.75-2.27
				c-1.41-1.51-2.11-3.79-2.11-6.82v-13.24h-3.7v-3.17l4.25-2.51l2.23-5.8h4.94v5.85h7.92v5.63h-7.92v13.24
				c0,1.06,0.31,1.85,0.92,2.36C87.88,192.58,88.69,192.84,89.7,192.84z"/>
		</g>
		<g>
			<path class="st3" d="M120.33,198.31l-1.04-3.51h-0.4c-0.83,1.28-2,2.26-3.52,2.96c-1.52,0.7-3.25,1.04-5.19,1.04
				c-3.32,0-5.83-0.86-7.52-2.59c-1.69-1.73-2.53-4.21-2.53-7.45v-17.91h7.72v16.04c0,1.98,0.36,3.47,1.09,4.46
				c0.73,0.99,1.88,1.49,3.47,1.49c2.16,0,3.72-0.7,4.68-2.1c0.96-1.4,1.44-3.72,1.44-6.96v-12.92h7.72v27.46H120.33z"/>
		</g>
		<g>
			<path class="st3" d="M150.14,170.34c1.05,0,1.91,0.07,2.61,0.22l-0.58,7.02c-0.62-0.16-1.38-0.25-2.28-0.25
				c-2.46,0-4.38,0.61-5.76,1.84c-1.38,1.23-2.06,2.95-2.06,5.16v13.98h-7.72v-27.46h5.85l1.14,4.62h0.38
				c0.88-1.54,2.06-2.78,3.56-3.72C146.77,170.81,148.39,170.34,150.14,170.34z"/>
		</g>
		<g>
			<path class="st3" d="M182.52,170.85v3.81l-4.43,1.11c0.81,1.23,1.21,2.6,1.21,4.13c0,2.95-1.06,5.24-3.18,6.89
				c-2.12,1.65-5.06,2.47-8.82,2.47l-1.39-0.07l-1.14-0.12c-0.79,0.59-1.19,1.24-1.19,1.97c0,1.08,1.42,1.62,4.25,1.62h4.81
				c3.1,0,5.47,0.65,7.1,1.94c1.63,1.29,2.44,3.19,2.44,5.7c0,3.21-1.38,5.7-4.14,7.47c-2.76,1.77-6.72,2.65-11.88,2.65
				c-3.95,0-6.96-0.67-9.05-2c-2.08-1.33-3.13-3.21-3.13-5.61c0-1.65,0.53-3.04,1.59-4.15c1.06-1.11,2.62-1.91,4.68-2.38
				c-0.79-0.33-1.49-0.86-2.08-1.61c-0.59-0.74-0.89-1.53-0.89-2.37c0-1.05,0.31-1.92,0.94-2.62c0.62-0.7,1.53-1.38,2.71-2.05
				c-1.49-0.62-2.66-1.62-3.53-3c-0.87-1.38-1.3-3-1.3-4.86c0-3,1-5.31,3.01-6.95c2.01-1.64,4.88-2.46,8.61-2.46
				c0.79,0,1.73,0.07,2.82,0.21c1.09,0.14,1.78,0.24,2.09,0.31H182.52z M160.67,202.19c0,1.03,0.51,1.84,1.53,2.43
				c1.02,0.59,2.45,0.88,4.29,0.88c2.77,0,4.94-0.37,6.5-1.1c1.57-0.74,2.35-1.74,2.35-3.02c0-1.03-0.46-1.74-1.39-2.14
				c-0.93-0.39-2.36-0.59-4.3-0.59h-4c-1.42,0-2.6,0.32-3.56,0.97C161.15,200.27,160.67,201.13,160.67,202.19z M163.48,179.84
				c0,1.49,0.35,2.67,1.05,3.54c0.7,0.87,1.77,1.3,3.2,1.3c1.45,0,2.51-0.43,3.19-1.3c0.67-0.87,1.01-2.05,1.01-3.54
				c0-3.31-1.4-4.96-4.2-4.96C164.9,174.88,163.48,176.54,163.48,179.84z"/>
		</g>
		<g>
			<path class="st3" d="M186.84,163.75c0-2.44,1.4-3.66,4.2-3.66c2.8,0,4.2,1.22,4.2,3.66c0,1.16-0.35,2.07-1.05,2.71
				c-0.7,0.65-1.75,0.97-3.15,0.97C188.24,167.44,186.84,166.21,186.84,163.75z M194.89,198.31h-7.72v-27.46h7.72V198.31z"/>
		</g>
		<g>
			<path class="st3" d="M214.48,198.8c-8.81,0-13.21-4.69-13.21-14.07c0-4.67,1.2-8.23,3.59-10.7c2.4-2.46,5.83-3.7,10.3-3.7
				c3.27,0,6.21,0.62,8.81,1.87l-2.28,5.8c-1.21-0.47-2.35-0.86-3.39-1.17c-1.05-0.3-2.09-0.45-3.14-0.45
				c-4.02,0-6.02,2.77-6.02,8.3c0,5.37,2.01,8.06,6.02,8.06c1.48,0,2.86-0.19,4.13-0.58s2.53-0.99,3.8-1.81v6.41
				c-1.25,0.77-2.51,1.3-3.78,1.6C218.03,198.66,216.42,198.8,214.48,198.8z"/>
		</g>
		<g>
			<path class="st3" d="M249.33,198.31h-22.35v-4.42l13.11-17.32h-12.33v-5.72h21.11v4.86l-12.76,16.87h13.21V198.31z"/>
		</g>
		<g>
			<path class="st3" d="M281.05,198.31h-7.72v-16.04c0-1.98-0.36-3.47-1.09-4.46c-0.73-0.99-1.88-1.49-3.47-1.49
				c-2.16,0-3.72,0.7-4.68,2.1c-0.96,1.4-1.44,3.72-1.44,6.96v12.92h-7.72v-27.46h5.9l1.04,3.51h0.43c0.86-1.33,2.05-2.33,3.56-3.01
				c1.51-0.68,3.23-1.02,5.15-1.02c3.29,0,5.79,0.86,7.49,2.59c1.7,1.73,2.56,4.22,2.56,7.48V198.31z"/>
		</g>
		<g>
			<path class="st3" d="M306.97,198.31l-1.49-3.73h-0.2c-1.3,1.59-2.64,2.69-4.01,3.3c-1.38,0.61-3.17,0.92-5.38,0.92
				c-2.72,0-4.86-0.75-6.42-2.26c-1.56-1.51-2.34-3.65-2.34-6.44c0-2.91,1.05-5.06,3.15-6.45c2.1-1.38,5.27-2.15,9.5-2.3l4.91-0.15
				v-1.2c0-2.78-1.47-4.18-4.4-4.18c-2.26,0-4.92,0.66-7.97,1.99l-2.56-5.06c3.26-1.65,6.87-2.48,10.83-2.48
				c3.8,0,6.71,0.8,8.73,2.41c2.02,1.61,3.04,4.04,3.04,7.32v18.3H306.97z M304.69,185.59l-2.99,0.1c-2.24,0.07-3.91,0.46-5.01,1.18
				c-1.1,0.72-1.65,1.82-1.65,3.29c0,2.11,1.25,3.17,3.75,3.17c1.79,0,3.22-0.5,4.29-1.5c1.07-1,1.61-2.32,1.61-3.98V185.59z"/>
		</g>
		<g>
			<path class="st3" d="M355.38,189.05c0,3-1.14,5.37-3.4,7.12c-2.27,1.75-5.29,2.63-9.05,2.63c-4.52,0-7.99-0.48-10.4-1.45v-2.5
				c2.67,1.1,6.07,1.65,10.2,1.65c3.04,0,5.45-0.68,7.23-2.03c1.78-1.35,2.67-3.12,2.67-5.32c0-1.36-0.3-2.48-0.89-3.38
				c-0.59-0.89-1.55-1.71-2.89-2.44c-1.33-0.74-3.29-1.53-5.87-2.38c-3.78-1.26-6.39-2.62-7.83-4.09c-1.44-1.47-2.16-3.42-2.16-5.86
				c0-2.69,1.08-4.88,3.25-6.57c2.17-1.69,4.96-2.54,8.36-2.54c3.48,0,6.74,0.64,9.79,1.92l-0.94,2.16
				c-3.07-1.24-6.01-1.87-8.81-1.87c-2.73,0-4.91,0.61-6.53,1.84s-2.43,2.9-2.43,5.01c0,1.33,0.25,2.42,0.75,3.27
				c0.5,0.85,1.31,1.62,2.44,2.3c1.13,0.68,3.07,1.49,5.82,2.44c2.89,0.97,5.05,1.9,6.5,2.81c1.45,0.91,2.51,1.94,3.18,3.09
				C355.05,186.02,355.38,187.42,355.38,189.05z"/>
		</g>
		<g>
			<path class="st3" d="M365.08,178.25l3.87-2.53l1.09,1.72l-4.96,3.22v17.66h-2.51v-16.04l-3.26,2.11l-1.14-1.77l4.4-2.82v-19.7
				h2.51V178.25z"/>
		</g>
		<g>
			<path class="st3" d="M376.47,171.61v17.29c0,2.69,0.58,4.64,1.75,5.86c1.16,1.22,2.97,1.83,5.42,1.83c3.27,0,5.68-0.8,7.23-2.41
				c1.54-1.6,2.32-4.22,2.32-7.84v-14.74h2.48v26.7h-2.13l-0.46-3.68h-0.15c-1.79,2.78-4.97,4.18-9.54,4.18
				c-6.26,0-9.39-3.25-9.39-9.75v-17.44H376.47z"/>
		</g>
		<g>
			<path class="st3" d="M421.97,198.31h-19.64v-1.55l16.32-22.99h-15.14v-2.16h18.4v1.55l-16.43,22.99h16.48V198.31z M411.04,164.2
				c0-1.57,0.54-2.36,1.62-2.36c0.52,0,0.93,0.2,1.21,0.61c0.29,0.41,0.43,0.99,0.43,1.74c0,0.74-0.14,1.32-0.43,1.74
				c-0.29,0.43-0.69,0.64-1.21,0.64C411.58,166.58,411.04,165.78,411.04,164.2z"/>
		</g>
		<g>
			<path class="st3" d="M440.37,171.1c3.85,0,6.75,1.18,8.69,3.52c1.95,2.35,2.92,5.78,2.92,10.3c0,4.44-1.02,7.86-3.08,10.27
				c-2.05,2.41-4.93,3.61-8.64,3.61c-1.96,0-3.72-0.39-5.29-1.18c-1.57-0.79-2.81-1.9-3.72-3.34h-0.23l-0.71,4.03h-1.57v-38.22h2.51
				v9.6c0,1.44-0.03,2.77-0.1,3.98l-0.08,2.09h0.18c1.05-1.6,2.31-2.78,3.78-3.54C436.52,171.48,438.3,171.1,440.37,171.1z
				 M440.32,173.31c-3.24,0-5.56,0.9-6.96,2.7c-1.4,1.8-2.1,4.77-2.1,8.92v0.42c0,4.03,0.73,6.92,2.19,8.67
				c1.46,1.75,3.73,2.63,6.82,2.63c3,0,5.26-1.02,6.78-3.06c1.52-2.04,2.28-4.94,2.28-8.71
				C449.33,177.17,446.33,173.31,440.32,173.31z"/>
		</g>
		<g>
			<path class="st3" d="M476.31,198.31l-0.63-4.22h-0.2c-1.38,1.72-2.81,2.94-4.26,3.65c-1.46,0.71-3.18,1.07-5.18,1.07
				c-2.7,0-4.8-0.67-6.3-2.01c-1.5-1.34-2.25-3.2-2.25-5.58c0-2.6,1.12-4.63,3.35-6.07c2.24-1.44,5.47-2.2,9.71-2.28l5.24-0.15
				v-1.77c0-2.54-0.53-4.45-1.59-5.75c-1.06-1.29-2.78-1.94-5.14-1.94c-2.55,0-5.19,0.69-7.92,2.06l-0.94-2.11
				c3.02-1.38,6.01-2.06,8.96-2.06c3.02,0,5.28,0.76,6.77,2.28c1.49,1.52,2.24,3.9,2.24,7.12v17.76H476.31z M466.19,196.59
				c2.94,0,5.25-0.81,6.95-2.44c1.7-1.63,2.54-3.89,2.54-6.79v-2.63l-4.81,0.2c-3.86,0.18-6.62,0.77-8.26,1.76
				c-1.64,0.99-2.47,2.53-2.47,4.63c0,1.67,0.53,2.97,1.58,3.89C462.78,196.13,464.27,196.59,466.19,196.59z"/>
		</g>
		<g>
			<path class="st3" d="M532.28,180.31c0,5.7-1.47,10.21-4.4,13.52c-2.94,3.32-6.99,4.97-12.15,4.97c-5.15,0-9.19-1.66-12.12-4.97
				c-2.94-3.32-4.4-7.84-4.4-13.57c0-5.71,1.48-10.21,4.44-13.5c2.96-3.28,7.01-4.92,12.14-4.92c5.16,0,9.2,1.65,12.12,4.95
				C530.82,170.09,532.28,174.59,532.28,180.31z M502,180.31c0,5.14,1.18,9.12,3.54,11.92c2.36,2.81,5.75,4.21,10.17,4.21
				c4.45,0,7.86-1.39,10.21-4.18c2.35-2.78,3.53-6.77,3.53-11.96c0-5.17-1.18-9.14-3.53-11.9c-2.35-2.76-5.74-4.14-10.16-4.14
				c-4.4,0-7.8,1.39-10.19,4.18C503.2,171.23,502,175.18,502,180.31z"/>
		</g>
		<g>
			<path class="st3" d="M542.65,178.25l3.87-2.53l1.09,1.72l-4.96,3.22v17.66h-2.51v-16.04l-3.26,2.11l-1.14-1.77l4.4-2.82v-19.7
				h2.51V178.25z"/>
		</g>
		<g>
			<path class="st3" d="M559.13,196.64c1.59,0,2.97-0.13,4.15-0.39v1.97c-1.21,0.39-2.62,0.59-4.2,0.59c-2.43,0-4.22-0.63-5.38-1.89
				c-1.16-1.26-1.73-3.24-1.73-5.94v-17.24h-4.07v-1.43l4.07-1.1l1.27-6.04h1.29v6.46h8.07v2.11h-8.07v16.9
				c0,2.05,0.37,3.56,1.11,4.54C556.38,196.15,557.54,196.64,559.13,196.64z"/>
		</g>
		<g>
			<path class="st3" d="M585.93,198.31l-0.63-4.22h-0.2c-1.38,1.72-2.81,2.94-4.26,3.65c-1.46,0.71-3.18,1.07-5.18,1.07
				c-2.7,0-4.8-0.67-6.3-2.01c-1.5-1.34-2.25-3.2-2.25-5.58c0-2.6,1.12-4.63,3.35-6.07c2.24-1.44,5.47-2.2,9.71-2.28l5.24-0.15
				v-1.77c0-2.54-0.53-4.45-1.59-5.75c-1.06-1.29-2.78-1.94-5.14-1.94c-2.55,0-5.19,0.69-7.92,2.06l-0.94-2.11
				c3.02-1.38,6.01-2.06,8.96-2.06c3.02,0,5.28,0.76,6.77,2.28c1.49,1.52,2.24,3.9,2.24,7.12v17.76H585.93z M575.81,196.59
				c2.94,0,5.25-0.81,6.95-2.44c1.7-1.63,2.54-3.89,2.54-6.79v-2.63l-4.81,0.2c-3.86,0.18-6.62,0.77-8.26,1.76
				c-1.64,0.99-2.47,2.53-2.47,4.63c0,1.67,0.53,2.97,1.58,3.89C572.4,196.13,573.89,196.59,575.81,196.59z"/>
		</g>
		<g>
			<path class="st3" d="M607.52,171.1c1.16,0,2.41,0.11,3.75,0.34l-0.48,2.33c-1.15-0.28-2.34-0.42-3.57-0.42
				c-2.35,0-4.27,0.97-5.77,2.9c-1.5,1.93-2.25,4.37-2.25,7.32v14.74h-2.51v-26.7h2.13l0.25,4.81h0.18
				c1.13-1.97,2.34-3.34,3.62-4.14C604.15,171.5,605.7,171.1,607.52,171.1z"/>
		</g>
		<g>
			<path class="st3" d="M633.97,198.31h-19.64v-1.55l16.32-22.99h-15.14v-2.16h18.4v1.55l-16.43,22.99h16.48V198.31z"/>
		</g>
		<g>
			<path class="st3" d="M657.46,198.31l-0.63-4.22h-0.2c-1.38,1.72-2.81,2.94-4.26,3.65c-1.46,0.71-3.18,1.07-5.18,1.07
				c-2.7,0-4.8-0.67-6.3-2.01c-1.5-1.34-2.25-3.2-2.25-5.58c0-2.6,1.12-4.63,3.35-6.07c2.24-1.44,5.47-2.2,9.71-2.28l5.24-0.15
				v-1.77c0-2.54-0.53-4.45-1.59-5.75c-1.06-1.29-2.78-1.94-5.14-1.94c-2.55,0-5.19,0.69-7.92,2.06l-0.94-2.11
				c3.02-1.38,6.01-2.06,8.96-2.06c3.02,0,5.28,0.76,6.77,2.28c1.49,1.52,2.24,3.9,2.24,7.12v17.76H657.46z M647.33,196.59
				c2.94,0,5.25-0.81,6.95-2.44c1.7-1.63,2.54-3.89,2.54-6.79v-2.63l-4.81,0.2c-3.86,0.18-6.62,0.77-8.26,1.76
				c-1.64,0.99-2.47,2.53-2.47,4.63c0,1.67,0.53,2.97,1.58,3.89C643.92,196.13,645.41,196.59,647.33,196.59z"/>
		</g>
	</g>
</g>
</svg>
