<?xml version="1.0" encoding="utf-8"?>
<!-- Generator: Adobe Illustrator 25.4.1, SVG Export Plug-In . SVG Version: 6.00 Build 0)  -->
<svg version="1.1" id="Warstwa_1" xmlns="http://www.w3.org/2000/svg" xmlns:xlink="http://www.w3.org/1999/xlink" x="0px" y="0px"
	 viewBox="0 0 230 40" style="enable-background:new 0 0 230 40;" xml:space="preserve">
<style type="text/css">
	.st0{fill:url(#SVGID_1_);}
	.st1{fill:none;}
	.st2{enable-background:new    ;}
	.st3{fill:#FFFFFF;}
</style>
<linearGradient id="SVGID_1_" gradientUnits="userSpaceOnUse" x1="0" y1="22" x2="230" y2="22" gradientTransform="matrix(1 0 0 -1 0 42)">
	<stop  offset="0" style="stop-color:#FFCC02"/>
	<stop  offset="0.273" style="stop-color:#FBC205"/>
	<stop  offset="0.7414" style="stop-color:#F1A60C"/>
	<stop  offset="1" style="stop-color:#EA9411"/>
</linearGradient>
<rect class="st0" width="230" height="40"/>
<rect x="0.8" y="12.2" class="st1" width="221" height="24.4"/>
<g class="st2">
	<path class="st3" d="M58,14.5c-0.1,0.1-0.2,0.2-0.3,0.3c-0.1,0.1-0.2,0.1-0.3,0.1c-0.1,0-0.3,0-0.4-0.1c-0.2-0.1-0.3-0.2-0.5-0.3
		c-0.2-0.1-0.4-0.2-0.7-0.3c-0.3-0.1-0.6-0.1-0.9-0.1c-0.6,0-1.1,0.1-1.4,0.4c-0.3,0.3-0.5,0.6-0.5,1.1c0,0.3,0.1,0.5,0.3,0.7
		c0.2,0.2,0.4,0.4,0.7,0.5c0.3,0.1,0.6,0.3,0.9,0.4s0.7,0.2,1.1,0.4s0.7,0.3,1.1,0.5c0.4,0.2,0.7,0.4,0.9,0.7c0.3,0.3,0.5,0.6,0.7,1
		s0.3,0.8,0.3,1.4c0,0.6-0.1,1.2-0.3,1.7c-0.2,0.5-0.5,1-0.9,1.4c-0.4,0.4-0.9,0.7-1.4,0.9c-0.6,0.2-1.2,0.3-1.9,0.3
		c-0.4,0-0.8,0-1.2-0.1c-0.4-0.1-0.8-0.2-1.2-0.4c-0.4-0.1-0.7-0.3-1.1-0.5c-0.3-0.2-0.6-0.4-0.9-0.7l0.8-1.3
		c0.1-0.1,0.2-0.2,0.3-0.2c0.1-0.1,0.2-0.1,0.3-0.1c0.2,0,0.3,0.1,0.5,0.2s0.4,0.3,0.6,0.4c0.2,0.1,0.5,0.3,0.8,0.4s0.7,0.2,1.1,0.2
		c0.6,0,1.1-0.1,1.5-0.4c0.3-0.3,0.5-0.7,0.5-1.3c0-0.3-0.1-0.6-0.3-0.8c-0.2-0.2-0.4-0.4-0.7-0.5c-0.3-0.1-0.6-0.3-0.9-0.4
		c-0.4-0.1-0.7-0.2-1.1-0.3s-0.7-0.3-1.1-0.4s-0.7-0.4-0.9-0.7c-0.3-0.3-0.5-0.6-0.7-1c-0.2-0.4-0.3-0.9-0.3-1.5
		c0-0.5,0.1-1,0.3-1.4c0.2-0.5,0.5-0.9,0.8-1.2c0.4-0.4,0.8-0.6,1.4-0.9s1.2-0.3,1.9-0.3c0.8,0,1.5,0.1,2.2,0.4
		c0.7,0.2,1.2,0.6,1.7,1L58,14.5z"/>
	<path class="st3" d="M62.6,17c0.2-0.2,0.4-0.4,0.6-0.6c0.2-0.2,0.4-0.3,0.7-0.4c0.2-0.1,0.5-0.2,0.8-0.3c0.3-0.1,0.6-0.1,0.9-0.1
		c0.5,0,1,0.1,1.4,0.3s0.8,0.5,1.1,0.9c0.3,0.4,0.5,0.9,0.7,1.5s0.3,1.3,0.3,2c0,0.7-0.1,1.3-0.3,1.9c-0.2,0.6-0.5,1.1-0.8,1.5
		c-0.3,0.4-0.8,0.8-1.3,1c-0.5,0.2-1,0.4-1.6,0.4c-0.5,0-0.9-0.1-1.3-0.2c-0.4-0.2-0.7-0.4-0.9-0.6v3.7h-2.5V15.8h1.5
		c0.3,0,0.5,0.1,0.6,0.4L62.6,17z M62.8,22.7c0.2,0.3,0.5,0.5,0.8,0.6c0.3,0.1,0.6,0.2,0.9,0.2c0.3,0,0.6-0.1,0.8-0.2
		c0.2-0.1,0.5-0.3,0.6-0.5c0.2-0.2,0.3-0.6,0.4-0.9c0.1-0.4,0.1-0.8,0.1-1.4c0-0.5,0-1-0.1-1.3c-0.1-0.4-0.2-0.7-0.3-0.9
		c-0.1-0.2-0.3-0.4-0.5-0.5c-0.2-0.1-0.4-0.1-0.7-0.1c-0.4,0-0.8,0.1-1.1,0.3s-0.6,0.4-0.8,0.8V22.7z"/>
	<path class="st3" d="M74.8,15.7c0.7,0,1.3,0.1,1.9,0.3c0.6,0.2,1.1,0.5,1.5,0.9c0.4,0.4,0.7,0.9,0.9,1.5s0.3,1.3,0.3,2
		c0,0.7-0.1,1.4-0.3,2s-0.5,1.1-0.9,1.5c-0.4,0.4-0.9,0.7-1.5,1c-0.6,0.2-1.2,0.3-1.9,0.3c-0.7,0-1.3-0.1-1.9-0.3
		c-0.6-0.2-1.1-0.5-1.5-1c-0.4-0.4-0.7-0.9-0.9-1.5s-0.3-1.3-0.3-2c0-0.7,0.1-1.4,0.3-2s0.5-1.1,0.9-1.5c0.4-0.4,0.9-0.7,1.5-0.9
		C73.4,15.8,74.1,15.7,74.8,15.7z M74.8,23.4c0.7,0,1.2-0.2,1.6-0.7c0.3-0.5,0.5-1.2,0.5-2.2c0-1-0.2-1.7-0.5-2.2
		c-0.3-0.5-0.9-0.7-1.6-0.7c-0.7,0-1.3,0.2-1.6,0.7c-0.3,0.5-0.5,1.2-0.5,2.2c0,1,0.2,1.7,0.5,2.2C73.5,23.1,74,23.4,74.8,23.4z"/>
	<path class="st3" d="M84,25.2c-0.4,0-0.8-0.1-1.1-0.2c-0.3-0.1-0.6-0.3-0.8-0.5c-0.2-0.2-0.4-0.5-0.5-0.8c-0.1-0.3-0.2-0.7-0.2-1.1
		v-5h-0.9c-0.1,0-0.2,0-0.3-0.1c-0.1-0.1-0.1-0.2-0.1-0.4v-1l1.5-0.3l0.5-2.4c0.1-0.3,0.2-0.4,0.5-0.4h1.3v2.8h2.4v1.7h-2.4v4.8
		c0,0.3,0.1,0.5,0.2,0.6s0.3,0.2,0.5,0.2c0.1,0,0.2,0,0.3,0s0.2-0.1,0.2-0.1s0.1-0.1,0.2-0.1c0.1,0,0.1,0,0.2,0c0.1,0,0.1,0,0.2,0
		c0,0,0.1,0.1,0.1,0.2l0.7,1.2c-0.3,0.3-0.7,0.5-1.2,0.6C84.9,25.2,84.5,25.2,84,25.2z"/>
	<path class="st3" d="M90.1,11.7v7.6h0.4c0.2,0,0.3,0,0.4-0.1c0.1,0,0.2-0.1,0.3-0.2l2.1-2.7c0.1-0.1,0.2-0.2,0.3-0.3
		s0.3-0.1,0.5-0.1h2.3l-2.7,3.4c-0.2,0.3-0.5,0.5-0.7,0.7c0.1,0.1,0.3,0.2,0.4,0.3c0.1,0.1,0.2,0.3,0.3,0.4l2.9,4.5h-2.2
		c-0.2,0-0.4,0-0.5-0.1c-0.1-0.1-0.3-0.2-0.3-0.3l-2.1-3.4C91.2,21.1,91.1,21,91,21s-0.2-0.1-0.4-0.1h-0.5v4.2h-2.5V11.7H90.1z"/>
	<path class="st3" d="M97.2,17.1c0.5-0.5,1.1-0.9,1.8-1.1s1.4-0.4,2.1-0.4c0.6,0,1,0.1,1.5,0.3c0.4,0.2,0.8,0.4,1.1,0.8
		c0.3,0.3,0.5,0.7,0.7,1.1c0.2,0.4,0.2,0.9,0.2,1.5v5.8h-1.1c-0.2,0-0.4,0-0.5-0.1c-0.1-0.1-0.2-0.2-0.3-0.4l-0.2-0.6
		c-0.2,0.2-0.5,0.4-0.7,0.5c-0.2,0.2-0.4,0.3-0.7,0.4c-0.2,0.1-0.5,0.2-0.8,0.2c-0.3,0.1-0.6,0.1-0.9,0.1c-0.4,0-0.8-0.1-1.1-0.2
		c-0.3-0.1-0.6-0.3-0.9-0.5c-0.2-0.2-0.4-0.5-0.6-0.8c-0.1-0.3-0.2-0.7-0.2-1.1c0-0.3,0.1-0.7,0.3-1c0.2-0.3,0.5-0.7,0.9-0.9
		c0.4-0.3,1-0.5,1.7-0.7c0.7-0.2,1.6-0.3,2.7-0.3v-0.5c0-0.6-0.1-1-0.4-1.3c-0.2-0.3-0.6-0.4-1.1-0.4c-0.3,0-0.6,0-0.9,0.1
		s-0.4,0.2-0.6,0.3c-0.2,0.1-0.3,0.2-0.5,0.3c-0.2,0.1-0.3,0.1-0.5,0.1c-0.2,0-0.3,0-0.4-0.1c-0.1-0.1-0.2-0.2-0.3-0.3L97.2,17.1z
		 M102.3,21.2c-0.6,0-1.1,0.1-1.5,0.2c-0.4,0.1-0.7,0.2-1,0.3c-0.2,0.1-0.4,0.3-0.5,0.4c-0.1,0.2-0.1,0.3-0.1,0.5
		c0,0.4,0.1,0.6,0.3,0.8c0.2,0.2,0.5,0.2,0.8,0.2c0.4,0,0.8-0.1,1.1-0.2c0.3-0.1,0.6-0.4,0.9-0.7V21.2z"/>
	<path class="st3" d="M108.9,16.9c0.2-0.2,0.4-0.3,0.6-0.5c0.2-0.1,0.4-0.3,0.6-0.4c0.2-0.1,0.5-0.2,0.7-0.3
		c0.3-0.1,0.5-0.1,0.9-0.1c0.5,0,1,0.1,1.3,0.3c0.4,0.2,0.7,0.4,1,0.7c0.3,0.3,0.5,0.7,0.6,1.1c0.1,0.4,0.2,0.9,0.2,1.4v5.9h-2.5
		v-5.9c0-0.5-0.1-0.9-0.4-1.2c-0.2-0.3-0.6-0.4-1.1-0.4c-0.3,0-0.7,0.1-1,0.2c-0.3,0.1-0.6,0.4-0.9,0.6v6.7h-2.5v-9.3h1.5
		c0.3,0,0.5,0.1,0.6,0.4L108.9,16.9z"/>
	<path class="st3" d="M119.7,13.2c0,0.2,0,0.4-0.1,0.6s-0.2,0.3-0.3,0.5c-0.1,0.1-0.3,0.2-0.5,0.3c-0.2,0.1-0.4,0.1-0.6,0.1
		c-0.2,0-0.4,0-0.6-0.1c-0.2-0.1-0.3-0.2-0.5-0.3c-0.1-0.1-0.2-0.3-0.3-0.5s-0.1-0.4-0.1-0.6s0-0.4,0.1-0.6c0.1-0.2,0.2-0.3,0.3-0.5
		c0.1-0.1,0.3-0.2,0.5-0.3c0.2-0.1,0.4-0.1,0.6-0.1c0.2,0,0.4,0,0.6,0.1c0.2,0.1,0.4,0.2,0.5,0.3c0.1,0.1,0.3,0.3,0.3,0.5
		C119.6,12.8,119.7,13,119.7,13.2z M119.4,15.8v9.3h-2.5v-9.3H119.4z"/>
	<path class="st3" d="M121.3,17.1c0.5-0.5,1.1-0.9,1.8-1.1s1.4-0.4,2.1-0.4c0.6,0,1,0.1,1.5,0.3c0.4,0.2,0.8,0.4,1.1,0.8
		s0.5,0.7,0.7,1.1s0.2,0.9,0.2,1.5v5.8h-1.1c-0.2,0-0.4,0-0.5-0.1c-0.1-0.1-0.2-0.2-0.3-0.4l-0.2-0.6c-0.2,0.2-0.5,0.4-0.7,0.5
		c-0.2,0.2-0.4,0.3-0.7,0.4c-0.2,0.1-0.5,0.2-0.8,0.2c-0.3,0.1-0.6,0.1-0.9,0.1c-0.4,0-0.8-0.1-1.1-0.2c-0.3-0.1-0.6-0.3-0.9-0.5
		c-0.2-0.2-0.4-0.5-0.6-0.8c-0.1-0.3-0.2-0.7-0.2-1.1c0-0.3,0.1-0.7,0.3-1c0.2-0.3,0.5-0.7,0.9-0.9c0.4-0.3,1-0.5,1.7-0.7
		c0.7-0.2,1.6-0.3,2.7-0.3v-0.5c0-0.6-0.1-1-0.4-1.3c-0.2-0.3-0.6-0.4-1.1-0.4c-0.3,0-0.6,0-0.9,0.1c-0.2,0.1-0.4,0.2-0.6,0.3
		c-0.2,0.1-0.3,0.2-0.5,0.3c-0.2,0.1-0.3,0.1-0.5,0.1c-0.2,0-0.3,0-0.4-0.1c-0.1-0.1-0.2-0.2-0.3-0.3L121.3,17.1z M126.4,21.2
		c-0.6,0-1.1,0.1-1.5,0.2c-0.4,0.1-0.7,0.2-1,0.3c-0.2,0.1-0.4,0.3-0.5,0.4c-0.1,0.2-0.1,0.3-0.1,0.5c0,0.4,0.1,0.6,0.3,0.8
		c0.2,0.2,0.5,0.2,0.8,0.2c0.4,0,0.8-0.1,1.1-0.2c0.3-0.1,0.6-0.4,0.9-0.7V21.2z"/>
	<path class="st3" d="M143.3,16.1V17c0,0.1,0,0.3-0.1,0.3s-0.2,0.1-0.4,0.2l-0.8,0.2c0.1,0.3,0.2,0.6,0.2,0.9c0,0.5-0.1,0.9-0.3,1.2
		c-0.2,0.4-0.4,0.7-0.8,0.9c-0.3,0.3-0.7,0.5-1.2,0.6c-0.5,0.1-0.9,0.2-1.5,0.2c-0.3,0-0.6,0-0.9-0.1c-0.3,0.2-0.4,0.3-0.4,0.5
		c0,0.2,0.1,0.3,0.3,0.4s0.4,0.1,0.7,0.2c0.3,0,0.6,0.1,1,0.1c0.4,0,0.7,0,1.1,0.1c0.4,0,0.7,0.1,1.1,0.2c0.4,0.1,0.7,0.2,1,0.4
		c0.3,0.2,0.5,0.4,0.7,0.7s0.3,0.6,0.3,1.1c0,0.4-0.1,0.8-0.3,1.2s-0.5,0.7-0.9,1s-0.9,0.6-1.4,0.7c-0.6,0.2-1.2,0.3-1.9,0.3
		c-0.7,0-1.3-0.1-1.9-0.2s-1-0.3-1.3-0.5c-0.3-0.2-0.6-0.5-0.8-0.8s-0.3-0.6-0.3-0.9c0-0.4,0.1-0.8,0.4-1.1s0.6-0.5,1-0.7
		c-0.2-0.1-0.4-0.3-0.6-0.5c-0.1-0.2-0.2-0.5-0.2-0.8c0-0.3,0.1-0.6,0.3-0.9c0.2-0.3,0.5-0.6,0.9-0.8c-0.5-0.3-0.8-0.6-1.1-1
		c-0.3-0.4-0.4-0.9-0.4-1.5c0-0.5,0.1-0.9,0.3-1.3c0.2-0.4,0.5-0.7,0.8-1c0.3-0.3,0.7-0.5,1.2-0.6c0.5-0.1,1-0.2,1.5-0.2
		c0.8,0,1.5,0.2,2.1,0.5H143.3z M140.8,25.5c0-0.2-0.1-0.3-0.2-0.4c-0.1-0.1-0.2-0.2-0.4-0.2c-0.2-0.1-0.4-0.1-0.6-0.1
		s-0.5,0-0.7-0.1c-0.3,0-0.5,0-0.8,0c-0.3,0-0.6,0-0.8-0.1c-0.2,0.1-0.4,0.3-0.5,0.4c-0.1,0.2-0.2,0.4-0.2,0.6c0,0.2,0,0.3,0.1,0.4
		c0.1,0.1,0.2,0.2,0.3,0.3s0.4,0.2,0.6,0.2c0.3,0.1,0.6,0.1,1,0.1c0.4,0,0.8,0,1-0.1s0.5-0.1,0.7-0.2c0.2-0.1,0.3-0.2,0.4-0.4
		C140.8,25.8,140.8,25.6,140.8,25.5z M138.4,20.1c0.5,0,0.9-0.1,1.1-0.4c0.2-0.3,0.4-0.6,0.4-1c0-0.4-0.1-0.8-0.4-1
		c-0.2-0.2-0.6-0.4-1.1-0.4s-0.9,0.1-1.1,0.4c-0.2,0.2-0.4,0.6-0.4,1c0,0.4,0.1,0.7,0.4,1C137.6,20,137.9,20.1,138.4,20.1z"/>
	<path class="st3" d="M146.9,17.3c0.3-0.5,0.6-0.9,1-1.3c0.4-0.3,0.8-0.5,1.3-0.5c0.4,0,0.8,0.1,1,0.3l-0.2,1.8
		c0,0.1-0.1,0.2-0.1,0.2c-0.1,0-0.1,0.1-0.3,0.1c-0.1,0-0.2,0-0.4,0c-0.2,0-0.3,0-0.5,0c-0.2,0-0.4,0-0.6,0.1
		c-0.2,0.1-0.3,0.2-0.5,0.3c-0.1,0.1-0.3,0.3-0.4,0.4c-0.1,0.2-0.2,0.4-0.3,0.6v5.7h-2.5v-9.3h1.5c0.3,0,0.4,0,0.5,0.1
		c0.1,0.1,0.2,0.2,0.2,0.5L146.9,17.3z"/>
	<path class="st3" d="M159.5,15.8v9.3H158c-0.3,0-0.5-0.1-0.6-0.4l-0.2-0.6c-0.2,0.2-0.4,0.3-0.6,0.5s-0.4,0.3-0.6,0.4
		c-0.2,0.1-0.5,0.2-0.7,0.3c-0.3,0.1-0.5,0.1-0.9,0.1c-0.5,0-1-0.1-1.3-0.3c-0.4-0.2-0.7-0.4-1-0.7c-0.3-0.3-0.5-0.7-0.6-1.1
		c-0.1-0.4-0.2-0.9-0.2-1.4v-5.9h2.5v5.9c0,0.5,0.1,0.9,0.4,1.2c0.2,0.3,0.6,0.4,1.1,0.4c0.3,0,0.7-0.1,1-0.2
		c0.3-0.2,0.6-0.4,0.9-0.6v-6.7H159.5z"/>
	<path class="st3" d="M163.9,17c0.2-0.2,0.4-0.4,0.6-0.6c0.2-0.2,0.4-0.3,0.7-0.4c0.2-0.1,0.5-0.2,0.8-0.3s0.6-0.1,0.9-0.1
		c0.5,0,1,0.1,1.4,0.3s0.8,0.5,1.1,0.9c0.3,0.4,0.5,0.9,0.7,1.5s0.3,1.3,0.3,2c0,0.7-0.1,1.3-0.3,1.9s-0.5,1.1-0.8,1.5
		c-0.3,0.4-0.8,0.8-1.3,1c-0.5,0.2-1,0.4-1.6,0.4c-0.5,0-0.9-0.1-1.3-0.2c-0.4-0.2-0.7-0.4-0.9-0.6v3.7h-2.5V15.8h1.5
		c0.3,0,0.5,0.1,0.6,0.4L163.9,17z M164,22.7c0.2,0.3,0.5,0.5,0.8,0.6c0.3,0.1,0.6,0.2,0.9,0.2c0.3,0,0.6-0.1,0.8-0.2
		c0.2-0.1,0.5-0.3,0.6-0.5s0.3-0.6,0.4-0.9c0.1-0.4,0.1-0.8,0.1-1.4c0-0.5,0-1-0.1-1.3c-0.1-0.4-0.2-0.7-0.3-0.9
		c-0.1-0.2-0.3-0.4-0.5-0.5c-0.2-0.1-0.4-0.1-0.7-0.1c-0.4,0-0.8,0.1-1.1,0.3s-0.6,0.4-0.8,0.8V22.7z"/>
	<path class="st3" d="M180.1,15.8l-5,11.8c-0.1,0.2-0.2,0.3-0.3,0.4s-0.3,0.1-0.5,0.1h-1.8l1.8-3.7l-3.7-8.5h2.2
		c0.2,0,0.4,0,0.5,0.1c0.1,0.1,0.2,0.2,0.2,0.3l1.8,4.4c0.1,0.2,0.1,0.3,0.2,0.5s0.1,0.4,0.1,0.5c0.1-0.4,0.2-0.7,0.4-1.1l1.6-4.4
		c0-0.1,0.1-0.2,0.3-0.3s0.3-0.1,0.4-0.1H180.1z"/>
</g>
</svg>
