<?xml version="1.0" encoding="utf-8"?>
<!-- Generator: Adobe Illustrator 24.2.1, SVG Export Plug-In . SVG Version: 6.00 Build 0)  -->
<svg version="1.1" id="Warstwa_1" xmlns="http://www.w3.org/2000/svg" xmlns:xlink="http://www.w3.org/1999/xlink" x="0px" y="0px"
	 viewBox="0 0 1400 230" style="enable-background:new 0 0 1400 230;" xml:space="preserve">
<style type="text/css">
	.st0{fill:#AA7E63;}
	.st1{fill:#020203;}
	.st2{opacity:0.5;}
	.st3{fill:#FFFFFF;}
	.st4{opacity:0.5;fill:#FFFFFF;}
	.st5{clip-path:url(#SVGID_2_);}
	.st6{clip-path:url(#SVGID_4_);}
	.st7{clip-path:url(#SVGID_6_);}
	.st8{clip-path:url(#SVGID_8_);}
	.st9{clip-path:url(#SVGID_10_);}
	.st10{clip-path:url(#SVGID_12_);}
	.st11{clip-path:url(#SVGID_14_);}
	.st12{clip-path:url(#SVGID_16_);}
	.st13{clip-path:url(#SVGID_18_);}
	.st14{clip-path:url(#SVGID_20_);}
	.st15{clip-path:url(#SVGID_22_);}
	.st16{clip-path:url(#SVGID_24_);}
	.st17{clip-path:url(#SVGID_26_);}
	.st18{clip-path:url(#SVGID_28_);}
	.st19{clip-path:url(#SVGID_30_);}
	.st20{clip-path:url(#SVGID_32_);}
	.st21{clip-path:url(#SVGID_34_);}
	.st22{clip-path:url(#SVGID_36_);}
	.st23{clip-path:url(#SVGID_38_);}
	.st24{clip-path:url(#SVGID_40_);}
	.st25{clip-path:url(#SVGID_42_);}
	.st26{clip-path:url(#SVGID_44_);}
	.st27{clip-path:url(#SVGID_46_);}
	.st28{clip-path:url(#SVGID_48_);}
	.st29{clip-path:url(#SVGID_50_);}
	.st30{clip-path:url(#SVGID_52_);}
	.st31{clip-path:url(#SVGID_54_);}
	.st32{clip-path:url(#SVGID_56_);}
	.st33{clip-path:url(#SVGID_58_);}
	.st34{clip-path:url(#SVGID_60_);}
	.st35{clip-path:url(#SVGID_62_);}
	.st36{clip-path:url(#SVGID_64_);}
	.st37{clip-path:url(#SVGID_66_);}
	.st38{clip-path:url(#SVGID_68_);}
	.st39{clip-path:url(#SVGID_70_);}
	.st40{fill:#123274;}
	.st41{fill:#2DB8C5;}
	.st42{opacity:0.8;}
	.st43{fill:#008BC0;}
	.st44{opacity:0.5;fill:none;stroke:#FFFFFF;stroke-width:8;stroke-linecap:round;stroke-linejoin:round;stroke-miterlimit:10;}
	.st45{opacity:0.5;fill:none;stroke:#FFFFFF;stroke-width:7;stroke-linecap:round;stroke-linejoin:round;stroke-miterlimit:10;}
	.st46{fill:#0B5BA6;}
	.st47{opacity:0.8;fill:url(#SVGID_71_);}
	.st48{fill:none;stroke:#FFFFFF;stroke-width:10;stroke-miterlimit:10;}
	.st49{opacity:0.8;fill:url(#SVGID_72_);}
	.st50{fill:none;stroke:#FFFFFF;stroke-width:5;stroke-miterlimit:10;}
	.st51{fill:none;stroke:#FFFFFF;stroke-width:6;stroke-miterlimit:10;}
	.st52{opacity:0.8;fill:url(#SVGID_91_);}
	.st53{fill:#878787;}
	.st54{opacity:0.8;fill:url(#SVGID_110_);}
	.st55{opacity:0.8;fill:url(#SVGID_111_);}
	.st56{stroke:#FFFFFF;stroke-width:8;stroke-linecap:round;stroke-linejoin:round;stroke-miterlimit:10;}
	.st57{opacity:0.8;fill:url(#SVGID_112_);}
	.st58{opacity:0.8;fill:url(#SVGID_113_);}
	.st59{clip-path:url(#SVGID_115_);fill:#12100B;}
	.st60{fill:#12100B;}
	.st61{fill:url(#SVGID_116_);}
	.st62{fill:url(#SVGID_117_);}
	.st63{fill:#E87443;}
	.st64{fill:#82368C;}
	.st65{opacity:0.8;fill:url(#SVGID_118_);}
	.st66{opacity:0.8;fill:url(#SVGID_119_);}
	.st67{fill:#74B959;}
	.st68{opacity:0.8;fill:url(#SVGID_120_);}
	.st69{opacity:0.8;fill:#5EA62B;}
	.st70{fill:#10466D;}
	.st71{opacity:0.4;}
	.st72{clip-path:url(#SVGID_122_);}
	.st73{fill:url(#SVGID_123_);}
	.st74{fill:url(#SVGID_124_);}
	.st75{fill:url(#SVGID_125_);}
	.st76{fill:url(#SVGID_126_);}
	.st77{fill:url(#SVGID_127_);}
	.st78{fill:url(#SVGID_128_);}
	.st79{fill:url(#SVGID_129_);}
	.st80{fill:url(#SVGID_130_);}
	.st81{fill:url(#SVGID_131_);}
	.st82{fill:url(#SVGID_132_);}
	.st83{fill:url(#SVGID_133_);}
	.st84{fill:url(#SVGID_134_);}
	.st85{fill:url(#SVGID_135_);}
	.st86{fill:url(#SVGID_136_);}
	.st87{fill:url(#SVGID_137_);}
	.st88{fill:url(#SVGID_138_);}
	.st89{fill:url(#SVGID_139_);}
	.st90{fill:url(#SVGID_140_);}
	.st91{fill:url(#SVGID_141_);}
	.st92{fill:url(#SVGID_142_);}
	.st93{fill:url(#SVGID_143_);}
	.st94{fill:url(#SVGID_144_);}
	.st95{fill:url(#SVGID_145_);}
	.st96{fill:url(#SVGID_146_);}
	.st97{fill:url(#SVGID_147_);}
	.st98{fill:url(#SVGID_148_);}
	.st99{fill:url(#SVGID_149_);}
	.st100{fill:url(#SVGID_150_);}
	.st101{fill:url(#SVGID_151_);}
	.st102{fill:url(#SVGID_152_);}
	.st103{fill:url(#SVGID_153_);}
	.st104{fill:url(#SVGID_154_);}
	.st105{fill:url(#SVGID_155_);}
	.st106{fill:url(#SVGID_156_);}
	.st107{fill:url(#SVGID_157_);}
	.st108{fill:url(#SVGID_158_);}
	.st109{fill:url(#SVGID_159_);}
	.st110{fill:url(#SVGID_160_);}
	.st111{fill:url(#SVGID_161_);}
	.st112{fill:url(#SVGID_162_);}
	.st113{fill:url(#SVGID_163_);}
	.st114{fill:url(#SVGID_164_);}
	.st115{fill:url(#SVGID_165_);}
	.st116{fill:url(#SVGID_166_);}
	.st117{fill:url(#SVGID_167_);}
	.st118{fill:url(#SVGID_168_);}
	.st119{fill:url(#SVGID_169_);}
	.st120{fill:url(#SVGID_170_);}
	.st121{fill:url(#SVGID_171_);}
	.st122{fill:url(#SVGID_172_);}
	.st123{fill:url(#SVGID_173_);}
	.st124{fill:url(#SVGID_174_);}
	.st125{fill:url(#SVGID_175_);}
	.st126{fill:url(#SVGID_176_);}
	.st127{fill:url(#SVGID_177_);}
	.st128{fill:url(#SVGID_178_);}
	.st129{fill:#F59A1C;}
	.st130{fill:#FFFFFF;stroke:#FFFFFF;stroke-width:14.1732;stroke-miterlimit:10;}
	.st131{opacity:0.8;fill:url(#SVGID_179_);}
	.st132{fill:#255C30;}
	.st133{fill:#C10C1A;}
	.st134{fill:#65C3CE;}
	.st135{fill:#31B7BC;}
	.st136{fill:#9D9D9C;}
	.st137{opacity:0.65;fill:#FFFFFF;}
	.st138{opacity:0.65;}
	.st139{opacity:0.8;fill:url(#SVGID_180_);}
	.st140{fill:#ED694B;}
	.st141{opacity:0.8;fill:url(#SVGID_181_);}
	.st142{clip-path:url(#SVGID_183_);}
	.st143{clip-path:url(#SVGID_185_);}
	.st144{clip-path:url(#SVGID_187_);}
	.st145{opacity:0.6;}
	.st146{opacity:0.6;fill:#FFFFFF;}
	.st147{opacity:0.8;fill:url(#SVGID_188_);}
	.st148{opacity:0.8;fill:url(#SVGID_189_);}
	.st149{opacity:0.8;fill:url(#SVGID_190_);}
	.st150{fill:none;stroke:#FFFFFF;stroke-width:35;stroke-linecap:round;stroke-linejoin:round;stroke-miterlimit:10;}
	.st151{opacity:0.8;fill:url(#SVGID_191_);}
	.st152{opacity:0.8;fill:url(#SVGID_192_);}
	.st153{fill:none;stroke:#FFFFFF;stroke-width:20;stroke-linecap:round;stroke-linejoin:round;stroke-miterlimit:10;}
	.st154{opacity:0.8;fill:url(#SVGID_193_);}
	.st155{fill:none;stroke:#FFFFFF;stroke-width:2;stroke-miterlimit:10;}
	.st156{opacity:0.75;fill:url(#SVGID_194_);}
	.st157{opacity:0.8;fill:url(#SVGID_195_);}
	.st158{fill:url(#SVGID_196_);}
	.st159{opacity:0.8;fill:url(#SVGID_197_);}
	.st160{opacity:0.8;fill:url(#SVGID_198_);}
	.st161{fill:url(#SVGID_199_);}
	.st162{fill:url(#SVGID_200_);}
	.st163{fill:url(#SVGID_201_);}
	.st164{fill:url(#SVGID_202_);}
	.st165{fill:url(#SVGID_203_);}
	.st166{opacity:0.8;fill:url(#SVGID_204_);}
	.st167{fill:url(#SVGID_205_);}
	.st168{opacity:0.1;}
	.st169{opacity:0.1;fill:#FFFFFF;}
	.st170{opacity:0.15;fill:#FFFFFF;}
	.st171{opacity:0.15;}
	.st172{opacity:0.8;fill:url(#SVGID_206_);}
	.st173{fill:url(#SVGID_207_);}
	.st174{fill:url(#SVGID_208_);}
	.st175{fill:url(#SVGID_209_);}
	.st176{opacity:0.8;fill:url(#SVGID_210_);}
	.st177{opacity:0.8;fill:url(#SVGID_211_);}
	.st178{opacity:0.8;fill:url(#SVGID_212_);}
	.st179{fill:#B2B2B2;}
	.st180{opacity:0.7;fill:url(#SVGID_213_);}
</style>
<g>
	<rect class="st179" width="1400" height="230"/>
	<path class="st4" d="M138.46,15.41c-0.76,0-1.48,0.15-2.16,0.44c-2.16,0.92-3.6,2.87-3.6,5.01c0,2.87,2.47,5.12,5.61,5.12
		c3.34,0,5.42-2.61,5.42-5.01C143.73,19.17,142.45,15.41,138.46,15.41z"/>
	<path class="st4" d="M426.02,26.26c-0.57,0-1.12,0.11-1.64,0.33c-1.64,0.7-2.73,2.17-2.73,3.79c0,2.17,1.87,3.88,4.25,3.88
		c2.53,0,4.11-1.98,4.11-3.79C430.02,29.1,429.04,26.26,426.02,26.26z"/>
	<path class="st4" d="M442.52,26.26c-0.57,0-1.12,0.11-1.64,0.33c-1.64,0.7-2.73,2.17-2.73,3.79c0,2.17,1.87,3.88,4.25,3.88
		c2.53,0,4.11-1.98,4.11-3.79C446.51,29.1,445.53,26.26,442.52,26.26z"/>
	<path class="st4" d="M154.54,28.98c-0.76,0-1.48,0.15-2.16,0.44c-2.16,0.92-3.6,2.87-3.6,5.01c0,2.87,2.47,5.12,5.61,5.12
		c3.34,0,5.42-2.61,5.42-5.01C159.81,32.73,158.52,28.98,154.54,28.98z"/>
	<path class="st4" d="M870.41,130.11c-0.76,0-1.48,0.15-2.16,0.44c-2.16,0.92-3.6,2.87-3.6,5.01c0,2.87,2.47,5.12,5.61,5.12
		c3.34,0,5.42-2.61,5.42-5.01C875.68,133.86,874.39,130.11,870.41,130.11z"/>
	<path class="st4" d="M621.64,12.41c-0.76,0-1.48,0.15-2.16,0.44c-2.16,0.92-3.6,2.87-3.6,5.01c0,2.87,2.47,5.12,5.61,5.12
		c3.34,0,5.42-2.61,5.42-5.01C626.92,16.17,625.63,12.41,621.64,12.41z"/>
	<path class="st4" d="M1257.16,172.01c-0.97,0-1.9,0.19-2.78,0.57c-2.78,1.18-4.63,3.69-4.63,6.43c0,3.69,3.17,6.57,7.21,6.57
		c4.29,0,6.97-3.36,6.97-6.43C1263.93,176.83,1262.28,172.01,1257.16,172.01z"/>
	<path class="st4" d="M1379.7,107.86c-0.62,0-1.21,0.12-1.77,0.36c-1.77,0.75-2.94,2.35-2.94,4.09c0,2.35,2.01,4.18,4.59,4.18
		c2.73,0,4.43-2.14,4.43-4.09C1384.01,110.92,1382.96,107.86,1379.7,107.86z"/>
	<path class="st4" d="M1272.88,205.94c-0.62,0-1.21,0.12-1.77,0.36c-1.77,0.75-2.94,2.35-2.94,4.09c0,2.35,2.01,4.18,4.59,4.18
		c2.73,0,4.43-2.14,4.43-4.09C1277.18,209.01,1276.13,205.94,1272.88,205.94z"/>
	<path class="st4" d="M1353.85,200.59c-0.88,0-1.71,0.17-2.5,0.51c-2.5,1.07-4.17,3.32-4.17,5.79c0,3.32,2.85,5.92,6.5,5.92
		c3.86,0,6.28-3.03,6.28-5.79C1359.96,204.93,1358.46,200.59,1353.85,200.59z"/>
	<path class="st4" d="M1375.19,211.32c-0.62,0-1.21,0.12-1.77,0.36c-1.77,0.75-2.94,2.35-2.94,4.09c0,2.35,2.01,4.18,4.59,4.18
		c2.73,0,4.43-2.14,4.43-4.09C1379.5,214.38,1378.45,211.32,1375.19,211.32z"/>
	<path class="st4" d="M1240.14,190.92c-0.62,0-1.21,0.12-1.77,0.36c-1.77,0.75-2.94,2.35-2.94,4.09c0,2.35,2.01,4.18,4.59,4.18
		c2.73,0,4.43-2.14,4.43-4.09C1244.45,193.99,1243.39,190.92,1240.14,190.92z"/>
	<path class="st4" d="M147.97,99.27c-0.91,0-1.77,0.18-2.59,0.53c-2.59,1.1-4.32,3.44-4.32,6c0,3.44,2.96,6.13,6.73,6.13
		c4,0,6.5-3.13,6.5-6C154.3,103.77,152.75,99.27,147.97,99.27z"/>
	<path class="st4" d="M948.02,149.98c-1.05,0-2.04,0.2-2.99,0.61c-2.99,1.27-4.98,3.97-4.98,6.92c0,3.97,3.41,7.07,7.76,7.07
		c4.61,0,7.5-3.61,7.5-6.92C955.31,155.17,953.53,149.98,948.02,149.98z"/>
	<path class="st4" d="M1102.54,93.68c-0.81,0-1.58,0.16-2.31,0.47c-2.31,0.98-3.85,3.07-3.85,5.35c0,3.07,2.63,5.46,5.99,5.46
		c3.56,0,5.79-2.79,5.79-5.35C1108.17,97.69,1106.8,93.68,1102.54,93.68z"/>
	<path class="st4" d="M716.5,123.84c-1.32,0-2.57,0.26-3.76,0.77c-3.76,1.6-6.27,4.99-6.27,8.71c0,4.99,4.29,8.9,9.76,8.9
		c5.81,0,9.43-4.55,9.43-8.71C725.67,130.37,723.43,123.84,716.5,123.84z"/>
	<path class="st4" d="M1102.48,115.76c-0.61,0-1.19,0.12-1.74,0.36c-1.74,0.74-2.9,2.31-2.9,4.03c0,2.31,1.99,4.12,4.52,4.12
		c2.69,0,4.37-2.1,4.37-4.03C1106.72,118.78,1105.69,115.76,1102.48,115.76z"/>
	<path class="st4" d="M728.88,75.56c-0.61,0-1.19,0.12-1.74,0.36c-1.74,0.74-2.9,2.31-2.9,4.03c0,2.31,1.99,4.12,4.52,4.12
		c2.69,0,4.37-2.1,4.37-4.03C733.12,78.59,732.09,75.56,728.88,75.56z"/>
	<path class="st4" d="M706.01,100.17c-0.61,0-1.19,0.12-1.74,0.36c-1.74,0.74-2.9,2.31-2.9,4.03c0,2.31,1.99,4.12,4.52,4.12
		c2.69,0,4.37-2.1,4.37-4.03C710.25,103.19,709.21,100.17,706.01,100.17z"/>
	<path class="st4" d="M961.56,171.38c-0.61,0-1.19,0.12-1.74,0.36c-1.74,0.74-2.9,2.31-2.9,4.03c0,2.31,1.99,4.12,4.52,4.12
		c2.69,0,4.37-2.1,4.37-4.03C965.81,174.4,964.77,171.38,961.56,171.38z"/>
	<path class="st4" d="M1201.45,117.86c-0.61,0-1.19,0.12-1.74,0.36c-1.74,0.74-2.9,2.31-2.9,4.03c0,2.31,1.99,4.12,4.52,4.12
		c2.69,0,4.37-2.1,4.37-4.03C1205.7,120.88,1204.66,117.86,1201.45,117.86z"/>
	<path class="st4" d="M1201.45,31.21c-0.61,0-1.19,0.12-1.74,0.36c-1.74,0.74-2.9,2.31-2.9,4.03c0,2.31,1.99,4.12,4.52,4.12
		c2.69,0,4.37-2.1,4.37-4.03C1205.7,34.24,1204.66,31.21,1201.45,31.21z"/>
	<path class="st4" d="M1201.59,69.06c-1.05,0-2.04,0.2-2.99,0.61c-2.99,1.27-4.98,3.97-4.98,6.92c0,3.97,3.41,7.07,7.76,7.07
		c4.61,0,7.5-3.61,7.5-6.92C1208.88,74.25,1207.1,69.06,1201.59,69.06z"/>
	<g class="st2">
		<g>
			<path class="st3" d="M577.74,131.16c-1.78,0-3.23-1.4-3.23-3.13c0-1.73,1.44-3.13,3.23-3.13l17.09,0c1.78,0,3.23,1.4,3.23,3.13
				c0,1.73-1.44,3.13-3.23,3.13L577.74,131.16z"/>
		</g>
		<g>
			<path class="st3" d="M586.77,138.97c-0.83,0-1.65-0.31-2.28-0.92c-1.26-1.22-1.26-3.21,0-4.43l5.78-5.61l-5.77-5.6
				c-1.26-1.22-1.26-3.21,0-4.43c1.26-1.22,3.3-1.22,4.56,0l8.05,7.81c0.61,0.59,0.95,1.38,0.95,2.22c0,0.83-0.34,1.63-0.95,2.21
				l-8.06,7.82C588.42,138.67,587.6,138.97,586.77,138.97z"/>
		</g>
	</g>
	<g class="st2">
		<g>
			<path class="st3" d="M433.24,140.12c0,1.73-1.44,3.13-3.23,3.13c-1.78,0-3.23-1.4-3.23-3.13l0-16.59c0-1.73,1.44-3.13,3.23-3.13
				c1.78,0,3.23,1.4,3.23,3.13L433.24,140.12z"/>
		</g>
		<g>
			<path class="st3" d="M441.3,131.35c0,0.8-0.32,1.6-0.95,2.21c-1.26,1.22-3.3,1.22-4.56,0l-5.78-5.6l-5.77,5.6
				c-1.26,1.22-3.3,1.22-4.56,0s-1.26-3.21,0-4.43l8.05-7.81c0.61-0.59,1.43-0.92,2.28-0.92c0.86,0,1.68,0.33,2.28,0.92l8.06,7.82
				C440.98,129.75,441.3,130.55,441.3,131.35z"/>
		</g>
	</g>
	<g class="st2">
		<g>
			<path class="st3" d="M850.58,178.74c-0.83,0-1.65-0.31-2.28-0.92l-17.09-16.59c-1.26-1.22-1.26-3.21,0-4.43
				c1.26-1.22,3.3-1.22,4.56,0l17.09,16.59c1.26,1.22,1.26,3.21,0,4.43C852.23,178.44,851.4,178.74,850.58,178.74z"/>
		</g>
		<g>
			<path class="st3" d="M833.49,178.74c-0.83,0-1.65-0.31-2.28-0.92c-1.26-1.22-1.26-3.21,0-4.43l17.09-16.59
				c1.26-1.22,3.3-1.22,4.56,0c1.26,1.22,1.26,3.21,0,4.43l-17.09,16.59C835.14,178.44,834.31,178.74,833.49,178.74z"/>
		</g>
	</g>
	<g class="st2">
		<path class="st3" d="M428,91.3c-0.86,0-1.68-0.33-2.28-0.92l-8.05-7.81c-1.26-1.22-1.26-3.21,0-4.43c1.26-1.22,3.3-1.22,4.56,0
			l5.77,5.6l9.8-9.51c1.26-1.22,3.3-1.22,4.56,0c1.26,1.22,1.26,3.21,0,4.43l-12.08,11.73C429.68,90.97,428.86,91.3,428,91.3z"/>
	</g>
	<path class="st4" d="M765.12,139.45h-14.75c-1.57,0-2.84-1.24-2.84-2.76v-20.87h-10.51c-1.57,0-2.84-1.24-2.84-2.76V98.74
		c0-1.52,1.27-2.76,2.84-2.76h10.51V85.17c0-1.52,1.27-2.76,2.84-2.76h14.75c1.57,0,2.84,1.24,2.84,2.76v10.81h10.51
		c1.57,0,2.84,1.24,2.84,2.76v14.32c0,1.52-1.27,2.76-2.84,2.76h-10.51v20.87C767.97,138.21,766.69,139.45,765.12,139.45
		L765.12,139.45z M753.21,133.93h9.07v-20.87c0-1.53,1.27-2.76,2.84-2.76h10.51v-8.8h-10.51c-1.57,0-2.84-1.24-2.84-2.76V87.93
		h-9.07v10.81c0,1.52-1.27,2.76-2.84,2.76h-10.51v8.8h10.51c1.57,0,2.84,1.23,2.84,2.76V133.93z M753.21,133.93"/>
	<g class="st2">
		<g>
			<path class="st3" d="M1142.94,29.46c1.78,0,3.23,1.4,3.23,3.13c0,1.73-1.44,3.13-3.23,3.13l-17.09,0c-1.78,0-3.23-1.4-3.23-3.13
				c0-1.73,1.44-3.13,3.23-3.13L1142.94,29.46z"/>
		</g>
		<g>
			<path class="st3" d="M1133.91,21.65c0.83,0,1.65,0.31,2.28,0.92c1.26,1.22,1.26,3.21,0,4.43l-5.78,5.61l5.77,5.6
				c1.26,1.22,1.26,3.21,0,4.43c-1.26,1.22-3.3,1.22-4.56,0l-8.05-7.81c-0.61-0.59-0.95-1.38-0.95-2.22c0-0.83,0.34-1.63,0.95-2.21
				l8.06-7.82C1132.25,21.95,1133.08,21.65,1133.91,21.65z"/>
		</g>
	</g>
	<g class="st2">
		<g>
			<path class="st3" d="M1174.84,55.53c1.78,0,3.23,1.4,3.23,3.13c0,1.73-1.45,3.13-3.23,3.13l-17.09,0c-1.78,0-3.23-1.4-3.23-3.13
				c0-1.73,1.44-3.13,3.23-3.13L1174.84,55.53z"/>
		</g>
		<g>
			<path class="st3" d="M1165.81,47.71c0.83,0,1.65,0.31,2.28,0.92c1.26,1.22,1.26,3.21,0,4.43l-5.78,5.61l5.77,5.6
				c1.26,1.22,1.26,3.21,0,4.43c-1.26,1.22-3.3,1.22-4.56,0l-8.05-7.81c-0.6-0.59-0.95-1.38-0.95-2.22c0-0.83,0.34-1.63,0.95-2.21
				l8.06-7.82C1164.16,48.02,1164.98,47.71,1165.81,47.71z"/>
		</g>
	</g>
	<path class="st4" d="M1029.97,124.18c-0.38,0-0.75-0.09-1.08-0.26l-7.7-3.93l-7.72,3.93c-0.33,0.17-0.7,0.25-1.07,0.25
		c-0.48,0-0.94-0.14-1.33-0.41c-0.71-0.51-1.07-1.37-0.92-2.19l1.47-8.34l-6.24-5.9c-0.63-0.6-0.85-1.47-0.58-2.28
		c0.27-0.8,0.97-1.38,1.84-1.51l8.64-1.22l3.86-7.59c0.38-0.76,1.17-1.24,2.05-1.24c0.87,0,1.66,0.47,2.05,1.23l3.85,7.59l8.63,1.22
		c0.88,0.13,1.58,0.71,1.85,1.52c0.27,0.81,0.05,1.68-0.58,2.28l-6.24,5.91l1.47,8.34c0.15,0.82-0.2,1.68-0.91,2.18
		C1030.91,124.04,1030.45,124.18,1029.97,124.18z M1021.18,115.25c0.37,0,0.73,0.09,1.06,0.25l4.68,2.39l-0.89-5.05
		c-0.12-0.73,0.12-1.47,0.65-1.97l3.78-3.58l-5.22-0.74c-0.74-0.1-1.39-0.55-1.73-1.22l-2.34-4.59l-2.34,4.59
		c-0.33,0.66-0.98,1.12-1.73,1.22l-5.21,0.73l3.78,3.57c0.54,0.51,0.78,1.25,0.66,1.97l-0.9,5.05l4.67-2.38
		C1020.45,115.34,1020.81,115.25,1021.18,115.25z"/>
	<path class="st4" d="M482.18,117.37c-0.38,0-0.75-0.09-1.08-0.26l-7.7-3.93l-7.72,3.93c-0.33,0.17-0.7,0.25-1.07,0.25
		c-0.48,0-0.94-0.14-1.33-0.41c-0.71-0.51-1.07-1.37-0.92-2.19l1.47-8.34l-6.24-5.9c-0.63-0.6-0.85-1.47-0.58-2.28
		c0.27-0.8,0.97-1.38,1.84-1.51l8.64-1.22l3.86-7.59c0.38-0.76,1.17-1.24,2.05-1.24c0.87,0,1.66,0.47,2.05,1.23l3.85,7.59l8.63,1.22
		c0.88,0.13,1.58,0.71,1.85,1.52c0.27,0.81,0.05,1.68-0.58,2.28l-6.24,5.91l1.47,8.34c0.15,0.82-0.2,1.68-0.91,2.18
		C483.12,117.22,482.66,117.37,482.18,117.37z M473.39,108.44c0.37,0,0.73,0.09,1.06,0.25l4.68,2.39l-0.89-5.05
		c-0.12-0.73,0.12-1.47,0.65-1.97l3.78-3.58l-5.22-0.74c-0.74-0.1-1.39-0.55-1.73-1.22l-2.34-4.59l-2.34,4.59
		c-0.33,0.66-0.98,1.12-1.73,1.22l-5.21,0.73l3.78,3.57c0.54,0.51,0.78,1.25,0.66,1.97l-0.9,5.05l4.67-2.38
		C472.66,108.53,473.02,108.44,473.39,108.44z"/>
	<path class="st4" d="M1235.68,179.49c-0.36,0-0.71-0.09-1.02-0.25l-7.3-3.72l-7.31,3.73c-0.31,0.16-0.66,0.24-1.01,0.24
		c-0.45,0-0.89-0.13-1.26-0.39c-0.68-0.49-1.01-1.3-0.88-2.07l1.39-7.9l-5.91-5.59c-0.6-0.57-0.81-1.39-0.55-2.16
		c0.25-0.76,0.92-1.31,1.74-1.44l8.19-1.15l3.66-7.19c0.36-0.72,1.11-1.17,1.94-1.17c0.83,0,1.57,0.45,1.95,1.17l3.65,7.19
		l8.18,1.15c0.83,0.13,1.5,0.68,1.75,1.44c0.26,0.76,0.05,1.59-0.55,2.16l-5.92,5.6l1.39,7.9c0.15,0.78-0.19,1.59-0.86,2.06
		C1236.58,179.35,1236.14,179.49,1235.68,179.49z M1227.35,171.03c0.35,0,0.7,0.08,1.01,0.24l4.44,2.26l-0.84-4.78
		c-0.12-0.69,0.11-1.39,0.62-1.87l3.58-3.39l-4.95-0.7c-0.7-0.09-1.32-0.53-1.64-1.15l-2.21-4.35l-2.21,4.35
		c-0.32,0.63-0.93,1.06-1.64,1.15l-4.94,0.7l3.58,3.39c0.51,0.49,0.74,1.18,0.63,1.86l-0.85,4.79l4.43-2.26
		C1226.66,171.11,1227.01,171.03,1227.35,171.03z"/>
	<path class="st4" d="M948.89,41.99c-0.36,0-0.71-0.09-1.02-0.25l-7.3-3.72l-7.31,3.73c-0.31,0.16-0.66,0.24-1.01,0.24
		c-0.45,0-0.89-0.13-1.26-0.39c-0.68-0.49-1.01-1.3-0.88-2.07l1.39-7.9l-5.91-5.59c-0.6-0.57-0.81-1.39-0.55-2.16
		c0.25-0.76,0.92-1.31,1.74-1.44l8.19-1.15l3.66-7.19c0.36-0.72,1.11-1.17,1.94-1.17c0.83,0,1.57,0.45,1.95,1.17l3.65,7.19
		l8.18,1.15c0.83,0.13,1.5,0.68,1.75,1.44c0.26,0.76,0.05,1.59-0.55,2.16l-5.92,5.6l1.39,7.9c0.15,0.78-0.19,1.59-0.86,2.06
		C949.78,41.86,949.35,41.99,948.89,41.99z M940.56,33.53c0.35,0,0.7,0.08,1.01,0.24l4.44,2.26l-0.84-4.78
		c-0.12-0.69,0.11-1.39,0.62-1.87l3.58-3.39l-4.95-0.7c-0.7-0.09-1.32-0.53-1.64-1.15l-2.21-4.35l-2.21,4.35
		c-0.32,0.63-0.93,1.06-1.64,1.15l-4.94,0.7l3.58,3.39c0.51,0.49,0.74,1.18,0.63,1.86l-0.85,4.79l4.43-2.26
		C939.87,33.61,940.21,33.53,940.56,33.53z"/>
	<path class="st4" d="M285.15,42.9c-0.36,0-0.71-0.09-1.02-0.25l-7.3-3.72l-7.31,3.73c-0.31,0.16-0.66,0.24-1.01,0.24
		c-0.45,0-0.89-0.13-1.26-0.39c-0.68-0.49-1.01-1.3-0.88-2.07l1.39-7.9l-5.91-5.59c-0.6-0.57-0.81-1.39-0.55-2.16
		c0.25-0.76,0.92-1.31,1.74-1.44l8.19-1.15l3.66-7.19c0.36-0.72,1.11-1.17,1.94-1.17c0.83,0,1.57,0.45,1.95,1.17l3.65,7.19
		l8.18,1.15c0.83,0.13,1.5,0.68,1.75,1.44c0.26,0.76,0.05,1.59-0.55,2.16l-5.92,5.6l1.39,7.9c0.15,0.78-0.19,1.59-0.86,2.06
		C286.04,42.76,285.6,42.9,285.15,42.9z M276.82,34.44c0.35,0,0.7,0.08,1,0.24l4.44,2.26l-0.84-4.78c-0.12-0.69,0.11-1.39,0.62-1.87
		l3.58-3.39l-4.95-0.7c-0.7-0.09-1.32-0.53-1.64-1.15l-2.21-4.35l-2.21,4.35c-0.32,0.63-0.93,1.06-1.64,1.15l-4.94,0.7l3.58,3.39
		c0.51,0.49,0.74,1.18,0.63,1.86l-0.85,4.79l4.43-2.26C276.12,34.52,276.47,34.44,276.82,34.44z"/>
	<path class="st4" d="M1200.99,59.81c0.81,0,1.58-0.16,2.31-0.47c2.31-0.98,3.85-3.07,3.85-5.35c0-3.07-2.63-5.46-5.99-5.46
		c-3.56,0-5.79,2.79-5.79,5.35C1195.36,55.8,1196.74,59.81,1200.99,59.81z"/>
	<path class="st4" d="M1200.99,106.4c0.81,0,1.58-0.16,2.31-0.47c2.31-0.98,3.85-3.07,3.85-5.35c0-3.07-2.63-5.46-5.99-5.46
		c-3.56,0-5.79,2.79-5.79,5.35C1195.36,102.39,1196.74,106.4,1200.99,106.4z"/>
	<g class="st2">
		<path class="st3" d="M402.38,33.36H320.4c-1.09,0-1.98-1.39-1.98-3.1s0.89-3.1,1.98-3.1h81.99c1.09,0,1.98,1.39,1.98,3.1
			S403.48,33.36,402.38,33.36z"/>
	</g>
	<g class="st2">
		<path class="st3" d="M454.69,51.7H363.2c-1.22,0-2.21-1.39-2.21-3.1c0-1.71,0.99-3.1,2.21-3.1h91.49c1.22,0,2.21,1.39,2.21,3.1
			C456.9,50.32,455.91,51.7,454.69,51.7z"/>
	</g>
	<g class="st2">
		<path class="st3" d="M366.63,131.12h-91.49c-1.22,0-2.21-1.39-2.21-3.1s0.99-3.1,2.21-3.1h91.49c1.22,0,2.21,1.39,2.21,3.1
			S367.85,131.12,366.63,131.12z"/>
	</g>
	<path class="st4" d="M1061.26,112.91c-0.84-0.8-2.18-0.8-3.02,0l-8.54,8.29c-0.83,0.82-0.83,2.12,0,2.94l8.54,8.29
		c0.4,0.38,0.95,0.59,1.51,0.59c0.56,0.01,1.11-0.21,1.51-0.59l8.54-8.29c0.4-0.39,0.63-0.92,0.63-1.47c0-0.55-0.23-1.08-0.63-1.47
		L1061.26,112.91z M1059.74,128.02l-5.51-5.36l5.51-5.34l5.52,5.34L1059.74,128.02z M1059.74,128.02"/>
	<path class="st4" d="M856.92,195.52c-0.84-0.8-2.18-0.8-3.02,0l-8.54,8.29c-0.83,0.82-0.83,2.12,0,2.94l8.54,8.29
		c0.4,0.38,0.95,0.59,1.51,0.59c0.57,0.01,1.11-0.21,1.51-0.59l8.54-8.29c0.4-0.39,0.63-0.92,0.63-1.47c0-0.55-0.23-1.08-0.63-1.47
		L856.92,195.52z M855.39,210.63l-5.51-5.36l5.51-5.34l5.52,5.34L855.39,210.63z M855.39,210.63"/>
	<path class="st4" d="M981.7,21.75c-0.84-0.8-2.18-0.8-3.02,0l-8.54,8.29c-0.83,0.82-0.83,2.12,0,2.94l8.54,8.29
		c0.4,0.38,0.95,0.59,1.51,0.59c0.57,0.01,1.11-0.21,1.51-0.59l8.54-8.29c0.4-0.39,0.63-0.92,0.63-1.47c0-0.55-0.23-1.08-0.63-1.47
		L981.7,21.75z M980.18,36.86l-5.51-5.36l5.51-5.34l5.52,5.34L980.18,36.86z M980.18,36.86"/>
	<path class="st4" d="M629.59,120.84h9.15c1.47,0,2.67-1.16,2.67-2.59c0-1.43-1.2-2.59-2.67-2.59h-9.15c-1.47,0-2.67,1.16-2.67,2.59
		C626.92,119.68,628.11,120.84,629.59,120.84z"/>
	<path class="st4" d="M646.37,120.84h2.36c1.47,0,2.67-1.16,2.67-2.59c0-1.43-1.2-2.59-2.67-2.59h-2.36c-1.47,0-2.67,1.16-2.67,2.59
		C643.71,119.68,644.9,120.84,646.37,120.84z"/>
	<path class="st4" d="M616.97,105.95h31.2c1.47,0,2.67-1.16,2.67-2.59c0-1.43-1.2-2.59-2.67-2.59h-31.2c-1.47,0-2.67,1.16-2.67,2.59
		C614.3,104.79,615.5,105.95,616.97,105.95z"/>
	<path class="st4" d="M499.41,132.3h31.2c1.47,0,2.67-1.16,2.67-2.59c0-1.43-1.2-2.59-2.67-2.59h-31.2c-1.47,0-2.67,1.16-2.67,2.59
		C496.74,131.14,497.93,132.3,499.41,132.3z"/>
	<g class="st2">
		<path class="st3" d="M1338.73,26.91c-1.42,0-2.57-1.12-2.57-2.5v-7.68c0-1.38,1.15-2.5,2.57-2.5c1.42,0,2.57,1.12,2.57,2.5v7.68
			C1341.3,25.79,1340.15,26.91,1338.73,26.91z"/>
		<path class="st3" d="M1318.86,103.36c-1.79,0-3.48-0.67-4.75-1.9l-15.9-15.4c-0.01-0.01-0.06-0.07-0.08-0.08l-3.06-2.96
			c-1.27-1.23-1.96-2.87-1.96-4.61c0-1.75,0.7-3.38,1.96-4.61l3.14-3.04c1.27-1.23,2.95-1.9,4.75-1.9c0.8,0,1.6,0.14,2.35,0.41
			l4.97-4.82c-2.44-2.65-2.35-6.73,0.27-9.26c0.53-0.51,1.12-0.93,1.78-1.25c-0.48-0.93-0.72-1.95-0.72-3c0-1.81,0.72-3.5,2.04-4.77
			c0.77-0.74,1.69-1.29,2.71-1.62c-0.06-0.37-0.1-0.75-0.1-1.13c0-1.81,0.73-3.5,2.04-4.77c0.76-0.74,1.69-1.29,2.7-1.62
			c-0.06-0.37-0.1-0.75-0.1-1.12c0-1.81,0.72-3.5,2.03-4.77c1.31-1.27,3.06-1.97,4.92-1.97c0.65,0,1.28,0.09,1.9,0.25
			c0.86-0.74,2.05-1.12,3.54-1.12c0.96,0,1.9,0.15,2.53,0.27l11.6,2.13c0.21-0.02,0.41-0.03,0.62-0.03c1.86,0,3.6,0.7,4.92,1.96
			c1.6,1.56,2.31,3.76,1.94,5.9c1.02,0.33,1.94,0.88,2.7,1.62c1.31,1.27,2.04,2.96,2.04,4.77c0,0.38-0.03,0.75-0.1,1.12
			c1.02,0.33,1.94,0.88,2.71,1.63c1.31,1.27,2.03,2.96,2.03,4.77c0,0.38-0.03,0.75-0.1,1.12c1.02,0.33,1.94,0.88,2.71,1.63
			c2.62,2.53,2.7,6.61,0.27,9.26l4.95,4.8c0.84-0.35,1.76-0.54,2.69-0.54c1.8,0,3.48,0.68,4.75,1.9l3.14,3.03
			c1.27,1.23,1.97,2.87,1.97,4.61c0,1.75-0.7,3.38-1.96,4.61l-19.02,18.44c-1.27,1.23-2.95,1.9-4.75,1.9c-1.8,0-3.48-0.68-4.75-1.9
			l-3.14-3.04c-1.27-1.23-1.96-2.86-1.96-4.61c0-0.9,0.19-1.79,0.55-2.6l-6.61-6.41c-0.49,0.04-1,0.06-1.56,0.06
			c-1,0-1.95-0.06-2.87-0.13c-0.8-0.05-1.61-0.11-2.32-0.11c-1.42,0-1.85,0.22-1.99,0.36l-6.25,6.06c0.46,0.9,0.71,1.9,0.71,2.92
			c0,1.75-0.7,3.38-1.97,4.61l-3.14,3.04C1322.35,102.68,1320.66,103.36,1318.86,103.36z M1302.97,73.85
			c-0.42,0-0.81,0.16-1.11,0.44l-3.14,3.04c-0.29,0.28-0.45,0.67-0.45,1.08s0.16,0.79,0.46,1.08l3.91,3.8
			c0.01,0.01,0.06,0.06,0.07,0.07l15.04,14.57c0.3,0.28,0.69,0.44,1.11,0.44c0.42,0,0.82-0.16,1.12-0.45l3.13-3.04
			c0.29-0.28,0.46-0.67,0.46-1.08c0-0.38-0.14-0.73-0.39-1.01l-0.83-0.81l-17.9-17.35c-0.22-0.12-0.43-0.26-0.6-0.43
			c-0.07-0.07-0.14-0.14-0.2-0.21C1303.45,73.9,1303.21,73.85,1302.97,73.85z M1374.8,73.7c-0.42,0-0.82,0.16-1.11,0.44
			l-19.02,18.44c-0.29,0.28-0.46,0.67-0.46,1.07s0.16,0.79,0.46,1.08l3.14,3.04c0.29,0.29,0.69,0.44,1.11,0.44
			c0.42,0,0.82-0.16,1.11-0.44l19.03-18.44c0.29-0.28,0.46-0.67,0.46-1.08s-0.16-0.79-0.46-1.08l-3.14-3.03
			C1375.62,73.85,1375.22,73.7,1374.8,73.7z M1352.92,87.2l15.22-14.75l-4.61-4.47l-0.63,0.61c-0.49,0.47-1.13,0.73-1.82,0.73
			c-0.69,0-1.33-0.26-1.82-0.73c-1-0.97-1-2.56,0-3.53l3.99-3.87c0.34-0.33,0.53-0.77,0.53-1.24c0-0.47-0.19-0.91-0.53-1.24
			c-0.34-0.33-0.79-0.51-1.28-0.51c-0.49,0-0.94,0.18-1.28,0.51c-0.01,0.01-0.05,0.05-0.07,0.06l-1.48,1.44
			c-0.49,0.47-1.13,0.73-1.82,0.73c-0.69,0-1.33-0.26-1.82-0.73c-1-0.97-1-2.56,0-3.53l3.1-3.01c0.34-0.33,0.53-0.77,0.53-1.24
			c0-0.47-0.19-0.91-0.52-1.23c-0.34-0.33-0.8-0.51-1.28-0.51c-0.49,0-0.94,0.18-1.28,0.51l-1.79,1.73
			c-0.49,0.47-1.13,0.73-1.82,0.73c-0.69,0-1.34-0.26-1.82-0.74c-0.48-0.47-0.75-1.1-0.75-1.77c0-0.67,0.27-1.29,0.76-1.76
			l1.78-1.72l1.55-1.51c0.34-0.33,0.53-0.77,0.53-1.24c0-0.47-0.19-0.91-0.52-1.23c-0.34-0.33-0.8-0.52-1.29-0.52
			c-0.48,0-0.93,0.18-1.27,0.51l-1.78,1.73c-0.49,0.47-1.13,0.73-1.82,0.73c-0.69,0-1.33-0.26-1.82-0.73c-1-0.97-1-2.56,0-3.53
			l3.34-3.23c0.7-0.68,0.7-1.8-0.01-2.48c-0.34-0.32-0.79-0.5-1.28-0.5c-0.09,0-0.17,0.01-0.26,0.02c-0.03,0.01-0.08,0.02-0.14,0.02
			c-0.34,0.07-0.65,0.24-0.89,0.47l-4.65,4.51c0.46,0.92,0.71,1.94,0.71,2.98c0,1.81-0.72,3.5-2.03,4.77
			c-1.14,1.11-2.61,1.78-4.2,1.94c-0.16,1.54-0.85,2.96-1.99,4.07c-1.15,1.11-2.62,1.78-4.21,1.94c-0.17,1.56-0.86,2.98-2,4.08
			c-1.14,1.1-2.61,1.78-4.2,1.93c-0.17,1.56-0.86,2.98-2,4.08c-1.31,1.27-3.05,1.97-4.92,1.97c-1.07,0-2.12-0.24-3.07-0.69
			l-4.8,4.65l15.22,14.75l5.97-5.79c1.65-1.65,3.9-1.86,5.67-1.86c0.89,0,1.79,0.06,2.66,0.12c0.85,0.06,1.73,0.12,2.54,0.12
			c1.85,0,2.98-0.3,3.68-0.99l7.13-6.9c0.12-0.13,0.27-0.25,0.44-0.36c0.01-0.01,0.09-0.06,0.1-0.06c0.04-0.02,0.1-0.06,0.16-0.09
			c0.02-0.01,0.06-0.03,0.08-0.04c0.02-0.01,0.09-0.04,0.15-0.06c0.12-0.04,0.18-0.06,0.23-0.08c0.02,0,0.2-0.05,0.25-0.06
			l0.24-0.03c0,0,0.25-0.01,0.26-0.01c0.02,0,0.23,0.01,0.23,0.01c0.01,0,0.09,0.01,0.1,0.01c0.06,0.01,0.11,0.02,0.17,0.03
			c0.12,0.03,0.18,0.04,0.23,0.06c0.02,0,0.07,0.02,0.09,0.03c0.04,0.01,0.1,0.03,0.16,0.06c0.11,0.05,0.16,0.07,0.22,0.1
			c0.01,0,0.2,0.12,0.2,0.12c0.01,0.01,0.2,0.14,0.21,0.15c0.04,0.03,0.19,0.17,0.21,0.19l0.15,0.17c0.01,0.01,0.04,0.05,0.05,0.06
			c0.03,0.04,0.07,0.09,0.11,0.15c0.05,0.08,0.09,0.15,0.13,0.22c0,0,0.01,0.01,0.01,0.02c0.03,0.07,0.07,0.14,0.09,0.21
			c0.04,0.11,0.06,0.17,0.08,0.23c0,0.01,0.05,0.23,0.05,0.23c0,0.01,0.03,0.22,0.03,0.24l0.01,0.24c0,0.01-0.02,0.24-0.02,0.24
			c0,0.01-0.04,0.24-0.04,0.24c0,0.01-0.05,0.19-0.06,0.24c0,0.01-0.06,0.17-0.09,0.22c0,0.01-0.08,0.18-0.11,0.22
			c-0.01,0.01-0.12,0.19-0.12,0.2c-0.03,0.04-0.15,0.19-0.15,0.2c-0.04,0.05-0.09,0.1-0.14,0.15c-0.01,0.01-7.2,6.97-7.2,6.97
			c-0.16,0.16-0.33,0.31-0.51,0.45L1352.92,87.2z M1315.98,62.91c0.34,0.33,0.8,0.51,1.28,0.51s0.94-0.18,1.28-0.51
			c0.34-0.33,0.53-0.77,0.53-1.24c0-0.47-0.19-0.91-0.52-1.23l-1.78-1.73c-0.34-0.33-0.8-0.51-1.28-0.51
			c-0.49,0-0.94,0.18-1.28,0.51c-0.34,0.33-0.53,0.77-0.53,1.24c0,0.47,0.19,0.91,0.53,1.24c0,0,1.56,1.5,1.57,1.51L1315.98,62.91z
			 M1322.18,56.9c0.34,0.33,0.79,0.51,1.28,0.51c0.49,0,0.94-0.18,1.28-0.51c0.34-0.33,0.53-0.77,0.53-1.24
			c0-0.47-0.19-0.91-0.52-1.23l-4.91-4.76c-0.33-0.32-0.78-0.5-1.27-0.5c-0.49,0-0.94,0.18-1.28,0.51
			c-0.34,0.33-0.53,0.77-0.53,1.24c0,0.47,0.19,0.91,0.53,1.24l3.09,3C1320.39,55.17,1322.18,56.9,1322.18,56.9z M1323.22,41.66
			c-0.49,0-0.94,0.18-1.28,0.51c-0.34,0.33-0.53,0.77-0.53,1.24c0,0.47,0.19,0.91,0.53,1.24l6.44,6.25c0.34,0.33,0.8,0.51,1.28,0.51
			c0.49,0,0.95-0.18,1.29-0.51c0.7-0.68,0.7-1.79-0.01-2.48l-6.45-6.24C1324.16,41.84,1323.7,41.66,1323.22,41.66z M1334.6,44.9
			c0.34,0.32,0.79,0.49,1.26,0.49c0.49,0,0.94-0.18,1.28-0.51c0.34-0.33,0.52-0.77,0.52-1.24c0-0.28-0.06-0.54-0.19-0.78
			c-2.24-0.65-4.33-2.42-5.15-3.18c-1.1-1.02-3-3.05-3.7-5.38c-0.24-0.11-0.51-0.17-0.78-0.17c-0.49,0-0.94,0.18-1.28,0.51
			c-0.34,0.33-0.52,0.77-0.52,1.24c0,0.47,0.19,0.91,0.52,1.24C1326.58,37.13,1334.59,44.89,1334.6,44.9z M1333.73,33.3
			c0.34,0.74,1.08,1.77,2.17,2.78c0.84,0.78,1.56,1.26,2.07,1.55l3.12-3.03l-6.22-1.14C1334.38,33.37,1334.01,33.32,1333.73,33.3z"
			/>
		<path class="st3" d="M1316.41,25.96c-0.69,0-1.33-0.26-1.82-0.73l-6.47-6.26c-1-0.97-1.01-2.56,0-3.53
			c0.49-0.47,1.13-0.73,1.82-0.73c0.69,0,1.33,0.26,1.82,0.73l6.47,6.26c1,0.97,1.01,2.56,0,3.53
			C1317.75,25.7,1317.1,25.96,1316.41,25.96z"/>
		<path class="st3" d="M1361.05,25.96c-0.69,0-1.33-0.26-1.82-0.73c-0.49-0.47-0.75-1.1-0.75-1.77c0-0.67,0.27-1.29,0.75-1.76
			l6.46-6.27c0.49-0.47,1.13-0.73,1.82-0.73c0.69,0,1.33,0.26,1.82,0.73c1,0.97,1,2.56,0,3.53l-6.46,6.27
			C1362.38,25.7,1361.73,25.96,1361.05,25.96z"/>
	</g>
	<path class="st4" d="M1143.65,134.33c0.56,0.81,1.42,1.37,2.41,1.57c0.98,0.19,2.01,0,2.84-0.55l27.74-17.93
		c4.02-2.6,6.75-6.56,7.7-11.15c0.95-4.59,0-9.27-2.68-13.17c-5.52-8.05-16.76-10.23-25.05-4.87l-0.81,0.52l-0.54-0.79
		c-5.52-8.05-16.76-10.23-25.05-4.87c-4.02,2.6-6.75,6.56-7.7,11.15c-0.95,4.59,0,9.27,2.68,13.17L1143.65,134.33z M1134.39,89.21
		c2.41-1.56,5.25-2.02,7.88-1.51c2.64,0.51,5.07,2,6.68,4.34l2.64,3.85c0.56,0.81,1.42,1.37,2.41,1.57
		c0.98,0.19,2.01-0.01,2.84-0.54l3.96-2.56c4.82-3.12,11.35-1.85,14.56,2.83c1.55,2.26,2.11,4.98,1.56,7.65
		c-0.55,2.67-2.14,4.97-4.47,6.48l-24.59,15.89l-16.38-23.86c-1.55-2.26-2.11-4.98-1.56-7.65
		C1130.47,93.02,1132.06,90.72,1134.39,89.21L1134.39,89.21z M1134.39,89.21"/>
	<path class="st4" d="M1190.98,180.04c2.42-2.77,3.88-6.36,3.88-10.26v-7.34c0-8.77-7.36-15.91-16.4-15.91s-16.4,7.14-16.4,15.91
		v7.34c0,3.92,1.47,7.51,3.89,10.28c-3.62,1.47-6.83,3.84-9.25,6.87c-1.2-0.78-2.48-1.44-3.82-1.99c2.42-2.77,3.88-6.36,3.88-10.26
		v-7.34c0-8.77-7.36-15.91-16.4-15.91s-16.4,7.14-16.4,15.91v7.34c0,3.91,1.46,7.49,3.88,10.26c-1.34,0.55-2.62,1.21-3.82,1.99
		c-2.43-3.03-5.63-5.4-9.25-6.87c2.43-2.77,3.89-6.36,3.89-10.28v-7.34c0-8.77-7.36-15.91-16.4-15.91s-16.4,7.14-16.4,15.91v7.34
		c0,3.91,1.46,7.49,3.88,10.26c-8.2,3.33-13.97,11.19-13.97,20.34v3.67c0,2.03,1.69,3.67,3.78,3.67h34.31v1.22
		c0,2.03,1.69,3.67,3.78,3.67h45.41c2.09,0,3.78-1.64,3.78-3.67v-1.22h34.31c2.09,0,3.78-1.64,3.78-3.67v-3.67
		C1204.96,191.23,1199.18,183.37,1190.98,180.04L1190.98,180.04z M1169.64,162.43c0-4.72,3.96-8.57,8.83-8.57s8.83,3.84,8.83,8.57
		v7.34c0,4.72-3.96,8.57-8.83,8.57s-8.83-3.84-8.83-8.57V162.43z M1131.54,167.33c0-4.72,3.96-8.57,8.83-8.57s8.83,3.84,8.83,8.57
		v7.34c0,4.72-3.96,8.57-8.83,8.57s-8.83-3.84-8.83-8.57V167.33z M1093.45,162.43c0-4.72,3.96-8.57,8.83-8.57
		c4.87,0,8.83,3.84,8.83,8.57v7.34c0,4.72-3.96,8.57-8.83,8.57c-4.87,0-8.83-3.84-8.83-8.57V162.43z M1098.5,185.69h7.57
		c4.97,0,9.62,2.41,12.42,6.3c-1.91,2.45-3.31,5.29-4.04,8.39h-31.09C1083.36,192.28,1090.15,185.69,1098.5,185.69L1098.5,185.69z
		 M1121.45,205.28c0-8.1,6.79-14.69,15.14-14.69h7.57c8.35,0,15.14,6.59,15.14,14.69H1121.45z M1166.3,200.38
		c-0.73-3.09-2.12-5.94-4.04-8.39c2.81-3.89,7.46-6.3,12.42-6.3h7.57c8.35,0,15.14,6.59,15.14,14.69H1166.3z M1166.3,200.38"/>
	<g class="st2">
		<path class="st3" d="M796.25,70.33h7.53c2.08,0,3.76-1.63,3.76-3.65c0-2.02-1.68-3.65-3.76-3.65h-7.53
			c-2.08,0-3.76,1.63-3.76,3.65C792.49,68.69,794.17,70.33,796.25,70.33z"/>
		<path class="st3" d="M907.88,66.68c0-2.02-1.68-3.65-3.76-3.65h-7.53c-2.08,0-3.76,1.63-3.76,3.65c0,2.02,1.68,3.65,3.76,3.65
			h7.53C906.2,70.33,907.88,68.69,907.88,66.68z"/>
		<path class="st3" d="M846.42,111.71v7.3c0,2.02,1.68,3.65,3.76,3.65c2.08,0,3.76-1.63,3.76-3.65v-7.3c0-2.02-1.68-3.65-3.76-3.65
			C848.11,108.06,846.42,109.7,846.42,111.71z"/>
		<path class="st3" d="M853.95,21.64v-7.3c0-2.02-1.68-3.65-3.76-3.65c-2.08,0-3.76,1.63-3.76,3.65v7.3c0,2.02,1.68,3.65,3.76,3.65
			C852.26,25.29,853.95,23.66,853.95,21.64z"/>
		<path class="st3" d="M871.51,102.52c-1.8,1.01-2.42,3.24-1.38,4.99l3.76,6.32c1.04,1.75,3.34,2.34,5.14,1.34
			c1.8-1.01,2.42-3.24,1.38-4.99l-3.76-6.32C875.61,102.11,873.31,101.51,871.51,102.52z"/>
		<path class="st3" d="M828.86,30.83c1.8-1.01,2.42-3.24,1.38-4.99l-3.76-6.32c-1.04-1.75-3.34-2.35-5.14-1.34
			c-1.8,1.01-2.42,3.24-1.38,4.99l3.76,6.32C824.76,31.25,827.06,31.84,828.86,30.83z"/>
		<path class="st3" d="M888.49,92.36l6.52,3.65c1.8,1.01,4.1,0.41,5.14-1.34c1.04-1.75,0.42-3.98-1.38-4.99l-6.52-3.65
			c-1.8-1.01-4.1-0.41-5.14,1.34C886.08,89.12,886.69,91.35,888.49,92.36z"/>
		<path class="st3" d="M811.88,41l-6.52-3.65c-1.8-1.01-4.1-0.41-5.14,1.34c-1.04,1.75-0.42,3.98,1.38,4.99l6.52,3.65
			c1.8,1.01,4.1,0.41,5.14-1.34C814.29,44.24,813.68,42,811.88,41z"/>
		<path class="st3" d="M892.26,47.32l6.52-3.65c1.8-1.01,2.42-3.24,1.38-4.99c-1.04-1.75-3.34-2.35-5.14-1.34L888.49,41
			c-1.8,1.01-2.42,3.24-1.38,4.99C888.16,47.73,890.46,48.33,892.26,47.32z"/>
		<path class="st3" d="M808.11,86.03l-6.52,3.65c-1.8,1.01-2.42,3.24-1.38,4.99c1.04,1.75,3.34,2.34,5.14,1.34l6.52-3.65
			c1.8-1.01,2.42-3.24,1.38-4.99C812.21,85.62,809.91,85.02,808.11,86.03z"/>
		<path class="st3" d="M876.65,29.5l3.76-6.32c1.04-1.75,0.42-3.98-1.38-4.99c-1.8-1.01-4.1-0.41-5.14,1.34l-3.76,6.32
			c-1.04,1.75-0.42,3.98,1.38,4.99C873.31,31.84,875.61,31.25,876.65,29.5z"/>
		<path class="st3" d="M823.72,103.85l-3.76,6.32c-1.04,1.75-0.42,3.98,1.38,4.99c1.8,1.01,4.1,0.41,5.14-1.34l3.76-6.32
			c1.04-1.75,0.42-3.98-1.38-4.99C827.06,101.51,824.76,102.11,823.72,103.85z"/>
		<path class="st3" d="M850.18,32.59c-19.36,0-35.12,15.29-35.12,34.08s15.75,34.08,35.12,34.08c19.37,0,35.12-15.29,35.12-34.08
			S869.55,32.59,850.18,32.59z M850.18,93.46c-15.22,0-27.59-12.01-27.59-26.78s12.38-26.78,27.59-26.78
			c15.22,0,27.59,12.01,27.59,26.78S865.4,93.46,850.18,93.46z"/>
		<path class="st3" d="M850.18,47.2c-11.07,0-20.07,8.74-20.07,19.48c0,2.02,1.68,3.65,3.76,3.65c2.08,0,3.76-1.63,3.76-3.65
			c0-6.71,5.63-12.17,12.54-12.17c2.08,0,3.76-1.63,3.76-3.65S852.26,47.2,850.18,47.2z"/>
	</g>
	<g class="st2">
		<path class="st3" d="M1001.58,215.76c-9.06,0-16.44-7.16-16.44-15.95c0-1.01,0.1-2.02,0.3-3.01l7.04-35.55l-7.13-16.88
			c-0.39-0.91-0.24-1.96,0.39-2.74c0.54-0.67,1.36-1.05,2.23-1.05c0.14,0,0.28,0.01,0.42,0.03l52.14,7.52
			c0.93,0.13,1.72,0.7,2.13,1.52c0.41,0.82,0.38,1.78-0.09,2.57l-1.83,3.11h6.82c4.85,0,8.79,3.83,8.79,8.54v18.8
			c0,6.3-5.28,11.43-11.77,11.43h-0.98l0.54,2.72c0.2,0.99,0.3,2,0.3,3.01c0,8.8-7.37,15.95-16.44,15.95H1001.58z M991.01,197.83
			c-0.13,0.65-0.19,1.31-0.19,1.97c0,5.76,4.83,10.45,10.77,10.45h26.43c5.94,0,10.77-4.69,10.77-10.45c0-0.66-0.07-1.32-0.19-1.97
			l-6.76-34.12h-34.05L991.01,197.83z M1044.59,188.57c3.37,0,6.1-2.66,6.1-5.92v-18.8c0-1.67-1.4-3.03-3.12-3.03h-10.06l-0.37,0.62
			l5.38,27.13H1044.59z M1032.52,158.21l3.08-5.24l-43.11-6.22l4.84,11.45H1032.52z"/>
		<path class="st3" d="M1004.86,179.67c-0.87-0.85-2.29-0.85-3.16,0c-6.1,5.92-6.1,15.55,0,21.47c3.05,2.96,7.06,4.44,11.06,4.44
			c4.01,0,8.01-1.48,11.06-4.44c0.87-0.85,0.87-2.22,0-3.07L1004.86,179.67z M1003.44,184.42l5.01,4.86l-6.83,1.78
			C1001.47,188.75,1002.08,186.41,1003.44,184.42L1003.44,184.42z M1002.77,195.24l6.83-1.78l-1.83,6.63
			c-1.05-0.51-2.04-1.18-2.91-2.03C1003.99,197.22,1003.29,196.26,1002.77,195.24L1002.77,195.24z M1012.09,201.22l1.83-6.63l5,4.86
			C1016.87,200.77,1014.46,201.35,1012.09,201.22L1012.09,201.22z M1012.09,201.22"/>
		<path class="st3" d="M1023.73,180.48c3.7,0,6.7-2.92,6.7-6.51c0-3.59-3.01-6.51-6.7-6.51c-3.7,0-6.7,2.92-6.7,6.51
			C1017.03,177.56,1020.04,180.48,1023.73,180.48L1023.73,180.48z M1023.73,171.8c1.23,0,2.23,0.97,2.23,2.17
			c0,1.2-1,2.17-2.23,2.17c-1.23,0-2.23-0.97-2.23-2.17C1021.5,172.77,1022.5,171.8,1023.73,171.8L1023.73,171.8z M1023.73,171.8"/>
		<path class="st3" d="M1028.95,193.35c-1.56,0-2.84-1.23-2.84-2.75c0-1.52,1.27-2.75,2.84-2.75c1.56,0,2.84,1.23,2.84,2.75
			C1031.78,192.11,1030.51,193.35,1028.95,193.35z"/>
		<ellipse class="st3" cx="1008.09" cy="171.8" rx="2.84" ry="2.75"/>
	</g>
	<g class="st2">
		<path class="st3" d="M671.41,90.14c-7.13,0-14.08-2.04-20.09-5.89c-8.16-5.23-13.74-13.22-15.7-22.52
			c-1.96-9.3-0.08-18.78,5.31-26.7c5.39-7.92,13.63-13.33,23.2-15.23c2.45-0.49,4.94-0.73,7.42-0.73c7.13,0,14.08,2.03,20.09,5.89
			c8.16,5.23,13.74,13.22,15.7,22.52c1.96,9.3,0.08,18.78-5.31,26.7c-5.39,7.92-13.63,13.33-23.2,15.23
			C676.38,89.89,673.88,90.14,671.41,90.14C671.41,90.14,671.41,90.14,671.41,90.14z M671.53,25.5c-10.14,0-19.52,4.89-25.08,13.07
			c-9.11,13.4-5.29,31.49,8.51,40.33c4.91,3.14,10.61,4.81,16.47,4.81c10.14,0,19.52-4.89,25.08-13.07
			c9.11-13.4,5.29-31.49-8.51-40.33C683.09,27.16,677.4,25.5,671.53,25.5z"/>
		<path class="st3" d="M668.17,46.55c-0.65,0-1.28-0.18-1.82-0.53c-0.74-0.47-1.24-1.19-1.42-2.03c-0.33-1.55-1.74-2.67-3.37-2.67
			c-0.23,0-0.46,0.02-0.69,0.07c-0.22,0.04-0.44,0.07-0.67,0.07l0,0c-1.56,0-2.92-1.08-3.23-2.56c-0.18-0.84-0.01-1.7,0.48-2.41
			c0.49-0.71,1.23-1.2,2.09-1.37c0.67-0.13,1.34-0.2,2.02-0.2c4.75,0,8.89,3.28,9.84,7.8c0.18,0.84,0.01,1.69-0.48,2.41
			c-0.49,0.71-1.23,1.2-2.09,1.38C668.62,46.53,668.39,46.55,668.17,46.55z"/>
		<path class="st3" d="M691.4,61.43c-0.65,0-1.27-0.18-1.82-0.53c-0.74-0.47-1.24-1.19-1.42-2.03c-0.33-1.55-1.74-2.67-3.37-2.67
			c-0.23,0-0.46,0.02-0.69,0.07c-0.22,0.04-0.44,0.07-0.67,0.07c0,0,0,0,0,0c-1.56,0-2.92-1.08-3.23-2.56
			c-0.18-0.84-0.01-1.7,0.48-2.41c0.49-0.71,1.23-1.2,2.09-1.37c0.67-0.13,1.34-0.2,2.02-0.2c4.75,0,8.89,3.28,9.84,7.8
			c0.18,0.84,0.01,1.69-0.48,2.41c-0.49,0.71-1.23,1.2-2.09,1.37C691.85,61.41,691.63,61.43,691.4,61.43z"/>
		<path class="st3" d="M669.43,78.9c-4.3,0-8.48-1.22-12.08-3.52c-4.9-3.13-8.24-7.94-9.42-13.53c-1.18-5.59-0.05-11.29,3.18-16.04
			c0.61-0.9,1.65-1.44,2.76-1.44c0.65,0,1.28,0.18,1.82,0.53l31.2,19.98c0.74,0.47,1.24,1.19,1.42,2.03
			c0.18,0.84,0.01,1.7-0.48,2.41C683.74,75.32,676.87,78.9,669.43,78.9C669.43,78.9,669.43,78.9,669.43,78.9z M655.1,52.21
			c-2.57,6.47-0.17,13.93,5.89,17.82c2.52,1.61,5.44,2.46,8.45,2.46c4.05,0,7.89-1.52,10.75-4.22L655.1,52.21z"/>
	</g>
	<g class="st2">
		<path class="st3" d="M1283.47,112.04c0,6.19-1.87,12.21-5.42,17.43c-4.81,7.08-12.18,11.92-20.74,13.62
			c-8.56,1.7-17.3,0.07-24.59-4.61c-7.3-4.67-12.28-11.82-14.03-20.13c-0.45-2.12-0.68-4.29-0.68-6.44c0-6.19,1.87-12.21,5.42-17.43
			c4.81-7.08,12.18-11.92,20.74-13.62c8.56-1.7,17.3-0.07,24.59,4.61c7.3,4.67,12.28,11.82,14.03,20.13
			C1283.24,107.73,1283.47,109.9,1283.47,112.04C1283.47,112.04,1283.47,112.04,1283.47,112.04z M1223.93,111.94
			c0,8.8,4.5,16.93,12.04,21.76c12.34,7.9,29.01,4.59,37.15-7.39c2.9-4.26,4.43-9.2,4.43-14.29c0-8.8-4.5-16.93-12.04-21.76
			c-12.34-7.9-29.01-4.59-37.15,7.39C1225.46,101.9,1223.93,106.85,1223.93,111.94z"/>
		<path class="st3" d="M1243.32,114.85c0,0.56-0.17,1.11-0.49,1.58c-0.43,0.64-1.1,1.07-1.87,1.23c-1.42,0.28-2.46,1.51-2.46,2.92
			c0,0.2,0.02,0.4,0.06,0.6c0.04,0.19,0.06,0.38,0.06,0.58l0,0c0,1.35-0.99,2.53-2.36,2.81c-0.77,0.15-1.56,0.01-2.22-0.42
			c-0.66-0.42-1.11-1.07-1.27-1.82c-0.12-0.58-0.18-1.17-0.18-1.75c0-4.12,3.02-7.71,7.18-8.54c0.77-0.15,1.56-0.01,2.22,0.42
			s1.11,1.07,1.27,1.82C1243.3,114.46,1243.32,114.66,1243.32,114.85z"/>
		<path class="st3" d="M1257.03,94.69c0,0.56-0.17,1.11-0.49,1.58c-0.44,0.64-1.1,1.08-1.87,1.23c-1.42,0.28-2.46,1.51-2.46,2.92
			c0,0.2,0.02,0.4,0.06,0.6c0.04,0.19,0.06,0.38,0.06,0.58c0,0,0,0,0,0c0,1.35-0.99,2.53-2.36,2.81c-0.77,0.15-1.56,0.01-2.22-0.42
			c-0.66-0.42-1.11-1.07-1.27-1.82c-0.12-0.58-0.18-1.17-0.18-1.75c0-4.12,3.02-7.71,7.18-8.54c0.77-0.15,1.56-0.01,2.22,0.42
			c0.66,0.42,1.11,1.07,1.27,1.82C1257.01,94.31,1257.03,94.5,1257.03,94.69z"/>
		<path class="st3" d="M1273.12,113.75c0,3.73-1.12,7.36-3.25,10.48c-2.89,4.25-7.31,7.15-12.46,8.17
			c-5.15,1.02-10.4,0.04-14.77-2.76c-0.83-0.53-1.33-1.43-1.33-2.39c0-0.56,0.17-1.11,0.49-1.58l18.4-27.06
			c0.43-0.64,1.1-1.08,1.87-1.23c0.77-0.15,1.56-0.01,2.22,0.42C1269.82,101.34,1273.12,107.3,1273.12,113.75
			C1273.12,113.75,1273.12,113.75,1273.12,113.75z M1248.53,126.18c5.96,2.23,12.84,0.15,16.41-5.11c1.48-2.18,2.27-4.72,2.27-7.33
			c0-3.51-1.4-6.85-3.88-9.32L1248.53,126.18z"/>
	</g>
	<path class="st4" d="M944.53,82.31c1.74,0,3.15,1.37,3.15,3.05l0,0c0,1.69-1.41,3.05-3.15,3.05s-3.15-1.37-3.15-3.05l0,0
		C941.38,83.67,942.79,82.31,944.53,82.31z M953.97,85.36L953.97,85.36c0,1.69,1.41,3.05,3.15,3.05s3.15-1.37,3.15-3.05l0,0
		c0-1.69-1.41-3.05-3.15-3.05S953.97,83.67,953.97,85.36z M966.56,85.36L966.56,85.36c0,1.69,1.41,3.05,3.15,3.05
		c1.74,0,3.15-1.37,3.15-3.05l0,0c0-1.69-1.41-3.05-3.15-3.05C967.97,82.31,966.56,83.67,966.56,85.36z M991.52,117.05
		c0.48,1.15,0.19,2.47-0.73,3.34c-0.6,0.56-1.39,0.86-2.19,0.86c-0.43,0-0.86-0.09-1.27-0.26l-16.89-7.22
		c-2.12,0.79-4.3,1.37-6.54,1.76c-2.29,3.65-5.55,6.75-9.52,9c-4.43,2.51-9.55,3.86-14.81,3.9c-0.08,0.01-0.15,0.01-0.23,0.01
		c-3.64,0-7.16-0.61-10.5-1.81l-13.26,5.67c-0.41,0.17-0.84,0.26-1.27,0.26c-0.8,0-1.59-0.3-2.19-0.86
		c-0.92-0.87-1.21-2.19-0.73-3.34l4.6-11.04c-3.16-4.18-4.83-9.04-4.83-14.16c0-8.2,4.38-15.81,11.77-20.56
		c0.68-7.3,4.2-14.08,10.07-19.29c6.5-5.77,15.12-8.95,24.27-8.95c9.15,0,17.77,3.18,24.27,8.95c6.57,5.84,10.2,13.63,10.2,21.92
		c0,1.37-0.12,2.94-0.35,4.4c-0.26,1.67-1.86,2.82-3.58,2.57c-1.72-0.25-2.91-1.8-2.65-3.47c0.18-1.16,0.28-2.43,0.28-3.5
		c0-13.65-12.64-24.76-28.17-24.76c-15.53,0-28.17,11.11-28.17,24.76c0,11.96,11.32,24.76,28.17,24.76c4.19,0,8.22-0.79,11.98-2.35
		c0.8-0.33,1.71-0.33,2.5,0.01l11.01,4.71l-3.71-8.9c-0.65-1.56,0.13-3.34,1.74-3.98c1.61-0.63,3.45,0.12,4.1,1.69L991.52,117.05z
		 M955.49,116.06c-8.72-0.4-16.79-3.7-22.9-9.4c-4.91-4.58-8.16-10.42-9.31-16.51c-3.7,3.51-5.82,8.13-5.82,13.01
		c0,4.27,1.57,8.3,4.53,11.68c0.76,0.87,0.96,2.07,0.52,3.13l-2.38,5.71l7.37-3.15c0.8-0.34,1.7-0.35,2.5-0.01
		c2.89,1.2,5.98,1.81,9.2,1.83c0.04,0,0.08-0.01,0.13-0.01C945.54,122.32,951.4,119.97,955.49,116.06z"/>
	<g class="st2">
		<path class="st3" d="M601.55,36.11c-0.75-0.56-1.73-0.76-2.65-0.55l-11.82,2.94c-4.36-0.24-18.28-5.43-26.21-8.73l-0.16-0.06
			c-10.53-3.67-19.64-2.85-27.26,2.39c-10.13-3.36-23.11,3.73-27.12,6.16l-10.65-2.66c-0.92-0.23-1.9-0.04-2.66,0.53
			c-0.75,0.57-1.19,1.44-1.19,2.37v41.87c0,1.65,1.38,2.99,3.08,2.99h6.55l28.02,21.44c2.18,2.04,5.26,2.91,8.23,2.33
			c2.97-0.58,5.46-2.53,6.67-5.23c1.4,0.78,2.98,1.19,4.59,1.2c3.69,0,7.03-2.13,8.49-5.42c1.39,0.78,2.98,1.2,4.59,1.2
			c3.69,0,7.02-2.13,8.48-5.42c2.9,1.6,6.46,1.55,9.31-0.12c2.85-1.67,4.56-4.7,4.46-7.93l6.6-2.05h8.81c1.7,0,3.08-1.34,3.08-2.99
			V38.5C602.78,37.56,602.33,36.67,601.55,36.11L601.55,36.11z M497.99,42.33l5.51,1.38l-2.21,19.92l-1.53,13.76h-1.78V42.33z
			 M577.29,87.75c-1.22,1.14-3.15,1.14-4.36,0l-4.35-4.22L551.14,66.6c-1.22-1.06-3.07-1.02-4.23,0.1
			c-1.16,1.12-1.22,2.92-0.13,4.11l17.44,16.95c1.17,1.18,1.15,3.04-0.04,4.19c-1.19,1.15-3.11,1.17-4.32,0.03l-4.36-4.24
			l-13.12-12.69c-0.58-0.56-1.36-0.88-2.18-0.88c-0.82,0-1.6,0.32-2.18,0.88c-0.58,0.56-0.9,1.32-0.9,2.12
			c0,0.79,0.32,1.56,0.9,2.12l13.13,12.69c0.59,0.56,0.93,1.32,0.94,2.13c0.01,0.8-0.32,1.57-0.91,2.14
			c-0.59,0.57-1.38,0.88-2.21,0.87c-0.83-0.01-1.62-0.34-2.19-0.92l-13.03-12.68c-0.58-0.56-1.36-0.88-2.18-0.88
			c-0.82,0-1.6,0.32-2.18,0.88c-0.58,0.55-0.9,1.31-0.9,2.11c0,0.79,0.32,1.56,0.9,2.12l8.72,8.46c1.2,1.17,1.2,3.06,0,4.24
			c-1.22,1.13-3.14,1.13-4.36,0c-0.09-0.09-0.18-0.17-0.27-0.24l-27.7-21.15l3.1-27.74l0.9-8.09c3.92-2.39,11.58-6.09,17.93-5.98
			c-1.89,2.11-3.57,4.39-5.04,6.8c-2.82,4.66-1.45,10.65,3.13,13.72c4.36,2.9,12.33,5.59,22.19-2.68l29.32,28.44
			C578.48,84.69,578.48,86.57,577.29,87.75L577.29,87.75z M582.13,79.82c-0.15-0.19-0.31-0.36-0.48-0.53l-29.34-28.47
			c1.23-1.36,2.47-2.88,3.7-4.61c0.57-0.64,0.83-1.48,0.72-2.31c-0.1-0.84-0.57-1.59-1.28-2.08c-0.71-0.49-1.6-0.66-2.44-0.48
			c-0.85,0.18-1.58,0.7-2.01,1.43c-5.47,7.52-13.66,15.37-21.7,10.05c-1.89-1.31-2.43-3.81-1.23-5.74c2-3.46,4.61-6.56,7.72-9.14
			c0.1-0.07,0.2-0.14,0.28-0.23c6.16-4.79,13.56-5.52,22.53-2.39c2.33,0.96,17.85,7.33,25.99,8.85l2.71,34.09L582.13,79.82z
			 M596.62,77.39h-3.3l-2.67-33.61l5.98-1.45V77.39z M596.62,77.39"/>
	</g>
	<path class="st4" d="M887.19,212.82c-1,0-1.92-0.44-2.54-1.21c-0.61-0.77-0.82-1.75-0.57-2.69l6.63-24.94l-19.09-1.5
		c-1.49-0.12-2.7-1.2-2.92-2.64c-0.23-1.44,0.58-2.82,1.97-3.37l24.14-9.52l-0.4-22.22c-0.02-1.28,0.79-2.47,2.01-2.95
		c0.39-0.15,0.79-0.23,1.21-0.23c0.89,0,1.75,0.36,2.36,0.99l56.84,59.14c0.82,0.85,1.08,2.02,0.7,3.12
		c-0.38,1.1-1.31,1.88-2.5,2.09l0-0.02c-0.72,0.1-4.4,0.42-25.72,2.28l-41.82,3.66C887.39,212.81,887.29,212.82,887.19,212.82
		L887.19,212.82z M891.46,206.18l49.11-4.3l-43.57-16.53L891.46,206.18z M895.58,178.13c0.31,0.09,1.88,0.69,13.9,5.25l15.23,5.78
		l-26.97-16.63l-12.1,4.77l4.31,0.34C895.37,178.06,895.37,178.06,895.58,178.13L895.58,178.13z M934.92,188.05l-33.93-35.3
		l0.26,14.54L934.92,188.05z"/>
	<path class="st4" d="M87.2,62.55c5.36,0.38,10.43,0.74,14.81-0.46c5.35-1.47,8.72-5.14,10.02-10.91c0.89-3.94,0.65-8.09-0.7-12.02
		c-1.29-3.78-3.57-7.28-6.6-10.12c-6.94-6.51-16.25-10.75-26.22-11.96c-10.38-1.25-20.88,0.73-30.36,5.74s-16.9,12.49-21.45,21.63
		c-4.37,8.78-5.75,18.67-3.89,27.86c0.52,2.56,1.43,5.01,2.7,7.26c0.72,1.28,1.55,2.49,2.48,3.62c2.67,3.22,6.13,5.68,10.02,7.09
		c5.7,2.07,10.71,1.32,14.88-2.24c3.42-2.92,5.86-7.24,8.44-11.82c0.92-1.62,1.86-3.3,2.84-4.88c3.62-5.85,10.24-9.35,17.27-9.12
		C83.33,62.28,85.3,62.41,87.2,62.55L87.2,62.55z M81.61,56.78C72.55,56.49,64.02,61,59.35,68.54c-1.04,1.68-2.01,3.4-2.96,5.07
		c-5.25,9.3-8.6,14.43-16.43,11.58c-5.97-2.17-10.33-7.38-11.66-13.93c-3.43-16.89,5.83-34.84,22.52-43.66s37.25-6.62,50.01,5.35
		c1.56,1.46,2.84,3.1,3.82,4.85c2.12,3.78,2.83,8.08,1.9,12.22c-1.78,7.93-8.04,7.88-18.94,7.11
		C85.65,56.98,83.63,56.84,81.61,56.78L81.61,56.78z M81.61,56.78"/>
	<path class="st4" d="M60.88,39.84c2.22,3.95,7.34,5.42,11.41,3.27c4.07-2.15,5.58-7.12,3.37-11.07s-7.34-5.42-11.41-3.27
		C60.17,30.92,58.66,35.89,60.88,39.84L60.88,39.84z M70.73,34.64c0.74,1.32,0.24,2.97-1.12,3.69c-1.36,0.72-3.06,0.23-3.8-1.09
		s-0.24-2.97,1.12-3.69C68.28,32.83,69.99,33.32,70.73,34.64L70.73,34.64z M70.73,34.64"/>
	<path class="st4" d="M98.4,36.55c-2.22-3.95-7.34-5.42-11.41-3.27c-4.07,2.15-5.58,7.12-3.37,11.07c2.22,3.95,7.34,5.42,11.41,3.27
		S100.61,40.5,98.4,36.55L98.4,36.55z M88.55,41.75c-0.74-1.32-0.24-2.97,1.12-3.69c1.36-0.72,3.06-0.23,3.8,1.09
		c0.74,1.32,0.24,2.97-1.12,3.69C90.99,43.56,89.29,43.07,88.55,41.75L88.55,41.75z M88.55,41.75"/>
	<path class="st4" d="M55.95,42.44c-2.22-3.95-7.34-5.42-11.41-3.27s-5.58,7.12-3.37,11.07s7.34,5.42,11.41,3.27
		S58.17,46.4,55.95,42.44L55.95,42.44z M46.1,47.65c-0.74-1.32-0.24-2.97,1.12-3.69c1.36-0.72,3.06-0.23,3.8,1.09
		c0.74,1.32,0.24,2.97-1.12,3.69C48.55,49.45,46.84,48.97,46.1,47.65L46.1,47.65z M46.1,47.65"/>
	<path class="st4" d="M47.51,63.43c-2.22-3.95-7.34-5.42-11.41-3.27s-5.58,7.12-3.37,11.07s7.34,5.42,11.41,3.27
		S49.72,67.38,47.51,63.43L47.51,63.43z M37.66,68.63c-0.74-1.32-0.24-2.97,1.12-3.69c1.36-0.72,3.06-0.23,3.8,1.09
		c0.74,1.32,0.24,2.97-1.12,3.69S38.4,69.95,37.66,68.63L37.66,68.63z M37.66,68.63"/>
	<path class="st4" d="M133.6,81.12c0.15-0.41,0.25-0.84,0.3-1.27c0.55,0.09,1.12,0.15,1.69,0.16c4.18,0.11,7.99-1.89,10.19-5.34
		l8.09-12.72c0.53-0.83,0.56-1.87,0.08-2.73c-0.48-0.86-1.4-1.4-2.4-1.42l-15.4-0.31c-4.18-0.08-7.98,1.94-10.15,5.41
		c-0.3,0.48-0.56,0.97-0.78,1.47c-0.4-0.19-0.83-0.34-1.27-0.44c-1.78-0.43-3.67-0.11-5.19,0.88L72.14,94.86
		c-2.99,1.93-3.96,5.7-2.24,8.76c1.72,3.06,5.5,4.32,8.8,2.93l51.32-21.68C131.7,84.17,133.01,82.8,133.6,81.12L133.6,81.12z
		 M128.23,78.62c0.17,0.31,0.11,0.59,0.06,0.73c-0.05,0.14-0.18,0.4-0.51,0.54l-11.11,4.69l-4.9-8.74l10.09-6.51
		c0.3-0.19,0.59-0.16,0.74-0.12c0.15,0.04,0.43,0.14,0.6,0.45L128.23,78.62z M136.04,62.94l10.49,0.21l-5.51,8.67
		c-1.14,1.79-3.11,2.82-5.27,2.76c-2.16-0.06-4.07-1.19-5.1-3.04c-1.03-1.84-0.98-4.01,0.14-5.81
		C131.91,63.94,133.87,62.89,136.04,62.94L136.04,62.94z M74.83,101.02c-0.32-0.57-0.14-1.27,0.42-1.63l31.84-20.53l4.43,7.9
		l-35.06,14.8C75.85,101.82,75.15,101.59,74.83,101.02L74.83,101.02z M74.83,101.02"/>
	<g class="st2">
		<path class="st3" d="M313.26,110.93c-3.09,0-5.63-2.36-5.79-5.33h-0.58c-2.87,0-5.21-2.27-5.21-5.05c0-2.79,2.34-5.05,5.21-5.05
			h2.14v-1.54c-1.85-0.61-3.14-2.3-3.14-4.24V50.9c0-1.21,1.02-2.2,2.27-2.2h34.1c1.25,0,2.27,0.99,2.27,2.2v4.33h6
			c4.28,0,7.76,3.38,7.76,7.53v3.6c1.77-0.23,3.62-0.34,5.53-0.34c7.31,0.01,12,1.65,14.14,2.63c1.05,0.47,1.8,1.4,2.06,2.48
			c0.99,0.43,2.96,1.43,5.5,2.75c1.37,0.71,2.67,1.38,3.37,1.71c0.26,0.08,0.5,0.2,0.72,0.37c0.81,0.62,1.56,1.28,2.23,1.96
			c0.9,0.91,1.25,2.2,0.94,3.4c4.56,3.65,7.04,7.09,7.38,10.24c0.15,1.39-0.12,2.76-0.78,4.03c2.41,0.44,4.25,2.5,4.25,4.97
			c0,2.79-2.34,5.05-5.21,5.05h-0.58c-0.16,2.96-2.69,5.33-5.79,5.33H313.26z M312.04,105.6c0.14,0.53,0.63,0.93,1.22,0.93h78.79
			c0.59,0,1.08-0.39,1.22-0.93H312.04z M306.89,99.9c-0.37,0-0.67,0.29-0.67,0.65s0.3,0.65,0.67,0.65h91.53
			c0.37,0,0.67-0.29,0.67-0.65s-0.3-0.65-0.67-0.65H306.89z M393.51,95.5c1.49-1.01,2.27-2.27,2.14-3.49
			c-0.18-1.67-1.89-3.99-4.73-6.45c-1.41,2.94-3.39,6.68-5.72,9.93H393.51z M379.47,95.5c3.88-4.32,7.23-11.43,8.5-14.33
			c0.09-0.2,0.17-0.38,0.24-0.55c-0.36-0.34-0.74-0.67-1.15-1c-0.59-0.28-1.84-0.95-3.28-1.71c-1.34-0.71-3.03-1.61-4.09-2.14
			c-0.36,3.02-0.89,7.07-1.55,10.92c-0.67,3.91-1.34,6.81-2.03,8.82H379.47z M371.25,95.5c0.36-0.66,1.29-2.89,2.45-9.64
			c0.88-5.12,1.52-10.58,1.82-13.38l0.01-0.08c-1.78-0.73-5.7-1.98-11.7-1.99c-6,0.01-9.91,1.26-11.69,1.99c0,0.02,0,0.03,0,0.05
			l0.01,0.03c0.3,2.8,0.94,8.26,1.82,13.38c1.16,6.74,2.09,8.97,2.45,9.64H371.25z M351.53,95.5c-0.69-2.01-1.35-4.91-2.03-8.82
			c-0.67-3.9-1.21-8-1.56-11.02c-1.6,0.58-3.08,1.26-4.43,2.01c-0.04,0.03-0.12,0.08-0.21,0.12c-1.47,0.84-2.78,1.79-3.86,2.82
			c0.07,0.17,0.15,0.36,0.24,0.56c1.27,2.89,4.61,10,8.51,14.33H351.53z M342.46,95.5c-2.33-3.25-4.32-7-5.73-9.93
			c-2.84,2.45-4.55,4.77-4.73,6.44l-0.01,0.1c-0.08,1.2,0.68,2.42,2.08,3.39H342.46z M328.22,95.5c-0.21-0.42-0.38-0.86-0.5-1.31
			h-14.15v1.31H328.22z M310.43,89.71c0,0.04,0.04,0.08,0.08,0.08h17.39c0.92-2.66,3.26-5.51,6.97-8.48
			c-0.31-1.2,0.03-2.49,0.93-3.4c1.18-1.19,2.59-2.3,4.19-3.31v-21.5h-29.57V89.71z M347.86,70.45c0-0.01,0.01-0.02,0.01-0.02v-5.09
			h-3.34v5.11H347.86z M349.75,60.94c1.47,0,2.66,1.16,2.66,2.58v4.09c0.44-0.14,0.89-0.27,1.34-0.39v-4.47
			c0-1.72-1.44-3.13-3.22-3.13h-5.96v1.31H349.75z"/>
	</g>
	<g class="st2">
		<path class="st3" d="M267.13,62.13c0-4.77-4-8.66-8.92-8.66h-14.92c2.5-2.85,4.02-6.55,4.02-10.58v-7.69
			c0-9.01-7.56-16.35-16.85-16.35c-3.7,0-7.12,1.17-9.9,3.13c-2.86-2.03-6.3-3.13-9.92-3.13c-1.36,0-2.68,0.16-3.95,0.46
			c-1.73-3.68-5.56-6.23-9.93-6.23c-6.01,0-10.9,4.75-10.9,10.58c0,4.85,3.39,8.95,7.99,10.19c-0.04,0.44-0.06,0.89-0.06,1.35v7.69
			c0,4.12,1.59,7.89,4.19,10.77c-9.08,1.29-16.08,8.91-16.08,18.08v4.86c-4.45,0.48-7.93,4.15-7.93,8.6c0,4.45,3.47,8.12,7.93,8.6
			v14.87c0,1.59,1.33,2.89,2.97,2.89h71.35c1.64,0,2.97-1.29,2.97-2.89V70.74C263.65,70.26,267.13,66.58,267.13,62.13L267.13,62.13z
			 M199.74,42.9v-4.19c0.68,0.1,1.37,0.15,2.05,0.15c3.26,0,6.4-1.14,8.86-3.19c0.9,0.75,1.9,1.38,2.97,1.88v5.35
			c0,3.32,1.03,6.4,2.78,8.98c-1.71,1.04-3.69,1.59-5.75,1.59C204.63,53.48,199.74,48.73,199.74,42.9L199.74,42.9z M219.56,42.9
			v-7.69c0-2.47,0.88-4.75,2.35-6.55c2.43,2.51,5.31,4.63,8.46,6.19c3.46,1.72,7.15,2.76,10.98,3.11v4.95
			c0,5.83-4.89,10.58-10.9,10.58C224.45,53.48,219.56,48.73,219.56,42.9L219.56,42.9z M240.88,32.09c-5.37-0.72-10.28-3.1-14.1-6.84
			c1.15-0.4,2.39-0.62,3.68-0.62C235.36,24.63,239.51,27.77,240.88,32.09L240.88,32.09z M216.4,26.22
			c-0.99,1.45-1.74,3.06-2.21,4.78c-0.4-0.37-0.76-0.79-1.07-1.24c-0.55-0.8-1.48-1.29-2.47-1.29c-0.99,0-1.92,0.48-2.47,1.29
			c-1.74,2.53-4.84,3.78-7.91,3.18l-0.25-0.05c1.09-4.72,5.44-8.26,10.64-8.26C212.71,24.63,214.69,25.18,216.4,26.22L216.4,26.22z
			 M191.82,23.67c0-2.65,2.22-4.81,4.95-4.81c1.96,0,3.69,1.14,4.49,2.78c-2.53,1.65-4.57,3.95-5.87,6.64
			C193.33,27.7,191.82,25.85,191.82,23.67L191.82,23.67z M187.85,93.87h20.81c0.7,0,1.37-0.24,1.9-0.67l7.02-5.67v18.27h-29.73
			V93.87z M253.25,105.8h-29.73V81.37c0-1.12-0.67-2.14-1.71-2.61c-1.05-0.47-2.28-0.32-3.16,0.4l-11.06,8.95H182.9
			c-1.64,0-2.97-1.29-2.97-2.89c0-1.59,1.33-2.89,2.97-2.89h21.8c0.64,0,1.27-0.2,1.78-0.58l15.06-10.96h31.71V105.8z M258.21,65.02
			h-37.66c-0.64,0-1.27,0.2-1.78,0.58l-15.06,10.96h-15.86v-4.81c0-6.89,5.78-12.5,12.88-12.5h57.48c1.64,0,2.97,1.29,2.97,2.89
			C261.18,63.73,259.85,65.02,258.21,65.02L258.21,65.02z M258.21,65.02"/>
	</g>
	<path class="st4" d="M1085.98,46.35C1085.98,46.35,1085.98,46.35,1085.98,46.35L1085.98,46.35h-2.67c1.68-2.16,2.67-4.85,2.67-7.77
		v-5.18c0-7.14-5.98-12.94-13.34-12.94h-16c-1.47,0-2.67,1.16-2.67,2.59c0,4.22,2.1,7.98,5.33,10.35v2.6h-13.34
		c1.68-2.16,2.67-4.85,2.67-7.77v-5.18c3.24-2.36,5.33-6.12,5.33-10.35c0-1.43-1.19-2.59-2.67-2.59h-16
		c-7.35,0-13.34,5.81-13.34,12.94v5.18c0,2.91,1,5.6,2.67,7.77h-2.67c-7.37,0-13.51,5.79-13.51,12.94V80c0,1.43,1.19,2.59,2.67,2.59
		h37.52c1.47,0,2.67-1.16,2.67-2.59V61.88h5.33V80c0,1.43,1.19,2.59,2.67,2.59h37.52c1.47,0,2.67-1.16,2.67-2.59V59.29
		C1099.49,52.13,1093.35,46.35,1085.98,46.35z M1072.64,25.64c3.48,0,6.44,2.16,7.54,5.18h-12.88c-3.48,0-6.44-2.16-7.54-5.18
		H1072.64z M1067.31,35.99h13.34v2.59c0,4.28-3.59,7.77-8,7.77c-4.41,0-8-3.48-8-7.77v-2.85
		C1065.5,35.9,1066.39,35.99,1067.31,35.99z M1035.3,15.25h12.88c-1.1,3.01-4.07,5.21-7.54,5.21h-12.88
		C1028.86,17.45,1031.82,15.25,1035.3,15.25z M1027.3,28.23v-2.59h13.34c0.91,0,1.81-0.09,2.67-0.26v2.85c0,4.28-3.59,7.77-8,7.77
		C1030.89,35.99,1027.3,32.51,1027.3,28.23z M1045.97,77.41h-21.34v-23.3c0-1.43-1.19-2.59-2.67-2.59c-1.47,0-2.67,1.16-2.67,2.59
		v23.3h-5.51V48.94c0-4.21,3.75-7.77,8.18-7.77h37.61c0.4,1.91,1.24,3.67,2.41,5.18h-13.34c-1.47,0-2.67,1.16-2.67,2.59v10.35V77.41
		z M1094.15,77.41h-5.51V64.47c0-1.43-1.19-2.59-2.67-2.59c-1.47,0-2.67,1.16-2.67,2.59v12.94h-21.34V59.29
		c0-1.43-1.19-2.59-2.67-2.59h-8v-5.18h34.67c4.43,0,8.18,3.56,8.18,7.77V77.41z"/>
	<g class="st2">
		<path class="st3" d="M1378.53,163.79c-1.14-1.03-1.79-2.49-1.79-3.99v-2.94c1.45-1.38,2.35-3.3,2.35-5.42
			c0-2.12-0.9-4.04-2.35-5.42v-2.92c0-8.76-7.34-15.89-16.37-15.89c-9.03,0-16.37,7.13-16.37,15.89v2.92
			c-1.45,1.38-2.35,3.3-2.35,5.42c0,2.12,0.9,4.04,2.35,5.42v2.94c0,1.51-0.65,2.96-1.79,3.99c-0.43,0.39-0.88,0.84-1.31,1.35
			c-1.04-1.1-2.35-1.99-3.85-2.57l-7-2.72v-2.37c2.78-1.97,4.74-4.96,5.29-8.4c3.24-0.93,5.61-3.84,5.61-7.28
			c0-2.12-0.9-4.04-2.35-5.42v-2.92c0-8.76-7.34-15.89-16.37-15.89c-9.03,0-16.37,7.13-16.37,15.89v2.92
			c-1.45,1.38-2.35,3.3-2.35,5.42c0,3.44,2.37,6.35,5.61,7.28c0.55,3.44,2.51,6.43,5.29,8.4v2.37l-7,2.72
			c-4.02,1.56-6.62,5.29-6.62,9.49v18.1h81.04v-19.62C1381.82,167.21,1380.06,165.19,1378.53,163.79L1378.53,163.79z
			 M1377.07,170.54v3.55c-0.58-0.37-1.21-0.69-1.87-0.95l-7.37-2.86l-0.65-2.49c2.22-1.29,4.02-3.2,5.15-5.47
			c0.49,1.84,1.51,3.53,2.96,4.84C1376.61,168.36,1377.07,169.24,1377.07,170.54L1377.07,170.54z M1349.48,154.43
			c-1.69,0-3.07-1.34-3.07-2.98c0-1.65,1.38-2.98,3.07-2.98h1.73c3.73,0,7.06-1.73,9.17-4.41c2.11,2.68,5.44,4.41,9.17,4.41h1.73
			c1.69,0,3.07,1.34,3.07,2.98c0,1.65-1.38,2.98-3.07,2.98h-2.37v2.3c0,4.56-3.82,8.27-8.53,8.27c-4.7,0-8.53-3.71-8.53-8.27v-2.3
			H1349.48z M1358.04,169.41c0.76,0.13,1.54,0.2,2.33,0.2s1.57-0.07,2.33-0.2l1.11,4.27l4.02,1.56c-1.94,1.86-4.55,2.91-7.38,2.91
			c0,0,0,0,0,0c-2.85,0-5.49-1.07-7.43-2.96l3.9-1.52L1358.04,169.41z M1348.75,143.11c0-6.22,5.21-11.28,11.62-11.28
			c6.41,0,11.62,5.06,11.62,11.28v0.78c-0.24-0.02-0.48-0.03-0.72-0.03h-1.73c-3.75,0-6.8-2.96-6.8-6.6H1358
			c0,3.64-3.05,6.6-6.8,6.6h-1.73c-0.24,0-0.49,0.01-0.72,0.03V143.11z M1343.68,170.54c0-1.3,0.47-2.18,1.79-3.38
			c1.45-1.31,2.47-3,2.96-4.84c1.13,2.27,2.93,4.18,5.15,5.47l-0.65,2.49l-7.37,2.86c-0.67,0.26-1.29,0.58-1.87,0.95V170.54z
			 M1310.61,133.45c0-6.22,5.21-11.28,11.62-11.28s11.62,5.06,11.62,11.28v0.78c-0.24-0.02-0.48-0.03-0.72-0.03h-1.73
			c-3.75,0-6.8-2.96-6.8-6.6h-4.75c0,3.64-3.05,6.6-6.8,6.6h-1.73c-0.24,0-0.48,0.01-0.72,0.03V133.45z M1311.33,144.78
			c-1.69,0-3.07-1.34-3.07-2.98c0-1.65,1.38-2.98,3.07-2.98h1.73c3.73,0,7.06-1.73,9.17-4.41c2.11,2.68,5.44,4.41,9.17,4.41h1.73
			c1.69,0,3.07,1.34,3.07,2.98c0,1.65-1.38,2.98-3.07,2.98h-2.37v2.3c0,4.56-3.82,8.27-8.53,8.27s-8.53-3.71-8.53-8.27v-2.3H1311.33
			z M1322.23,159.96c1.06,0,2.09-0.12,3.07-0.35v1.8c0,1.65-1.38,2.98-3.07,2.98s-3.07-1.34-3.07-2.98v-1.8
			C1320.14,159.84,1321.17,159.96,1322.23,159.96L1322.23,159.96z M1338.93,185.55h-33.4v-13.49c0-2.31,1.43-4.36,3.64-5.21
			l5.94-2.3c1.23,2.63,3.96,4.46,7.12,4.46c3.16,0,5.89-1.83,7.12-4.46l5.94,2.3c2.21,0.86,3.64,2.9,3.64,5.21V185.55z
			 M1377.07,185.55h-33.4v-2.91c0-2.31,1.43-4.36,3.64-5.21l1.05-0.41c2.88,3.64,7.27,5.76,12.1,5.76h0c4.8,0,9.18-2.1,12.06-5.71
			l0.92,0.36c2.21,0.86,3.64,2.9,3.64,5.21V185.55z M1377.07,185.55"/>
	</g>
	<path class="st4" d="M749.93,58.14c0.57,0.56,1.35,0.87,2.16,0.87s1.59-0.31,2.16-0.87l19.05-18.49c2.76-2.68,4.28-6.24,4.28-10.02
		c0-3.79-1.52-7.35-4.28-10.02c-5.69-5.53-14.96-5.53-20.66,0l-0.56,0.54l-0.56-0.54c-5.69-5.53-14.96-5.53-20.66,0
		c-2.76,2.68-4.28,6.24-4.28,10.02c0,3.79,1.52,7.35,4.28,10.02L749.93,58.14z M735.21,23.8c1.65-1.61,3.83-2.41,6-2.41
		c2.17,0,4.35,0.8,6,2.41l2.72,2.64c0.57,0.56,1.35,0.87,2.16,0.87s1.59-0.31,2.16-0.87l2.72-2.64c3.31-3.21,8.69-3.21,12,0
		c1.6,1.56,2.49,3.62,2.49,5.82c0,2.2-0.88,4.27-2.49,5.83L752.1,51.84l-16.89-16.39c-1.6-1.56-2.49-3.62-2.49-5.83
		C732.72,27.43,733.6,25.36,735.21,23.8L735.21,23.8z M735.21,23.8"/>
	<path class="st4" d="M1258.84,61.23c0.75,0.31,1.59,0.32,2.34,0.03c0.75-0.29,1.36-0.86,1.67-1.59l10.61-24.03
		c1.54-3.48,1.59-7.33,0.14-10.85c-1.45-3.52-4.22-6.27-7.81-7.76c-7.4-3.08-16.01,0.26-19.18,7.45l-0.31,0.7l-0.73-0.3
		c-7.4-3.08-16.01,0.26-19.18,7.45c-1.54,3.48-1.58,7.33-0.14,10.85c1.45,3.52,4.22,6.27,7.81,7.76L1258.84,61.23z M1232.03,34.66
		c0.92-2.09,2.63-3.62,4.65-4.4c2.02-0.78,4.34-0.82,6.49,0.07l3.54,1.47c0.75,0.31,1.59,0.32,2.34,0.03
		c0.75-0.29,1.36-0.86,1.68-1.59l1.52-3.43c1.84-4.18,6.84-6.12,11.15-4.33c2.08,0.87,3.7,2.47,4.54,4.51
		c0.84,2.04,0.81,4.28-0.08,6.3l-9.41,21.3l-21.95-9.13c-2.08-0.87-3.7-2.47-4.54-4.51C1231.11,38.92,1231.14,36.68,1232.03,34.66
		L1232.03,34.66z M1232.03,34.66"/>
	<g class="st2">
		<g>
			<path class="st3" d="M675.82,138.25c-8.85,0-16.05-6.99-16.05-15.58s7.2-15.58,16.05-15.58s16.05,6.99,16.05,15.58
				S684.67,138.25,675.82,138.25z M675.82,115.63c-4,0-7.25,3.16-7.25,7.04s3.25,7.04,7.25,7.04s7.25-3.16,7.25-7.04
				S679.82,115.63,675.82,115.63z"/>
		</g>
	</g>
	<linearGradient id="SVGID_2_" gradientUnits="userSpaceOnUse" x1="-3.514" y1="201.3806" x2="1403.514" y2="28.6193">
		<stop  offset="0" style="stop-color:#94D3E8"/>
		<stop  offset="0.0834" style="stop-color:#6EC5D8"/>
		<stop  offset="0.1952" style="stop-color:#2EB6C6"/>
		<stop  offset="0.3152" style="stop-color:#00A9B7"/>
		<stop  offset="0.4443" style="stop-color:#00A1AC"/>
		<stop  offset="0.5868" style="stop-color:#009BA4"/>
		<stop  offset="0.753" style="stop-color:#00989F"/>
		<stop  offset="1" style="stop-color:#00979E"/>
	</linearGradient>
	<rect style="opacity:0.7;fill:url(#SVGID_2_);" width="1400" height="230"/>
	<g>
		<path class="st3" d="M55.13,188.34c0,3.24-1.2,5.8-3.61,7.66c-2.4,1.87-5.75,2.8-10.04,2.8c-3.95,0-7.44-0.72-10.48-2.16v-7.07
			c2.5,1.08,4.61,1.84,6.34,2.28c1.73,0.44,3.31,0.66,4.75,0.66c1.72,0,3.04-0.32,3.96-0.96c0.92-0.64,1.38-1.59,1.38-2.85
			c0-0.7-0.2-1.33-0.61-1.88c-0.4-0.55-1-1.08-1.78-1.58c-0.78-0.51-2.38-1.32-4.8-2.43c-2.26-1.03-3.96-2.02-5.09-2.97
			c-1.13-0.95-2.03-2.05-2.71-3.32c-0.68-1.26-1.01-2.73-1.01-4.42c0-3.18,1.11-5.67,3.33-7.49c2.22-1.82,5.29-2.73,9.2-2.73
			c1.92,0,3.76,0.22,5.51,0.66c1.75,0.44,3.57,1.06,5.48,1.87l-2.53,5.92c-1.97-0.79-3.61-1.33-4.9-1.65
			c-1.29-0.31-2.56-0.47-3.81-0.47c-1.49,0-2.62,0.34-3.42,1.01c-0.79,0.67-1.19,1.55-1.19,2.63c0,0.67,0.16,1.26,0.48,1.76
			c0.32,0.5,0.83,0.98,1.53,1.45c0.7,0.47,2.36,1.31,4.97,2.52c3.46,1.61,5.83,3.21,7.11,4.83C54.49,184.02,55.13,186,55.13,188.34z
			 M39.01,159.53v-0.66c2.9-3.27,4.88-5.74,5.95-7.39h8.66v0.52c-0.88,0.85-2.38,2.12-4.49,3.79c-2.12,1.68-3.78,2.93-4.97,3.75
			H39.01z"/>
		<path class="st3" d="M84.49,198.31l-2.18-9.6l-2.94-12.13H79.2l-5.16,21.74h-8.3l-8.05-27.46h7.69l3.26,12.16
			c0.52,2.18,1.05,5.18,1.59,9.01h0.15c0.07-1.24,0.36-3.22,0.89-5.92l0.4-2.09l3.49-13.17h8.5L87,184.02
			c0.07,0.36,0.17,0.89,0.32,1.6c0.14,0.7,0.28,1.45,0.42,2.25c0.13,0.79,0.26,1.57,0.37,2.33c0.11,0.76,0.17,1.37,0.19,1.83h0.15
			c0.15-1.18,0.42-2.8,0.81-4.85c0.39-2.05,0.67-3.44,0.84-4.16l3.39-12.16h7.57l-8.15,27.46H84.49z"/>
		<path class="st3" d="M105.27,163.75c0-2.44,1.4-3.66,4.2-3.66c2.8,0,4.2,1.22,4.2,3.66c0,1.16-0.35,2.07-1.05,2.71
			c-0.7,0.65-1.75,0.97-3.15,0.97C106.67,167.44,105.27,166.21,105.27,163.75z M113.32,198.31h-7.72v-27.46h7.72V198.31z"/>
		<path class="st3" d="M134.22,198.8c-4.56,0-8.12-1.22-10.68-3.66c-2.56-2.44-3.85-5.9-3.85-10.37c0-4.6,1.19-8.16,3.56-10.67
			c2.37-2.51,5.65-3.77,9.83-3.77c4,0,7.11,1.11,9.34,3.32c2.23,2.21,3.34,5.26,3.34,9.16v3.64h-18.25
			c0.08,2.13,0.73,3.79,1.95,4.99c1.21,1.2,2.92,1.79,5.11,1.79c1.7,0,3.32-0.17,4.83-0.52s3.1-0.89,4.76-1.65v5.8
			c-1.35,0.66-2.79,1.14-4.33,1.46C138.31,198.64,136.43,198.8,134.22,198.8z M133.14,175.67c-1.64,0-2.92,0.5-3.85,1.51
			c-0.93,1.01-1.46,2.44-1.59,4.29h10.83c-0.03-1.85-0.53-3.28-1.49-4.29C136.07,176.17,134.77,175.67,133.14,175.67z"/>
		<path class="st3" d="M163.96,192.84c1.35,0,2.97-0.29,4.86-0.86v5.58c-1.92,0.84-4.29,1.25-7.09,1.25c-3.09,0-5.34-0.76-6.75-2.27
			c-1.41-1.51-2.11-3.79-2.11-6.82v-13.24h-3.7v-3.17l4.25-2.51l2.23-5.8h4.94v5.85h7.92v5.63h-7.92v13.24
			c0,1.06,0.31,1.85,0.92,2.36C162.14,192.58,162.95,192.84,163.96,192.84z"/>
		<path class="st3" d="M182.26,198.31h-7.72v-38.22h7.72V198.31z"/>
		<path class="st3" d="M190.03,163.75c0-2.44,1.4-3.66,4.2-3.66c2.8,0,4.2,1.22,4.2,3.66c0,1.16-0.35,2.07-1.05,2.71
			c-0.7,0.65-1.75,0.97-3.15,0.97C191.43,167.44,190.03,166.21,190.03,163.75z M198.08,198.31h-7.72v-27.46h7.72V198.31z"/>
		<path class="st3" d="M217.67,198.8c-8.81,0-13.21-4.69-13.21-14.07c0-4.67,1.2-8.23,3.59-10.7c2.4-2.46,5.83-3.7,10.3-3.7
			c3.27,0,6.21,0.62,8.81,1.87l-2.28,5.8c-1.21-0.47-2.35-0.86-3.39-1.17c-1.05-0.3-2.09-0.45-3.14-0.45c-4.02,0-6.02,2.77-6.02,8.3
			c0,5.37,2.01,8.06,6.02,8.06c1.48,0,2.86-0.19,4.13-0.58c1.27-0.38,2.53-0.99,3.8-1.81v6.41c-1.25,0.77-2.51,1.3-3.78,1.6
			S219.61,198.8,217.67,198.8z"/>
		<path class="st3" d="M250.8,198.31l-1.49-3.73h-0.2c-1.3,1.59-2.64,2.69-4.01,3.3c-1.38,0.61-3.17,0.92-5.38,0.92
			c-2.72,0-4.86-0.75-6.42-2.26c-1.56-1.51-2.34-3.65-2.34-6.44c0-2.91,1.05-5.06,3.15-6.45c2.1-1.38,5.27-2.15,9.5-2.3l4.91-0.15
			v-1.2c0-2.78-1.47-4.18-4.4-4.18c-2.26,0-4.92,0.66-7.97,1.99l-2.56-5.06c3.26-1.65,6.87-2.48,10.83-2.48
			c3.8,0,6.71,0.8,8.73,2.41c2.02,1.61,3.04,4.04,3.04,7.32v18.3H250.8z M248.52,185.59l-2.99,0.1c-2.24,0.07-3.91,0.46-5.01,1.18
			c-1.1,0.72-1.65,1.82-1.65,3.29c0,2.11,1.25,3.17,3.75,3.17c1.79,0,3.22-0.5,4.29-1.5c1.07-1,1.61-2.32,1.61-3.98V185.59z"/>
		<path class="st3" d="M288.24,171.1c1.99,0,3.71,0.35,5.16,1.06c1.45,0.7,2.75,1.91,3.9,3.61h0.15c-0.1-2.06-0.15-4.09-0.15-6.07
			v-9.6h2.48v38.22h-1.65l-0.63-4.08h-0.2c-2.09,3.05-5.1,4.57-9.01,4.57c-3.8,0-6.7-1.15-8.71-3.44
			c-2.01-2.29-3.01-5.63-3.01-10.02c0-4.62,1-8.15,2.99-10.59C281.55,172.32,284.44,171.1,288.24,171.1z M288.24,173.31
			c-3,0-5.26,1.02-6.77,3.07c-1.51,2.05-2.27,5.02-2.27,8.92c0,7.57,3.03,11.35,9.09,11.35c3.1,0,5.38-0.88,6.83-2.63
			c1.45-1.75,2.18-4.64,2.18-8.67v-0.42c0-4.13-0.71-7.09-2.14-8.9C293.73,174.21,291.43,173.31,288.24,173.31z"/>
		<path class="st3" d="M311.52,198.31h-2.51v-38.22h2.51V198.31z"/>
		<path class="st3" d="M337.44,198.31l-0.63-4.22h-0.2c-1.38,1.72-2.81,2.94-4.26,3.65c-1.46,0.71-3.18,1.07-5.18,1.07
			c-2.7,0-4.8-0.67-6.3-2.01c-1.5-1.34-2.25-3.2-2.25-5.58c0-2.6,1.12-4.63,3.35-6.07c2.24-1.44,5.47-2.2,9.71-2.28l5.24-0.15v-1.77
			c0-2.54-0.53-4.45-1.59-5.75c-1.06-1.29-2.78-1.94-5.14-1.94c-2.55,0-5.19,0.69-7.92,2.06l-0.94-2.11
			c3.02-1.38,6.01-2.06,8.96-2.06c3.02,0,5.28,0.76,6.77,2.28c1.49,1.52,2.24,3.9,2.24,7.12v17.76H337.44z M327.31,196.59
			c2.94,0,5.25-0.81,6.95-2.44c1.7-1.63,2.54-3.89,2.54-6.79v-2.63l-4.81,0.2c-3.86,0.18-6.62,0.77-8.26,1.76
			c-1.64,0.99-2.47,2.53-2.47,4.63c0,1.67,0.53,2.97,1.58,3.89C323.9,196.13,325.39,196.59,327.31,196.59z"/>
		<path class="st3" d="M380.85,198.31V181c0-2.69-0.58-4.64-1.75-5.86c-1.16-1.22-2.97-1.83-5.42-1.83c-3.29,0-5.7,0.81-7.23,2.42
			c-1.53,1.61-2.29,4.23-2.29,7.85v14.74h-2.51v-26.7h2.13l0.48,3.66h0.15c1.79-2.78,4.97-4.18,9.54-4.18
			c6.24,0,9.36,3.25,9.36,9.75v17.46H380.85z"/>
		<path class="st3" d="M391.88,164.2c0-1.57,0.53-2.36,1.59-2.36c0.52,0,0.93,0.2,1.23,0.61c0.29,0.41,0.44,0.99,0.44,1.74
			c0,0.74-0.15,1.32-0.44,1.74c-0.3,0.43-0.7,0.64-1.23,0.64C392.41,166.58,391.88,165.78,391.88,164.2z M394.74,198.31h-2.51v-26.7
			h2.51V198.31z"/>
		<path class="st3" d="M415.06,198.8c-4,0-7.12-1.19-9.35-3.59c-2.24-2.39-3.35-5.74-3.35-10.05c0-4.26,1.08-7.67,3.24-10.23
			c2.16-2.56,5.07-3.84,8.73-3.84c3.24,0,5.8,1.1,7.67,3.29c1.87,2.19,2.81,5.17,2.81,8.94v1.96h-19.82
			c0.03,3.67,0.92,6.47,2.65,8.4c1.73,1.93,4.21,2.9,7.43,2.9c1.57,0,2.95-0.11,4.14-0.32c1.19-0.21,2.7-0.67,4.52-1.38v2.21
			c-1.55,0.65-2.99,1.1-4.3,1.34C418.1,198.69,416.65,198.8,415.06,198.8z M414.33,173.26c-2.65,0-4.78,0.85-6.38,2.54
			c-1.6,1.69-2.54,4.14-2.81,7.33h17.01c0-3.09-0.69-5.51-2.08-7.26C418.69,174.13,416.78,173.26,414.33,173.26z"/>
		<path class="st3" d="M444.17,198.8c-4.24,0-7.32-1.54-9.26-4.62h-0.18l0.08,2.06c0.07,1.21,0.1,2.54,0.1,3.98v10.17h-2.51v-38.78
			h2.13l0.48,3.81h0.15c1.89-2.88,4.91-4.32,9.06-4.32c3.71,0,6.54,1.18,8.49,3.55c1.95,2.37,2.92,5.81,2.92,10.33
			c0,4.39-1.02,7.79-3.08,10.21C450.51,197.6,447.71,198.8,444.17,198.8z M444.12,196.64c2.82,0,5-1.02,6.54-3.05
			c1.54-2.03,2.32-4.87,2.32-8.52c0-7.84-2.92-11.77-8.76-11.77c-3.21,0-5.56,0.86-7.06,2.57c-1.5,1.71-2.25,4.5-2.25,8.36v0.79
			c0,4.17,0.72,7.16,2.16,8.94C438.51,195.75,440.86,196.64,444.12,196.64z"/>
		<path class="st3" d="M474.37,198.8c-4,0-7.12-1.19-9.35-3.59c-2.24-2.39-3.35-5.74-3.35-10.05c0-4.26,1.08-7.67,3.24-10.23
			c2.16-2.56,5.07-3.84,8.73-3.84c3.24,0,5.8,1.1,7.67,3.29c1.87,2.19,2.81,5.17,2.81,8.94v1.96h-19.82
			c0.03,3.67,0.92,6.47,2.65,8.4c1.73,1.93,4.21,2.9,7.43,2.9c1.57,0,2.95-0.11,4.14-0.32c1.19-0.21,2.7-0.67,4.52-1.38v2.21
			c-1.55,0.65-2.99,1.1-4.3,1.34C477.4,198.69,475.95,198.8,474.37,198.8z M473.63,173.26c-2.65,0-4.78,0.85-6.38,2.54
			c-1.6,1.69-2.54,4.14-2.81,7.33h17.01c0-3.09-0.69-5.51-2.08-7.26C477.99,174.13,476.08,173.26,473.63,173.26z"/>
		<path class="st3" d="M494.21,178.25l3.87-2.53l1.09,1.72l-4.96,3.22v17.66h-2.51v-16.04l-3.26,2.11l-1.14-1.77l4.4-2.82v-19.7
			h2.51V178.25z"/>
		<path class="st3" d="M522.61,198.31V181c0-2.69-0.58-4.64-1.75-5.86c-1.16-1.22-2.97-1.83-5.42-1.83c-3.29,0-5.7,0.81-7.23,2.42
			c-1.53,1.61-2.29,4.23-2.29,7.85v14.74h-2.51v-26.7h2.13l0.48,3.66h0.15c1.79-2.78,4.97-4.18,9.54-4.18
			c6.24,0,9.36,3.25,9.36,9.75v17.46H522.61z"/>
		<path class="st3" d="M556.75,184.93c0,4.36-1.09,7.76-3.27,10.21c-2.18,2.45-5.18,3.67-9.01,3.67c-2.41,0-4.54-0.57-6.38-1.69
			c-1.84-1.13-3.25-2.75-4.23-4.86c-0.98-2.11-1.47-4.55-1.47-7.32c0-4.36,1.09-7.75,3.27-10.18c2.18-2.43,5.16-3.65,8.96-3.65
			c3.78,0,6.74,1.23,8.9,3.7C555.67,177.26,556.75,180.64,556.75,184.93z M535.03,184.93c0,3.67,0.83,6.53,2.49,8.58
			c1.66,2.06,4.01,3.08,7.05,3.08c3.04,0,5.39-1.03,7.05-3.08c1.66-2.05,2.49-4.92,2.49-8.58c0-3.69-0.84-6.54-2.52-8.57
			c-1.68-2.03-4.04-3.05-7.07-3.05c-3.04,0-5.38,1.01-7.02,3.03C535.86,178.36,535.03,181.23,535.03,184.93z"/>
		<path class="st3" d="M581.43,191.36c0,2.39-0.94,4.23-2.81,5.51c-1.87,1.29-4.53,1.93-7.97,1.93c-3.68,0-6.6-0.55-8.76-1.65v-2.63
			c2.77,1.34,5.69,2.01,8.76,2.01c2.72,0,4.78-0.44,6.19-1.31c1.41-0.88,2.11-2.04,2.11-3.5c0-1.34-0.56-2.47-1.68-3.39
			c-1.12-0.92-2.97-1.82-5.53-2.7c-2.75-0.97-4.68-1.8-5.8-2.49c-1.11-0.7-1.95-1.48-2.52-2.36c-0.57-0.88-0.85-1.94-0.85-3.21
			c0-2,0.86-3.58,2.59-4.74c1.73-1.16,4.15-1.74,7.25-1.74c2.97,0,5.79,0.54,8.45,1.62l-0.94,2.21c-2.7-1.08-5.21-1.62-7.52-1.62
			c-2.24,0-4.02,0.36-5.34,1.08c-1.32,0.72-1.97,1.72-1.97,3c0,1.39,0.51,2.51,1.53,3.34c1.02,0.84,3.02,1.77,5.99,2.8
			c2.48,0.87,4.29,1.65,5.42,2.35c1.13,0.7,1.98,1.49,2.54,2.37C581.14,189.13,581.43,190.17,581.43,191.36z"/>
		<path class="st3" d="M600.28,198.8c-4.24,0-7.32-1.54-9.26-4.62h-0.18l0.08,2.06c0.07,1.21,0.1,2.54,0.1,3.98v10.17h-2.51v-38.78
			h2.13l0.48,3.81h0.15c1.89-2.88,4.91-4.32,9.06-4.32c3.71,0,6.54,1.18,8.49,3.55c1.95,2.37,2.92,5.81,2.92,10.33
			c0,4.39-1.02,7.79-3.08,10.21C606.62,197.6,603.83,198.8,600.28,198.8z M600.23,196.64c2.82,0,5-1.02,6.54-3.05
			c1.54-2.03,2.32-4.87,2.32-8.52c0-7.84-2.92-11.77-8.76-11.77c-3.21,0-5.56,0.86-7.06,2.57c-1.5,1.71-2.25,4.5-2.25,8.36v0.79
			c0,4.17,0.72,7.16,2.16,8.94C594.63,195.75,596.98,196.64,600.23,196.64z"/>
		<path class="st3" d="M630.2,171.1c1.16,0,2.41,0.11,3.75,0.34l-0.48,2.33c-1.15-0.28-2.34-0.42-3.57-0.42
			c-2.35,0-4.27,0.97-5.77,2.9c-1.5,1.93-2.25,4.37-2.25,7.32v14.74h-2.51v-26.7h2.13l0.25,4.81h0.18c1.13-1.97,2.34-3.34,3.62-4.14
			C626.82,171.5,628.38,171.1,630.2,171.1z"/>
		<path class="st3" d="M656.24,198.31l-0.63-4.22h-0.2c-1.38,1.72-2.81,2.94-4.26,3.65c-1.46,0.71-3.18,1.07-5.18,1.07
			c-2.7,0-4.8-0.67-6.3-2.01c-1.5-1.34-2.25-3.2-2.25-5.58c0-2.6,1.12-4.63,3.35-6.07c2.24-1.44,5.47-2.2,9.71-2.28l5.24-0.15v-1.77
			c0-2.54-0.53-4.45-1.59-5.75c-1.06-1.29-2.78-1.94-5.14-1.94c-2.55,0-5.19,0.69-7.92,2.06l-0.94-2.11
			c3.02-1.38,6.01-2.06,8.96-2.06c3.02,0,5.28,0.76,6.77,2.28c1.49,1.52,2.24,3.9,2.24,7.12v17.76H656.24z M646.12,196.59
			c2.94,0,5.25-0.81,6.95-2.44c1.7-1.63,2.54-3.89,2.54-6.79v-2.63l-4.81,0.2c-3.86,0.18-6.62,0.77-8.26,1.76
			c-1.64,0.99-2.47,2.53-2.47,4.63c0,1.67,0.53,2.97,1.58,3.89C642.71,196.13,644.2,196.59,646.12,196.59z"/>
		<path class="st3" d="M688.99,198.31l-6.02-17.86c-0.39-1.21-0.89-2.99-1.49-5.33h-0.15l-0.53,1.82l-1.14,3.56l-6.13,17.81h-2.48
			l-7.87-26.7h2.68l4.4,15.48c1.03,3.83,1.7,6.65,2.02,8.45h0.15c1-3.83,1.72-6.38,2.18-7.64l5.67-16.29h2.28l5.39,16.24
			c1.21,3.85,1.96,6.39,2.23,7.64h0.15c0.13-1.06,0.81-3.91,2.02-8.55l4.2-15.33h2.53l-7.47,26.7H688.99z"/>
		<path class="st3" d="M723.67,198.31V181c0-2.69-0.58-4.64-1.75-5.86c-1.16-1.22-2.97-1.83-5.42-1.83c-3.29,0-5.7,0.81-7.23,2.42
			c-1.53,1.61-2.29,4.23-2.29,7.85v14.74h-2.51v-26.7h2.13l0.48,3.66h0.15c1.79-2.78,4.97-4.18,9.54-4.18
			c6.24,0,9.36,3.25,9.36,9.75v17.46H723.67z"/>
		<path class="st3" d="M730.45,171.61h2.58l5.82,14.98c1.77,4.6,2.89,7.7,3.37,9.31h0.15c0.71-2.11,1.86-5.26,3.47-9.46l5.82-14.84
			h2.58l-12.33,31.02c-1,2.52-1.83,4.22-2.51,5.11c-0.68,0.88-1.46,1.55-2.37,1.99c-0.9,0.44-2,0.66-3.28,0.66
			c-0.96,0-2.03-0.17-3.21-0.52v-2.11c0.98,0.26,2.03,0.39,3.16,0.39c0.86,0,1.62-0.2,2.28-0.59c0.66-0.39,1.25-1,1.78-1.83
			c0.53-0.83,1.15-2.14,1.85-3.93c0.7-1.79,1.15-2.96,1.35-3.5L730.45,171.61z"/>
		<path class="st3" d="M769.83,198.8c-3.93,0-7.01-1.2-9.24-3.61c-2.23-2.41-3.34-5.76-3.34-10.07c0-4.42,1.16-7.86,3.47-10.33
			c2.31-2.46,5.48-3.7,9.49-3.7c2.38,0,4.66,0.4,6.83,1.2l-0.68,2.16c-2.38-0.77-4.45-1.15-6.2-1.15c-3.37,0-5.93,1.01-7.67,3.03
			c-1.74,2.02-2.61,4.93-2.61,8.73c0,3.6,0.87,6.42,2.61,8.46c1.74,2.04,4.17,3.06,7.29,3.06c2.5,0,4.82-0.43,6.96-1.3v2.26
			C774.99,198.39,772.69,198.8,769.83,198.8z"/>
		<path class="st3" d="M802.66,198.31V181c0-2.69-0.58-4.64-1.75-5.86c-1.16-1.22-2.97-1.83-5.42-1.83c-3.29,0-5.7,0.81-7.23,2.42
			c-1.53,1.61-2.29,4.23-2.29,7.85v14.74h-2.51v-38.22h2.51v12.16l-0.13,3.41h0.18c1.03-1.6,2.33-2.77,3.9-3.49
			c1.57-0.72,3.52-1.08,5.85-1.08c6.24,0,9.36,3.25,9.36,9.75v17.46H802.66z"/>
	</g>
</g>
</svg>
