<?xml version="1.0" encoding="utf-8"?>
<!-- Generator: Adobe Illustrator 24.2.1, SVG Export Plug-In . SVG Version: 6.00 Build 0)  -->
<svg version="1.1" id="Warstwa_1" xmlns="http://www.w3.org/2000/svg" xmlns:xlink="http://www.w3.org/1999/xlink" x="0px" y="0px"
	 viewBox="0 0 400 400" style="enable-background:new 0 0 400 400;" xml:space="preserve">
<style type="text/css">
	.st0{opacity:0.8;fill:url(#SVGID_1_);}
	.st1{fill:#FFFFFF;}
	.st2{opacity:0.8;fill:url(#SVGID_2_);}
	.st3{fill:url(#SVGID_3_);}
	.st4{fill:url(#SVGID_4_);}
	.st5{fill:url(#SVGID_5_);}
	.st6{fill:url(#SVGID_6_);}
	.st7{fill:url(#SVGID_7_);}
	.st8{fill:url(#SVGID_8_);}
	.st9{opacity:0.8;fill:url(#SVGID_9_);}
	.st10{opacity:0.8;fill:url(#SVGID_10_);}
	.st11{opacity:0.8;fill:url(#SVGID_11_);}
	.st12{opacity:0.8;fill:url(#SVGID_12_);}
	.st13{opacity:0.8;fill:url(#SVGID_13_);}
	.st14{opacity:0.8;fill:url(#SVGID_14_);}
	.st15{opacity:0.8;fill:url(#SVGID_15_);}
	.st16{opacity:0.8;fill:url(#SVGID_16_);}
	.st17{opacity:0.8;fill:url(#SVGID_17_);}
	.st18{opacity:0.8;fill:url(#SVGID_18_);}
	.st19{opacity:0.8;fill:url(#SVGID_19_);}
	.st20{opacity:0.8;fill:url(#SVGID_20_);}
	.st21{opacity:0.8;fill:url(#SVGID_21_);}
	.st22{opacity:0.8;fill:url(#SVGID_22_);}
	.st23{opacity:0.8;fill:url(#SVGID_23_);}
	.st24{opacity:0.8;fill:url(#SVGID_24_);}
	.st25{opacity:0.8;fill:url(#SVGID_25_);}
	.st26{opacity:0.8;fill:url(#SVGID_26_);}
	.st27{opacity:0.8;fill:url(#SVGID_27_);}
</style>
<linearGradient id="SVGID_1_" gradientUnits="userSpaceOnUse" x1="25" y1="200" x2="375" y2="200">
	<stop  offset="0" style="stop-color:#92D2E7"/>
	<stop  offset="0.0969" style="stop-color:#6EC3D4"/>
	<stop  offset="0.207" style="stop-color:#4CB5C3"/>
	<stop  offset="0.3253" style="stop-color:#30A9B5"/>
	<stop  offset="0.4526" style="stop-color:#1BA0AA"/>
	<stop  offset="0.5929" style="stop-color:#0C9AA2"/>
	<stop  offset="0.7567" style="stop-color:#03969D"/>
	<stop  offset="1" style="stop-color:#00959C"/>
</linearGradient>
<circle style="fill:url(#SVGID_1_);" cx="200" cy="200" r="175"/>
<g>
	<path class="st1" d="M305.89,138.95c-1.47-1.1-3.37-1.49-5.18-1.07l-23.08,5.74c-8.52-0.47-35.69-10.6-51.17-17.05l-0.31-0.12
		c-20.55-7.17-38.34-5.56-53.21,4.67c-19.78-6.56-45.12,7.29-52.94,12.03l-20.79-5.19c-1.8-0.46-3.72-0.08-5.19,1.03
		c-1.47,1.11-2.33,2.81-2.32,4.62v81.74c0,3.22,2.7,5.84,6.02,5.84h12.78l54.7,41.85c4.26,3.98,10.26,5.68,16.06,4.55
		c5.8-1.13,10.66-4.94,13.01-10.2c2.73,1.52,5.81,2.32,8.95,2.34c7.21,0,13.73-4.16,16.58-10.58c2.72,1.53,5.81,2.33,8.95,2.34
		c7.2,0,13.71-4.16,16.56-10.58c5.65,3.12,12.6,3.03,18.18-0.23c5.57-3.26,8.9-9.18,8.7-15.49l12.87-3.99h17.21
		c3.32,0,6.02-2.61,6.02-5.84v-81.74C308.3,141.78,307.41,140.05,305.89,138.95L305.89,138.95z M103.74,151.09l10.76,2.68
		l-4.31,38.89l-2.98,26.86h-3.47V151.09z M258.53,239.75c-2.38,2.22-6.14,2.22-8.52,0l-8.5-8.24l-34.03-33.05
		c-2.37-2.07-6-1.98-8.26,0.2c-2.26,2.18-2.37,5.7-0.25,8.02l34.05,33.09c2.28,2.29,2.24,5.93-0.08,8.18
		c-2.33,2.25-6.08,2.28-8.44,0.06l-8.52-8.27l-25.6-24.78c-1.13-1.1-2.66-1.71-4.26-1.71c-1.6,0-3.13,0.62-4.26,1.71
		c-1.13,1.1-1.77,2.58-1.77,4.13c0,1.55,0.63,3.04,1.77,4.13l25.63,24.78c1.16,1.09,1.82,2.58,1.83,4.15
		c0.01,1.57-0.63,3.07-1.77,4.18c-1.14,1.1-2.7,1.72-4.31,1.7c-1.62-0.02-3.15-0.66-4.27-1.79l-25.44-24.76
		c-1.13-1.1-2.65-1.71-4.25-1.71c-1.59,0-3.12,0.62-4.25,1.71c-1.13,1.08-1.76,2.57-1.76,4.11c0,1.55,0.63,3.04,1.76,4.13
		l17.02,16.51c2.34,2.29,2.34,5.98,0,8.27c-2.39,2.2-6.13,2.2-8.52,0c-0.17-0.17-0.34-0.32-0.53-0.47l-54.08-41.29l6.04-54.16
		l1.75-15.79c7.65-4.67,22.6-11.89,34.99-11.68c-3.68,4.13-6.98,8.57-9.84,13.27c-5.51,9.1-2.84,20.79,6.11,26.79
		c8.52,5.65,24.07,10.91,43.32-5.23l57.23,55.51C260.86,233.77,260.86,237.46,258.53,239.75L258.53,239.75z M267.99,224.27
		c-0.29-0.36-0.61-0.7-0.94-1.03l-57.27-55.58c2.41-2.66,4.81-5.63,7.22-8.99c1.11-1.24,1.62-2.89,1.42-4.52
		c-0.2-1.63-1.11-3.1-2.49-4.06c-1.38-0.95-3.11-1.29-4.77-0.94c-1.65,0.35-3.08,1.36-3.93,2.79
		c-10.69,14.69-26.66,30.01-42.35,19.62c-3.7-2.55-4.74-7.44-2.41-11.21c3.9-6.76,9-12.8,15.06-17.84c0.2-0.14,0.38-0.28,0.56-0.44
		c12.03-9.34,26.47-10.77,43.99-4.67c4.55,1.87,34.85,14.32,50.73,17.28l5.3,66.54L267.99,224.27z M296.26,219.52h-6.45l-5.22-65.6
		l11.67-2.83V219.52z M296.26,219.52"/>
</g>
</svg>
