<?xml version="1.0" encoding="utf-8"?>
<!-- Generator: Adobe Illustrator 24.2.1, SVG Export Plug-In . SVG Version: 6.00 Build 0)  -->
<svg version="1.1" id="Warstwa_1" xmlns="http://www.w3.org/2000/svg" xmlns:xlink="http://www.w3.org/1999/xlink" x="0px" y="0px"
	 viewBox="0 0 400 400" style="enable-background:new 0 0 400 400;" xml:space="preserve">
<style type="text/css">
	.st0{opacity:0.8;fill:url(#SVGID_1_);}
	.st1{fill:#FFFFFF;}
	.st2{opacity:0.8;fill:url(#SVGID_2_);}
	.st3{fill:url(#SVGID_3_);}
	.st4{fill:url(#SVGID_4_);}
	.st5{fill:url(#SVGID_5_);}
	.st6{fill:url(#SVGID_6_);}
	.st7{fill:url(#SVGID_7_);}
	.st8{fill:url(#SVGID_8_);}
	.st9{opacity:0.8;fill:url(#SVGID_9_);}
	.st10{opacity:0.8;fill:url(#SVGID_10_);}
	.st11{opacity:0.8;fill:url(#SVGID_11_);}
	.st12{opacity:0.8;fill:url(#SVGID_12_);}
	.st13{opacity:0.8;fill:url(#SVGID_13_);}
	.st14{opacity:0.8;fill:url(#SVGID_14_);}
	.st15{opacity:0.8;fill:url(#SVGID_15_);}
	.st16{opacity:0.8;fill:url(#SVGID_16_);}
	.st17{opacity:0.8;fill:url(#SVGID_17_);}
	.st18{opacity:0.8;fill:url(#SVGID_18_);}
	.st19{opacity:0.8;fill:url(#SVGID_19_);}
	.st20{opacity:0.8;fill:url(#SVGID_20_);}
	.st21{opacity:0.8;fill:url(#SVGID_21_);}
	.st22{opacity:0.8;fill:url(#SVGID_22_);}
	.st23{opacity:0.8;fill:url(#SVGID_23_);}
	.st24{opacity:0.8;fill:url(#SVGID_24_);}
	.st25{opacity:0.8;fill:url(#SVGID_25_);}
	.st26{opacity:0.8;fill:url(#SVGID_26_);}
	.st27{opacity:0.8;fill:url(#SVGID_27_);}
</style>
<linearGradient id="SVGID_1_" gradientUnits="userSpaceOnUse" x1="25" y1="200" x2="375" y2="200">
	<stop  offset="0" style="stop-color:#92D2E7"/>
	<stop  offset="0.0969" style="stop-color:#6EC3D4"/>
	<stop  offset="0.207" style="stop-color:#4CB5C3"/>
	<stop  offset="0.3253" style="stop-color:#30A9B5"/>
	<stop  offset="0.4526" style="stop-color:#1BA0AA"/>
	<stop  offset="0.5929" style="stop-color:#0C9AA2"/>
	<stop  offset="0.7567" style="stop-color:#03969D"/>
	<stop  offset="1" style="stop-color:#00959C"/>
</linearGradient>
<circle style="fill:url(#SVGID_1_);" cx="200" cy="200" r="175"/>
<path class="st1" d="M183.14,293.21c-0.63,0-1.27-0.06-1.89-0.18c-2.5-0.49-4.65-1.88-6.05-3.93l-61.06-88.96
	c-8.37-12.2-11.35-26.83-8.38-41.2c2.97-14.38,11.54-26.79,24.13-34.93c9.33-6.03,20.19-9.22,31.38-9.22
	c19.09,0,36.78,9.16,47.31,24.5l3.44,5.01l5.13-3.31c9.33-6.04,20.19-9.23,31.38-9.23c19.09,0,36.78,9.16,47.31,24.5
	c8.38,12.2,11.35,26.84,8.39,41.2c-2.97,14.38-11.54,26.78-24.13,34.92l-91.66,59.25C186.87,292.67,185.04,293.21,183.14,293.21
	L183.14,293.21z M161.31,133.06c-7.42,0-14.62,2.12-20.81,6.12c-8.39,5.42-14.11,13.71-16.09,23.32c-1.99,9.63,0,19.43,5.61,27.59
	l55.78,81.26l83.71-54.11c8.39-5.43,14.11-13.71,16.09-23.32c1.99-9.63,0-19.42-5.61-27.59c-7-10.21-18.74-16.3-31.4-16.3
	c-7.42,0-14.62,2.12-20.81,6.12l-13.09,8.46c-1.58,1.02-3.42,1.56-5.31,1.56c-0.63,0-1.26-0.06-1.88-0.18
	c-2.49-0.49-4.64-1.88-6.05-3.93l-8.72-12.71c-5.57-8.13-14.08-13.66-23.96-15.58C166.31,133.3,163.8,133.06,161.31,133.06z"/>
</svg>
