<?xml version="1.0" encoding="utf-8"?>
<!-- Generator: Adobe Illustrator 24.2.1, SVG Export Plug-In . SVG Version: 6.00 Build 0)  -->
<svg version="1.1" id="Warstwa_1" xmlns="http://www.w3.org/2000/svg" xmlns:xlink="http://www.w3.org/1999/xlink" x="0px" y="0px"
	 viewBox="0 0 400 400" style="enable-background:new 0 0 400 400;" xml:space="preserve">
<style type="text/css">
	.st0{opacity:0.8;fill:url(#SVGID_1_);}
	.st1{fill:#FFFFFF;}
	.st2{opacity:0.8;fill:url(#SVGID_2_);}
	.st3{fill:url(#SVGID_3_);}
	.st4{fill:url(#SVGID_4_);}
	.st5{fill:url(#SVGID_5_);}
	.st6{fill:url(#SVGID_6_);}
	.st7{fill:url(#SVGID_7_);}
	.st8{fill:url(#SVGID_8_);}
	.st9{opacity:0.8;fill:url(#SVGID_9_);}
	.st10{opacity:0.8;fill:url(#SVGID_10_);}
	.st11{opacity:0.8;fill:url(#SVGID_11_);}
	.st12{opacity:0.8;fill:url(#SVGID_12_);}
	.st13{opacity:0.8;fill:url(#SVGID_13_);}
	.st14{opacity:0.8;fill:url(#SVGID_14_);}
	.st15{opacity:0.8;fill:url(#SVGID_15_);}
	.st16{opacity:0.8;fill:url(#SVGID_16_);}
	.st17{opacity:0.8;fill:url(#SVGID_17_);}
	.st18{opacity:0.8;fill:url(#SVGID_18_);}
	.st19{opacity:0.8;fill:url(#SVGID_19_);}
	.st20{opacity:0.8;fill:url(#SVGID_20_);}
	.st21{opacity:0.8;fill:url(#SVGID_21_);}
	.st22{opacity:0.8;fill:url(#SVGID_22_);}
	.st23{opacity:0.8;fill:url(#SVGID_23_);}
	.st24{opacity:0.8;fill:url(#SVGID_24_);}
	.st25{opacity:0.8;fill:url(#SVGID_25_);}
	.st26{opacity:0.8;fill:url(#SVGID_26_);}
	.st27{opacity:0.8;fill:url(#SVGID_27_);}
</style>
<linearGradient id="SVGID_1_" gradientUnits="userSpaceOnUse" x1="25" y1="200" x2="375" y2="200">
	<stop  offset="0" style="stop-color:#92D2E7"/>
	<stop  offset="0.0969" style="stop-color:#6EC3D4"/>
	<stop  offset="0.207" style="stop-color:#4CB5C3"/>
	<stop  offset="0.3253" style="stop-color:#30A9B5"/>
	<stop  offset="0.4526" style="stop-color:#1BA0AA"/>
	<stop  offset="0.5929" style="stop-color:#0C9AA2"/>
	<stop  offset="0.7567" style="stop-color:#03969D"/>
	<stop  offset="1" style="stop-color:#00959C"/>
</linearGradient>
<circle style="fill:url(#SVGID_1_);" cx="200" cy="200" r="175"/>
<g>
	<path class="st1" d="M297.26,185.21c0-9.55-8-17.31-17.84-17.31h-29.84c5.01-5.71,8.04-13.1,8.04-21.16v-15.39
		c0-18.03-15.12-32.7-33.7-32.7c-7.4,0-14.25,2.33-19.81,6.27c-5.72-4.07-12.6-6.27-19.84-6.27c-2.72,0-5.36,0.32-7.9,0.92
		c-3.46-7.35-11.13-12.46-19.85-12.46c-12.02,0-21.81,9.49-21.81,21.16c0,9.71,6.78,17.91,15.98,20.39
		c-0.08,0.89-0.12,1.79-0.12,2.7v15.39c0,8.25,3.17,15.79,8.38,21.55c-18.17,2.59-32.17,17.82-32.17,36.16v9.73
		c-8.91,0.96-15.86,8.31-15.86,17.2c0,8.9,6.95,16.24,15.86,17.2v29.74c0,3.19,2.66,5.77,5.95,5.77h142.73
		c3.29,0,5.95-2.58,5.95-5.77v-75.91C290.31,201.46,297.26,194.11,297.26,185.21L297.26,185.21z M162.46,146.74v-8.38
		c1.37,0.2,2.74,0.3,4.09,0.3c6.53,0,12.81-2.27,17.72-6.38c1.8,1.5,3.79,2.76,5.94,3.75v10.71c0,6.64,2.05,12.81,5.56,17.97
		c-3.42,2.08-7.37,3.19-11.51,3.19C172.24,167.9,162.46,158.41,162.46,146.74L162.46,146.74z M202.1,146.74v-15.39
		c0-4.95,1.76-9.5,4.71-13.11c4.86,5.03,10.62,9.25,16.93,12.38c6.93,3.43,14.3,5.51,21.97,6.22v9.9c0,11.67-9.78,21.16-21.81,21.16
		C211.89,167.9,202.1,158.41,202.1,146.74L202.1,146.74z M244.75,125.11c-10.74-1.44-20.56-6.2-28.2-13.68
		c2.3-0.8,4.78-1.24,7.36-1.24C233.7,110.18,242,116.48,244.75,125.11L244.75,125.11z M195.78,113.37c-1.97,2.9-3.48,6.11-4.43,9.55
		c-0.8-0.74-1.52-1.57-2.14-2.47c-1.1-1.61-2.96-2.57-4.95-2.57c-1.99,0-3.84,0.96-4.95,2.57c-3.48,5.06-9.69,7.55-15.83,6.36
		l-0.5-0.1c2.18-9.45,10.89-16.53,21.27-16.53C188.4,110.18,192.36,111.3,195.78,113.37L195.78,113.37z M146.6,108.26
		c0-5.3,4.45-9.62,9.91-9.62c3.93,0,7.38,2.27,8.98,5.56c-5.05,3.3-9.13,7.9-11.74,13.29C149.62,116.33,146.6,112.63,146.6,108.26
		L146.6,108.26z M138.67,248.7h41.63c1.39,0,2.74-0.47,3.81-1.34l14.03-11.35v36.54h-59.47V248.7z M269.5,272.55h-59.47v-48.86
		c0-2.24-1.33-4.28-3.42-5.23c-2.09-0.95-4.56-0.64-6.33,0.79l-22.13,17.9h-49.39c-3.28,0-5.95-2.59-5.95-5.77
		c0-3.18,2.67-5.77,5.95-5.77h43.61c1.29,0,2.54-0.4,3.57-1.15l30.13-21.93h63.43V272.55z M279.42,190.98h-75.33
		c-1.29,0-2.54,0.4-3.57,1.15l-30.13,21.93h-31.72v-9.62c0-13.79,11.56-25.01,25.77-25.01h114.98c3.28,0,5.95,2.59,5.95,5.77
		C285.36,188.39,282.69,190.98,279.42,190.98L279.42,190.98z M279.42,190.98"/>
</g>
</svg>
