<?xml version="1.0" encoding="utf-8"?>
<!-- Generator: Adobe Illustrator 24.2.1, SVG Export Plug-In . SVG Version: 6.00 Build 0)  -->
<svg version="1.1" id="Warstwa_1" xmlns="http://www.w3.org/2000/svg" xmlns:xlink="http://www.w3.org/1999/xlink" x="0px" y="0px"
	 viewBox="0 0 1400 230" style="enable-background:new 0 0 1400 230;" xml:space="preserve">
<style type="text/css">
	.st0{opacity:0.75;fill:#B2B2B2;}
	.st1{fill:#AA7E63;}
	.st2{fill:#020203;}
	.st3{opacity:0.5;}
	.st4{fill:#FFFFFF;}
	.st5{opacity:0.5;fill:#FFFFFF;}
	.st6{clip-path:url(#SVGID_2_);}
	.st7{clip-path:url(#SVGID_4_);}
	.st8{clip-path:url(#SVGID_6_);}
	.st9{clip-path:url(#SVGID_8_);}
	.st10{clip-path:url(#SVGID_10_);}
	.st11{clip-path:url(#SVGID_12_);}
	.st12{clip-path:url(#SVGID_14_);}
	.st13{clip-path:url(#SVGID_16_);}
	.st14{clip-path:url(#SVGID_18_);}
	.st15{clip-path:url(#SVGID_20_);}
	.st16{clip-path:url(#SVGID_22_);}
	.st17{clip-path:url(#SVGID_24_);}
	.st18{clip-path:url(#SVGID_26_);}
	.st19{clip-path:url(#SVGID_28_);}
	.st20{clip-path:url(#SVGID_30_);}
	.st21{clip-path:url(#SVGID_32_);}
	.st22{clip-path:url(#SVGID_34_);}
	.st23{clip-path:url(#SVGID_36_);}
	.st24{clip-path:url(#SVGID_38_);}
	.st25{clip-path:url(#SVGID_40_);}
	.st26{clip-path:url(#SVGID_42_);}
	.st27{clip-path:url(#SVGID_44_);}
	.st28{clip-path:url(#SVGID_46_);}
	.st29{clip-path:url(#SVGID_48_);}
	.st30{clip-path:url(#SVGID_50_);}
	.st31{clip-path:url(#SVGID_52_);}
	.st32{clip-path:url(#SVGID_54_);}
	.st33{clip-path:url(#SVGID_56_);}
	.st34{clip-path:url(#SVGID_58_);}
	.st35{clip-path:url(#SVGID_60_);}
	.st36{clip-path:url(#SVGID_62_);}
	.st37{clip-path:url(#SVGID_64_);}
	.st38{clip-path:url(#SVGID_66_);}
	.st39{clip-path:url(#SVGID_68_);}
	.st40{clip-path:url(#SVGID_70_);}
	.st41{fill:#123274;}
	.st42{fill:#2DB8C5;}
	.st43{opacity:0.8;}
	.st44{fill:#008BC0;}
	.st45{opacity:0.5;fill:none;stroke:#FFFFFF;stroke-width:8;stroke-linecap:round;stroke-linejoin:round;stroke-miterlimit:10;}
	.st46{opacity:0.5;fill:none;stroke:#FFFFFF;stroke-width:7;stroke-linecap:round;stroke-linejoin:round;stroke-miterlimit:10;}
	.st47{fill:#0B5BA6;}
	.st48{opacity:0.8;fill:url(#SVGID_71_);}
	.st49{fill:none;stroke:#FFFFFF;stroke-width:10;stroke-miterlimit:10;}
	.st50{opacity:0.8;fill:url(#SVGID_72_);}
	.st51{fill:none;stroke:#FFFFFF;stroke-width:5;stroke-miterlimit:10;}
	.st52{fill:none;stroke:#FFFFFF;stroke-width:6;stroke-miterlimit:10;}
	.st53{opacity:0.8;fill:url(#SVGID_91_);}
	.st54{fill:#878787;}
	.st55{opacity:0.8;fill:url(#SVGID_110_);}
	.st56{opacity:0.8;fill:url(#SVGID_111_);}
	.st57{stroke:#FFFFFF;stroke-width:8;stroke-linecap:round;stroke-linejoin:round;stroke-miterlimit:10;}
	.st58{opacity:0.8;fill:url(#SVGID_112_);}
	.st59{opacity:0.8;fill:url(#SVGID_113_);}
	.st60{clip-path:url(#SVGID_115_);fill:#12100B;}
	.st61{fill:#12100B;}
	.st62{fill:url(#SVGID_116_);}
	.st63{fill:url(#SVGID_117_);}
	.st64{fill:#E87443;}
	.st65{fill:#82368C;}
	.st66{opacity:0.8;fill:url(#SVGID_118_);}
	.st67{opacity:0.8;fill:url(#SVGID_119_);}
	.st68{fill:#74B959;}
	.st69{opacity:0.8;fill:url(#SVGID_120_);}
	.st70{opacity:0.8;fill:#5EA62B;}
	.st71{fill:#10466D;}
	.st72{opacity:0.4;}
	.st73{clip-path:url(#SVGID_122_);}
	.st74{fill:url(#SVGID_123_);}
	.st75{fill:url(#SVGID_124_);}
	.st76{fill:url(#SVGID_125_);}
	.st77{fill:url(#SVGID_126_);}
	.st78{fill:url(#SVGID_127_);}
	.st79{fill:url(#SVGID_128_);}
	.st80{fill:url(#SVGID_129_);}
	.st81{fill:url(#SVGID_130_);}
	.st82{fill:url(#SVGID_131_);}
	.st83{fill:url(#SVGID_132_);}
	.st84{fill:url(#SVGID_133_);}
	.st85{fill:url(#SVGID_134_);}
	.st86{fill:url(#SVGID_135_);}
	.st87{fill:url(#SVGID_136_);}
	.st88{fill:url(#SVGID_137_);}
	.st89{fill:url(#SVGID_138_);}
	.st90{fill:url(#SVGID_139_);}
	.st91{fill:url(#SVGID_140_);}
	.st92{fill:url(#SVGID_141_);}
	.st93{fill:url(#SVGID_142_);}
	.st94{fill:url(#SVGID_143_);}
	.st95{fill:url(#SVGID_144_);}
	.st96{fill:url(#SVGID_145_);}
	.st97{fill:url(#SVGID_146_);}
	.st98{fill:url(#SVGID_147_);}
	.st99{fill:url(#SVGID_148_);}
	.st100{fill:url(#SVGID_149_);}
	.st101{fill:url(#SVGID_150_);}
	.st102{fill:url(#SVGID_151_);}
	.st103{fill:url(#SVGID_152_);}
	.st104{fill:url(#SVGID_153_);}
	.st105{fill:url(#SVGID_154_);}
	.st106{fill:url(#SVGID_155_);}
	.st107{fill:url(#SVGID_156_);}
	.st108{fill:url(#SVGID_157_);}
	.st109{fill:url(#SVGID_158_);}
	.st110{fill:url(#SVGID_159_);}
	.st111{fill:url(#SVGID_160_);}
	.st112{fill:url(#SVGID_161_);}
	.st113{fill:url(#SVGID_162_);}
	.st114{fill:url(#SVGID_163_);}
	.st115{fill:url(#SVGID_164_);}
	.st116{fill:url(#SVGID_165_);}
	.st117{fill:url(#SVGID_166_);}
	.st118{fill:url(#SVGID_167_);}
	.st119{fill:url(#SVGID_168_);}
	.st120{fill:url(#SVGID_169_);}
	.st121{fill:url(#SVGID_170_);}
	.st122{fill:url(#SVGID_171_);}
	.st123{fill:url(#SVGID_172_);}
	.st124{fill:url(#SVGID_173_);}
	.st125{fill:url(#SVGID_174_);}
	.st126{fill:url(#SVGID_175_);}
	.st127{fill:url(#SVGID_176_);}
	.st128{fill:url(#SVGID_177_);}
	.st129{fill:url(#SVGID_178_);}
	.st130{fill:#F59A1C;}
	.st131{fill:#FFFFFF;stroke:#FFFFFF;stroke-width:14.1732;stroke-miterlimit:10;}
	.st132{opacity:0.8;fill:url(#SVGID_179_);}
	.st133{fill:#255C30;}
	.st134{fill:#C10C1A;}
	.st135{fill:#65C3CE;}
	.st136{fill:#31B7BC;}
	.st137{opacity:0.4;fill:#FFFFFF;}
	.st138{fill:#C3372A;}
	.st139{fill:#9D9D9C;}
	.st140{opacity:0.65;fill:#FFFFFF;}
	.st141{opacity:0.65;}
	.st142{opacity:0.8;fill:url(#SVGID_180_);}
	.st143{fill:#ED694B;}
	.st144{opacity:0.8;fill:url(#SVGID_181_);}
	.st145{clip-path:url(#SVGID_183_);}
	.st146{clip-path:url(#SVGID_185_);}
	.st147{clip-path:url(#SVGID_187_);}
	.st148{opacity:0.6;}
	.st149{opacity:0.6;fill:#FFFFFF;}
	.st150{opacity:0.8;fill:url(#SVGID_188_);}
	.st151{opacity:0.8;fill:url(#SVGID_189_);}
	.st152{opacity:0.8;fill:url(#SVGID_190_);}
	.st153{fill:none;stroke:#FFFFFF;stroke-width:35;stroke-linecap:round;stroke-linejoin:round;stroke-miterlimit:10;}
	.st154{opacity:0.8;fill:url(#SVGID_191_);}
	.st155{opacity:0.8;fill:url(#SVGID_192_);}
	.st156{fill:none;stroke:#FFFFFF;stroke-width:20;stroke-linecap:round;stroke-linejoin:round;stroke-miterlimit:10;}
	.st157{opacity:0.8;fill:url(#SVGID_193_);}
	.st158{fill:none;stroke:#FFFFFF;stroke-width:2;stroke-miterlimit:10;}
	.st159{opacity:0.75;fill:url(#SVGID_194_);}
	.st160{opacity:0.8;fill:url(#SVGID_195_);}
	.st161{fill:url(#SVGID_196_);}
	.st162{opacity:0.8;fill:url(#SVGID_197_);}
	.st163{opacity:0.8;fill:url(#SVGID_198_);}
	.st164{fill:url(#SVGID_199_);}
	.st165{fill:url(#SVGID_200_);}
	.st166{fill:url(#SVGID_201_);}
	.st167{fill:url(#SVGID_202_);}
	.st168{fill:url(#SVGID_203_);}
	.st169{opacity:0.8;fill:url(#SVGID_204_);}
	.st170{fill:url(#SVGID_205_);}
	.st171{opacity:0.1;}
	.st172{opacity:0.1;fill:#FFFFFF;}
	.st173{opacity:0.15;fill:#FFFFFF;}
	.st174{opacity:0.15;}
	.st175{opacity:0.8;fill:url(#SVGID_206_);}
	.st176{fill:url(#SVGID_207_);}
	.st177{fill:url(#SVGID_208_);}
	.st178{fill:url(#SVGID_209_);}
	.st179{opacity:0.8;fill:url(#SVGID_210_);}
	.st180{opacity:0.8;fill:url(#SVGID_211_);}
	.st181{opacity:0.8;fill:url(#SVGID_212_);}
	.st182{fill:#B2B2B2;}
	.st183{opacity:0.7;fill:url(#SVGID_213_);}
	.st184{opacity:0.9;fill:url(#SVGID_214_);}
	.st185{opacity:0.9;fill:url(#SVGID_215_);}
</style>
<rect x="0" y="0" class="st0" width="1400" height="230"/>
<path class="st137" d="M28.93,66.37c-0.91,0-1.77,0.18-2.59,0.53c-2.59,1.1-4.32,3.44-4.32,6c0,3.44,2.96,6.13,6.73,6.13
	c4,0,6.5-3.13,6.5-6C35.25,70.88,33.7,66.37,28.93,66.37z"/>
<path class="st137" d="M222.37,57.1c-0.91,0-1.77,0.18-2.59,0.53c-2.59,1.1-4.32,3.44-4.32,6c0,3.44,2.96,6.13,6.73,6.13
	c4,0,6.5-3.13,6.5-6C228.69,61.6,227.14,57.1,222.37,57.1z"/>
<path class="st137" d="M77.98,44.56c-0.91,0-1.77,0.18-2.59,0.53c-2.59,1.1-4.32,3.44-4.32,6c0,3.44,2.96,6.13,6.73,6.13
	c4,0,6.5-3.13,6.5-6C84.3,49.06,82.76,44.56,77.98,44.56z"/>
<path class="st137" d="M113.79,125.15c-0.91,0-1.77,0.18-2.59,0.53c-2.59,1.1-4.32,3.44-4.32,6c0,3.44,2.96,6.13,6.73,6.13
	c4,0,6.5-3.13,6.5-6C120.11,129.65,118.57,125.15,113.79,125.15z"/>
<path class="st137" d="M329.44,138.96c-0.91,0-1.77,0.18-2.59,0.53c-2.59,1.1-4.32,3.44-4.32,6c0,3.44,2.96,6.13,6.73,6.13
	c4,0,6.5-3.13,6.5-6C335.76,143.46,334.21,138.96,329.44,138.96z"/>
<g class="st72">
	<path class="st4" d="M210.3,46.38c-6.49,0-11.77-5.13-11.77-11.43s5.28-11.43,11.77-11.43s11.77,5.13,11.77,11.43
		S216.79,46.38,210.3,46.38z M210.3,29.79c-2.93,0-5.32,2.32-5.32,5.16s2.39,5.16,5.32,5.16c2.93,0,5.32-2.32,5.32-5.16
		S213.23,29.79,210.3,29.79z"/>
</g>
<g class="st72">
	<path class="st4" d="M916.1,54.6c-6.49,0-11.77-5.13-11.77-11.43s5.28-11.43,11.77-11.43s11.77,5.13,11.77,11.43
		S922.59,54.6,916.1,54.6z M916.1,38.01c-2.93,0-5.32,2.32-5.32,5.16c0,2.85,2.39,5.16,5.32,5.16c2.93,0,5.32-2.32,5.32-5.16
		C921.41,40.33,919.03,38.01,916.1,38.01z"/>
</g>
<g class="st72">
	<path class="st4" d="M46.74,39.08c-0.72,0-1.42-0.28-1.93-0.78L38,31.7c-1.07-1.03-1.07-2.71,0-3.74c1.07-1.03,2.79-1.03,3.86,0
		l4.88,4.73l8.29-8.04c1.07-1.03,2.79-1.03,3.86,0c1.07,1.03,1.07,2.71,0,3.74l-10.22,9.92C48.15,38.8,47.46,39.08,46.74,39.08z"/>
</g>
<g class="st72">
	<g>
		<path class="st4" d="M1116.97,105.65c-0.83,0-1.65-0.31-2.28-0.92l-17.09-16.59c-1.26-1.22-1.26-3.21,0-4.43
			c1.26-1.22,3.3-1.22,4.56,0l17.09,16.59c1.26,1.22,1.26,3.21,0,4.43C1118.62,105.34,1117.8,105.65,1116.97,105.65z"/>
	</g>
	<g>
		<path class="st4" d="M1099.88,105.65c-0.83,0-1.65-0.31-2.28-0.92c-1.26-1.22-1.26-3.21,0-4.43l17.09-16.59
			c1.26-1.22,3.3-1.22,4.56,0c1.26,1.22,1.26,3.21,0,4.43l-17.09,16.59C1101.53,105.34,1100.7,105.65,1099.88,105.65z"/>
	</g>
</g>
<g class="st72">
	<g>
		<path class="st4" d="M843.07,175.12c-0.83,0-1.65-0.31-2.28-0.92l-17.09-16.59c-1.26-1.22-1.26-3.21,0-4.43
			c1.26-1.22,3.3-1.22,4.56,0l17.09,16.59c1.26,1.22,1.26,3.21,0,4.43C844.72,174.81,843.89,175.12,843.07,175.12z"/>
	</g>
	<g>
		<path class="st4" d="M825.97,175.12c-0.83,0-1.65-0.31-2.28-0.92c-1.26-1.22-1.26-3.21,0-4.43l17.09-16.59
			c1.26-1.22,3.3-1.22,4.56,0c1.26,1.22,1.26,3.21,0,4.43l-17.09,16.59C827.62,174.81,826.8,175.12,825.97,175.12z"/>
	</g>
</g>
<g class="st72">
	<g>
		<path class="st4" d="M555.38,190.97c-0.83,0-1.65-0.31-2.28-0.92L536,173.46c-1.26-1.22-1.26-3.21,0-4.43
			c1.26-1.22,3.3-1.22,4.56,0l17.09,16.59c1.26,1.22,1.26,3.21,0,4.43C557.03,190.66,556.2,190.97,555.38,190.97z"/>
	</g>
	<g>
		<path class="st4" d="M538.28,190.97c-0.83,0-1.65-0.31-2.28-0.92c-1.26-1.22-1.26-3.21,0-4.43l17.09-16.59
			c1.26-1.22,3.3-1.22,4.56,0c1.26,1.22,1.26,3.21,0,4.43l-17.09,16.59C539.93,190.66,539.11,190.97,538.28,190.97z"/>
	</g>
</g>
<path class="st137" d="M454.73,47.13c1.4,0,2.53-1.1,2.53-2.45c0-1.36-1.13-2.45-2.53-2.45c-1.4,0-2.53,1.1-2.53,2.45
	C452.2,46.03,453.33,47.13,454.73,47.13z"/>
<path class="st137" d="M343.24,53.3c-0.45,0.78-0.42,1.73,0.07,2.49l15.15,23.52c6.47,10.05,17.62,16.35,29.83,16.87l-24.33,26.73
	c-3.75,3.72-2.45,9.95,2.51,11.95l13.39,6.42c0.06,0.03,0.12,0.05,0.18,0.08c3.87,1.5,8.29-0.32,9.85-4.08l9.35-21.42h18.56
	c21.39,0,39.46-16.86,39.46-36.82V64.31c0-4.06,3.4-7.36,7.59-7.36h5.06c0.88,0,1.69-0.44,2.15-1.16c0.46-0.72,0.5-1.63,0.11-2.39
	l-6.37-12.35c-2.74-5.33-8.26-8.64-14.4-8.64c-5,0-9.79,2.3-12.82,6.17l-7.15,7.8c-1.9-2.63-4.7-4.58-7.92-5.47l-12.78-3.54
	c-9.78-2.71-19.35-10.03-26.25-20.07c-0.62-0.9-1.77-1.3-2.84-0.99c-1.07,0.31-1.8,1.27-1.8,2.35v13.23
	c0,6.15,0.95,12.21,2.82,18.06c-1.96,0.47-3.95,0.87-5.92,1.18c-3.86,0.61-7.8,0.92-11.7,0.92h-19.61
	C344.54,52.04,343.69,52.52,343.24,53.3z M384.91,25.97c6.97,7.92,15.6,13.66,24.43,16.11l12.78,3.54c2.49,0.69,4.59,2.35,5.8,4.58
	l-6.72,7.34l-11.81-6.88c-5.12-2.98-11.21-4.16-17.25-3.21c-1.9,0.3-3.11,0.67-4.6,1.14c-1.75-5.41-2.63-11.02-2.63-16.71V25.97z
	 M365.07,56.95c4.17,0,8.38-0.33,12.51-0.98c8.51-1.33,12.08-3.15,15.38-3.67c4.81-0.75,9.71,0.18,13.84,2.58l19.82,11.54
	c1.2,0.7,2.75,0.32,3.47-0.84c0.72-1.16,0.33-2.67-0.87-3.37l-3.6-2.09c17.77-19.41,16.82-18.36,16.94-18.51
	c2.08-2.69,5.38-4.29,8.84-4.29c4.21,0,8,2.27,9.88,5.93l4.54,8.8h-0.97c-6.97,0-12.65,5.51-12.65,12.27v14.73
	c0,17.3-15.75,31.91-34.4,31.91h-20.24c-7.21,0-13.68,3.89-16.91,10.14l-0.53,1.04c-0.62,1.21-0.12,2.69,1.13,3.29
	c1.25,0.61,2.77,0.11,3.39-1.1c0.29-0.38,2.21-5.91,8.84-7.87l-8.26,18.93c-0.01,0.02-0.01,0.03-0.02,0.05
	c-0.5,1.22-1.92,1.85-3.21,1.39c-14.24-6.82-13.38-6.42-13.55-6.49c-1.69-0.66-2.13-2.77-0.85-4.01c0.09-0.08,5.37-5.89,27.44-30.14
	c9.28-0.4,17.96-4.1,24.55-10.5c0.99-0.96,0.99-2.51,0-3.47c-0.99-0.96-2.59-0.96-3.58,0c-11.26,10.93-24.63,8.85-26.11,9.1
	c-11.11,0-21.26-5.46-27.15-14.6l-1.62-2.51l1.83,0.69c11.58,4.39,26.04,2.82,36.01-3.63c1.16-0.75,1.48-2.28,0.7-3.4
	c-0.78-1.13-2.35-1.43-3.51-0.68c-8.76,5.67-21.36,6.93-31.37,3.14l-8.15-3.09l-6.62-10.28H365.07z"/>
<path class="st137" d="M703.65,197.4c-0.49,0-0.89-0.39-0.89-0.87V92.3c0-4.15,0.52-8.41,1.56-12.67c0.03-0.19,0.05-0.31,0.1-0.43
	c1.94-7.78,5.68-15.23,10.78-21.46c2-2.41,4.38-4.75,7.51-7.35l22.54-19.69c1.23-1.07,2.82-1.67,4.46-1.67s3.23,0.59,4.46,1.66
	l22.62,19.77c3.09,2.56,5.45,4.88,7.42,7.28c8.03,9.79,12.45,22.06,12.45,34.56v104.24c0,0.48-0.4,0.87-0.89,0.87H703.65z
	 M785.25,190.08l-31.65-40.17h-0.11v40.17H785.25z M745.93,190.08v-40.17h-0.11l-31.67,40.17H745.93z M789.11,182.93v-27.05
	l-16.57-21.04l-12.08,11.74L789.11,182.93z M710.3,182.93l28.65-36.35l-12.09-11.74l-16.56,21.03V182.93z M789.11,143.82v-25.05
	l-11.19,10.85L789.11,143.82z M710.3,143.82l11.18-14.2l-11.18-10.85V143.82z M751.74,142.59v-35.38c-0.02-1.2,0.5-2.29,1.44-2.98
	c0.65-0.48,1.44-0.74,2.28-0.74c0.18,0,0.36,0.01,0.54,0.03l15.84-0.04v-3.86h-16.38c-0.98,0-1.95-0.39-2.66-1.07
	c-0.72-0.72-1.11-1.66-1.1-2.61l0.04-13.09h-4.02v13.1c0,2.02-1.69,3.66-3.77,3.66h-16.38v3.9c0,0,16.38-0.04,16.38-0.04
	c0.17,0,0.31,0.03,0.4,0.05c0.27,0.04,0.51,0.07,0.76,0.15c0.32,0.11,0.53,0.23,0.73,0.34c0.07,0.02,0.25,0.08,0.43,0.22
	c0.03,0.03,0.06,0.05,0.09,0.08c0.01,0.01,0.02,0.03,0.04,0.05c0.06,0.03,0.13,0.08,0.2,0.14c0.19,0.19,0.27,0.35,0.33,0.45l0,0
	c0.17,0.2,0.3,0.39,0.39,0.58c0.12,0.22,0.17,0.43,0.22,0.6c0.07,0.23,0.13,0.43,0.15,0.67c0.02,0.06,0.05,0.17,0.05,0.31v35.46
	H751.74z M740.17,137.41v-19.46l-8.69,11.03L740.17,137.41z M759.29,137.36l8.63-8.38l-8.63-10.96V137.36z M773.3,123.76
	l15.81-15.33V92.3c0-1.25-0.07-2.59-0.21-4.05l-9.51,9.23v9.65c0,2.02-1.69,3.66-3.77,3.66l-12.49,0.03L773.3,123.76z M726.1,123.76
	l10.2-12.94l-12.49,0.03c-0.99,0-1.93-0.38-2.66-1.06c-0.71-0.7-1.11-1.64-1.11-2.6v-9.71l-9.52-9.23
	c-0.14,1.44-0.21,2.78-0.21,4.05v16.12L726.1,123.76z M774.05,92.3l13.24-12.84c-1.78-6.23-4.85-12.12-8.91-17.08l-19.1,18.54
	l-0.04,11.39H774.05z M740.18,92.3V80.72l-19.05-18.47c-0.01,0.02-0.03,0.03-0.04,0.05c-4.09,4.98-7.19,10.91-8.98,17.17
	l13.25,12.84H740.18z M745.93,75.55v-35.6l-18.26,15.94c-0.46,0.38-0.89,0.74-1.3,1.09l19.13,18.57H745.93z M754.15,75.54
	l19.01-18.44c-0.43-0.37-0.87-0.76-1.34-1.15l-18.33-16.01v35.6H754.15z"/>
<path class="st137" d="M318.33,63.01c-2.87-2.07-6.48-2.69-9.91-1.69l0,0c-5.08,1.48-10.28,2.35-15.49,2.61v-5.06
	c8.49-1.55,14.93-8.79,14.93-17.47c0-3.91-2.45-9.27-7.48-16.36c-3.62-5.1-7.41-9.43-8.13-10.25c-0.68-0.77-1.67-1.21-2.71-1.21
	c-1.04,0-2.03,0.44-2.71,1.21c-0.72,0.82-4.52,5.15-8.13,10.25c-5.03,7.1-7.48,12.45-7.48,16.36c0,8.66,6.41,15.88,14.86,17.46v5.07
	c-5.19-0.27-10.37-1.14-15.42-2.61c-3.43-1-7.04-0.38-9.91,1.69c-2.87,2.07-4.52,5.25-4.52,8.73v44.97
	c0,5.66,4.75,10.27,10.58,10.27h45.46c5.83,0,10.58-4.61,10.58-10.27V71.74C322.85,68.26,321.2,65.08,318.33,63.01z M278.06,41.39
	c0-3.78,5.44-12.11,11.47-19.39c6.03,7.28,11.47,15.61,11.47,19.39c0,4.99-3.41,9.23-8.08,10.64v-4.56c0-1.84-1.53-3.32-3.42-3.32
	c-1.89,0-3.42,1.49-3.42,3.32v4.54C281.44,50.58,278.06,46.36,278.06,41.39z M316,116.7c0,2-1.67,3.62-3.73,3.62h-45.46
	c-2.06,0-3.73-1.63-3.73-3.62V71.74c0-1.35,0.64-2.59,1.76-3.4c0.77-0.55,1.67-0.84,2.59-0.84c0.42,0,0.85,0.06,1.27,0.18
	c13.64,3.97,28.06,3.97,41.7,0l0,0c1.33-0.39,2.74-0.15,3.86,0.66c1.12,0.81,1.76,2.04,1.76,3.4V116.7L316,116.7z"/>
<path class="st137" d="M1270.4,210.58c53.33,0.01,96.57-41.94,96.58-93.7s-43.22-93.72-96.55-93.72
	c-38.51-0.01-73.33,22.2-88.63,56.48c-0.1,0.22-0.29,0.39-0.53,0.47l0,0c-0.46,0.15-0.71,0.63-0.56,1.08l0.09,0.26
	c0.07,0.19,0.06,0.4-0.02,0.58c-19.81,47.87,4,102.3,53.29,121.7C1245.61,208.25,1257.95,210.58,1270.4,210.58z M1346.17,164.12
	l-4.71-4.57c-0.16-0.16-0.26-0.38-0.26-0.6V148.1c0.01-0.48-0.1-0.96-0.32-1.4l-12.46-24.15c-0.06-0.12-0.09-0.25-0.09-0.38v-11.56
	c0-1.04-0.54-2.02-1.43-2.6l-9.66-6.25c-0.76-0.49-1.69-0.65-2.58-0.43l-11.54,2.8c-0.19,0.05-0.38,0.03-0.56-0.04l-19.14-7.97
	c-0.28-0.12-0.48-0.37-0.52-0.66l-2.6-17.69c-0.04-0.27,0.05-0.53,0.25-0.72l7.01-6.8c0.16-0.16,0.39-0.25,0.62-0.25h15.43
	c0.29,0,0.57,0.14,0.73,0.38l5.21,7.6c0.49,0.72,1.27,1.21,2.15,1.35l19.31,3.12c0.52,0.08,1.05,0.04,1.54-0.12l17.07-5.52
	c0.41-0.13,0.86,0.04,1.06,0.42c14.55,27.66,12.84,60.76-4.53,86.88H1346.17z M1331.98,54.53l-4.02,2.6
	c-0.19,0.13-0.43,0.17-0.66,0.13l-14.18-2.75c-0.04-0.01-0.07-0.02-0.1-0.03l-9.41-3.04c-0.58-0.19-1.2-0.21-1.8-0.07l-11.72,2.84
	c-0.16,0.04-0.33,0.03-0.49-0.02l-4.05-1.31c-0.51-0.16-0.75-0.72-0.51-1.19l3.19-6.2c0.15-0.29,0.45-0.47,0.78-0.47h10.34
	c0.5,0,0.99-0.11,1.44-0.33l10.73-5.21c0.25-0.12,0.55-0.12,0.81,0.01c7.19,3.69,13.83,8.3,19.75,13.71
	C1332.5,53.58,1332.44,54.23,1331.98,54.53z M1234.7,36.57c0.27-0.12,0.59-0.09,0.84,0.07l7.33,4.74c0.38,0.25,0.81,0.41,1.26,0.48
	l14.59,2.36c0.53,0.09,0.86,0.61,0.69,1.11l-1.06,3.07c-0.09,0.25-0.29,0.45-0.55,0.54l-7.71,2.5c-0.73,0.24-1.35,0.71-1.74,1.35
	l-9.13,14.77c-0.07,0.12-0.18,0.22-0.3,0.29l-14.51,8.45c-0.1,0.06-0.21,0.1-0.33,0.11l-21.71,3.01c-1.59,0.22-2.77,1.53-2.77,3.09
	v9.37c0,0.83,0.34,1.62,0.94,2.21l5.24,5.08c0.16,0.16,0.26,0.38,0.26,0.6v3.42c0,0.68-0.78,1.08-1.36,0.71l-11.78-7.62
	c-0.16-0.1-0.28-0.26-0.35-0.44l-4.65-13.55c-0.07-0.2-0.06-0.42,0.03-0.62C1197.12,61.47,1213.82,45.37,1234.7,36.57z
	 M1225.98,138.8l-14.13-2.75c-0.26-0.05-0.49-0.22-0.61-0.45l-5.12-9.92c-0.06-0.12-0.09-0.25-0.09-0.38v-6.79
	c0-0.23,0.09-0.44,0.26-0.6l10.88-10.55c0.42-0.41,1.14-0.3,1.4,0.22l3.89,7.56c0.55,1.06,1.66,1.73,2.88,1.73h20.21
	c0.31,0,0.59,0.16,0.75,0.41l8.46,13.69c0.58,0.94,1.63,1.51,2.76,1.51h7.88c0.55,0,0.97,0.49,0.86,1.02l-1.99,9.68
	c-0.03,0.16-0.12,0.32-0.24,0.43l-12,11.64c-0.6,0.59-0.95,1.38-0.95,2.21v7.38c0,0.27-0.13,0.52-0.35,0.68l-10.89,7.92
	c-1.03,0.75-1.64,1.93-1.64,3.18v9.68c0,0.58-0.58,0.99-1.15,0.81l-2.46-0.79c-0.25-0.08-0.44-0.26-0.54-0.49l-5.44-13.2
	c-0.04-0.1-0.06-0.21-0.06-0.32v-30.47C1228.55,140.37,1227.48,139.09,1225.98,138.8z M1183.42,93.97c0.23-0.81,1.4-0.84,1.68-0.04
	l1.78,5.18c0.23,0.66,0.67,1.23,1.26,1.61l15.16,9.8c0.46,0.3,0.52,0.93,0.13,1.31l-2.9,2.82c-0.6,0.59-0.94,1.38-0.94,2.21v9.37
	c0,0.48,0.12,0.96,0.34,1.4l6.44,12.49c0.45,0.86,1.28,1.48,2.25,1.66l12.81,2.48c0.41,0.08,0.7,0.43,0.7,0.83v27.98
	c0,0.4,0.08,0.79,0.23,1.16l6.44,15.62c0.35,0.85,1.07,1.51,1.97,1.8l9.66,3.12c0.32,0.11,0.66,0.16,1,0.16
	c1.78,0,3.22-1.4,3.22-3.12V178.2c0-0.27,0.13-0.52,0.35-0.68l10.89-7.92c1.03-0.75,1.64-1.93,1.64-3.18v-7.3
	c0-0.23,0.09-0.44,0.26-0.6l11.67-11.33c0.45-0.44,0.75-0.99,0.88-1.6l3.22-15.62c0.35-1.69-0.78-3.34-2.53-3.68
	c-0.21-0.04-0.42-0.06-0.63-0.06h-10.56c-0.31,0-0.59-0.16-0.75-0.41l-8.46-13.69c-0.58-0.94-1.63-1.51-2.76-1.51h-20
	c-0.33,0-0.64-0.18-0.78-0.47l-5.29-10.3c-0.46-0.9-1.34-1.53-2.37-1.69c-1.02-0.17-2.07,0.16-2.79,0.87l-2.68,2.59
	c-0.55,0.53-1.5,0.15-1.5-0.6v-2.55c0-1.05-0.43-2.06-1.2-2.81l-4.98-4.83c-0.16-0.16-0.26-0.38-0.26-0.6v-4.28
	c0-0.42,0.32-0.78,0.75-0.84l19.02-2.64c0.42-0.06,0.83-0.2,1.2-0.42l16.09-9.37c0.45-0.26,0.83-0.63,1.1-1.07l8.88-14.36
	c0.11-0.17,0.28-0.3,0.47-0.37l8.22-2.66c0.96-0.31,1.72-1.04,2.03-1.97l3.22-9.37c0.56-1.64-0.36-3.4-2.05-3.95
	c-0.16-0.05-0.32-0.09-0.48-0.11l-18.44-2.98c-0.12-0.02-0.24-0.06-0.34-0.13l-1.59-1.03c-0.62-0.4-0.47-1.32,0.24-1.53
	c19.13-5.62,39.65-4.9,58.3,2.06c0.71,0.27,0.76,1.23,0.08,1.56l-3.94,1.91c-0.12,0.06-0.26,0.09-0.39,0.09h-11.91
	c-1.23-0.01-2.35,0.66-2.9,1.73L1277.15,53c-0.79,1.54-0.15,3.42,1.44,4.19c0.14,0.07,0.28,0.12,0.42,0.17l9.66,3.12
	c0.58,0.19,1.2,0.21,1.8,0.07l11.72-2.84c0.16-0.04,0.33-0.03,0.49,0.02l8.53,2.75c0.13,0.04,0.25,0.08,0.39,0.1l16.09,3.12
	c0.84,0.17,1.71,0,2.42-0.46l6.69-4.33c0.36-0.24,0.86-0.18,1.15,0.14c3.16,3.47,6.02,7.17,8.58,11.08c0.3,0.47,0.07,1.09-0.47,1.26
	l-14.57,4.71c-0.14,0.04-0.28,0.05-0.42,0.03l-16.56-2.68c-0.24-0.04-0.45-0.17-0.59-0.37l-5.45-7.94
	c-0.59-0.86-1.59-1.38-2.66-1.39h-19.31c-0.85,0-1.67,0.33-2.28,0.92l-9.66,9.37c-0.72,0.7-1.05,1.68-0.91,2.65l3.22,21.87
	c0.16,1.08,0.89,2,1.93,2.43l22.53,9.37c0.65,0.27,1.37,0.33,2.05,0.16l11.12-2.7c0.24-0.06,0.49-0.02,0.7,0.12l6.31,4.09
	c0.24,0.16,0.39,0.42,0.39,0.71v10.37c-0.01,0.48,0.1,0.96,0.32,1.4l12.46,24.15c0.06,0.12,0.09,0.25,0.09,0.38v11.56
	c0,0.83,0.34,1.62,0.94,2.21l6.19,6.01c0.31,0.3,0.35,0.78,0.08,1.12c-29.98,38.11-86.08,45.71-125.68,16.88
	C1186.71,165.27,1173.77,128.44,1183.42,93.97z"/>
<g class="st72">
	<path class="st4" d="M1061.3,36.48c-0.93,0-1.85-0.39-2.48-1.15c-1.11-1.33-0.89-3.28,0.48-4.35l16.12-12.65
		c1.18-0.93,2.86-0.92,4.03,0.02l13.8,11.04l14.09-11.06c1.18-0.93,2.86-0.92,4.03,0.02l13.8,11.04l14.09-11.06
		c1.18-0.93,2.86-0.92,4.03,0.02L1159.12,31c1.36,1.09,1.55,3.04,0.43,4.36c-1.12,1.32-3.13,1.51-4.49,0.42l-13.8-11.04
		l-14.09,11.06c-1.18,0.93-2.86,0.92-4.03-0.02l-13.8-11.04l-14.09,11.06c-1.18,0.93-2.86,0.92-4.03-0.02l-13.8-11.04l-14.09,11.06
		C1062.71,36.26,1062,36.48,1061.3,36.48z"/>
</g>
<g class="st72">
	<path class="st4" d="M1033.82,62.73c-0.93,0-1.85-0.39-2.48-1.15c-1.11-1.33-0.89-3.28,0.48-4.35l16.12-12.65
		c1.18-0.93,2.86-0.92,4.03,0.02l13.8,11.04l14.09-11.06c1.18-0.93,2.86-0.92,4.03,0.02l13.8,11.04l14.09-11.06
		c1.18-0.93,2.86-0.92,4.03,0.02l15.81,12.65c1.36,1.09,1.55,3.04,0.43,4.36c-1.12,1.32-3.13,1.51-4.49,0.42l-13.8-11.04
		l-14.09,11.06c-1.18,0.93-2.86,0.92-4.03-0.02l-13.8-11.04l-14.09,11.06c-1.18,0.93-2.86,0.92-4.03-0.02l-13.8-11.04l-14.09,11.06
		C1035.23,62.5,1034.52,62.73,1033.82,62.73z"/>
</g>
<path class="st137" d="M1142.41,141.34c1.42,0,2.76-0.27,4.03-0.82c4.03-1.72,6.72-5.36,6.72-9.34c0-5.36-4.6-9.54-10.47-9.54
	c-6.23,0-10.12,4.88-10.12,9.34C1132.58,134.33,1134.98,141.34,1142.41,141.34z"/>
<path class="st137" d="M1143.23,153.83c-1.09,0-2.13,0.21-3.12,0.64c-3.12,1.33-5.19,4.14-5.19,7.22c0,4.14,3.55,7.37,8.09,7.37
	c4.81,0,7.82-3.77,7.82-7.22C1150.83,159.24,1148.97,153.83,1143.23,153.83z"/>
<path class="st137" d="M1143.14,183.63c-0.82,0-1.61,0.16-2.35,0.48c-2.35,1-3.92,3.12-3.92,5.44c0,3.12,2.68,5.56,6.1,5.56
	c3.63,0,5.89-2.84,5.89-5.44C1148.87,187.71,1147.47,183.63,1143.14,183.63z"/>
<g class="st72">
	<path class="st4" d="M974.99,193.26c-0.83,0-1.65-0.31-2.28-0.92l-12.07-11.72c-1.69-1.64-2.61-3.81-2.61-6.12s0.93-4.49,2.61-6.12
		c1.68-1.64,3.93-2.54,6.31-2.54s4.62,0.9,6.31,2.54l1.74,1.69l1.75-1.7c1.69-1.64,3.93-2.54,6.31-2.54c2.38,0,4.62,0.9,6.31,2.54
		c1.69,1.63,2.61,3.81,2.61,6.12c0,2.31-0.93,4.49-2.61,6.12l-12.09,11.73C976.64,192.95,975.81,193.26,974.99,193.26z
		 M966.94,172.1c-0.66,0-1.28,0.25-1.74,0.7c-0.96,0.94-0.96,2.46,0,3.39l9.79,9.5l9.8-9.51c0.47-0.45,0.72-1.05,0.72-1.69
		c0-0.64-0.26-1.24-0.72-1.69c-0.96-0.93-2.53-0.94-3.49,0l-4.03,3.91c-0.61,0.59-1.43,0.92-2.28,0.92l0,0
		c-0.86,0-1.68-0.33-2.28-0.92l-4.02-3.9C968.22,172.35,967.6,172.1,966.94,172.1z"/>
</g>
<g class="st72">
	<g>
		<path class="st4" d="M557.45,119.57c-1.67,0-3.34-0.18-4.95-0.52c-5.88-1.26-9.78-4.56-11.92-10.09c-2.33-6-3.51-12.48-3.6-19.78
			c-0.57,0.04-1.14,0.07-1.7,0.11c-2.38,0.16-5.08,0.34-7.71,0.34c-1.41,0-2.69-0.05-3.92-0.15C514.5,88.7,508.43,85.28,505.1,79
			c-1.12-2.11-1.78-4.4-1.86-6.44c-0.28-7.3,2.34-13.8,4.33-18.06l1.02-2.19c0.09-0.19,0.25-0.33,0.45-0.41
			c0.09-0.03,0.19-0.05,0.28-0.05c0.11,0,0.23,0.02,0.33,0.07l2.25,0.99c1.28,0.57,2.54,1.14,3.78,1.72
			c2.73,1.26,5.28,2.44,7.9,3.37l0.91,0.32c3.75,1.34,7.63,2.73,11.35,3.13c0.79,0.08,1.5,0.13,2.11,0.13
			c1.81,0,2.25-0.36,2.25-0.37c0.13-0.16,0.41-0.96-0.21-4.59c-1.23-7.31-2.93-14.71-4.56-21.87l-0.81-3.54
			c-0.66-2.92,0.39-5.13,3.04-6.4c5.36-2.55,11.03-3.84,16.87-3.84c2.43,0,4.92,0.23,7.4,0.67c2.52,0.45,4.88,1.1,7.38,1.79
			l0.29,0.08c0.99,0.27,1.99,0.55,3.01,0.81l2.41,0.62c0.21,0.05,0.38,0.18,0.49,0.36c0.11,0.18,0.13,0.39,0.08,0.59l-1.86,6.61
			c-0.89,3.14-1.73,6.11-2.53,9.13c-1.32,4.97-2.58,10.05-3.79,14.97l-0.1,0.4c-0.01,0.08,0,0.43,0,0.6l0.01,0.42
			c0,0.7,0.08,1.13,0.15,1.38c0.21-0.03,0.52-0.11,0.94-0.27c4.75-1.79,9.47-3.91,14.04-6.29c2.29-1.19,4.48-2.68,6.8-4.25
			c1.09-0.74,2.19-1.49,3.32-2.22l2.43-1.57c0.13-0.09,0.29-0.13,0.44-0.13c0.07,0,0.15,0.01,0.22,0.03
			c0.23,0.06,0.41,0.22,0.51,0.43l1.19,2.59c2.38,5.16,3.74,10.28,4.06,15.2c0.22,3.47-0.1,7.01-0.93,10.24
			c-1.62,6.32-6.41,10.34-14.63,12.29c-4.44,1.05-9.06,1.56-14.13,1.56c-1.89,0-3.87-0.07-5.89-0.22c0.44,1.91,0.89,3.69,1.74,4.95
			c2.16,3.23,4.72,6.38,7.19,9.43c1.06,1.31,2.13,2.62,3.17,3.95l2.39,3.05c0.23,0.29,0.21,0.69-0.03,0.97l-1.27,1.47
			c-2.85,3.28-6.6,5.63-11.47,7.18C564.9,118.61,561.37,119.57,557.45,119.57z M543.51,88.83c0.06,6.67,1.1,12.53,3.19,17.89
			c1.36,3.5,3.52,5.34,7.21,6.13c1.13,0.24,2.31,0.37,3.52,0.37c3.02,0,5.78-0.75,8.07-1.48c2.72-0.86,4.91-2,6.68-3.45
			c-0.85-1.07-1.71-2.14-2.58-3.2c-2.56-3.15-5.2-6.42-7.53-9.89c-1.56-2.33-2.16-4.95-2.74-7.48l-0.04-0.17
			c-0.1-0.43-0.2-0.86-0.3-1.28c-0.41-1.63-0.06-3.15,0.96-4.3c0.96-1.07,2.4-1.66,4.07-1.66c0.23,0,0.46,0.01,0.69,0.03
			c2.42,0.22,4.78,0.33,6.99,0.33c4.55,0,8.67-0.45,12.59-1.38c5.8-1.37,8.83-3.73,9.84-7.65c0.67-2.61,0.93-5.48,0.75-8.31
			c-0.19-3.04-0.88-6.21-2.04-9.43c-2.32,1.58-4.72,3.2-7.32,4.55c-4.82,2.51-9.78,4.73-14.76,6.61c-1.29,0.49-2.5,0.73-3.6,0.73
			c-1.29,0-2.45-0.33-3.45-0.99c-1.94-1.28-2.93-3.54-2.95-6.72l-0.01-0.32c-0.01-0.58-0.03-1.38,0.18-2.23l0.1-0.4
			c1.22-4.94,2.49-10.04,3.82-15.06c0.81-3.05,1.66-6.05,2.56-9.23l0.34-1.21l-0.24-0.07c-2.35-0.65-4.57-1.26-6.78-1.65
			c-2.08-0.37-4.16-0.56-6.18-0.56c-4.65,0-9.17,0.99-13.46,2.93l0.71,3.12c1.66,7.26,3.37,14.75,4.63,22.22
			c0.64,3.8,1.01,7.42-1.51,10c-1.56,1.59-3.77,2.34-6.97,2.34c-0.86,0-1.81-0.05-2.84-0.16c-4.51-0.48-8.77-2-12.89-3.48
			l-0.91-0.32c-2.93-1.05-5.74-2.34-8.46-3.6l-0.63-0.29c-1.82,4.54-2.6,8.45-2.46,12.24c0.04,1.11,0.46,2.49,1.14,3.77
			c2.28,4.3,6.38,6.48,13.3,7.06c1.04,0.09,2.14,0.13,3.35,0.13c2.32,0,4.7-0.16,7.21-0.32l0.18-0.01c1.15-0.08,2.3-0.15,3.47-0.22
			l0.37-0.41c0.15-0.17,0.37-0.26,0.6-0.26c0.09,0,0.17,0.01,0.26,0.04l1.57,0.53c0.98,0.33,1.72,1.06,2.08,2.06l1.46,3
			c0.11,0.23,0.1,0.51-0.04,0.73c-0.14,0.22-0.38,0.36-0.64,0.38L543.51,88.83z"/>
	</g>
</g>
<g class="st72">
	<path class="st4" d="M510.95,129.93H496.1v-14.41c0-5.17-4.32-9.26-9.54-9.26h-11.38c-5.32,0-9.54,4.19-9.54,9.26v14.41h-14.85
		c-5.32,0-9.54,4.19-9.54,9.26v11.05c0,5.17,4.32,9.26,9.54,9.26h14.85v38.08c0,5.17,4.32,9.26,9.54,9.26h11.38
		c5.32,0,9.54-4.19,9.54-9.26V159.5h14.85c5.32,0,9.54-4.19,9.54-9.26v-11.05C520.49,134.02,516.17,129.93,510.95,129.93
		L510.95,129.93z M514.42,150.24c0,1.83-1.53,3.37-3.47,3.37h-17.89c-1.68,0-3.04,1.32-3.04,2.95v41.03c0,1.83-1.53,3.37-3.47,3.37
		h-11.38c-1.89,0-3.47-1.48-3.47-3.37v-41.03c0-1.63-1.36-2.95-3.04-2.95h-17.89c-1.89,0-3.47-1.48-3.47-3.37v-11.05
		c0-1.83,1.53-3.37,3.47-3.37h17.89c1.68,0,3.04-1.32,3.04-2.95v-17.36c0-1.83,1.53-3.37,3.47-3.37h11.38
		c1.89,0,3.47,1.48,3.47,3.37v17.36c0,1.63,1.36,2.95,3.04,2.95h17.89c1.89,0,3.47,1.48,3.47,3.37V150.24z M514.42,150.24"/>
</g>
<path class="st137" d="M641,212.75c-0.44,0-0.8-0.35-0.8-0.77v-6.77h-10.07v6.77c0,0.43-0.36,0.77-0.8,0.77h-29.16
	c-6.87,0-12.46-5.42-12.46-12.09v-29.77c0-5.77,2.13-11.36,6-15.74c3.67-4.16,8.71-6.9,14.27-7.78c-0.55-1.94-0.83-3.87-0.83-5.77
	v-22.16c0-6.72,3.39-13.03,9.06-16.89l6.77-4.6c3.59-2.44,7.8-3.73,12.18-3.73c4.38,0,8.6,1.29,12.18,3.73l6.77,4.6
	c5.67,3.86,9.06,10.17,9.06,16.89v22.16c0,1.89-0.28,3.83-0.83,5.77c5.56,0.88,10.6,3.62,14.27,7.78c3.87,4.38,6,9.97,6,15.74v29.77
	c0,6.67-5.59,12.09-12.46,12.09H641z M670.16,207.42c1.86,0,3.61-0.71,4.93-1.99c1.32-1.28,2.05-2.98,2.04-4.79v-25.64h-10.07v10.6
	c2.57,1.06,4.61,3.07,5.65,5.59l1.93,4.69c0.08,0.19,0.08,0.4-0.01,0.59c-0.08,0.19-0.24,0.34-0.44,0.41l-3.61,1.4
	c-0.1,0.04-0.2,0.06-0.3,0.06c-0.32,0-0.62-0.18-0.74-0.49l-1.93-4.69c-0.77-1.87-2.6-3.07-4.67-3.07h-17.27v17.32H670.16z
	 M593.19,200.65c0,3.73,3.13,6.77,6.98,6.77h24.48V190.1h-17.27c-2.07,0-3.91,1.21-4.68,3.07l-1.93,4.69
	c-0.12,0.3-0.42,0.49-0.74,0.49c-0.1,0-0.2-0.02-0.3-0.06l-3.61-1.4c-0.2-0.08-0.35-0.23-0.44-0.41c-0.08-0.19-0.09-0.4-0.01-0.59
	l1.93-4.69c1.04-2.52,3.08-4.53,5.65-5.59v-10.6h-10.07V200.65z M640.2,199.88v-9.77h-3.61c0.87,1.51,1.32,3.17,1.32,4.89
	c0,1.71-0.45,3.38-1.32,4.89H640.2z M630.13,199.06c1.41-0.89,2.29-2.41,2.29-4.07c0-1.66-0.89-3.18-2.29-4.07V199.06z
	 M661.59,184.78v-9.77H649.5c-0.38,2.14-2.31,3.77-4.62,3.77h-3.09v6H661.59z M636.31,184.78v-10.55c0-0.43,0.36-0.77,0.8-0.77h6.98
	v-2.23h-6.98c-0.44,0-0.8-0.35-0.8-0.77v-6.77h-2.29v6.77c0,0.43-0.36,0.77-0.8,0.77h-6.98v2.23h6.98c0.44,0,0.8,0.35,0.8,0.77
	v10.55H636.31z M628.54,184.78v-6h-3.09c-2.31,0-4.24-1.63-4.62-3.77h-12.08v9.77H628.54z M677.08,169.69
	c-0.27-4.08-1.89-7.99-4.63-11.08c-3.12-3.54-7.46-5.7-12.26-6.13c-1.64,2.81-3.9,5.26-6.55,7.1c-3.48,2.42-7.57,3.81-11.85,4.06
	v2.28h3.09c2.31,0,4.24,1.63,4.62,3.77H677.08z M620.83,169.69c0.38-2.14,2.31-3.77,4.62-3.77h3.09v-2.28
	c-4.29-0.25-8.37-1.65-11.85-4.06c-2.66-1.84-4.91-4.29-6.55-7.1c-4.8,0.43-9.14,2.59-12.26,6.13c-2.73,3.09-4.36,7-4.63,11.09
	H620.83z M638.28,158.37c1.8-1.07,3.47-2.37,4.93-3.86c-2.53,1.07-5.25,1.63-8.05,1.63c-2.79,0-5.52-0.56-8.04-1.63
	c1.46,1.48,3.12,2.79,4.93,3.85H638.28z M635.16,114.98c11.16,0,20.24,8.81,20.24,19.64v3.66c0,6.47-2.31,12.82-6.42,17.89
	c0.51-0.28,1-0.59,1.48-0.92c4.53-3.14,7.24-8.24,7.24-13.65v-22.16c0-4.99-2.51-9.67-6.72-12.53l-6.77-4.6
	c-2.66-1.81-5.79-2.77-9.04-2.77c-3.25,0-6.38,0.96-9.04,2.76l-6.77,4.6c-4.21,2.86-6.72,7.54-6.72,12.53v22.16
	c0,5.4,2.7,10.51,7.24,13.65c0.48,0.33,0.97,0.64,1.48,0.92c-4.12-5.07-6.42-11.42-6.42-17.89v-3.66
	C614.92,123.79,624,114.98,635.16,114.98z M635.17,120.3c-8.14,0-14.76,6.42-14.76,14.32v1.89c0,7.9,6.62,14.32,14.76,14.32
	s14.76-6.42,14.76-14.32v-1.89C649.92,126.72,643.3,120.3,635.17,120.3z"/>
<path class="st137" d="M870.43,13c-0.59-0.43-1.35-0.57-2.06-0.38l-33.25,9.13c-1.01,0.28-1.71,1.18-1.71,2.2v30.91
	c-1.39-0.78-2.99-1.23-4.71-1.23c-5.19,0-9.41,4.1-9.41,9.13s4.22,9.13,9.41,9.13s9.41-4.1,9.41-9.13c0-0.24,0-27.96,0-27.96
	l28.55-7.84v18.76c-1.39-0.78-2.99-1.23-4.71-1.23c-5.19,0-9.41,4.1-9.41,9.13s4.22,9.13,9.41,9.13s9.41-4.1,9.41-9.13
	c0-0.2,0-38.82,0-38.82C871.37,14.1,871.02,13.43,870.43,13z M828.7,67.34c-2.59,0-4.71-2.05-4.71-4.57s2.11-4.57,4.71-4.57
	s4.71,2.05,4.71,4.57S831.3,67.34,828.7,67.34z M838.11,30.07v-4.39l28.55-7.84v4.39L838.11,30.07z M861.95,58.2
	c-2.59,0-4.71-2.05-4.71-4.57s2.11-4.57,4.71-4.57c2.59,0,4.71,2.05,4.71,4.57S864.55,58.2,861.95,58.2z"/>
<path class="st137" d="M146.86,10.56c-0.79-0.2-1.64-0.03-2.28,0.47l-30.09,23.11c-0.92,0.7-1.24,1.91-0.79,2.96l13.56,31.7
	c-1.76-0.23-3.61-0.02-5.36,0.68c-5.32,2.14-7.85,8.09-5.64,13.25c2.21,5.16,8.34,7.62,13.66,5.48s7.85-8.09,5.64-13.25
	c-0.1-0.24-12.27-28.67-12.27-28.67l25.83-19.84l8.23,19.24c-1.76-0.23-3.61-0.02-5.36,0.68c-5.32,2.14-7.85,8.09-5.64,13.25
	s8.34,7.62,13.66,5.48c5.32-2.14,7.85-8.09,5.64-13.25c-0.09-0.21-17.03-39.8-17.03-39.8C148.3,11.31,147.65,10.76,146.86,10.56z
	 M127.91,83.52c-2.66,1.07-5.72-0.16-6.83-2.74c-1.1-2.58,0.16-5.55,2.82-6.63s5.72,0.16,6.83,2.74S130.57,82.45,127.91,83.52z
	 M121.21,41.42l-1.93-4.5l25.83-19.84l1.93,4.5L121.21,41.42z M158,60.41c-2.66,1.07-5.72-0.16-6.83-2.74
	c-1.1-2.58,0.16-5.55,2.82-6.63s5.72,0.16,6.83,2.74C161.92,56.37,160.66,59.34,158,60.41z"/>
<path class="st137" d="M57.22,146.16c2.11,2.05,5.54,2.05,7.65,0l38.28-37.15c2.11-2.05,2.11-5.38,0-7.43l-24.83-24.1
	c-1.01-0.99-2.39-1.54-3.83-1.54c-1.44,0-2.81,0.55-3.83,1.54l-38.28,37.15c-1.02,0.99-1.59,2.32-1.59,3.72
	c0,1.39,0.57,2.73,1.59,3.72L57.22,146.16z M74.5,81.2l24.82,24.09l-38.28,37.15l-24.83-24.09L74.5,81.2z M74.5,81.2"/>
<path class="st137" d="M66.79,125.73c0.04-0.04,0.06-0.08,0.1-0.12c0.85-0.94-2.27,2.67,17.32-20.14l1.73,1.68
	c0.68,0.67,1.68,0.93,2.62,0.68c0.94-0.24,1.67-0.95,1.92-1.86c0.25-0.91-0.01-1.87-0.7-2.54l-1.73-1.68
	c-1.08-1.04-2.55-1.6-4.07-1.53c-1.52,0.07-2.94,0.75-3.91,1.89l-12.4,14.45c-3.42-7.04-12.01-9.7-16.16-5.68
	c-3.22,3.13-2.37,8.84,1.92,13C57.18,127.56,63.22,129.18,66.79,125.73L66.79,125.73z M55.3,114.58c1.45-1.41,7.06,1.31,7.94,5.54
	c0.72,3.51-3.48,2.51-6.03,0.03C54.88,117.89,54.52,115.35,55.3,114.58L55.3,114.58z M55.3,114.58"/>
<path class="st137" d="M667.9,83.61c7.71-1.49,12.98-7.56,11.75-13.54l-7.67-37.47c5.64,2.2,11.81,2.79,17.78,1.69
	c1.54-0.3,2.55-1.75,2.24-3.25c-0.31-1.5-1.81-2.47-3.35-2.17c-0.14,0.03-14.65,2.67-18.65-5.55c-0.61-1.26-2.1-1.88-3.47-1.44
	c-1.37,0.44-2.18,1.8-1.9,3.16l7.67,37.48c-10.42-3.67-22.4,4.1-20.59,12.94C652.93,81.44,660.19,85.09,667.9,83.61L667.9,83.61z
	 M664.56,67.33c4.54-0.88,8.89,0.87,9.5,3.81c0.6,2.94-2.73,6.17-7.27,7.04c-4.54,0.88-8.89-0.87-9.49-3.81
	C656.69,71.43,660.02,68.21,664.56,67.33L664.56,67.33z M664.56,67.33"/>
<g class="st72">
	<path class="st4" d="M162.31,143.96c-0.62,0-1.18-0.21-1.66-0.62c-0.46-0.39-0.77-0.9-0.92-1.51c-0.1-0.23-0.15-0.54-0.01-0.96
		c0.02-0.06,0.04-0.12,0.05-0.16c-0.01-0.32,0.16-0.6,0.33-0.84l0.27-0.4l0.31-0.37c0.2-0.23,0.31-0.35,0.4-0.44
		c0.21-0.23,0.64-0.69,1.27-1.37l1.46-1.55c0.27-0.29,0.69-0.81,1.25-1.55c0.55-0.73,0.99-1.39,1.3-1.98
		c0.32-0.6,0.7-1.39,1.11-2.35c0.33-0.77,0.63-1.58,0.89-2.44c-4.23-2.42-7.64-5.41-10.13-8.91c-2.62-3.68-3.95-7.69-3.95-11.91
		c0-4.9,1.76-9.48,5.23-13.62c3.43-4.1,8.15-7.37,14.03-9.74c5.85-2.36,12.32-3.55,19.24-3.55c6.91,0,13.39,1.19,19.24,3.55
		c5.87,2.37,10.59,5.64,14.03,9.74c3.47,4.14,5.23,8.72,5.23,13.62c0,4.9-1.76,9.48-5.23,13.61c-3.43,4.09-8.15,7.37-14.03,9.74
		c-5.84,2.36-12.32,3.55-19.24,3.55c-1.88,0-3.84-0.1-5.83-0.29c-5.56,4.7-12.1,8.01-19.42,9.83c-1.38,0.38-3.04,0.69-4.9,0.92
		l-0.05,0.01H162.31z M192.77,86.47c-5.59,0-10.89,0.94-15.76,2.79c-4.83,1.84-8.72,4.34-11.56,7.45c-2.78,3.05-4.19,6.38-4.19,9.9
		c0,2.87,0.96,5.66,2.86,8.27c1.93,2.66,4.69,4.99,8.22,6.94l4.2,2.34l-1.3,4.5c-0.49,1.79-1.14,3.53-1.95,5.2
		c3.36-1.57,6.48-3.56,9.28-5.95l2.07-1.78l2.75,0.28c1.92,0.21,3.73,0.32,5.39,0.32c5.59,0,10.9-0.94,15.76-2.79
		c4.83-1.84,8.72-4.34,11.56-7.45c2.78-3.05,4.2-6.38,4.2-9.9c0-3.52-1.41-6.85-4.2-9.9c-2.83-3.1-6.72-5.61-11.56-7.45
		C203.67,87.41,198.36,86.47,192.77,86.47z"/>
	<path class="st4" d="M225.41,93.47c-3.36-4.01-7.94-7.18-13.71-9.51c-5.78-2.33-12.09-3.49-18.93-3.49
		c-6.84,0-13.15,1.17-18.93,3.49c-5.78,2.33-10.35,5.5-13.72,9.51c-3.37,4.02-5.05,8.39-5.05,13.13c0,4.08,1.27,7.91,3.81,11.47
		c2.54,3.57,6.01,6.56,10.41,8.98c-0.31,1.09-0.67,2.12-1.09,3.1c-0.42,0.98-0.8,1.78-1.14,2.41c-0.33,0.63-0.79,1.32-1.37,2.08
		c-0.58,0.76-1.01,1.3-1.3,1.61c-0.3,0.31-0.78,0.83-1.45,1.55c-0.67,0.72-1.11,1.19-1.3,1.41c-0.03,0.02-0.14,0.14-0.34,0.37
		c-0.19,0.23-0.29,0.35-0.29,0.35l-0.25,0.37c-0.14,0.2-0.2,0.33-0.19,0.39c0.01,0.06-0.01,0.19-0.08,0.41
		c-0.07,0.22-0.06,0.38,0.02,0.49v0.04c0.11,0.46,0.34,0.84,0.67,1.12c0.34,0.29,0.72,0.43,1.14,0.43h0.21
		c1.83-0.22,3.42-0.52,4.8-0.9c7.35-1.82,13.8-5.12,19.35-9.88c2.1,0.22,4.14,0.33,6.1,0.33c6.85,0,13.16-1.16,18.93-3.49
		c5.78-2.33,10.35-5.5,13.71-9.51c3.37-4.01,5.05-8.39,5.05-13.13C230.46,101.86,228.78,97.49,225.41,93.47L225.41,93.47z
		 M220.68,117.01c-2.93,3.21-6.89,5.76-11.86,7.65c-4.98,1.89-10.33,2.84-16.05,2.84c-1.71,0-3.53-0.11-5.47-0.33l-2.4-0.24
		l-1.81,1.55c-3.45,2.94-7.3,5.27-11.57,6.98c1.29-2.2,2.27-4.55,2.95-7.02l1.13-3.92l-3.66-2.04c-3.65-2.01-6.47-4.4-8.48-7.17
		c-2.01-2.76-3.01-5.67-3.01-8.72c0-3.73,1.46-7.2,4.39-10.41c2.93-3.21,6.89-5.76,11.87-7.65c4.98-1.89,10.33-2.84,16.05-2.84
		c5.72,0,11.07,0.94,16.05,2.84c4.98,1.89,8.93,4.44,11.86,7.66c2.93,3.21,4.4,6.68,4.4,10.41
		C225.08,110.33,223.61,113.8,220.68,117.01L220.68,117.01z M220.68,117.01"/>
</g>
<path class="st137" d="M1038.64,205.09c-5.76,0-10.44-4.55-10.44-10.13v-47.77c0-3.44,1.63-6.6,4.48-8.65
	c1.94-1.4,4.22-2.14,6.6-2.14c1.08,0,2.17,0.16,3.23,0.46c5.4,1.57,10.97,2.51,16.57,2.8c0.01,0,0.03,0,0.04,0
	c0.2,0,0.4-0.08,0.55-0.21c0.16-0.15,0.25-0.35,0.25-0.56v-5.39c0-0.37-0.27-0.69-0.65-0.76c-8.77-1.63-15.14-9.11-15.14-17.78
	c0-3.99,2.55-9.54,7.8-16.94c3.83-5.4,7.82-9.96,8.59-10.82c0.57-0.64,1.4-1.01,2.27-1.01s1.71,0.37,2.28,1.02
	c0.76,0.86,4.76,5.43,8.59,10.82c5.25,7.41,7.8,12.95,7.8,16.94c0,8.7-6.4,16.19-15.21,17.8c-0.38,0.07-0.65,0.39-0.65,0.76v5.38
	c0,0.21,0.09,0.41,0.25,0.56c0.15,0.14,0.35,0.21,0.55,0.21c0.01,0,0.03,0,0.04,0c5.62-0.28,11.23-1.23,16.65-2.8
	c1.06-0.31,2.14-0.46,3.23-0.46c2.38,0,4.66,0.74,6.6,2.14c2.85,2.05,4.48,5.21,4.48,8.65v47.77c0,5.59-4.68,10.13-10.44,10.13
	H1038.64z M1039.29,141.92c-1.16,0-2.28,0.36-3.23,1.05c-1.39,1-2.19,2.54-2.19,4.23v47.77c0,2.55,2.14,4.62,4.76,4.62h48.29
	c2.63,0,4.76-2.07,4.76-4.62v-47.77c0-1.68-0.8-3.22-2.19-4.23c-0.95-0.68-2.06-1.05-3.23-1.05c-0.53,0-1.06,0.08-1.57,0.23
	c-7.14,2.08-14.51,3.13-21.92,3.13c-7.41,0-14.78-1.05-21.92-3.13C1040.35,142,1039.82,141.92,1039.29,141.92z M1062.75,118.66
	c1.57,0,2.84,1.24,2.84,2.76v4.84c0,0.25,0.12,0.48,0.32,0.62c0.14,0.1,0.3,0.15,0.47,0.15c0.08,0,0.16-0.01,0.24-0.03
	c5.47-1.65,9.14-6.48,9.14-12.04c0-4.54-6.39-13.87-12.36-21.08c-0.15-0.18-0.38-0.29-0.62-0.29s-0.47,0.11-0.62,0.29
	c-5.98,7.21-12.36,16.53-12.36,21.08c0,5.52,3.65,10.35,9.07,12.01c0.08,0.02,0.16,0.04,0.24,0.04c0.17,0,0.33-0.05,0.47-0.15
	c0.21-0.15,0.33-0.38,0.33-0.62v-4.82C1059.91,119.9,1061.18,118.66,1062.75,118.66z"/>
<path class="st137" d="M949.8,142.27c-5.76,0-10.44-4.55-10.44-10.13V84.37c0-3.44,1.63-6.6,4.48-8.65c1.94-1.4,4.22-2.14,6.6-2.14
	c1.08,0,2.17,0.16,3.23,0.46c5.39,1.57,10.97,2.51,16.57,2.8c0.01,0,0.03,0,0.04,0c0.2,0,0.4-0.08,0.55-0.21
	c0.16-0.15,0.25-0.35,0.25-0.56v-5.39c0-0.37-0.27-0.69-0.65-0.76c-8.77-1.63-15.14-9.11-15.14-17.78c0-3.99,2.55-9.54,7.8-16.95
	c3.81-5.37,7.82-9.96,8.59-10.82c0.57-0.64,1.4-1.01,2.27-1.01c0.88,0,1.71,0.37,2.28,1.01c0.77,0.87,4.78,5.46,8.58,10.82
	c5.25,7.41,7.8,12.95,7.8,16.95c0,8.7-6.4,16.19-15.21,17.8c-0.38,0.07-0.65,0.39-0.65,0.76v5.38c0,0.21,0.09,0.41,0.25,0.56
	c0.15,0.14,0.35,0.21,0.55,0.21c0.01,0,0.03,0,0.04,0c5.62-0.28,11.22-1.23,16.65-2.8c1.06-0.31,2.14-0.46,3.23-0.46
	c2.38,0,4.66,0.74,6.6,2.14c2.85,2.05,4.48,5.21,4.48,8.65v47.77c0,5.59-4.68,10.13-10.44,10.13H949.8z M950.46,79.09
	c-1.16,0-2.28,0.36-3.23,1.05c-1.39,1-2.19,2.55-2.19,4.23v47.77c0,2.55,2.14,4.62,4.76,4.62h48.29c2.63,0,4.76-2.07,4.76-4.62
	V84.37c0-1.68-0.8-3.22-2.19-4.23c-0.95-0.68-2.06-1.05-3.23-1.05c-0.53,0-1.06,0.08-1.57,0.23c-7.14,2.08-14.51,3.13-21.92,3.13
	c-7.41,0-14.78-1.05-21.92-3.13C951.51,79.17,950.98,79.09,950.46,79.09z M973.91,55.84c1.57,0,2.84,1.24,2.84,2.76v4.84
	c0,0.25,0.12,0.48,0.32,0.62c0.14,0.1,0.3,0.15,0.47,0.15c0.08,0,0.16-0.01,0.24-0.03c5.47-1.65,9.14-6.48,9.14-12.04
	c0-4.54-6.39-13.87-12.36-21.08c-0.15-0.18-0.38-0.29-0.62-0.29c-0.24,0-0.47,0.11-0.62,0.29c-5.98,7.21-12.36,16.53-12.36,21.08
	c0,5.52,3.65,10.35,9.07,12.02c0.08,0.02,0.16,0.04,0.24,0.04c0.17,0,0.33-0.05,0.47-0.15c0.21-0.15,0.33-0.38,0.33-0.62v-4.82
	C971.07,57.08,972.35,55.84,973.91,55.84z"/>
<path class="st137" d="M894.35,109.13c-10.17,0-18.44-8.03-18.44-17.89c0-9.87,8.27-17.89,18.44-17.89s18.44,8.03,18.44,17.89
	C912.79,101.1,904.52,109.13,894.35,109.13z M894.35,79.26c-6.8,0-12.34,5.37-12.34,11.97c0,6.6,5.53,11.97,12.34,11.97
	c6.8,0,12.34-5.37,12.34-11.97C906.69,84.63,901.15,79.26,894.35,79.26z"/>
<path class="st137" d="M865.53,217.94c-5.92,0-10.74-4.68-10.74-10.43c0-1.93,0.56-3.84,1.62-5.5l25.13-39.12
	c0.08-0.12,0.12-0.27,0.12-0.41v-25.2c0-0.43-0.36-0.77-0.8-0.77h-23.02c-5.92,0-10.74-4.68-10.74-10.43V98.7
	c0-5.75,4.82-10.43,10.74-10.43c5.92,0,10.74,4.68,10.74,10.43v16.18c0,0.43,0.36,0.77,0.8,0.77h30.71
	c10.17,0,18.44,8.03,18.44,17.89v29.87c0,4.78-1.92,9.28-5.41,12.66l-20.29,19.69c-0.23,0.22-0.3,0.55-0.17,0.84
	c0.12,0.29,0.41,0.48,0.74,0.48h37.47c5.92,0,10.74,4.68,10.74,10.43c0,5.75-4.82,10.43-10.74,10.43H865.53z M857.83,94.19
	c-2.56,0-4.64,2.02-4.64,4.51v27.38c0,2.49,2.08,4.51,4.64,4.51h26.87c1.68,0,3.05,1.33,3.05,2.96v29.82l0,0.15
	c0,0.56-0.16,1.11-0.46,1.59l-25.7,40.02c-0.47,0.74-0.7,1.54-0.7,2.38c0,2.49,2.08,4.51,4.64,4.51h65.33
	c2.56,0,4.64-2.02,4.64-4.51c0-2.49-2.08-4.51-4.64-4.51H884.1c-1.24,0-2.34-0.72-2.82-1.83c-0.47-1.11-0.21-2.38,0.66-3.22
	l26.86-26.07c2.33-2.26,3.62-5.27,3.62-8.47v-29.87c0-6.6-5.54-11.97-12.34-11.97h-34.56c-1.68,0-3.05-1.33-3.05-2.96V98.7
	C862.48,96.21,860.4,94.19,857.83,94.19z"/>
<linearGradient id="SVGID_2_" gradientUnits="userSpaceOnUse" x1="3659.1125" y1="869.1816" x2="5066.1406" y2="696.4203" gradientTransform="matrix(-1 0 0 -1 5062.6265 897.8009)">
	<stop  offset="0" style="stop-color:#6C2018"/>
	<stop  offset="1" style="stop-color:#E02B34"/>
</linearGradient>
<polygon style="opacity:0.9;fill:url(#SVGID_2_);" points="0,230 1400,230 1400,0 0,0 "/>
<g>
	<path class="st4" d="M54.3,189.05c0,3-1.14,5.37-3.4,7.12c-2.27,1.75-5.29,2.63-9.05,2.63c-4.52,0-7.99-0.48-10.4-1.45v-2.5
		c2.67,1.1,6.07,1.65,10.2,1.65c3.04,0,5.45-0.68,7.23-2.03c1.78-1.35,2.67-3.12,2.67-5.32c0-1.36-0.3-2.48-0.89-3.38
		c-0.59-0.89-1.55-1.71-2.89-2.44c-1.33-0.74-3.29-1.53-5.87-2.38c-3.78-1.26-6.39-2.62-7.83-4.09c-1.44-1.47-2.16-3.42-2.16-5.86
		c0-2.69,1.08-4.88,3.25-6.57c2.17-1.7,4.96-2.54,8.36-2.54c3.48,0,6.74,0.64,9.79,1.92l-0.94,2.16c-3.07-1.24-6.01-1.87-8.81-1.87
		c-2.73,0-4.91,0.61-6.53,1.84c-1.62,1.23-2.43,2.9-2.43,5.01c0,1.33,0.25,2.42,0.75,3.27c0.5,0.85,1.31,1.62,2.44,2.3
		c1.13,0.68,3.07,1.5,5.82,2.44c2.89,0.97,5.05,1.9,6.5,2.81c1.45,0.91,2.51,1.94,3.18,3.09C53.96,186.02,54.3,187.42,54.3,189.05z"
		/>
	<path class="st4" d="M73.25,198.81c-4.24,0-7.32-1.54-9.26-4.62h-0.18l0.08,2.06c0.07,1.21,0.1,2.54,0.1,3.98v10.17h-2.51v-38.78
		h2.13l0.48,3.81h0.15c1.89-2.88,4.91-4.32,9.06-4.32c3.71,0,6.54,1.18,8.49,3.55c1.95,2.37,2.92,5.81,2.92,10.33
		c0,4.39-1.03,7.79-3.08,10.21C79.59,197.6,76.8,198.81,73.25,198.81z M73.2,196.64c2.82,0,5-1.02,6.54-3.05
		c1.54-2.03,2.32-4.87,2.32-8.52c0-7.84-2.92-11.77-8.76-11.77c-3.21,0-5.56,0.86-7.06,2.57c-1.5,1.71-2.25,4.5-2.25,8.36v0.79
		c0,4.18,0.72,7.16,2.16,8.94C67.6,195.75,69.95,196.64,73.2,196.64z"/>
	<path class="st4" d="M115.09,184.93c0,4.36-1.09,7.76-3.26,10.21c-2.18,2.45-5.18,3.67-9.01,3.67c-2.41,0-4.54-0.56-6.38-1.69
		s-3.25-2.75-4.23-4.86c-0.98-2.11-1.47-4.55-1.47-7.32c0-4.36,1.09-7.75,3.26-10.18c2.18-2.43,5.16-3.65,8.96-3.65
		c3.78,0,6.75,1.23,8.9,3.7S115.09,180.64,115.09,184.93z M93.37,184.93c0,3.67,0.83,6.53,2.49,8.58c1.66,2.05,4.01,3.08,7.05,3.08
		c3.04,0,5.39-1.03,7.05-3.08c1.66-2.05,2.49-4.92,2.49-8.58c0-3.68-0.84-6.54-2.52-8.57c-1.68-2.03-4.04-3.05-7.07-3.05
		c-3.04,0-5.38,1.01-7.02,3.03C94.2,178.37,93.37,181.23,93.37,184.93z"/>
	<path class="st4" d="M129.97,196.64c1.59,0,2.97-0.13,4.15-0.39v1.96c-1.21,0.39-2.62,0.59-4.2,0.59c-2.43,0-4.22-0.63-5.38-1.89
		c-1.16-1.26-1.73-3.24-1.73-5.94v-17.24h-4.07v-1.42l4.07-1.11l1.27-6.04h1.29v6.46h8.07v2.11h-8.07v16.9
		c0,2.05,0.37,3.56,1.11,4.54C127.22,196.15,128.39,196.64,129.97,196.64z"/>
	<path class="st4" d="M142.53,186.6l14.05-14.98h3.04l-10.83,11.4l11.77,15.3h-3.01l-10.45-13.49l-4.51,3.98v9.51h-2.51v-38.22h2.51
		v19.16l-0.18,7.34H142.53z"/>
	<path class="st4" d="M181.86,198.31l-0.63-4.22h-0.2c-1.38,1.72-2.81,2.94-4.26,3.65s-3.19,1.07-5.18,1.07
		c-2.7,0-4.8-0.67-6.3-2.01c-1.5-1.34-2.25-3.2-2.25-5.58c0-2.6,1.12-4.63,3.35-6.07c2.24-1.44,5.47-2.2,9.71-2.28l5.24-0.15v-1.77
		c0-2.54-0.53-4.45-1.59-5.75s-2.78-1.94-5.14-1.94c-2.55,0-5.19,0.69-7.92,2.06l-0.94-2.11c3.02-1.38,6.01-2.06,8.96-2.06
		c3.02,0,5.28,0.76,6.77,2.28c1.49,1.52,2.24,3.9,2.24,7.12v17.76H181.86z M171.73,196.59c2.94,0,5.25-0.81,6.95-2.44
		c1.7-1.63,2.54-3.89,2.54-6.79v-2.63l-4.81,0.2c-3.86,0.18-6.62,0.77-8.26,1.76c-1.65,0.99-2.47,2.53-2.47,4.63
		c0,1.67,0.53,2.97,1.58,3.89C168.32,196.13,169.81,196.59,171.73,196.59z"/>
	<path class="st4" d="M211.8,198.31V181c0-2.69-0.58-4.64-1.75-5.86s-2.97-1.83-5.42-1.83c-3.29,0-5.7,0.81-7.23,2.42
		c-1.53,1.61-2.29,4.23-2.29,7.85v14.74h-2.51v-26.7h2.13l0.48,3.66h0.15c1.79-2.78,4.97-4.18,9.54-4.18c6.24,0,9.36,3.25,9.36,9.75
		v17.46H211.8z"/>
	<path class="st4" d="M222.84,164.2c0-1.57,0.53-2.36,1.59-2.36c0.52,0,0.93,0.21,1.23,0.61c0.29,0.41,0.44,0.99,0.44,1.74
		c0,0.74-0.15,1.32-0.44,1.74c-0.3,0.43-0.7,0.64-1.23,0.64C223.37,166.58,222.84,165.79,222.84,164.2z M225.7,198.31h-2.51v-26.7
		h2.51V198.31z"/>
	<path class="st4" d="M251.61,198.31l-0.63-4.22h-0.2c-1.38,1.72-2.81,2.94-4.26,3.65s-3.19,1.07-5.18,1.07
		c-2.7,0-4.8-0.67-6.3-2.01c-1.5-1.34-2.25-3.2-2.25-5.58c0-2.6,1.12-4.63,3.35-6.07c2.24-1.44,5.47-2.2,9.71-2.28l5.24-0.15v-1.77
		c0-2.54-0.53-4.45-1.59-5.75s-2.78-1.94-5.14-1.94c-2.55,0-5.19,0.69-7.92,2.06l-0.94-2.11c3.02-1.38,6.01-2.06,8.96-2.06
		c3.02,0,5.28,0.76,6.77,2.28c1.49,1.52,2.24,3.9,2.24,7.12v17.76H251.61z M241.49,196.59c2.94,0,5.25-0.81,6.95-2.44
		c1.7-1.63,2.54-3.89,2.54-6.79v-2.63l-4.81,0.2c-3.86,0.18-6.62,0.77-8.26,1.76c-1.65,0.99-2.47,2.53-2.47,4.63
		c0,1.67,0.53,2.97,1.58,3.89C238.08,196.13,239.56,196.59,241.49,196.59z"/>
	<path class="st4" d="M290.16,198.31h-7.85v-29.57h-10.05v-6.34h27.94v6.34h-10.05V198.31z"/>
	<path class="st4" d="M323.27,198.31l-1.49-3.73h-0.2c-1.3,1.59-2.64,2.69-4.01,3.3c-1.38,0.61-3.17,0.92-5.38,0.92
		c-2.72,0-4.86-0.75-6.42-2.26c-1.56-1.51-2.34-3.65-2.34-6.44c0-2.91,1.05-5.06,3.15-6.45s5.27-2.15,9.5-2.3l4.91-0.15v-1.2
		c0-2.78-1.47-4.18-4.4-4.18c-2.26,0-4.92,0.66-7.97,1.99l-2.56-5.06c3.26-1.65,6.87-2.48,10.83-2.48c3.8,0,6.71,0.8,8.73,2.41
		c2.02,1.61,3.04,4.04,3.04,7.32v18.3H323.27z M320.99,185.59l-2.99,0.1c-2.24,0.07-3.91,0.46-5.01,1.18
		c-1.1,0.72-1.65,1.82-1.65,3.29c0,2.11,1.25,3.17,3.75,3.17c1.79,0,3.22-0.5,4.29-1.5c1.07-1,1.61-2.33,1.61-3.98V185.59z"/>
	<path class="st4" d="M336.27,163.75c0-2.44,1.4-3.66,4.2-3.66c2.8,0,4.2,1.22,4.2,3.66c0,1.16-0.35,2.07-1.05,2.71
		c-0.7,0.65-1.75,0.97-3.15,0.97C337.67,167.44,336.27,166.21,336.27,163.75z M344.32,198.31h-7.72v-27.46h7.72V198.31z"/>
	<path class="st4" d="M372.11,198.31h-22.35v-4.42l13.11-17.32h-12.33v-5.72h21.11v4.86l-12.76,16.88h13.21V198.31z"/>
	<path class="st4" d="M390.51,198.81c-4.56,0-8.12-1.22-10.68-3.66c-2.56-2.44-3.85-5.89-3.85-10.37c0-4.6,1.19-8.16,3.56-10.67
		c2.37-2.51,5.65-3.77,9.83-3.77c4,0,7.11,1.11,9.34,3.32c2.23,2.21,3.34,5.26,3.34,9.16v3.64h-18.25c0.08,2.13,0.73,3.79,1.95,4.99
		c1.21,1.2,2.92,1.79,5.11,1.79c1.7,0,3.32-0.17,4.83-0.52c1.52-0.34,3.1-0.89,4.76-1.65v5.8c-1.35,0.66-2.79,1.14-4.33,1.46
		C394.6,198.65,392.72,198.81,390.51,198.81z M389.43,175.67c-1.64,0-2.92,0.5-3.85,1.51c-0.93,1.01-1.46,2.44-1.59,4.29h10.83
		c-0.03-1.85-0.53-3.28-1.49-4.29C392.36,176.17,391.06,175.67,389.43,175.67z"/>
</g>
</svg>
