<?xml version="1.0" encoding="utf-8"?>
<!-- Generator: Adobe Illustrator 24.2.1, SVG Export Plug-In . SVG Version: 6.00 Build 0)  -->
<svg version="1.1" id="Warstwa_1" xmlns="http://www.w3.org/2000/svg" xmlns:xlink="http://www.w3.org/1999/xlink" x="0px" y="0px"
	 viewBox="0 0 400 400" style="enable-background:new 0 0 400 400;" xml:space="preserve">
<style type="text/css">
	.st0{opacity:0.8;fill:url(#SVGID_1_);}
	.st1{fill:#FFFFFF;}
	.st2{opacity:0.8;fill:url(#SVGID_2_);}
	.st3{fill:url(#SVGID_3_);}
	.st4{fill:url(#SVGID_4_);}
	.st5{fill:url(#SVGID_5_);}
	.st6{fill:url(#SVGID_6_);}
	.st7{fill:url(#SVGID_7_);}
	.st8{fill:url(#SVGID_8_);}
	.st9{fill:url(#SVGID_9_);}
	.st10{fill:url(#SVGID_10_);}
	.st11{fill:url(#SVGID_11_);}
	.st12{fill:url(#SVGID_12_);}
	.st13{fill:url(#SVGID_13_);}
	.st14{fill:url(#SVGID_14_);}
	.st15{fill:url(#SVGID_15_);}
	.st16{fill:url(#SVGID_16_);}
	.st17{fill:url(#SVGID_17_);}
	.st18{fill:url(#SVGID_18_);}
	.st19{fill:url(#SVGID_19_);}
	.st20{fill:url(#SVGID_20_);}
	.st21{fill:url(#SVGID_21_);}
	.st22{fill:url(#SVGID_22_);}
	.st23{fill:url(#SVGID_23_);}
	.st24{fill:url(#SVGID_24_);}
	.st25{fill:url(#SVGID_25_);}
	.st26{opacity:0.8;fill:url(#SVGID_26_);}
	.st27{fill:url(#SVGID_27_);}
	.st28{fill:url(#SVGID_28_);}
	.st29{opacity:0.8;fill:url(#SVGID_29_);}
	.st30{opacity:0.9;}
	.st31{fill:url(#SVGID_30_);}
	.st32{opacity:0.8;fill:url(#SVGID_31_);}
	.st33{opacity:0.8;}
	.st34{fill:url(#SVGID_32_);}
	.st35{opacity:0.8;fill:url(#SVGID_33_);}
	.st36{fill:url(#SVGID_34_);}
	.st37{fill:url(#SVGID_35_);}
	.st38{opacity:0.9;fill:url(#SVGID_36_);}
</style>
<linearGradient id="SVGID_1_" gradientUnits="userSpaceOnUse" x1="25" y1="200" x2="375" y2="200">
	<stop  offset="0" style="stop-color:#6C150B"/>
	<stop  offset="1" style="stop-color:#D0322A"/>
</linearGradient>
<circle style="fill:url(#SVGID_1_);" cx="200" cy="200" r="175"/>
<path class="st1" d="M102.33,133.63c-2.4,1-3.97,3.34-3.97,5.94v19.28c0,10.07,3.36,19.38,9.02,26.88
	c4.88,23.66,23.22,42.53,46.87,48.38c-14.61,8.98-33.23,14.72-49.46,14.72c-2.44,0-4.66,1.38-5.75,3.56
	c-1.09,2.18-0.85,4.79,0.61,6.73l38.99,51.84c2.58,3.44,7.75,3.42,10.3-0.04l23.64-31.94c8.12-10.83,21.05-17.3,34.59-17.3
	c37.21,0,58.61-16.64,58.72-45.65c0.06-17.58,10.47-23.75,25.71-29.02v16.83c0,3.55,2.88,6.43,6.43,6.43c3.55,0,6.43-2.88,6.43-6.43
	v-22.67c0-16.53-3.38-32.33-8.22-45.19c11.55-5.49,17.48-18.89,13.33-31.33l-2.03-6.1c-1.12-3.37-4.76-5.19-8.13-4.07l-6.1,2.03
	c-7.28,2.43-12.75,7.81-15.53,14.38c-6.16-3.58-13.77-4.61-21.05-2.19l-6.1,2.03c-3.37,1.12-5.19,4.76-4.06,8.13l2.03,6.1
	c4.5,13.49,19.11,20.73,32.52,16.26l2.99-1c1.96,5.16,3.54,10.42,4.74,15.76c-1.52-1.18-3.11-2.27-4.76-3.23
	c-4.65-2.71-14.23-7.18-26.2-6.73c-12.51,0.47-24.12,6.35-33.59,17.01c-2.77,3.12-6.3,5.51-10.57,7.18
	c-16.97-16.05-32.06-39.04-38.09-58.28c-0.78-2.48-2.97-4.25-5.56-4.48c-2.59-0.23-5.06,1.12-6.27,3.43l-8.93,17.08
	c-4.3,8.23-5.95,17.43-4.75,26.61c0.35,2.72,0.95,5.37,1.77,7.95c-17-7.33-32.59-17.54-42.54-27.5
	C107.5,133.19,104.73,132.64,102.33,133.63L102.33,133.63z M289.94,115.16c1.54-3.07,4.18-5.36,7.43-6.45
	c2.24,6.73-1.41,14.02-8.13,16.26C288.15,121.71,288.4,118.23,289.94,115.16L289.94,115.16z M260.79,120.9
	c6.72-2.24,14.02,1.41,16.26,8.13C270.32,131.27,263.03,127.63,260.79,120.9L260.79,120.9z M166.25,133.93l2.39-4.57
	c6.96,15.12,17.57,30.71,29.73,43.67c-9.06,0.26-18.88-1.3-28.72-4.11C161.77,159.05,160.36,145.19,166.25,133.93L166.25,133.93z
	 M111.22,153.66c33.21,25.52,96.06,47.87,122.67,17.92c18.02-20.28,38.02-11.03,43.72-7.71c5.07,2.95,8.62,7.07,10.98,10.57
	c-7.17,2.37-14.84,5.3-21.38,10.47c-9.36,7.4-14.13,17.85-14.18,31.08c-0.09,24.94-20.92,32.84-45.86,32.84
	c-17.56,0-34.34,8.39-44.9,22.47l-18.54,25.05l-26.71-35.52c21.35-2.88,43.63-12.86,58.32-26.62c1.95-1.82,2.56-4.66,1.55-7.13
	c-1.01-2.47-3.45-4.05-6.11-3.99c-17.63,0.45-33.85-8.41-43.29-22.25c5.05,1.93,10.54,2.99,16.27,2.99c3.55,0,6.43-2.88,6.43-6.43
	c0-3.55-2.88-6.43-6.43-6.43c-17.96,0-32.56-14.42-32.56-32.14L111.22,153.66L111.22,153.66z M111.22,153.66"/>
<path class="st1" d="M265.89,171.71c0,3.55-2.88,6.43-6.43,6.43c-3.55,0-6.43-2.88-6.43-6.43c0-3.55,2.88-6.43,6.43-6.43
	C263.02,165.28,265.89,168.16,265.89,171.71L265.89,171.71z M265.89,171.71"/>
</svg>
