<?xml version="1.0" encoding="utf-8"?>
<!-- Generator: Adobe Illustrator 24.2.1, SVG Export Plug-In . SVG Version: 6.00 Build 0)  -->
<svg version="1.1" id="Warstwa_1" xmlns="http://www.w3.org/2000/svg" xmlns:xlink="http://www.w3.org/1999/xlink" x="0px" y="0px"
	 viewBox="0 0 400 400" style="enable-background:new 0 0 400 400;" xml:space="preserve">
<style type="text/css">
	.st0{opacity:0.8;fill:url(#SVGID_1_);}
	.st1{fill:#FFFFFF;}
	.st2{opacity:0.8;fill:url(#SVGID_2_);}
	.st3{fill:url(#SVGID_3_);}
	.st4{fill:url(#SVGID_4_);}
	.st5{fill:url(#SVGID_5_);}
	.st6{fill:url(#SVGID_6_);}
	.st7{fill:url(#SVGID_7_);}
	.st8{fill:url(#SVGID_8_);}
	.st9{fill:url(#SVGID_9_);}
	.st10{fill:url(#SVGID_10_);}
	.st11{fill:url(#SVGID_11_);}
	.st12{fill:url(#SVGID_12_);}
	.st13{fill:url(#SVGID_13_);}
	.st14{fill:url(#SVGID_14_);}
	.st15{fill:url(#SVGID_15_);}
	.st16{fill:url(#SVGID_16_);}
	.st17{fill:url(#SVGID_17_);}
	.st18{fill:url(#SVGID_18_);}
	.st19{fill:url(#SVGID_19_);}
	.st20{fill:url(#SVGID_20_);}
	.st21{fill:url(#SVGID_21_);}
	.st22{fill:url(#SVGID_22_);}
	.st23{fill:url(#SVGID_23_);}
	.st24{fill:url(#SVGID_24_);}
	.st25{fill:url(#SVGID_25_);}
	.st26{opacity:0.8;fill:url(#SVGID_26_);}
	.st27{fill:url(#SVGID_27_);}
	.st28{fill:url(#SVGID_28_);}
	.st29{opacity:0.8;fill:url(#SVGID_29_);}
	.st30{opacity:0.9;}
	.st31{fill:url(#SVGID_30_);}
	.st32{opacity:0.8;fill:url(#SVGID_31_);}
	.st33{opacity:0.8;}
	.st34{fill:url(#SVGID_32_);}
	.st35{opacity:0.8;fill:url(#SVGID_33_);}
	.st36{fill:url(#SVGID_34_);}
	.st37{fill:url(#SVGID_35_);}
	.st38{opacity:0.9;fill:url(#SVGID_36_);}
</style>
<linearGradient id="SVGID_1_" gradientUnits="userSpaceOnUse" x1="25" y1="200" x2="375" y2="200">
	<stop  offset="0" style="stop-color:#6C150B"/>
	<stop  offset="1" style="stop-color:#D0322A"/>
</linearGradient>
<circle style="fill:url(#SVGID_1_);" cx="200" cy="200" r="175"/>
<g>
	<path class="st1" d="M157.37,164.48c0-15.75-13.4-28.42-29.4-27.22c-13.35,1-24.12,11.78-25.13,25.13
		c-1.2,16,11.48,29.4,27.22,29.4C145.12,191.78,157.37,179.54,157.37,164.48L157.37,164.48z M130.06,178.13
		c-8.04,0-14.48-6.99-13.56-15.21c0.7-6.26,5.74-11.3,12-12c8.22-0.92,15.21,5.52,15.21,13.56
		C143.72,172.01,137.59,178.13,130.06,178.13L130.06,178.13z M130.06,178.13"/>
	<path class="st1" d="M308.43,164.48c0-15.75-13.4-28.42-29.4-27.22c-13.35,1-24.12,11.78-25.13,25.13
		c-1.2,16,11.48,29.4,27.22,29.4C296.18,191.78,308.43,179.54,308.43,164.48L308.43,164.48z M281.13,178.13
		c-8.04,0-14.48-6.99-13.56-15.21c0.7-6.26,5.74-11.3,12-12c8.22-0.92,15.21,5.52,15.21,13.56
		C294.78,172.01,288.66,178.13,281.13,178.13L281.13,178.13z M281.13,178.13"/>
	<path class="st1" d="M287.95,191.78h-32.68c-9.73,0-18.17-6.92-20.08-16.46l-10.73-47.51c-0.57-2.51-2.79-4.28-5.36-4.28h-25.78
		c-4.06,0-7.55,2.87-8.35,6.85l-8.99,44.95c-1.88,9.38-10.7,16.46-20.53,16.46h-32.22c-18.85,0-34.13,15.28-34.13,34.13v61.43h81.9
		v-55.07c14.23-1.98,26.8-10.06,34.54-21.68c8.02,12.24,20.63,19.76,34.16,21.67v55.08h82.36v-61.43
		C322.08,207.09,306.77,191.78,287.95,191.78L287.95,191.78z M164.19,219.08h-6.83v54.6h-54.6v-47.78
		c0-11.31,9.17-20.48,20.48-20.48h32.22c16.47,0,30.74-11.54,33.92-27.43l8.16-40.82h13.26l-11.56,53.93
		C195.77,207.32,181.03,219.08,164.19,219.08L164.19,219.08z M308.43,273.69h-55.06v-54.6h-6.83c-15.65,0-29.49-10.49-33.91-25.3
		l6.38-29.78l2.8,13.99c3.18,15.9,17.25,27.43,33.46,27.43h32.68c11.31,0,20.48,9.17,20.48,20.48V273.69z M308.43,273.69"/>
	<path class="st1" d="M204.32,68.93h2.55c3.06,0,5.55,2.48,5.55,5.55v16.2c0,3.06-2.48,5.55-5.55,5.55h-2.55
		c-3.06,0-5.55-2.48-5.55-5.55v-16.2C198.77,71.41,201.26,68.93,204.32,68.93z"/>
	<path class="st1" d="M222.74,96.73l10.63-10.63c2.4-2.4,6.28-2.4,8.67,0l0.98,0.98c2.4,2.4,2.4,6.28,0,8.67l-10.63,10.63
		c-2.39,2.4-6.28,2.4-8.67,0l-0.98-0.98C220.34,103.01,220.34,99.13,222.74,96.73z M218.4,101.07"/>
	<path class="st1" d="M167.59,87.63l2.09-2.09c2.09-2.09,5.48-2.09,7.56,0l11.74,11.74c2.09,2.09,2.09,5.48,0,7.57l-2.09,2.09
		c-2.09,2.09-5.48,2.09-7.57,0l-11.74-11.74C165.5,93.1,165.5,89.72,167.59,87.63z M163.81,91.41"/>
</g>
</svg>
