<?xml version="1.0" encoding="utf-8"?>
<!-- Generator: Adobe Illustrator 24.2.1, SVG Export Plug-In . SVG Version: 6.00 Build 0)  -->
<svg version="1.1" id="Warstwa_1" xmlns="http://www.w3.org/2000/svg" xmlns:xlink="http://www.w3.org/1999/xlink" x="0px" y="0px"
	 viewBox="0 0 400 400" style="enable-background:new 0 0 400 400;" xml:space="preserve">
<style type="text/css">
	.st0{opacity:0.8;fill:url(#SVGID_1_);}
	.st1{fill:#FFFFFF;}
	.st2{opacity:0.8;fill:url(#SVGID_2_);}
	.st3{fill:url(#SVGID_3_);}
	.st4{fill:url(#SVGID_4_);}
	.st5{fill:url(#SVGID_5_);}
	.st6{fill:url(#SVGID_6_);}
	.st7{fill:url(#SVGID_7_);}
	.st8{fill:url(#SVGID_8_);}
	.st9{fill:url(#SVGID_9_);}
	.st10{fill:url(#SVGID_10_);}
	.st11{fill:url(#SVGID_11_);}
	.st12{fill:url(#SVGID_12_);}
	.st13{fill:url(#SVGID_13_);}
	.st14{fill:url(#SVGID_14_);}
	.st15{fill:url(#SVGID_15_);}
	.st16{fill:url(#SVGID_16_);}
	.st17{fill:url(#SVGID_17_);}
	.st18{fill:url(#SVGID_18_);}
	.st19{fill:url(#SVGID_19_);}
	.st20{fill:url(#SVGID_20_);}
	.st21{fill:url(#SVGID_21_);}
	.st22{fill:url(#SVGID_22_);}
	.st23{fill:url(#SVGID_23_);}
	.st24{fill:url(#SVGID_24_);}
	.st25{fill:url(#SVGID_25_);}
	.st26{opacity:0.8;fill:url(#SVGID_26_);}
	.st27{fill:url(#SVGID_27_);}
	.st28{fill:url(#SVGID_28_);}
	.st29{opacity:0.8;fill:url(#SVGID_29_);}
	.st30{opacity:0.9;}
	.st31{fill:url(#SVGID_30_);}
	.st32{opacity:0.8;fill:url(#SVGID_31_);}
	.st33{opacity:0.8;}
	.st34{fill:url(#SVGID_32_);}
	.st35{opacity:0.8;fill:url(#SVGID_33_);}
	.st36{fill:url(#SVGID_34_);}
	.st37{fill:url(#SVGID_35_);}
	.st38{opacity:0.9;fill:url(#SVGID_36_);}
</style>
<linearGradient id="SVGID_1_" gradientUnits="userSpaceOnUse" x1="25" y1="200" x2="375" y2="200">
	<stop  offset="0" style="stop-color:#6C150B"/>
	<stop  offset="1" style="stop-color:#D0322A"/>
</linearGradient>
<circle style="fill:url(#SVGID_1_);" cx="200" cy="200" r="175"/>
<g>
	<path class="st1" d="M273.78,142.52h-31.12V111.4c0-11.16-9.06-19.99-19.99-19.99h-23.85c-11.16,0-19.99,9.06-19.99,19.99v31.12
		h-31.12c-11.16,0-19.99,9.06-19.99,19.99v23.85c0,11.16,9.06,19.99,19.99,19.99h31.12v82.23c0,11.16,9.06,19.99,19.99,19.99h23.85
		c11.16,0,19.99-9.06,19.99-19.99v-82.23h31.12c11.16,0,19.99-9.06,19.99-19.99v-23.85C293.78,151.36,284.72,142.52,273.78,142.52
		L273.78,142.52z M281.05,186.37c0,3.96-3.2,7.27-7.27,7.27H236.3c-3.52,0-6.36,2.85-6.36,6.36v88.6c0,3.96-3.2,7.27-7.27,7.27
		h-23.85c-3.96,0-7.27-3.2-7.27-7.27V200c0-3.52-2.85-6.36-6.36-6.36h-37.48c-3.96,0-7.27-3.2-7.27-7.27v-23.85
		c0-3.96,3.2-7.27,7.27-7.27h37.48c3.52,0,6.36-2.85,6.36-6.36V111.4c0-3.96,3.2-7.27,7.27-7.27h23.85c3.96,0,7.27,3.2,7.27,7.27
		v37.48c0,3.52,2.85,6.36,6.36,6.36h37.48c3.96,0,7.27,3.2,7.27,7.27V186.37z M281.05,186.37"/>
</g>
</svg>
