<?xml version="1.0" encoding="utf-8"?>
<!-- Generator: Adobe Illustrator 24.2.1, SVG Export Plug-In . SVG Version: 6.00 Build 0)  -->
<svg version="1.1" id="Warstwa_1" xmlns="http://www.w3.org/2000/svg" xmlns:xlink="http://www.w3.org/1999/xlink" x="0px" y="0px"
	 viewBox="0 0 400 400" style="enable-background:new 0 0 400 400;" xml:space="preserve">
<style type="text/css">
	.st0{fill:#E77542;}
	.st1{fill:#2DB5BA;}
	.st2{fill:url(#SVGID_1_);}
</style>
<g>
	<linearGradient id="SVGID_1_" gradientUnits="userSpaceOnUse" x1="103.089" y1="200" x2="296.911" y2="200">
		<stop  offset="0" style="stop-color:#C2362A"/>
		<stop  offset="0.9078" style="stop-color:#C2362A"/>
		<stop  offset="1" style="stop-color:#D0322A"/>
	</linearGradient>
	<path class="st2" d="M271.12,80.9c-4.02-5.06-8.96-10.05-15.41-15.56l-47.58-42.85c-4.64-4.17-11.62-4.17-16.26,0L144.4,65.22
		c-6.56,5.62-11.5,10.62-15.56,15.68c-10.77,13.54-18.34,29.31-22.39,45.98c-0.08,0.23-0.08,0.5-0.14,0.74
		c-2.07,8.81-3.23,17.89-3.23,27.03v225.99h193.82V154.65C296.91,127.95,287.74,101.78,271.12,80.9L271.12,80.9z M260.44,87.01
		c0.39,0.48,0.83,0.95,1.21,1.42c9.17,11.5,15.76,24.84,19.52,38.94l-29.18,29.16h-33.8l0.09-27.35L260.44,87.01z M206.06,36.92
		l41.66,37.5c1.54,1.33,2.96,2.6,4.32,3.85l-41.93,41.93h-4.05V36.92z M152.39,74.33l41.55-37.38v83.28h-3.55l-42.2-42.2
		C149.49,76.85,150.87,75.6,152.39,74.33L152.39,74.33z M138.34,88.44c0.45-0.56,0.95-1.13,1.45-1.69l42.05,42.02v27.77h-33.83
		l-29.19-29.16C122.58,113.28,129.17,99.94,138.34,88.44L138.34,88.44z M115.22,154.65c0-4.32,0.35-8.61,0.89-12.86l23.33,23.33
		v21.83c0,1.59,0.65,3.16,1.77,4.28c1.16,1.12,2.66,1.77,4.29,1.77l30.1-0.08l-25.07,32.8l-35.31-35.34V154.65z M181.81,204.71V257
		l-22.65-22.65L181.81,204.71z M115.22,207.52l27.88,27.89l-27.88,36.49V207.52z M115.22,291.84l36.52-47.79l28.12,28.12
		l-64.65,84.52V291.84z M193.94,368.52h-72.54l69.5-90.85h3.04V368.52z M193.84,186.44c0-0.42-0.11-0.76-0.23-1.18
		c-0.09-0.36-0.17-0.71-0.36-1.04c-0.14-0.36-0.39-0.68-0.65-0.98c-0.14-0.23-0.23-0.5-0.44-0.71c-0.09-0.08-0.24-0.11-0.36-0.2
		c-0.09-0.09-0.15-0.2-0.23-0.3c-0.21-0.17-0.48-0.2-0.68-0.33c-0.39-0.23-0.71-0.42-1.13-0.56c-0.39-0.12-0.76-0.18-1.18-0.23
		c-0.23-0.03-0.48-0.12-0.71-0.12l-36.35,0.09v-12.22h36.35c3.35,0,6.06-2.69,6.06-6.06v-30.28h12.21l-0.08,30.28
		c-0.03,1.6,0.62,3.13,1.74,4.29c1.15,1.13,2.7,1.77,4.29,1.77h36.35v12.13l-35.34,0.09c-1.6-0.24-3.28,0.08-4.67,1.15
		c-1.6,1.21-2.31,3.07-2.28,4.97v78.57h-12.21v-78.75C193.94,186.7,193.88,186.59,193.84,186.44L193.84,186.44z M218.28,204.86
		l22.53,29.48l-22.53,22.54V204.86z M206.06,368.52v-90.85h3.04l69.47,90.85H206.06z M284.78,356.69l-64.65-84.52l28.09-28.12
		l36.55,47.82V356.69z M284.78,271.9l-27.92-36.49l27.92-27.89V271.9z M284.78,190.41l-35.34,35.31l-25.02-32.74l30.08-0.08
		c3.34,0,6.06-2.73,6.06-6.06v-21.7l23.33-23.33c0.53,4.25,0.89,8.55,0.89,12.86V190.41z M284.78,190.41"/>
</g>
</svg>
