<?xml version="1.0" encoding="utf-8"?>
<!-- Generator: Adobe Illustrator 24.2.1, SVG Export Plug-In . SVG Version: 6.00 Build 0)  -->
<svg version="1.1" id="Warstwa_1" xmlns="http://www.w3.org/2000/svg" xmlns:xlink="http://www.w3.org/1999/xlink" x="0px" y="0px"
	 viewBox="0 0 400 400" style="enable-background:new 0 0 400 400;" xml:space="preserve">
<style type="text/css">
	.st0{fill:#E77542;}
</style>
<g>
	<g>
		<path class="st0" d="M340.16,76.62V60.21h-57.11L77.38,231.35c-11.14,9.27-17.53,22.91-17.53,37.4h16.41
			c0-9.61,4.23-18.64,11.62-24.79l4.66-3.88v99.7h247.6V159.6h-45.92V76.62H340.16z M231.06,247.1H201.4v-97.61l29.67-24.69V247.1z
			 M184.99,286.48h-29.74V187.9l29.74-24.75V286.48z M138.84,323.13h-29.91v-96.7l29.91-24.89V323.13z M323.72,323.38H155.25v-20.49
			h46.15v-39.38h46.07v-43.75h46.74V176h29.51V323.38z M277.81,203.35h-30.33v-92.2l30.33-25.24V203.35z M277.81,203.35"/>
	</g>
</g>
</svg>
