<?xml version="1.0" encoding="utf-8"?>
<!-- Generator: Adobe Illustrator 24.2.1, SVG Export Plug-In . SVG Version: 6.00 Build 0)  -->
<svg version="1.1" id="Warstwa_1" xmlns="http://www.w3.org/2000/svg" xmlns:xlink="http://www.w3.org/1999/xlink" x="0px" y="0px"
	 viewBox="0 0 400 400" style="enable-background:new 0 0 400 400;" xml:space="preserve">
<style type="text/css">
	.st0{opacity:0.8;fill:url(#SVGID_1_);}
	.st1{fill:#FFFFFF;}
	.st2{opacity:0.8;fill:url(#SVGID_2_);}
	.st3{fill:url(#SVGID_3_);}
	.st4{fill:url(#SVGID_4_);}
	.st5{fill:url(#SVGID_5_);}
	.st6{fill:url(#SVGID_6_);}
	.st7{fill:url(#SVGID_7_);}
	.st8{fill:url(#SVGID_8_);}
	.st9{opacity:0.8;fill:url(#SVGID_9_);}
	.st10{opacity:0.8;fill:url(#SVGID_10_);}
	.st11{opacity:0.8;fill:url(#SVGID_11_);}
	.st12{opacity:0.8;fill:url(#SVGID_12_);}
	.st13{opacity:0.8;fill:url(#SVGID_13_);}
	.st14{opacity:0.8;fill:url(#SVGID_14_);}
	.st15{opacity:0.8;fill:url(#SVGID_15_);}
	.st16{opacity:0.8;fill:url(#SVGID_16_);}
	.st17{opacity:0.8;fill:url(#SVGID_17_);}
	.st18{opacity:0.8;fill:url(#SVGID_18_);}
	.st19{opacity:0.8;fill:url(#SVGID_19_);}
	.st20{opacity:0.8;fill:url(#SVGID_20_);}
	.st21{opacity:0.8;fill:url(#SVGID_21_);}
	.st22{opacity:0.8;fill:url(#SVGID_22_);}
	.st23{opacity:0.8;fill:url(#SVGID_23_);}
	.st24{opacity:0.8;fill:url(#SVGID_24_);}
	.st25{opacity:0.8;fill:url(#SVGID_25_);}
	.st26{opacity:0.8;fill:url(#SVGID_26_);}
	.st27{opacity:0.8;fill:url(#SVGID_27_);}
</style>
<g>
	<linearGradient id="SVGID_1_" gradientUnits="userSpaceOnUse" x1="25" y1="200" x2="375" y2="200">
		<stop  offset="0" style="stop-color:#F8B001"/>
		<stop  offset="0.0177" style="stop-color:#F7AC02"/>
		<stop  offset="0.2234" style="stop-color:#EF860F"/>
		<stop  offset="0.4276" style="stop-color:#E96818"/>
		<stop  offset="0.6273" style="stop-color:#E5521F"/>
		<stop  offset="0.8206" style="stop-color:#E24524"/>
		<stop  offset="1" style="stop-color:#E14125"/>
	</linearGradient>
	<circle class="st0" cx="200" cy="200" r="175"/>
	<path class="st1" d="M317.18,228.45c-2.2-1.71-5.37-1.32-7.09,0.88l-7.1,9.1h-22.11l-17.66-60.49c5.15-1.96,8.81-6.94,8.81-12.77
		c0-7.53-6.13-13.66-13.66-13.66h-2.87l-3.66-12.54c-0.78-2.68-3.59-4.21-6.26-3.43c-2.68,0.78-4.21,3.58-3.43,6.26l2.83,9.71h-2.69
		l-18.76-17.9c0.4-0.25,0.79-0.51,1.18-0.78c5.34-3.78,8.88-9.41,9.99-15.86c1.1-6.45-0.37-12.93-4.15-18.27
		c-3.78-5.34-9.41-8.88-15.86-9.99c-13.31-2.28-25.98,6.7-28.26,20.01c-1.37,8.03,1.36,15.82,6.65,21.25
		c-1.41,0.66-2.73,1.43-3.96,2.3c-2.37-4.95-6.94-8.72-12.65-9.75c-4.54-0.81-9.11,0.2-12.89,2.87c-3.86,2.72-6.42,6.82-7.21,11.54
		c-0.5,3.03-0.22,6.01,0.72,8.74c-0.25,0.12-0.49,0.25-0.71,0.41c-1.1,0.77-1.85,1.95-2.08,3.27l-7.09,40.73
		c-1.28,7.34,3.45,14.34,10.53,15.61l8.5,1.52c0.77,0.14,1.53,0.2,2.28,0.2c0.57,0,1.12-0.05,1.67-0.12l-1.57,24.16l-12.25,25.27
		c-1.16,2.4-1.75,4.97-1.75,7.62c0,2.59,0.59,5.1,1.66,7.38h-5.86c-0.96,0-1.9,0.28-2.72,0.79l-40.53,25.84
		c-2.35,1.5-3.04,4.62-1.54,6.97c0.96,1.51,2.6,2.34,4.26,2.34c0.93,0,1.87-0.26,2.71-0.79l39.29-25.05h19.23
		c0.33,0.02,0.66,0.03,0.98,0.03c0.27,0,0.54-0.02,0.81-0.03h53.83c1.29,0,2.54-0.5,3.48-1.39l33.59-31.92h41.63
		c1.55,0,3.02-0.72,3.98-1.94l8.62-11.05C319.77,233.33,319.38,230.16,317.18,228.45L317.18,228.45z M190.86,209.87
		c-1.95-0.34-4.12-0.48-5.9-1.41c-3.14-1.65-4.74-5.16-4.15-8.62c0.16-0.96,0.33-1.92,0.49-2.87c14.65-0.68,24.86-4.8,31.71-9.19
		l-1.18,6.93c-0.38,2.22,0.76,4.42,2.79,5.4l17.97,8.66l20.88,26.36c2.54,3.2,2,7.87-1.21,10.41c-3.2,2.54-7.87,1.99-10.41-1.21
		l-18.05-22.78c-0.47-0.6-1.08-1.08-1.77-1.41l-15.21-7.33c-0.43-0.21-0.88-0.35-1.34-0.43L190.86,209.87z M261.39,228.86
		l-21.61-27.28c-0.35-0.45-0.78-0.82-1.25-1.12c-0.17-0.1-0.34-0.2-0.52-0.29l-15.58-7.51l2.36-13.84h28.18l17.4,59.6h-5.25
		C264.87,235.05,263.65,231.71,261.39,228.86L261.39,228.86z M240.29,161.6h11.41c0.01,0,0.02,0,0.03,0c0.01,0,0.01,0,0.02,0h6.64
		c1.96,0,3.56,1.6,3.56,3.56c0,1.96-1.6,3.56-3.56,3.56h-1.53c-0.01,0-0.01,0-0.02,0h-34.43l-10.21-8.8
		c-2.11-1.82-5.3-1.58-7.12,0.53c-1.82,2.11-1.58,5.3,0.53,7.12l7.99,6.88c-4,4.15-13.11,10.99-30.54,12.3l1.86-10.86l3.51-20.51
		c0-0.01,0-0.03,0-0.04l1.04-6.08c1.01-5.89,6.03-12.08,17.1-12.08c0.25,0,0.51,0,0.77,0.01c0.04,0,0.08,0,0.13,0
		c3.46,0,6.58,1.2,8.76,3.36c0.07,0.07,0.13,0.13,0.2,0.19l20.39,19.46C237.74,161.11,238.99,161.6,240.29,161.6L240.29,161.6z
		 M196.41,110.42c1.2-7,7.29-11.96,14.17-11.96c0.8,0,1.62,0.07,2.43,0.21c3.79,0.65,7.09,2.73,9.31,5.87
		c2.22,3.14,3.09,6.95,2.44,10.74c-1.2,7-7.29,11.96-14.17,11.96c-0.8,0-1.62-0.07-2.43-0.21
		C200.35,125.68,195.07,118.23,196.41,110.42L196.41,110.42z M166.36,138.59c0.34-2.04,1.43-3.79,3.07-4.95
		c1.21-0.85,2.61-1.29,4.04-1.29c0.41,0,0.83,0.04,1.25,0.11c4,0.72,6.68,4.68,5.99,8.83c-0.34,2.04-1.43,3.79-3.07,4.95
		c-1.55,1.1-3.43,1.51-5.29,1.18C168.36,146.7,165.67,142.74,166.36,138.59L166.36,138.59z M168.05,197.27l-8.5-1.53
		c-1.63-0.29-2.69-2.06-2.36-3.94l6.22-35.73l14.21,2.55l-2.4,14.02l-3.82,22.33C170.9,196.52,169.46,197.52,168.05,197.27
		L168.05,197.27z M168.91,271.02c-2.58-1.25-4.18-3.81-4.18-6.68c0-1.12,0.25-2.2,0.74-3.22l12.68-26.16
		c0.29-0.59,0.45-1.22,0.49-1.87l1.04-16c3.81,2.18,8.34,2.54,12.6,3.27c0.8,0.14,1.6,0.27,2.4,0.41l-1.14,16.37l-14.76,30.44
		c-1.19,2.45-3.56,3.95-6.1,4.14h-1.15C170.66,271.66,169.77,271.44,168.91,271.02L168.91,271.02z M224.75,271.73h-36.72
		l15.06-31.06c0.1-0.22,0.19-0.43,0.26-0.66c0.12-0.38,0.2-0.78,0.23-1.2l1.1-15.85l11.95,5.76l17.33,21.87
		c1.99,2.51,4.54,4.33,7.33,5.42L224.75,271.73z M224.75,271.73"/>
</g>
</svg>
