<?xml version="1.0" encoding="utf-8"?>
<!-- Generator: Adobe Illustrator 24.2.1, SVG Export Plug-In . SVG Version: 6.00 Build 0)  -->
<svg version="1.1" id="Warstwa_2" xmlns="http://www.w3.org/2000/svg" xmlns:xlink="http://www.w3.org/1999/xlink" x="0px" y="0px"
	 viewBox="0 0 400 400" style="enable-background:new 0 0 400 400;" xml:space="preserve">
<style type="text/css">
	.st0{opacity:0.8;fill:url(#SVGID_1_);}
	.st1{fill:#FFFFFF;}
	.st2{opacity:0.8;fill:url(#SVGID_2_);}
	.st3{fill:url(#SVGID_3_);}
	.st4{fill:url(#SVGID_4_);}
	.st5{fill:url(#SVGID_5_);}
	.st6{fill:url(#SVGID_6_);}
	.st7{fill:url(#SVGID_7_);}
	.st8{fill:url(#SVGID_8_);}
	.st9{opacity:0.8;fill:url(#SVGID_9_);}
	.st10{opacity:0.8;fill:url(#SVGID_10_);}
	.st11{opacity:0.8;fill:url(#SVGID_11_);}
	.st12{opacity:0.8;fill:url(#SVGID_12_);}
	.st13{opacity:0.8;fill:url(#SVGID_13_);}
	.st14{opacity:0.8;fill:url(#SVGID_14_);}
	.st15{opacity:0.8;fill:url(#SVGID_15_);}
	.st16{opacity:0.8;fill:url(#SVGID_16_);}
	.st17{opacity:0.8;fill:url(#SVGID_17_);}
	.st18{opacity:0.8;fill:url(#SVGID_18_);}
	.st19{opacity:0.8;fill:url(#SVGID_19_);}
	.st20{opacity:0.8;fill:url(#SVGID_20_);}
	.st21{opacity:0.8;fill:url(#SVGID_21_);}
	.st22{opacity:0.8;fill:url(#SVGID_22_);}
	.st23{opacity:0.8;fill:url(#SVGID_23_);}
	.st24{opacity:0.8;fill:url(#SVGID_24_);}
	.st25{opacity:0.8;fill:url(#SVGID_25_);}
	.st26{opacity:0.8;fill:url(#SVGID_26_);}
	.st27{opacity:0.8;fill:url(#SVGID_27_);}
</style>
<g>
	<linearGradient id="SVGID_1_" gradientUnits="userSpaceOnUse" x1="25" y1="200" x2="375" y2="200">
		<stop  offset="0" style="stop-color:#F8B001"/>
		<stop  offset="0.0177" style="stop-color:#F7AC02"/>
		<stop  offset="0.2234" style="stop-color:#EF860F"/>
		<stop  offset="0.4276" style="stop-color:#E96818"/>
		<stop  offset="0.6273" style="stop-color:#E5521F"/>
		<stop  offset="0.8206" style="stop-color:#E24524"/>
		<stop  offset="1" style="stop-color:#E14125"/>
	</linearGradient>
	<circle class="st0" cx="200" cy="200" r="175"/>
	<g>
		<path class="st1" d="M199.99,114c2.53,0,4.57-2.05,4.57-4.57v-27.2c0-2.53-2.05-4.57-4.57-4.57c-2.53,0-4.57,2.05-4.57,4.57v27.2
			C195.42,111.96,197.47,114,199.99,114z"/>
		<path class="st1" d="M167.62,123.17c0.89,0.89,2.06,1.34,3.23,1.34c1.17,0,2.34-0.45,3.23-1.34c1.78-1.79,1.78-4.68,0-6.47
			l-10.94-10.93c-1.79-1.79-4.68-1.78-6.47,0c-1.78,1.79-1.78,4.68,0,6.47L167.62,123.17z"/>
		<path class="st1" d="M228.46,125.23c1.17,0,2.34-0.45,3.23-1.34l11.63-11.64c1.78-1.79,1.78-4.68,0-6.47
			c-1.79-1.79-4.68-1.78-6.47,0l-11.63,11.64c-1.78,1.79-1.78,4.68,0,6.47C226.12,124.78,227.29,125.23,228.46,125.23z"/>
		<path class="st1" d="M287.11,198.38h-3.69c3.01-3.93,4.81-8.83,4.81-14.15v-6.45c0-12.85-10.45-23.3-23.3-23.3
			c-12.84,0-23.3,10.45-23.3,23.3v5.02l-34.4-34.4c-1.91-1.91-4.72-2.52-7.24-1.61c-2.52-0.91-5.33-0.3-7.24,1.61l-34.4,34.4v-5.02
			c0-12.84-10.45-23.3-23.3-23.3s-23.3,10.45-23.3,23.3v6.45c0,5.32,1.8,10.22,4.81,14.15h-3.69c-16.52,0-29.95,13.44-29.95,29.95
			v60.59c0,2.53,2.05,4.57,4.57,4.57h19.32c0.46,0,0.9-0.07,1.31-0.19c0.42,0.12,0.86,0.19,1.31,0.19h51.21
			c2.53,0,4.57-2.05,4.57-4.57l-0.01-51.24c0-2.53-2.05-4.57-4.57-4.57s-4.57,2.05-4.57,4.57l0.01,46.67h-42.07v-52.11
			c0-2.53-2.05-4.57-4.57-4.57c-2.53,0-4.57,2.05-4.57,4.57v52.11h-12.8v-56.02c0-11.47,9.33-20.81,20.81-20.81h31.78
			c1.26,0,2.4-0.51,3.22-1.33c0,0,0.01-0.01,0.01-0.01l47.5-47.5c-0.31,9.5-3.27,18.64-8.59,26.55l-29.93,44.45
			c-0.51,0.75-0.78,1.64-0.78,2.55v5.01c0,2.53,2.05,4.57,4.57,4.57c2.53,0,4.57-2.05,4.57-4.57v-3.61l29.15-43.29
			c2.23-3.31,4.09-6.8,5.6-10.43c1.51,3.63,3.38,7.12,5.6,10.43l29.15,43.29v55.28c0,2.53,2.05,4.57,4.57,4.57h51.21
			c0.46,0,0.9-0.07,1.31-0.19c0.42,0.12,0.86,0.19,1.31,0.19h19.32c2.53,0,4.57-2.05,4.57-4.57v-60.59
			C317.06,211.81,303.63,198.38,287.11,198.38z M120.92,184.23v-6.45c0-7.8,6.35-14.15,14.15-14.15s14.15,6.35,14.15,14.15v6.45
			c0,7.8-6.35,14.15-14.15,14.15S120.92,192.03,120.92,184.23z M250.78,177.77c0-7.8,6.35-14.15,14.15-14.15
			c7.8,0,14.15,6.35,14.15,14.15v6.45c0,7.8-6.35,14.15-14.15,14.15c-7.8,0-14.15-6.35-14.15-14.15V177.77z M307.92,284.34h-12.8
			v-33.84c0-2.53-2.05-4.57-4.57-4.57c-2.53,0-4.57,2.05-4.57,4.57v33.84H243.9v-52.11c0-0.91-0.27-1.8-0.78-2.55l-29.93-44.45
			c-5.33-7.91-8.28-17.06-8.59-26.55l47.5,47.5c0.06,0.06,0.12,0.11,0.17,0.16c0.81,0.73,1.88,1.18,3.06,1.18h31.78
			c11.47,0,20.81,9.33,20.81,20.81V284.34L307.92,284.34z"/>
	</g>
</g>
</svg>
