<svg xmlns="http://www.w3.org/2000/svg" width="367.183" height="221.015" viewBox="0 0 367.183 221.015">
  <g id="logo" transform="translate(-180.19 -85.273)">
    <g id="Group_1" data-name="Group 1" transform="translate(180.19 233.227)">
      <path id="Path_1" data-name="Path 1" d="M547.372,252.31l-367.183,3.56,6.311-47.2,359.3,7.932Z" transform="translate(-180.19 -208.674)" fill="#61666f"/>
    </g>
    <g id="Group_5" data-name="Group 5" transform="translate(188.861 85.273)">
      <g id="Group_2" data-name="Group 2">
        <path id="Path_2" data-name="Path 2" d="M263.864,88.4q-1.39-2.863-3.037-2.863-2.257,0-6.811.3t-6.9.3q-2.43,0-7.332-.433t-7.245-.434q-1.388,0-2.429,3.3-1.822,5.726-23.08,63.252-19.609,53.19-19.609,55.444,0,2.518,13.275,2.515,16.834,0,19.783-.694,2.343-.6,3.991-7.809,1.822-7.893,3.3-9.284.953-.781,15.7-.781,21.866,0,23.254.607,1.647.869,4.6,13.363a4.674,4.674,0,0,0,3.731,3.9q3.557.694,15.966.694,13.535,0,16.138-.694,2.167-.6,2.169-2.169,0-2.342-20.65-56.051Q268.116,97.507,263.864,88.4Zm-6.508,72.449q-.608,1.39-6.334,1.388-6.162,0-8.85-.173-5.207-.174-5.206-1.736,0-2.342,4.686-15.878,4.338-12.755,6.16-16.572,1.822,3.471,5.726,15.964,3.991,12.931,3.991,15.792A3.387,3.387,0,0,1,257.356,160.846Z" transform="translate(-187.422 -85.273)" fill="#b8935a"/>
      </g>
      <g id="Group_3" data-name="Group 3" transform="translate(130.758 2.081)">
        <path id="Path_3" data-name="Path 3" d="M371.272,146.791q0-1.041,2.863-2.689,13.969-8.154,24.729-40.953,3.644-11.106,3.644-13.969,0-2-2.083-2-2.257,0-6.9.174t-6.984.174q-2.259,0-6.811-.26t-6.811-.261q-2.951,0-3.905,2.17-6.334,16.4-9.11,24.815-4.34,11.019-8.589,15.184-5.728,5.642-16.052,5.64-4.081,0-4.079-7.462,0-6.421.651-19.392t.651-19.392q0-1.561-1.475-1.562-2.69,0-8.157.261t-8.243.26q-2.69,0-8.112-.26t-8.112-.261q-1.824,0-1.822,1.91,0,10.066.868,30.237t.867,30.238q0,9.458-.911,28.373t-.91,28.286q0,2.171,2.515,2.689,3.644.694,14.924.694a126.418,126.418,0,0,0,16.312-.694q2.343-.345,2.343-3.036,0-6.593-.52-19.74t-.52-19.652q0-1.475,9.37-4.859,2,1.91,12.322,20.651,6.246,11.627,12.581,23.253a7.555,7.555,0,0,0,1.866,2.474,9.827,9.827,0,0,0,3.08.91,100.147,100.147,0,0,0,15.618.868q11.106,0,13.709-.868,3.209-1.126,3.21-4.858,0-4.946-16.008-31.062T371.272,146.791Z" transform="translate(-296.48 -87.009)" fill="#b8935a"/>
      </g>
      <g id="Group_4" data-name="Group 4" transform="translate(240.517 1.041)">
        <path id="Path_4" data-name="Path 4" d="M500.64,104.259l-9.41-7.614-12.8-10.287a4.753,4.753,0,0,0-2-.217q-.088,0-11.366.868-21,1.649-28.807,1.649-27.506,0-41.561-1.822c-.694-.056-1.1-.086-1.215-.086q-1.477,0-2.083,6.507-.347,4.079-.607,8.157-.176,1.3-1.562,7.375c-.81,3.7-1.215,18.6-1.215,19.349q0,.869,1.388.867,10.323,0,27.678-1.735c.462,15.618.694,13.015.694,17.527q0,10.239-.868,30.715t-.868,30.715a2.546,2.546,0,0,0,2.43,2.689,119.53,119.53,0,0,0,15.7.694,124.769,124.769,0,0,0,15.271-.694,10.379,10.379,0,0,0,2.429-.433q.781-.433.78-2.083,0-10.237-.824-30.8t-.825-30.8c0-5.783.174-3.325.52-17.961,15.213.868,23.441,1.259,25.64,1.259,1.271,0,1.8-.486,3.213-1.764l10.816-8.708,9.428-7.59A3.711,3.711,0,0,0,500.64,104.259Z" transform="translate(-388.024 -86.141)" fill="#b8935a"/>
      </g>
    </g>
    <g id="Group_53" data-name="Group 53" transform="translate(196.555 245.082)">
      <g id="Group_6" data-name="Group 6">
        <path id="Path_5" data-name="Path 5" d="M193.9,238.494l8.947-19.613a.682.682,0,0,1,.5-.32h.291a.679.679,0,0,1,.5.32l8.889,19.613a.515.515,0,0,1-.5.758h-1.837a.681.681,0,0,1-.67-.436l-1.807-3.993h-9.529c-.583,1.34-1.2,2.652-1.778,3.993a.732.732,0,0,1-.67.436h-1.836A.514.514,0,0,1,193.9,238.494Zm13.2-6.178-3.585-7.984h-.146l-3.555,7.984Z" transform="translate(-193.839 -218.561)" fill="#fff"/>
      </g>
      <g id="Group_7" data-name="Group 7" transform="translate(21.041 0.291)">
        <path id="Path_6" data-name="Path 6" d="M211.388,219.358a.574.574,0,0,1,.554-.554h1.691a.573.573,0,0,1,.553.554v12.618l4.547-4.08a1.155,1.155,0,0,1,.729-.349H221.5a.452.452,0,0,1,.321.787l-4.838,4.4,5.712,5.712a.432.432,0,0,1-.321.758h-2.39a.738.738,0,0,1-.524-.233l-5.276-5.421v5.1a.572.572,0,0,1-.553.553h-1.691a.573.573,0,0,1-.554-.553Z" transform="translate(-211.388 -218.804)" fill="#fff"/>
      </g>
      <g id="Group_8" data-name="Group 8" transform="translate(33.717 8.743)">
        <path id="Path_7" data-name="Path 7" d="M226.624,230.428a8.374,8.374,0,0,1,2.3.35c.03-1.837-.32-2.566-1.807-2.566a12.366,12.366,0,0,0-3.264.525c-.35.088-.554-.145-.641-.466l-.233-1.078a.523.523,0,0,1,.379-.67,12.013,12.013,0,0,1,4.021-.67c3.73,0,4.08,2.273,4.08,5.187v6.208a.573.573,0,0,1-.554.553h-.817c-.261,0-.378-.116-.5-.408l-.291-.787a5.027,5.027,0,0,1-3.584,1.487,3.62,3.62,0,0,1-3.76-3.906C221.961,232.06,223.652,230.428,226.624,230.428Zm-.349,5.6a3.446,3.446,0,0,0,2.622-1.458V232.7a4.386,4.386,0,0,0-2.039-.466c-1.4,0-2.361.728-2.361,1.923A1.753,1.753,0,0,0,226.275,236.024Z" transform="translate(-221.961 -225.853)" fill="#fff"/>
      </g>
      <g id="Group_9" data-name="Group 9" transform="translate(46.044 0.291)">
        <path id="Path_8" data-name="Path 8" d="M237.983,227.256a7.048,7.048,0,0,1,2.8.64v-8.538a.574.574,0,0,1,.554-.554h1.691a.573.573,0,0,1,.553.554v19.293a.572.572,0,0,1-.553.553h-.875c-.261,0-.436-.2-.524-.5l-.234-.845a5.206,5.206,0,0,1-3.7,1.633c-3.09,0-5.451-2.77-5.451-6.121A5.88,5.88,0,0,1,237.983,227.256Zm.059,9.733a3.134,3.134,0,0,0,2.768-1.748v-4.75a4.827,4.827,0,0,0-2.535-.7,3.385,3.385,0,0,0-3.322,3.585C234.953,235.328,236.176,236.989,238.041,236.989Z" transform="translate(-232.242 -218.804)" fill="#fff"/>
      </g>
      <g id="Group_10" data-name="Group 10" transform="translate(60.324 8.743)">
        <path id="Path_9" data-name="Path 9" d="M249.98,225.853a5.248,5.248,0,0,1,5.363,5.391,7.249,7.249,0,0,1-.059.788.536.536,0,0,1-.524.5h-7.928a3.376,3.376,0,0,0,3.351,3.119,4.971,4.971,0,0,0,2.595-.845c.349-.2.553-.32.787-.03l.815,1.108a.452.452,0,0,1-.058.758,6.7,6.7,0,0,1-4.313,1.458,6.127,6.127,0,0,1-.03-12.24Zm2.652,4.838a2.758,2.758,0,0,0-2.681-2.595,2.949,2.949,0,0,0-2.972,2.595Z" transform="translate(-244.152 -225.853)" fill="#fff"/>
      </g>
      <g id="Group_11" data-name="Group 11" transform="translate(74.312 8.743)">
        <path id="Path_10" data-name="Path 10" d="M255.819,226.7a.573.573,0,0,1,.553-.554h.816a.507.507,0,0,1,.5.349l.32.992a5.417,5.417,0,0,1,3.848-1.632,4.324,4.324,0,0,1,3.759,1.864,6.5,6.5,0,0,1,4.226-1.864c3.555,0,4.809,2.506,4.809,5.537v5.858a.553.553,0,0,1-.554.553H272.46a.552.552,0,0,1-.554-.553v-5.975c0-1.837-.845-2.886-2.42-2.886a4.194,4.194,0,0,0-3,1.429,8.205,8.205,0,0,1,.088,1.4v6.033a.573.573,0,0,1-.554.553h-1.545a.552.552,0,0,1-.553-.553v-5.975c0-1.866-.845-2.886-2.477-2.886a3.309,3.309,0,0,0-2.886,1.749v7.111a.572.572,0,0,1-.554.553h-1.632a.572.572,0,0,1-.553-.553Z" transform="translate(-255.819 -225.853)" fill="#fff"/>
      </g>
      <g id="Group_12" data-name="Group 12" transform="translate(96.46 0.874)">
        <path id="Path_11" data-name="Path 11" d="M274.291,221.009a1.674,1.674,0,0,1,1.661-1.719,1.705,1.705,0,1,1,0,3.41A1.667,1.667,0,0,1,274.291,221.009Zm.321,6.995a.573.573,0,0,1,.553-.554h1.662a.574.574,0,0,1,.554.554v10.55a.573.573,0,0,1-.554.553h-1.662a.572.572,0,0,1-.553-.553Z" transform="translate(-274.291 -219.29)" fill="#fff"/>
      </g>
      <g id="Group_13" data-name="Group 13" transform="translate(102.463 8.743)">
        <path id="Path_12" data-name="Path 12" d="M285.418,225.853a5.164,5.164,0,0,1,4.226,2.069.57.57,0,0,1-.116.815l-.963.874c-.349.321-.554.088-.786-.116a3.238,3.238,0,0,0-2.331-1.108,3.6,3.6,0,1,0,2.681,5.858.533.533,0,0,1,.787-.059l.787.641c.291.234.409.525.2.817a5.169,5.169,0,0,1-4.517,2.448A6.07,6.07,0,0,1,279.3,232,6.2,6.2,0,0,1,285.418,225.853Z" transform="translate(-279.298 -225.853)" fill="#fff"/>
      </g>
      <g id="Group_14" data-name="Group 14" transform="translate(115.985 0.291)">
        <path id="Path_13" data-name="Path 13" d="M290.576,219.358a.574.574,0,0,1,.554-.554h1.689a.573.573,0,0,1,.554.554v12.618l4.547-4.08a1.155,1.155,0,0,1,.729-.349h2.04a.452.452,0,0,1,.32.787l-4.837,4.4,5.712,5.712a.432.432,0,0,1-.321.758h-2.39a.736.736,0,0,1-.524-.233l-5.275-5.421v5.1a.572.572,0,0,1-.554.553H291.13a.573.573,0,0,1-.554-.553Z" transform="translate(-290.576 -218.804)" fill="#fff"/>
      </g>
      <g id="Group_15" data-name="Group 15" transform="translate(129.274 0.874)">
        <path id="Path_14" data-name="Path 14" d="M301.659,221.009a1.674,1.674,0,0,1,1.662-1.719,1.705,1.705,0,1,1,0,3.41A1.667,1.667,0,0,1,301.659,221.009ZM301.98,228a.573.573,0,0,1,.553-.554h1.662a.574.574,0,0,1,.554.554v10.55a.573.573,0,0,1-.554.553h-1.662a.572.572,0,0,1-.553-.553Z" transform="translate(-301.659 -219.29)" fill="#fff"/>
      </g>
      <g id="Group_16" data-name="Group 16" transform="translate(143.495 0.291)">
        <path id="Path_15" data-name="Path 15" d="M313.52,219.5a.69.69,0,0,1,.7-.7h1.691a.708.708,0,0,1,.7.7v8.073l8.219-8.48a.746.746,0,0,1,.554-.291h2.186a.6.6,0,0,1,.408,1.049l-8.423,8.568,8.918,9.821a.617.617,0,0,1-.524.962h-2.332a.629.629,0,0,1-.524-.2l-8.482-9.558V238.5a.708.708,0,0,1-.7.7h-1.691a.69.69,0,0,1-.7-.7Z" transform="translate(-313.52 -218.804)" fill="#fff"/>
      </g>
      <g id="Group_17" data-name="Group 17" transform="translate(160.6 0.291)">
        <path id="Path_16" data-name="Path 16" d="M327.787,219.358a.574.574,0,0,1,.554-.554H330a.574.574,0,0,1,.554.554v19.293a.573.573,0,0,1-.554.553h-1.662a.573.573,0,0,1-.554-.553Z" transform="translate(-327.787 -218.804)" fill="#fff"/>
      </g>
      <g id="Group_18" data-name="Group 18" transform="translate(166.983 9.034)">
        <path id="Path_17" data-name="Path 17" d="M333.11,226.65a.574.574,0,0,1,.554-.554h1.662a.573.573,0,0,1,.553.554v5.975c0,1.893.9,2.914,2.391,2.914a3.106,3.106,0,0,0,2.885-1.923V226.65c0-.466.233-.554.641-.554h1.514a.573.573,0,0,1,.554.554V237.2a.572.572,0,0,1-.554.553h-.815c-.291,0-.438-.2-.525-.466l-.291-.845a5.267,5.267,0,0,1-3.846,1.6c-3.5,0-4.722-2.478-4.722-5.508Z" transform="translate(-333.11 -226.096)" fill="#fff"/>
      </g>
      <g id="Group_19" data-name="Group 19" transform="translate(181.525 0.291)">
        <path id="Path_18" data-name="Path 18" d="M345.239,219.358a.574.574,0,0,1,.554-.554h1.691a.573.573,0,0,1,.553.554V227.9a7.048,7.048,0,0,1,2.8-.64,5.879,5.879,0,0,1,5.741,6.12c0,3.351-2.361,6.121-5.449,6.121a5.21,5.21,0,0,1-3.7-1.633l-.234.845c-.086.291-.261.5-.524.5h-.874a.573.573,0,0,1-.554-.553Zm5.537,17.631c1.866,0,3.09-1.661,3.09-3.614a3.386,3.386,0,0,0-3.322-3.585,4.985,4.985,0,0,0-2.536.67v4.78A3.136,3.136,0,0,0,350.776,236.989Z" transform="translate(-345.239 -218.804)" fill="#fff"/>
      </g>
      <g id="Group_20" data-name="Group 20" transform="translate(200.641 0.291)">
        <path id="Path_19" data-name="Path 19" d="M366.487,221.544h-4.75a.554.554,0,0,1-.554-.554v-1.632a.554.554,0,0,1,.554-.554h12.532a.554.554,0,0,1,.554.554v1.632a.554.554,0,0,1-.554.554h-4.75v17.107a.573.573,0,0,1-.554.553h-1.923a.573.573,0,0,1-.554-.553Z" transform="translate(-361.183 -218.804)" fill="#fff"/>
      </g>
      <g id="Group_21" data-name="Group 21" transform="translate(214.542 9.034)">
        <path id="Path_20" data-name="Path 20" d="M372.777,226.65a.574.574,0,0,1,.554-.554h1.662a.574.574,0,0,1,.553.554v5.975c0,1.893.9,2.914,2.39,2.914a3.106,3.106,0,0,0,2.886-1.923V226.65c0-.466.233-.554.641-.554h1.514a.573.573,0,0,1,.554.554V237.2a.572.572,0,0,1-.554.553h-.815c-.291,0-.438-.2-.525-.466l-.291-.845a5.269,5.269,0,0,1-3.846,1.6c-3.5,0-4.721-2.478-4.721-5.508Z" transform="translate(-372.777 -226.096)" fill="#fff"/>
      </g>
      <g id="Group_22" data-name="Group 22" transform="translate(229.085 8.743)">
        <path id="Path_21" data-name="Path 21" d="M384.906,226.7a.573.573,0,0,1,.554-.554h.844a.555.555,0,0,1,.5.408l.32.992a4.152,4.152,0,0,1,3.41-1.691c1.108,0,2.448.291,2.127,1.078l-.7,1.428a.5.5,0,0,1-.7.263,2.67,2.67,0,0,0-.992-.2,3.069,3.069,0,0,0-2.622,1.428v7.4c0,.5-.321.553-.788.553h-1.4a.572.572,0,0,1-.554-.553Z" transform="translate(-384.906 -225.853)" fill="#fff"/>
      </g>
      <g id="Group_23" data-name="Group 23" transform="translate(237.623 9.034)">
        <path id="Path_22" data-name="Path 22" d="M392.086,226.854a.514.514,0,0,1,.5-.758H394.5a.632.632,0,0,1,.5.32l3.614,7.753h.03l3.5-7.753a.587.587,0,0,1,.613-.32h1.661a.5.5,0,0,1,.5.758l-8.917,19.293a.584.584,0,0,1-.5.349h-1.748a.522.522,0,0,1-.5-.787l3.905-8.364Z" transform="translate(-392.027 -226.096)" fill="#fff"/>
      </g>
      <g id="Group_24" data-name="Group 24" transform="translate(251.961 8.743)">
        <path id="Path_23" data-name="Path 23" d="M404.074,236.286l.611-1.137a.5.5,0,0,1,.729-.146,6.034,6.034,0,0,0,2.71.758c.874,0,1.428-.35,1.428-.992,0-.787-.641-1.165-2.243-1.893-1.808-.788-3.322-1.894-3.322-3.819,0-1.457,1.194-3.2,3.993-3.2a6.535,6.535,0,0,1,3.439.9.651.651,0,0,1,.233.845l-.524.992a.614.614,0,0,1-.758.233,6.66,6.66,0,0,0-2.39-.613c-.992,0-1.312.438-1.312.875,0,.758.728,1.078,1.864,1.573,2.128.933,3.876,1.837,3.876,4.021,0,1.807-1.719,3.411-4.313,3.411a6.116,6.116,0,0,1-3.848-1.2A.49.49,0,0,1,404.074,236.286Z" transform="translate(-403.986 -225.853)" fill="#fff"/>
      </g>
      <g id="Group_25" data-name="Group 25" transform="translate(262.161 5.217)">
        <path id="Path_24" data-name="Path 24" d="M414.27,229.148h-1.224a.553.553,0,0,1-.553-.554v-1.31a.535.535,0,0,1,.553-.554h1.224v-3.235a.574.574,0,0,1,.554-.554l1.662-.029a.548.548,0,0,1,.524.554v3.264h2.972a.536.536,0,0,1,.554.554v1.31a.554.554,0,0,1-.554.554H417.01v5.771c0,.99.379,1.165.933,1.165a4.737,4.737,0,0,0,1.777-.524.436.436,0,0,1,.67.261l.525,1.283a.483.483,0,0,1-.263.7,8.928,8.928,0,0,1-3.41.875c-2.3,0-2.972-1.4-2.972-3.469Z" transform="translate(-412.493 -222.912)" fill="#fff"/>
      </g>
      <g id="Group_26" data-name="Group 26" transform="translate(271.631 9.034)">
        <path id="Path_25" data-name="Path 25" d="M420.45,226.854a.515.515,0,0,1,.5-.758h1.923a.632.632,0,0,1,.5.32l3.614,7.753h.029l3.5-7.753a.586.586,0,0,1,.611-.32h1.662a.5.5,0,0,1,.5.758l-8.917,19.293a.584.584,0,0,1-.5.349h-1.748a.521.521,0,0,1-.5-.787l3.905-8.364Z" transform="translate(-420.392 -226.096)" fill="#fff"/>
      </g>
      <g id="Group_27" data-name="Group 27" transform="translate(285.882 8.743)">
        <path id="Path_26" data-name="Path 26" d="M438.4,225.853a5.162,5.162,0,0,1,4.225,2.069.569.569,0,0,1-.116.815l-.962.874c-.35.321-.554.088-.787-.116a3.242,3.242,0,0,0-2.332-1.108,3.6,3.6,0,1,0,2.681,5.858.534.534,0,0,1,.788-.059l.786.641c.291.234.408.525.2.817a5.173,5.173,0,0,1-4.518,2.448A6.07,6.07,0,0,1,432.277,232,6.2,6.2,0,0,1,438.4,225.853Z" transform="translate(-432.277 -225.853)" fill="#fff"/>
      </g>
      <g id="Group_28" data-name="Group 28" transform="translate(298.442 9.034)">
        <path id="Path_27" data-name="Path 27" d="M442.753,236.907l4.954-8.305v-.029h-4.138a.548.548,0,0,1-.525-.554V226.65a.529.529,0,0,1,.525-.554h7.519a.519.519,0,0,1,.5.787l-4.925,8.393v.03h3.847a.535.535,0,0,1,.553.553V237.2a.552.552,0,0,1-.553.553h-7.2a.573.573,0,0,1-.554-.553Z" transform="translate(-442.753 -226.096)" fill="#fff"/>
      </g>
      <g id="Group_29" data-name="Group 29" transform="translate(310.011 8.743)">
        <path id="Path_28" data-name="Path 28" d="M452.4,226.7a.574.574,0,0,1,.554-.554h.845a.473.473,0,0,1,.466.349l.35.992a5.956,5.956,0,0,1,4.079-1.632c3.556,0,4.868,2.506,4.868,5.537v5.858a.573.573,0,0,1-.554.553h-1.662a.552.552,0,0,1-.553-.553v-5.975c0-1.866-.9-2.886-2.42-2.886a3.858,3.858,0,0,0-3.235,1.749v7.111c0,.378-.175.553-.67.553h-1.515a.573.573,0,0,1-.554-.553Z" transform="translate(-452.402 -225.853)" fill="#fff"/>
      </g>
      <g id="Group_30" data-name="Group 30" transform="translate(323.097 9.034)">
        <path id="Path_29" data-name="Path 29" d="M463.375,226.854a.514.514,0,0,1,.5-.758h1.923a.632.632,0,0,1,.5.32l3.614,7.753h.029l3.5-7.753a.587.587,0,0,1,.613-.32H475.7a.5.5,0,0,1,.5.758l-8.918,19.293a.581.581,0,0,1-.5.349h-1.748a.521.521,0,0,1-.5-.787l3.905-8.364Z" transform="translate(-463.316 -226.096)" fill="#fff"/>
      </g>
      <g id="Group_31" data-name="Group 31" transform="translate(118.743 39.883)">
        <path id="Path_30" data-name="Path 30" d="M292.876,252.23a.4.4,0,0,1,.384-.405h4.777a7.463,7.463,0,1,1,0,14.926H293.26a.4.4,0,0,1-.384-.405Zm4.819,13.05a6,6,0,1,0,0-12h-3.2v12Z" transform="translate(-292.876 -251.825)" fill="#61666f"/>
      </g>
      <g id="Group_32" data-name="Group 32" transform="translate(133.67 46.281)">
        <path id="Path_31" data-name="Path 31" d="M305.326,257.565a.419.419,0,0,1,.4-.4h.682a.419.419,0,0,1,.406.4v4.5c0,1.621.724,2.41,1.918,2.41a3.37,3.37,0,0,0,2.537-1.216v-5.694a.419.419,0,0,1,.405-.4h.662a.419.419,0,0,1,.4.4v7.719a.419.419,0,0,1-.4.405h-.405c-.235,0-.32-.149-.384-.362l-.15-.555a3.891,3.891,0,0,1-2.772,1.131c-2.473,0-3.3-1.6-3.3-3.859Z" transform="translate(-305.326 -257.161)" fill="#61666f"/>
      </g>
      <g id="Group_33" data-name="Group 33" transform="translate(143.563 46.067)">
        <path id="Path_32" data-name="Path 32" d="M313.62,264.531c.085-.127.235-.426.3-.532a.4.4,0,0,1,.576-.065,3.6,3.6,0,0,0,2,.747c.874,0,1.386-.448,1.386-1.024,0-.746-.639-1.087-1.876-1.7-1.131-.555-2.432-1.3-2.432-2.752a2.4,2.4,0,0,1,2.708-2.217,4.356,4.356,0,0,1,2.367.661.513.513,0,0,1,.128.661l-.17.342a.469.469,0,0,1-.619.192,4.245,4.245,0,0,0-1.706-.512c-.959,0-1.216.49-1.216.854,0,.7.7,1.023,1.578,1.449,1.472.7,2.794,1.365,2.794,2.9a2.7,2.7,0,0,1-2.942,2.41,4.326,4.326,0,0,1-2.772-.959A.425.425,0,0,1,313.62,264.531Z" transform="translate(-313.577 -256.983)" fill="#61666f"/>
      </g>
      <g id="Group_34" data-name="Group 34" transform="translate(150.963 46.281)">
        <path id="Path_33" data-name="Path 33" d="M319.749,265.071l4.178-6.5V258.5h-3.581a.4.4,0,0,1-.384-.405v-.534a.387.387,0,0,1,.384-.4H325.7a.38.38,0,0,1,.362.576l-4.073,6.545v.065h3.284a.392.392,0,0,1,.405.405v.532a.4.4,0,0,1-.405.405h-5.117a.419.419,0,0,1-.405-.405Z" transform="translate(-319.749 -257.161)" fill="#61666f"/>
      </g>
      <g id="Group_35" data-name="Group 35" transform="translate(159.513 46.067)">
        <path id="Path_34" data-name="Path 34" d="M328.351,271.717a.418.418,0,0,1-.4.4h-.662a.419.419,0,0,1-.405-.4V257.6a.419.419,0,0,1,.405-.4h.448c.192,0,.255.064.341.277l.15.405a3.8,3.8,0,0,1,2.474-.9,4.5,4.5,0,0,1-.065,8.955,3.874,3.874,0,0,1-2.282-.7Zm2.09-7.207a2.855,2.855,0,0,0,2.794-3.05c0-1.663-.981-3.134-2.687-3.134a2.9,2.9,0,0,0-2.175,1.046v4.392A3.573,3.573,0,0,0,330.441,264.51Z" transform="translate(-326.88 -256.983)" fill="#61666f"/>
      </g>
      <g id="Group_36" data-name="Group 36" transform="translate(169.152 46.067)">
        <path id="Path_35" data-name="Path 35" d="M338.331,260.309a7.011,7.011,0,0,1,1.812.277c.022-1.578-.17-2.3-1.386-2.3a7.479,7.479,0,0,0-2.559.47c-.213.085-.34-.022-.405-.213l-.17-.534a.343.343,0,0,1,.235-.469,8.022,8.022,0,0,1,2.964-.554c2.175,0,2.707,1.108,2.707,3.6v4.734a.419.419,0,0,1-.405.405h-.405c-.234,0-.3-.128-.362-.32l-.17-.576a3.7,3.7,0,0,1-2.644,1.109,2.59,2.59,0,0,1-2.623-2.794C334.919,261.525,336.135,260.309,338.331,260.309Zm-.555,4.35a3.025,3.025,0,0,0,2.346-1.194V261.78a3.832,3.832,0,0,0-1.791-.341c-1.194,0-2.048.6-2.048,1.7A1.438,1.438,0,0,0,337.776,264.659Z" transform="translate(-334.919 -256.983)" fill="#61666f"/>
      </g>
      <g id="Group_37" data-name="Group 37" transform="translate(178.171 46.067)">
        <path id="Path_36" data-name="Path 36" d="M342.485,264.531c.085-.127.234-.426.3-.532a.4.4,0,0,1,.576-.065,3.6,3.6,0,0,0,2,.747c.874,0,1.385-.448,1.385-1.024,0-.746-.639-1.087-1.875-1.7-1.131-.555-2.432-1.3-2.432-2.752a2.4,2.4,0,0,1,2.709-2.217,4.359,4.359,0,0,1,2.367.661.513.513,0,0,1,.127.661l-.17.342a.468.468,0,0,1-.617.192,4.245,4.245,0,0,0-1.706-.512c-.96,0-1.216.49-1.216.854,0,.7.7,1.023,1.578,1.449,1.471.7,2.794,1.365,2.794,2.9a2.7,2.7,0,0,1-2.942,2.41,4.326,4.326,0,0,1-2.772-.959A.423.423,0,0,1,342.485,264.531Z" transform="translate(-342.442 -256.983)" fill="#61666f"/>
      </g>
      <g id="Group_38" data-name="Group 38" transform="translate(185.378 43.465)">
        <path id="Path_37" data-name="Path 37" d="M349.946,258.907h-1.088a.406.406,0,0,1-.405-.405v-.47a.392.392,0,0,1,.405-.4h1.088V255.26a.419.419,0,0,1,.405-.4l.682-.043a.4.4,0,0,1,.384.405v2.41h2.474a.392.392,0,0,1,.405.4v.47a.405.405,0,0,1-.405.405h-2.474V263.9c0,.852.213,1.024.7,1.024a4.075,4.075,0,0,0,1.556-.469c.32-.171.405-.043.512.127l.32.534c.149.255.085.384-.15.534a5.588,5.588,0,0,1-2.452.724c-1.7,0-1.962-1.024-1.962-2.345Z" transform="translate(-348.453 -254.813)" fill="#61666f"/>
      </g>
      <g id="Group_39" data-name="Group 39" transform="translate(192.991 46.067)">
        <path id="Path_38" data-name="Path 38" d="M358.982,256.983a3.765,3.765,0,0,1,3.859,3.9,5.144,5.144,0,0,1-.043.576.393.393,0,0,1-.384.363h-6.141a3,3,0,0,0,2.857,2.772,4.058,4.058,0,0,0,2.111-.64c.3-.17.427-.277.6-.042.128.17.235.319.362.49.15.192.235.319-.085.554a5.3,5.3,0,0,1-3.134.981,4.488,4.488,0,0,1,0-8.955Zm2.388,3.646a2.464,2.464,0,0,0-2.388-2.346,2.652,2.652,0,0,0-2.687,2.346Z" transform="translate(-354.802 -256.983)" fill="#61666f"/>
      </g>
      <g id="Group_40" data-name="Group 40" transform="translate(203.354 46.067)">
        <path id="Path_39" data-name="Path 39" d="M363.445,257.6a.419.419,0,0,1,.405-.4h.405a.361.361,0,0,1,.362.3l.171.617a3.154,3.154,0,0,1,2.559-1.129c.64,0,1.706.107,1.493.7l-.257.724c-.105.278-.3.278-.511.192a2.209,2.209,0,0,0-.832-.17,2.737,2.737,0,0,0-2.324,1.194v5.693a.419.419,0,0,1-.405.405h-.662a.419.419,0,0,1-.405-.405Z" transform="translate(-363.445 -256.983)" fill="#61666f"/>
      </g>
      <g id="Group_41" data-name="Group 41" transform="translate(209.922 46.067)">
        <path id="Path_40" data-name="Path 40" d="M368.966,264.531c.085-.127.234-.426.3-.532a.4.4,0,0,1,.575-.065,3.6,3.6,0,0,0,2,.747c.874,0,1.386-.448,1.386-1.024,0-.746-.64-1.087-1.876-1.7-1.131-.555-2.431-1.3-2.431-2.752a2.4,2.4,0,0,1,2.708-2.217,4.359,4.359,0,0,1,2.367.661.515.515,0,0,1,.128.661l-.171.342a.468.468,0,0,1-.617.192,4.245,4.245,0,0,0-1.706-.512c-.959,0-1.216.49-1.216.854,0,.7.7,1.023,1.578,1.449,1.471.7,2.794,1.365,2.794,2.9a2.7,2.7,0,0,1-2.942,2.41,4.326,4.326,0,0,1-2.772-.959A.425.425,0,0,1,368.966,264.531Z" transform="translate(-368.923 -256.983)" fill="#61666f"/>
      </g>
      <g id="Group_42" data-name="Group 42" transform="translate(217.129 43.465)">
        <path id="Path_41" data-name="Path 41" d="M376.427,258.907h-1.087a.406.406,0,0,1-.405-.405v-.47a.392.392,0,0,1,.405-.4h1.087V255.26a.419.419,0,0,1,.405-.4l.682-.043a.4.4,0,0,1,.384.405v2.41h2.473a.391.391,0,0,1,.405.4v.47a.405.405,0,0,1-.405.405H377.9V263.9c0,.852.213,1.024.7,1.024a4.075,4.075,0,0,0,1.556-.469c.32-.171.405-.043.512.127l.32.534c.149.255.085.384-.15.534a5.582,5.582,0,0,1-2.452.724c-1.7,0-1.962-1.024-1.962-2.345Z" transform="translate(-374.934 -254.813)" fill="#61666f"/>
      </g>
      <g id="Group_43" data-name="Group 43" transform="translate(224.518 46.067)">
        <path id="Path_42" data-name="Path 42" d="M381.128,257.687c-.085-.3,0-.49.32-.49h.661a.393.393,0,0,1,.385.234l1.556,5.629h.022l2.409-5.863a.379.379,0,0,1,.363-.213h.105a.38.38,0,0,1,.363.213l2.388,5.885h.02l1.536-5.651a.381.381,0,0,1,.362-.234h.662c.319,0,.4.192.319.49l-2.324,8.038a.368.368,0,0,1-.363.213h-.105a.38.38,0,0,1-.363-.213l-2.6-6.4-2.517,6.4a.378.378,0,0,1-.362.213h-.107a.35.35,0,0,1-.363-.213Z" transform="translate(-381.097 -256.983)" fill="#61666f"/>
      </g>
      <g id="Group_44" data-name="Group 44" transform="translate(237.62 46.067)">
        <path id="Path_43" data-name="Path 43" d="M395.437,260.309a7.01,7.01,0,0,1,1.812.277c.022-1.578-.17-2.3-1.386-2.3a7.485,7.485,0,0,0-2.559.47c-.212.085-.341-.022-.4-.213l-.171-.534a.343.343,0,0,1,.235-.469,8.028,8.028,0,0,1,2.964-.554c2.175,0,2.707,1.108,2.707,3.6v4.734a.419.419,0,0,1-.4.405h-.405c-.235,0-.3-.128-.363-.32l-.17-.576a3.694,3.694,0,0,1-2.644,1.109,2.59,2.59,0,0,1-2.623-2.794C392.025,261.525,393.241,260.309,395.437,260.309Zm-.555,4.35a3.025,3.025,0,0,0,2.346-1.194V261.78a3.832,3.832,0,0,0-1.791-.341c-1.194,0-2.047.6-2.047,1.7A1.438,1.438,0,0,0,394.882,264.659Z" transform="translate(-392.025 -256.983)" fill="#61666f"/>
      </g>
      <g id="Group_45" data-name="Group 45" transform="translate(251.546 52.592)">
        <path id="Path_44" data-name="Path 44" d="M404.9,262.425c.682,0,1.408.384,1.408,1.918a5.862,5.862,0,0,1-1.791,3.945c-.213.192-.384.171-.512.043l-.3-.3c-.107-.107-.085-.32.128-.512a3.639,3.639,0,0,0,1.321-2.687,1.022,1.022,0,0,1-.255.022,1.228,1.228,0,0,1-1.216-1.216A1.214,1.214,0,0,1,404.9,262.425Zm3.838,0c.682,0,1.408.384,1.408,1.918a5.861,5.861,0,0,1-1.791,3.945c-.213.192-.384.171-.512.043l-.3-.3c-.107-.107-.085-.32.128-.512a3.634,3.634,0,0,0,1.321-2.687,1.021,1.021,0,0,1-.255.022,1.229,1.229,0,0,1-1.216-1.216A1.215,1.215,0,0,1,408.734,262.425Z" transform="translate(-403.64 -262.425)" fill="#61666f"/>
      </g>
      <g id="Group_46" data-name="Group 46" transform="translate(261.183 39.883)">
        <path id="Path_45" data-name="Path 45" d="M411.677,252.23a.405.405,0,0,1,.405-.405H416.8a4.755,4.755,0,1,1,.02,9.51H413.3v5.011a.419.419,0,0,1-.405.405h-.81a.405.405,0,0,1-.405-.405Zm5.012,7.527a3.258,3.258,0,0,0,3.241-3.262,3.147,3.147,0,0,0-3.241-3.049H413.3v6.311Z" transform="translate(-411.677 -251.825)" fill="#61666f"/>
      </g>
      <g id="Group_47" data-name="Group 47" transform="translate(273.892 39.883)">
        <path id="Path_46" data-name="Path 46" d="M422.277,252.23a.419.419,0,0,1,.405-.405h.853a.419.419,0,0,1,.405.405v14.116a.419.419,0,0,1-.405.405h-.853a.419.419,0,0,1-.405-.405Z" transform="translate(-422.277 -251.825)" fill="#61666f"/>
      </g>
      <g id="Group_48" data-name="Group 48" transform="translate(277.815 39.669)">
        <path id="Path_47" data-name="Path 47" d="M425.592,266.233l6.483-14.351a.384.384,0,0,1,.362-.235h.213a.384.384,0,0,1,.362.235l6.44,14.351a.376.376,0,0,1-.362.554h-.278a3,3,0,0,0-1,2.111,1.214,1.214,0,0,0,1.215,1.216,2.322,2.322,0,0,0,1.173-.342c.171-.085.385.022.385.3v.534c0,.192-.15.277-.3.362a3.609,3.609,0,0,1-1.493.32,2.078,2.078,0,0,1-2.26-2.175,3.307,3.307,0,0,1,1.364-2.5l-1.6-3.583h-7.57l-1.556,3.519a.392.392,0,0,1-.362.234h-.854A.376.376,0,0,1,425.592,266.233Zm10.129-4.52-3.114-6.995h-.17l-3.114,6.995Z" transform="translate(-425.549 -251.647)" fill="#61666f"/>
      </g>
      <g id="Group_49" data-name="Group 49" transform="translate(291.207 39.883)">
        <path id="Path_48" data-name="Path 48" d="M440.834,253.254h-3.71a.4.4,0,0,1-.405-.405v-.619a.4.4,0,0,1,.405-.405h9.04a.4.4,0,0,1,.405.405v.619a.4.4,0,0,1-.405.405h-3.71v13.092a.419.419,0,0,1-.405.405h-.81a.419.419,0,0,1-.405-.405Z" transform="translate(-436.719 -251.825)" fill="#61666f"/>
      </g>
      <g id="Group_50" data-name="Group 50" transform="translate(303.405 39.883)">
        <path id="Path_49" data-name="Path 49" d="M446.892,252.337a.505.505,0,0,1,.511-.512h.619a.519.519,0,0,1,.512.512v6.034l6.653-6.333a.632.632,0,0,1,.405-.213h1.044a.411.411,0,0,1,.257.747l-6.738,6.29,7.057,7.229a.419.419,0,0,1-.362.661h-1.088a.585.585,0,0,1-.384-.149l-6.845-7.144v6.781a.518.518,0,0,1-.512.511H447.4a.5.5,0,0,1-.511-.511Z" transform="translate(-446.892 -251.825)" fill="#61666f"/>
      </g>
      <g id="Group_51" data-name="Group 51" transform="translate(314.493 39.669)">
        <path id="Path_50" data-name="Path 50" d="M456.183,266.233l6.482-14.351a.384.384,0,0,1,.362-.235h.213a.384.384,0,0,1,.362.235l6.44,14.351a.376.376,0,0,1-.362.554h-.852a.394.394,0,0,1-.363-.234l-1.578-3.519h-7.569l-1.556,3.519a.4.4,0,0,1-.363.234h-.852A.376.376,0,0,1,456.183,266.233Zm10.128-4.52c-1.044-2.325-2.068-4.67-3.113-6.995h-.171l-3.113,6.995Z" transform="translate(-456.14 -251.647)" fill="#61666f"/>
      </g>
      <g id="Group_52" data-name="Group 52" transform="translate(329.1 39.649)">
        <path id="Path_51" data-name="Path 51" d="M468.386,257.238c-.107-.107-.086-.32.127-.512a3.637,3.637,0,0,0,1.322-2.687,1.02,1.02,0,0,1-.255.022,1.228,1.228,0,0,1-1.216-1.216,1.214,1.214,0,0,1,1.216-1.215c.682,0,1.406.384,1.406,1.918a5.856,5.856,0,0,1-1.791,3.945c-.213.192-.384.171-.512.043Zm3.838,0c-.107-.107-.085-.32.127-.512a3.637,3.637,0,0,0,1.322-2.687,1.02,1.02,0,0,1-.255.022,1.228,1.228,0,0,1-1.216-1.216,1.214,1.214,0,0,1,1.216-1.215c.682,0,1.406.384,1.406,1.918a5.861,5.861,0,0,1-1.791,3.945c-.212.192-.382.171-.511.043Z" transform="translate(-468.323 -251.63)" fill="#61666f"/>
      </g>
    </g>
  </g>
</svg>
