<?xml version="1.0" encoding="utf-8"?>
<!-- Generator: Adobe Illustrator 25.4.1, SVG Export Plug-In . SVG Version: 6.00 Build 0)  -->
<svg version="1.1" id="Warstwa_1" xmlns="http://www.w3.org/2000/svg" xmlns:xlink="http://www.w3.org/1999/xlink" x="0px" y="0px"
	 viewBox="0 0 1400 230" style="enable-background:new 0 0 1400 230;" xml:space="preserve">
<style type="text/css">
	.st0{fill:#4A4E6A;}
	.st1{opacity:0.5;fill:#FFFFFF;enable-background:new    ;}
	.st2{opacity:0.5;}
	.st3{fill:#FFFFFF;}
	.st4{opacity:0.8;fill:url(#SVGID_1_);}
	.st5{fill:none;}
	.st6{font-family:'Lato-Black';}
	.st7{font-size:50px;}
	.st8{font-family:'Lato-Light';}
</style>
<g>
	<g>
		<rect class="st0" width="1400" height="230"/>
	</g>
</g>
<path class="st1" d="M408.2,113.4c-0.8,0-1.5,0.2-2.2,0.4c-2.2,0.9-3.6,2.9-3.6,5c0,2.9,2.5,5.1,5.6,5.1c3.3,0,5.4-2.6,5.4-5
	C413.4,117.1,412.1,113.4,408.2,113.4z"/>
<path class="st1" d="M415,131.7c-0.8,0-1.5,0.1-2.2,0.4c-2.2,0.9-3.6,2.9-3.6,5c0,2.9,2.5,5.1,5.6,5.1c3.3,0,5.4-2.6,5.4-5
	C420.2,135.5,418.9,131.7,415,131.7z"/>
<path class="st1" d="M870.4,112.7c-0.8,0-1.5,0.2-2.2,0.4c-2.2,0.9-3.6,2.9-3.6,5c0,2.9,2.5,5.1,5.6,5.1c3.3,0,5.4-2.6,5.4-5
	C875.7,116.5,874.4,112.7,870.4,112.7z"/>
<path class="st1" d="M1233.8,18c-1,0-1.9,0.2-2.8,0.6c-2.8,1.2-4.6,3.7-4.6,6.4c0,3.7,3.2,6.6,7.2,6.6c4.3,0,7-3.4,7-6.4
	C1240.6,22.9,1238.9,18,1233.8,18z"/>
<path class="st1" d="M1363.2,148.9c-0.6,0-1.2,0.1-1.8,0.4c-1.8,0.8-2.9,2.4-2.9,4.1c0,2.4,2,4.2,4.6,4.2c2.7,0,4.4-2.1,4.4-4.1
	C1367.5,151.9,1366.4,148.9,1363.2,148.9z"/>
<path class="st1" d="M1344.6,164.9c-0.9,0-1.7,0.2-2.5,0.5c-2.5,1.1-4.2,3.3-4.2,5.8c0,3.3,2.8,5.9,6.5,5.9c3.9,0,6.3-3,6.3-5.8
	C1350.7,169.3,1349.2,164.9,1344.6,164.9z"/>
<path class="st1" d="M1360.5,182.3c-0.6,0-1.2,0.1-1.8,0.4c-1.8,0.8-2.9,2.4-2.9,4.1c0,2.4,2,4.2,4.6,4.2c2.7,0,4.4-2.1,4.4-4.1
	C1364.8,185.4,1363.8,182.3,1360.5,182.3z"/>
<path class="st1" d="M1216.8,36.9c-0.6,0-1.2,0.1-1.8,0.4c-1.8,0.8-2.9,2.3-2.9,4.1c0,2.3,2,4.2,4.6,4.2c2.7,0,4.4-2.1,4.4-4.1
	C1221.1,40,1220,36.9,1216.8,36.9z"/>
<path class="st1" d="M386.7,129.6c-0.9,0-1.8,0.2-2.6,0.5c-2.6,1.1-4.3,3.4-4.3,6c0,3.4,3,6.1,6.7,6.1c4,0,6.5-3.1,6.5-6
	C393,134.1,391.5,129.6,386.7,129.6z"/>
<path class="st1" d="M1104.6,145c-1.1,0-2,0.2-3,0.6c-3,1.3-5,4-5,6.9c0,4,3.4,7.1,7.8,7.1c4.6,0,7.5-3.6,7.5-6.9
	C1111.8,150.2,1110.1,145,1104.6,145z"/>
<path class="st1" d="M1104.5,169c-0.8,0-1.6,0.2-2.3,0.5c-2.3,1-3.8,3.1-3.8,5.4c0,3.1,2.6,5.5,6,5.5c3.6,0,5.8-2.8,5.8-5.4
	C1110.1,173,1108.7,169,1104.5,169z"/>
<path class="st1" d="M1104.4,191.1c-0.6,0-1.2,0.1-1.7,0.4c-1.7,0.7-2.9,2.3-2.9,4c0,2.3,2,4.1,4.5,4.1c2.7,0,4.4-2.1,4.4-4
	C1108.7,194.1,1107.6,191.1,1104.4,191.1z"/>
<path class="st1" d="M1226.7,55.9c-1.1,0-2,0.2-3,0.6c-3,1.3-5,4-5,6.9c0,4,3.4,7.1,7.8,7.1c4.6,0,7.5-3.6,7.5-6.9
	C1234,61.1,1232.2,55.9,1226.7,55.9z"/>
<g class="st2">
	<g>
		<path class="st3" d="M544,91c-1.8,0-3.2-1.4-3.2-3.1c0-1.7,1.4-3.1,3.2-3.1h17.1c1.8,0,3.2,1.4,3.2,3.1c0,1.7-1.4,3.1-3.2,3.1H544
			z"/>
	</g>
	<g>
		<path class="st3" d="M553.1,98.8c-0.8,0-1.7-0.3-2.3-0.9c-1.3-1.2-1.3-3.2,0-4.4l5.8-5.6l-5.8-5.6c-1.3-1.2-1.3-3.2,0-4.4
			s3.3-1.2,4.6,0l8,7.8c0.6,0.6,1,1.4,1,2.2c0,0.8-0.3,1.6-1,2.2l-8.1,7.8C554.7,98.5,553.9,98.8,553.1,98.8z"/>
	</g>
</g>
<g class="st2">
	<g>
		<path class="st3" d="M575.9,113.7c-1.8,0-3.2-1.4-3.2-3.1c0-1.7,1.4-3.1,3.2-3.1H593c1.8,0,3.2,1.4,3.2,3.1c0,1.7-1.5,3.1-3.2,3.1
			H575.9z"/>
	</g>
	<g>
		<path class="st3" d="M585,121.5c-0.8,0-1.7-0.3-2.3-0.9c-1.3-1.2-1.3-3.2,0-4.4l5.8-5.6l-5.8-5.6c-1.3-1.2-1.3-3.2,0-4.4
			s3.3-1.2,4.6,0l8,7.8c0.6,0.6,1,1.4,1,2.2c0,0.8-0.3,1.6-1,2.2l-8.1,7.8C586.6,121.2,585.8,121.5,585,121.5z"/>
	</g>
</g>
<g class="st2">
	<path class="st3" d="M200.5,142c-0.9,0-1.7-0.3-2.3-0.9l-8.1-7.8c-1.3-1.2-1.3-3.2,0-4.4c1.3-1.2,3.3-1.2,4.6,0l5.8,5.6l9.8-9.5
		c1.3-1.2,3.3-1.2,4.6,0s1.3,3.2,0,4.4l-12.1,11.7C202.1,141.7,201.3,142,200.5,142z"/>
</g>
<path class="st1" d="M920.5,207h-14.8c-1.6,0-2.8-1.2-2.8-2.8v-20.9h-10.5c-1.6,0-2.8-1.2-2.8-2.8v-14.3c0-1.5,1.3-2.8,2.8-2.8H903
	v-10.8c0-1.5,1.3-2.8,2.8-2.8h14.8c1.6,0,2.8,1.2,2.8,2.8v10.8h10.5c1.6,0,2.8,1.2,2.8,2.8v14.3c0,1.5-1.3,2.8-2.8,2.8h-10.5v20.9
	C923.4,205.8,922.1,207,920.5,207L920.5,207z M908.6,201.5h9.1v-20.9c0-1.5,1.3-2.8,2.8-2.8h10.5V169h-10.5c-1.6,0-2.8-1.2-2.8-2.8
	v-10.8h-9.1v10.8c0,1.5-1.3,2.8-2.8,2.8h-10.5v8.8h10.5c1.6,0,2.8,1.2,2.8,2.8V201.5z"/>
<g class="st2">
	<g>
		<path class="st3" d="M1172.4,52.8c1.8,0,3.2,1.4,3.2,3.1s-1.4,3.1-3.2,3.1h-17.1c-1.8,0-3.2-1.4-3.2-3.1s1.4-3.1,3.2-3.1H1172.4z"
			/>
	</g>
	<g>
		<path class="st3" d="M1163.3,45c0.8,0,1.7,0.3,2.3,0.9c1.3,1.2,1.3,3.2,0,4.4l-5.8,5.6l5.8,5.6c1.3,1.2,1.3,3.2,0,4.4
			s-3.3,1.2-4.6,0l-8.1-7.8c-0.6-0.6-0.9-1.4-0.9-2.2c0-0.8,0.3-1.6,0.9-2.2l8.1-7.8C1161.7,45.3,1162.5,45,1163.3,45z"/>
	</g>
</g>
<path class="st1" d="M1027.5,57.1c-0.4,0-0.8-0.1-1.1-0.3l-7.7-3.9l-7.7,3.9c-0.3,0.2-0.7,0.2-1.1,0.2c-0.5,0-0.9-0.1-1.3-0.4
	c-0.7-0.5-1.1-1.4-0.9-2.2l1.5-8.3l-6.2-5.9c-0.6-0.6-0.8-1.5-0.6-2.3c0.3-0.8,1-1.4,1.8-1.5l8.6-1.2l3.9-7.6c0.4-0.8,1.2-1.2,2-1.2
	c0.9,0,1.7,0.5,2,1.2l3.8,7.6l8.6,1.2c0.9,0.1,1.6,0.7,1.8,1.5s0.1,1.7-0.6,2.3l-6.2,5.9l1.5,8.3c0.2,0.8-0.2,1.7-0.9,2.2
	C1028.4,57,1028,57.1,1027.5,57.1z M1018.7,48.2c0.4,0,0.7,0.1,1.1,0.2l4.7,2.4l-0.9-5c-0.1-0.7,0.1-1.5,0.7-2l3.8-3.6l-5.2-0.7
	c-0.7-0.1-1.4-0.5-1.7-1.2l-2.3-4.6l-2.3,4.6c-0.3,0.7-1,1.1-1.7,1.2l-5.2,0.7l3.8,3.6c0.5,0.5,0.8,1.2,0.7,2l-0.9,5l4.7-2.4
	C1018,48.3,1018.3,48.2,1018.7,48.2z"/>
<path class="st1" d="M1166.8,204.3c-0.4,0-0.7-0.1-1-0.2l-7.3-3.7l-7.3,3.7c-0.3,0.2-0.7,0.2-1,0.2c-0.4,0-0.9-0.1-1.3-0.4
	c-0.7-0.5-1-1.3-0.9-2.1l1.4-7.9l-5.9-5.6c-0.6-0.6-0.8-1.4-0.6-2.2c0.2-0.8,0.9-1.3,1.7-1.4l8.2-1.1l3.7-7.2
	c0.4-0.7,1.1-1.2,1.9-1.2s1.6,0.4,1.9,1.2l3.7,7.2l8.2,1.1c0.8,0.1,1.5,0.7,1.8,1.4c0.3,0.8,0.1,1.6-0.6,2.2l-5.9,5.6l1.4,7.9
	c0.2,0.8-0.2,1.6-0.9,2.1C1167.7,204.2,1167.2,204.3,1166.8,204.3z M1158.4,195.9c0.3,0,0.7,0.1,1,0.2l4.4,2.3l-0.8-4.8
	c-0.1-0.7,0.1-1.4,0.6-1.9l3.6-3.4l-4.9-0.7c-0.7-0.1-1.3-0.5-1.6-1.1l-2.2-4.4l-2.2,4.4c-0.3,0.6-0.9,1.1-1.6,1.1l-4.9,0.7l3.6,3.4
	c0.5,0.5,0.7,1.2,0.6,1.9l-0.8,4.8l4.4-2.3C1157.8,195.9,1158.1,195.9,1158.4,195.9z"/>
<path class="st1" d="M374.1,59.7c-0.4,0-0.7-0.1-1-0.2l-7.3-3.7l-7.3,3.7c-0.3,0.2-0.7,0.2-1,0.2c-0.5,0-0.9-0.1-1.3-0.4
	c-0.7-0.5-1-1.3-0.9-2.1l1.4-7.9l-5.9-5.6c-0.6-0.6-0.8-1.4-0.5-2.2c0.2-0.8,0.9-1.3,1.7-1.4l8.2-1.2l3.7-7.2
	c0.4-0.7,1.1-1.2,1.9-1.2c0.8,0,1.6,0.5,2,1.2l3.6,7.2l8.2,1.2c0.8,0.1,1.5,0.7,1.8,1.4c0.3,0.8,0,1.6-0.5,2.2l-5.9,5.6l1.4,7.9
	c0.1,0.8-0.2,1.6-0.9,2.1C375,59.6,374.6,59.7,374.1,59.7z M365.8,51.3c0.4,0,0.7,0.1,1,0.2l4.4,2.3l-0.8-4.8
	c-0.1-0.7,0.1-1.4,0.6-1.9l3.6-3.4l-5-0.7c-0.7-0.1-1.3-0.5-1.6-1.2l-2.2-4.3l-2.2,4.3c-0.3,0.6-0.9,1.1-1.6,1.2l-4.9,0.7l3.6,3.4
	c0.5,0.5,0.7,1.2,0.6,1.9l-0.9,4.8l4.4-2.3C365.1,51.3,365.5,51.3,365.8,51.3z"/>
<path class="st1" d="M1193.4,38.7c0.8,0,1.6-0.2,2.3-0.5c2.3-1,3.8-3.1,3.8-5.3c0-3.1-2.6-5.5-6-5.5c-3.6,0-5.8,2.8-5.8,5.3
	C1187.7,34.7,1189.1,38.7,1193.4,38.7z"/>
<g class="st2">
	<path class="st3" d="M719.8,29.4H587.7c-1.8,0-3.2-1.4-3.2-3.1s1.4-3.1,3.2-3.1h132.1c1.8,0,3.2,1.4,3.2,3.1S721.5,29.4,719.8,29.4
		z"/>
</g>
<g class="st2">
	<path class="st3" d="M681.9,49.6H549.8c-1.8,0-3.2-1.4-3.2-3.1s1.4-3.1,3.2-3.1h132.1c1.8,0,3.2,1.4,3.2,3.1S683.7,49.6,681.9,49.6
		z"/>
</g>
<g class="st2">
	<path class="st3" d="M897.5,113.9h-6.2V31.8h60.9c3.7,0,6.8,3,6.8,6.6v69c0,3.6-3,6.6-6.8,6.6h-41.1v9.3l-6.8-4.4l-6.8,4.4
		L897.5,113.9L897.5,113.9z M906.8,115.4v-1.5h-2.3L906.8,115.4z M901.8,115.4l2.3-1.5h-2.3V115.4z M952.2,109.8
		c1.4,0,2.5-1.1,2.5-2.4V88.5h-5v21.3C949.7,109.8,952.2,109.8,952.2,109.8z M945.4,109.8V36H942v73.8
		C942,109.8,945.4,109.8,945.4,109.8z M937.7,109.8V88.5h-42v21.3C895.7,109.8,937.7,109.8,937.7,109.8z M954.7,84.3V61.5h-5v22.8
		H954.7z M937.7,84.3V61.5h-42v22.8H937.7z M954.7,57.3V38.4c0-1.3-1.1-2.4-2.5-2.4h-2.5v21.3H954.7z M937.7,57.3V36h-42v21.3H937.7
		z"/>
	<path class="st3" d="M952.2,32.4H892v80.9h6.2v8.8l6.2-4l6.2,4v-8.8h41.7c3.4,0,6.2-2.7,6.2-6v-69
		C958.4,35.1,955.6,32.4,952.2,32.4L952.2,32.4z M895,35.4h43.2v22.5H895V35.4z M938.3,84.9H895v-24h43.2V84.9z M907.4,116.5l-3.1-2
		l-3.1,2v-3.2h6.2L907.4,116.5L907.4,116.5z M910.5,110.3H895V87.9h43.2v22.5L910.5,110.3L910.5,110.3z M941.4,110.3v-75h4.6v75
		H941.4z M949.1,60.9h6.2v24h-6.2V60.9z M955.3,107.3c0,1.7-1.4,3-3.1,3h-3.1V87.9h6.2L955.3,107.3L955.3,107.3z M949.1,57.9V35.4
		h3.1c1.7,0,3.1,1.3,3.1,3v19.5H949.1z"/>
	<path class="st3" d="M973.8,122.9c-1.2,0-2.1-0.9-2.1-2.1v-2.4l-6.2-10.5v-71c0-2.8,2.3-5.1,5.2-5.1h6.2c2.9,0,5.2,2.3,5.2,5.1v71
		l-6.2,10.5v2.4C976,122,975,122.9,973.8,122.9z M973.8,113.6l2.5-4.2h-5L973.8,113.6z M977.8,105.2V52.5h-8.1v52.8H977.8z
		 M977.8,48.3v-1.8h-8.1v1.8H977.8z M977.8,42.3v-5.4c0-0.5-0.4-0.9-0.9-0.9h-6.2c-0.5,0-0.9,0.4-0.9,0.9v5.4H977.8z"/>
	<path class="st3" d="M976.9,32.4h-6.2c-2.5,0-4.6,2-4.6,4.5v70.9l6.2,10.5v2.6c0,0.8,0.7,1.5,1.5,1.5c0.9,0,1.5-0.7,1.5-1.5v-2.6
		l6.2-10.5V36.9C981.5,34.4,979.5,32.4,976.9,32.4L976.9,32.4z M969.2,45.9h9.3v3h-9.3V45.9z M973.8,114.8l-3.5-6h7L973.8,114.8z
		 M978.5,105.8h-9.3v-54h9.3V105.8z M969.2,42.9v-6c0-0.8,0.7-1.5,1.5-1.5h6.2c0.8,0,1.5,0.7,1.5,1.5v6H969.2z"/>
</g>
<g class="st2">
	<path class="st3" d="M758.5,47.7c0.5,0.5,1.2,0.8,2,0.8s1.4-0.3,2-0.8c1.1-1,1.1-2.8,0-3.8l-8.3-8c-1.1-1-2.8-1-3.9,0
		s-1.1,2.8,0,3.8L758.5,47.7z"/>
	<path class="st3" d="M782.6,48.5c0.7,0,1.4-0.3,2-0.8l8.3-8c1.1-1,1.1-2.8,0-3.8c-1.1-1-2.8-1-3.9,0l-8.3,8c-1.1,1-1.1,2.8,0,3.8
		C781.2,48.2,781.9,48.5,782.6,48.5L782.6,48.5z"/>
	<path class="st3" d="M771.5,48.5c1.5,0,2.8-1.2,2.8-2.7V35.1c0-1.5-1.2-2.7-2.8-2.7s-2.8,1.2-2.8,2.7v10.7
		C768.8,47.3,770,48.5,771.5,48.5L771.5,48.5z"/>
	<path class="st3" d="M729.7,88.8l8.6,1.1v25.8c0,1.5,1.2,2.7,2.8,2.7s2.8-1.2,2.8-2.7V90.5l8,1c0.1,0,0.2,0,0.3,0
		c1.4,0,2.6-1,2.7-2.3c0.2-1.5-0.9-2.8-2.4-3l-8.6-1.1v-7c0-1.5-1.2-2.7-2.8-2.7s-2.8,1.2-2.8,2.7v6.4l-8-1
		c-1.5-0.2-2.9,0.9-3.1,2.3C727.1,87.2,728.2,88.6,729.7,88.8L729.7,88.8z"/>
	<path class="st3" d="M770.4,174.4c-1.1-1.1-2.8-1.1-3.9,0l-3.1,3l-3.1-3c-1.1-1.1-2.8-1.1-3.9,0c-1.1,1.1-1.1,2.8,0,3.8l3.1,3
		l-3.1,3c-1.1,1-1.1,2.7,0,3.8c0.5,0.5,1.2,0.8,2,0.8c0.7,0,1.4-0.3,2-0.8l3.1-3l3.1,3c0.5,0.5,1.2,0.8,2,0.8c0.7,0,1.4-0.3,2-0.8
		c1.1-1.1,1.1-2.8,0-3.8l-3.1-3l3.1-3C771.5,177.2,771.5,175.5,770.4,174.4L770.4,174.4z"/>
	<path class="st3" d="M860,147.5c-0.2-0.7-0.7-1.3-1.3-1.7l-15.2-8.2V73.4c0-5-3.5-9.4-8.3-10.9V49.9c0-1.3-1-2.4-2.3-2.6
		c-34-6.1-55,8-61.3,13.1c-6.3-5.1-27.3-19.3-61.3-13.2c-1.3,0.2-2.3,1.3-2.3,2.6v12.5c-4.9,1.5-8.3,5.9-8.3,10.9v73.7
		c0,6.3,5.3,11.4,11.8,11.4h60.1c3.2,6.1,9.9,14.3,23.7,18.8c0.3,0.1,0.6,0.1,0.8,0.1c0,0,3.7,0.1,8.2,2.8l-2.2,3.2
		c-0.8,1.2-0.5,2.8,0.7,3.7l19.7,13.8c0.5,0.3,1,0.5,1.6,0.5c0.2,0,0.3,0,0.5-0.1c0.8-0.1,1.4-0.6,1.8-1.2l33.2-50.7
		C860,148.9,860.1,148.2,860,147.5L860,147.5z M837.9,73.4v61.2c-1-0.4-2-0.2-2.8,0.5V68.3C836.8,69.4,837.9,71.3,837.9,73.4
		L837.9,73.4z M829.6,52.2v78.5c-0.9-2.2-1.4-4.6-1.4-7.1c0-4.1-0.7-8.1-2-12l-6.5-19c-1.9-5.6-7.8-8.9-13.8-7.8
		c-3.4,0.7-6.3,2.7-8,5.6s-2.1,6.4-1,9.6l7.2,21l-0.8,0.9c-3.9,4.8-5.3,10.7-5.1,16.4c-9,2.1-17,5.1-23.9,9.1V65.2
		C778.3,61.8,797.5,47.3,829.6,52.2L829.6,52.2z M713.5,52.2c31.9-4.9,51.3,9.6,55.3,13v82.1c-17.7-10.5-38.8-12.1-50.2-12.1
		c-2.1,0-3.8,0.1-5.2,0.1V52.2z M705.2,147.1V73.4c0-2.1,1.1-3.9,2.8-5v69.9c0,0.8,0.3,1.5,0.9,2c0.6,0.5,1.4,0.8,2.1,0.7
		c0.3,0,33.2-3.1,57,12.3h-56.5C708,153.2,705.2,150.4,705.2,147.1L705.2,147.1z M796.6,172.1c-14.3-4.7-19.6-13.9-21.5-18.9
		c6.7-4.3,14.6-7.6,23.7-9.7c0.7,3.1,1.9,5.9,3.5,8.4c0.5,0.8,1.4,1.3,2.4,1.3c0.5,0,1-0.1,1.4-0.4c1.3-0.8,1.7-2.4,0.9-3.7
		c-4-6.4-5.2-17,0.5-23.9l1.7-2.1c0.6-0.7,0.8-1.7,0.5-2.5l-7.7-22.3c-0.6-1.7-0.4-3.6,0.5-5.2c0.9-1.6,2.5-2.7,4.3-3
		c3.2-0.6,6.4,1.2,7.5,4.2l6.5,19c1.1,3.3,1.7,6.8,1.7,10.3c0,6.8,2.9,13.3,7.9,18l-23.2,34.2C802.3,172.8,798.1,172.2,796.6,172.1
		L796.6,172.1z M823.3,194.9l-15.2-10.7l29.7-43.7l15.6,8.4L823.3,194.9z"/>
	<path class="st3" d="M819.9,181.5c-1.4,0-2.6,1.1-2.6,2.5s1.2,2.5,2.6,2.5c1.4,0,2.6-1.1,2.6-2.5S821.3,181.5,819.9,181.5
		L819.9,181.5z"/>
</g>
<path class="st1" d="M1318.2,187.9c-1,0-1.9,0.2-2.8,0.6c-2.8,1.2-4.6,3.7-4.6,6.4c0,3.7,3.2,6.6,7.2,6.6c4.3,0,7-3.4,7-6.4
	C1325,192.8,1323.4,187.9,1318.2,187.9z"/>
<path class="st1" d="M945.8,191.5h9.2c1.5,0,2.7-1.2,2.7-2.6s-1.2-2.6-2.7-2.6h-9.2c-1.5,0-2.7,1.2-2.7,2.6
	C943.1,190.3,944.3,191.5,945.8,191.5z"/>
<path class="st1" d="M962.6,191.5h2.4c1.5,0,2.7-1.2,2.7-2.6s-1.2-2.6-2.7-2.6h-2.4c-1.5,0-2.7,1.2-2.7,2.6
	C959.9,190.3,961.1,191.5,962.6,191.5z"/>
<path class="st1" d="M948.4,174.6h2.4c1.5,0,2.7-1.2,2.7-2.6s-1.2-2.6-2.7-2.6h-2.4c-1.5,0-2.7,1.2-2.7,2.6S946.9,174.6,948.4,174.6
	z"/>
<path class="st1" d="M948.2,203.2h31.2c1.5,0,2.7-1.2,2.7-2.6s-1.2-2.6-2.7-2.6h-31.2c-1.5,0-2.7,1.2-2.7,2.6
	C945.5,202,946.7,203.2,948.2,203.2z"/>
<path class="st1" d="M948.2,158.9h31.2c1.5,0,2.7-1.2,2.7-2.6s-1.2-2.6-2.7-2.6h-31.2c-1.5,0-2.7,1.2-2.7,2.6
	S946.8,158.9,948.2,158.9z"/>
<g class="st2">
	<path class="st3" d="M1328.5,151.9L1328.5,151.9c-0.7,0-1.4-0.3-1.9-0.8l-17.2-16.7c-2-2-3.2-4.6-3.2-7.4s1.1-5.4,3.2-7.4
		c4.2-4.1,11-4.1,15.2,0l3.9,3.8l3.9-3.8c2-2,4.7-3.1,7.6-3.1s5.6,1.1,7.6,3.1c2,2,3.2,4.6,3.2,7.4s-1.1,5.4-3.2,7.4l-17.3,16.7
		C1329.9,151.6,1329.2,151.9,1328.5,151.9z M1317,121.6c-1.4,0-2.8,0.5-3.9,1.6c-1,1-1.6,2.3-1.6,3.8s0.6,2.8,1.6,3.8l15.4,14.9
		l15.4-14.9c1-1,1.6-2.3,1.6-3.8c0-1.4-0.6-2.8-1.6-3.8c-1-1-2.4-1.6-3.9-1.6s-2.8,0.6-3.9,1.6l-5.8,5.6c-0.5,0.5-1.2,0.8-1.9,0.8
		l0,0c-0.7,0-1.4-0.3-1.9-0.8l-5.7-5.6C1319.8,122.2,1318.4,121.6,1317,121.6z"/>
</g>
<g class="st2">
	<path class="st3" d="M204,81.7c-0.7,0-1.4-0.3-1.9-0.8c-1.1-1-1.1-2.7,0-3.7c2.1-2.1,3.3-4.8,3.3-7.8s-1.2-5.7-3.3-7.8
		c-0.5-0.5-0.8-1.2-0.8-1.9s0.3-1.4,0.8-1.9c0.5-0.5,1.2-0.8,1.9-0.8s1.4,0.3,1.9,0.8c3.2,3.1,4.9,7.2,4.9,11.5s-1.7,8.4-4.9,11.5
		C205.4,81.5,204.7,81.7,204,81.7z"/>
	<path class="st3" d="M204,81.3c-0.6,0-1.2-0.2-1.6-0.7c-0.9-0.9-0.9-2.3,0-3.2c2.2-2.2,3.4-5,3.4-8.1s-1.2-5.9-3.4-8.1
		c-0.9-0.9-0.9-2.3,0-3.2c0.9-0.9,2.4-0.9,3.3,0c3.1,3,4.8,7,4.8,11.2s-1.7,8.2-4.8,11.2C205.2,81.1,204.6,81.3,204,81.3z"/>
	<path class="st3" d="M210.4,89.7c-0.7,0-1.4-0.3-1.9-0.8c-1.1-1-1.1-2.7,0-3.7c4.3-4.2,6.7-9.7,6.7-15.6c0-5.9-2.4-11.4-6.7-15.6
		c-0.5-0.5-0.8-1.2-0.8-1.9s0.3-1.4,0.8-1.9c0.5-0.5,1.2-0.8,1.9-0.8c0.7,0,1.4,0.3,1.9,0.8c5.3,5.2,8.2,12,8.2,19.3
		c0,7.3-2.9,14.2-8.2,19.3C211.9,89.4,211.2,89.7,210.4,89.7z"/>
	<path class="st3" d="M210.4,89.3c-0.6,0-1.2-0.2-1.6-0.7c-0.9-0.9-0.9-2.3,0-3.2c4.4-4.2,6.8-9.9,6.8-15.9c0-6-2.4-11.6-6.8-15.9
		c-0.9-0.9-0.9-2.3,0-3.2s2.4-0.9,3.3,0c5.2,5.1,8.1,11.9,8.1,19.1s-2.9,14-8.1,19.1C211.6,89.1,211,89.3,210.4,89.3z"/>
	<path class="st3" d="M180.5,69.3c-1.1,0-2.1-0.6-2.5-1.6c-0.6-1.3,0-2.9,1.4-3.5l13.8-5.8l-0.5-3.1c-0.2-1.3,0.6-2.5,1.9-3
		c3-0.9,7.4-3.3,7.4-5.2c0-1-0.7-1.6-3.4-3.6c-3.5-2.6-8.9-6.5-13.7-15.4c-0.3-0.6-0.4-1.3-0.2-2s0.7-1.2,1.3-1.5
		c0.4-0.2,0.8-0.3,1.2-0.3c1,0,1.9,0.5,2.4,1.4c4.2,7.9,8.8,11.2,12.1,13.6c3,2.2,5.6,4.1,5.6,7.8c0,4.9-5.5,7.9-8.9,9.4l0.5,3
		c0.2,1.2-0.4,2.4-1.6,2.8l-15.7,6.6C181.2,69.2,180.9,69.3,180.5,69.3z"/>
	<path class="st3" d="M180.5,68.9c-0.9,0-1.7-0.5-2.1-1.3c-0.5-1.1,0-2.5,1.2-2.9l14.1-5.9l-0.6-3.4c-0.2-1.1,0.5-2.2,1.6-2.5
		c3.1-1,7.6-3.4,7.6-5.5c0-1.2-0.9-2-3.6-3.9c-3.5-2.5-8.8-6.4-13.6-15.3c-0.6-1.1-0.1-2.5,1-3c1.1-0.6,2.5-0.1,3.1,1
		c4.3,8,8.9,11.3,12.2,13.8c2.9,2.1,5.4,3.9,5.4,7.5c0,4.8-5.8,7.8-9,9.1l0.6,3.3c0.2,1-0.4,2-1.4,2.4l-15.7,6.6
		C181.1,68.8,180.8,68.9,180.5,68.9z"/>
	<path class="st3" d="M184.1,95.1c-16.1,0-30.3-15.7-30.3-33.6c0-19.1,10.9-33.8,27.2-36.7c0.2,0,0.3,0,0.5,0c1.3,0,2.4,0.9,2.7,2.2
		c0.1,0.7,0,1.4-0.4,2c-0.4,0.6-1,1-1.8,1.1c-13.8,2.4-22.8,14.8-22.8,31.5c0,14.8,11.8,28.4,24.8,28.4c2.1,0,4.9-0.3,6.1-1.8
		c1.2-1.5,0.8-4.2,0.2-6.2c-0.2-0.7-0.1-1.4,0.3-2l1.7-2.9l-9-3.8c-0.7-0.3-1.2-0.8-1.4-1.4s-0.3-1.4,0-2c0.4-1,1.4-1.6,2.5-1.6
		c0.4,0,0.7,0.1,1.1,0.2l11.9,4.9c0.7,0.3,1.3,0.9,1.5,1.6c0.2,0.7,0.2,1.5-0.2,2.1l-2.7,4.5c0.9,4.1,0.5,7.3-1.4,9.7
		C192.5,93.8,189,95.1,184.1,95.1z"/>
	<path class="st3" d="M184.1,94.8c-15.9,0-29.9-15.5-29.9-33.2c0-18.9,10.8-33.5,26.9-36.3c1.2-0.2,2.5,0.6,2.7,1.8
		c0.2,1.2-0.6,2.4-1.9,2.6c-14,2.5-23.1,15-23.1,31.9c0,15.1,12,28.8,25.2,28.8c2.2,0,5.1-0.3,6.4-2c1.3-1.7,0.9-4.5,0.2-6.6
		c-0.2-0.6-0.1-1.2,0.2-1.7l1.9-3.2l-9.5-3.9c-1.2-0.5-1.7-1.8-1.2-2.9s1.9-1.7,3-1.2l11.9,4.9c0.6,0.2,1.1,0.8,1.3,1.3
		s0.1,1.3-0.2,1.8l-2.8,4.6c1,4,0.5,7.2-1.3,9.6C192.2,93.5,188.8,94.8,184.1,94.8z"/>
</g>
<path class="st1" d="M1371.2,101.1c-0.4,0-0.9-0.1-1.3-0.3l-0.1,0l0,0c-0.8-0.4-13.1-6.7-31.7-6.7c-6.9,0-13.9,0.9-20.7,2.5
	c-0.2,0-0.3,0-0.4,0s-0.2,0-0.3,0h-0.5l-0.1,0c-6.8-1.7-13.7-2.5-20.5-2.5c-18.4,0-30.7,6-32,6.7c-0.4,0.2-0.8,0.3-1.3,0.3
	c-1.4,0-2.6-1.1-2.6-2.5V30.5c0-1.4,1.2-2.5,2.6-2.5h7v-2.1c-0.1-1.1,0.7-2.2,1.9-2.5c5.2-1.3,10.5-2,15.8-2h0.2
	c8.7,0,20.8,1.8,29.6,10.5c9-8.7,21-10.5,29.6-10.5h0.1c5.3,0,10.6,0.7,15.8,2c1.2,0.3,1.9,1.4,1.9,2.5V28h7.1
	c1.4,0,2.6,1.1,2.6,2.5v68.1c0,0.9-0.5,1.7-1.3,2.2C1372.1,101,1371.6,101.1,1371.2,101.1z M1338.4,88.9c10.4,0,20.6,1.9,30.2,5.7
	l0.1-61.6h-4.4v53.1c0,0.1,0,0.3,0,0.4c-0.2,1.2-1.3,2.1-2.6,2.1c-0.1,0-0.3,0-0.4,0c-4.5-0.7-9.2-1-13.8-1c-0.3,0-0.7,0-1.1,0
	c-4.6,0-9.1,0.5-13.6,1.6C1334.7,89,1336.5,88.9,1338.4,88.9z M1264.9,94.6c9.6-3.7,19.8-5.6,30.2-5.6c1.8,0,3.7,0.1,5.5,0.2
	c-4.4-1.1-9-1.6-13.6-1.6c-0.3,0-0.7,0-1,0c-4.6,0-9.2,0.4-13.7,1.1c-0.1,0-0.3,0-0.4,0c-1.4,0-2.6-1.2-2.6-2.6V33h-4.4L1264.9,94.6
	L1264.9,94.6z M1286,82.5c14.2,0,23.1,3.4,28.2,6.5l-0.1-52.2c-7.8-8.4-19-10.2-27-10.2c-4.2,0-8.5,0.5-12.6,1.3v55.3
	C1278.2,82.8,1282.1,82.5,1286,82.5L1286,82.5z M1319.3,89c5.1-3.1,14-6.5,28.2-6.5c3.8,0,7.7,0.3,11.5,0.7V27.9
	c-4.1-0.9-8.4-1.3-12.6-1.3c-8,0-19.2,1.8-27,10.2L1319.3,89L1319.3,89z"/>
<g class="st2">
	<path class="st3" d="M55.5,137c-4.9,0-9.1-3.3-10.1-7.9L26.4,41.8c-0.6-2.6,0-5.3,1.5-7.5c1.5-2.2,3.8-3.8,6.5-4.3l78-15.8
		c0.2,0,0.4-0.1,0.6-0.1c1.3,0,2.5,0.9,2.8,2.2l22,101.4c0.3,1.5-0.7,3-2.2,3.3l-78,15.8C56.9,136.9,56.2,137,55.5,137L55.5,137z
		 M54.5,122.6c-1.2,0.2-2.2,0.9-2.9,1.9s-0.9,2.2-0.7,3.3c0.5,2.1,2.3,3.5,4.5,3.5c0.3,0,0.6,0,0.9-0.1l75.2-15.3l-1.9-8.7
		L54.5,122.6z M35.6,35.3c-2.5,0.5-4.1,2.9-3.6,5.3l17,78.6c1.3-1,2.7-1.7,4.3-2l2.1-0.4L37.7,34.9L35.6,35.3z M61,115.7l67.5-13.7
		l-17.8-81.9L43.3,33.8L61,115.7z M77.4,101.9c-1.3,0-2.5-0.9-2.8-2.2c-0.2-0.7,0-1.5,0.4-2.1c0.4-0.6,1.1-1.1,1.8-1.2l29.2-5.9
		c0.2,0,0.4-0.1,0.6-0.1c1.3,0,2.5,0.9,2.8,2.2c0.3,1.5-0.7,3-2.2,3.3L78,101.8C77.8,101.9,77.6,101.9,77.4,101.9z M67.5,91.6
		c-1.3,0-2.5-0.9-2.8-2.2c-0.2-0.7,0-1.5,0.4-2.1c0.4-0.6,1.1-1.1,1.8-1.2l43.9-8.9c0.2,0,0.4-0.1,0.6-0.1c1.3,0,2.5,0.9,2.8,2.2
		c0.3,1.5-0.7,3-2.2,3.3l-43.9,8.9C67.9,91.6,67.7,91.6,67.5,91.6z M86.9,75.4c-0.4,0-0.8-0.1-1.2-0.3l-15.6-7.6
		c-7.5-3.8-11.7-10-11-16.8c0.6-5.6,4.6-10.4,9.6-11.7l0.9-0.2c1-0.2,2-0.3,3-0.3c2.6,0,5.1,0.7,7.3,1.9c2.3-3,5.8-5.1,9.6-5.6
		c0.6-0.1,1.2-0.1,1.8-0.1c4.7,0,9.4,2.8,11.9,7.1c3.5,5.9,2.5,13.2-2.9,19.6l-11.2,13c-0.4,0.6-1.2,0.8-1.6,0.9
		C87.3,75.3,87.1,75.4,86.9,75.4z M72.7,44c-0.6,0-1.2,0.1-1.8,0.2l-0.6,0.1c-2.8,0.8-5,3.7-5.4,7c-0.5,4.4,2.3,8.7,7.7,11.3
		l13.7,6.5l9.7-11.3c3.8-4.6,4.7-9.5,2.4-13.4c-1.6-2.7-4.3-4.4-6.9-4.4c-0.3,0-0.6,0-0.9,0.1c-3.2,0.4-5.8,2.4-7.1,5.2
		c-0.4,0.8-1.2,1.4-2,1.5C81.2,47,81,47,80.8,47c-0.7,0-1.4-0.2-1.9-0.7C77.3,44.9,75,44,72.7,44z"/>
	<path class="st3" d="M112.5,14.4l-78,15.8c-5.4,1.1-8.8,6.2-7.7,11.4L45.7,129c1.1,5.2,6.4,8.6,11.8,7.5l78-15.8
		c1.3-0.3,2.2-1.6,1.9-2.8l-22-101.4C115.2,15,113.8,14.2,112.5,14.4L112.5,14.4z M31.7,40.7c-0.6-2.6,1.2-5.2,3.8-5.7l2.4-0.5
		l17.9,82.6l-2.4,0.5c-1.8,0.4-3.3,1.2-4.6,2.3L31.7,40.7z M132.1,116.4l-75.6,15.3c-2.7,0.5-5.3-1.1-5.9-3.7
		c-0.6-2.6,1.2-5.2,3.8-5.7l75.6-15.3L132.1,116.4z M129,102.2l-68.3,13.8L42.8,33.5l68.3-13.9L129,102.2z M65.1,89.3
		c-0.3-1.3,0.6-2.6,1.9-2.8l43.9-8.9c1.3-0.3,2.7,0.6,2.9,1.9c0.3,1.3-0.6,2.6-1.9,2.8l-43.9,8.9C66.7,91.5,65.4,90.6,65.1,89.3
		L65.1,89.3z M109.1,92.7c0.3,1.3-0.6,2.6-1.9,2.8l-29.2,5.9c-1.3,0.3-2.7-0.6-2.9-1.9c-0.3-1.3,0.6-2.6,1.9-2.8l29.2-5.9
		C107.5,90.6,108.8,91.4,109.1,92.7L109.1,92.7z M70.2,67.2l15.6,7.5c0.6,0.2,1.1,0.3,1.6,0.2c0.5-0.1,1.1-0.3,1.4-0.8l11.2-13
		c5.3-6.2,6.2-13.5,2.8-19.2c-2.8-4.8-8.3-7.6-13.3-6.8c-3.8,0.5-7.3,2.6-9.6,5.8c-3.1-1.8-6.8-2.4-10.3-1.7c-0.2,0-0.6,0.1-0.8,0.2
		c-5,1.2-8.8,6-9.4,11.4C58.8,57.4,62.7,63.5,70.2,67.2L70.2,67.2z M64.5,51.3c0.4-3.5,2.8-6.5,5.7-7.3l0.6-0.1
		c2.9-0.6,6.2,0.2,8.4,2.2c0.6,0.5,1.4,0.7,2.2,0.5s1.4-0.7,1.8-1.3c1.3-3,4-5,7.3-5.4c3.1-0.5,6.4,1.4,8.2,4.5
		c2.4,4.1,1.5,9.1-2.5,13.8l-9.9,11.5L72.4,63C66.8,60.2,64,55.8,64.5,51.3L64.5,51.3z"/>
</g>
<g class="st2">
	<path class="st3" d="M467.9,88.8c-1.5-0.4-2.4-1.9-2-3.3l4.2-14.7l-7.1-1.9c-1.5-0.4-2.4-1.9-2-3.3l3-10.5c0.4-1.5,2-2.3,3.5-1.9
		l7.1,1.9l2.1-7.3c0.4-1.5,2-2.3,3.5-1.9l10.8,2.9c1.5,0.4,2.4,1.9,2,3.3l-2.1,7.3l7.1,1.9c1.5,0.4,2.4,1.9,2,3.3l-3,10.5
		c-0.4,1.4-2,2.3-3.5,1.9l-7.1-1.9l-4.2,14.7c-0.4,1.4-2,2.3-3.5,1.9L467.9,88.8z M477.5,85.7l4.2-14.7c0.4-1.4,2-2.3,3.5-1.9
		l7.1,1.9l1.5-5.2l-7.1-1.9c-1.5-0.4-2.4-1.9-2-3.3l2.1-7.3l-5.4-1.4l-2.1,7.3c-0.4,1.5-2,2.3-3.5,1.9l-7.1-1.9l-1.5,5.2l7.1,1.9
		c1.5,0.4,2.4,1.9,2,3.3l-4.2,14.7L477.5,85.7z"/>
	<path class="st3" d="M497.7,61.9l-7.7-2.1l2.2-7.9c0.3-1.1-0.4-2.3-1.5-2.6L480,46.4c-1.1-0.3-2.3,0.3-2.6,1.5l-2.2,7.9l-7.7-2.1
		c-1.1-0.3-2.3,0.3-2.6,1.5l-3,10.5c-0.3,1.1,0.4,2.3,1.5,2.6l7.7,2.1l-4.3,15.3c-0.3,1.1,0.4,2.3,1.5,2.6l10.8,2.9
		c1.1,0.3,2.3-0.3,2.6-1.5l4.3-15.3l7.7,2.1c1.1,0.3,2.3-0.3,2.6-1.5l3-10.5C499.5,63.3,498.8,62.2,497.7,61.9z M492.6,71.8
		l-7.7-2.1c-1.1-0.3-2.3,0.3-2.6,1.5L478,86.5l-6.6-1.8l4.3-15.3c0.3-1.1-0.4-2.3-1.5-2.6l-7.7-2.1l1.8-6.4l7.7,2.1
		c1.1,0.3,2.3-0.3,2.6-1.5l2.2-7.9l6.6,1.8l-2.2,7.9c-0.3,1.1,0.4,2.3,1.5,2.6l7.7,2.1L492.6,71.8z"/>
	<path class="st3" d="M450,129.7c-0.5-0.1-1-0.4-1.4-0.8l-6.1-6.7l-8.8,2.7c-0.5,0.2-1.1,0.2-1.6,0c-0.5-0.1-0.9-0.3-1.2-0.7
		c-0.7-0.7-1-1.7-0.8-2.7l1.2-4.2l-1.5-0.4c-6.2-1.7-9.9-7.9-8.2-14l21.6-75.9c1.7-6,8.2-9.6,14.4-7.9L520.1,36
		c1.5,0.4,2.4,1.9,2,3.3l-21.6,76.1c-0.4,1.2-1.5,2-2.8,2c-2.8-0.1-5.3,1.7-6.1,4.3s0.5,5.4,2.9,6.7c1.1,0.6,1.7,1.9,1.3,3.1
		l-0.1,0.2c-0.4,1.4-2,2.3-3.5,1.9l-37.7-10.1l-1.2,4.2c-0.3,1-1.1,1.7-2.1,1.9C450.9,129.9,450.4,129.9,450,129.7z M436.9,118.2
		l5.6-1.7c0.5-0.2,1.1-0.2,1.6,0s1,0.4,1.4,0.8l3.9,4.3l2.2-7.6l-12.5-3.3L436.9,118.2z M486.2,126.5c-0.6-2-0.6-4.1,0-6.1
		c0.6-2,1.7-3.8,3.3-5.2l-54.9-14.7c-3.2-0.9-6.6,1-7.5,4.1c-0.9,3.1,1,6.4,4.3,7.3l1.5,0.4l1.6-5.7c0.4-1.4,2-2.3,3.5-1.9
		l40.6,10.9c1.5,0.4,2.4,1.9,2,3.3s-2,2.3-3.5,1.9l-20-5.3l-0.9,3.1L486.2,126.5z M456.1,24.5c-3.2-0.9-6.6,1-7.5,4.1l-18.9,66.5
		c2.1-0.6,4.2-0.6,6.4,0l1.5,0.4l8.2-28.7l0,0l11.9-41.9L456.1,24.5z M495.8,111.2l20.1-70.6L463,26.4L442.9,97L495.8,111.2z"/>
	<path class="st3" d="M497.6,116.8c1,0,1.9-0.6,2.1-1.5l21.7-76.1c0.3-1.1-0.4-2.3-1.5-2.6l-62.5-16.7c-5.9-1.6-12,1.8-13.6,7.5
		l-21.6,75.9c-1.6,5.7,1.9,11.6,7.8,13.2l2.1,0.6l-1.4,4.8c-0.2,0.7,0,1.5,0.6,2.1c0.3,0.2,0.6,0.4,0.9,0.5c0.4,0.1,0.8,0.1,1.2,0
		l9.2-2.8l6.4,7c0.5,0.6,1.3,0.8,2.1,0.6c0.8-0.2,1.4-0.7,1.6-1.5l1.4-4.8l38.3,10.3c1.1,0.3,2.3-0.4,2.6-1.5l0.1-0.2
		c0.3-0.9-0.2-1.9-1-2.4c-2.7-1.5-4.1-4.5-3.2-7.4C491.8,118.7,494.5,116.7,497.6,116.8z M448,28.5c1-3.5,4.7-5.5,8.3-4.5l2.1,0.6
		L446.3,67c0,0,0,0,0,0L438,96.3l-2.1-0.6c-2.5-0.7-5-0.5-7.1,0.4L448,28.5z M449.7,122.8l-4.7-5.2c-0.6-0.6-1.5-0.9-2.3-0.6
		l-6.8,2.1l2.7-9.4l13.7,3.7L449.7,122.8z M487.2,127.4l-31.9-8.5l1.2-4.3l20.6,5.5c1.1,0.3,2.3-0.3,2.6-1.5s-0.4-2.3-1.5-2.6
		l-40.6-10.9c-1.1-0.3-2.3,0.3-2.6,1.5l-1.8,6.3l-2.1-0.6c-3.6-1-5.7-4.6-4.7-8.1c1-3.5,4.7-5.5,8.3-4.6l56,15
		c-1.9,1.4-3.3,3.4-4,5.7C486.1,122.9,486.3,125.3,487.2,127.4z M442.1,97.4l8.2-28.7c0,0,0,0,0,0l12.3-43.1l54.1,14.5l-20.4,71.8
		L442.1,97.4z"/>
</g>
<g class="st2">
	<path class="st3" d="M668.9,117.9L668.9,117.9c-1.6-0.2-3-0.5-4.2-0.8c-6.2-1.5-11.7-4.3-16.4-8.3c-1.7,0.2-3.3,0.2-4.9,0.2
		c-5.8,0-11.3-1-16.3-3c-5-2-9-4.8-11.9-8.2c-2.9-3.5-4.4-7.4-4.4-11.5s1.5-8,4.4-11.5c2.9-3.5,6.9-6.2,11.9-8.2c5-2,10.4-3,16.3-3
		s11.3,1,16.3,3c5,2,9,4.8,11.9,8.2c2.9,3.5,4.4,7.4,4.4,11.5c0,3.6-1.1,7-3.3,10.1c-2.1,3-5,5.5-8.6,7.5c0.2,0.7,0.5,1.4,0.8,2.1
		c0.3,0.8,0.7,1.5,0.9,2c0.3,0.5,0.6,1.1,1.1,1.7c0.5,0.6,0.8,1.1,1.1,1.3l1.2,1.3c0.5,0.6,0.9,1,1.1,1.2c0.1,0.1,0.2,0.2,0.3,0.4
		l0.3,0.3l0.2,0.3c0.1,0.2,0.3,0.4,0.3,0.7c0,0,0,0.1,0,0.1c0.1,0.4,0.1,0.6,0,0.8c-0.1,0.5-0.4,0.9-0.8,1.3
		c-0.4,0.3-0.9,0.5-1.4,0.5L668.9,117.9L668.9,117.9z M630,71.6c-4.1,1.6-7.4,3.7-9.8,6.3c-2.3,2.6-3.5,5.4-3.5,8.4s1.2,5.8,3.5,8.4
		c2.4,2.6,5.7,4.7,9.8,6.3c4.1,1.6,8.6,2.3,13.3,2.3c1.4,0,2.9-0.1,4.5-0.3l2.3-0.2l1.8,1.5c2.4,2,5,3.7,7.8,5
		c-0.7-1.4-1.2-2.9-1.7-4.4l-1.1-3.8l3.5-2c3-1.7,5.3-3.6,7-5.9c1.6-2.2,2.4-4.6,2.4-7c0-3-1.2-5.8-3.5-8.4
		c-2.4-2.6-5.7-4.7-9.8-6.3c-4.1-1.6-8.6-2.3-13.3-2.3C638.6,69.3,634.1,70.1,630,71.6z"/>
</g>
<path class="st1" d="M399,76.8L391,64.9c3.7-5,5.7-11.1,5.6-17.3c0-13.6-9.4-25.5-22.9-28.9c-2.6-0.7-5.2-1-7.9-1
	c-11,0-21.3,5.8-26.8,15.1c-6.9,11.8-4.8,26.6,5.1,36.2c5.8,5.6,13.5,8.6,21.7,8.6c5.4,0,10.6-1.4,15.3-3.9l15.1,6.3
	c0.3,0.1,0.6,0.2,0.9,0.2c0.6,0,1.2-0.3,1.6-0.7C399.4,78.6,399.5,77.6,399,76.8z M381.8,69.3c-0.3-0.1-0.6-0.2-0.9-0.2
	c-0.4,0-0.8,0.1-1.1,0.3c-4.2,2.5-9.1,3.9-14,3.9c-8.3,0-16.3-3.8-21.2-10.3c-8.3-10.8-6.8-25.7,3.5-34.6c4.9-4.2,11.2-6.6,17.7-6.6
	c6.8,0,13.2,2.5,18.1,7c10.1,9.2,11.3,24.1,2.7,34.7c-0.6,0.7-0.6,1.7-0.1,2.4l4.9,7.4L381.8,69.3z"/>
<path class="st1" d="M1095.2,135.6c-7.3,0-14.3-2-20.5-5.7c-1.4-0.9-1.8-2.6-0.9-4c0.6-0.8,1.5-1.4,2.5-1.4c0.6,0,1.1,0.2,1.6,0.4
	c5.2,3.1,11.2,4.8,17.3,4.8c18,0,32.7-14.2,32.7-31.7c0-17.5-14.7-31.7-32.7-31.7c-12.2,0-23.2,6.5-28.9,16.9
	c-0.5,0.9-1.5,1.6-2.7,1.6c-0.5,0-1-0.1-1.4-0.3c-1.5-0.8-2-2.5-1.2-3.9c6.7-12.4,19.8-20,34.2-20c10.3,0,20,3.9,27.3,11
	c7.3,7.1,11.3,16.5,11.3,26.5C1133.8,118.7,1116.5,135.6,1095.2,135.6z"/>
<path class="st1" d="M1076.5,201.8c-1.7-0.1-2.9-1.5-2.8-3.1l1.8-27.9c0.1-1.9-0.3-3.8-1.3-5.5l-4.9,5.7c-1.7,2-2.6,4.5-2.6,7.1
	v20.8c0,1.6-1.3,2.9-3,2.9s-3-1.3-3-2.9v-20.8c0-3.9,1.4-7.8,4-10.8l5.2-6.1c-0.2-0.1-0.3-0.1-0.4-0.2l-9.1-4.1
	c-3.2,7.4-10.8,12.4-19.2,12.4c-8.4,0-16-4.9-19.2-12.4l-9.1,4.1c-0.2,0.1-0.3,0.1-0.5,0.2l5.2,6.1c2.6,3,4,6.8,4,10.8v20.8
	c0,1.6-1.3,2.9-3,2.9c-1.7,0-3-1.3-3-2.9v-20.8c0-2.6-0.9-5.1-2.6-7.1l-4.9-5.7c-1,1.7-1.4,3.6-1.3,5.5l1.8,27.9
	c0,0.8-0.2,1.5-0.8,2.1s-1.3,0.9-2.1,1c-0.1,0-0.1,0-0.2,0c-1.6,0-2.9-1.2-3-2.7l-1.8-27.9c-0.4-6.5,3.4-12.7,9.5-15.4l16.7-7.4
	c0.5-0.2,0.9-0.7,0.9-1.3v-4.9c-4.9-3.3-8.4-8.3-9.7-13.9c-0.4,0-0.8-0.1-1.3-0.2c-3.2-0.7-5.5-3.7-5.5-6.9v-1.5
	c0-2.2,1-4.2,2.7-5.6c-0.4-1.8-0.7-3.7-0.7-5.6c0-8.7,4.6-16.7,12.3-21.4c0.3-7.9,7.1-14.3,15.3-14.3s15,6.4,15.3,14.3
	c7.7,4.8,12.3,12.8,12.3,21.4c0,1.9-0.2,3.7-0.7,5.6c1.7,1.3,2.7,3.4,2.7,5.5v1.6c0,3.3-2.3,6.2-5.4,6.9c-0.4,0.1-0.8,0.1-1.3,0.2
	c-1.3,5.6-4.8,10.7-9.7,13.9v4.9c0,0.6,0.3,1.1,0.9,1.3l16.7,7.4c6.1,2.7,9.9,8.9,9.5,15.4l-1.8,27.9c-0.1,1.5-1.4,2.7-3,2.7
	C1076.7,201.8,1076.6,201.8,1076.5,201.8z M1027.4,154.6c2.3,5.4,7.7,9,13.8,9c6.1,0,11.5-3.6,13.8-9l-2.2-1
	c-2.6-1.2-4.3-3.8-4.3-6.6V145c-2.3,0.7-4.8,1.1-7.3,1.1s-4.9-0.4-7.3-1.1v2.1c0,2.8-1.7,5.4-4.3,6.6L1027.4,154.6z M1019,122.4
	c2.4,0,4.5,1.7,4.9,4c1.5,8.1,8.7,13.9,17.2,13.9s15.7-5.8,17.2-13.9c0.4-2.3,2.6-4,4.9-4c0.1,0,0.2,0,0.3,0c0,0,0,0,0,0
	c0.1,0,0.2,0,0.3,0c0.5-0.1,0.8-0.7,0.8-1.3v-1.6c0-0.6-0.4-1.1-0.9-1.2c-0.1,0-0.2,0-0.2,0c-0.5,0-1.2,0.1-1.4,0.2
	c-0.4,0.2-0.9,0.4-1.5,0.4c-0.7,0-1.4-0.2-1.9-0.7l-2.3-1.9c-0.6,0-1.4,0.1-2.4,0.1c-2.6,0-6.7-0.2-11-1.1c-8.1-1.7-14.3-5-18.6-10
	c-0.5-0.6-0.8-1.3-0.7-2.1c0.1-0.8,0.5-1.5,1.1-2c0.5-0.4,1.2-0.7,1.9-0.7c0.9,0,1.7,0.4,2.3,1c3.4,4,8.6,6.7,15.3,8.1
	c3.9,0.8,7.5,1,9.8,1c1.1,0,1.9,0,2.4-0.1c0.1,0,0.2,0,0.3,0c1.2,0,2.3,0.4,3.2,1.1l1.3,1.1c0.3-0.1,0.6-0.1,0.9-0.1
	c0.3-1.4,0.5-2.8,0.5-4.2c0-11-9.7-20-21.6-20s-21.6,9-21.6,20c0,1.4,0.2,2.8,0.5,4.2c0.9,0.2,1.8,0.6,2.6,1.1
	c0.6-0.6,1.1-1.2,1.6-1.9c0.6-0.8,1.5-1.3,2.5-1.3c0.6,0,1.1,0.2,1.6,0.4c1.4,0.9,1.8,2.7,0.9,4c-1.2,1.8-2.7,3.4-4.5,4.6
	c-0.6,0.4-1.4,0.7-2.2,0.7c-0.4,0-0.8-0.1-1.1-0.2c-0.8-0.2-1.5-0.7-2-1.3c-0.2-0.3-0.5-0.4-0.9-0.4c-0.1,0-0.2,0-0.2,0
	c-0.5,0.1-0.9,0.7-0.9,1.3v1.5c0,0.6,0.4,1.2,0.8,1.3c0.1,0,0.2,0,0.3,0C1018.8,122.4,1018.9,122.4,1019,122.4z M1041.1,82.6
	c2.9,0,5.8,0.4,8.5,1.3c-1.5-3.2-4.8-5.4-8.5-5.4c-3.7,0-7.1,2.2-8.5,5.4C1035.3,83,1038.2,82.6,1041.1,82.6z"/>
<path class="st1" d="M1095.2,113.9c-1.7,0-3-1.3-3-2.9v-0.2c0-3.4,2.4-6.4,5.9-7.5c5.2-1.5,8.3-6.6,7.2-11.9c-0.8-3.8-4-6.9-7.9-7.7
	c-0.7-0.2-1.5-0.2-2.2-0.2c-2.4,0-4.7,0.8-6.6,2.2c-2.4,1.9-3.8,4.8-3.8,7.8c0,1.6-1.3,2.9-3,2.9s-3-1.3-3-2.9
	c0-4.8,2.2-9.3,6.1-12.3c2.9-2.3,6.6-3.6,10.3-3.6c1.2,0,2.3,0.1,3.5,0.3c6.2,1.2,11.2,6.1,12.5,12.1c1.8,8.3-3.1,16.3-11.4,18.6
	c-1,0.3-1.6,1-1.6,1.9v0.2C1098.1,112.6,1096.8,113.9,1095.2,113.9z"/>
<path class="st1" d="M1092.4,123.9c-1.7,0-3-1.3-3-2.9s1.3-2.9,3-2.9c1.7,0,3,1.3,3,2.9S1094.1,123.9,1092.4,123.9z"/>
<path class="st1" d="M275.4,111c-8.5,0-15.4,6.7-15.4,14.9s6.9,14.9,15.4,14.9s15.4-6.7,15.4-14.9S283.9,111,275.4,111L275.4,111z
	 M275.4,133.4c-4.2,0-7.7-3.4-7.7-7.5c0-4.1,3.5-7.5,7.7-7.5s7.7,3.3,7.7,7.5C283.1,130,279.6,133.4,275.4,133.4L275.4,133.4z"/>
<path class="st1" d="M275.4,13.5c-22.1,0-40,17.4-40,38.8v0.4c0,1.8,1.5,3.3,3.4,3.3h24c1.8,0,3.3-1.5,3.3-3.2v-0.3
	c0-4.9,3.9-9,9-9.2c5.2-0.1,9.5,3.9,9.5,9c0,2.6-1.2,5.1-3.3,6.8l-19.1,15.8c-1.4,1.2-2.2,2.9-2.2,4.7V100c0,1.9,1.6,3.5,3.6,3.5
	h23.1c2.2,0,4-1.7,4-3.9v-5.1c0-2.6,1.2-5.1,3.2-6.7l7.3-6c9-7.4,14.1-18.2,14.1-29.6C315.4,30.9,297.5,13.5,275.4,13.5L275.4,13.5z
	 M296.3,76.2l-9.4,7.8c-2.4,2-3.8,4.9-3.8,8v4.1c0,0,0,0,0,0h-15.4c0,0,0,0,0,0V83.7c0-2.2,1-4.3,2.8-5.8l15.9-13.1
	c3.8-3.1,6-7.7,6-12.5c0-9-7.6-16.4-16.9-16.4c-7,0-13,4.2-15.6,10.1c-0.7,1.6-2.3,2.6-4.1,2.6h-9c-1.9,0-3.2-1.7-2.8-3.5
	c3.4-13.8,16.2-24.2,31.4-24.2c17.8,0,32.3,14.1,32.3,31.3C307.7,61.5,303.5,70.2,296.3,76.2L296.3,76.2z"/>
<g class="st2">
	<path class="st3" d="M315.7,148.2c-0.6,0-1.2-0.2-1.7-0.6c-0.5-0.4-0.8-0.9-0.9-1.5c-0.1-0.2-0.1-0.5,0-1c0-0.1,0-0.1,0-0.2
		c0-0.3,0.2-0.6,0.3-0.8l0.3-0.4l0.3-0.4c0.2-0.2,0.3-0.4,0.4-0.4c0.2-0.2,0.6-0.7,1.3-1.4l1.5-1.6c0.3-0.3,0.7-0.8,1.2-1.6
		c0.5-0.7,1-1.4,1.3-2c0.3-0.6,0.7-1.4,1.1-2.4c0.3-0.8,0.6-1.6,0.9-2.4c-4.2-2.4-7.6-5.4-10.1-8.9c-2.6-3.7-4-7.7-4-11.9
		c0-4.9,1.8-9.5,5.2-13.6c3.4-4.1,8.1-7.4,14-9.7c5.9-2.4,12.3-3.6,19.2-3.6s13.4,1.2,19.2,3.6c5.9,2.4,10.6,5.6,14,9.7
		c3.5,4.1,5.2,8.7,5.2,13.6s-1.8,9.5-5.2,13.6c-3.4,4.1-8.1,7.4-14,9.7c-5.8,2.4-12.3,3.6-19.2,3.6c-1.9,0-3.8-0.1-5.8-0.3
		c-5.6,4.7-12.1,8-19.4,9.8c-1.4,0.4-3,0.7-4.9,0.9l0,0L315.7,148.2L315.7,148.2z M346.2,90.7c-5.6,0-10.9,0.9-15.8,2.8
		c-4.8,1.8-8.7,4.3-11.6,7.4c-2.8,3.1-4.2,6.4-4.2,9.9c0,2.9,1,5.7,2.9,8.3c1.9,2.7,4.7,5,8.2,6.9l4.2,2.3l-1.3,4.5
		c-0.5,1.8-1.1,3.5-2,5.2c3.4-1.6,6.5-3.6,9.3-5.9l2.1-1.8l2.8,0.3c1.9,0.2,3.7,0.3,5.4,0.3c5.6,0,10.9-0.9,15.8-2.8
		c4.8-1.8,8.7-4.3,11.6-7.4c2.8-3.1,4.2-6.4,4.2-9.9c0-3.5-1.4-6.8-4.2-9.9c-2.8-3.1-6.7-5.6-11.6-7.4
		C357.1,91.6,351.8,90.7,346.2,90.7z"/>
</g>
<path class="st1" d="M1263.7,211.4c-2.3,0-4.4-0.9-6.1-2.5l-15.2-14.7h-23c-9.6,0-17.4-7.6-17.4-16.8v-26.8l-13.4,12.9
	c-1.6,1.6-3.7,2.4-6,2.4c-1.1,0-2.2-0.2-3.2-0.6c-3.2-1.3-5.3-4.3-5.3-7.7v-8.9h-0.3c-9.6,0-17.3-7.6-17.3-16.8V97.7
	c0-9.3,7.8-16.8,17.3-16.8h53c4.6,0,9,1.8,12.3,4.9c3.3,3.2,5.1,7.4,5.1,11.9v28.6h28.2c9.6,0,17.4,7.6,17.4,16.8v34.3
	c0,9.3-7.8,16.8-17.4,16.8h-0.3v8.9c0,3.4-2.1,6.4-5.3,7.6C1265.9,211.2,1264.8,211.4,1263.7,211.4z M1210.3,177.4
	c0,4.9,4.1,8.9,9.2,8.9h24.7c1.1,0,2.1,0.4,2.9,1.1l16.4,15.9c0.1,0.1,0.2,0.1,0.2,0.1c0,0,0.1,0,0.1,0c0.2-0.1,0.2-0.1,0.2-0.3
	v-12.9c0-2.2,1.8-4,4.1-4h4.4c5.1,0,9.2-4,9.2-8.9v-34.3c0-4.9-4.1-8.9-9.2-8.9h-28.3c-1.1,8.3-8.5,14.6-17.2,14.6h-16.7
	L1210.3,177.4L1210.3,177.4z M1173.9,88.8c-5.1,0-9.2,4-9.2,8.9V132c0,4.9,4.1,8.9,9.2,8.9h4.4c2.2,0,4.1,1.8,4.1,4v12.9
	c0,0.2,0.1,0.3,0.2,0.3c0,0,0.1,0,0.1,0c0,0,0.1,0,0.2-0.1l16.5-15.9c0.7-0.7,1.8-1.1,2.8-1.1c0,0,0.1,0,0.1,0h24.7
	c5.1,0,9.2-4,9.2-8.9V97.7c0-2.4-1-4.6-2.7-6.3c-1.7-1.7-4-2.6-6.5-2.6L1173.9,88.8L1173.9,88.8z"/>
<path class="st1" d="M1226.3,165.7c-3.1,0-5.6-2.4-5.6-5.4s2.5-5.4,5.6-5.4s5.6,2.4,5.6,5.4S1229.4,165.7,1226.3,165.7z"/>
<path class="st1" d="M1246,165.7c-3.1,0-5.6-2.4-5.6-5.4s2.5-5.4,5.6-5.4c3.1,0,5.6,2.4,5.6,5.4S1249.1,165.7,1246,165.7z"/>
<path class="st1" d="M1265.7,165.7c-3.1,0-5.6-2.4-5.6-5.4s2.5-5.4,5.6-5.4s5.6,2.4,5.6,5.4S1268.7,165.7,1265.7,165.7z"/>
<path class="st1" d="M1199.4,132.6c-2.3,0-4.2-1.9-4.2-4.1s1.9-4.1,4.2-4.1c2.3,0,4.3,1.9,4.3,4.1S1201.8,132.6,1199.4,132.6z"/>
<path class="st1" d="M1199.4,123.8c-2.6,0-3.7-1.2-3.7-4.1c0-4.4,2-6.6,3.7-8.1c0.3-0.3,0.7-0.5,1-0.8c1.5-1.1,3.1-2.3,3.1-4
	c0-2.2-2.8-2.4-3.6-2.4c-2.5,0-3.1,0.9-3.8,1.9c-0.6,0.8-1.3,1.8-2.9,1.8c-1.9,0-3.9-1.3-3.9-3.7c0-3,3.4-7.4,10.8-7.4
	c3.3,0,6.2,0.9,8.3,2.5c2.1,1.6,3.3,3.9,3.3,6.4c0,3.4-2,6.6-5.9,9.6c-2.5,1.9-2.5,3-2.5,5.4
	C1203.2,121.8,1202.8,123.8,1199.4,123.8z"/>
<linearGradient id="SVGID_1_" gradientUnits="userSpaceOnUse" x1="-3.514" y1="30.6193" x2="1403.514" y2="203.3806" gradientTransform="matrix(1 0 0 -1 0 232)">
	<stop  offset="0" style="stop-color:#6870B2"/>
	<stop  offset="3.763855e-03" style="stop-color:#686FB1"/>
	<stop  offset="0.191" style="stop-color:#535790"/>
	<stop  offset="0.382" style="stop-color:#434476"/>
	<stop  offset="0.5779" style="stop-color:#373663"/>
	<stop  offset="0.7804" style="stop-color:#302E58"/>
	<stop  offset="1" style="stop-color:#2E2B54"/>
</linearGradient>
<rect class="st4" width="1400" height="230"/>
<rect x="28.1" y="165.3" class="st5" width="786.2" height="79.7"/>
<text transform="matrix(1 0 0 1 28.1041 202.724)"><tspan x="0" y="0" class="st3 st6 st7">ZAGŁĘBIENI</tspan><tspan x="290" y="0" class="st3 st8 st7"> - spotkania biblijne</tspan></text>
</svg>
