<?xml version="1.0" encoding="utf-8"?>
<!-- Generator: Adobe Illustrator 24.0.2, SVG Export Plug-In . SVG Version: 6.00 Build 0)  -->
<svg version="1.1" id="Warstwa_1" xmlns="http://www.w3.org/2000/svg" xmlns:xlink="http://www.w3.org/1999/xlink" x="0px" y="0px"
	 viewBox="0 0 1400 140" style="enable-background:new 0 0 1400 140;" xml:space="preserve">
<style type="text/css">
	.st0{fill:url(#SVGID_1_);}
	.st1{display:none;}
	.st2{display:inline;fill:#FFFFFF;}
	.st3{display:none;opacity:0.5;}
	.st4{display:inline;}
	.st5{fill:#FFFFFF;}
	.st6{display:none;opacity:0.5;fill:#FFFFFF;}
</style>
<linearGradient id="SVGID_1_" gradientUnits="userSpaceOnUse" x1="0" y1="70" x2="1400" y2="70" gradientTransform="matrix(1 0 0 -1 0 140)">
	<stop  offset="0" style="stop-color:#29235C"/>
	<stop  offset="1" style="stop-color:#E84E1B"/>
</linearGradient>
<rect class="st0" width="1400" height="140"/>
<g class="st1">
	<path class="st2" d="M604.15,92.96h-5.2c-0.58,0-1.06-0.15-1.42-0.44c-0.37-0.29-0.64-0.65-0.83-1.09l-2.7-7.38h-14.98l-2.7,7.38
		c-0.13,0.38-0.39,0.73-0.77,1.05s-0.86,0.48-1.42,0.48h-5.25l14.23-36.15h6.85L604.15,92.96z M592.28,79.31l-4.4-12.02
		c-0.22-0.53-0.44-1.17-0.68-1.9c-0.23-0.73-0.47-1.52-0.7-2.38c-0.22,0.85-0.44,1.65-0.68,2.39c-0.23,0.74-0.46,1.39-0.67,1.94
		l-4.38,11.97H592.28z"/>
	<path class="st2" d="M613.05,55.81v21.27h1.15c0.42,0,0.75-0.05,0.99-0.16s0.49-0.33,0.74-0.66l6.38-7.88
		c0.27-0.35,0.56-0.62,0.89-0.8s0.75-0.27,1.26-0.27h5.65l-7.98,9.52c-0.57,0.75-1.18,1.33-1.85,1.72c0.35,0.25,0.66,0.54,0.94,0.88
		c0.27,0.33,0.54,0.69,0.79,1.08l8.55,12.45h-5.58c-0.48,0-0.9-0.08-1.25-0.24s-0.64-0.45-0.88-0.86l-6.55-9.72
		c-0.23-0.38-0.48-0.63-0.73-0.75s-0.63-0.17-1.13-0.17h-1.4v11.75h-6.18V55.81H613.05z"/>
	<path class="st2" d="M642.15,93.36c-2.23,0-3.95-0.63-5.14-1.89s-1.79-3-1.79-5.21V71.93h-2.63c-0.33,0-0.62-0.11-0.85-0.33
		s-0.35-0.54-0.35-0.97v-2.45l4.13-0.68l1.3-7c0.08-0.33,0.24-0.59,0.48-0.77c0.23-0.18,0.53-0.27,0.9-0.27h3.2v8.08h6.85v4.4h-6.85
		v13.9c0,0.8,0.2,1.42,0.59,1.88s0.93,0.67,1.61,0.67c0.38,0,0.7-0.05,0.96-0.14s0.48-0.19,0.67-0.29s0.36-0.2,0.51-0.29
		c0.15-0.09,0.3-0.14,0.45-0.14c0.18,0,0.33,0.05,0.45,0.14s0.24,0.23,0.38,0.41l1.85,3c-0.9,0.75-1.93,1.32-3.1,1.7
		C644.61,93.17,643.4,93.36,642.15,93.36z"/>
	<path class="st2" d="M674.3,67.31v25.65h-3.77c-0.82,0-1.33-0.38-1.55-1.13l-0.43-2.05c-1.05,1.07-2.21,1.93-3.48,2.59
		s-2.76,0.99-4.47,0.99c-1.4,0-2.64-0.24-3.71-0.71c-1.07-0.48-1.98-1.15-2.71-2.01c-0.73-0.87-1.29-1.9-1.66-3.09
		c-0.38-1.19-0.56-2.5-0.56-3.94v-16.3h6.18v16.3c0,1.57,0.36,2.78,1.09,3.64s1.81,1.29,3.26,1.29c1.07,0,2.07-0.24,3-0.71
		s1.82-1.13,2.65-1.96V67.31H674.3z"/>
	<path class="st2" d="M679.8,70.88c2.95-2.7,6.5-4.05,10.65-4.05c1.5,0,2.84,0.25,4.03,0.74c1.18,0.49,2.18,1.18,3,2.05
		s1.44,1.92,1.86,3.14c0.43,1.22,0.64,2.55,0.64,4v16.2h-2.8c-0.58,0-1.03-0.09-1.35-0.26s-0.57-0.53-0.75-1.06l-0.55-1.85
		c-0.65,0.58-1.28,1.1-1.9,1.54s-1.26,0.81-1.93,1.11s-1.38,0.53-2.14,0.69s-1.6,0.24-2.51,0.24c-1.08,0-2.08-0.15-3-0.44
		s-1.71-0.73-2.37-1.31c-0.67-0.58-1.18-1.31-1.55-2.17c-0.37-0.87-0.55-1.88-0.55-3.02c0-0.65,0.11-1.3,0.32-1.94
		s0.57-1.25,1.06-1.84c0.49-0.58,1.13-1.13,1.91-1.65c0.78-0.52,1.75-0.97,2.89-1.35s2.47-0.7,3.99-0.94
		c1.52-0.24,3.25-0.39,5.2-0.44v-1.5c0-1.72-0.37-2.99-1.1-3.81c-0.73-0.83-1.79-1.24-3.18-1.24c-1,0-1.83,0.12-2.49,0.35
		c-0.66,0.23-1.24,0.5-1.74,0.79s-0.96,0.55-1.36,0.79S683.22,74,682.72,74c-0.43,0-0.8-0.11-1.1-0.34
		c-0.3-0.23-0.54-0.49-0.73-0.79L679.8,70.88z M693.95,82.01c-1.78,0.08-3.28,0.24-4.5,0.46s-2.19,0.51-2.93,0.86
		c-0.73,0.35-1.26,0.76-1.57,1.22c-0.32,0.47-0.47,0.98-0.47,1.53c0,1.08,0.32,1.86,0.96,2.33s1.48,0.7,2.51,0.7
		c1.27,0,2.36-0.23,3.29-0.69s1.83-1.15,2.71-2.09L693.95,82.01L693.95,82.01z"/>
	<path class="st2" d="M712.02,55.81v37.15h-6.17V55.81H712.02z"/>
	<path class="st2" d="M723.97,70.46c0.52-0.52,1.06-1,1.64-1.44c0.57-0.44,1.18-0.82,1.82-1.13s1.33-0.55,2.06-0.73
		c0.73-0.17,1.53-0.26,2.4-0.26c1.4,0,2.64,0.24,3.72,0.71c1.08,0.48,1.99,1.14,2.71,2c0.72,0.86,1.28,1.88,1.65,3.07
		s0.56,2.5,0.56,3.94v16.33h-6.18V76.63c0-1.57-0.36-2.78-1.07-3.64c-0.72-0.86-1.81-1.29-3.28-1.29c-1.07,0-2.07,0.24-3,0.72
		s-1.82,1.14-2.65,1.98v18.55h-6.17V67.31h3.78c0.8,0,1.33,0.38,1.58,1.13L723.97,70.46z"/>
	<path class="st2" d="M757.75,66.91c1.9,0,3.63,0.31,5.19,0.92c1.56,0.62,2.89,1.49,4,2.63c1.11,1.13,1.96,2.52,2.56,4.15
		c0.6,1.63,0.9,3.46,0.9,5.48c0,2.03-0.3,3.87-0.9,5.5c-0.6,1.63-1.46,3.02-2.56,4.17c-1.11,1.15-2.44,2.03-4,2.65
		s-3.29,0.92-5.19,0.92c-1.92,0-3.66-0.31-5.23-0.92c-1.57-0.62-2.9-1.5-4.01-2.65s-1.97-2.54-2.57-4.17
		c-0.61-1.63-0.91-3.47-0.91-5.5c0-2.02,0.3-3.84,0.91-5.48c0.61-1.63,1.47-3.02,2.57-4.15c1.11-1.13,2.45-2.01,4.01-2.63
		C754.09,67.22,755.83,66.91,757.75,66.91z M757.75,88.58c2.13,0,3.71-0.72,4.74-2.15c1.02-1.43,1.54-3.53,1.54-6.3
		s-0.51-4.88-1.54-6.33c-1.03-1.45-2.6-2.17-4.74-2.17c-2.17,0-3.77,0.73-4.81,2.19s-1.56,3.56-1.56,6.31s0.52,4.85,1.56,6.29
		S755.58,88.58,757.75,88.58z"/>
	<path class="st2" d="M790.77,72.31c-0.17,0.27-0.34,0.45-0.53,0.56s-0.42,0.16-0.7,0.16c-0.3,0-0.62-0.08-0.96-0.25
		s-0.74-0.35-1.19-0.56s-0.96-0.4-1.54-0.56c-0.57-0.17-1.25-0.25-2.04-0.25c-1.22,0-2.17,0.26-2.86,0.77
		c-0.69,0.52-1.04,1.19-1.04,2.03c0,0.55,0.18,1.01,0.54,1.39s0.83,0.7,1.42,0.99s1.26,0.54,2.01,0.76s1.51,0.47,2.29,0.74
		c0.78,0.27,1.54,0.57,2.29,0.91c0.75,0.34,1.42,0.78,2.01,1.3c0.59,0.53,1.07,1.15,1.43,1.89c0.36,0.73,0.54,1.62,0.54,2.65
		c0,1.23-0.22,2.37-0.66,3.41s-1.1,1.94-1.96,2.7c-0.87,0.76-1.94,1.35-3.21,1.78c-1.27,0.42-2.75,0.64-4.41,0.64
		c-0.88,0-1.75-0.08-2.59-0.24s-1.65-0.38-2.42-0.66c-0.77-0.28-1.49-0.62-2.15-1c-0.66-0.38-1.24-0.8-1.74-1.25l1.43-2.35
		c0.18-0.28,0.4-0.5,0.65-0.65s0.57-0.23,0.95-0.23s0.75,0.11,1.09,0.33s0.74,0.45,1.19,0.7s0.98,0.48,1.59,0.7s1.38,0.33,2.31,0.33
		c0.73,0,1.36-0.09,1.89-0.26s0.96-0.4,1.3-0.69s0.59-0.61,0.75-0.99s0.24-0.76,0.24-1.16c0-0.6-0.18-1.09-0.54-1.47
		s-0.83-0.72-1.42-1c-0.59-0.28-1.27-0.54-2.03-0.76s-1.53-0.47-2.33-0.74c-0.79-0.27-1.57-0.58-2.32-0.94
		c-0.76-0.36-1.43-0.81-2.03-1.36c-0.59-0.55-1.07-1.23-1.42-2.03s-0.54-1.77-0.54-2.9c0-1.05,0.21-2.05,0.63-3s1.03-1.78,1.84-2.49
		s1.82-1.27,3.03-1.7c1.21-0.42,2.6-0.64,4.19-0.64c1.77,0,3.38,0.29,4.82,0.88c1.45,0.58,2.66,1.35,3.63,2.3L790.77,72.31z
		 M792.1,56.41l-6.18,6.52c-0.32,0.33-0.62,0.56-0.91,0.69c-0.29,0.13-0.67,0.19-1.14,0.19h-3.7l3.55-6.08
		c0.25-0.43,0.54-0.76,0.88-0.99c0.33-0.23,0.83-0.34,1.5-0.34h6V56.41z"/>
	<path class="st2" d="M815.47,72.73c-0.18,0.23-0.36,0.42-0.54,0.55c-0.17,0.13-0.43,0.2-0.76,0.2c-0.32,0-0.63-0.1-0.92-0.29
		s-0.66-0.41-1.08-0.65c-0.42-0.24-0.91-0.46-1.49-0.65s-1.29-0.29-2.14-0.29c-1.08,0-2.03,0.2-2.85,0.59
		c-0.82,0.39-1.5,0.95-2.04,1.69s-0.95,1.62-1.21,2.66c-0.27,1.04-0.4,2.22-0.4,3.54c0,1.37,0.15,2.58,0.44,3.65
		s0.71,1.96,1.26,2.69s1.22,1.28,2,1.65c0.78,0.38,1.67,0.56,2.65,0.56s1.78-0.12,2.39-0.36s1.12-0.51,1.54-0.8s0.78-0.56,1.09-0.8
		c0.31-0.24,0.65-0.36,1.04-0.36c0.5,0,0.88,0.19,1.13,0.58l1.77,2.25c-0.68,0.8-1.42,1.47-2.22,2.01s-1.63,0.97-2.49,1.3
		s-1.74,0.55-2.65,0.69c-0.91,0.13-1.81,0.2-2.71,0.2c-1.58,0-3.07-0.3-4.47-0.89s-2.63-1.45-3.67-2.59
		c-1.05-1.13-1.88-2.52-2.49-4.16s-0.91-3.51-0.91-5.61c0-1.88,0.27-3.63,0.81-5.24s1.34-3,2.39-4.18c1.05-1.17,2.35-2.1,3.9-2.76
		c1.55-0.67,3.33-1,5.35-1c1.92,0,3.6,0.31,5.04,0.92c1.44,0.62,2.74,1.5,3.89,2.65L815.47,72.73z"/>
	<path class="st2" d="M828.45,59.83c0,0.53-0.11,1.03-0.33,1.5c-0.22,0.47-0.5,0.88-0.86,1.23s-0.78,0.63-1.26,0.84
		s-1,0.31-1.55,0.31c-0.53,0-1.04-0.1-1.51-0.31c-0.47-0.21-0.89-0.49-1.24-0.84s-0.63-0.76-0.84-1.23s-0.31-0.97-0.31-1.5
		c0-0.55,0.1-1.07,0.31-1.55s0.49-0.9,0.84-1.25c0.35-0.35,0.76-0.63,1.24-0.84s0.98-0.31,1.51-0.31c0.55,0,1.07,0.1,1.55,0.31
		c0.48,0.21,0.9,0.49,1.26,0.84s0.65,0.77,0.86,1.25S828.45,59.28,828.45,59.83z M827.6,67.31v25.65h-6.2V67.31H827.6z"/>
</g>
<g class="st1">
	<path class="st2" d="M529.95,71.72v14.63c-1.83,1.35-3.79,2.34-5.86,2.96c-2.07,0.63-4.3,0.94-6.66,0.94
		c-2.95,0-5.62-0.46-8.01-1.38c-2.39-0.92-4.43-2.19-6.13-3.82c-1.69-1.63-3-3.58-3.91-5.85c-0.92-2.27-1.38-4.74-1.38-7.42
		c0-2.72,0.44-5.21,1.33-7.47c0.88-2.27,2.14-4.22,3.76-5.85c1.63-1.63,3.6-2.9,5.91-3.8c2.32-0.9,4.92-1.35,7.8-1.35
		c1.47,0,2.84,0.12,4.11,0.35s2.46,0.55,3.55,0.96c1.09,0.41,2.09,0.9,2.99,1.49c0.9,0.58,1.72,1.22,2.47,1.92L528,61.07
		c-0.3,0.48-0.69,0.78-1.17,0.89c-0.48,0.11-1.01-0.01-1.58-0.36c-0.55-0.32-1.1-0.63-1.65-0.95c-0.55-0.32-1.16-0.59-1.84-0.83
		c-0.68-0.23-1.43-0.42-2.28-0.58c-0.84-0.15-1.81-0.22-2.91-0.22c-1.78,0-3.4,0.3-4.84,0.9c-1.44,0.6-2.67,1.46-3.69,2.57
		c-1.02,1.12-1.8,2.46-2.35,4.03c-0.55,1.57-0.83,3.32-0.83,5.25c0,2.07,0.3,3.91,0.89,5.54c0.59,1.63,1.42,3,2.5,4.13
		c1.07,1.13,2.37,1.98,3.89,2.58c1.52,0.59,3.21,0.89,5.08,0.89c1.33,0,2.52-0.14,3.57-0.42c1.05-0.28,2.08-0.67,3.08-1.15v-6.55
		h-4.55c-0.43,0-0.77-0.12-1.01-0.36c-0.24-0.24-0.36-0.54-0.36-0.89v-3.8H529.95z"/>
	<path class="st2" d="M540.93,68.65c0.8-1.53,1.75-2.74,2.85-3.61s2.4-1.31,3.9-1.31c1.18,0,2.13,0.26,2.85,0.77l-0.4,4.63
		c-0.08,0.3-0.2,0.51-0.36,0.64c-0.16,0.13-0.37,0.19-0.64,0.19c-0.25,0-0.62-0.04-1.11-0.13c-0.49-0.08-0.97-0.13-1.44-0.13
		c-0.68,0-1.29,0.1-1.82,0.3c-0.53,0.2-1.01,0.49-1.44,0.86c-0.43,0.38-0.8,0.83-1.13,1.36c-0.33,0.53-0.63,1.14-0.91,1.83v15.8
		h-6.18V64.2h3.63c0.63,0,1.08,0.11,1.33,0.34c0.25,0.22,0.42,0.63,0.5,1.21L540.93,68.65z"/>
	<path class="st2" d="M575.85,64.2v25.65h-3.77c-0.82,0-1.33-0.38-1.55-1.13l-0.43-2.05c-1.05,1.07-2.21,1.93-3.48,2.59
		s-2.76,0.99-4.47,0.99c-1.4,0-2.64-0.24-3.71-0.71c-1.07-0.48-1.98-1.15-2.71-2.01c-0.73-0.87-1.29-1.9-1.66-3.09
		c-0.38-1.19-0.56-2.5-0.56-3.94V64.2h6.18v16.3c0,1.57,0.36,2.78,1.09,3.64s1.81,1.29,3.26,1.29c1.07,0,2.07-0.24,3-0.71
		c0.93-0.47,1.82-1.13,2.65-1.96V64.2H575.85z"/>
	<path class="st2" d="M587.8,67.7c1.05-1.18,2.24-2.14,3.58-2.88c1.33-0.73,2.9-1.1,4.7-1.1c1.4,0,2.68,0.29,3.84,0.88
		c1.16,0.58,2.16,1.43,3,2.54c0.84,1.11,1.49,2.48,1.95,4.1s0.69,3.49,0.69,5.59c0,1.92-0.26,3.69-0.77,5.33
		c-0.52,1.63-1.25,3.05-2.21,4.25c-0.96,1.2-2.12,2.14-3.48,2.81s-2.88,1.01-4.56,1.01c-1.43,0-2.66-0.22-3.67-0.66
		c-1.02-0.44-1.93-1.05-2.73-1.84v10.5h-6.18V64.2h3.78c0.8,0,1.32,0.38,1.57,1.13L587.8,67.7z M588.12,83.2
		c0.7,0.85,1.46,1.45,2.29,1.8c0.82,0.35,1.72,0.53,2.69,0.53c0.93,0,1.77-0.17,2.52-0.53c0.75-0.35,1.39-0.88,1.91-1.6
		c0.52-0.72,0.93-1.62,1.21-2.71c0.28-1.09,0.42-2.38,0.42-3.86c0-1.5-0.12-2.77-0.36-3.81c-0.24-1.04-0.59-1.89-1.04-2.54
		c-0.45-0.65-1-1.13-1.64-1.42c-0.64-0.3-1.37-0.45-2.19-0.45c-1.28,0-2.38,0.27-3.27,0.81s-1.75,1.3-2.55,2.29V83.2z"/>
	<path class="st2" d="M632.92,64.2l-13.98,32.7c-0.18,0.43-0.42,0.76-0.71,0.99c-0.29,0.23-0.74,0.34-1.34,0.34h-4.6l4.8-10.3
		L606.72,64.2h5.43c0.48,0,0.86,0.12,1.14,0.35s0.48,0.5,0.61,0.8l5.45,13.3c0.18,0.45,0.34,0.9,0.46,1.35
		c0.13,0.45,0.25,0.91,0.36,1.38c0.15-0.47,0.3-0.93,0.45-1.39c0.15-0.46,0.32-0.91,0.5-1.36l5.15-13.27
		c0.13-0.33,0.35-0.61,0.66-0.83s0.65-0.33,1.04-0.33H632.92z"/>
	<path class="st2" d="M654.15,56.72c0,0.53-0.11,1.03-0.33,1.5s-0.5,0.88-0.86,1.22c-0.36,0.35-0.78,0.63-1.26,0.84
		s-1,0.31-1.55,0.31c-0.53,0-1.04-0.1-1.51-0.31s-0.89-0.49-1.24-0.84c-0.35-0.35-0.63-0.76-0.84-1.22s-0.31-0.97-0.31-1.5
		c0-0.55,0.1-1.07,0.31-1.55s0.49-0.9,0.84-1.25c0.35-0.35,0.76-0.63,1.24-0.84c0.48-0.21,0.98-0.31,1.51-0.31
		c0.55,0,1.07,0.1,1.55,0.31c0.48,0.21,0.9,0.49,1.26,0.84c0.36,0.35,0.65,0.77,0.86,1.25S654.15,56.17,654.15,56.72z M653.3,64.2
		v25.65h-6.2V64.2H653.3z"/>
	<path class="st2" d="M707.35,64.2l-8.15,25.65h-4.95c-0.57,0-0.96-0.37-1.17-1.1l-4.6-14.82c-0.15-0.5-0.29-1-0.41-1.49
		c-0.13-0.49-0.23-0.99-0.31-1.49c-0.1,0.5-0.21,1-0.34,1.51c-0.13,0.51-0.26,1.01-0.41,1.51l-4.67,14.77
		c-0.2,0.73-0.64,1.1-1.33,1.1h-4.75l-8.13-25.65h4.92c0.45,0,0.83,0.11,1.15,0.33s0.53,0.49,0.63,0.83l3.68,13.7
		c0.18,0.75,0.35,1.48,0.49,2.2c0.14,0.72,0.26,1.43,0.36,2.15c0.18-0.72,0.38-1.43,0.59-2.15c0.21-0.72,0.43-1.45,0.66-2.2
		l4.25-13.75c0.1-0.33,0.3-0.61,0.59-0.83c0.29-0.22,0.65-0.33,1.06-0.33h2.72c0.43,0,0.8,0.11,1.11,0.33s0.51,0.49,0.61,0.83
		l4.13,13.75c0.22,0.75,0.42,1.49,0.61,2.21c0.19,0.73,0.38,1.45,0.56,2.16c0.22-1.42,0.52-2.88,0.92-4.38l3.78-13.7
		c0.12-0.33,0.32-0.61,0.63-0.83c0.3-0.22,0.66-0.33,1.07-0.33H707.35z"/>
	<path class="st2" d="M726.2,69.2c-0.17,0.27-0.34,0.45-0.53,0.56s-0.42,0.16-0.7,0.16c-0.3,0-0.62-0.08-0.96-0.25
		c-0.34-0.17-0.74-0.35-1.19-0.56c-0.45-0.21-0.96-0.4-1.54-0.56c-0.57-0.17-1.25-0.25-2.04-0.25c-1.22,0-2.17,0.26-2.86,0.77
		c-0.69,0.52-1.04,1.19-1.04,2.03c0,0.55,0.18,1.01,0.54,1.39s0.83,0.7,1.42,0.99s1.26,0.54,2.01,0.76
		c0.75,0.22,1.51,0.47,2.29,0.74c0.78,0.27,1.54,0.57,2.29,0.91c0.75,0.34,1.42,0.78,2.01,1.3c0.59,0.53,1.07,1.15,1.43,1.89
		c0.36,0.73,0.54,1.62,0.54,2.65c0,1.23-0.22,2.37-0.66,3.41c-0.44,1.04-1.1,1.94-1.96,2.7c-0.87,0.76-1.94,1.35-3.21,1.78
		c-1.27,0.42-2.75,0.64-4.41,0.64c-0.88,0-1.75-0.08-2.59-0.24s-1.65-0.38-2.42-0.66c-0.77-0.28-1.49-0.62-2.15-1
		c-0.66-0.38-1.24-0.8-1.74-1.25l1.43-2.35c0.18-0.28,0.4-0.5,0.65-0.65c0.25-0.15,0.57-0.23,0.95-0.23c0.38,0,0.75,0.11,1.09,0.33
		c0.34,0.22,0.74,0.45,1.19,0.7c0.45,0.25,0.98,0.48,1.59,0.7s1.38,0.33,2.31,0.33c0.73,0,1.36-0.09,1.89-0.26s0.96-0.4,1.3-0.69
		s0.59-0.61,0.75-0.99s0.24-0.76,0.24-1.16c0-0.6-0.18-1.09-0.54-1.47s-0.83-0.72-1.42-1c-0.59-0.28-1.27-0.54-2.03-0.76
		s-1.53-0.47-2.33-0.74c-0.79-0.27-1.57-0.58-2.32-0.94c-0.76-0.36-1.43-0.81-2.03-1.36c-0.59-0.55-1.07-1.23-1.42-2.03
		s-0.54-1.77-0.54-2.9c0-1.05,0.21-2.05,0.63-3c0.42-0.95,1.03-1.78,1.84-2.49c0.81-0.71,1.82-1.27,3.03-1.7
		c1.21-0.42,2.6-0.64,4.19-0.64c1.77,0,3.38,0.29,4.82,0.88c1.45,0.58,2.66,1.35,3.63,2.3L726.2,69.2z"/>
	<path class="st2" d="M738.37,67.7c1.05-1.18,2.24-2.14,3.57-2.88c1.33-0.73,2.9-1.1,4.7-1.1c1.4,0,2.68,0.29,3.84,0.88
		c1.16,0.58,2.16,1.43,3,2.54c0.84,1.11,1.49,2.48,1.95,4.1c0.46,1.63,0.69,3.49,0.69,5.59c0,1.92-0.26,3.69-0.78,5.33
		c-0.52,1.63-1.25,3.05-2.21,4.25c-0.96,1.2-2.12,2.14-3.47,2.81s-2.88,1.01-4.56,1.01c-1.43,0-2.66-0.22-3.67-0.66
		s-1.92-1.05-2.73-1.84v10.5h-6.17V64.2h3.78c0.8,0,1.33,0.38,1.58,1.13L738.37,67.7z M738.7,83.2c0.7,0.85,1.46,1.45,2.29,1.8
		c0.83,0.35,1.72,0.53,2.69,0.53c0.93,0,1.77-0.17,2.52-0.53c0.75-0.35,1.39-0.88,1.91-1.6c0.52-0.72,0.93-1.62,1.21-2.71
		c0.28-1.09,0.43-2.38,0.43-3.86c0-1.5-0.12-2.77-0.36-3.81c-0.24-1.04-0.59-1.89-1.04-2.54c-0.45-0.65-1-1.13-1.64-1.42
		c-0.64-0.3-1.37-0.45-2.19-0.45c-1.28,0-2.38,0.27-3.27,0.81c-0.9,0.54-1.75,1.3-2.55,2.29V83.2z"/>
	<path class="st2" d="M772.27,63.8c1.9,0,3.63,0.31,5.19,0.92c1.56,0.62,2.89,1.49,4,2.63c1.11,1.13,1.96,2.52,2.56,4.15
		c0.6,1.63,0.9,3.46,0.9,5.48c0,2.03-0.3,3.87-0.9,5.5c-0.6,1.63-1.46,3.02-2.56,4.17c-1.11,1.15-2.44,2.03-4,2.65
		c-1.56,0.62-3.29,0.92-5.19,0.92c-1.92,0-3.66-0.31-5.23-0.92c-1.57-0.62-2.9-1.5-4.01-2.65s-1.97-2.54-2.57-4.17
		c-0.61-1.63-0.91-3.47-0.91-5.5c0-2.02,0.3-3.84,0.91-5.48c0.61-1.63,1.47-3.02,2.57-4.15s2.45-2.01,4.01-2.63
		S770.36,63.8,772.27,63.8z M772.27,85.47c2.13,0,3.71-0.72,4.74-2.15c1.02-1.43,1.54-3.53,1.54-6.3s-0.51-4.88-1.54-6.33
		c-1.03-1.45-2.6-2.17-4.74-2.17c-2.17,0-3.77,0.73-4.81,2.19c-1.04,1.46-1.56,3.56-1.56,6.31s0.52,4.85,1.56,6.29
		C768.5,84.75,770.11,85.47,772.27,85.47z M780.92,53.3l-6.17,6.52c-0.32,0.33-0.62,0.56-0.91,0.69c-0.29,0.13-0.67,0.19-1.14,0.19
		H769l3.55-6.08c0.25-0.43,0.54-0.76,0.88-0.99c0.33-0.22,0.83-0.34,1.5-0.34H780.92z"/>
	<path class="st2" d="M795.9,52.7v37.15h-6.17V52.7H795.9z"/>
	<path class="st2" d="M807.85,67.35c0.52-0.52,1.06-1,1.64-1.44c0.57-0.44,1.18-0.82,1.82-1.13s1.33-0.55,2.06-0.73
		c0.73-0.17,1.53-0.26,2.4-0.26c1.4,0,2.64,0.24,3.72,0.71c1.08,0.48,1.99,1.14,2.71,2s1.28,1.88,1.65,3.08s0.56,2.5,0.56,3.94
		v16.33h-6.18V73.52c0-1.57-0.36-2.78-1.07-3.64c-0.72-0.86-1.81-1.29-3.28-1.29c-1.07,0-2.07,0.24-3,0.72s-1.82,1.14-2.65,1.98
		v18.55h-6.17V64.2h3.78c0.8,0,1.33,0.38,1.58,1.13L807.85,67.35z"/>
	<path class="st2" d="M841.62,63.8c1.9,0,3.63,0.31,5.19,0.92c1.56,0.62,2.89,1.49,4,2.63c1.11,1.13,1.96,2.52,2.56,4.15
		c0.6,1.63,0.9,3.46,0.9,5.48c0,2.03-0.3,3.87-0.9,5.5c-0.6,1.63-1.46,3.02-2.56,4.17c-1.11,1.15-2.44,2.03-4,2.65
		c-1.56,0.62-3.29,0.92-5.19,0.92c-1.92,0-3.66-0.31-5.23-0.92c-1.57-0.62-2.9-1.5-4.01-2.65s-1.97-2.54-2.57-4.17
		c-0.61-1.63-0.91-3.47-0.91-5.5c0-2.02,0.3-3.84,0.91-5.48c0.61-1.63,1.47-3.02,2.57-4.15s2.45-2.01,4.01-2.63
		S839.71,63.8,841.62,63.8z M841.62,85.47c2.13,0,3.71-0.72,4.74-2.15c1.02-1.43,1.54-3.53,1.54-6.3s-0.51-4.88-1.54-6.33
		c-1.03-1.45-2.6-2.17-4.74-2.17c-2.17,0-3.77,0.73-4.81,2.19c-1.04,1.46-1.56,3.56-1.56,6.31s0.52,4.85,1.56,6.29
		C837.85,84.75,839.46,85.47,841.62,85.47z"/>
	<path class="st2" d="M867.05,90.25c-2.23,0-3.95-0.63-5.14-1.89c-1.19-1.26-1.79-3-1.79-5.21V68.82h-2.63
		c-0.33,0-0.62-0.11-0.85-0.33c-0.23-0.22-0.35-0.54-0.35-0.97v-2.45l4.13-0.67l1.3-7c0.08-0.33,0.24-0.59,0.47-0.78
		c0.23-0.18,0.53-0.27,0.9-0.27h3.2v8.08h6.85v4.4h-6.85v13.9c0,0.8,0.2,1.42,0.59,1.88s0.93,0.67,1.61,0.67
		c0.38,0,0.7-0.05,0.96-0.14c0.26-0.09,0.48-0.19,0.67-0.29c0.19-0.1,0.36-0.2,0.51-0.29c0.15-0.09,0.3-0.14,0.45-0.14
		c0.18,0,0.33,0.05,0.45,0.14c0.12,0.09,0.24,0.23,0.38,0.41l1.85,3c-0.9,0.75-1.93,1.32-3.1,1.7
		C869.51,90.06,868.3,90.25,867.05,90.25z"/>
	<path class="st2" d="M900.4,64.2l-13.97,32.7c-0.18,0.43-0.42,0.76-0.71,0.99c-0.29,0.23-0.74,0.34-1.34,0.34h-4.6l4.8-10.3
		L874.2,64.2h5.42c0.48,0,0.86,0.12,1.14,0.35c0.27,0.23,0.48,0.5,0.61,0.8l5.45,13.3c0.18,0.45,0.34,0.9,0.46,1.35
		c0.13,0.45,0.25,0.91,0.36,1.38c0.15-0.47,0.3-0.93,0.45-1.39c0.15-0.46,0.32-0.91,0.5-1.36l5.15-13.27
		c0.13-0.33,0.35-0.61,0.66-0.83s0.65-0.33,1.04-0.33H900.4z"/>
</g>
<g class="st3">
	<path class="st2" d="M1038.53,76.74l-8.79-3.91c-0.62-0.28-1.02-0.89-1.02-1.57v-2.41c2.95-2.35,4.85-5.97,4.85-10.03v-3.4
		c0.97-0.54,1.62-1.58,1.62-2.74v-0.33c0-7.07-5.75-12.83-12.83-12.83h-3.23c-7.07,0-12.83,5.75-12.83,12.83v2.99
		c0,1.02,0.44,1.95,1.21,2.54c0.13,0.1,0.27,0.19,0.41,0.27v0.67c0,4.06,1.9,7.68,4.85,10.03v2.41c0,0.68-0.4,1.3-1.02,1.57
		l-8.79,3.91c-2.88,1.28-4.74,4.14-4.74,7.29v20.04c0,0.84,0.68,1.51,1.51,1.51c0.84,0,1.51-0.68,1.51-1.51V84.03
		c0-0.18,0.01-0.35,0.03-0.52l4.05,4.05c0.63,0.63,0.98,1.47,0.98,2.36v14.16c0,0.84,0.68,1.51,1.51,1.51s1.51-0.68,1.51-1.51V89.92
		c0-1.7-0.66-3.3-1.86-4.5l-4.83-4.83c0.43-0.45,0.96-0.83,1.55-1.09l8.64-3.84l6.41,6.41v22c0,0.84,0.68,1.51,1.51,1.51
		c0.84,0,1.51-0.68,1.51-1.51v-22l6.41-6.41l8.64,3.84c0.59,0.26,1.12,0.64,1.55,1.09l-4.83,4.83c-1.2,1.2-1.86,2.8-1.86,4.5v14.16
		c0,0.84,0.68,1.51,1.51,1.51s1.51-0.68,1.51-1.51V89.92c0-0.89,0.35-1.73,0.98-2.36l4.05-4.05c0.02,0.17,0.03,0.34,0.03,0.52v20.04
		c0,0.84,0.68,1.51,1.51,1.51s1.51-0.68,1.51-1.51V84.03C1043.27,80.88,1041.41,78.02,1038.53,76.74z M1010.94,58.81v-0.68
		c0.94-0.37,1.86-0.97,2.75-1.78c0.61-0.57,0.65-1.52,0.09-2.14c-0.57-0.61-1.52-0.65-2.14-0.09c-0.76,0.7-1.51,1.15-2.25,1.34
		c-0.02,0-0.03,0.01-0.04,0.01c-0.01-0.02-0.03-0.07-0.03-0.14v-2.99c0-5.41,4.4-9.8,9.8-9.8h3.23c5.41,0,9.8,4.4,9.8,9.8v0.33
		c0,0.05-0.03,0.09-0.07,0.1c-9.06,1.79-13.6-1.58-15.13-3.11c-0.59-0.59-1.55-0.59-2.14,0c-0.59,0.59-0.59,1.55,0,2.14
		c4.7,4.7,11.55,4.78,15.72,4.28v2.73c0,5.41-4.4,9.8-9.8,9.8C1015.33,68.61,1010.94,64.22,1010.94,58.81z M1020.74,71.64
		c1.75,0,3.43-0.35,4.95-1v0.62c0,0.87,0.24,1.7,0.67,2.42l-5.62,5.62l-5.62-5.62c0.43-0.72,0.67-1.55,0.67-2.42v-0.62
		C1017.31,71.28,1018.99,71.64,1020.74,71.64z"/>
	<path class="st2" d="M996.39,65.28c0-3.95-2.05-7.42-5.14-9.42c0.19-0.61,0.29-1.25,0.29-1.9c0-3.51-2.85-6.36-6.36-6.36
		s-6.36,2.85-6.36,6.36c0,0.65,0.1,1.29,0.29,1.9c-3.09,2-5.14,5.47-5.14,9.42v3.23c0,3.82,1.92,7.2,4.85,9.22v3.33
		c0,0.66-0.36,1.25-0.95,1.54l-5.23,2.62c-2.17,1.08-3.52,3.27-3.52,5.69v13.17c0,0.84,0.68,1.51,1.51,1.51
		c0.84,0,1.51-0.68,1.51-1.51V91.56l2.46,2.46c0.63,0.63,0.98,1.47,0.98,2.36v7.69c0,0.84,0.68,1.51,1.51,1.51
		c0.84,0,1.51-0.68,1.51-1.51v-7.69c0-1.7-0.66-3.3-1.86-4.5l-3.43-3.43c-0.02-0.02-0.03-0.03-0.05-0.05
		c0.22-0.19,0.46-0.36,0.72-0.49l5.23-2.62c0.27-0.13,0.52-0.29,0.75-0.47l3.7,3.7v15.54c0,0.84,0.68,1.51,1.51,1.51
		s1.51-0.68,1.51-1.51V88.53l3.7-3.7c0.23,0.18,0.48,0.33,0.75,0.47l1.44,0.72c0.22,0.11,0.45,0.16,0.68,0.16
		c0.55,0,1.09-0.31,1.35-0.84c0.37-0.75,0.07-1.66-0.68-2.03l-1.44-0.72c-0.59-0.29-0.95-0.88-0.95-1.54v-3.33
		c2.93-2.02,4.85-5.4,4.85-9.22V65.28L996.39,65.28z M981.84,53.96c0-1.84,1.5-3.34,3.34-3.34s3.34,1.5,3.34,3.34
		c0,0.2-0.02,0.4-0.05,0.6c-1.04-0.32-2.14-0.49-3.28-0.49c-1.14,0-2.24,0.17-3.28,0.49C981.86,54.36,981.84,54.16,981.84,53.96z
		 M985.18,57.09c4.51,0,8.19,3.67,8.19,8.19v0.55c-6.3,1.93-10.05-2.86-10.21-3.07c-0.26-0.35-0.67-0.57-1.1-0.6
		c-0.44-0.03-0.87,0.13-1.18,0.44c-1.44,1.44-2.86,2.14-3.88,2.48C977.11,60.65,980.73,57.09,985.18,57.09z M988.67,82.27
		l-3.49,3.49l-3.49-3.49c0.1-0.39,0.16-0.8,0.16-1.21v-1.85c1.05,0.33,2.18,0.51,3.34,0.51s2.28-0.18,3.34-0.51v1.85
		C988.52,81.48,988.57,81.88,988.67,82.27z M985.18,76.7c-4.51,0-8.19-3.67-8.19-8.19V68.2c1.21-0.28,2.99-0.92,4.86-2.42
		c0.66,0.62,1.6,1.39,2.8,2.04c1.42,0.77,3.38,1.49,5.78,1.49c0.91,0,1.89-0.11,2.92-0.35C993.12,73.26,989.54,76.7,985.18,76.7z"/>
	<path class="st2" d="M1068.85,81.98l-8.46-4.23c-0.59-0.29-0.95-0.88-0.95-1.54v-2.14c1.98-1.76,3.23-4.32,3.23-7.17v-1.72
		c0.03,0,0.07,0,0.1,0c0.84,0,1.51-0.68,1.51-1.51v-3.23c0-5.29-4.3-9.59-9.59-9.59h-3.23c-5.29,0-9.59,4.3-9.59,9.59v3.23
		c0,0.84,0.68,1.51,1.51,1.51c0.01,0,0.05,0,0.1,0v1.72c0,2.85,1.25,5.41,3.23,7.17v2.14c0,0.66-0.36,1.25-0.95,1.54
		c-0.75,0.37-1.05,1.28-0.68,2.03c0.27,0.53,0.8,0.84,1.35,0.84c0.23,0,0.46-0.05,0.68-0.16c0.27-0.13,0.52-0.29,0.75-0.47l3.7,3.7
		v20.39c0,0.84,0.68,1.51,1.51,1.51s1.51-0.68,1.51-1.51V83.68l3.7-3.7c0.23,0.18,0.48,0.33,0.75,0.47l8.19,4.1l-2.48,2.48
		c-1.2,1.2-1.86,2.8-1.86,4.5v12.54c0,0.84,0.68,1.51,1.51,1.51c0.84,0,1.51-0.68,1.51-1.51V91.53c0-0.89,0.35-1.73,0.98-2.36
		l2.35-2.35c0.07,0.27,0.11,0.56,0.11,0.85v16.4c0,0.84,0.68,1.51,1.51,1.51s1.51-0.68,1.51-1.51v-16.4
		C1072.36,85.25,1071.01,83.07,1068.85,81.98z M1044.88,60.43c0-3.62,2.95-6.57,6.57-6.57h3.23c3.62,0,6.57,2.95,6.57,6.57v1.68
		c-6.57-0.35-10.54-2.91-10.58-2.94c-0.26-0.17-0.55-0.25-0.84-0.25c-0.39,0-0.78,0.15-1.07,0.44c-1.45,1.45-2.86,2.14-3.88,2.48
		L1044.88,60.43L1044.88,60.43z M1046.5,64.46c1.06-0.42,2.29-1.1,3.55-2.17c1.59,0.83,4.91,2.25,9.59,2.73v1.88
		c0,3.62-2.95,6.57-6.57,6.57s-6.57-2.95-6.57-6.57V64.46L1046.5,64.46z M1053.07,76.49c1.17,0,2.3-0.21,3.34-0.6v0.32
		c0,0.42,0.06,0.82,0.16,1.21l-3.49,3.49l-3.49-3.49c0.1-0.39,0.16-0.8,0.16-1.21v-0.32C1050.77,76.28,1051.9,76.49,1053.07,76.49z"
		/>
</g>
<g class="st3">
	<path class="st2" d="M359.03,62.5c0-3.95-2.05-7.42-5.14-9.42c0.19-0.61,0.29-1.25,0.29-1.9c0-3.51-2.85-6.36-6.36-6.36
		s-6.36,2.85-6.36,6.36c0,0.65,0.1,1.29,0.29,1.9c-3.09,2-5.14,5.47-5.14,9.42v3.23c0,3.82,1.92,7.2,4.85,9.22v3.33
		c0,0.66-0.36,1.25-0.95,1.54l-5.23,2.62c-2.17,1.08-3.52,3.27-3.52,5.69v13.17c0,0.84,0.68,1.51,1.51,1.51
		c0.84,0,1.51-0.68,1.51-1.51V88.78l2.46,2.46c0.63,0.63,0.98,1.47,0.98,2.36v7.69c0,0.84,0.68,1.51,1.51,1.51s1.51-0.68,1.51-1.51
		v-7.69c0-1.7-0.66-3.3-1.86-4.5l-3.43-3.43c-0.02-0.02-0.03-0.03-0.05-0.05c0.22-0.19,0.46-0.36,0.72-0.49l5.23-2.62
		c0.27-0.13,0.52-0.29,0.75-0.47l3.7,3.7v15.54c0,0.84,0.68,1.51,1.51,1.51c0.84,0,1.51-0.68,1.51-1.51V85.76l3.7-3.7
		c0.23,0.18,0.48,0.33,0.75,0.47l1.44,0.72c0.22,0.11,0.45,0.16,0.68,0.16c0.55,0,1.09-0.31,1.35-0.84
		c0.37-0.75,0.07-1.66-0.68-2.03l-1.44-0.72c-0.59-0.29-0.95-0.88-0.95-1.54v-3.33c2.93-2.02,4.85-5.4,4.85-9.22V62.5L359.03,62.5z
		 M344.49,51.19c0-1.84,1.5-3.34,3.34-3.34c1.84,0,3.34,1.5,3.34,3.34c0,0.2-0.02,0.4-0.05,0.6c-1.04-0.32-2.14-0.49-3.28-0.49
		c-1.14,0-2.24,0.17-3.28,0.49C344.51,51.59,344.49,51.39,344.49,51.19z M347.82,54.32c4.51,0,8.19,3.67,8.19,8.19v0.55
		c-6.3,1.93-10.05-2.86-10.21-3.07c-0.26-0.35-0.67-0.57-1.1-0.6c-0.44-0.03-0.87,0.13-1.18,0.44c-1.44,1.44-2.86,2.14-3.88,2.48
		C339.75,57.88,343.38,54.32,347.82,54.32z M351.32,79.5l-3.49,3.49l-3.49-3.49c0.1-0.39,0.16-0.8,0.16-1.21v-1.85
		c1.05,0.33,2.18,0.51,3.34,0.51s2.28-0.18,3.34-0.51v1.85C351.16,78.7,351.22,79.11,351.32,79.5z M347.82,73.92
		c-4.51,0-8.19-3.67-8.19-8.19v-0.31c1.21-0.28,2.99-0.92,4.86-2.42c0.66,0.62,1.6,1.39,2.8,2.04c1.42,0.77,3.38,1.49,5.78,1.49
		c0.91,0,1.89-0.11,2.92-0.35C355.76,70.49,352.19,73.92,347.82,73.92z"/>
	<path class="st2" d="M431.49,79.21l-8.46-4.23c-0.59-0.29-0.95-0.88-0.95-1.54v-2.14c1.98-1.76,3.23-4.32,3.23-7.17V62.4
		c0.03,0,0.07,0,0.1,0c0.84,0,1.51-0.68,1.51-1.51v-3.23c0-5.29-4.3-9.59-9.59-9.59h-3.23c-5.29,0-9.59,4.3-9.59,9.59v3.23
		c0,0.84,0.68,1.51,1.51,1.51c0.01,0,0.05,0,0.1,0v1.72c0,2.85,1.25,5.41,3.23,7.17v2.14c0,0.66-0.36,1.25-0.95,1.54
		c-0.75,0.37-1.05,1.28-0.68,2.03c0.26,0.53,0.8,0.84,1.35,0.84c0.23,0,0.46-0.05,0.68-0.16c0.27-0.13,0.52-0.29,0.75-0.47l3.7,3.7
		v20.39c0,0.84,0.68,1.51,1.51,1.51c0.84,0,1.51-0.68,1.51-1.51V80.91l3.7-3.7c0.23,0.18,0.48,0.33,0.75,0.47l8.19,4.1l-2.48,2.48
		c-1.2,1.2-1.86,2.8-1.86,4.5v12.54c0,0.84,0.68,1.51,1.51,1.51c0.84,0,1.51-0.68,1.51-1.51V88.76c0-0.89,0.35-1.73,0.98-2.36
		l2.35-2.35c0.07,0.27,0.11,0.56,0.11,0.85v16.4c0,0.84,0.68,1.51,1.51,1.51c0.84,0,1.51-0.68,1.51-1.51V84.9
		C435.01,82.47,433.66,80.29,431.49,79.21z M407.53,57.65c0-3.62,2.95-6.57,6.57-6.57h3.23c3.62,0,6.57,2.95,6.57,6.57v1.68
		c-6.57-0.35-10.54-2.91-10.58-2.94c-0.26-0.17-0.55-0.25-0.84-0.25c-0.39,0-0.78,0.15-1.07,0.44c-1.45,1.45-2.86,2.14-3.88,2.48
		L407.53,57.65L407.53,57.65z M409.14,61.68c1.06-0.42,2.29-1.1,3.55-2.17c1.59,0.83,4.91,2.25,9.59,2.73v1.88
		c0,3.62-2.95,6.57-6.57,6.57c-3.62,0-6.57-2.95-6.57-6.57V61.68L409.14,61.68z M415.71,73.71c1.17,0,2.3-0.21,3.34-0.6v0.32
		c0,0.42,0.06,0.82,0.16,1.21l-3.49,3.49l-3.49-3.49c0.1-0.39,0.16-0.8,0.16-1.21v-0.32C413.42,73.5,414.54,73.71,415.71,73.71z"/>
	<g class="st4">
		<path class="st5" d="M370.52,89.76c-0.78,0-1.41,0.63-1.41,1.41v9.94c0,0.78,0.63,1.41,1.41,1.41c0.78,0,1.41-0.63,1.41-1.41
			v-9.94C371.92,90.39,371.29,89.76,370.52,89.76z"/>
		<path class="st5" d="M396.26,89.76c-0.78,0-1.41,0.63-1.41,1.41v9.94c0,0.78,0.63,1.41,1.41,1.41c0.78,0,1.41-0.63,1.41-1.41
			v-9.94C397.66,90.39,397.03,89.76,396.26,89.76z"/>
		<path class="st5" d="M405.11,83.84c-0.06-0.09-0.4-0.57-0.69-0.75l-0.03-0.02c-0.01-0.01-0.02-0.01-0.03-0.02
			c-0.74-0.66-5.16-2.56-6.63-3.19c2.37-0.89,4.03-1.82,5.02-2.46c0.9-0.58,1.36-1.64,1.19-2.69c-0.02-0.15-1.41-11.7-1.42-11.81
			c-0.06-0.62-0.13-1.27-0.2-1.94c-0.26-2.49-0.56-5.32-0.79-8.5c-0.4-5.38-2.33-9.92-5.6-13.14c-3.25-3.2-7.58-4.89-12.53-4.89
			c-4.95,0-9.28,1.69-12.53,4.89c-3.27,3.22-5.21,7.77-5.6,13.14c-0.03,0.42-0.31,2.46-0.67,5.03c-0.85,6.12-2.14,15.37-2.01,16.92
			c0.01,0.15,0.02,0.31,0.03,0.46c0.01,0.11,0.01,0.22,0.02,0.33c0.02,0.36,0.33,1.54,1.41,2.2c1.05,0.65,2.7,1.59,5.04,2.47
			c-0.76,0.35-2.29,1.04-2.92,1.28c-1.52,0.58-3.26,1.58-3.29,1.6c-1.73,1.23-2.76,3.22-2.76,5.34v13.02c0,0.78,0.63,1.41,1.41,1.41
			c0.78,0,1.41-0.63,1.41-1.41V88.08c0-1.48,0.88-2.82,2.23-3.42l6.71-2.96c2.24,4.33,6.64,7.01,11.53,7.01
			c4.9,0,9.3-2.68,11.54-7.01l6.71,2.96c1.35,0.6,2.23,1.94,2.23,3.42v13.02c0,0.78,0.63,1.41,1.41,1.41c0.78,0,1.41-0.63,1.41-1.41
			V88.08C406.67,86.53,406.12,85.03,405.11,83.84z M383.39,85.9c-3.76,0-7.18-2.04-8.96-5.34l1.56-0.69
			c1.44-0.64,2.37-2.07,2.37-3.64v-2.59c1.61,0.61,3.3,0.92,5.03,0.92c1.73,0,3.42-0.31,5.03-0.92v2.59c0,1.58,0.93,3,2.37,3.64
			l1.56,0.69C390.56,83.86,387.15,85.9,383.39,85.9z M393.84,78.15l-1.92-0.85c-0.42-0.19-0.7-0.61-0.7-1.07V72.2
			c4.03-2.66,6.44-7.11,6.44-11.92v-2.26c0-1.53-0.65-2.97-1.78-3.95c-2.44-2.12-7.95-5.82-17.5-6.77c-0.05,0-0.09-0.01-0.14-0.01
			c-0.72,0-1.33,0.54-1.4,1.27c-0.08,0.77,0.49,1.46,1.26,1.54c8.78,0.88,13.75,4.2,15.94,6.1c0.52,0.45,0.81,1.12,0.81,1.83v2.26
			c0,6.32-5.14,11.46-11.46,11.46s-11.46-5.14-11.46-11.46v-1.01c0-0.39,0.22-0.75,0.59-0.96c1.54-0.88,3.56-2.52,4.49-5.31
			c0.12-0.36,0.09-0.74-0.08-1.07c-0.17-0.34-0.46-0.59-0.81-0.7c-0.14-0.05-0.29-0.07-0.44-0.07c-0.61,0-1.14,0.39-1.33,0.96
			c-0.65,1.95-2.11,3.12-3.23,3.76c-1.23,0.71-1.99,2.01-1.99,3.4v1.01c0,4.82,2.4,9.27,6.44,11.92v4.03c0,0.46-0.27,0.88-0.7,1.07
			l-1.92,0.85c-3.75-1.01-6.17-2.34-7.32-3.08c0.01-2.68,0.77-9.6,2.45-22.4c0.68-5.15,2.24-8.86,4.77-11.36
			c2.71-2.67,6.36-4.08,10.56-4.08c4.2,0,7.85,1.41,10.56,4.08c2.78,2.73,4.43,6.66,4.77,11.35c0.94,12.71,2.01,19.86,2.44,22.42
			C400,75.81,397.58,77.14,393.84,78.15z"/>
	</g>
</g>
<circle class="st6" cx="462.27" cy="75.73" r="5.55"/>
<circle class="st6" cx="940.99" cy="75.73" r="5.55"/>
<circle class="st6" cx="304.9" cy="75.73" r="3"/>
<circle class="st6" cx="1095.1" cy="76.73" r="3"/>
</svg>
