<?xml version="1.0" encoding="utf-8"?>
<!-- Generator: Adobe Illustrator 24.2.1, SVG Export Plug-In . SVG Version: 6.00 Build 0)  -->
<svg version="1.1" id="Warstwa_1" xmlns="http://www.w3.org/2000/svg" xmlns:xlink="http://www.w3.org/1999/xlink" x="0px" y="0px"
	 viewBox="0 0 1400 230" style="enable-background:new 0 0 1400 230;" xml:space="preserve">
<style type="text/css">
	.st0{fill:#9D9D9C;}
	.st1{fill:#AA7E63;}
	.st2{fill:#020203;}
	.st3{opacity:0.5;}
	.st4{fill:#FFFFFF;}
	.st5{opacity:0.5;fill:#FFFFFF;}
	.st6{clip-path:url(#SVGID_2_);}
	.st7{clip-path:url(#SVGID_4_);}
	.st8{clip-path:url(#SVGID_6_);}
	.st9{clip-path:url(#SVGID_8_);}
	.st10{clip-path:url(#SVGID_10_);}
	.st11{clip-path:url(#SVGID_12_);}
	.st12{clip-path:url(#SVGID_14_);}
	.st13{clip-path:url(#SVGID_16_);}
	.st14{clip-path:url(#SVGID_18_);}
	.st15{clip-path:url(#SVGID_20_);}
	.st16{clip-path:url(#SVGID_22_);}
	.st17{clip-path:url(#SVGID_24_);}
	.st18{clip-path:url(#SVGID_26_);}
	.st19{clip-path:url(#SVGID_28_);}
	.st20{clip-path:url(#SVGID_30_);}
	.st21{clip-path:url(#SVGID_32_);}
	.st22{clip-path:url(#SVGID_34_);}
	.st23{clip-path:url(#SVGID_36_);}
	.st24{clip-path:url(#SVGID_38_);}
	.st25{clip-path:url(#SVGID_40_);}
	.st26{clip-path:url(#SVGID_42_);}
	.st27{clip-path:url(#SVGID_44_);}
	.st28{clip-path:url(#SVGID_46_);}
	.st29{clip-path:url(#SVGID_48_);}
	.st30{clip-path:url(#SVGID_50_);}
	.st31{clip-path:url(#SVGID_52_);}
	.st32{clip-path:url(#SVGID_54_);}
	.st33{clip-path:url(#SVGID_56_);}
	.st34{clip-path:url(#SVGID_58_);}
	.st35{clip-path:url(#SVGID_60_);}
	.st36{clip-path:url(#SVGID_62_);}
	.st37{clip-path:url(#SVGID_64_);}
	.st38{clip-path:url(#SVGID_66_);}
	.st39{clip-path:url(#SVGID_68_);}
	.st40{clip-path:url(#SVGID_70_);}
	.st41{fill:#123274;}
	.st42{fill:#2DB8C5;}
	.st43{opacity:0.8;}
	.st44{fill:#008BC0;}
	.st45{opacity:0.5;fill:none;stroke:#FFFFFF;stroke-width:8;stroke-linecap:round;stroke-linejoin:round;stroke-miterlimit:10;}
	.st46{opacity:0.5;fill:none;stroke:#FFFFFF;stroke-width:7;stroke-linecap:round;stroke-linejoin:round;stroke-miterlimit:10;}
	.st47{fill:#0B5BA6;}
	.st48{opacity:0.8;fill:url(#SVGID_71_);}
	.st49{fill:none;stroke:#FFFFFF;stroke-width:10;stroke-miterlimit:10;}
	.st50{opacity:0.8;fill:url(#SVGID_72_);}
	.st51{fill:none;stroke:#FFFFFF;stroke-width:5;stroke-miterlimit:10;}
	.st52{fill:none;stroke:#FFFFFF;stroke-width:6;stroke-miterlimit:10;}
	.st53{opacity:0.8;fill:url(#SVGID_91_);}
	.st54{fill:#878787;}
	.st55{opacity:0.8;fill:url(#SVGID_110_);}
	.st56{opacity:0.8;fill:url(#SVGID_111_);}
	.st57{stroke:#FFFFFF;stroke-width:8;stroke-linecap:round;stroke-linejoin:round;stroke-miterlimit:10;}
	.st58{opacity:0.8;fill:url(#SVGID_112_);}
	.st59{opacity:0.8;fill:url(#SVGID_113_);}
	.st60{clip-path:url(#SVGID_115_);fill:#12100B;}
	.st61{fill:#12100B;}
	.st62{fill:url(#SVGID_116_);}
	.st63{fill:url(#SVGID_117_);}
	.st64{fill:#E87443;}
	.st65{fill:#82368C;}
	.st66{opacity:0.8;fill:url(#SVGID_118_);}
	.st67{opacity:0.8;fill:url(#SVGID_119_);}
	.st68{opacity:0.8;fill:url(#SVGID_120_);}
	.st69{opacity:0.8;fill:#5EA62B;}
	.st70{fill:#10466D;}
	.st71{opacity:0.4;}
	.st72{clip-path:url(#SVGID_122_);}
	.st73{fill:url(#SVGID_123_);}
	.st74{fill:url(#SVGID_124_);}
	.st75{fill:url(#SVGID_125_);}
	.st76{fill:url(#SVGID_126_);}
	.st77{fill:url(#SVGID_127_);}
	.st78{fill:url(#SVGID_128_);}
	.st79{fill:url(#SVGID_129_);}
	.st80{fill:url(#SVGID_130_);}
	.st81{fill:url(#SVGID_131_);}
	.st82{fill:url(#SVGID_132_);}
	.st83{fill:url(#SVGID_133_);}
	.st84{fill:url(#SVGID_134_);}
	.st85{fill:url(#SVGID_135_);}
	.st86{fill:url(#SVGID_136_);}
	.st87{fill:url(#SVGID_137_);}
	.st88{fill:url(#SVGID_138_);}
	.st89{fill:url(#SVGID_139_);}
	.st90{fill:url(#SVGID_140_);}
	.st91{fill:url(#SVGID_141_);}
	.st92{fill:url(#SVGID_142_);}
	.st93{fill:url(#SVGID_143_);}
	.st94{fill:url(#SVGID_144_);}
	.st95{fill:url(#SVGID_145_);}
	.st96{fill:url(#SVGID_146_);}
	.st97{fill:url(#SVGID_147_);}
	.st98{fill:url(#SVGID_148_);}
	.st99{fill:url(#SVGID_149_);}
	.st100{fill:url(#SVGID_150_);}
	.st101{fill:url(#SVGID_151_);}
	.st102{fill:url(#SVGID_152_);}
	.st103{fill:url(#SVGID_153_);}
	.st104{fill:url(#SVGID_154_);}
	.st105{fill:url(#SVGID_155_);}
	.st106{fill:url(#SVGID_156_);}
	.st107{fill:url(#SVGID_157_);}
	.st108{fill:url(#SVGID_158_);}
	.st109{fill:url(#SVGID_159_);}
	.st110{fill:url(#SVGID_160_);}
	.st111{fill:url(#SVGID_161_);}
	.st112{fill:url(#SVGID_162_);}
	.st113{fill:url(#SVGID_163_);}
	.st114{fill:url(#SVGID_164_);}
	.st115{fill:url(#SVGID_165_);}
	.st116{fill:url(#SVGID_166_);}
	.st117{fill:url(#SVGID_167_);}
	.st118{fill:url(#SVGID_168_);}
	.st119{fill:url(#SVGID_169_);}
	.st120{fill:url(#SVGID_170_);}
	.st121{fill:url(#SVGID_171_);}
	.st122{fill:url(#SVGID_172_);}
	.st123{fill:url(#SVGID_173_);}
	.st124{fill:url(#SVGID_174_);}
	.st125{fill:url(#SVGID_175_);}
	.st126{fill:url(#SVGID_176_);}
	.st127{fill:url(#SVGID_177_);}
	.st128{fill:url(#SVGID_178_);}
	.st129{fill:#F59A1C;}
	.st130{fill:#FFFFFF;stroke:#FFFFFF;stroke-width:14.1732;stroke-miterlimit:10;}
	.st131{fill:#255C30;}
	.st132{fill:#C10C1A;}
	.st133{fill:#65C3CE;}
	.st134{fill:#31B7BC;}
	.st135{opacity:0.4;fill:#FFFFFF;}
	.st136{fill:#C3372A;}
	.st137{opacity:0.65;fill:#FFFFFF;}
	.st138{opacity:0.65;}
	.st139{opacity:0.8;fill:url(#SVGID_179_);}
	.st140{fill:#ED694B;}
	.st141{opacity:0.8;fill:url(#SVGID_180_);}
	.st142{clip-path:url(#SVGID_182_);}
	.st143{clip-path:url(#SVGID_184_);}
	.st144{clip-path:url(#SVGID_186_);}
	.st145{opacity:0.6;}
	.st146{opacity:0.6;fill:#FFFFFF;}
	.st147{opacity:0.8;fill:url(#SVGID_187_);}
	.st148{opacity:0.8;fill:url(#SVGID_188_);}
	.st149{opacity:0.8;fill:url(#SVGID_189_);}
	.st150{fill:none;stroke:#FFFFFF;stroke-width:35;stroke-linecap:round;stroke-linejoin:round;stroke-miterlimit:10;}
	.st151{opacity:0.8;fill:url(#SVGID_190_);}
	.st152{opacity:0.8;fill:url(#SVGID_191_);}
	.st153{fill:none;stroke:#FFFFFF;stroke-width:20;stroke-linecap:round;stroke-linejoin:round;stroke-miterlimit:10;}
	.st154{opacity:0.8;fill:url(#SVGID_192_);}
	.st155{fill:none;stroke:#FFFFFF;stroke-width:2;stroke-miterlimit:10;}
	.st156{opacity:0.75;fill:url(#SVGID_193_);}
	.st157{opacity:0.8;fill:url(#SVGID_194_);}
	.st158{fill:url(#SVGID_195_);}
	.st159{opacity:0.8;fill:url(#SVGID_196_);}
	.st160{opacity:0.8;fill:url(#SVGID_197_);}
	.st161{fill:url(#SVGID_198_);}
	.st162{fill:url(#SVGID_199_);}
	.st163{fill:url(#SVGID_200_);}
	.st164{fill:url(#SVGID_201_);}
	.st165{fill:url(#SVGID_202_);}
	.st166{opacity:0.8;fill:url(#SVGID_203_);}
	.st167{fill:url(#SVGID_204_);}
	.st168{opacity:0.1;}
	.st169{opacity:0.1;fill:#FFFFFF;}
	.st170{opacity:0.15;fill:#FFFFFF;}
	.st171{opacity:0.15;}
	.st172{opacity:0.8;fill:url(#SVGID_205_);}
	.st173{fill:url(#SVGID_206_);}
	.st174{fill:url(#SVGID_207_);}
	.st175{fill:url(#SVGID_208_);}
	.st176{opacity:0.8;fill:url(#SVGID_209_);}
	.st177{opacity:0.8;fill:url(#SVGID_210_);}
	.st178{opacity:0.8;fill:url(#SVGID_211_);}
	.st179{fill:#B2B2B2;}
	.st180{opacity:0.7;fill:url(#SVGID_212_);}
	.st181{opacity:0.9;fill:url(#SVGID_213_);}
	.st182{opacity:0.8;fill:url(#SVGID_214_);}
	.st183{display:none;opacity:0.8;fill:url(#SVGID_215_);}
	.st184{opacity:0.85;}
	.st185{fill:url(#SVGID_216_);}
	.st186{fill:url(#SVGID_217_);}
	.st187{fill:#5DB34E;}
	.st188{fill:url(#SVGID_218_);}
	.st189{fill:url(#SVGID_219_);}
	.st190{opacity:0.8;fill:url(#SVGID_220_);}
	.st191{opacity:0.8;fill:url(#SVGID_221_);}
</style>
<g>
	<rect x="0" y="0" class="st0" width="1400" height="230"/>
</g>
<path class="st5" d="M408.17,113.37c-0.76,0-1.48,0.15-2.16,0.44c-2.16,0.92-3.6,2.87-3.6,5.01c0,2.87,2.47,5.12,5.61,5.12
	c3.34,0,5.42-2.61,5.42-5.01C413.44,117.13,412.15,113.37,408.17,113.37z"/>
<path class="st5" d="M414.96,131.71c-0.76,0-1.48,0.15-2.16,0.44c-2.16,0.92-3.6,2.87-3.6,5.01c0,2.87,2.47,5.12,5.61,5.12
	c3.34,0,5.42-2.61,5.42-5.01C420.23,135.47,418.94,131.71,414.96,131.71z"/>
<path class="st5" d="M870.41,112.74c-0.76,0-1.48,0.15-2.16,0.44c-2.16,0.92-3.6,2.87-3.6,5.01c0,2.87,2.47,5.12,5.61,5.12
	c3.34,0,5.42-2.61,5.42-5.01C875.68,116.5,874.39,112.74,870.41,112.74z"/>
<path class="st5" d="M1233.8,18.03c-0.97,0-1.9,0.19-2.78,0.57c-2.78,1.18-4.63,3.69-4.63,6.43c0,3.69,3.17,6.57,7.21,6.57
	c4.29,0,6.97-3.36,6.97-6.43C1240.57,22.86,1238.92,18.03,1233.8,18.03z"/>
<path class="st5" d="M1363.16,148.85c-0.62,0-1.21,0.12-1.77,0.36c-1.77,0.75-2.94,2.35-2.94,4.09c0,2.35,2.01,4.18,4.59,4.18
	c2.73,0,4.43-2.14,4.43-4.09C1367.46,151.92,1366.41,148.85,1363.16,148.85z"/>
<path class="st5" d="M1344.58,164.95c-0.88,0-1.71,0.17-2.5,0.51c-2.5,1.07-4.17,3.32-4.17,5.79c0,3.32,2.85,5.92,6.5,5.92
	c3.86,0,6.28-3.03,6.28-5.79C1350.68,169.3,1349.19,164.95,1344.58,164.95z"/>
<path class="st5" d="M1360.51,182.29c-0.62,0-1.21,0.12-1.77,0.36c-1.77,0.75-2.94,2.35-2.94,4.09c0,2.35,2.01,4.18,4.59,4.18
	c2.73,0,4.43-2.14,4.43-4.09C1364.81,185.36,1363.76,182.29,1360.51,182.29z"/>
<path class="st5" d="M1216.78,36.94c-0.62,0-1.21,0.12-1.77,0.36c-1.77,0.75-2.94,2.35-2.94,4.09c0,2.35,2.01,4.18,4.59,4.18
	c2.73,0,4.43-2.14,4.43-4.09C1221.09,40.01,1220.03,36.94,1216.78,36.94z"/>
<path class="st5" d="M386.68,129.57c-0.91,0-1.77,0.18-2.59,0.53c-2.59,1.1-4.32,3.44-4.32,6c0,3.44,2.96,6.13,6.73,6.13
	c4,0,6.5-3.13,6.5-6C393,134.07,391.45,129.57,386.68,129.57z"/>
<path class="st5" d="M1104.55,144.97c-1.05,0-2.04,0.2-2.99,0.61c-2.99,1.27-4.98,3.97-4.98,6.92c0,3.97,3.41,7.07,7.76,7.07
	c4.61,0,7.5-3.61,7.5-6.92C1111.84,150.16,1110.05,144.97,1104.55,144.97z"/>
<path class="st5" d="M1104.47,168.99c-0.81,0-1.58,0.16-2.31,0.47c-2.31,0.98-3.85,3.07-3.85,5.35c0,3.07,2.63,5.46,5.99,5.46
	c3.56,0,5.79-2.79,5.79-5.35C1110.1,173,1108.72,168.99,1104.47,168.99z"/>
<path class="st5" d="M1104.41,191.07c-0.61,0-1.19,0.12-1.74,0.36c-1.74,0.74-2.9,2.31-2.9,4.03c0,2.31,1.99,4.12,4.52,4.12
	c2.69,0,4.37-2.1,4.37-4.03C1108.65,194.09,1107.61,191.07,1104.41,191.07z"/>
<path class="st5" d="M1226.74,55.9c-1.05,0-2.04,0.2-2.99,0.61c-2.99,1.27-4.98,3.97-4.98,6.92c0,3.97,3.41,7.07,7.76,7.07
	c4.61,0,7.5-3.61,7.5-6.92C1234.03,61.09,1232.24,55.9,1226.74,55.9z"/>
<g class="st3">
	<g>
		<path class="st4" d="M544.05,91c-1.78,0-3.23-1.4-3.23-3.13c0-1.73,1.44-3.13,3.23-3.13l17.09,0c1.78,0,3.23,1.4,3.23,3.13
			c0,1.73-1.44,3.13-3.23,3.13L544.05,91z"/>
	</g>
	<g>
		<path class="st4" d="M553.08,98.82c-0.83,0-1.65-0.31-2.28-0.92c-1.26-1.22-1.26-3.21,0-4.43l5.78-5.61l-5.77-5.6
			c-1.26-1.22-1.26-3.21,0-4.43c1.26-1.22,3.3-1.22,4.56,0l8.05,7.81c0.61,0.59,0.95,1.38,0.95,2.22c0,0.83-0.34,1.63-0.95,2.21
			l-8.06,7.82C554.73,98.51,553.91,98.82,553.08,98.82z"/>
	</g>
</g>
<g class="st3">
	<g>
		<path class="st4" d="M575.94,113.69c-1.78,0-3.23-1.4-3.23-3.13c0-1.73,1.44-3.13,3.23-3.13l17.09,0c1.78,0,3.23,1.4,3.23,3.13
			c0,1.73-1.45,3.13-3.23,3.13L575.94,113.69z"/>
	</g>
	<g>
		<path class="st4" d="M584.97,121.51c-0.83,0-1.65-0.31-2.28-0.92c-1.26-1.22-1.26-3.21,0-4.43l5.78-5.61l-5.77-5.6
			c-1.26-1.22-1.26-3.21,0-4.43s3.3-1.22,4.56,0l8.05,7.81c0.61,0.59,0.95,1.38,0.95,2.22c0,0.83-0.34,1.63-0.95,2.21l-8.06,7.82
			C586.62,121.2,585.79,121.51,584.97,121.51z"/>
	</g>
</g>
<g class="st3">
	<g>
		<path class="st4" d="M676.81,165.9c-0.83,0-1.65-0.31-2.28-0.92l-17.09-16.59c-1.26-1.22-1.26-3.21,0-4.43
			c1.26-1.22,3.3-1.22,4.56,0l17.09,16.59c1.26,1.22,1.26,3.21,0,4.43C678.46,165.59,677.64,165.9,676.81,165.9z"/>
	</g>
	<g>
		<path class="st4" d="M659.72,165.9c-0.83,0-1.65-0.31-2.28-0.92c-1.26-1.22-1.26-3.21,0-4.43l17.09-16.59
			c1.26-1.22,3.3-1.22,4.56,0c1.26,1.22,1.26,3.21,0,4.43L662,164.98C661.37,165.59,660.54,165.9,659.72,165.9z"/>
	</g>
</g>
<g class="st3">
	<path class="st4" d="M200.47,141.99c-0.86,0-1.68-0.33-2.28-0.92l-8.05-7.81c-1.26-1.22-1.26-3.21,0-4.43
		c1.26-1.22,3.3-1.22,4.56,0l5.77,5.6l9.8-9.51c1.26-1.22,3.3-1.22,4.56,0c1.26,1.22,1.26,3.21,0,4.43l-12.08,11.73
		C202.15,141.66,201.33,141.99,200.47,141.99z"/>
</g>
<path class="st5" d="M920.55,206.99H905.8c-1.57,0-2.84-1.24-2.84-2.76v-20.87h-10.51c-1.57,0-2.84-1.24-2.84-2.76v-14.32
	c0-1.52,1.27-2.76,2.84-2.76h10.51V152.7c0-1.52,1.27-2.76,2.84-2.76h14.75c1.57,0,2.84,1.24,2.84,2.76v10.81h10.51
	c1.57,0,2.84,1.24,2.84,2.76v14.32c0,1.52-1.27,2.76-2.84,2.76H923.4v20.87C923.4,205.75,922.12,206.99,920.55,206.99L920.55,206.99
	z M908.64,201.46h9.07V180.6c0-1.53,1.27-2.76,2.84-2.76h10.51v-8.8h-10.51c-1.57,0-2.84-1.24-2.84-2.76v-10.81h-9.07v10.81
	c0,1.52-1.27,2.76-2.84,2.76h-10.51v8.8h10.51c1.57,0,2.84,1.23,2.84,2.76V201.46z M908.64,201.46"/>
<g class="st3">
	<g>
		<path class="st4" d="M1172.39,52.77c1.78,0,3.23,1.4,3.23,3.13c0,1.73-1.44,3.13-3.23,3.13l-17.09,0c-1.78,0-3.23-1.4-3.23-3.13
			c0-1.73,1.44-3.13,3.23-3.13L1172.39,52.77z"/>
	</g>
	<g>
		<path class="st4" d="M1163.35,44.96c0.83,0,1.65,0.31,2.28,0.92c1.26,1.22,1.26,3.21,0,4.43l-5.78,5.61l5.77,5.6
			c1.26,1.22,1.26,3.21,0,4.43s-3.3,1.22-4.56,0l-8.05-7.81c-0.61-0.59-0.95-1.38-0.95-2.22c0-0.83,0.34-1.63,0.95-2.21l8.06-7.82
			C1161.7,45.26,1162.53,44.96,1163.35,44.96z"/>
	</g>
</g>
<path class="st5" d="M1027.5,57.13c-0.38,0-0.75-0.09-1.08-0.26l-7.7-3.93l-7.72,3.93c-0.33,0.17-0.7,0.25-1.07,0.25
	c-0.48,0-0.94-0.14-1.33-0.41c-0.71-0.51-1.07-1.37-0.92-2.19l1.47-8.34l-6.24-5.9c-0.63-0.6-0.85-1.47-0.58-2.28
	c0.27-0.8,0.97-1.38,1.84-1.51l8.64-1.22l3.86-7.59c0.38-0.76,1.17-1.24,2.05-1.24c0.87,0,1.66,0.47,2.05,1.23l3.85,7.59l8.63,1.22
	c0.88,0.13,1.58,0.71,1.85,1.52c0.27,0.81,0.05,1.68-0.58,2.28l-6.24,5.91l1.47,8.34c0.15,0.82-0.2,1.68-0.91,2.18
	C1028.45,56.98,1027.98,57.13,1027.5,57.13z M1018.71,48.2c0.37,0,0.73,0.09,1.06,0.25l4.68,2.39l-0.89-5.05
	c-0.12-0.73,0.12-1.47,0.65-1.97l3.78-3.58l-5.22-0.74c-0.74-0.1-1.39-0.55-1.73-1.22l-2.34-4.59l-2.34,4.59
	c-0.33,0.66-0.98,1.12-1.73,1.22l-5.21,0.73l3.78,3.57c0.54,0.51,0.78,1.25,0.66,1.97l-0.9,5.05l4.67-2.38
	C1017.98,48.28,1018.35,48.2,1018.71,48.2z"/>
<path class="st5" d="M1166.78,204.33c-0.36,0-0.71-0.09-1.02-0.25l-7.3-3.72l-7.31,3.73c-0.31,0.16-0.66,0.24-1.01,0.24
	c-0.45,0-0.89-0.13-1.26-0.39c-0.68-0.49-1.01-1.3-0.88-2.07l1.39-7.9l-5.91-5.59c-0.6-0.57-0.81-1.39-0.55-2.16
	c0.25-0.76,0.92-1.31,1.74-1.44l8.19-1.15l3.66-7.19c0.36-0.72,1.11-1.17,1.94-1.17c0.83,0,1.57,0.45,1.95,1.17l3.65,7.19l8.18,1.15
	c0.83,0.13,1.5,0.68,1.75,1.44c0.26,0.76,0.05,1.59-0.55,2.16l-5.92,5.6l1.39,7.9c0.15,0.78-0.19,1.59-0.86,2.06
	C1167.67,204.19,1167.24,204.33,1166.78,204.33z M1158.45,195.87c0.35,0,0.7,0.08,1.01,0.24l4.44,2.26l-0.84-4.78
	c-0.12-0.69,0.11-1.39,0.62-1.87l3.58-3.39l-4.95-0.7c-0.7-0.09-1.32-0.53-1.64-1.15l-2.21-4.35l-2.21,4.35
	c-0.32,0.63-0.93,1.06-1.64,1.15l-4.94,0.7l3.58,3.39c0.51,0.49,0.74,1.18,0.63,1.86l-0.85,4.79l4.43-2.26
	C1157.76,195.95,1158.1,195.87,1158.45,195.87z"/>
<path class="st5" d="M374.15,59.72c-0.36,0-0.71-0.09-1.02-0.25l-7.3-3.72l-7.31,3.73c-0.31,0.16-0.66,0.24-1.01,0.24
	c-0.45,0-0.89-0.13-1.26-0.39c-0.68-0.49-1.01-1.3-0.88-2.07l1.39-7.9l-5.91-5.59c-0.6-0.57-0.81-1.39-0.55-2.16
	c0.25-0.76,0.92-1.31,1.74-1.44l8.19-1.15l3.66-7.19c0.36-0.72,1.11-1.17,1.94-1.17c0.83,0,1.57,0.45,1.95,1.17l3.65,7.19l8.18,1.15
	c0.83,0.13,1.5,0.68,1.75,1.44c0.26,0.76,0.05,1.59-0.55,2.16l-5.92,5.6l1.39,7.9c0.15,0.78-0.19,1.59-0.86,2.06
	C375.04,59.58,374.6,59.72,374.15,59.72z M365.82,51.26c0.35,0,0.7,0.08,1,0.24l4.44,2.26l-0.84-4.78
	c-0.12-0.69,0.11-1.39,0.62-1.87l3.58-3.39l-4.95-0.7c-0.7-0.09-1.32-0.53-1.64-1.15l-2.21-4.35l-2.21,4.35
	c-0.32,0.63-0.93,1.06-1.64,1.15l-4.94,0.7l3.58,3.39c0.51,0.49,0.74,1.18,0.63,1.86l-0.85,4.79l4.43-2.26
	C365.12,51.34,365.47,51.26,365.82,51.26z"/>
<path class="st5" d="M1193.36,38.66c0.81,0,1.58-0.16,2.31-0.47c2.31-0.98,3.85-3.07,3.85-5.35c0-3.07-2.63-5.46-5.99-5.46
	c-3.56,0-5.79,2.79-5.79,5.35C1187.73,34.65,1189.11,38.66,1193.36,38.66z"/>
<g class="st3">
	<path class="st4" d="M719.77,29.38h-132.1c-1.76,0-3.19-1.39-3.19-3.1s1.43-3.1,3.19-3.1h132.1c1.76,0,3.19,1.39,3.19,3.1
		S721.54,29.38,719.77,29.38z"/>
</g>
<g class="st3">
	<path class="st4" d="M681.9,49.56H549.8c-1.76,0-3.19-1.39-3.19-3.1s1.43-3.1,3.19-3.1h132.1c1.76,0,3.19,1.39,3.19,3.1
		S683.66,49.56,681.9,49.56z"/>
</g>
<g class="st3">
	<path class="st4" d="M897.52,113.93h-6.18V31.8h60.86c3.74,0,6.78,2.95,6.78,6.58v68.97c0,3.63-3.04,6.58-6.78,6.58h-41.1v9.31
		l-6.79-4.39l-6.78,4.39V113.93z M906.79,115.44v-1.51h-2.34L906.79,115.44z M901.83,115.44l2.33-1.51h-2.33V115.44z M952.2,109.76
		c1.37,0,2.48-1.08,2.48-2.41V88.46h-4.96v21.3H952.2z M945.41,109.76V35.98h-3.42v73.78H945.41z M937.69,109.76v-21.3h-42.04v21.3
		H937.69z M954.68,84.28V61.47h-4.96v22.81H954.68z M937.69,84.28V61.47h-42.04v22.81H937.69z M954.68,57.3V38.38
		c0-1.33-1.11-2.4-2.48-2.4h-2.48V57.3H954.68z M937.69,57.3V35.98h-42.04V57.3H937.69z"/>
	<path class="st4" d="M952.2,32.39h-60.25v80.95h6.18v8.8l6.18-4l6.19,4v-8.8h41.71c3.4,0,6.17-2.69,6.17-5.99V38.38
		C958.37,35.08,955.6,32.39,952.2,32.39L952.2,32.39z M895.04,35.39h43.25v22.5h-43.25V35.39z M938.29,84.87h-43.25V60.88h43.25
		V84.87z M907.4,116.54l-3.09-2l-3.08,2v-3.2h6.18V116.54z M910.49,110.35h-15.45V87.87h43.25v22.47H910.49z M941.39,110.35V35.39
		h4.63v74.96H941.39z M949.11,60.88h6.18v23.99h-6.18V60.88z M955.29,107.35c0,1.65-1.39,2.99-3.09,2.99h-3.09V87.87h6.18V107.35z
		 M949.11,57.89v-22.5h3.09c1.7,0,3.09,1.35,3.09,2.99v19.51H949.11z M949.11,57.89"/>
	<path class="st4" d="M973.82,122.92c-1.18,0-2.14-0.94-2.14-2.09v-2.44l-6.19-10.5V36.86c0-2.79,2.34-5.06,5.22-5.06h6.22
		c2.88,0,5.21,2.27,5.21,5.06v71.04l-6.18,10.5v2.44C975.97,121.99,975.01,122.92,973.82,122.92z M973.82,113.63l2.48-4.2h-4.95
		L973.82,113.63z M977.85,105.25V52.46h-8.06v52.79H977.85z M977.85,48.29v-1.82h-8.06v1.82H977.85z M977.85,42.29v-5.44
		c0-0.49-0.41-0.88-0.92-0.88h-6.22c-0.51,0-0.92,0.4-0.92,0.88v5.44H977.85z"/>
	<path class="st4" d="M976.94,32.39h-6.22c-2.54,0-4.62,2.01-4.62,4.47v70.88l6.19,10.5v2.6c0,0.83,0.69,1.5,1.54,1.5
		c0.86,0,1.55-0.67,1.55-1.5v-2.6l6.18-10.5V36.86C981.54,34.39,979.48,32.39,976.94,32.39L976.94,32.39z M969.19,45.88h9.27v3
		h-9.27V45.88z M973.82,114.82l-3.51-5.97h7.04L973.82,114.82z M978.46,105.84h-9.27V51.87h9.27V105.84z M969.19,42.88v-6.02
		c0-0.81,0.69-1.47,1.52-1.47h6.22c0.84,0,1.52,0.66,1.52,1.47v6.02H969.19z M969.19,42.88"/>
</g>
<g class="st3">
	<path class="st4" d="M758.52,47.71c0.54,0.52,1.25,0.79,1.96,0.79c0.71,0,1.42-0.26,1.96-0.79c1.08-1.05,1.08-2.75,0-3.8l-8.3-8.05
		c-1.08-1.05-2.83-1.05-3.91,0s-1.08,2.75,0,3.79L758.52,47.71z M758.52,47.71"/>
	<path class="st4" d="M782.6,48.5c0.71,0,1.41-0.26,1.95-0.79l8.3-8.05c1.08-1.05,1.08-2.75,0-3.79c-1.08-1.05-2.83-1.05-3.91,0
		l-8.3,8.05c-1.08,1.05-1.08,2.75,0,3.8C781.19,48.23,781.89,48.5,782.6,48.5L782.6,48.5z M782.6,48.5"/>
	<path class="st4" d="M771.54,48.5c1.53,0,2.77-1.2,2.77-2.68V35.08c0-1.48-1.24-2.68-2.77-2.68c-1.53,0-2.77,1.2-2.77,2.68v10.74
		C768.78,47.29,770.01,48.5,771.54,48.5L771.54,48.5z M771.54,48.5"/>
	<path class="st4" d="M729.72,88.75l8.64,1.05v25.8c0,1.48,1.24,2.68,2.77,2.68c1.53,0,2.77-1.2,2.77-2.68V90.46l7.95,0.96
		c0.12,0.01,0.23,0.02,0.35,0.02c1.37,0,2.57-0.99,2.74-2.35c0.19-1.47-0.88-2.81-2.4-3l-8.64-1.05v-7.04
		c0-1.48-1.24-2.68-2.77-2.68c-1.53,0-2.77,1.2-2.77,2.68v6.37l-7.95-0.96c-1.51-0.19-2.9,0.86-3.09,2.33
		C727.13,87.22,728.2,88.56,729.72,88.75L729.72,88.75z M729.72,88.75"/>
	<path class="st4" d="M770.41,174.45c-1.08-1.05-2.83-1.05-3.91-0.01l-3.13,3.03l-3.12-3.04c-1.08-1.05-2.83-1.05-3.91-0.01
		c-1.08,1.05-1.09,2.75-0.01,3.8l3.12,3.04l-3.13,3.03c-1.08,1.04-1.09,2.74-0.01,3.79c0.54,0.53,1.25,0.79,1.96,0.79
		c0.7,0,1.41-0.26,1.95-0.78l3.13-3.03l3.12,3.04c0.54,0.53,1.25,0.79,1.96,0.79c0.7,0,1.41-0.26,1.95-0.78
		c1.08-1.05,1.08-2.75,0.01-3.8l-3.12-3.04l3.13-3.03C771.49,177.2,771.49,175.5,770.41,174.45L770.41,174.45z M770.41,174.45"/>
	<path class="st4" d="M859.95,147.46c-0.19-0.71-0.67-1.32-1.33-1.68l-15.18-8.24V73.36c0-5.04-3.46-9.44-8.33-10.9V49.94
		c0-1.29-0.95-2.4-2.26-2.64c-34.02-6.1-55.02,8.03-61.31,13.15c-6.29-5.12-27.31-19.26-61.34-13.15c-1.31,0.24-2.26,1.35-2.26,2.64
		v12.54c-4.86,1.47-8.3,5.86-8.3,10.88v73.74c0,6.31,5.29,11.44,11.79,11.44h60.14c3.19,6.14,9.86,14.31,23.67,18.77
		c0.27,0.09,0.57,0.13,0.85,0.14c0.04,0,3.67,0.12,8.15,2.8l-2.2,3.24c-0.82,1.2-0.51,2.81,0.69,3.66l19.74,13.83
		c0.48,0.33,1.04,0.51,1.62,0.51c0.17,0,0.35-0.01,0.52-0.05c0.75-0.14,1.4-0.57,1.81-1.2l33.19-50.68
		C860.01,148.93,860.14,148.17,859.95,147.46L859.95,147.46z M837.91,73.36v61.25c-0.97-0.37-2.03-0.18-2.8,0.47V68.31
		C836.81,69.41,837.91,71.28,837.91,73.36L837.91,73.36z M829.58,52.2v78.46c-0.89-2.24-1.38-4.64-1.38-7.09
		c0-4.09-0.68-8.13-2.01-12.01l-6.54-19.04c-1.92-5.58-7.84-8.91-13.78-7.76c-3.38,0.66-6.32,2.69-8.05,5.59
		c-1.73,2.9-2.1,6.38-1.01,9.56l7.2,20.96l-0.77,0.93c-3.92,4.75-5.35,10.66-5.07,16.37c-8.97,2.05-17,5.09-23.86,9.14V65.23
		C778.33,61.79,797.55,47.27,829.58,52.2L829.58,52.2z M713.47,52.2c31.93-4.9,51.26,9.62,55.31,13.04v82.07
		c-17.72-10.48-38.78-12.11-50.15-12.11c-2.07,0-3.82,0.06-5.16,0.12V52.2z M705.17,147.09V73.36c0-2.06,1.09-3.92,2.76-5.02v69.86
		c0,0.76,0.33,1.48,0.91,1.99c0.58,0.51,1.36,0.75,2.13,0.68c0.34-0.03,33.15-3.05,56.96,12.3h-56.51
		C707.98,153.16,705.17,150.44,705.17,147.09L705.17,147.09z M796.63,172.1c-14.28-4.74-19.56-13.85-21.45-18.94
		c6.67-4.3,14.64-7.55,23.74-9.68c0.73,3.07,1.91,5.94,3.45,8.39c0.52,0.83,1.43,1.29,2.37,1.29c0.49,0,0.99-0.13,1.43-0.39
		c1.3-0.77,1.72-2.42,0.93-3.69c-4.03-6.44-5.24-17.02,0.47-23.94l1.71-2.07c0.58-0.71,0.76-1.66,0.46-2.53l-7.68-22.34
		c-0.59-1.72-0.39-3.6,0.54-5.17c0.94-1.56,2.52-2.67,4.35-3.02c3.2-0.62,6.41,1.18,7.45,4.2l6.54,19.04
		c1.14,3.34,1.72,6.81,1.72,10.32c0,6.82,2.86,13.29,7.86,18.02l-23.24,34.18C802.35,172.76,798.08,172.2,796.63,172.1L796.63,172.1
		z M823.32,194.95l-15.22-10.66l29.7-43.67l15.56,8.45L823.32,194.95z M823.32,194.95"/>
	<path class="st4" d="M819.94,181.54c-1.41,0-2.56,1.11-2.56,2.49s1.15,2.49,2.56,2.49c1.42,0,2.56-1.11,2.56-2.49
		S821.35,181.54,819.94,181.54L819.94,181.54z M819.94,181.54"/>
</g>
<path class="st5" d="M683.73,185.63h9.15c1.47,0,2.67-1.16,2.67-2.59c0-1.43-1.2-2.59-2.67-2.59h-9.15c-1.47,0-2.67,1.16-2.67,2.59
	C681.06,184.47,682.26,185.63,683.73,185.63z"/>
<path class="st5" d="M700.52,185.63h2.36c1.47,0,2.67-1.16,2.67-2.59c0-1.43-1.2-2.59-2.67-2.59h-2.36c-1.47,0-2.67,1.16-2.67,2.59
	C697.85,184.47,699.05,185.63,700.52,185.63z"/>
<path class="st5" d="M699.2,197.33h31.2c1.47,0,2.67-1.16,2.67-2.59c0-1.43-1.2-2.59-2.67-2.59h-31.2c-1.47,0-2.67,1.16-2.67,2.59
	C696.53,196.16,697.73,197.33,699.2,197.33z"/>
<path class="st5" d="M1318.24,187.95c-0.97,0-1.9,0.19-2.78,0.57c-2.78,1.18-4.63,3.69-4.63,6.43c0,3.69,3.17,6.57,7.21,6.57
	c4.29,0,6.97-3.36,6.97-6.43C1325.01,192.77,1323.36,187.95,1318.24,187.95z"/>
<path class="st5" d="M945.78,191.5h9.15c1.47,0,2.67-1.16,2.67-2.59c0-1.43-1.2-2.59-2.67-2.59h-9.15c-1.47,0-2.67,1.16-2.67,2.59
	C943.12,190.34,944.31,191.5,945.78,191.5z"/>
<path class="st5" d="M962.57,191.5h2.36c1.47,0,2.67-1.16,2.67-2.59c0-1.43-1.2-2.59-2.67-2.59h-2.36c-1.47,0-2.67,1.16-2.67,2.59
	C959.91,190.34,961.1,191.5,962.57,191.5z"/>
<path class="st5" d="M948.41,174.61h2.36c1.47,0,2.67-1.16,2.67-2.59c0-1.43-1.2-2.59-2.67-2.59h-2.36c-1.47,0-2.67,1.16-2.67,2.59
	C945.74,173.45,946.94,174.61,948.41,174.61z"/>
<path class="st5" d="M948.15,203.2h31.2c1.47,0,2.67-1.16,2.67-2.59c0-1.43-1.2-2.59-2.67-2.59h-31.2c-1.47,0-2.67,1.16-2.67,2.59
	C945.48,202.04,946.68,203.2,948.15,203.2z"/>
<path class="st5" d="M948.23,158.91h31.2c1.47,0,2.67-1.16,2.67-2.59c0-1.43-1.2-2.59-2.67-2.59h-31.2c-1.47,0-2.67,1.16-2.67,2.59
	C945.56,157.75,946.76,158.91,948.23,158.91z"/>
<path class="st5" d="M651.78,196.62c0.01,0.07,0.02,0.13,0.02,0.2c0.62,5.45,1.08,9.52,1.43,12.57c1.04,9.1,1.04,9.1,0.89,9.47
	l-0.03,0.09c-0.25,0.83-0.91,1.47-1.76,1.71c-0.85,0.25-1.76,0.06-2.44-0.5c-9.45-7.73-13.53-11.08-15.31-12.55
	c-1.01-0.83-1.31-1.08-1.36-1.11l-0.09-0.05c-0.38-0.25-0.38-0.25-9.94-17.66c-3.42-6.23-8.07-14.69-14.39-26.2l-1.27,0.66
	c-0.55,0.3-0.84,0.91-0.74,1.51c0.03,0.14,0.07,0.28,0.14,0.41l8.63,15.69c0.09,0.2,0.16,0.4,0.19,0.61
	c0.19,1.08-0.35,2.16-1.35,2.68c-1.21,0.62-2.72,0.23-3.44-0.9l-8.64-15.71c-0.31-0.59-0.52-1.22-0.64-1.86
	c-0.49-2.76,0.87-5.54,3.39-6.92l1.29-0.66c-0.16-0.28-0.32-0.56-0.48-0.85c-0.96-1.69-1.95-3.43-2.31-5.45
	c-0.27-1.52-0.16-3.05,0.34-4.65c1.29-4.04,4.92-6.92,9.26-7.33c4.34-0.41,8.47,1.73,10.54,5.45c9.67,17.59,16.01,29.07,20.16,36.59
	C650.93,194.66,651.67,196,651.78,196.62L651.78,196.62z M647.02,201.06l-7.56,3.91l8.82,7.21L647.02,201.06z M645.66,196.01
	l-19.59-35.65l-9.76,5.06l19.59,35.64L645.66,196.01z M623.61,155.89l-4.52-8.22c-0.68-1.25-1.88-2.2-3.27-2.61
	c-1.42-0.42-2.91-0.27-4.21,0.4c-2.08,1.14-3.21,3.44-2.8,5.72c0.1,0.53,0.27,1.05,0.53,1.54l4.52,8.22L623.61,155.89z"/>
<g class="st3">
	<path class="st4" d="M1328.52,151.85L1328.52,151.85c-0.7,0-1.38-0.27-1.87-0.75l-17.24-16.73c-2.04-1.98-3.16-4.6-3.16-7.4
		s1.12-5.42,3.16-7.4c4.21-4.08,11.04-4.08,15.25,0l3.87,3.75l3.88-3.76c2.04-1.98,4.74-3.07,7.62-3.07c2.88,0,5.59,1.09,7.62,3.07
		c2.04,1.98,3.16,4.6,3.16,7.4c0,2.8-1.12,5.42-3.16,7.4l-17.26,16.74C1329.9,151.58,1329.22,151.85,1328.52,151.85z
		 M1317.03,121.64c-1.4,0-2.81,0.52-3.88,1.56c-1.04,1.01-1.61,2.34-1.61,3.76s0.57,2.76,1.61,3.76l15.37,14.92l15.38-14.93
		c1.04-1.01,1.61-2.34,1.61-3.76c0-1.42-0.57-2.76-1.61-3.76c-1.04-1.01-2.41-1.56-3.88-1.56c-1.47,0-2.84,0.55-3.88,1.56
		l-5.75,5.58c-0.5,0.48-1.17,0.75-1.87,0.75l0,0c-0.7,0-1.38-0.27-1.87-0.75l-5.74-5.57
		C1319.84,122.16,1318.43,121.64,1317.03,121.64z"/>
</g>
<g class="st3">
	<path class="st4" d="M204.02,81.73c-0.72,0-1.4-0.27-1.91-0.77c-1.06-1.02-1.06-2.69-0.01-3.72c2.14-2.08,3.32-4.84,3.32-7.78
		c0-2.94-1.18-5.7-3.32-7.78c-0.51-0.5-0.79-1.16-0.79-1.86c0-0.7,0.28-1.36,0.8-1.86c0.51-0.5,1.19-0.77,1.91-0.77
		c0.72,0,1.41,0.27,1.92,0.77c3.16,3.07,4.9,7.16,4.9,11.5c0,4.34-1.74,8.42-4.9,11.49C205.42,81.46,204.74,81.73,204.02,81.73z"/>
	<path class="st4" d="M204.02,81.35c-0.59,0-1.18-0.22-1.63-0.65c-0.9-0.88-0.91-2.29-0.01-3.17c2.22-2.15,3.44-5.01,3.44-8.05
		c0-3.04-1.22-5.9-3.43-8.06c-0.9-0.88-0.9-2.3,0-3.17c0.9-0.88,2.37-0.87,3.27,0c3.08,3,4.78,6.99,4.78,11.22
		c0,4.23-1.7,8.22-4.78,11.22C205.2,81.13,204.61,81.35,204.02,81.35z"/>
	<path class="st4" d="M210.45,89.72c-0.72,0-1.4-0.27-1.91-0.77c-1.06-1.03-1.06-2.69-0.01-3.72c4.29-4.18,6.66-9.73,6.66-15.62
		c0-5.9-2.36-11.44-6.66-15.62c-0.51-0.5-0.79-1.16-0.79-1.86c0-0.7,0.28-1.36,0.8-1.86c0.51-0.5,1.19-0.77,1.92-0.77
		c0.72,0,1.4,0.27,1.92,0.77c5.31,5.17,8.24,12.04,8.24,19.34c0,7.29-2.93,14.16-8.24,19.33C211.85,89.44,211.17,89.72,210.45,89.72
		z"/>
	<path class="st4" d="M210.45,89.33c-0.59,0-1.18-0.22-1.63-0.65c-0.9-0.88-0.91-2.29-0.01-3.17c4.37-4.25,6.78-9.9,6.78-15.89
		c0-6-2.41-11.64-6.78-15.9c-0.9-0.88-0.9-2.3,0-3.17c0.9-0.87,2.37-0.87,3.27,0c5.24,5.1,8.12,11.87,8.12,19.06
		c0,7.19-2.88,13.96-8.12,19.06C211.63,89.11,211.04,89.33,210.45,89.33z"/>
	<path class="st4" d="M180.5,69.27c-1.08,0-2.06-0.62-2.49-1.58c-0.59-1.33,0.04-2.88,1.4-3.46l13.79-5.82l-0.54-3.12
		c-0.22-1.29,0.58-2.55,1.86-2.95c3.01-0.93,7.36-3.3,7.36-5.15c0-1.01-0.69-1.64-3.41-3.62c-3.54-2.57-8.88-6.45-13.69-15.43
		c-0.33-0.62-0.4-1.33-0.18-2c0.22-0.67,0.69-1.22,1.33-1.54c0.39-0.19,0.82-0.3,1.25-0.3c1.02,0,1.94,0.54,2.4,1.42
		c4.24,7.91,8.8,11.22,12.13,13.64c3,2.18,5.59,4.06,5.59,7.84c0,4.88-5.46,7.92-8.92,9.36l0.53,3.01c0.21,1.19-0.45,2.36-1.59,2.85
		l-15.73,6.64C181.23,69.19,180.87,69.27,180.5,69.27z"/>
	<path class="st4" d="M180.5,68.88c-0.89,0-1.74-0.5-2.12-1.35c-0.51-1.14,0.03-2.46,1.2-2.95l14.07-5.94l-0.6-3.42
		c-0.19-1.1,0.48-2.18,1.58-2.51c3.08-0.95,7.64-3.36,7.64-5.52c0-1.24-0.87-1.97-3.57-3.93c-3.51-2.55-8.81-6.4-13.58-15.29
		c-0.59-1.1-0.15-2.45,0.98-3.02c1.13-0.57,2.53-0.14,3.11,0.95c4.28,7.99,8.89,11.33,12.25,13.77c2.91,2.11,5.43,3.94,5.43,7.52
		c0,4.85-5.8,7.85-8.97,9.12l0.58,3.32c0.18,1.02-0.38,2.02-1.36,2.43l-15.73,6.64C181.12,68.82,180.81,68.88,180.5,68.88z"/>
	<path class="st4" d="M184.12,95.14c-16.12,0-30.26-15.72-30.26-33.64c0-19.1,10.94-33.84,27.23-36.69
		c0.16-0.03,0.33-0.04,0.49-0.04c1.31,0,2.43,0.91,2.66,2.17c0.13,0.69-0.03,1.39-0.44,1.96c-0.41,0.58-1.03,0.96-1.75,1.09
		c-13.83,2.42-22.77,14.79-22.77,31.51c0,14.85,11.84,28.38,24.84,28.38c2.11,0,4.88-0.32,6.07-1.83c1.19-1.52,0.76-4.23,0.19-6.23
		c-0.19-0.68-0.09-1.41,0.27-2.02l1.71-2.87l-9.04-3.78c-0.66-0.28-1.18-0.79-1.45-1.44c-0.27-0.65-0.26-1.37,0.03-2.01
		c0.43-0.97,1.4-1.59,2.49-1.59c0.37,0,0.73,0.07,1.07,0.21l11.85,4.95c0.71,0.29,1.26,0.87,1.5,1.59c0.24,0.71,0.16,1.49-0.23,2.14
		l-2.69,4.51c0.95,4.07,0.49,7.34-1.38,9.72C192.47,93.83,188.98,95.14,184.12,95.14z"/>
	<path class="st4" d="M184.12,94.75c-15.91,0-29.86-15.54-29.86-33.25c0-18.9,10.81-33.5,26.9-36.31c1.25-0.23,2.46,0.59,2.68,1.81
		c0.23,1.22-0.61,2.38-1.86,2.6c-14.03,2.45-23.1,14.97-23.1,31.9c0,15.06,12.03,28.77,25.24,28.77c2.21,0,5.1-0.34,6.39-1.98
		c1.29-1.65,0.85-4.48,0.25-6.57c-0.17-0.58-0.08-1.2,0.23-1.72l1.94-3.25l-9.46-3.95c-1.17-0.49-1.71-1.81-1.21-2.95
		c0.5-1.14,1.86-1.66,3.03-1.17l11.85,4.95c0.61,0.25,1.07,0.75,1.28,1.35s0.14,1.28-0.2,1.83l-2.77,4.64
		c0.97,4.02,0.54,7.23-1.28,9.55C192.23,93.49,188.84,94.75,184.12,94.75z"/>
</g>
<path class="st5" d="M1371.17,101.08c-0.45,0-0.9-0.12-1.3-0.34l-0.08-0.04l-0.01-0.01c-0.78-0.42-13.06-6.71-31.74-6.71
	c-6.89,0-13.86,0.86-20.72,2.54c-0.15,0.02-0.26,0.03-0.36,0.03c-0.1,0-0.21-0.01-0.31-0.02l-0.53,0l-0.05-0.01
	c-6.79-1.66-13.7-2.5-20.54-2.5c-18.37,0-30.65,6.03-31.99,6.72c-0.4,0.22-0.84,0.33-1.29,0.34c-1.43,0-2.6-1.13-2.6-2.52V30.48
	c0-1.39,1.16-2.52,2.59-2.52h7V25.9c-0.05-1.14,0.72-2.18,1.87-2.5c5.16-1.31,10.47-1.98,15.8-1.98h0.15
	c8.65,0,20.76,1.83,29.61,10.49c8.99-8.66,21.04-10.49,29.6-10.49h0.14c5.33,0,10.64,0.66,15.79,1.97c1.16,0.33,1.93,1.36,1.88,2.52
	l0,2.07h7.05c1.45,0,2.62,1.13,2.62,2.52v68.08c-0.01,0.89-0.5,1.72-1.3,2.17C1372.08,100.96,1371.63,101.08,1371.17,101.08z
	 M1338.37,88.94c10.4,0,20.55,1.9,30.19,5.65l0.09-61.57h-4.45v53.05c0,0.13-0.01,0.27-0.03,0.4c-0.19,1.22-1.29,2.14-2.56,2.14
	c-0.13,0-0.26-0.01-0.39-0.03c-4.54-0.67-9.17-1.01-13.76-1.04c-0.35-0.01-0.7-0.01-1.05-0.01c-4.58,0-9.12,0.53-13.55,1.59
	C1334.69,89,1336.54,88.94,1338.37,88.94z M1264.86,94.59c9.63-3.74,19.78-5.64,30.16-5.64c1.82,0,3.65,0.06,5.47,0.18
	c-4.43-1.06-8.97-1.6-13.55-1.6c-0.33,0-0.65,0-0.98,0.01c-4.57,0.04-9.17,0.39-13.67,1.06c-0.13,0.02-0.26,0.03-0.4,0.03
	c-1.45-0.02-2.6-1.16-2.59-2.55V33.02h-4.45V94.59z M1285.96,82.52c14.24,0,23.1,3.44,28.15,6.48l-0.06-52.24
	c-7.78-8.43-18.97-10.2-27.01-10.2c-4.24,0.01-8.48,0.46-12.62,1.33v55.33C1278.23,82.76,1282.12,82.53,1285.96,82.52L1285.96,82.52
	z M1319.3,88.99c5.12-3.05,14.02-6.49,28.15-6.49c3.82,0.02,7.69,0.26,11.48,0.71V27.89c-4.14-0.87-8.39-1.32-12.63-1.33
	c-7.99,0-19.15,1.77-27.01,10.2V88.99z"/>
<g class="st3">
	<path class="st4" d="M55.46,136.99c-4.87,0-9.12-3.34-10.12-7.95L26.43,41.76c-0.56-2.6-0.04-5.27,1.47-7.52
		c1.51-2.24,3.83-3.78,6.52-4.32l78.01-15.83c0.19-0.04,0.39-0.06,0.59-0.06c1.35,0,2.53,0.92,2.8,2.2l21.98,101.44
		c0.32,1.49-0.67,2.96-2.21,3.28l-78.01,15.83C56.88,136.92,56.17,136.99,55.46,136.99C55.46,136.99,55.46,136.99,55.46,136.99z
		 M54.5,122.63c-1.2,0.24-2.23,0.93-2.91,1.93c-0.68,1-0.91,2.19-0.66,3.35c0.45,2.06,2.35,3.55,4.52,3.55
		c0.31,0,0.63-0.03,0.94-0.09l75.21-15.26l-1.89-8.74L54.5,122.63z M35.59,35.34c-2.49,0.51-4.09,2.88-3.57,5.28l17.02,78.55
		c1.28-1,2.69-1.65,4.29-1.97l2.08-0.42L37.67,34.92L35.59,35.34z M61.01,115.65l67.54-13.7L110.8,20.08l-67.54,13.7L61.01,115.65z
		 M77.41,101.91c-1.35,0-2.53-0.92-2.8-2.2c-0.16-0.72-0.01-1.46,0.41-2.08c0.42-0.62,1.06-1.05,1.81-1.2l29.25-5.94
		c0.19-0.04,0.39-0.06,0.59-0.06c1.35,0,2.53,0.93,2.8,2.2c0.32,1.49-0.67,2.96-2.21,3.28L78,101.85
		C77.81,101.89,77.61,101.91,77.41,101.91z M67.54,91.6c-1.35,0-2.52-0.93-2.8-2.2c-0.16-0.72-0.01-1.46,0.41-2.08
		c0.42-0.62,1.06-1.05,1.81-1.2l43.88-8.9c0.19-0.04,0.39-0.06,0.58-0.06c1.35,0,2.53,0.92,2.8,2.2c0.32,1.49-0.67,2.96-2.21,3.28
		l-43.88,8.9C67.94,91.58,67.74,91.6,67.54,91.6z M86.91,75.36c-0.41,0-0.8-0.09-1.19-0.26l-15.64-7.55
		c-7.54-3.75-11.65-10.01-11.01-16.75c0.63-5.61,4.59-10.42,9.64-11.69l0.87-0.18c0.99-0.2,1.99-0.3,3-0.3
		c2.57,0,5.08,0.66,7.27,1.9c2.28-3.05,5.77-5.1,9.62-5.63c0.58-0.09,1.18-0.13,1.79-0.13c4.71,0,9.37,2.78,11.89,7.09
		c3.53,5.93,2.46,13.25-2.88,19.57L89.08,74.4c-0.4,0.59-1.23,0.82-1.57,0.89C87.3,75.34,87.11,75.36,86.91,75.36z M72.67,44.02
		c-0.62,0-1.23,0.06-1.82,0.18l-0.61,0.12c-2.8,0.81-5.02,3.69-5.38,6.99c-0.53,4.41,2.34,8.65,7.68,11.35l13.65,6.53l9.67-11.26
		c3.85-4.63,4.74-9.52,2.44-13.4c-1.57-2.67-4.28-4.39-6.91-4.39c-0.31,0-0.63,0.03-0.93,0.07c-3.21,0.41-5.85,2.36-7.07,5.22
		c-0.42,0.81-1.17,1.38-2.01,1.55c-0.18,0.04-0.37,0.06-0.55,0.06c-0.68,0-1.36-0.24-1.91-0.68C77.26,44.87,74.99,44.02,72.67,44.02
		z"/>
	<path class="st4" d="M112.5,14.45L34.49,30.27c-5.36,1.09-8.83,6.22-7.71,11.42l18.91,87.28c1.12,5.19,6.43,8.55,11.8,7.46
		l78.01-15.83c1.34-0.27,2.21-1.56,1.93-2.85L115.45,16.31C115.17,15.01,113.85,14.17,112.5,14.45L112.5,14.45z M31.66,40.7
		c-0.56-2.6,1.17-5.16,3.85-5.71l2.44-0.49l17.89,82.56l-2.44,0.49c-1.83,0.37-3.31,1.16-4.59,2.29L31.66,40.7z M132.05,116.38
		l-75.57,15.33c-2.68,0.54-5.34-1.13-5.9-3.73c-0.56-2.59,1.17-5.16,3.85-5.71L130,106.94L132.05,116.38z M128.98,102.22
		l-68.26,13.85L42.83,33.51l68.26-13.85L128.98,102.22z M65.1,89.33c-0.28-1.3,0.59-2.58,1.93-2.85l43.88-8.9
		c1.34-0.27,2.67,0.57,2.95,1.86c0.28,1.3-0.59,2.58-1.93,2.85l-43.88,8.9C66.71,91.46,65.39,90.62,65.1,89.33L65.1,89.33z
		 M109.1,92.71c0.28,1.3-0.59,2.58-1.93,2.85l-29.25,5.94c-1.34,0.27-2.67-0.57-2.95-1.86c-0.28-1.3,0.59-2.58,1.93-2.85l29.25-5.94
		C107.5,90.58,108.82,91.41,109.1,92.71L109.1,92.71z M70.24,67.23l15.63,7.54c0.56,0.25,1.08,0.27,1.56,0.17
		c0.49-0.1,1.07-0.34,1.36-0.77l11.18-12.98c5.27-6.24,6.25-13.46,2.85-19.17c-2.83-4.84-8.26-7.56-13.3-6.78
		c-3.83,0.53-7.33,2.6-9.57,5.76c-3.07-1.84-6.76-2.44-10.3-1.73c-0.24,0.05-0.61,0.12-0.85,0.17c-4.95,1.25-8.76,5.96-9.37,11.38
		C58.81,57.36,62.68,63.47,70.24,67.23L70.24,67.23z M64.5,51.28c0.38-3.52,2.8-6.48,5.67-7.31l0.61-0.12
		c2.93-0.59,6.16,0.23,8.38,2.24c0.62,0.49,1.42,0.7,2.15,0.55c0.73-0.15,1.39-0.65,1.75-1.34c1.27-2.97,4.01-5,7.35-5.43
		c3.07-0.5,6.41,1.41,8.23,4.49c2.41,4.07,1.46,9.06-2.48,13.8l-9.86,11.48l-13.91-6.66C66.8,60.17,63.95,55.82,64.5,51.28
		L64.5,51.28z M64.5,51.28"/>
</g>
<g class="st3">
	<path class="st4" d="M467.93,88.78c-1.49-0.4-2.37-1.9-1.96-3.35l4.17-14.65l-7.06-1.89c-1.49-0.4-2.37-1.9-1.96-3.35l2.98-10.47
		c0.41-1.45,1.96-2.3,3.45-1.9l7.06,1.89l2.08-7.3c0.41-1.45,1.96-2.3,3.45-1.9l10.79,2.89c1.49,0.4,2.37,1.9,1.96,3.35l-2.08,7.3
		l7.06,1.89c1.49,0.4,2.37,1.9,1.96,3.35l-2.98,10.47c-0.41,1.45-1.96,2.3-3.45,1.9l-7.06-1.89l-4.17,14.65
		c-0.41,1.45-1.96,2.3-3.45,1.9L467.93,88.78z M477.5,85.69l4.17-14.65c0.41-1.45,1.96-2.3,3.45-1.9l7.06,1.89l1.48-5.22l-7.06-1.89
		c-1.49-0.4-2.37-1.9-1.96-3.35l2.08-7.3l-5.38-1.44l-2.08,7.3c-0.41,1.45-1.96,2.3-3.45,1.9l-7.06-1.89l-1.48,5.22l7.06,1.89
		c1.49,0.4,2.37,1.9,1.96,3.35l-4.17,14.65L477.5,85.69z"/>
	<path class="st4" d="M497.69,61.89l-7.68-2.06l2.25-7.91c0.32-1.11-0.36-2.27-1.51-2.58l-10.79-2.89
		c-1.15-0.31-2.34,0.35-2.65,1.46l-2.25,7.91l-7.68-2.06c-1.15-0.31-2.34,0.35-2.65,1.46l-2.98,10.47
		c-0.32,1.11,0.36,2.27,1.51,2.58l7.68,2.06l-4.34,15.26c-0.32,1.11,0.36,2.27,1.51,2.58l10.79,2.89c1.15,0.31,2.34-0.35,2.65-1.46
		l4.34-15.26l7.68,2.06c1.15,0.31,2.34-0.35,2.65-1.46l2.98-10.47C499.51,63.35,498.84,62.2,497.69,61.89z M492.63,71.8l-7.68-2.06
		c-1.15-0.31-2.34,0.35-2.65,1.46l-4.34,15.26l-6.63-1.78l4.34-15.26c0.32-1.12-0.36-2.27-1.51-2.58l-7.68-2.06l1.83-6.43l7.68,2.06
		c1.15,0.31,2.34-0.35,2.65-1.46l2.25-7.91l6.63,1.78l-2.25,7.91c-0.32,1.11,0.36,2.27,1.51,2.58l7.68,2.06L492.63,71.8z"/>
	<path class="st4" d="M449.97,129.74c-0.53-0.14-0.99-0.42-1.36-0.82l-6.12-6.72l-8.81,2.72c-0.52,0.16-1.07,0.17-1.6,0.03
		c-0.45-0.12-0.86-0.35-1.2-0.66c-0.74-0.7-1.04-1.73-0.76-2.69l1.19-4.17l-1.48-0.4c-6.24-1.67-9.92-7.94-8.2-13.97l21.58-75.88
		c1.72-6.03,8.19-9.59,14.43-7.91L520.11,36c1.49,0.4,2.37,1.9,1.96,3.35l-21.65,76.12c-0.35,1.22-1.49,2.04-2.79,2
		c-2.82-0.09-5.32,1.69-6.07,4.32c-0.75,2.63,0.45,5.4,2.92,6.73c1.14,0.61,1.69,1.89,1.34,3.1l-0.07,0.24
		c-0.41,1.45-1.96,2.3-3.45,1.9l-37.7-10.1l-1.19,4.17c-0.27,0.96-1.07,1.7-2.07,1.93C450.89,129.87,450.41,129.86,449.97,129.74z
		 M436.91,118.2l5.62-1.74c0.52-0.16,1.07-0.17,1.6-0.03c0.53,0.14,0.99,0.42,1.36,0.82l3.91,4.29l2.17-7.64l-12.48-3.34
		L436.91,118.2z M486.18,126.47c-0.59-2-0.6-4.09-0.02-6.13c0.58-2.04,1.7-3.83,3.26-5.25l-54.86-14.69
		c-3.25-0.87-6.63,0.97-7.52,4.11c-0.89,3.14,1.03,6.4,4.28,7.27l1.48,0.4l1.62-5.69c0.41-1.45,1.96-2.3,3.45-1.9l40.57,10.87
		c1.49,0.4,2.37,1.9,1.96,3.35s-1.96,2.3-3.45,1.9l-19.97-5.35l-0.87,3.07L486.18,126.47z M456.13,24.52
		c-3.25-0.87-6.63,0.97-7.52,4.11l-18.92,66.54c2.07-0.58,4.25-0.59,6.36-0.03l1.48,0.4l8.16-28.7l0.01-0.04l11.91-41.89
		L456.13,24.52z M495.83,111.16l20.08-70.63l-52.89-14.17l-20.09,70.63L495.83,111.16z"/>
	<path class="st4" d="M497.65,116.84c0.99,0.03,1.88-0.61,2.15-1.54l21.65-76.12c0.32-1.11-0.36-2.27-1.51-2.58l-62.49-16.74
		c-5.89-1.58-12.01,1.77-13.63,7.47l-21.58,75.88c-1.62,5.7,1.85,11.62,7.75,13.2l2.11,0.56l-1.36,4.78
		c-0.21,0.74,0.01,1.53,0.59,2.07c0.26,0.25,0.58,0.42,0.92,0.51c0.4,0.11,0.82,0.1,1.23-0.02l9.21-2.85l6.4,7.03
		c0.53,0.58,1.33,0.83,2.1,0.65c0.77-0.17,1.38-0.74,1.59-1.48l1.36-4.78l38.33,10.27c1.15,0.31,2.34-0.35,2.65-1.46l0.07-0.24
		c0.26-0.93-0.16-1.92-1.03-2.39c-2.73-1.47-4.06-4.54-3.23-7.45C491.77,118.71,494.53,116.74,497.65,116.84z M447.98,28.46
		c0.99-3.47,4.72-5.52,8.32-4.55l2.11,0.56l-12.1,42.54c0,0.01-0.01,0.01-0.01,0.02l-8.33,29.28l-2.11-0.56
		c-2.46-0.66-4.95-0.46-7.14,0.41L447.98,28.46z M449.69,122.84l-4.7-5.16c-0.57-0.62-1.46-0.86-2.27-0.61l-6.76,2.09l2.67-9.37
		l13.73,3.68L449.69,122.84z M487.19,127.4l-31.89-8.54l1.22-4.28l20.6,5.52c1.15,0.31,2.34-0.35,2.65-1.46s-0.36-2.27-1.51-2.58
		l-40.57-10.87c-1.15-0.31-2.34,0.35-2.65,1.46l-1.79,6.3l-2.11-0.56c-3.6-0.96-5.72-4.57-4.74-8.05c0.99-3.47,4.72-5.51,8.32-4.55
		l56.05,15.01c-1.89,1.38-3.33,3.36-3.99,5.71C486.11,122.86,486.3,125.27,487.19,127.4z M442.14,97.43l8.16-28.71
		c0-0.01,0.01-0.01,0.01-0.02l12.26-43.12l54.14,14.5l-20.43,71.84L442.14,97.43z"/>
</g>
<g class="st3">
	<path class="st4" d="M668.87,117.86l-0.04-0.01c-1.57-0.19-2.97-0.45-4.14-0.77c-6.19-1.54-11.71-4.33-16.42-8.31
		c-1.69,0.17-3.35,0.25-4.93,0.25c-5.85,0-11.33-1.01-16.26-3c-4.97-2-8.96-4.77-11.86-8.23c-2.93-3.5-4.42-7.37-4.42-11.51
		c0-4.14,1.49-8.01,4.42-11.51c2.9-3.46,6.89-6.23,11.86-8.23c4.95-1.99,10.42-3,16.26-3s11.32,1.01,16.26,3
		c4.97,2,8.96,4.77,11.86,8.23c2.93,3.5,4.42,7.37,4.42,11.51c0,3.57-1.12,6.96-3.34,10.07c-2.11,2.96-4.99,5.49-8.56,7.53
		c0.22,0.72,0.48,1.41,0.75,2.06c0.35,0.81,0.67,1.48,0.94,1.99c0.27,0.5,0.64,1.06,1.1,1.68c0.47,0.62,0.83,1.07,1.06,1.31
		l1.23,1.31c0.54,0.58,0.89,0.96,1.07,1.16c0.08,0.07,0.17,0.17,0.34,0.37l0.27,0.31l0.23,0.34c0.14,0.2,0.29,0.44,0.28,0.71
		c0.01,0.04,0.02,0.08,0.04,0.13c0.12,0.36,0.08,0.62-0.01,0.82c-0.13,0.51-0.39,0.94-0.78,1.27c-0.41,0.35-0.88,0.52-1.4,0.52
		H668.87z M630.01,71.61c-4.09,1.56-7.38,3.68-9.77,6.3c-2.35,2.58-3.55,5.4-3.55,8.37c0,2.97,1.19,5.79,3.55,8.37
		c2.4,2.62,5.68,4.74,9.77,6.3c4.11,1.56,8.6,2.35,13.32,2.35c1.4,0,2.93-0.09,4.55-0.27l2.32-0.24l1.75,1.5
		c2.37,2.02,5,3.71,7.85,5.03c-0.69-1.41-1.24-2.89-1.65-4.4l-1.1-3.8l3.55-1.98c2.98-1.65,5.32-3.62,6.95-5.87
		c1.61-2.21,2.42-4.56,2.42-6.99c0-2.97-1.19-5.79-3.55-8.37c-2.4-2.62-5.69-4.74-9.77-6.3c-4.11-1.56-8.59-2.35-13.32-2.35
		C638.61,69.26,634.12,70.05,630.01,71.61z"/>
</g>
<path class="st5" d="M580.13,165.54h-17.5l-16.47-10.66c-1.29-0.83-2.78-1.27-4.32-1.27c-4.29,0-7.79,3.39-7.79,7.56v4.37h-3.07
	c-5.08,0-9.22,4.01-9.22,8.95v23.85c0,4.93,4.13,8.95,9.22,8.95h49.16c5.08,0,9.22-4.01,9.22-8.95v-23.85
	C589.35,169.56,585.22,165.54,580.13,165.54L580.13,165.54z M583.21,198.34c0,1.64-1.38,2.98-3.07,2.98h-49.16
	c-1.7,0-3.07-1.34-3.07-2.98v-23.85c0-1.64,1.38-2.98,3.07-2.98h9.22v-10.33c0-1.2,1.54-1.99,2.56-1.33l18.02,11.66h19.36
	c1.7,0,3.07,1.34,3.07,2.98V198.34z M583.21,198.34"/>
<rect x="534.05" y="177.47" class="st5" width="6.14" height="5.96"/>
<rect x="546.34" y="177.47" class="st5" width="30.72" height="5.96"/>
<rect x="534.05" y="189.4" class="st5" width="43.01" height="5.96"/>
<path class="st5" d="M398.96,76.84l-7.92-11.95c3.67-5.01,5.68-11.12,5.65-17.27c0-13.56-9.43-25.45-22.93-28.93
	c-2.59-0.67-5.25-1-7.92-1c-11.04,0-21.3,5.78-26.78,15.09c-6.93,11.77-4.82,26.64,5.13,36.16c5.81,5.56,13.5,8.62,21.67,8.62
	c5.35,0,10.63-1.36,15.28-3.94l15.14,6.3c0.27,0.11,0.56,0.17,0.85,0.17c0.64,0,1.24-0.27,1.65-0.74
	C399.41,78.62,399.48,77.62,398.96,76.84z M381.84,69.32c-0.27-0.11-0.56-0.17-0.85-0.17c-0.41,0-0.8,0.11-1.14,0.32
	c-4.21,2.54-9.06,3.89-14,3.89c-8.32,0-16.26-3.85-21.25-10.3c-8.32-10.76-6.81-25.66,3.51-34.64c4.88-4.24,11.17-6.58,17.72-6.58
	c6.76,0,13.21,2.47,18.14,6.96c10.12,9.2,11.3,24.12,2.74,34.7c-0.57,0.7-0.62,1.68-0.12,2.44l4.91,7.41L381.84,69.32z"/>
<path class="st5" d="M1095.15,135.56c-7.26,0-14.34-1.97-20.47-5.69c-1.4-0.85-1.82-2.64-0.95-4c0.55-0.85,1.5-1.36,2.54-1.36
	c0.56,0,1.11,0.15,1.58,0.44c5.18,3.14,11.16,4.8,17.3,4.8c18.02,0,32.68-14.23,32.68-31.71c0-17.49-14.66-31.71-32.68-31.71
	c-12.16,0-23.25,6.49-28.93,16.94c-0.52,0.95-1.53,1.55-2.65,1.55c-0.48,0-0.96-0.12-1.39-0.34c-1.46-0.75-2.02-2.5-1.25-3.92
	c6.72-12.36,19.83-20.04,34.21-20.04c10.31,0,20.01,3.91,27.32,11c7.31,7.09,11.34,16.51,11.33,26.52
	C1133.8,118.73,1116.46,135.56,1095.15,135.56z"/>
<path class="st5" d="M1076.53,201.78c-1.65-0.1-2.91-1.48-2.81-3.07l1.75-27.9c0.12-1.9-0.34-3.81-1.3-5.49l-4.89,5.7
	c-1.7,1.98-2.63,4.48-2.63,7.06v20.82c0,1.6-1.34,2.9-2.99,2.9s-2.99-1.3-2.99-2.9v-20.82c0-3.93,1.43-7.75,4.02-10.77l5.19-6.05
	c-0.15-0.07-0.3-0.15-0.45-0.21l-9.12-4.06c-3.22,7.43-10.81,12.36-19.19,12.36c-8.37,0-15.97-4.93-19.19-12.36l-9.12,4.06
	c-0.15,0.07-0.3,0.14-0.45,0.21l5.19,6.05c2.59,3.02,4.02,6.84,4.02,10.77v20.82c0,1.6-1.34,2.9-2.99,2.9c-1.65,0-2.99-1.3-2.99-2.9
	v-20.82c0-2.57-0.93-5.08-2.63-7.06l-4.89-5.7c-0.96,1.68-1.42,3.59-1.3,5.49l1.75,27.9c0.05,0.77-0.22,1.52-0.75,2.1
	c-0.53,0.58-1.26,0.93-2.06,0.97c-0.07,0-0.13,0.01-0.18,0.01c-1.58,0-2.89-1.2-2.98-2.72l-1.75-27.9
	c-0.41-6.5,3.41-12.69,9.51-15.4l16.72-7.44c0.52-0.23,0.86-0.74,0.86-1.3v-4.9c-4.92-3.27-8.41-8.3-9.68-13.94
	c-0.42-0.02-0.84-0.08-1.26-0.18c-3.16-0.72-5.45-3.65-5.45-6.95v-1.53c0-2.21,1-4.25,2.7-5.58c-0.43-1.83-0.65-3.7-0.65-5.56
	c0-8.66,4.59-16.65,12.31-21.45c0.31-7.91,7.06-14.27,15.27-14.27c8.21,0,14.96,6.36,15.27,14.27c7.72,4.81,12.31,12.79,12.31,21.45
	c0,1.87-0.22,3.74-0.66,5.57c1.71,1.33,2.71,3.36,2.71,5.54v1.55c0,3.3-2.29,6.23-5.45,6.95c-0.42,0.1-0.84,0.15-1.26,0.18
	c-1.27,5.64-4.76,10.67-9.68,13.94v4.9c0,0.56,0.34,1.06,0.86,1.3l16.72,7.44c6.1,2.71,9.92,8.91,9.51,15.4l-1.75,27.9
	c-0.1,1.53-1.41,2.72-2.98,2.72C1076.65,201.78,1076.59,201.78,1076.53,201.78z M1027.37,154.55c2.26,5.4,7.69,8.98,13.75,8.98
	c6.07,0,11.5-3.58,13.76-8.98l-2.15-0.96c-2.64-1.17-4.34-3.75-4.34-6.57v-2.05c-2.34,0.74-4.78,1.12-7.26,1.12
	c-2.48,0-4.91-0.38-7.26-1.12v2.05c0,2.82-1.71,5.4-4.34,6.57L1027.37,154.55z M1019,122.37c2.38,0,4.49,1.73,4.93,4.02
	c1.52,8.05,8.75,13.9,17.19,13.9s15.67-5.84,17.19-13.9c0.43-2.29,2.55-4.02,4.93-4.02c0.12,0,0.23,0,0.35,0.01
	c0.01,0,0.03,0,0.04,0c0.13,0,0.21-0.01,0.29-0.03c0.47-0.11,0.85-0.69,0.85-1.31v-1.55c0-0.59-0.4-1.14-0.91-1.23
	c-0.07-0.01-0.15-0.02-0.24-0.02c-0.54,0-1.22,0.14-1.38,0.21c-0.43,0.25-0.95,0.38-1.48,0.38c-0.69,0-1.37-0.23-1.9-0.66
	l-2.33-1.86c-0.59,0.03-1.4,0.05-2.39,0.05c-2.61,0-6.65-0.19-11.04-1.09c-8.08-1.65-14.35-5.02-18.64-10
	c-0.51-0.59-0.76-1.35-0.68-2.12c0.07-0.77,0.45-1.47,1.06-1.97c0.54-0.44,1.22-0.67,1.92-0.67c0.89,0,1.73,0.38,2.3,1.04
	c3.41,3.96,8.55,6.67,15.28,8.05c3.89,0.8,7.47,0.96,9.78,0.96c1.07,0,1.92-0.04,2.44-0.06c0.1-0.01,0.2-0.01,0.3-0.01
	c1.15,0,2.28,0.39,3.18,1.11l1.34,1.07c0.28-0.06,0.57-0.11,0.86-0.14c0.32-1.37,0.48-2.77,0.48-4.16c0-11.01-9.69-19.97-21.6-19.97
	c-11.91,0-21.6,8.96-21.6,19.97c0,1.4,0.16,2.82,0.49,4.2c0.94,0.19,1.82,0.55,2.61,1.08c0.6-0.57,1.14-1.22,1.6-1.93
	c0.55-0.84,1.5-1.35,2.53-1.35c0.57,0,1.12,0.16,1.6,0.45c1.39,0.86,1.81,2.65,0.93,4c-1.2,1.84-2.72,3.4-4.51,4.63
	c-0.64,0.44-1.43,0.68-2.23,0.68c-0.38,0-0.75-0.05-1.11-0.16c-0.78-0.23-1.45-0.69-1.96-1.32c-0.22-0.27-0.53-0.42-0.88-0.42
	c-0.07,0-0.15,0.01-0.22,0.02c-0.48,0.08-0.89,0.66-0.89,1.26v1.53c0,0.61,0.38,1.2,0.85,1.31c0.09,0.02,0.18,0.03,0.26,0.03
	C1018.77,122.38,1018.89,122.37,1019,122.37z M1041.12,82.61c2.92,0,5.77,0.42,8.52,1.26c-1.47-3.21-4.81-5.4-8.52-5.4
	c-3.7,0-7.05,2.19-8.51,5.4C1035.35,83.03,1038.21,82.61,1041.12,82.61z"/>
<path class="st5" d="M1095.15,113.93c-1.65,0-2.99-1.3-2.99-2.9v-0.18c0-3.45,2.38-6.45,5.93-7.46c5.24-1.5,8.34-6.6,7.21-11.87
	c-0.81-3.78-3.98-6.86-7.88-7.65c-0.74-0.15-1.49-0.23-2.24-0.23c-2.4,0-4.74,0.8-6.58,2.25c-2.44,1.92-3.84,4.78-3.84,7.83
	c0,1.6-1.34,2.9-2.99,2.9c-1.65,0-2.99-1.3-2.99-2.9c0-4.8,2.2-9.3,6.05-12.33c2.9-2.29,6.58-3.55,10.34-3.55
	c1.16,0,2.32,0.12,3.46,0.35c6.19,1.25,11.22,6.13,12.51,12.14c1.77,8.26-3.12,16.26-11.37,18.62c-0.98,0.28-1.64,1.04-1.64,1.89
	v0.18C1098.14,112.63,1096.79,113.93,1095.15,113.93z"/>
<path class="st5" d="M1092.42,123.9c-1.65,0-3-1.3-3-2.9c0-1.6,1.34-2.9,2.98-2.9c1.67,0,3.01,1.3,3.01,2.9
	C1095.41,122.6,1094.07,123.9,1092.42,123.9z"/>
<path class="st5" d="M275.4,111c-8.48,0-15.38,6.7-15.38,14.93s6.9,14.93,15.38,14.93c8.48,0,15.38-6.7,15.38-14.93
	S283.88,111,275.4,111L275.4,111z M275.4,133.39c-4.24,0-7.69-3.35-7.69-7.46c0-4.11,3.45-7.46,7.69-7.46
	c4.24,0,7.69,3.35,7.69,7.46C283.09,130.04,279.64,133.39,275.4,133.39L275.4,133.39z M275.4,133.39"/>
<path class="st5" d="M275.4,13.49c-22.05,0-39.99,17.41-39.99,38.81v0.39c0,1.85,1.54,3.34,3.45,3.34h23.98
	c1.84,0,3.33-1.45,3.33-3.23v-0.3c0-4.88,3.93-9.02,8.96-9.16c5.21-0.14,9.49,3.93,9.49,8.95c0,2.63-1.19,5.12-3.27,6.83
	L262.25,74.9c-1.41,1.17-2.23,2.88-2.23,4.68V100c0,1.95,1.63,3.54,3.65,3.54h23.13c2.2,0,3.99-1.73,3.99-3.87v-5.05
	c0-2.59,1.17-5.05,3.2-6.72l7.3-6.02c8.96-7.39,14.11-18.17,14.11-29.58C315.39,30.9,297.45,13.49,275.4,13.49L275.4,13.49z
	 M296.3,76.19l-9.39,7.75c-2.43,2-3.83,4.94-3.83,8.03v4.1c0,0.01-0.01,0.01-0.01,0.01h-15.35c-0.01,0-0.01-0.01-0.01-0.01V83.69
	c0-2.22,1.01-4.33,2.75-5.77l15.88-13.1c3.8-3.13,5.98-7.69,5.98-12.52c0-9.05-7.59-16.42-16.92-16.42
	c-7.01,0-13.04,4.16-15.6,10.07c-0.69,1.58-2.28,2.61-4.05,2.61h-8.98c-1.87,0-3.23-1.69-2.8-3.46
	c3.36-13.83,16.18-24.16,31.44-24.16c17.81,0,32.3,14.06,32.3,31.34C307.7,61.51,303.54,70.22,296.3,76.19L296.3,76.19z
	 M296.3,76.19"/>
<g class="st3">
	<path class="st4" d="M315.73,148.18c-0.62,0-1.18-0.21-1.66-0.62c-0.46-0.39-0.77-0.9-0.92-1.51c-0.1-0.23-0.15-0.54-0.01-0.96
		c0.02-0.07,0.04-0.12,0.05-0.16c-0.01-0.32,0.16-0.6,0.33-0.84l0.27-0.4l0.31-0.37c0.2-0.23,0.31-0.35,0.4-0.44
		c0.21-0.23,0.64-0.69,1.27-1.37l1.46-1.55c0.27-0.29,0.69-0.81,1.25-1.55c0.55-0.73,0.99-1.39,1.3-1.98
		c0.32-0.6,0.7-1.39,1.11-2.35c0.33-0.77,0.63-1.58,0.89-2.44c-4.23-2.42-7.64-5.41-10.13-8.91c-2.62-3.68-3.95-7.69-3.95-11.91
		c0-4.9,1.76-9.48,5.23-13.62c3.43-4.1,8.15-7.37,14.03-9.74c5.85-2.36,12.32-3.55,19.24-3.55s13.39,1.19,19.24,3.55
		c5.87,2.37,10.59,5.64,14.03,9.74c3.47,4.14,5.23,8.72,5.23,13.62c0,4.9-1.76,9.48-5.23,13.61c-3.43,4.09-8.15,7.37-14.03,9.74
		c-5.84,2.36-12.32,3.55-19.24,3.55c-1.88,0-3.84-0.1-5.83-0.29c-5.56,4.7-12.1,8.01-19.42,9.83c-1.38,0.38-3.04,0.69-4.9,0.92
		l-0.05,0.01H315.73z M346.19,90.7c-5.59,0-10.89,0.94-15.76,2.79c-4.83,1.84-8.72,4.34-11.56,7.45c-2.78,3.05-4.19,6.38-4.19,9.9
		c0,2.87,0.96,5.66,2.86,8.27c1.93,2.66,4.69,4.99,8.22,6.94l4.2,2.34l-1.3,4.5c-0.49,1.79-1.14,3.53-1.95,5.2
		c3.36-1.57,6.48-3.56,9.28-5.95l2.07-1.78l2.75,0.28c1.92,0.21,3.73,0.32,5.39,0.32c5.59,0,10.9-0.94,15.76-2.79
		c4.83-1.84,8.72-4.34,11.56-7.45c2.78-3.05,4.2-6.38,4.2-9.9c0-3.52-1.41-6.85-4.2-9.9c-2.83-3.1-6.72-5.61-11.56-7.45
		C357.09,91.63,351.79,90.7,346.19,90.7z"/>
</g>
<path class="st5" d="M1263.7,211.39c-2.29,0-4.44-0.89-6.05-2.5l-15.21-14.68h-22.96c-9.57,0-17.36-7.55-17.36-16.83v-26.76
	l-13.36,12.9c-1.55,1.55-3.74,2.45-5.99,2.45c-1.1,0-2.17-0.2-3.18-0.6c-3.22-1.27-5.3-4.27-5.3-7.66v-8.91h-0.34
	c-9.56,0-17.34-7.55-17.34-16.83V97.66c0-9.28,7.78-16.83,17.34-16.83h53.04c4.62,0,8.97,1.75,12.26,4.93
	c3.28,3.18,5.08,7.41,5.08,11.9v28.58h28.17c9.57,0,17.36,7.55,17.36,16.82v34.32c0,9.28-7.79,16.83-17.36,16.83h-0.32v8.92
	c0,3.38-2.08,6.38-5.29,7.65C1265.86,211.18,1264.79,211.39,1263.7,211.39z M1210.28,177.39c0,4.91,4.13,8.91,9.2,8.91h24.65
	c1.08,0,2.1,0.41,2.88,1.15l16.45,15.88c0.14,0.14,0.21,0.14,0.24,0.14c0.04,0,0.08-0.01,0.13-0.03c0.16-0.06,0.19-0.15,0.19-0.3
	v-12.89c0-2.18,1.83-3.96,4.08-3.96h4.4c5.07,0,9.2-4,9.2-8.91l0-34.32c0-4.91-4.13-8.9-9.2-8.9h-28.33
	c-1.12,8.27-8.51,14.64-17.18,14.64h-16.7V177.39z M1173.94,88.75c-5.06,0-9.18,4-9.18,8.91v34.31c0,4.91,4.12,8.91,9.18,8.91h4.42
	c2.25,0,4.08,1.78,4.08,3.96v12.87c0,0.18,0.05,0.26,0.2,0.32c0.04,0.02,0.09,0.03,0.13,0.03c0.03,0,0.08,0,0.18-0.1l16.5-15.92
	c0.74-0.72,1.76-1.13,2.8-1.15c0.02,0,0.05,0,0.07,0h24.66c5.06,0,9.18-4,9.18-8.91V97.66c0-2.37-0.96-4.61-2.69-6.29
	c-1.74-1.69-4.04-2.61-6.49-2.61H1173.94z"/>
<path class="st5" d="M1226.32,165.67c-3.08,0-5.59-2.43-5.59-5.42s2.51-5.42,5.59-5.42c3.08,0,5.59,2.43,5.59,5.42
	S1229.41,165.67,1226.32,165.67z"/>
<path class="st5" d="M1245.98,165.67c-3.08,0-5.59-2.43-5.59-5.42s2.51-5.42,5.59-5.42c3.09,0,5.6,2.43,5.6,5.42
	S1249.07,165.67,1245.98,165.67z"/>
<path class="st5" d="M1265.65,165.67c-3.08,0-5.59-2.43-5.59-5.42s2.51-5.42,5.59-5.42c3.08,0,5.59,2.43,5.59,5.42
	S1268.73,165.67,1265.65,165.67z"/>
<path class="st5" d="M1199.41,132.61c-2.33,0-4.23-1.86-4.23-4.14s1.9-4.14,4.23-4.14c2.35,0,4.27,1.86,4.27,4.14
	S1201.77,132.61,1199.41,132.61z"/>
<path class="st5" d="M1199.36,123.76c-2.6,0-3.66-1.2-3.66-4.13c0-4.42,1.96-6.62,3.67-8.05c0.32-0.26,0.66-0.52,1.03-0.79
	c1.46-1.09,3.11-2.32,3.11-4.04c0-2.25-2.76-2.43-3.6-2.43c-2.48,0-3.13,0.94-3.82,1.93c-0.57,0.81-1.27,1.82-2.89,1.82
	c-1.9,0-3.91-1.28-3.91-3.65c0-2.98,3.42-7.39,10.77-7.39c3.31,0,6.18,0.86,8.3,2.49c2.11,1.62,3.27,3.9,3.27,6.41
	c0,3.38-2,6.6-5.95,9.59c-2.46,1.86-2.46,3.04-2.46,5.38C1203.22,121.75,1202.84,123.76,1199.36,123.76z"/>
<linearGradient id="SVGID_2_" gradientUnits="userSpaceOnUse" x1="-3.514" y1="201.3806" x2="1403.514" y2="28.6193">
	<stop  offset="0" style="stop-color:#00936F"/>
	<stop  offset="0.2501" style="stop-color:#00814F"/>
	<stop  offset="0.4854" style="stop-color:#007039"/>
	<stop  offset="0.6962" style="stop-color:#00622A"/>
	<stop  offset="0.8748" style="stop-color:#005A22"/>
	<stop  offset="1" style="stop-color:#00561F"/>
</linearGradient>
<rect x="0" style="opacity:0.8;fill:url(#SVGID_2_);" width="1400" height="230"/>
<g>
	<path class="st4" d="M66.88,182.63c0,5.94-1.52,10.51-4.56,13.71c-3.04,3.19-7.39,4.79-13.06,4.79s-10.02-1.6-13.06-4.79
		c-3.04-3.19-4.56-7.78-4.56-13.76c0-5.98,1.52-10.54,4.57-13.69c3.04-3.15,7.41-4.73,13.1-4.73s10.04,1.59,13.05,4.76
		C65.37,172.1,66.88,176.67,66.88,182.63z M39.87,182.63c0,4.01,0.78,7.03,2.35,9.06c1.57,2.03,3.91,3.05,7.04,3.05
		c6.26,0,9.39-4.04,9.39-12.11c0-8.09-3.11-12.13-9.34-12.13c-3.12,0-5.48,1.02-7.06,3.06C40.66,175.59,39.87,178.62,39.87,182.63z"
		/>
	<path class="st4" d="M82.9,201.13c-3.32,0-5.94-1.25-7.83-3.76c-1.9-2.51-2.85-5.98-2.85-10.41c0-4.5,0.97-8.01,2.9-10.53
		c1.93-2.51,4.59-3.77,7.99-3.77c3.56,0,6.28,1.34,8.15,4.03h0.25c-0.39-2.05-0.58-3.87-0.58-5.48v-8.79h7.74v38.22h-5.92
		l-1.49-3.56h-0.33C89.16,199.78,86.49,201.13,82.9,201.13z M85.6,195.16c1.97,0,3.42-0.56,4.34-1.67c0.92-1.11,1.42-3,1.51-5.67
		V187c0-2.95-0.47-5.06-1.4-6.34c-0.94-1.28-2.46-1.92-4.57-1.92c-1.72,0-3.06,0.71-4.01,2.13c-0.95,1.42-1.43,3.48-1.43,6.18
		c0,2.7,0.48,4.73,1.44,6.08C82.44,194.48,83.82,195.16,85.6,195.16z"/>
	<path class="st4" d="M142.65,190.66c0,3.24-1.2,5.8-3.61,7.66c-2.4,1.87-5.75,2.8-10.04,2.8c-3.95,0-7.44-0.72-10.48-2.16v-7.07
		c2.5,1.08,4.61,1.84,6.34,2.28c1.73,0.44,3.31,0.66,4.75,0.66c1.72,0,3.04-0.32,3.96-0.96c0.92-0.64,1.38-1.59,1.38-2.85
		c0-0.7-0.2-1.33-0.61-1.88c-0.4-0.55-1-1.08-1.78-1.58c-0.78-0.51-2.38-1.32-4.8-2.43c-2.26-1.03-3.96-2.02-5.09-2.97
		c-1.13-0.95-2.03-2.05-2.71-3.32c-0.68-1.26-1.01-2.73-1.01-4.42c0-3.18,1.11-5.67,3.33-7.49c2.22-1.82,5.29-2.73,9.2-2.73
		c1.92,0,3.76,0.22,5.51,0.66c1.75,0.44,3.57,1.06,5.48,1.87l-2.53,5.92c-1.97-0.79-3.61-1.33-4.9-1.65
		c-1.29-0.31-2.56-0.47-3.81-0.47c-1.49,0-2.62,0.34-3.42,1.01c-0.79,0.67-1.19,1.55-1.19,2.63c0,0.67,0.16,1.26,0.48,1.76
		c0.32,0.5,0.83,0.98,1.53,1.45c0.7,0.47,2.36,1.31,4.97,2.52c3.46,1.61,5.83,3.21,7.11,4.83
		C142.01,186.34,142.65,188.32,142.65,190.66z"/>
	<path class="st4" d="M157.08,177.79l1.77-1.06l2.96,4.84l-4.73,2.75v16.31h-7.72v-11.72l-1.8,1.06l-2.86-4.84l4.66-2.75v-19.97
		h7.72V177.79z"/>
	<path class="st4" d="M191.58,186.86c0,4.47-1.21,7.97-3.64,10.49c-2.43,2.52-5.81,3.78-10.15,3.78c-2.72,0-5.11-0.58-7.19-1.73
		c-2.08-1.15-3.67-2.81-4.78-4.97c-1.11-2.16-1.67-4.68-1.67-7.57c0-4.49,1.21-7.97,3.62-10.46c2.41-2.49,5.8-3.73,10.17-3.73
		c2.72,0,5.11,0.57,7.19,1.72c2.08,1.15,3.67,2.79,4.78,4.94C191.02,181.46,191.58,183.97,191.58,186.86z M172.01,186.86
		c0,2.72,0.46,4.77,1.38,6.16c0.92,1.39,2.42,2.09,4.49,2.09c2.06,0,3.54-0.69,4.44-2.08c0.9-1.38,1.35-3.44,1.35-6.18
		c0-2.72-0.46-4.76-1.37-6.12c-0.91-1.36-2.4-2.04-4.48-2.04c-2.06,0-3.54,0.67-4.45,2.03
		C172.47,182.08,172.01,184.12,172.01,186.86z"/>
	<path class="st4" d="M221.22,200.64l-2.18-9.6l-2.94-12.13h-0.18l-5.16,21.74h-8.3l-8.05-27.46h7.69l3.26,12.16
		c0.52,2.18,1.05,5.18,1.59,9.01h0.15c0.07-1.24,0.36-3.22,0.89-5.92l0.4-2.09l3.49-13.17h8.5l3.32,13.17
		c0.07,0.36,0.17,0.89,0.32,1.6c0.14,0.7,0.28,1.45,0.42,2.25c0.13,0.79,0.26,1.57,0.37,2.33c0.11,0.76,0.17,1.37,0.19,1.83h0.15
		c0.15-1.18,0.42-2.8,0.81-4.85c0.39-2.05,0.67-3.44,0.84-4.16l3.39-12.16h7.57l-8.15,27.46H221.22z"/>
	<path class="st4" d="M260.29,200.64l-1.49-3.73h-0.2c-1.3,1.59-2.64,2.69-4.01,3.3c-1.38,0.61-3.17,0.92-5.38,0.92
		c-2.72,0-4.86-0.75-6.42-2.26c-1.56-1.51-2.34-3.65-2.34-6.44c0-2.91,1.05-5.06,3.15-6.45c2.1-1.38,5.27-2.15,9.5-2.3l4.91-0.15
		v-1.2c0-2.78-1.47-4.18-4.4-4.18c-2.26,0-4.92,0.66-7.97,1.99l-2.56-5.06c3.26-1.65,6.87-2.48,10.83-2.48c3.8,0,6.71,0.8,8.73,2.41
		c2.02,1.61,3.04,4.04,3.04,7.32v18.3H260.29z M258.02,187.91l-2.99,0.1c-2.24,0.07-3.91,0.46-5.01,1.18
		c-1.1,0.72-1.64,1.82-1.64,3.29c0,2.11,1.25,3.17,3.75,3.17c1.79,0,3.22-0.5,4.29-1.5c1.07-1,1.61-2.32,1.61-3.98V187.91z"/>
	<path class="st4" d="M297.73,173.42c1.99,0,3.71,0.35,5.16,1.06c1.45,0.7,2.75,1.91,3.9,3.61h0.15c-0.1-2.06-0.15-4.09-0.15-6.07
		v-9.6h2.48v38.22h-1.65l-0.63-4.08h-0.2c-2.09,3.05-5.1,4.57-9.01,4.57c-3.8,0-6.7-1.15-8.71-3.44c-2.01-2.29-3.01-5.63-3.01-10.02
		c0-4.62,1-8.15,2.99-10.59C291.04,174.64,293.93,173.42,297.73,173.42z M297.73,175.63c-3,0-5.26,1.02-6.77,3.07
		c-1.51,2.05-2.27,5.02-2.27,8.92c0,7.57,3.03,11.35,9.09,11.35c3.1,0,5.38-0.88,6.83-2.63c1.45-1.75,2.18-4.64,2.18-8.67v-0.42
		c0-4.13-0.71-7.09-2.14-8.9C303.22,176.54,300.92,175.63,297.73,175.63z"/>
	<path class="st4" d="M341.26,187.25c0,4.36-1.09,7.76-3.27,10.21c-2.18,2.45-5.18,3.67-9.01,3.67c-2.41,0-4.54-0.57-6.38-1.69
		c-1.84-1.13-3.25-2.75-4.23-4.86c-0.98-2.11-1.47-4.55-1.47-7.32c0-4.36,1.09-7.75,3.26-10.18c2.18-2.43,5.16-3.65,8.96-3.65
		c3.78,0,6.74,1.23,8.9,3.7C340.18,179.58,341.26,182.96,341.26,187.25z M319.55,187.25c0,3.67,0.83,6.53,2.49,8.58
		c1.66,2.06,4.01,3.08,7.05,3.08c3.04,0,5.39-1.03,7.05-3.08c1.66-2.05,2.49-4.92,2.49-8.58c0-3.69-0.84-6.54-2.52-8.57
		c-1.68-2.03-4.04-3.05-7.07-3.05s-5.38,1.01-7.02,3.03C320.37,180.69,319.55,183.55,319.55,187.25z"/>
	<path class="st4" d="M379.4,193.68c0,2.39-0.94,4.23-2.81,5.51c-1.87,1.29-4.53,1.93-7.97,1.93c-3.68,0-6.6-0.55-8.76-1.65v-2.63
		c2.77,1.34,5.69,2.01,8.76,2.01c2.72,0,4.78-0.44,6.19-1.31c1.41-0.88,2.11-2.04,2.11-3.5c0-1.34-0.56-2.47-1.68-3.39
		c-1.12-0.92-2.97-1.82-5.53-2.7c-2.75-0.97-4.68-1.8-5.8-2.49c-1.11-0.7-1.95-1.48-2.52-2.36c-0.57-0.88-0.85-1.94-0.85-3.21
		c0-2,0.86-3.58,2.59-4.74c1.73-1.16,4.15-1.74,7.25-1.74c2.97,0,5.79,0.54,8.45,1.62l-0.94,2.21c-2.7-1.08-5.21-1.62-7.52-1.62
		c-2.24,0-4.02,0.36-5.34,1.08c-1.32,0.72-1.97,1.72-1.97,3c0,1.39,0.51,2.51,1.53,3.34s3.02,1.77,5.99,2.8
		c2.48,0.87,4.29,1.65,5.42,2.35c1.13,0.7,1.98,1.49,2.54,2.37C379.12,191.45,379.4,192.49,379.4,193.68z"/>
	<path class="st4" d="M389,180.57l3.87-2.53l1.09,1.72l-4.96,3.22v17.66h-2.51V184.6l-3.26,2.11l-1.14-1.77l4.4-2.82v-19.7H389
		V180.57z"/>
	<path class="st4" d="M420.96,187.25c0,4.36-1.09,7.76-3.26,10.21c-2.18,2.45-5.18,3.67-9.01,3.67c-2.41,0-4.54-0.57-6.38-1.69
		c-1.84-1.13-3.25-2.75-4.23-4.86c-0.98-2.11-1.47-4.55-1.47-7.32c0-4.36,1.09-7.75,3.27-10.18c2.18-2.43,5.16-3.65,8.96-3.65
		c3.78,0,6.74,1.23,8.9,3.7C419.89,179.58,420.96,182.96,420.96,187.25z M399.25,187.25c0,3.67,0.83,6.53,2.49,8.58
		c1.66,2.06,4.01,3.08,7.05,3.08s5.39-1.03,7.05-3.08c1.66-2.05,2.49-4.92,2.49-8.58c0-3.69-0.84-6.54-2.52-8.57
		c-1.68-2.03-4.04-3.05-7.07-3.05s-5.38,1.01-7.02,3.03C400.07,180.69,399.25,183.55,399.25,187.25z"/>
	<path class="st4" d="M450.57,200.64l-6.02-17.86c-0.39-1.21-0.89-2.99-1.49-5.33h-0.15l-0.53,1.82l-1.14,3.56l-6.13,17.81h-2.48
		l-7.87-26.7h2.68l4.4,15.48c1.03,3.83,1.7,6.65,2.02,8.45h0.15c1-3.83,1.72-6.38,2.18-7.64l5.67-16.29h2.28l5.39,16.24
		c1.21,3.85,1.96,6.39,2.23,7.64h0.15c0.13-1.06,0.81-3.91,2.02-8.55l4.2-15.33h2.53l-7.47,26.7H450.57z"/>
	<path class="st4" d="M482.77,200.64l-0.63-4.22h-0.2c-1.38,1.72-2.81,2.94-4.27,3.65c-1.46,0.71-3.18,1.07-5.18,1.07
		c-2.7,0-4.8-0.67-6.3-2.01c-1.5-1.34-2.25-3.2-2.25-5.58c0-2.6,1.12-4.63,3.35-6.07c2.24-1.44,5.47-2.2,9.71-2.28l5.24-0.15v-1.77
		c0-2.54-0.53-4.45-1.59-5.75c-1.06-1.29-2.78-1.94-5.14-1.94c-2.55,0-5.19,0.69-7.92,2.06l-0.94-2.11
		c3.02-1.38,6.01-2.06,8.96-2.06c3.02,0,5.28,0.76,6.77,2.28c1.49,1.52,2.24,3.9,2.24,7.12v17.76H482.77z M472.64,198.92
		c2.94,0,5.25-0.81,6.95-2.44c1.7-1.63,2.54-3.89,2.54-6.79v-2.63l-4.81,0.2c-3.86,0.18-6.62,0.77-8.26,1.76
		c-1.64,0.99-2.47,2.53-2.47,4.63c0,1.67,0.53,2.97,1.58,3.89C469.23,198.45,470.72,198.92,472.64,198.92z"/>
</g>
</svg>
