<?xml version="1.0" encoding="utf-8"?>
<!-- Generator: Adobe Illustrator 24.2.1, SVG Export Plug-In . SVG Version: 6.00 Build 0)  -->
<svg version="1.1" id="Warstwa_1" xmlns="http://www.w3.org/2000/svg" xmlns:xlink="http://www.w3.org/1999/xlink" x="0px" y="0px"
	 viewBox="0 0 400 400" style="enable-background:new 0 0 400 400;" xml:space="preserve">
<style type="text/css">
	.st0{opacity:0.8;fill:url(#SVGID_1_);}
	.st1{fill:#FFFFFF;}
	.st2{opacity:0.8;fill:url(#SVGID_2_);}
	.st3{fill:url(#SVGID_3_);}
	.st4{fill:url(#SVGID_4_);}
	.st5{fill:url(#SVGID_5_);}
	.st6{fill:url(#SVGID_6_);}
	.st7{fill:url(#SVGID_7_);}
	.st8{fill:url(#SVGID_8_);}
	.st9{fill:url(#SVGID_9_);}
	.st10{fill:url(#SVGID_10_);}
	.st11{fill:url(#SVGID_11_);}
	.st12{fill:url(#SVGID_12_);}
	.st13{fill:url(#SVGID_13_);}
	.st14{fill:url(#SVGID_14_);}
	.st15{fill:url(#SVGID_15_);}
	.st16{fill:url(#SVGID_16_);}
	.st17{fill:url(#SVGID_17_);}
	.st18{fill:url(#SVGID_18_);}
	.st19{fill:url(#SVGID_19_);}
	.st20{fill:url(#SVGID_20_);}
	.st21{fill:url(#SVGID_21_);}
	.st22{fill:url(#SVGID_22_);}
	.st23{fill:url(#SVGID_23_);}
	.st24{fill:url(#SVGID_24_);}
	.st25{fill:url(#SVGID_25_);}
	.st26{opacity:0.8;fill:url(#SVGID_26_);}
	.st27{fill:url(#SVGID_27_);}
	.st28{fill:url(#SVGID_28_);}
	.st29{opacity:0.8;fill:url(#SVGID_29_);}
	.st30{opacity:0.9;}
	.st31{fill:url(#SVGID_30_);}
	.st32{opacity:0.8;fill:url(#SVGID_31_);}
	.st33{opacity:0.8;}
	.st34{fill:url(#SVGID_32_);}
	.st35{opacity:0.8;fill:url(#SVGID_33_);}
	.st36{fill:url(#SVGID_34_);}
	.st37{fill:url(#SVGID_35_);}
	.st38{opacity:0.9;fill:url(#SVGID_36_);}
</style>
<linearGradient id="SVGID_1_" gradientUnits="userSpaceOnUse" x1="25" y1="200" x2="375" y2="200">
	<stop  offset="0" style="stop-color:#00936E"/>
	<stop  offset="0.1286" style="stop-color:#008861"/>
	<stop  offset="0.4845" style="stop-color:#016D42"/>
	<stop  offset="0.7875" style="stop-color:#025C30"/>
	<stop  offset="1" style="stop-color:#025629"/>
</linearGradient>
<circle style="fill:url(#SVGID_1_);" cx="200" cy="200" r="175"/>
<path class="st1" d="M179.28,171.29c4.35,0,7.87,3.52,7.87,7.87l0,0c0,4.35-3.52,7.87-7.87,7.87s-7.87-3.52-7.87-7.87l0,0
	C171.41,174.81,174.93,171.29,179.28,171.29z M202.88,179.15L202.88,179.15c0,4.35,3.52,7.87,7.87,7.87s7.87-3.52,7.87-7.87l0,0
	c0-4.35-3.52-7.87-7.87-7.87S202.88,174.81,202.88,179.15z M234.35,179.15L234.35,179.15c0,4.35,3.52,7.87,7.87,7.87
	c4.35,0,7.87-3.52,7.87-7.87l0,0c0-4.35-3.52-7.87-7.87-7.87C237.87,171.29,234.35,174.81,234.35,179.15z M296.71,260.78
	c1.2,2.97,0.48,6.37-1.82,8.6c-1.5,1.45-3.47,2.22-5.48,2.22c-1.07,0-2.15-0.22-3.17-0.67l-42.21-18.61
	c-5.3,2.03-10.76,3.54-16.34,4.54c-5.72,9.41-13.88,17.38-23.8,23.18c-11.07,6.47-23.86,9.93-37.02,10.03
	c-0.19,0.01-0.39,0.03-0.58,0.03c-9.09,0-17.9-1.57-26.24-4.67l-33.13,14.61c-1.02,0.45-2.1,0.67-3.17,0.67
	c-2.01,0-3.98-0.77-5.48-2.22c-2.3-2.23-3.02-5.63-1.82-8.6l11.49-28.43c-7.91-10.77-12.06-23.28-12.06-36.47
	c0-21.11,10.95-40.71,29.42-52.95c1.7-18.81,10.49-36.26,25.17-49.7c16.24-14.86,37.78-23.05,60.66-23.05s44.43,8.19,60.66,23.05
	c16.43,15.04,25.48,35.09,25.48,56.47c0,3.54-0.31,7.56-0.87,11.34c-0.64,4.3-4.64,7.26-8.94,6.62c-4.3-0.64-7.26-4.64-6.62-8.94
	c0.44-2.98,0.7-6.27,0.7-9.01c0-35.17-31.59-63.78-70.41-63.78s-70.41,28.61-70.41,63.78c0,30.8,28.29,63.78,70.41,63.78
	c10.47,0,20.54-2.03,29.95-6.05c2-0.85,4.27-0.84,6.26,0.04l27.52,12.13l-9.27-22.92c-1.63-4.03,0.32-8.61,4.35-10.24
	c4.03-1.63,8.61,0.32,10.24,4.35L296.71,260.78z M206.67,258.22c-21.79-1.02-41.98-9.53-57.24-24.22
	c-12.26-11.8-20.39-26.83-23.27-42.53c-9.25,9.03-14.54,20.95-14.54,33.52c0,10.99,3.92,21.39,11.33,30.08
	c1.9,2.23,2.41,5.33,1.31,8.05l-5.94,14.7l18.42-8.12c1.99-0.88,4.26-0.89,6.26-0.04c7.22,3.08,14.95,4.66,22.99,4.7
	c0.11,0,0.21-0.02,0.32-0.02C181.79,274.35,196.44,268.29,206.67,258.22z"/>
</svg>
