<?xml version="1.0" encoding="utf-8"?>
<!-- Generator: Adobe Illustrator 24.2.1, SVG Export Plug-In . SVG Version: 6.00 Build 0)  -->
<svg version="1.1" id="Warstwa_1" xmlns="http://www.w3.org/2000/svg" xmlns:xlink="http://www.w3.org/1999/xlink" x="0px" y="0px"
	 viewBox="0 0 400 400" style="enable-background:new 0 0 400 400;" xml:space="preserve">
<style type="text/css">
	.st0{opacity:0.8;fill:url(#SVGID_1_);}
	.st1{fill:#FFFFFF;}
	.st2{opacity:0.8;fill:url(#SVGID_2_);}
	.st3{fill:url(#SVGID_3_);}
	.st4{fill:url(#SVGID_4_);}
	.st5{fill:url(#SVGID_5_);}
	.st6{fill:url(#SVGID_6_);}
	.st7{fill:url(#SVGID_7_);}
	.st8{fill:url(#SVGID_8_);}
	.st9{fill:url(#SVGID_9_);}
	.st10{fill:url(#SVGID_10_);}
	.st11{fill:url(#SVGID_11_);}
	.st12{fill:url(#SVGID_12_);}
	.st13{fill:url(#SVGID_13_);}
	.st14{fill:url(#SVGID_14_);}
	.st15{fill:url(#SVGID_15_);}
	.st16{fill:url(#SVGID_16_);}
	.st17{fill:url(#SVGID_17_);}
	.st18{fill:url(#SVGID_18_);}
	.st19{fill:url(#SVGID_19_);}
	.st20{fill:url(#SVGID_20_);}
	.st21{fill:url(#SVGID_21_);}
	.st22{fill:url(#SVGID_22_);}
	.st23{fill:url(#SVGID_23_);}
	.st24{fill:url(#SVGID_24_);}
	.st25{fill:url(#SVGID_25_);}
	.st26{opacity:0.8;fill:url(#SVGID_26_);}
	.st27{fill:url(#SVGID_27_);}
	.st28{fill:url(#SVGID_28_);}
	.st29{opacity:0.8;fill:url(#SVGID_29_);}
	.st30{opacity:0.9;}
	.st31{fill:url(#SVGID_30_);}
	.st32{opacity:0.8;fill:url(#SVGID_31_);}
	.st33{opacity:0.8;}
	.st34{fill:url(#SVGID_32_);}
	.st35{opacity:0.8;fill:url(#SVGID_33_);}
	.st36{fill:url(#SVGID_34_);}
	.st37{fill:url(#SVGID_35_);}
	.st38{opacity:0.9;fill:url(#SVGID_36_);}
</style>
<linearGradient id="SVGID_1_" gradientUnits="userSpaceOnUse" x1="25" y1="200" x2="375" y2="200">
	<stop  offset="0" style="stop-color:#00936E"/>
	<stop  offset="0.1286" style="stop-color:#008861"/>
	<stop  offset="0.4845" style="stop-color:#016D42"/>
	<stop  offset="0.7875" style="stop-color:#025C30"/>
	<stop  offset="1" style="stop-color:#025629"/>
</linearGradient>
<circle style="fill:url(#SVGID_1_);" cx="200" cy="200" r="175"/>
<g>
	<path class="st1" d="M200,259.2c-14.4,0-26.12,11.72-26.12,26.12c0,14.4,11.72,26.12,26.12,26.12c14.4,0,26.12-11.72,26.12-26.12
		C226.12,270.91,214.4,259.2,200,259.2L200,259.2z M200,298.37c-7.2,0-13.06-5.86-13.06-13.06c0-7.2,5.86-13.06,13.06-13.06
		s13.06,5.86,13.06,13.06C213.06,292.51,207.2,298.37,200,298.37L200,298.37z M200,298.37"/>
	<path class="st1" d="M200,88.57c-37.44,0-67.9,30.46-67.9,67.9v0.68c0,3.23,2.62,5.85,5.85,5.85h40.73c3.12,0,5.65-2.53,5.65-5.65
		v-0.52c0-8.54,6.68-15.78,15.22-16.02c8.85-0.25,16.12,6.87,16.12,15.66c0,4.6-2.02,8.96-5.55,11.96l-32.45,27.59
		c-2.4,2.04-3.79,5.03-3.79,8.19v35.74c0,3.42,2.77,6.19,6.19,6.19h39.27c3.74,0,6.77-3.03,6.77-6.77v-8.84
		c0-4.53,1.99-8.83,5.44-11.77l12.39-10.54c15.22-12.93,23.95-31.8,23.95-51.76C267.9,119.03,237.44,88.57,200,88.57L200,88.57z
		 M235.49,198.28l-15.94,13.55c-4.12,3.5-6.5,8.64-6.5,14.05v7.18c0,0.01-0.01,0.02-0.02,0.02h-26.07c-0.01,0-0.02-0.01-0.02-0.02
		v-21.65c0-3.89,1.71-7.58,4.67-10.1l26.97-22.93c6.45-5.48,10.15-13.46,10.15-21.91c0-15.84-12.89-28.73-28.73-28.73
		c-11.91,0-22.15,7.28-26.5,17.63c-1.17,2.77-3.88,4.57-6.88,4.57h-15.26c-3.17,0-5.48-2.96-4.75-6.05
		c5.7-24.2,27.47-42.27,53.39-42.27c30.24,0,54.84,24.6,54.84,54.84C254.84,172.59,247.79,187.83,235.49,198.28L235.49,198.28z
		 M235.49,198.28"/>
</g>
</svg>
