<?xml version="1.0" encoding="utf-8"?>
<!-- Generator: Adobe Illustrator 24.2.1, SVG Export Plug-In . SVG Version: 6.00 Build 0)  -->
<svg version="1.1" id="Warstwa_1" xmlns="http://www.w3.org/2000/svg" xmlns:xlink="http://www.w3.org/1999/xlink" x="0px" y="0px"
	 viewBox="0 0 400 400" style="enable-background:new 0 0 400 400;" xml:space="preserve">
<style type="text/css">
	.st0{opacity:0.8;fill:url(#SVGID_1_);}
	.st1{fill:#FFFFFF;}
	.st2{opacity:0.8;fill:url(#SVGID_2_);}
	.st3{fill:url(#SVGID_3_);}
	.st4{fill:url(#SVGID_4_);}
	.st5{fill:url(#SVGID_5_);}
	.st6{fill:url(#SVGID_6_);}
	.st7{fill:url(#SVGID_7_);}
	.st8{fill:url(#SVGID_8_);}
	.st9{fill:url(#SVGID_9_);}
	.st10{fill:url(#SVGID_10_);}
	.st11{fill:url(#SVGID_11_);}
	.st12{fill:url(#SVGID_12_);}
	.st13{fill:url(#SVGID_13_);}
	.st14{fill:url(#SVGID_14_);}
	.st15{fill:url(#SVGID_15_);}
	.st16{fill:url(#SVGID_16_);}
	.st17{fill:url(#SVGID_17_);}
	.st18{fill:url(#SVGID_18_);}
	.st19{fill:url(#SVGID_19_);}
	.st20{fill:url(#SVGID_20_);}
	.st21{fill:url(#SVGID_21_);}
	.st22{fill:url(#SVGID_22_);}
	.st23{fill:url(#SVGID_23_);}
	.st24{fill:url(#SVGID_24_);}
	.st25{fill:url(#SVGID_25_);}
	.st26{opacity:0.8;fill:url(#SVGID_26_);}
	.st27{fill:url(#SVGID_27_);}
	.st28{fill:url(#SVGID_28_);}
	.st29{opacity:0.8;fill:url(#SVGID_29_);}
	.st30{opacity:0.9;}
	.st31{fill:url(#SVGID_30_);}
	.st32{opacity:0.8;fill:url(#SVGID_31_);}
	.st33{opacity:0.8;}
	.st34{fill:url(#SVGID_32_);}
	.st35{opacity:0.8;fill:url(#SVGID_33_);}
	.st36{fill:url(#SVGID_34_);}
	.st37{fill:url(#SVGID_35_);}
	.st38{opacity:0.9;fill:url(#SVGID_36_);}
</style>
<linearGradient id="SVGID_1_" gradientUnits="userSpaceOnUse" x1="25" y1="200" x2="375" y2="200">
	<stop  offset="0" style="stop-color:#00936E"/>
	<stop  offset="0.1286" style="stop-color:#008861"/>
	<stop  offset="0.4845" style="stop-color:#016D42"/>
	<stop  offset="0.7875" style="stop-color:#025C30"/>
	<stop  offset="1" style="stop-color:#025629"/>
</linearGradient>
<circle style="fill:url(#SVGID_1_);" cx="200" cy="200" r="175"/>
<g>
	<path class="st1" d="M265.52,105.1H130.43c-4.73,0-6.75,4.05-6.75,6.75v156.03c0,4.73,4.05,6.08,5.4,6.75l95.24,20.26
		c5.4,0,6.75-4.73,6.75-6.75v-12.83h34.45c4.05,0,6.75-2.7,6.75-6.75v-156.7C272.27,107.8,269.57,105.1,265.52,105.1L265.52,105.1z
		 M217.56,279.37l-80.38-16.89V120.64l80.38,15.53V279.37z M258.76,261.13h-27.69V130.09c0-3.38-2.03-6.08-5.4-6.75l-24.32-4.73
		h57.41V261.13z M258.76,261.13"/>
	<path class="st1" d="M197.97,219.93c4.05,0,6.75-3.38,6.75-6.75v-27.02c0-4.05-2.7-6.75-6.75-6.75c-4.05,0-6.75,3.38-6.75,6.75
		v27.02C191.22,216.55,194.6,219.93,197.97,219.93L197.97,219.93z M197.97,219.93"/>
</g>
</svg>
